<svg version="1.1" xmlns="http://www.w3.org/2000/svg" xmlns:xlink="http://www.w3.org/1999/xlink" width="70" height="70" viewBox="0,0,70,70" odoo-icon:version="1.0" xmlns:odoo-icon="https://ivantodorovich.github.io/odoo-icon" odoo-icon:size="70" odoo-icon:icon-size="0.65" odoo-icon:icon-color="#FFFFFF" odoo-icon:icon-flat-shadow-angle="135" odoo-icon:background-color="#e53935" odoo-icon:background-gradient="0.2" odoo-icon:box-radius="3.5" odoo-icon:odoo-version="14.0"><defs><linearGradient x1="70" y1="0" x2="0" y2="70" gradientUnits="userSpaceOnUse" id="color-1"><stop offset="0" stop-color="#ff6c68"/><stop offset="1" stop-color="#e53935"/></linearGradient></defs><g fill="none" fill-rule="nonzero" stroke="none" stroke-width="1" stroke-linecap="butt" stroke-linejoin="miter" stroke-miterlimit="10" stroke-dasharray="" stroke-dashoffset="0" font-family="none" font-weight="none" font-size="none" text-anchor="none" style="mix-blend-mode: normal"><path d="M3.5,70c-1.933,0 -3.5,-1.567 -3.5,-3.5v-63c0,-1.933 1.567,-3.5 3.5,-3.5h63c1.933,0 3.5,1.567 3.5,3.5v63c0,1.933 -1.567,3.5 -3.5,3.5z" id="box" fill="url(#color-1)"/><path d="M65,1h-61c-1.95033,0 -3.2667,0.63396 -3.9491,1.90189c0.28378,-1.64806 1.72001,-2.90189 3.4491,-2.90189h63c1.72965,0 3.16627,1.25466 3.44938,2.90352c-0.69803,-1.26902 -2.34782,-1.90352 -4.94938,-1.90352z" id="topBoxShadow" fill="#ffffff" opacity="0.383"/><path d="M4,69h61c2.66667,0 4.33333,-1 5,-3v0.5c0,1.933 -1.567,3.5 -3.5,3.5h-63c-1.933,0 -3.5,-1.567 -3.5,-3.5c0,-0.1611 0,-0.32777 0,-0.5c0.66667,2 2,3 4,3z" id="bottomBoxShadow" fill="#000000" opacity="0.383"/><path d="M26.24192,21.88518l-5.47563,3.06608l3.06608,-5.47563l-3.06608,-5.47563l5.47563,3.06608l5.47563,-3.06608l-3.06608,5.47563l3.06608,5.47563l-5.47563,-3.06608M52.52411,43.34932l5.47563,-3.06608l-3.06608,5.47563l3.06608,5.47563l-5.47563,-3.06608l-5.47563,3.06608l3.06608,-5.47563l-3.06608,-5.47563l5.47563,3.06608M57.99974,14.00053l-3.06608,5.47563l3.06608,5.47563l-5.47563,-3.06608l-5.47563,3.06608l3.06608,-5.47563l-3.06608,-5.47563l5.47563,3.06608l5.47563,-3.06608M39.03241,37.61086l5.34422,-5.34422l-4.64301,-4.64301l-5.34422,5.34422l4.64301,4.64301M41.28847,25.58676l5.12503,5.12503c0.85417,0.81054 0.85417,2.23399 0,3.08816l-25.55942,25.55942c-0.85417,0.85417 -2.27761,0.85417 -3.08816,0l-5.12503,-5.12503c-0.85417,-0.81054 -0.85417,-2.23399 0,-3.08816l25.55942,-25.55942c0.85417,-0.85417 2.27761,-0.85417 3.08816,0z" id="shadow" fill="#000000" opacity="0.3"/><path d="M20.76629,12l5.47563,3.06608l5.47563,-3.06608l-3.06608,5.47563l3.06608,5.47563l-31.71755,31.71755l0,-21.90252zM57.99974,38.28324l-3.06608,5.47563l3.06608,5.47563l-20.7655,20.7655h-21.90252l31.71676,-31.71676l5.47563,3.06608zM54.93366,17.47616l3.06608,5.47563l-47.04821,47.04821h-7.45152c-1.933,0 -3.5,-1.567 -3.5,-3.5l0,-7.451l47.04848,-47.04848l5.47563,3.06608l5.47563,-3.06608z" id="flatShadow" fill="#000000" opacity="0.324"/><path d="M26.24192,19.88518l-5.47563,3.06608l3.06608,-5.47563l-3.06608,-5.47563l5.47563,3.06608l5.47563,-3.06608l-3.06608,5.47563l3.06608,5.47563l-5.47563,-3.06608M52.52411,41.34932l5.47563,-3.06608l-3.06608,5.47563l3.06608,5.47563l-5.47563,-3.06608l-5.47563,3.06608l3.06608,-5.47563l-3.06608,-5.47563l5.47563,3.06608M57.99974,12.00053l-3.06608,5.47563l3.06608,5.47563l-5.47563,-3.06608l-5.47563,3.06608l3.06608,-5.47563l-3.06608,-5.47563l5.47563,3.06608l5.47563,-3.06608M39.03241,35.61086l5.34422,-5.34422l-4.64301,-4.64301l-5.34422,5.34422l4.64301,4.64301M41.28847,23.58676l5.12503,5.12503c0.85417,0.81054 0.85417,2.23399 0,3.08816l-25.55942,25.55942c-0.85417,0.85417 -2.27761,0.85417 -3.08816,0l-5.12503,-5.12503c-0.85417,-0.81054 -0.85417,-2.23399 0,-3.08816l25.55942,-25.55942c0.85417,-0.85417 2.27761,-0.85417 3.08816,0z" id="icon" fill="#ffffff"/></g></svg>