<svg version="1.1" xmlns="http://www.w3.org/2000/svg" xmlns:xlink="http://www.w3.org/1999/xlink" width="70" height="70" viewBox="0,0,70,70" odoo-icon:version="1.0" xmlns:odoo-icon="https://ivantodorovich.github.io/odoo-icon" odoo-icon:size="70" odoo-icon:icon-size="0.58" odoo-icon:icon-color="#FFFFFF" odoo-icon:icon-flat-shadow-angle="135" odoo-icon:background-color="#43a047" odoo-icon:background-gradient="0.2" odoo-icon:box-radius="3.5" odoo-icon:odoo-version="14.0"><defs><linearGradient x1="70" y1="0" x2="0" y2="70" gradientUnits="userSpaceOnUse" id="color-1"><stop offset="0" stop-color="#76d37a"/><stop offset="1" stop-color="#43a047"/></linearGradient></defs><g fill="none" fill-rule="nonzero" stroke="none" stroke-width="1" stroke-linecap="butt" stroke-linejoin="miter" stroke-miterlimit="10" stroke-dasharray="" stroke-dashoffset="0" font-family="none" font-weight="none" font-size="none" text-anchor="none" style="mix-blend-mode: normal"><path d="M3.5,70c-1.933,0 -3.5,-1.567 -3.5,-3.5v-63c0,-1.933 1.567,-3.5 3.5,-3.5h63c1.933,0 3.5,1.567 3.5,3.5v63c0,1.933 -1.567,3.5 -3.5,3.5z" id="box" fill="url(#color-1)"/><path d="M65,1h-61c-1.95033,0 -3.2667,0.63396 -3.9491,1.90189c0.28378,-1.64806 1.72001,-2.90189 3.4491,-2.90189h63c1.72965,0 3.16627,1.25466 3.44938,2.90352c-0.69803,-1.26902 -2.34782,-1.90352 -4.94938,-1.90352z" id="topBoxShadow" fill="#ffffff" opacity="0.383"/><path d="M4,69h61c2.66667,0 4.33333,-1 5,-3v0.5c0,1.933 -1.567,3.5 -3.5,3.5h-63c-1.933,0 -3.5,-1.567 -3.5,-3.5c0,-0.1611 0,-0.32777 0,-0.5c0.66667,2 2,3 4,3z" id="bottomBoxShadow" fill="#000000" opacity="0.383"/><path d="M48.66834,49.05619l0.80524,0.80524c0.43187,0.44663 0.42531,1.15729 -0.01367,1.59627c-0.43952,0.43952 -1.14964,0.44553 -1.59627,0.01367l-1.47272,-1.47272v-3.31881c0,-0.62921 0.51004,-1.13871 1.13871,-1.13871c0.62921,0 1.13871,0.51004 1.13871,1.13871zM23.61297,33.58333c1.25788,0 2.27796,1.01953 2.27796,2.27796v2.27796c0,1.25788 -1.01953,2.27796 -2.27796,2.27796h-2.27796c-1.25788,0 -2.27796,-1.01953 -2.27796,-2.27796v-2.27796c0,-1.25788 1.01953,-2.27796 2.27796,-2.27796zM21.33501,35.86129v2.27796h2.27796v-2.27796zM28.16834,35.86129c0,-1.25788 1.01953,-2.27796 2.27796,-2.27796h2.27796c1.25788,0 2.27796,1.01953 2.27796,2.27796v2.27796c0,1.25788 -1.01953,2.27796 -2.27796,2.27796h-2.27796c-1.25788,0 -2.27796,-1.01953 -2.27796,-2.27796zM30.4463,38.13871h2.27796v-2.27796h-2.27796zM41.83501,33.58333c1.25788,0 2.27796,1.01953 2.27796,2.27796v2.27796c0,1.25788 -1.01953,2.27796 -2.27796,2.27796h-2.27796c-1.25788,0 -2.27796,-1.01953 -2.27796,-2.27796v-2.27796c0,-1.25788 1.01953,-2.27796 2.27796,-2.27796zM39.55705,35.86129v2.27796h2.27796v-2.27796zM19.05705,44.97204c0,-1.25788 1.01953,-2.27796 2.27796,-2.27796h2.27796c1.25788,0 2.27796,1.01953 2.27796,2.27796v2.27796c0,1.25788 -1.01953,2.27796 -2.27796,2.27796h-2.27796c-1.25788,0 -2.27796,-1.01953 -2.27796,-2.27796zM21.33501,44.97204v2.27796h2.27796v-2.27796zM32.72372,42.69463c1.25788,0 2.27796,1.01953 2.27796,2.27796v2.27796c0,1.25788 -1.01953,2.27796 -2.27796,2.27796h-2.27796c-1.25788,0 -2.27796,-1.01953 -2.27796,-2.27796v-2.27796c0,-1.25788 1.01953,-2.27796 2.27796,-2.27796zM32.72372,44.97204h-2.27796v2.27796h2.27796zM21.33501,17.63871c0,-0.62921 0.51004,-1.13871 1.13871,-1.13871c0.62921,0 1.13871,0.51004 1.13871,1.13871v5.69463c0,0.62921 0.51004,1.13871 1.13871,1.13871c0.62921,0 1.13871,-0.51004 1.13871,-1.13871v-3.41667h11.38871v-2.27796c0,-0.62921 0.51004,-1.13871 1.13871,-1.13871c0.62921,0 1.13871,0.51004 1.13871,1.13871v5.69463c0,0.62921 0.51004,1.13871 1.13871,1.13871c0.62921,0 1.13871,-0.51004 1.13871,-1.13871v-3.41667h3.41667c1.88709,0 3.41667,1.52957 3.41667,3.41667v18.30185c4.13827,0.59805 7.11159,4.29188 6.81256,8.4624c-0.29957,4.17052 -3.76981,7.40132 -7.95127,7.40241c-2.60924,0.00164 -5.05339,-1.27483 -6.54305,-3.41667h-23.06824c-1.88709,0 -3.41667,-1.52957 -3.41667,-3.41667v-27.33333c0,-1.88709 1.52957,-3.41667 3.41667,-3.41667h3.41667zM39.55705,49.52796c-0.00055,-3.96333 2.91045,-7.32588 6.83333,-7.89277v-11.46852h-29.61129v20.5c0,0.62921 0.51004,1.13871 1.13871,1.13871h21.96944c-0.21976,-0.73909 -0.33073,-1.50661 -0.33019,-2.27796zM47.52964,43.83333c-3.14497,0 -5.69463,2.54965 -5.69463,5.69463c0,3.14497 2.54965,5.69463 5.69463,5.69463c3.14497,0 5.69463,-2.54965 5.69463,-5.69463c0,-3.14497 -2.54965,-5.69463 -5.69463,-5.69463z" id="shadow" fill="#000000" opacity="0.3"/><path d="M21.66848,14.83353c0.2061,-0.2061 0.49084,-0.33353 0.80524,-0.33353c0.62921,0 1.13871,0.51004 1.13871,1.13871l0,4.55537l2.27741,-2.27741l8.63904,0l3.08313,-3.08313c0.2061,-0.2061 0.49084,-0.33353 0.80524,-0.33353c0.62921,0 1.13871,0.51004 1.13871,1.13871l0,4.55537l2.27741,-2.27741h3.41667c1.88709,0 3.41667,1.52957 3.41667,3.41667v18.30185c4.13827,0.59805 7.11159,4.29188 6.81256,8.4624c-0.14246,1.98323 -1.00191,3.75396 -2.31388,5.06593l-16.83649,16.83649h-32.82889c-1.933,0 -3.5,-1.567 -3.5,-3.5l0,-32.08195l15.50071,-15.50071c0.61828,-0.61828 1.47245,-1.00067 2.41599,-1.00067h0.66864z" id="flatShadow" fill="#000000" opacity="0.324"/><path d="M48.66834,47.05619l0.80524,0.80524c0.43187,0.44663 0.42531,1.15729 -0.01367,1.59627c-0.43952,0.43952 -1.14964,0.44553 -1.59627,0.01367l-1.47272,-1.47272v-3.31881c0,-0.62921 0.51004,-1.13871 1.13871,-1.13871c0.62921,0 1.13871,0.51004 1.13871,1.13871zM23.61297,31.58333c1.25788,0 2.27796,1.01953 2.27796,2.27796v2.27796c0,1.25788 -1.01953,2.27796 -2.27796,2.27796h-2.27796c-1.25788,0 -2.27796,-1.01953 -2.27796,-2.27796v-2.27796c0,-1.25788 1.01953,-2.27796 2.27796,-2.27796zM21.33501,33.86129v2.27796h2.27796v-2.27796zM28.16834,33.86129c0,-1.25788 1.01953,-2.27796 2.27796,-2.27796h2.27796c1.25788,0 2.27796,1.01953 2.27796,2.27796v2.27796c0,1.25788 -1.01953,2.27796 -2.27796,2.27796h-2.27796c-1.25788,0 -2.27796,-1.01953 -2.27796,-2.27796zM30.4463,36.13871h2.27796v-2.27796h-2.27796zM41.83501,31.58333c1.25788,0 2.27796,1.01953 2.27796,2.27796v2.27796c0,1.25788 -1.01953,2.27796 -2.27796,2.27796h-2.27796c-1.25788,0 -2.27796,-1.01953 -2.27796,-2.27796v-2.27796c0,-1.25788 1.01953,-2.27796 2.27796,-2.27796zM39.55705,33.86129v2.27796h2.27796v-2.27796zM19.05705,42.97204c0,-1.25788 1.01953,-2.27796 2.27796,-2.27796h2.27796c1.25788,0 2.27796,1.01953 2.27796,2.27796v2.27796c0,1.25788 -1.01953,2.27796 -2.27796,2.27796h-2.27796c-1.25788,0 -2.27796,-1.01953 -2.27796,-2.27796zM21.33501,42.97204v2.27796h2.27796v-2.27796zM32.72372,40.69463c1.25788,0 2.27796,1.01953 2.27796,2.27796v2.27796c0,1.25788 -1.01953,2.27796 -2.27796,2.27796h-2.27796c-1.25788,0 -2.27796,-1.01953 -2.27796,-2.27796v-2.27796c0,-1.25788 1.01953,-2.27796 2.27796,-2.27796zM32.72372,42.97204h-2.27796v2.27796h2.27796zM21.33501,15.63871c0,-0.62921 0.51004,-1.13871 1.13871,-1.13871c0.62921,0 1.13871,0.51004 1.13871,1.13871v5.69463c0,0.62921 0.51004,1.13871 1.13871,1.13871c0.62921,0 1.13871,-0.51004 1.13871,-1.13871v-3.41667h11.38871v-2.27796c0,-0.62921 0.51004,-1.13871 1.13871,-1.13871c0.62921,0 1.13871,0.51004 1.13871,1.13871v5.69463c0,0.62921 0.51004,1.13871 1.13871,1.13871c0.62921,0 1.13871,-0.51004 1.13871,-1.13871v-3.41667h3.41667c1.88709,0 3.41667,1.52957 3.41667,3.41667v18.30185c4.13827,0.59805 7.11159,4.29188 6.81256,8.4624c-0.29957,4.17052 -3.76981,7.40132 -7.95127,7.40241c-2.60924,0.00164 -5.05339,-1.27483 -6.54305,-3.41667h-23.06824c-1.88709,0 -3.41667,-1.52957 -3.41667,-3.41667v-27.33333c0,-1.88709 1.52957,-3.41667 3.41667,-3.41667h3.41667zM39.55705,47.52796c-0.00055,-3.96333 2.91045,-7.32588 6.83333,-7.89277v-11.46852h-29.61129v20.5c0,0.62921 0.51004,1.13871 1.13871,1.13871h21.96944c-0.21976,-0.73909 -0.33073,-1.50661 -0.33019,-2.27796zM47.52964,41.83333c-3.14497,0 -5.69463,2.54965 -5.69463,5.69463c0,3.14497 2.54965,5.69463 5.69463,5.69463c3.14497,0 5.69463,-2.54965 5.69463,-5.69463c0,-3.14497 -2.54965,-5.69463 -5.69463,-5.69463z" id="icon" fill="#ffffff"/></g></svg>