<svg version="1.1" xmlns="http://www.w3.org/2000/svg" xmlns:xlink="http://www.w3.org/1999/xlink" width="70" height="70" viewBox="0,0,70,70" odoo-icon:version="1.0" xmlns:odoo-icon="https://ivantodorovich.github.io/odoo-icon" odoo-icon:size="70" odoo-icon:icon-size="0.58" odoo-icon:icon-color="#FFFFFF" odoo-icon:icon-flat-shadow-angle="135" odoo-icon:background-color="#00897b" odoo-icon:background-gradient="0.2" odoo-icon:box-radius="3.5" odoo-icon:odoo-version="14.0"><defs><linearGradient x1="70" y1="0" x2="0" y2="70" gradientUnits="userSpaceOnUse" id="color-1"><stop offset="0" stop-color="#33bcae"/><stop offset="1" stop-color="#00897b"/></linearGradient></defs><g fill="none" fill-rule="nonzero" stroke="none" stroke-width="1" stroke-linecap="butt" stroke-linejoin="miter" stroke-miterlimit="10" stroke-dasharray="" stroke-dashoffset="0" font-family="none" font-weight="none" font-size="none" text-anchor="none" style="mix-blend-mode: normal"><path d="M3.5,70c-1.933,0 -3.5,-1.567 -3.5,-3.5v-63c0,-1.933 1.567,-3.5 3.5,-3.5h63c1.933,0 3.5,1.567 3.5,3.5v63c0,1.933 -1.567,3.5 -3.5,3.5z" id="box" fill="url(#color-1)"/><path d="M65,1h-61c-1.95033,0 -3.2667,0.63396 -3.9491,1.90189c0.28378,-1.64806 1.72001,-2.90189 3.4491,-2.90189h63c1.72965,0 3.16627,1.25466 3.44938,2.90352c-0.69803,-1.26902 -2.34782,-1.90352 -4.94938,-1.90352z" id="topBoxShadow" fill="#ffffff" opacity="0.383"/><path d="M4,69h61c2.66667,0 4.33333,-1 5,-3v0.5c0,1.933 -1.567,3.5 -3.5,3.5h-63c-1.933,0 -3.5,-1.567 -3.5,-3.5c0,-0.1611 0,-0.32777 0,-0.5c0.66667,2 2,3 4,3z" id="bottomBoxShadow" fill="#000000" opacity="0.383"/><path d="M54.73797,33.30587c0.23902,1.37591 0.35833,2.76987 0.35628,4.16628c0,6.23672 -2.2291,11.51037 -6.1088,15.07971h0.00533c-3.39264,3.13394 -8.05624,4.94813 -13.58572,4.94813c-11.32137,0 -20.49933,-9.17796 -20.49933,-20.49933c0,-11.32137 9.17796,-20.49933 20.49933,-20.49933c5.08875,-0.05945 10.00326,1.85232 13.71405,5.33474l-5.85256,5.85256c-2.11553,-2.01672 -4.93911,-3.12123 -7.86149,-3.0749c-5.34786,0 -9.89093,3.60788 -11.51037,8.46622c-0.85851,2.54561 -0.85851,5.30277 0,7.84878h0.00779c1.62724,4.85055 6.16251,8.45843 11.51037,8.45843c2.76208,0 5.13508,-0.70723 6.97469,-1.95769h-0.00779c2.15858,-1.43003 3.63904,-3.68045 4.09741,-6.22934h-11.0721v-7.89224h19.33333z" id="shadow" fill="#000000" opacity="0.3"/><path d="M55.09425,35.47216c0,5.94792 -2.02743,11.0199 -5.58051,14.57297l-19.95487,19.95487h-26.05887c-1.933,0 -3.5,-1.567 -3.5,-3.5l0,-25.08463l20.90988,-20.90988c3.70966,-3.70966 8.83449,-6.00415 14.49518,-6.00415c5.08875,-0.05945 10.00326,1.85232 13.71405,5.33474l-11.47183,11.47183l17.08865,0l0.00205,-0.00205l0.00041,0.00205l-0.00005,0.00005c0.23878,1.37523 0.35796,2.76848 0.35591,4.16419z" id="flatShadow" fill="#000000" opacity="0.324"/><path d="M54.73797,31.30587c0.23902,1.37591 0.35833,2.76987 0.35628,4.16628c0,6.23672 -2.2291,11.51037 -6.1088,15.07971h0.00533c-3.39264,3.13394 -8.05624,4.94813 -13.58572,4.94813c-11.32137,0 -20.49933,-9.17796 -20.49933,-20.49933c0,-11.32137 9.17796,-20.49933 20.49933,-20.49933c5.08875,-0.05945 10.00326,1.85232 13.71405,5.33474l-5.85256,5.85256c-2.11553,-2.01672 -4.93911,-3.12123 -7.86149,-3.0749c-5.34786,0 -9.89093,3.60788 -11.51037,8.46622c-0.85851,2.54561 -0.85851,5.30277 0,7.84878h0.00779c1.62724,4.85055 6.16251,8.45843 11.51037,8.45843c2.76208,0 5.13508,-0.70723 6.97469,-1.95769h-0.00779c2.15858,-1.43003 3.63904,-3.68045 4.09741,-6.22934h-11.0721v-7.89224h19.33333z" id="icon" fill="#ffffff"/></g></svg>