<svg version="1.1" xmlns="http://www.w3.org/2000/svg" xmlns:xlink="http://www.w3.org/1999/xlink" width="70" height="70" viewBox="0,0,70,70" odoo-icon:version="1.0" xmlns:odoo-icon="https://ivantodorovich.github.io/odoo-icon" odoo-icon:size="70" odoo-icon:icon-size="0.54" odoo-icon:icon-color="#FFFFFF" odoo-icon:icon-flat-shadow-angle="135" odoo-icon:background-color="#a4426b" odoo-icon:background-gradient="0.2" odoo-icon:box-radius="3.5" odoo-icon:odoo-version="14.0"><defs><linearGradient x1="70" y1="0" x2="0" y2="70" gradientUnits="userSpaceOnUse" id="color-1"><stop offset="0" stop-color="#d7759e"/><stop offset="1" stop-color="#a4426b"/></linearGradient></defs><g fill="none" fill-rule="nonzero" stroke="none" stroke-width="1" stroke-linecap="butt" stroke-linejoin="miter" stroke-miterlimit="10" stroke-dasharray="" stroke-dashoffset="0" font-family="none" font-weight="none" font-size="none" text-anchor="none" style="mix-blend-mode: normal"><path d="M3.5,70c-1.933,0 -3.5,-1.567 -3.5,-3.5v-63c0,-1.933 1.567,-3.5 3.5,-3.5h63c1.933,0 3.5,1.567 3.5,3.5v63c0,1.933 -1.567,3.5 -3.5,3.5z" id="box" fill="url(#color-1)"/><path d="M65,1h-61c-1.95033,0 -3.2667,0.63396 -3.9491,1.90189c0.28378,-1.64806 1.72001,-2.90189 3.4491,-2.90189h63c1.72965,0 3.16627,1.25466 3.44938,2.90352c-0.69803,-1.26902 -2.34782,-1.90352 -4.94938,-1.90352z" id="topBoxShadow" fill="#ffffff" opacity="0.383"/><path d="M4,69h61c2.66667,0 4.33333,-1 5,-3v0.5c0,1.933 -1.567,3.5 -3.5,3.5h-63c-1.933,0 -3.5,-1.567 -3.5,-3.5c0,-0.1611 0,-0.32777 0,-0.5c0.66667,2 2,3 4,3z" id="bottomBoxShadow" fill="#000000" opacity="0.383"/><path d="M49.47686,36.09559h-2.71432v-7.23832c0,-1.99861 -1.62034,-3.61894 -3.61894,-3.61894h-7.23832v-2.71432c0,-2.49847 -2.02553,-4.52401 -4.52401,-4.52401c-2.49847,0 -4.52401,2.02553 -4.52401,4.52401v2.71432h-7.23832c-1.99861,0 -3.61894,1.62034 -3.61894,3.61894v6.87612h2.71432c2.71432,0 4.88577,2.17145 4.88577,4.88577c0,2.71432 -2.17145,4.88577 -4.88577,4.88577h-2.71432v6.87612c0,1.99861 1.62034,3.61894 3.61894,3.61894h6.87612v-2.71432c0,-2.71432 2.17145,-4.88577 4.88577,-4.88577c2.71432,0 4.88577,2.17145 4.88577,4.88577v2.71432h6.87612c1.99861,0 3.61894,-1.62034 3.61894,-3.61894v-7.23832h2.71432c2.49847,0 4.52401,-2.02553 4.52401,-4.52401c0,-2.49847 -2.02553,-4.52401 -4.52401,-4.52401z" id="shadow" fill="#000000" opacity="0.3"/><path d="M17.05999,24.29832c0.65491,-0.65491 1.55965,-1.05999 2.55895,-1.05999h4.52401c1.00091,-1.00091 1.91156,-1.91156 2.71432,-2.71432c2.68159,-2.68159 4.37677,-4.37677 4.52401,-4.52401c2.49847,0 4.52401,2.02553 4.52401,4.52401v2.71432h7.23832c1.99861,0 3.61894,1.62034 3.61894,3.61894v7.23832l2.71258,0l0.00087,-0.00087c2.49847,0 4.52401,2.02553 4.52401,4.52401c0,1.24924 -0.50638,2.38024 -1.32508,3.19893l-5.91325,5.91325v2.65015c0,0.9993 -0.40508,1.90404 -1.05999,2.55895l-17.05999,17.05999h-25.14169c-1.933,0 -3.5,-1.567 -3.5,-3.5l0,-25.14169z" id="flatShadow" fill="#000000" opacity="0.324"/><path d="M49.47686,34.09559h-2.71432v-7.23832c0,-1.99861 -1.62034,-3.61894 -3.61894,-3.61894h-7.23832v-2.71432c0,-2.49847 -2.02553,-4.52401 -4.52401,-4.52401c-2.49847,0 -4.52401,2.02553 -4.52401,4.52401v2.71432h-7.23832c-1.99861,0 -3.61894,1.62034 -3.61894,3.61894v6.87612h2.71432c2.71432,0 4.88577,2.17145 4.88577,4.88577c0,2.71432 -2.17145,4.88577 -4.88577,4.88577h-2.71432v6.87612c0,1.99861 1.62034,3.61894 3.61894,3.61894h6.87612v-2.71432c0,-2.71432 2.17145,-4.88577 4.88577,-4.88577c2.71432,0 4.88577,2.17145 4.88577,4.88577v2.71432h6.87612c1.99861,0 3.61894,-1.62034 3.61894,-3.61894v-7.23832h2.71432c2.49847,0 4.52401,-2.02553 4.52401,-4.52401c0,-2.49847 -2.02553,-4.52401 -4.52401,-4.52401z" id="icon" fill="#ffffff"/></g></svg>