<svg version="1.1" xmlns="http://www.w3.org/2000/svg" xmlns:xlink="http://www.w3.org/1999/xlink" width="70" height="70" viewBox="0,0,70,70" odoo-icon:version="1.0" xmlns:odoo-icon="https://ivantodorovich.github.io/odoo-icon" odoo-icon:size="70" odoo-icon:icon-size="0.58" odoo-icon:icon-color="#FFFFFF" odoo-icon:icon-flat-shadow-angle="135" odoo-icon:background-color="#e53935" odoo-icon:background-gradient="0.2" odoo-icon:box-radius="3.5" odoo-icon:odoo-version="14.0"><defs><linearGradient x1="70" y1="0" x2="0" y2="70" gradientUnits="userSpaceOnUse" id="color-1"><stop offset="0" stop-color="#ff6c68"/><stop offset="1" stop-color="#e53935"/></linearGradient></defs><g fill="none" fill-rule="nonzero" stroke="none" stroke-width="1" stroke-linecap="butt" stroke-linejoin="miter" stroke-miterlimit="10" stroke-dasharray="" stroke-dashoffset="0" font-family="none" font-weight="none" font-size="none" text-anchor="none" style="mix-blend-mode: normal"><path d="M3.5,70c-1.933,0 -3.5,-1.567 -3.5,-3.5v-63c0,-1.933 1.567,-3.5 3.5,-3.5h63c1.933,0 3.5,1.567 3.5,3.5v63c0,1.933 -1.567,3.5 -3.5,3.5z" id="box" fill="url(#color-1)"/><path d="M65,1h-61c-1.95033,0 -3.2667,0.63396 -3.9491,1.90189c0.28378,-1.64806 1.72001,-2.90189 3.4491,-2.90189h63c1.72965,0 3.16627,1.25466 3.44938,2.90352c-0.69803,-1.26902 -2.34782,-1.90352 -4.94938,-1.90352z" id="topBoxShadow" fill="#ffffff" opacity="0.383"/><path d="M4,69h61c2.66667,0 4.33333,-1 5,-3v0.5c0,1.933 -1.567,3.5 -3.5,3.5h-63c-1.933,0 -3.5,-1.567 -3.5,-3.5c0,-0.1611 0,-0.32777 0,-0.5c0.66667,2 2,3 4,3z" id="bottomBoxShadow" fill="#000000" opacity="0.383"/><path d="M18.59985,20.6001h32.8003c2.26419,0 4.09985,1.83566 4.09985,4.09985v24.6001c0,2.26419 -1.83566,4.09985 -4.09985,4.09985h-32.8003c-2.26419,0 -4.09985,-1.83566 -4.09985,-4.09985v-24.6001c0,-2.26419 1.83566,-4.09985 4.09985,-4.09985M18.59985,24.69995v24.6001h14.35022v-24.6001h-14.35022M51.39966,49.30005v-24.6001h-2.54217c0.492,1.107 0.38967,2.19334 0.38967,2.31635c-0.14366,1.37367 -1.107,2.80835 -1.45534,3.32101l-4.77636,5.22752l6.80586,-0.04084l0.02066,2.50085l-10.66021,-0.0615l-0.08216,-2.05017c0,0 6.25236,-6.62136 6.55986,-7.21619c0.28684,-0.57417 1.45534,-3.99752 -1.43517,-3.99752c-2.52151,0.10234 -2.23467,2.66517 -2.23467,2.66517l-3.15718,0.02066c0,0 0.02066,-1.35301 0.77884,-2.68535h-2.56235v24.6001h5.28902l-0.02066,-1.76284l1.98867,-0.02066c0,0 1.86567,-0.32817 1.88584,-2.15251c0.08216,-2.05017 -1.66051,-2.05017 -1.96801,-2.05017c-0.26667,0 -2.19334,0.10234 -2.19334,1.78351h-3.11585c0,0 0.08216,-4.22285 5.30969,-4.22285c5.32986,0 5.04302,4.14118 5.04302,4.14118c0,0 0.08216,2.56235 -2.27551,3.52618l1.06617,0.75867h3.34168M28.68589,45.2002h-3.07501v-11.89021l-3.69001,1.14784v-2.52151l6.43686,-2.29617h0.32817z" id="shadow" fill="#000000" opacity="0.3"/><path d="M51.40015,18.6001c2.26419,0 4.09985,1.83566 4.09985,4.09985v24.6001c0,1.1321 -0.45891,2.15706 -1.20085,2.899l-19.80095,19.80095h-30.99819c-1.933,0 -3.5,-1.567 -3.5,-3.5l0,-30.99819c8.71917,-8.71917 15.70085,-15.70085 15.70085,-15.70085c0.74194,-0.74194 1.7669,-1.20085 2.899,-1.20085z" id="flatShadow" fill="#000000" opacity="0.324"/><path d="M18.59985,18.6001h32.8003c2.26419,0 4.09985,1.83566 4.09985,4.09985v24.6001c0,2.26419 -1.83566,4.09985 -4.09985,4.09985h-32.8003c-2.26419,0 -4.09985,-1.83566 -4.09985,-4.09985v-24.6001c0,-2.26419 1.83566,-4.09985 4.09985,-4.09985M18.59985,22.69995v24.6001h14.35022v-24.6001h-14.35022M51.39966,47.30005v-24.6001h-2.54217c0.492,1.107 0.38967,2.19334 0.38967,2.31635c-0.14366,1.37367 -1.107,2.80835 -1.45534,3.32101l-4.77636,5.22752l6.80586,-0.04084l0.02066,2.50085l-10.66021,-0.0615l-0.08216,-2.05017c0,0 6.25236,-6.62136 6.55986,-7.21619c0.28684,-0.57417 1.45534,-3.99752 -1.43517,-3.99752c-2.52151,0.10234 -2.23467,2.66517 -2.23467,2.66517l-3.15718,0.02066c0,0 0.02066,-1.35301 0.77884,-2.68535h-2.56235v24.6001h5.28902l-0.02066,-1.76284l1.98867,-0.02066c0,0 1.86567,-0.32817 1.88584,-2.15251c0.08216,-2.05017 -1.66051,-2.05017 -1.96801,-2.05017c-0.26667,0 -2.19334,0.10234 -2.19334,1.78351h-3.11585c0,0 0.08216,-4.22285 5.30969,-4.22285c5.32986,0 5.04302,4.14118 5.04302,4.14118c0,0 0.08216,2.56235 -2.27551,3.52618l1.06617,0.75867h3.34168M28.68589,43.2002h-3.07501v-11.89021l-3.69001,1.14784v-2.52151l6.43686,-2.29617h0.32817z" id="icon" fill="#ffffff"/></g></svg>