<svg version="1.1" xmlns="http://www.w3.org/2000/svg" xmlns:xlink="http://www.w3.org/1999/xlink" width="70" height="70" viewBox="0,0,70,70" odoo-icon:version="1.0" xmlns:odoo-icon="https://ivantodorovich.github.io/odoo-icon" odoo-icon:size="70" odoo-icon:icon-size="0.63" odoo-icon:icon-color="#FFFFFF" odoo-icon:icon-flat-shadow-angle="135" odoo-icon:background-color="#334984" odoo-icon:background-gradient="0.2" odoo-icon:box-radius="3.5" odoo-icon:odoo-version="14.0"><defs><linearGradient x1="70" y1="0" x2="0" y2="70" gradientUnits="userSpaceOnUse" id="color-1"><stop offset="0" stop-color="#667cb7"/><stop offset="1" stop-color="#334984"/></linearGradient></defs><g fill="none" fill-rule="nonzero" stroke="none" stroke-width="1" stroke-linecap="butt" stroke-linejoin="miter" stroke-miterlimit="10" stroke-dasharray="" stroke-dashoffset="0" font-family="none" font-weight="none" font-size="none" text-anchor="none" style="mix-blend-mode: normal"><path d="M3.5,70c-1.933,0 -3.5,-1.567 -3.5,-3.5v-63c0,-1.933 1.567,-3.5 3.5,-3.5h63c1.933,0 3.5,1.567 3.5,3.5v63c0,1.933 -1.567,3.5 -3.5,3.5z" id="box" fill="url(#color-1)"/><path d="M65,1h-61c-1.95033,0 -3.2667,0.63396 -3.9491,1.90189c0.28378,-1.64806 1.72001,-2.90189 3.4491,-2.90189h63c1.72965,0 3.16627,1.25466 3.44938,2.90352c-0.69803,-1.26902 -2.34782,-1.90352 -4.94938,-1.90352z" id="topBoxShadow" fill="#ffffff" opacity="0.383"/><path d="M4,69h61c2.66667,0 4.33333,-1 5,-3v0.5c0,1.933 -1.567,3.5 -3.5,3.5h-63c-1.933,0 -3.5,-1.567 -3.5,-3.5c0,-0.1611 0,-0.32777 0,-0.5c0.66667,2 2,3 4,3z" id="bottomBoxShadow" fill="#000000" opacity="0.383"/><path d="M44.64279,53.07476l3.85713,3.79285c1.07125,1.07125 2.57142,0.21446 2.57142,-1.05017v-9.17124l6.00016,-7.28587c0.48703,-0.64954 0.5652,-1.51817 0.20211,-2.24382c-0.36308,-0.72617 -1.1052,-1.1844 -1.91674,-1.1844h-15.00014c-1.71411,0 -2.78588,2.14302 -1.71411,3.42874l6.00016,7.28587v6.42856M40.35726,50.93174h-27.85726v-6.42856c0,-5.7857 11.35695,-8.57158 17.14265,-8.57158c1.28571,0 2.78588,0.21446 4.49999,0.4284c-0.4284,1.28571 -0.21446,2.78588 0.21446,4.07159c-1.50017,-0.21446 -3.21428,-0.4284 -4.71445,-0.4284c-6.42856,0 -13.07157,3.21428 -13.07157,4.49999v2.35697h22.71441l1.07125,1.28571v2.78588M29.64316,16.64644c-4.71445,0 -8.57158,3.85713 -8.57158,8.57158c0,4.71445 3.85713,8.57158 8.57158,8.57158c4.71445,0 8.57158,-3.85713 8.57158,-8.57158c0,-4.71445 -3.85713,-8.57158 -8.57158,-8.57158M29.64316,29.50356c-2.35697,0 -4.28553,-1.92857 -4.28553,-4.28553c0,-2.35697 1.92857,-4.28553 4.28553,-4.28553c2.35697,0 4.28553,1.92857 4.28553,4.28553c0,2.35697 -1.92857,4.28553 -4.28553,4.28553z" id="shadow" fill="#000000" opacity="0.3"/><path d="M50.61709,54.91608l-15.08392,15.08392h-32.03317c-1.933,0 -3.5,-1.567 -3.5,-3.5l0,-25.74623l23.58946,-23.58946c1.55359,-1.55359 3.69649,-2.51787 6.05371,-2.51787c4.71445,0 8.57158,3.85713 8.57158,8.57158c0,2.35722 -0.96428,4.50012 -2.51787,6.05371l-4.72138,4.72138c0.9589,0.07897 2.01466,0.22305 3.16714,0.36689c-0.4284,1.28571 -0.21446,2.78588 0.21446,4.07159l-6.42856,6.42856h0.6588l10.30761,-10.30761c0.37481,-0.37481 0.88149,-0.62043 1.46179,-0.62043h15.00014c0.81154,0 1.55365,0.45823 1.91674,1.1844c0.36308,0.72566 0.28491,1.59428 -0.20211,2.24382l-6.00016,7.28587v9.17124c0,0.43514 -0.17761,0.822 -0.45425,1.09864z" id="flatShadow" fill="#000000" opacity="0.324"/><path d="M44.64279,51.07476l3.85713,3.79285c1.07125,1.07125 2.57142,0.21446 2.57142,-1.05017v-9.17124l6.00016,-7.28587c0.48703,-0.64954 0.5652,-1.51817 0.20211,-2.24382c-0.36308,-0.72617 -1.1052,-1.1844 -1.91674,-1.1844h-15.00014c-1.71411,0 -2.78588,2.14302 -1.71411,3.42874l6.00016,7.28587v6.42856M40.35726,48.93174h-27.85726v-6.42856c0,-5.7857 11.35695,-8.57158 17.14265,-8.57158c1.28571,0 2.78588,0.21446 4.49999,0.4284c-0.4284,1.28571 -0.21446,2.78588 0.21446,4.07159c-1.50017,-0.21446 -3.21428,-0.4284 -4.71445,-0.4284c-6.42856,0 -13.07157,3.21428 -13.07157,4.49999v2.35697h22.71441l1.07125,1.28571v2.78588M29.64316,14.64644c-4.71445,0 -8.57158,3.85713 -8.57158,8.57158c0,4.71445 3.85713,8.57158 8.57158,8.57158c4.71445,0 8.57158,-3.85713 8.57158,-8.57158c0,-4.71445 -3.85713,-8.57158 -8.57158,-8.57158M29.64316,27.50356c-2.35697,0 -4.28553,-1.92857 -4.28553,-4.28553c0,-2.35697 1.92857,-4.28553 4.28553,-4.28553c2.35697,0 4.28553,1.92857 4.28553,4.28553c0,2.35697 -1.92857,4.28553 -4.28553,4.28553z" id="icon" fill="#ffffff"/></g></svg>