<svg version="1.1" xmlns="http://www.w3.org/2000/svg" xmlns:xlink="http://www.w3.org/1999/xlink" width="70" height="70" viewBox="0,0,70,70" odoo-icon:version="1.0" xmlns:odoo-icon="https://ivantodorovich.github.io/odoo-icon" odoo-icon:size="70" odoo-icon:icon-size="0.6" odoo-icon:icon-color="#FFFFFF" odoo-icon:icon-flat-shadow-angle="135" odoo-icon:background-color="#d81b60" odoo-icon:background-gradient="0.2" odoo-icon:box-radius="3.5" odoo-icon:odoo-version="14.0"><defs><linearGradient x1="70" y1="0" x2="0" y2="70" gradientUnits="userSpaceOnUse" id="color-1"><stop offset="0" stop-color="#ff4e93"/><stop offset="1" stop-color="#d81b60"/></linearGradient></defs><g fill="none" fill-rule="nonzero" stroke="none" stroke-width="1" stroke-linecap="butt" stroke-linejoin="miter" stroke-miterlimit="10" stroke-dasharray="" stroke-dashoffset="0" font-family="none" font-weight="none" font-size="none" text-anchor="none" style="mix-blend-mode: normal"><path d="M3.5,70c-1.933,0 -3.5,-1.567 -3.5,-3.5v-63c0,-1.933 1.567,-3.5 3.5,-3.5h63c1.933,0 3.5,1.567 3.5,3.5v63c0,1.933 -1.567,3.5 -3.5,3.5z" id="box" fill="url(#color-1)"/><path d="M65,1h-61c-1.95033,0 -3.2667,0.63396 -3.9491,1.90189c0.28378,-1.64806 1.72001,-2.90189 3.4491,-2.90189h63c1.72965,0 3.16627,1.25466 3.44938,2.90352c-0.69803,-1.26902 -2.34782,-1.90352 -4.94938,-1.90352z" id="topBoxShadow" fill="#ffffff" opacity="0.383"/><path d="M4,69h61c2.66667,0 4.33333,-1 5,-3v0.5c0,1.933 -1.567,3.5 -3.5,3.5h-63c-1.933,0 -3.5,-1.567 -3.5,-3.5c0,-0.1611 0,-0.32777 0,-0.5c0.66667,2 2,3 4,3z" id="bottomBoxShadow" fill="#000000" opacity="0.383"/><path d="M56,28.35294c0,6.13991 -4.97774,11.11765 -11.11765,11.11765c-6.13991,0 -11.11765,-4.97774 -11.11765,-11.11765c0,-6.13991 4.97774,-11.11765 11.11765,-11.11765c6.13991,0 11.11765,4.97774 11.11765,11.11765zM46.11765,23.41176c0,-0.68238 -0.55292,-1.23529 -1.23529,-1.23529c-0.68238,0 -1.23529,0.55292 -1.23529,1.23529v3.70588h-3.70588c-0.68238,0 -1.23529,0.55292 -1.23529,1.23529c0,0.68238 0.55292,1.23529 1.23529,1.23529h3.70588v3.70588c0,0.68238 0.55292,1.23529 1.23529,1.23529c0.68238,0 1.23529,-0.55292 1.23529,-1.23529v-3.70588h3.70588c0.68238,0 1.23529,-0.55292 1.23529,-1.23529c0,-0.68238 -0.55292,-1.23529 -1.23529,-1.23529h-3.70588zM44.88235,41.94118c3.28588,0 6.3,-1.16612 8.64706,-3.10553v11.75259c0,3.41139 -2.76508,6.17647 -6.17647,6.17647h-27.17647c-3.41139,0 -6.17647,-2.76508 -6.17647,-6.17647v-17.60788l19.13965,11.26094c0.3864,0.22729 0.86619,0.22729 1.25259,0l5.50941,-3.24141c1.58612,0.62407 3.276,0.94376 4.98071,0.94129zM20.17647,24.64706h11.62906c-1.60984,5.66901 0.62111,11.72887 5.52176,15.00141l-3.56259,2.09506l-19.72765,-11.60435c0.34885,-3.12727 2.99287,-5.49261 6.13941,-5.49212z" id="shadow" fill="#000000" opacity="0.3"/><path d="M52.74364,34.21423l-5.52733,5.52733c2.37276,-0.41058 4.53447,-1.4362 6.3131,-2.90592v11.75259c0,1.70569 -0.69127,3.24981 -1.80896,4.36751l-17.04426,17.04426h-31.17619c-1.933,0 -3.5,-1.567 -3.5,-3.5l0,-26.23572l15.80708,-15.80708c1.1233,-1.1233 2.67334,-1.81041 4.36939,-1.81014h11.62906c-0.12957,0.45629 -0.23427,0.91512 -0.31468,1.37481l5.53022,-5.53022c2.01192,-2.01192 4.79134,-3.25636 7.86129,-3.25636c6.13991,0 11.11765,4.97774 11.11765,11.11765c0,3.06995 -1.24444,5.84936 -3.25636,7.86129z" id="flatShadow" fill="#000000" opacity="0.324"/><path d="M56,26.35294c0,6.13991 -4.97774,11.11765 -11.11765,11.11765c-6.13991,0 -11.11765,-4.97774 -11.11765,-11.11765c0,-6.13991 4.97774,-11.11765 11.11765,-11.11765c6.13991,0 11.11765,4.97774 11.11765,11.11765zM46.11765,21.41176c0,-0.68238 -0.55292,-1.23529 -1.23529,-1.23529c-0.68238,0 -1.23529,0.55292 -1.23529,1.23529v3.70588h-3.70588c-0.68238,0 -1.23529,0.55292 -1.23529,1.23529c0,0.68238 0.55292,1.23529 1.23529,1.23529h3.70588v3.70588c0,0.68238 0.55292,1.23529 1.23529,1.23529c0.68238,0 1.23529,-0.55292 1.23529,-1.23529v-3.70588h3.70588c0.68238,0 1.23529,-0.55292 1.23529,-1.23529c0,-0.68238 -0.55292,-1.23529 -1.23529,-1.23529h-3.70588zM44.88235,39.94118c3.28588,0 6.3,-1.16612 8.64706,-3.10553v11.75259c0,3.41139 -2.76508,6.17647 -6.17647,6.17647h-27.17647c-3.41139,0 -6.17647,-2.76508 -6.17647,-6.17647v-17.60788l19.13965,11.26094c0.3864,0.22729 0.86619,0.22729 1.25259,0l5.50941,-3.24141c1.58612,0.62407 3.276,0.94376 4.98071,0.94129zM20.17647,22.64706h11.62906c-1.60984,5.66901 0.62111,11.72887 5.52176,15.00141l-3.56259,2.09506l-19.72765,-11.60435c0.34885,-3.12727 2.99287,-5.49261 6.13941,-5.49212z" id="icon" fill="#ffffff"/></g></svg>