<svg version="1.1" xmlns="http://www.w3.org/2000/svg" xmlns:xlink="http://www.w3.org/1999/xlink" width="70" height="70" viewBox="0,0,70,70" odoo-icon:version="1.0" xmlns:odoo-icon="https://ivantodorovich.github.io/odoo-icon" odoo-icon:size="70" odoo-icon:icon-size="0.58" odoo-icon:icon-color="#FFFFFF" odoo-icon:icon-flat-shadow-angle="135" odoo-icon:background-color="#5e57a6" odoo-icon:background-gradient="0.2" odoo-icon:box-radius="3.5" odoo-icon:odoo-version="14.0"><defs><linearGradient x1="70" y1="0" x2="0" y2="70" gradientUnits="userSpaceOnUse" id="color-1"><stop offset="0" stop-color="#918ad9"/><stop offset="1" stop-color="#5e57a6"/></linearGradient></defs><g fill="none" fill-rule="nonzero" stroke="none" stroke-width="1" stroke-linecap="butt" stroke-linejoin="miter" stroke-miterlimit="10" stroke-dasharray="" stroke-dashoffset="0" font-family="none" font-weight="none" font-size="none" text-anchor="none" style="mix-blend-mode: normal"><path d="M3.5,70c-1.933,0 -3.5,-1.567 -3.5,-3.5v-63c0,-1.933 1.567,-3.5 3.5,-3.5h63c1.933,0 3.5,1.567 3.5,3.5v63c0,1.933 -1.567,3.5 -3.5,3.5z" id="box" fill="url(#color-1)"/><path d="M65,1h-61c-1.95033,0 -3.2667,0.63396 -3.9491,1.90189c0.28378,-1.64806 1.72001,-2.90189 3.4491,-2.90189h63c1.72965,0 3.16627,1.25466 3.44938,2.90352c-0.69803,-1.26902 -2.34782,-1.90352 -4.94938,-1.90352z" id="topBoxShadow" fill="#ffffff" opacity="0.383"/><path d="M4,69h61c2.66667,0 4.33333,-1 5,-3v0.5c0,1.933 -1.567,3.5 -3.5,3.5h-63c-1.933,0 -3.5,-1.567 -3.5,-3.5c0,-0.1611 0,-0.32777 0,-0.5c0.66667,2 2,3 4,3z" id="bottomBoxShadow" fill="#000000" opacity="0.383"/><path d="M54.75834,28.67576v0.14416c0,1.69909 0,2.55076 -0.40877,3.24643c-0.40924,0.69566 -1.15375,1.10822 -2.63991,1.93619l-1.56678,0.86922c1.07882,-3.6514 1.44017,-7.57547 1.57295,-10.93049l0.01992,-0.43675l0.00379,-0.1029c1.28653,0.4467 2.00969,0.78055 2.46019,1.4046c0.55909,0.77675 0.55909,1.80768 0.55909,3.86859zM15.7998,24.80717c0.4505,-0.62453 1.17366,-0.95837 2.46209,-1.4046l0.0019,0.1029l0.01992,0.43675c0.1323,3.35502 0.49412,7.27909 1.57484,10.93049l-1.56868,-0.86922c-1.48569,-0.82797 -2.23067,-1.241 -2.63991,-1.93619c-0.40877,-0.69566 -0.40877,-1.54734 -0.40877,-3.24643v-0.14416c0,-2.05901 0,-3.09231 0.55909,-3.86859zM47.96294,18.91324c0.94035,1.15612 0.88914,2.4085 0.7905,4.90995c-0.34001,8.59312 -2.19511,19.32397 -12.27202,20.27238v6.98271h2.82533c0.9413,0.00047 1.75172,0.66531 1.93619,1.5886l0.37557,1.86933h5.2362c0.81848,0 1.4819,0.66342 1.4819,1.4819c0,0.81848 -0.66342,1.4819 -1.4819,1.4819h-23.71039c-0.81848,0 -1.4819,-0.66342 -1.4819,-1.4819c0,-0.81848 0.66342,-1.4819 1.4819,-1.4819h5.2362l0.37557,-1.86933c0.18447,-0.92328 0.99489,-1.58812 1.93619,-1.5886h2.82533v-6.98271c-10.07691,-0.94842 -11.93012,-11.68116 -12.27202,-20.27238c-0.09864,-2.50145 -0.14795,-3.75193 0.7905,-4.90995c0.94035,-1.15802 2.0647,-1.3477 4.31529,-1.72706c2.22071,-0.37557 5.12524,-0.6857 8.6486,-0.6857c2.89694,-0.01233 5.7896,0.21719 8.64813,0.6857c2.25059,0.37937 3.37494,0.56905 4.31529,1.72706zM34.94025,24.34482l-2.9638,2.9638c-0.39644,0.36941 -0.55957,0.92565 -0.42536,1.45108c0.1342,0.52495 0.54392,0.93514 1.06934,1.06934c0.52495,0.1342 1.08119,-0.02893 1.45108,-0.42536l0.43485,-0.43485v4.32715c0,0.81848 0.66342,1.4819 1.4819,1.4819c0.81848,0 1.4819,-0.66342 1.4819,-1.4819v-7.90362c0,-0.5994 -0.36087,-1.14 -0.91475,-1.36904c-0.55387,-0.22904 -1.19074,-0.10195 -1.6142,0.32199z" id="shadow" fill="#000000" opacity="0.3"/><path d="M54.75834,26.81991c0,1.69909 0,2.55076 -0.40877,3.24643c-0.10062,0.17105 -0.22151,0.32498 -0.36871,0.47218l-17.49944,17.49944v1.04032h2.82533c0.9413,0.00047 1.75172,0.66531 1.93619,1.5886l0.37557,1.86933h5.2362c0.81848,0 1.4819,0.66342 1.4819,1.4819c0,0.40924 -0.16585,0.77972 -0.43402,1.04788l-14.93402,14.93402h-29.46858c-1.933,0 -3.5,-1.567 -3.5,-3.5l0,-27.93377l16.03308,-16.03308c0.25596,-0.25596 0.58265,-0.46143 1.01066,-0.65856l5.26703,-5.26703c0.89021,-0.89021 2.00451,-1.07817 4.04063,-1.42139c2.22071,-0.37557 5.12524,-0.6857 8.6486,-0.6857c2.89694,-0.01233 5.7896,0.21719 8.64813,0.6857c2.25059,0.37937 3.37494,0.56905 4.31529,1.72706l-0.00026,0.00026c0.94013,1.15605 0.88892,2.40843 0.79029,4.90969c-0.03523,0.89029 -0.08672,1.80352 -0.16193,2.72644l3.14801,-3.14801c1.28653,0.4467 2.00969,0.78055 2.46019,1.4046c0.55909,0.77675 0.55909,1.80768 0.55909,3.86859l-0.00047,0.00095z" id="flatShadow" fill="#000000" opacity="0.324"/><path d="M54.75834,26.67576v0.14416c0,1.69909 0,2.55076 -0.40877,3.24643c-0.40924,0.69566 -1.15375,1.10822 -2.63991,1.93619l-1.56678,0.86922c1.07882,-3.6514 1.44017,-7.57547 1.57295,-10.93049l0.01992,-0.43675l0.00379,-0.1029c1.28653,0.4467 2.00969,0.78055 2.46019,1.4046c0.55909,0.77675 0.55909,1.80768 0.55909,3.86859zM15.7998,22.80717c0.4505,-0.62453 1.17366,-0.95837 2.46209,-1.4046l0.0019,0.1029l0.01992,0.43675c0.1323,3.35502 0.49412,7.27909 1.57484,10.93049l-1.56868,-0.86922c-1.48569,-0.82797 -2.23067,-1.241 -2.63991,-1.93619c-0.40877,-0.69566 -0.40877,-1.54734 -0.40877,-3.24643v-0.14416c0,-2.05901 0,-3.09231 0.55909,-3.86859zM47.96294,16.91324c0.94035,1.15612 0.88914,2.4085 0.7905,4.90995c-0.34001,8.59312 -2.19511,19.32397 -12.27202,20.27238v6.98271h2.82533c0.9413,0.00047 1.75172,0.66531 1.93619,1.5886l0.37557,1.86933h5.2362c0.81848,0 1.4819,0.66342 1.4819,1.4819c0,0.81848 -0.66342,1.4819 -1.4819,1.4819h-23.71039c-0.81848,0 -1.4819,-0.66342 -1.4819,-1.4819c0,-0.81848 0.66342,-1.4819 1.4819,-1.4819h5.2362l0.37557,-1.86933c0.18447,-0.92328 0.99489,-1.58812 1.93619,-1.5886h2.82533v-6.98271c-10.07691,-0.94842 -11.93012,-11.68116 -12.27202,-20.27238c-0.09864,-2.50145 -0.14795,-3.75193 0.7905,-4.90995c0.94035,-1.15802 2.0647,-1.3477 4.31529,-1.72706c2.22071,-0.37557 5.12524,-0.6857 8.6486,-0.6857c2.89694,-0.01233 5.7896,0.21719 8.64813,0.6857c2.25059,0.37937 3.37494,0.56905 4.31529,1.72706zM34.94025,22.34482l-2.9638,2.9638c-0.39644,0.36941 -0.55957,0.92565 -0.42536,1.45108c0.1342,0.52495 0.54392,0.93514 1.06934,1.06934c0.52495,0.1342 1.08119,-0.02893 1.45108,-0.42536l0.43485,-0.43485v4.32715c0,0.81848 0.66342,1.4819 1.4819,1.4819c0.81848,0 1.4819,-0.66342 1.4819,-1.4819v-7.90362c0,-0.5994 -0.36087,-1.14 -0.91475,-1.36904c-0.55387,-0.22904 -1.19074,-0.10195 -1.6142,0.32199z" id="icon" fill="#ffffff"/></g></svg>