<svg version="1.1" xmlns="http://www.w3.org/2000/svg" xmlns:xlink="http://www.w3.org/1999/xlink" width="70" height="70" viewBox="0,0,70,70" odoo-icon:version="1.0" xmlns:odoo-icon="https://ivantodorovich.github.io/odoo-icon" odoo-icon:size="70" odoo-icon:icon-size="0.64" odoo-icon:icon-color="#FFFFFF" odoo-icon:icon-flat-shadow-angle="135" odoo-icon:background-color="#5a9442" odoo-icon:background-gradient="0.2" odoo-icon:box-radius="3.5" odoo-icon:odoo-version="14.0"><defs><linearGradient x1="70" y1="0" x2="0" y2="70" gradientUnits="userSpaceOnUse" id="color-1"><stop offset="0" stop-color="#8dc775"/><stop offset="1" stop-color="#5a9442"/></linearGradient></defs><g fill="none" fill-rule="nonzero" stroke="none" stroke-width="1" stroke-linecap="butt" stroke-linejoin="miter" stroke-miterlimit="10" stroke-dasharray="" stroke-dashoffset="0" font-family="none" font-weight="none" font-size="none" text-anchor="none" style="mix-blend-mode: normal"><path d="M3.5,70c-1.933,0 -3.5,-1.567 -3.5,-3.5v-63c0,-1.933 1.567,-3.5 3.5,-3.5h63c1.933,0 3.5,1.567 3.5,3.5v63c0,1.933 -1.567,3.5 -3.5,3.5z" id="box" fill="url(#color-1)"/><path d="M65,1h-61c-1.95033,0 -3.2667,0.63396 -3.9491,1.90189c0.28378,-1.64806 1.72001,-2.90189 3.4491,-2.90189h63c1.72965,0 3.16627,1.25466 3.44938,2.90352c-0.69803,-1.26902 -2.34782,-1.90352 -4.94938,-1.90352z" id="topBoxShadow" fill="#ffffff" opacity="0.383"/><path d="M4,69h61c2.66667,0 4.33333,-1 5,-3v0.5c0,1.933 -1.567,3.5 -3.5,3.5h-63c-1.933,0 -3.5,-1.567 -3.5,-3.5c0,-0.1611 0,-0.32777 0,-0.5c0.66667,2 2,3 4,3z" id="bottomBoxShadow" fill="#000000" opacity="0.383"/><path d="M21.25058,34.49893c0,-1.38058 1.11899,-2.50017 2.50017,-2.50017v4.99973c-1.38058,0 -2.50017,-1.11899 -2.50017,-2.50017zM29.37567,24.49947c-2.76116,0 -4.99973,-2.23857 -4.99973,-4.99973c0,-2.76116 2.23857,-4.99973 4.99973,-4.99973c2.76116,0 4.99973,2.23857 4.99973,4.99973c0,2.76116 -2.23857,4.99973 -4.99973,4.99973zM31.87584,19.49913c0,-1.38058 -1.11899,-2.50017 -2.50017,-2.50017c-1.38058,0 -2.50017,1.11899 -2.50017,2.50017c0,1.38058 1.11899,2.50017 2.50017,2.50017c1.38058,0 2.50017,-1.11899 2.50017,-2.50017zM46.25045,33.54435c-0.68699,0.61619 -1.57738,0.95639 -2.50017,0.95519h-6.25012v21.24992c0,2.07117 -1.67878,3.74995 -3.74995,3.74995c-2.07117,0 -3.74995,-1.67878 -3.74995,-3.74995v-10.00007h-1.24978v10.00007c0,0.87599 -0.3,1.68238 -0.80519,2.32137c-0.98879,1.25458 -2.66396,1.74478 -4.17354,1.22158c-1.50958,-0.52319 -2.52117,-1.94517 -2.52177,-3.54295v-14.10221c-1.95357,-0.89999 -4.99973,-3.50995 -4.99973,-7.6835c0,-5.25893 4.83894,-6.96351 6.23092,-6.96351h21.26852c0.95999,0 1.83778,0.3612 2.50017,0.95519v-2.20497h-1.24978c-2.07117,0 -3.74995,-1.67878 -3.74995,-3.74995v-7.4999h2.50017v7.4999c0,0.69059 0.55979,1.24978 1.24978,1.24978h1.24978v-8.74968h2.50017v8.74968h1.24978c0.69059,0 1.24978,-0.55979 1.24978,-1.24978v-7.4999h2.50017v7.4999c0,2.07117 -1.67878,3.74995 -3.74995,3.74995h-1.24978v32.49977c0,0.69059 -0.55979,1.24978 -1.24978,1.24978c-0.69059,0 -1.24978,-0.55979 -1.24978,-1.24978zM22.29697,39.37507l1.45378,0.67019v15.70359c0,0.69059 0.55979,1.24978 1.24978,1.24978c0.69059,0 1.24978,-0.55979 1.24978,-1.24978v-12.49963h6.25012v12.49963c0,0.69059 0.55979,1.24978 1.24978,1.24978c0.69059,0 1.24978,-0.55979 1.24978,-1.24978v-23.74948h8.74968c0.69059,0 1.24978,-0.55979 1.24978,-1.24978c0,-0.69059 -0.55979,-1.24978 -1.24978,-1.24978h-21.26852c0.0102,0 0.0072,0 -0.0102,0.0036c-0.0612,0.009 -0.3,0.0462 -0.67859,0.1872c-0.50639,0.1896 -0.98099,0.45539 -1.40758,0.78719c-0.87899,0.68759 -1.63498,1.74238 -1.63498,3.48475c0,2.85356 2.11617,4.75374 3.54595,5.41253z" id="shadow" fill="#000000" opacity="0.3"/><path d="M25.84037,13.96443c0.90479,-0.90479 2.15472,-1.46443 3.5353,-1.46443c2.76116,0 4.99973,2.23857 4.99973,4.99973c0,0.95661 -0.26869,1.8505 -0.73473,2.6103l7.60943,-7.60943h2.50017l0,2.49957l2.49957,-2.49957h2.50017v2.49957l2.49957,-2.49957h2.50017v7.4999c0,1.03559 -0.41969,1.97307 -1.09829,2.65166l-3.90145,3.90145l0,29.6966c0,0.34522 -0.13989,0.65761 -0.366,0.88372l-12.86607,12.86607h-32.01795c-1.933,0 -3.5,-1.567 -3.5,-3.5l0,-26.6952z" id="flatShadow" fill="#000000" opacity="0.324"/><path d="M21.25058,32.49893c0,-1.38058 1.11899,-2.50017 2.50017,-2.50017v4.99973c-1.38058,0 -2.50017,-1.11899 -2.50017,-2.50017zM29.37567,22.49947c-2.76116,0 -4.99973,-2.23857 -4.99973,-4.99973c0,-2.76116 2.23857,-4.99973 4.99973,-4.99973c2.76116,0 4.99973,2.23857 4.99973,4.99973c0,2.76116 -2.23857,4.99973 -4.99973,4.99973zM31.87584,17.49913c0,-1.38058 -1.11899,-2.50017 -2.50017,-2.50017c-1.38058,0 -2.50017,1.11899 -2.50017,2.50017c0,1.38058 1.11899,2.50017 2.50017,2.50017c1.38058,0 2.50017,-1.11899 2.50017,-2.50017zM46.25045,31.54435c-0.68699,0.61619 -1.57738,0.95639 -2.50017,0.95519h-6.25012v21.24992c0,2.07117 -1.67878,3.74995 -3.74995,3.74995c-2.07117,0 -3.74995,-1.67878 -3.74995,-3.74995v-10.00007h-1.24978v10.00007c0,0.87599 -0.3,1.68238 -0.80519,2.32137c-0.98879,1.25458 -2.66396,1.74478 -4.17354,1.22158c-1.50958,-0.52319 -2.52117,-1.94517 -2.52177,-3.54295v-14.10221c-1.95357,-0.89999 -4.99973,-3.50995 -4.99973,-7.6835c0,-5.25893 4.83894,-6.96351 6.23092,-6.96351h21.26852c0.95999,0 1.83778,0.3612 2.50017,0.95519v-2.20497h-1.24978c-2.07117,0 -3.74995,-1.67878 -3.74995,-3.74995v-7.4999h2.50017v7.4999c0,0.69059 0.55979,1.24978 1.24978,1.24978h1.24978v-8.74968h2.50017v8.74968h1.24978c0.69059,0 1.24978,-0.55979 1.24978,-1.24978v-7.4999h2.50017v7.4999c0,2.07117 -1.67878,3.74995 -3.74995,3.74995h-1.24978v32.49977c0,0.69059 -0.55979,1.24978 -1.24978,1.24978c-0.69059,0 -1.24978,-0.55979 -1.24978,-1.24978zM22.29697,37.37507l1.45378,0.67019v15.70359c0,0.69059 0.55979,1.24978 1.24978,1.24978c0.69059,0 1.24978,-0.55979 1.24978,-1.24978v-12.49963h6.25012v12.49963c0,0.69059 0.55979,1.24978 1.24978,1.24978c0.69059,0 1.24978,-0.55979 1.24978,-1.24978v-23.74948h8.74968c0.69059,0 1.24978,-0.55979 1.24978,-1.24978c0,-0.69059 -0.55979,-1.24978 -1.24978,-1.24978h-21.26852c0.0102,0 0.0072,0 -0.0102,0.0036c-0.0612,0.009 -0.3,0.0462 -0.67859,0.1872c-0.50639,0.1896 -0.98099,0.45539 -1.40758,0.78719c-0.87899,0.68759 -1.63498,1.74238 -1.63498,3.48475c0,2.85356 2.11617,4.75374 3.54595,5.41253z" id="icon" fill="#ffffff"/></g></svg>