<svg version="1.1" xmlns="http://www.w3.org/2000/svg" xmlns:xlink="http://www.w3.org/1999/xlink" width="70" height="70" viewBox="0,0,70,70" odoo-icon:version="1.0" xmlns:odoo-icon="https://ivantodorovich.github.io/odoo-icon" odoo-icon:size="70" odoo-icon:icon-size="0.55" odoo-icon:icon-color="#FFFFFF" odoo-icon:icon-flat-shadow-angle="135" odoo-icon:background-color="#cb6482" odoo-icon:background-gradient="0.2" odoo-icon:box-radius="3.5" odoo-icon:odoo-version="14.0"><defs><linearGradient x1="70" y1="0" x2="0" y2="70" gradientUnits="userSpaceOnUse" id="color-1"><stop offset="0" stop-color="#fe97b5"/><stop offset="1" stop-color="#cb6482"/></linearGradient></defs><g fill="none" fill-rule="nonzero" stroke="none" stroke-width="1" stroke-linecap="butt" stroke-linejoin="miter" stroke-miterlimit="10" stroke-dasharray="" stroke-dashoffset="0" font-family="none" font-weight="none" font-size="none" text-anchor="none" style="mix-blend-mode: normal"><path d="M3.5,70c-1.933,0 -3.5,-1.567 -3.5,-3.5v-63c0,-1.933 1.567,-3.5 3.5,-3.5h63c1.933,0 3.5,1.567 3.5,3.5v63c0,1.933 -1.567,3.5 -3.5,3.5z" id="box" fill="url(#color-1)"/><path d="M65,1h-61c-1.95033,0 -3.2667,0.63396 -3.9491,1.90189c0.28378,-1.64806 1.72001,-2.90189 3.4491,-2.90189h63c1.72965,0 3.16627,1.25466 3.44938,2.90352c-0.69803,-1.26902 -2.34782,-1.90352 -4.94938,-1.90352z" id="topBoxShadow" fill="#ffffff" opacity="0.383"/><path d="M4,69h61c2.66667,0 4.33333,-1 5,-3v0.5c0,1.933 -1.567,3.5 -3.5,3.5h-63c-1.933,0 -3.5,-1.567 -3.5,-3.5c0,-0.1611 0,-0.32777 0,-0.5c0.66667,2 2,3 4,3z" id="bottomBoxShadow" fill="#000000" opacity="0.383"/><path d="M47.56963,39.94628c0.1911,0.17667 0.32448,0.40677 0.38259,0.66067c0.09243,0.72151 0.02184,1.42585 -0.31707,1.93793c-0.18954,0.27066 -0.47112,0.46293 -0.7921,0.54094c-0.21684,0.0585 -0.48516,0.08775 -0.79717,0.08775c-1.74995,0 -4.52639,-0.88258 -6.78373,-2.15243c-3.15669,0.49062 -6.26931,1.23046 -9.309,2.21327c-2.57169,4.48738 -4.43863,6.48849 -6.04506,6.48849c-0.30264,-0.00078 -0.60061,-0.07254 -0.8701,-0.20982l-0.64117,-0.32175c-0.39975,-0.22893 -0.45825,-0.72385 -0.38025,-1.11151c0.24882,-1.21369 1.74293,-2.74212 3.99988,-4.08997c0.26559,-0.16107 1.39933,-0.76285 1.44808,-0.78742l0.66067,-0.351c0.64117,-1.09669 1.34785,-2.39111 2.12786,-3.9172l0.0975,-0.18759c0.74101,-1.45042 1.57952,-3.09546 2.24993,-4.7288l0.23868,-0.58267c-0.93367,-3.57361 -1.45042,-6.33249 -0.95044,-8.17799c0.16341,-0.58969 0.78976,-0.98242 1.56002,-0.98242l0.41691,0.01209c0.68992,-0.02925 1.13101,0.5191 1.35526,1.03585l0.07059,0.18525c0.05499,0.1443 0.09126,0.29484 0.10725,0.4485c0.21918,1.5842 -0.60685,6.27165 -0.60685,6.27165c-0.039,0.1755 -0.08307,0.34632 -0.13182,0.54133c0.76051,2.08886 1.98434,3.98779 3.44919,5.35514c0.54367,0.50935 1.23826,0.93367 1.91102,1.32094c1.36423,-0.19968 2.74095,-0.30069 4.11922,-0.30225c1.75502,0.02418 2.90787,0.29484 3.42735,0.80692zM23.56099,48.5018c0.78976,-0.35646 1.99136,-1.49761 3.7846,-4.3579c-0.24375,0.23166 -0.50935,0.48009 -0.6166,0.56785c-1.71407,1.40479 -2.87355,2.98704 -3.16761,3.79006zM33.50765,26.95447c0,0.9676 0.14391,2.44727 0.43641,3.38562c0.35334,-0.63376 0.63844,-1.49176 0.61426,-2.71287c-0.02418,-1.2211 -0.31941,-2.52294 -0.83617,-2.52294c-0.23634,0 -0.2145,1.85018 -0.2145,1.85018zM30.69065,41.77813c1.97615,-0.76012 4.22023,-1.38373 6.81727,-1.89776c-0.1755,-0.13416 -0.34632,-0.27066 -0.50467,-0.40482c-1.31587,-1.13023 -2.41334,-2.4929 -3.23703,-4.01938c-0.43875,1.13335 -1.0261,2.51319 -1.95977,4.27795c-0.38259,0.72112 -0.75505,1.40089 -1.1158,2.04401zM47.07004,41.63071c0.15834,-0.0975 0.14625,-0.57526 -0.77494,-0.8116c-0.92158,-0.23634 -1.2016,-0.23166 -2.14502,-0.23166c-0.51676,0 -1.09201,0.02418 -1.71836,0.07059c1.63061,0.70201 2.79594,1.13101 3.73663,1.13101c0.29016,0 0.74335,-0.05616 0.90169,-0.156zM52.06209,29.68684v23.76606c0,1.67936 -1.36735,3.0471 -3.04671,3.0471h-28.03153c-1.67936,0 -3.04671,-1.36735 -3.04671,-3.04671v-32.90658c0,-1.67936 1.36735,-3.04671 3.0471,-3.04671h18.89101c0.54601,0 1.49917,0.16575 3.46362,1.60643c1.15285,0.84592 2.50344,2.02568 3.79747,3.3201c1.29442,1.29442 2.47418,2.64462 3.3201,3.79786c1.44067,1.96445 1.60643,2.91762 1.60643,3.46362zM45.40784,24.15113c-1.16767,-1.17001 -2.22302,-2.08652 -3.09819,-2.76435v5.86215h5.86488c-0.67783,-0.87517 -1.59395,-1.92818 -2.76435,-3.09819zM49.62456,29.68684h-8.53134c-0.67315,0 -1.21876,-0.54562 -1.21876,-1.21876v-8.53134h-18.89062c-0.32916,0 -0.60919,0.28041 -0.60919,0.60958v32.90658c0.0039,0.33501 0.27456,0.60529 0.60958,0.60958h28.03153c0.3315,0 0.60958,-0.27807 0.60958,-0.60919z" id="shadow" fill="#000000" opacity="0.3"/><path d="M52.06209,51.4529c0,0.83978 -0.34192,1.60163 -0.89379,2.1535c0,0 0,0 0,0l-16.3936,16.3936h-31.2747c-1.933,0 -3.5,-1.567 -3.5,-3.5l0,-31.27562l18.83068,-18.83068c0.55181,-0.55181 1.31363,-0.89369 2.15355,-0.89369h18.89101c0.54601,0 1.49917,0.16575 3.46362,1.60643c1.15285,0.84592 2.50344,2.02568 3.79747,3.3201c1.29442,1.29442 2.47418,2.64462 3.3201,3.79786c1.44067,1.96445 1.60643,2.91762 1.60643,3.46362l-0.00078,0.00078z" id="flatShadow" fill="#000000" opacity="0.324"/><path d="M47.56963,37.94628c0.1911,0.17667 0.32448,0.40677 0.38259,0.66067c0.09243,0.72151 0.02184,1.42585 -0.31707,1.93793c-0.18954,0.27066 -0.47112,0.46293 -0.7921,0.54094c-0.21684,0.0585 -0.48516,0.08775 -0.79717,0.08775c-1.74995,0 -4.52639,-0.88258 -6.78373,-2.15243c-3.15669,0.49062 -6.26931,1.23046 -9.309,2.21327c-2.57169,4.48738 -4.43863,6.48849 -6.04506,6.48849c-0.30264,-0.00078 -0.60061,-0.07254 -0.8701,-0.20982l-0.64117,-0.32175c-0.39975,-0.22893 -0.45825,-0.72385 -0.38025,-1.11151c0.24882,-1.21369 1.74293,-2.74212 3.99988,-4.08997c0.26559,-0.16107 1.39933,-0.76285 1.44808,-0.78742l0.66067,-0.351c0.64117,-1.09669 1.34785,-2.39111 2.12786,-3.9172l0.0975,-0.18759c0.74101,-1.45042 1.57952,-3.09546 2.24993,-4.7288l0.23868,-0.58267c-0.93367,-3.57361 -1.45042,-6.33249 -0.95044,-8.17799c0.16341,-0.58969 0.78976,-0.98242 1.56002,-0.98242l0.41691,0.01209c0.68992,-0.02925 1.13101,0.5191 1.35526,1.03585l0.07059,0.18525c0.05499,0.1443 0.09126,0.29484 0.10725,0.4485c0.21918,1.5842 -0.60685,6.27165 -0.60685,6.27165c-0.039,0.1755 -0.08307,0.34632 -0.13182,0.54133c0.76051,2.08886 1.98434,3.98779 3.44919,5.35514c0.54367,0.50935 1.23826,0.93367 1.91102,1.32094c1.36423,-0.19968 2.74095,-0.30069 4.11922,-0.30225c1.75502,0.02418 2.90787,0.29484 3.42735,0.80692zM23.56099,46.5018c0.78976,-0.35646 1.99136,-1.49761 3.7846,-4.3579c-0.24375,0.23166 -0.50935,0.48009 -0.6166,0.56785c-1.71407,1.40479 -2.87355,2.98704 -3.16761,3.79006zM33.50765,24.95447c0,0.9676 0.14391,2.44727 0.43641,3.38562c0.35334,-0.63376 0.63844,-1.49176 0.61426,-2.71287c-0.02418,-1.2211 -0.31941,-2.52294 -0.83617,-2.52294c-0.23634,0 -0.2145,1.85018 -0.2145,1.85018zM30.69065,39.77813c1.97615,-0.76012 4.22023,-1.38373 6.81727,-1.89776c-0.1755,-0.13416 -0.34632,-0.27066 -0.50467,-0.40482c-1.31587,-1.13023 -2.41334,-2.4929 -3.23703,-4.01938c-0.43875,1.13335 -1.0261,2.51319 -1.95977,4.27795c-0.38259,0.72112 -0.75505,1.40089 -1.1158,2.04401zM47.07004,39.63071c0.15834,-0.0975 0.14625,-0.57526 -0.77494,-0.8116c-0.92158,-0.23634 -1.2016,-0.23166 -2.14502,-0.23166c-0.51676,0 -1.09201,0.02418 -1.71836,0.07059c1.63061,0.70201 2.79594,1.13101 3.73663,1.13101c0.29016,0 0.74335,-0.05616 0.90169,-0.156zM52.06209,27.68684v23.76606c0,1.67936 -1.36735,3.0471 -3.04671,3.0471h-28.03153c-1.67936,0 -3.04671,-1.36735 -3.04671,-3.04671v-32.90658c0,-1.67936 1.36735,-3.04671 3.0471,-3.04671h18.89101c0.54601,0 1.49917,0.16575 3.46362,1.60643c1.15285,0.84592 2.50344,2.02568 3.79747,3.3201c1.29442,1.29442 2.47418,2.64462 3.3201,3.79786c1.44067,1.96445 1.60643,2.91762 1.60643,3.46362zM45.40784,22.15113c-1.16767,-1.17001 -2.22302,-2.08652 -3.09819,-2.76435v5.86215h5.86488c-0.67783,-0.87517 -1.59395,-1.92818 -2.76435,-3.09819zM49.62456,27.68684h-8.53134c-0.67315,0 -1.21876,-0.54562 -1.21876,-1.21876v-8.53134h-18.89062c-0.32916,0 -0.60919,0.28041 -0.60919,0.60958v32.90658c0.0039,0.33501 0.27456,0.60529 0.60958,0.60958h28.03153c0.3315,0 0.60958,-0.27807 0.60958,-0.60919z" id="icon" fill="#ffffff"/></g></svg>