<svg version="1.1" xmlns="http://www.w3.org/2000/svg" xmlns:xlink="http://www.w3.org/1999/xlink" width="70" height="70" viewBox="0,0,70,70" odoo-icon:version="1.0" xmlns:odoo-icon="https://ivantodorovich.github.io/odoo-icon" odoo-icon:size="70" odoo-icon:icon-size="0.6" odoo-icon:icon-color="#FFFFFF" odoo-icon:icon-flat-shadow-angle="135" odoo-icon:background-color="#5a9442" odoo-icon:background-gradient="0.2" odoo-icon:box-radius="3.5" odoo-icon:odoo-version="14.0"><defs><linearGradient x1="70" y1="0" x2="0" y2="70" gradientUnits="userSpaceOnUse" id="color-1"><stop offset="0" stop-color="#8dc775"/><stop offset="1" stop-color="#5a9442"/></linearGradient></defs><g fill="none" fill-rule="nonzero" stroke="none" stroke-width="1" stroke-linecap="butt" stroke-linejoin="miter" stroke-miterlimit="10" stroke-dasharray="" stroke-dashoffset="0" font-family="none" font-weight="none" font-size="none" text-anchor="none" style="mix-blend-mode: normal"><path d="M3.5,70c-1.933,0 -3.5,-1.567 -3.5,-3.5v-63c0,-1.933 1.567,-3.5 3.5,-3.5h63c1.933,0 3.5,1.567 3.5,3.5v63c0,1.933 -1.567,3.5 -3.5,3.5z" id="box" fill="url(#color-1)"/><path d="M65,1h-61c-1.95033,0 -3.2667,0.63396 -3.9491,1.90189c0.28378,-1.64806 1.72001,-2.90189 3.4491,-2.90189h63c1.72965,0 3.16627,1.25466 3.44938,2.90352c-0.69803,-1.26902 -2.34782,-1.90352 -4.94938,-1.90352z" id="topBoxShadow" fill="#ffffff" opacity="0.383"/><path d="M4,69h61c2.66667,0 4.33333,-1 5,-3v0.5c0,1.933 -1.567,3.5 -3.5,3.5h-63c-1.933,0 -3.5,-1.567 -3.5,-3.5c0,-0.1611 0,-0.32777 0,-0.5c0.66667,2 2,3 4,3z" id="bottomBoxShadow" fill="#000000" opacity="0.383"/><path d="M14,37.03693c0,-3.80455 0.95114,-7.32935 2.83495,-10.55595c1.88381,-3.22659 4.43846,-5.78124 7.66505,-7.66505c3.22659,-1.88381 6.73238,-2.81593 10.51846,-2.81593c2.83495,0 5.55744,0.55949 8.15013,1.66001c2.59213,1.10052 4.81164,2.61115 6.69545,4.47594c1.88381,1.86479 3.37542,4.10276 4.47594,6.71391c1.10052,2.61115 1.66001,5.31518 1.66001,8.18706c0,2.83495 -0.55949,5.55744 -1.66001,8.15013c-1.10052,2.59213 -2.61115,4.8301 -4.47594,6.69545c-1.86479,1.86479 -4.10276,3.35696 -6.69545,4.45748c-2.59213,1.10052 -5.29672,1.66001 -8.15013,1.66001c-2.85341,0 -5.59493,-0.55949 -8.18706,-1.66001c-2.59213,-1.10052 -4.8301,-2.61115 -6.71391,-4.47594c-1.88381,-1.86479 -3.35696,-4.10276 -4.47594,-6.67643c-1.11899,-2.57367 -1.64099,-5.29672 -1.64099,-8.15013zM18.62477,37.03693c0,4.41999 1.60407,8.26203 4.8301,11.52555c3.22659,3.22659 7.06807,4.8301 11.56304,4.8301c2.94685,0 5.68836,-0.72734 8.18706,-2.20048c2.49925,-1.47314 4.51343,-3.45039 5.98657,-5.96811c1.47314,-2.51772 2.21951,-5.24077 2.21951,-8.18706c0,-2.94685 -0.7458,-5.68836 -2.21951,-8.20608c-1.47314,-2.51772 -3.46885,-4.51343 -5.98657,-5.98657c-2.51772,-1.47314 -5.24077,-2.20048 -8.18706,-2.20048c-2.94685,0 -5.68836,0.72734 -8.18706,2.20048c-2.49925,1.47314 -4.51343,3.46885 -6.00504,5.98657c-1.49217,2.51772 -2.20048,5.25923 -2.20048,8.20608zM33.39537,37.03693v-12.42074c0,-0.42913 0.14938,-0.80175 0.44759,-1.10052c0.29821,-0.29821 0.67139,-0.44759 1.10052,-0.44759c0.42913,0 0.80175,0.14938 1.10052,0.44759c0.29821,0.29821 0.44759,0.67139 0.44759,1.10052v11.4696l6.69545,3.89799c0.37318,0.2238 0.59698,0.54103 0.70888,0.95114c0.1119,0.41011 0.05595,0.80175 -0.16785,1.15647c-0.29821,0.52201 -0.7458,0.78329 -1.34278,0.78329c-0.31723,0 -0.57796,-0.07441 -0.78329,-0.2238l-7.12402,-4.15871c-0.31723,-0.09344 -0.57796,-0.27975 -0.78329,-0.54103c-0.20533,-0.26128 -0.29821,-0.55949 -0.29821,-0.91365z" id="shadow" fill="#000000" opacity="0.3"/><path d="M20.16393,20.14491c1.27746,-1.27746 2.72277,-2.38708 4.33607,-3.32898c3.22659,-1.88381 6.73238,-2.81593 10.51846,-2.81593c2.83495,0 5.55744,0.55949 8.15013,1.66001c2.59213,1.10052 4.81164,2.61115 6.69545,4.47594c1.88381,1.86479 3.37542,4.10276 4.47594,6.71391c1.10052,2.61115 1.66001,5.31518 1.66001,8.18706c0,2.83495 -0.55949,5.55744 -1.66001,8.15013c-1.10052,2.59213 -2.61115,4.8301 -4.47594,6.69545l-20.11749,20.11749h-26.24655c-1.933,0 -3.5,-1.567 -3.5,-3.5l0,-26.19116z" id="flatShadow" fill="#000000" opacity="0.324"/><path d="M14,35.03693c0,-3.80455 0.95114,-7.32935 2.83495,-10.55595c1.88381,-3.22659 4.43846,-5.78124 7.66505,-7.66505c3.22659,-1.88381 6.73238,-2.81593 10.51846,-2.81593c2.83495,0 5.55744,0.55949 8.15013,1.66001c2.59213,1.10052 4.81164,2.61115 6.69545,4.47594c1.88381,1.86479 3.37542,4.10276 4.47594,6.71391c1.10052,2.61115 1.66001,5.31518 1.66001,8.18706c0,2.83495 -0.55949,5.55744 -1.66001,8.15013c-1.10052,2.59213 -2.61115,4.8301 -4.47594,6.69545c-1.86479,1.86479 -4.10276,3.35696 -6.69545,4.45748c-2.59213,1.10052 -5.29672,1.66001 -8.15013,1.66001c-2.85341,0 -5.59493,-0.55949 -8.18706,-1.66001c-2.59213,-1.10052 -4.8301,-2.61115 -6.71391,-4.47594c-1.88381,-1.86479 -3.35696,-4.10276 -4.47594,-6.67643c-1.11899,-2.57367 -1.64099,-5.29672 -1.64099,-8.15013zM18.62477,35.03693c0,4.41999 1.60407,8.26203 4.8301,11.52555c3.22659,3.22659 7.06807,4.8301 11.56304,4.8301c2.94685,0 5.68836,-0.72734 8.18706,-2.20048c2.49925,-1.47314 4.51343,-3.45039 5.98657,-5.96811c1.47314,-2.51772 2.21951,-5.24077 2.21951,-8.18706c0,-2.94685 -0.7458,-5.68836 -2.21951,-8.20608c-1.47314,-2.51772 -3.46885,-4.51343 -5.98657,-5.98657c-2.51772,-1.47314 -5.24077,-2.20048 -8.18706,-2.20048c-2.94685,0 -5.68836,0.72734 -8.18706,2.20048c-2.49925,1.47314 -4.51343,3.46885 -6.00504,5.98657c-1.49217,2.51772 -2.20048,5.25923 -2.20048,8.20608zM33.39537,35.03693v-12.42074c0,-0.42913 0.14938,-0.80175 0.44759,-1.10052c0.29821,-0.29821 0.67139,-0.44759 1.10052,-0.44759c0.42913,0 0.80175,0.14938 1.10052,0.44759c0.29821,0.29821 0.44759,0.67139 0.44759,1.10052v11.4696l6.69545,3.89799c0.37318,0.2238 0.59698,0.54103 0.70888,0.95114c0.1119,0.41011 0.05595,0.80175 -0.16785,1.15647c-0.29821,0.52201 -0.7458,0.78329 -1.34278,0.78329c-0.31723,0 -0.57796,-0.07441 -0.78329,-0.2238l-7.12402,-4.15871c-0.31723,-0.09344 -0.57796,-0.27975 -0.78329,-0.54103c-0.20533,-0.26128 -0.29821,-0.55949 -0.29821,-0.91365z" id="icon" fill="#ffffff"/></g></svg>