<svg version="1.1" xmlns="http://www.w3.org/2000/svg" xmlns:xlink="http://www.w3.org/1999/xlink" width="70" height="70" viewBox="0,0,70,70" odoo-icon:version="1.0" xmlns:odoo-icon="https://ivantodorovich.github.io/odoo-icon" odoo-icon:size="70" odoo-icon:icon-size="0.61" odoo-icon:icon-color="#FFFFFF" odoo-icon:icon-flat-shadow-angle="135" odoo-icon:background-color="#1e88e5" odoo-icon:background-gradient="0.2" odoo-icon:box-radius="3.5" odoo-icon:odoo-version="16.0"><defs><linearGradient x1="70" y1="0" x2="0" y2="70" gradientUnits="userSpaceOnUse" id="color-1"><stop offset="0" stop-color="#51bbff"/><stop offset="1" stop-color="#1e88e5"/></linearGradient></defs><g fill="none" fill-rule="nonzero" stroke="none" stroke-width="1" stroke-linecap="butt" stroke-linejoin="miter" stroke-miterlimit="10" stroke-dasharray="" stroke-dashoffset="0" font-family="none" font-weight="none" font-size="none" text-anchor="none" style="mix-blend-mode: normal"><path d="M3.5,70c-1.933,0 -3.5,-1.567 -3.5,-3.5v-63c0,-1.933 1.567,-3.5 3.5,-3.5h63c1.933,0 3.5,1.567 3.5,3.5v63c0,1.933 -1.567,3.5 -3.5,3.5z" id="box" fill="url(#color-1)"/><path d="M65,1h-61c-1.95033,0 -3.2667,0.63396 -3.9491,1.90189c0.28378,-1.64806 1.72001,-2.90189 3.4491,-2.90189h63c1.72965,0 3.16627,1.25466 3.44938,2.90352c-0.69803,-1.26902 -2.34782,-1.90352 -4.94938,-1.90352z" id="topBoxShadow" fill="#ffffff" opacity="0.383"/><path d="M4,69h61c2.66667,0 4.33333,-1 5,-3v0.5c0,1.933 -1.567,3.5 -3.5,3.5h-63c-1.933,0 -3.5,-1.567 -3.5,-3.5c0,-0.1611 0,-0.32777 0,-0.5c0.66667,2 2,3 4,3z" id="bottomBoxShadow" fill="#000000" opacity="0.383"/><path d="M37.31993,28.49098l3.09533,3.09533c2.87169,2.87169 4.4855,6.76658 4.4855,10.8279c0,4.06131 -1.61329,7.95621 -4.4855,10.8279l-0.77436,0.77226c-5.98015,5.98015 -15.67564,5.98015 -21.65579,0c-5.98015,-5.98015 -5.98015,-15.67564 0,-21.65579l3.09533,3.09533c-4.14479,4.29178 -4.08546,11.11296 0.13335,15.3323c4.21881,4.21881 11.04052,4.27813 15.3323,0.13335l0.77436,-0.77226c4.26973,-4.27078 4.26973,-11.19434 0,-15.46512l-3.09323,-3.09533zM52.01489,41.63933l-3.09323,-3.09323c4.23929,-4.27656 4.22406,-11.17544 -0.0336,-15.43362c-4.25818,-4.25818 -11.15706,-4.27341 -15.43362,-0.0336l-0.77436,0.77226c-4.27131,4.27131 -4.27131,11.19644 0,15.46722l3.09323,3.09533l-3.09323,3.09323l-3.09323,-3.09323c-2.87169,-2.87169 -4.4855,-6.76658 -4.4855,-10.8279c0,-4.06131 1.61329,-7.95621 4.4855,-10.8279l0.77226,-0.77226c5.98015,-5.98015 15.67564,-5.98015 21.65579,0c5.98015,5.98015 5.98015,15.67564 0,21.65579z" id="shadow" fill="#000000" opacity="0.3"/><path d="M40.41625,51.24111l-18.75889,18.75889h-18.15737c-1.933,0 -3.5,-1.567 -3.5,-3.5l0,-18.15632l17.98511,-17.98511l0.00052,0.00052l11.59922,-11.59922c0.00033,-0.00033 0.00066,-0.00066 0.00099,-0.00099l0.77325,-0.77325c5.98015,-5.98015 15.67564,-5.98015 21.65579,0c5.98015,5.98015 5.98015,15.67564 0,21.65579l-11.49247,11.49247c-0.0352,0.0359 -0.07059,0.07164 -0.10617,0.10722z" id="flatShadow" fill="#000000" opacity="0.324"/><path d="M37.31993,26.49098l3.09533,3.09533c2.87169,2.87169 4.4855,6.76658 4.4855,10.8279c0,4.06131 -1.61329,7.95621 -4.4855,10.8279l-0.77436,0.77226c-5.98015,5.98015 -15.67564,5.98015 -21.65579,0c-5.98015,-5.98015 -5.98015,-15.67564 0,-21.65579l3.09533,3.09533c-4.14479,4.29178 -4.08546,11.11296 0.13335,15.3323c4.21881,4.21881 11.04052,4.27813 15.3323,0.13335l0.77436,-0.77226c4.26973,-4.27078 4.26973,-11.19434 0,-15.46512l-3.09323,-3.09533zM52.01489,39.63933l-3.09323,-3.09323c4.23929,-4.27656 4.22406,-11.17544 -0.0336,-15.43362c-4.25818,-4.25818 -11.15706,-4.27341 -15.43362,-0.0336l-0.77436,0.77226c-4.27131,4.27131 -4.27131,11.19644 0,15.46722l3.09323,3.09533l-3.09323,3.09323l-3.09323,-3.09323c-2.87169,-2.87169 -4.4855,-6.76658 -4.4855,-10.8279c0,-4.06131 1.61329,-7.95621 4.4855,-10.8279l0.77226,-0.77226c5.98015,-5.98015 15.67564,-5.98015 21.65579,0c5.98015,5.98015 5.98015,15.67564 0,21.65579z" id="icon" fill="#ffffff"/></g></svg>