<svg version="1.1" xmlns="http://www.w3.org/2000/svg" xmlns:xlink="http://www.w3.org/1999/xlink" width="70" height="70" viewBox="0,0,70,70" odoo-icon:version="1.0" xmlns:odoo-icon="https://ivantodorovich.github.io/odoo-icon" odoo-icon:size="70" odoo-icon:icon-size="0.54" odoo-icon:icon-color="#FFFFFF" odoo-icon:icon-flat-shadow-angle="135" odoo-icon:background-color="#e53935" odoo-icon:background-gradient="0.2" odoo-icon:box-radius="3.5" odoo-icon:odoo-version="14.0"><defs><linearGradient x1="70" y1="0" x2="0" y2="70" gradientUnits="userSpaceOnUse" id="color-1"><stop offset="0" stop-color="#ff6c68"/><stop offset="1" stop-color="#e53935"/></linearGradient></defs><g fill="none" fill-rule="nonzero" stroke="none" stroke-width="1" stroke-linecap="butt" stroke-linejoin="miter" stroke-miterlimit="10" stroke-dasharray="" stroke-dashoffset="0" font-family="none" font-weight="none" font-size="none" text-anchor="none" style="mix-blend-mode: normal"><path d="M3.5,70c-1.933,0 -3.5,-1.567 -3.5,-3.5v-63c0,-1.933 1.567,-3.5 3.5,-3.5h63c1.933,0 3.5,1.567 3.5,3.5v63c0,1.933 -1.567,3.5 -3.5,3.5z" id="box" fill="url(#color-1)"/><path d="M65,1h-61c-1.95033,0 -3.2667,0.63396 -3.9491,1.90189c0.28378,-1.64806 1.72001,-2.90189 3.4491,-2.90189h63c1.72965,0 3.16627,1.25466 3.44938,2.90352c-0.69803,-1.26902 -2.34782,-1.90352 -4.94938,-1.90352z" id="topBoxShadow" fill="#ffffff" opacity="0.383"/><path d="M4,69h61c2.66667,0 4.33333,-1 5,-3v0.5c0,1.933 -1.567,3.5 -3.5,3.5h-63c-1.933,0 -3.5,-1.567 -3.5,-3.5c0,-0.1611 0,-0.32777 0,-0.5c0.66667,2 2,3 4,3z" id="bottomBoxShadow" fill="#000000" opacity="0.383"/><path d="M53.37339,52.38948l-8.34471,-8.34831c5.19233,-6.76627 4.24365,-16.40018 -2.16861,-22.0239c-6.41226,-5.62372 -16.088,-5.30704 -22.11836,0.72377c-6.03081,6.03081 -6.34749,15.70655 -0.72377,22.11836c5.62372,6.41226 15.25763,7.36094 22.0239,2.16861l8.35146,8.35326c0.82498,0.82498 2.16231,0.82498 2.98729,0c0.82498,-0.82498 0.82498,-2.16231 0,-2.98729zM20.25365,34.20124c0,-6.59894 5.34932,-11.94826 11.94871,-11.94826c6.59894,0 11.94871,5.34932 11.94871,11.94826c0,6.59894 -5.34932,11.94871 -11.94826,11.94871c-6.59624,-0.00675 -11.94151,-5.35247 -11.94826,-11.94826z" id="shadow" fill="#000000" opacity="0.3"/><path d="M20.74215,20.7406c6.03039,-6.03039 15.70582,-6.34692 22.11793,-0.72333c6.41226,5.62372 7.36094,15.25763 2.16861,22.0239l8.34471,8.34831l0.0072,0.0045c0.82498,0.82498 0.82498,2.16231 0,2.98729l-16.61873,16.61873h-33.26186c-1.933,0 -3.5,-1.567 -3.5,-3.5l0,-25.01725z" id="flatShadow" fill="#000000" opacity="0.324"/><path d="M53.37339,50.38948l-8.34471,-8.34831c5.19233,-6.76627 4.24365,-16.40018 -2.16861,-22.0239c-6.41226,-5.62372 -16.088,-5.30704 -22.11836,0.72377c-6.03081,6.03081 -6.34749,15.70655 -0.72377,22.11836c5.62372,6.41226 15.25763,7.36094 22.0239,2.16861l8.35146,8.35326c0.82498,0.82498 2.16231,0.82498 2.98729,0c0.82498,-0.82498 0.82498,-2.16231 0,-2.98729zM20.25365,32.20124c0,-6.59894 5.34932,-11.94826 11.94871,-11.94826c6.59894,0 11.94871,5.34932 11.94871,11.94826c0,6.59894 -5.34932,11.94871 -11.94826,11.94871c-6.59624,-0.00675 -11.94151,-5.35247 -11.94826,-11.94826z" id="icon" fill="#ffffff"/></g></svg>