<svg version="1.1" xmlns="http://www.w3.org/2000/svg" xmlns:xlink="http://www.w3.org/1999/xlink" width="70" height="70" viewBox="0,0,70,70" odoo-icon:version="1.0" xmlns:odoo-icon="https://ivantodorovich.github.io/odoo-icon" odoo-icon:size="70" odoo-icon:icon-size="0.65" odoo-icon:icon-color="#FFFFFF" odoo-icon:icon-flat-shadow-angle="135" odoo-icon:background-color="#3949ab" odoo-icon:background-gradient="0.2" odoo-icon:box-radius="3.5" odoo-icon:odoo-version="16.0"><defs><linearGradient x1="70" y1="0" x2="0" y2="70" gradientUnits="userSpaceOnUse" id="color-1"><stop offset="0" stop-color="#6c7cde"/><stop offset="1" stop-color="#3949ab"/></linearGradient></defs><g fill="none" fill-rule="nonzero" stroke="none" stroke-width="1" stroke-linecap="butt" stroke-linejoin="miter" stroke-miterlimit="10" stroke-dasharray="" stroke-dashoffset="0" font-family="none" font-weight="none" font-size="none" text-anchor="none" style="mix-blend-mode: normal"><path d="M3.5,70c-1.933,0 -3.5,-1.567 -3.5,-3.5v-63c0,-1.933 1.567,-3.5 3.5,-3.5h63c1.933,0 3.5,1.567 3.5,3.5v63c0,1.933 -1.567,3.5 -3.5,3.5z" id="box" fill="url(#color-1)"/><path d="M65,1h-61c-1.95033,0 -3.2667,0.63396 -3.9491,1.90189c0.28378,-1.64806 1.72001,-2.90189 3.4491,-2.90189h63c1.72965,0 3.16627,1.25466 3.44938,2.90352c-0.69803,-1.26902 -2.34782,-1.90352 -4.94938,-1.90352z" id="topBoxShadow" fill="#ffffff" opacity="0.383"/><path d="M4,69h61c2.66667,0 4.33333,-1 5,-3v0.5c0,1.933 -1.567,3.5 -3.5,3.5h-63c-1.933,0 -3.5,-1.567 -3.5,-3.5c0,-0.1611 0,-0.32777 0,-0.5c0.66667,2 2,3 4,3z" id="bottomBoxShadow" fill="#000000" opacity="0.383"/><path d="M32.70093,24.26819c0.68025,-1.17966 0.27599,-2.68735 -0.90367,-3.3676c-1.17966,-0.68025 -2.68735,-0.27599 -3.3676,0.90367l-16.09941,27.92755c-0.68025,1.17966 -0.27599,2.68735 0.90367,3.3676c1.17966,0.68025 2.68735,0.27599 3.3676,-0.90367zM35.00084,50.14237c0,1.8147 -1.47089,3.28559 -3.28559,3.28559c-1.8147,0 -3.28559,-1.47089 -3.28559,-3.28559c0,-1.8147 1.47089,-3.28559 3.28559,-3.28559c1.8147,0 3.28559,1.47089 3.28559,3.28559zM43.21483,53.42797c1.8147,0 3.28559,-1.47089 3.28559,-3.28559c0,-1.8147 -1.47089,-3.28559 -3.28559,-3.28559c-1.8147,0 -3.28559,1.47089 -3.28559,3.28559c0,1.8147 1.47089,3.28559 3.28559,3.28559zM54.71441,53.42797c1.8147,0 3.28559,-1.47089 3.28559,-3.28559c0,-1.8147 -1.47089,-3.28559 -3.28559,-3.28559c-1.8147,0 -3.28559,1.47089 -3.28559,3.28559c0,1.8147 1.47089,3.28559 3.28559,3.28559z" id="shadow" fill="#000000" opacity="0.3"/><path d="M28.82266,19.29114c0.76942,-0.76942 1.98698,-0.96007 2.9746,-0.39055c1.17966,0.68025 1.58392,2.18794 0.90367,3.3676l-16.09941,27.92755c-0.11073,0.19203 -0.2434,0.36351 -0.393,0.51312l-16.18645,16.18645c-0.01459,-0.12975 -0.02208,-0.26165 -0.02208,-0.3953l0,-18.3862zM34.03856,50.46568l-19.53432,19.53432h-9.29324l24.18093,-24.18093l0,0c0,0 0,0 0,0c0.59456,-0.59456 1.41596,-0.96228 2.32331,-0.96228c1.8147,0 3.28559,1.47089 3.28559,3.28559c0,0.90735 -0.36772,1.72875 -0.96228,2.32331zM40.89152,45.81907c0.59456,-0.59456 1.41596,-0.96228 2.32331,-0.96228c1.8147,0 3.28559,1.47089 3.28559,3.28559l-21.85763,21.85763h-7.93221zM52.3911,45.81907c0.59456,-0.59456 1.41596,-0.96228 2.32331,-0.96228c1.8147,0 3.28559,1.47089 3.28559,3.28559l-21.85763,21.85763h-7.93221z" id="flatShadow" fill="#000000" opacity="0.324"/><path d="M32.70093,22.26819c0.68025,-1.17966 0.27599,-2.68735 -0.90367,-3.3676c-1.17966,-0.68025 -2.68735,-0.27599 -3.3676,0.90367l-16.09941,27.92755c-0.68025,1.17966 -0.27599,2.68735 0.90367,3.3676c1.17966,0.68025 2.68735,0.27599 3.3676,-0.90367zM35.00084,48.14237c0,1.8147 -1.47089,3.28559 -3.28559,3.28559c-1.8147,0 -3.28559,-1.47089 -3.28559,-3.28559c0,-1.8147 1.47089,-3.28559 3.28559,-3.28559c1.8147,0 3.28559,1.47089 3.28559,3.28559zM43.21483,51.42797c1.8147,0 3.28559,-1.47089 3.28559,-3.28559c0,-1.8147 -1.47089,-3.28559 -3.28559,-3.28559c-1.8147,0 -3.28559,1.47089 -3.28559,3.28559c0,1.8147 1.47089,3.28559 3.28559,3.28559zM54.71441,51.42797c1.8147,0 3.28559,-1.47089 3.28559,-3.28559c0,-1.8147 -1.47089,-3.28559 -3.28559,-3.28559c-1.8147,0 -3.28559,1.47089 -3.28559,3.28559c0,1.8147 1.47089,3.28559 3.28559,3.28559z" id="icon" fill="#ffffff"/></g></svg>