<svg version="1.1" xmlns="http://www.w3.org/2000/svg" xmlns:xlink="http://www.w3.org/1999/xlink" width="70" height="70" viewBox="0,0,70,70" odoo-icon:version="1.0" xmlns:odoo-icon="https://ivantodorovich.github.io/odoo-icon" odoo-icon:size="70" odoo-icon:icon-size="0.55" odoo-icon:icon-color="#FFFFFF" odoo-icon:icon-flat-shadow-angle="135" odoo-icon:background-color="#cb6482" odoo-icon:background-gradient="0.2" odoo-icon:box-radius="3.5" odoo-icon:odoo-version="14.0"><defs><linearGradient x1="70" y1="0" x2="0" y2="70" gradientUnits="userSpaceOnUse" id="color-1"><stop offset="0" stop-color="#fe97b5"/><stop offset="1" stop-color="#cb6482"/></linearGradient></defs><g fill="none" fill-rule="nonzero" stroke="none" stroke-width="1" stroke-linecap="butt" stroke-linejoin="miter" stroke-miterlimit="10" stroke-dasharray="" stroke-dashoffset="0" font-family="none" font-weight="none" font-size="none" text-anchor="none" style="mix-blend-mode: normal"><path d="M3.5,70c-1.933,0 -3.5,-1.567 -3.5,-3.5v-63c0,-1.933 1.567,-3.5 3.5,-3.5h63c1.933,0 3.5,1.567 3.5,3.5v63c0,1.933 -1.567,3.5 -3.5,3.5z" id="box" fill="url(#color-1)"/><path d="M65,1h-61c-1.95033,0 -3.2667,0.63396 -3.9491,1.90189c0.28378,-1.64806 1.72001,-2.90189 3.4491,-2.90189h63c1.72965,0 3.16627,1.25466 3.44938,2.90352c-0.69803,-1.26902 -2.34782,-1.90352 -4.94938,-1.90352z" id="topBoxShadow" fill="#ffffff" opacity="0.383"/><path d="M4,69h61c2.66667,0 4.33333,-1 5,-3v0.5c0,1.933 -1.567,3.5 -3.5,3.5h-63c-1.933,0 -3.5,-1.567 -3.5,-3.5c0,-0.1611 0,-0.32777 0,-0.5c0.66667,2 2,3 4,3z" id="bottomBoxShadow" fill="#000000" opacity="0.383"/><path d="M35,17.5c-10.752,0 -19.5,8.748 -19.5,19.5c0,10.752 8.748,19.5 19.5,19.5c10.752,0 19.5,-8.748 19.5,-19.5c0,-10.752 -8.748,-19.5 -19.5,-19.5zM35,20.5c9.13056,0 16.5,7.36944 16.5,16.5c0,9.13056 -7.36944,16.5 -16.5,16.5c-9.13056,0 -16.5,-7.36944 -16.5,-16.5c0,-9.13056 7.36944,-16.5 16.5,-16.5zM27.5,25c-0.82848,0 -1.5,0.67152 -1.5,1.5c0,0.82848 0.67152,1.5 1.5,1.5c0.82848,0 1.5,-0.67152 1.5,-1.5c0,-0.82848 -0.67152,-1.5 -1.5,-1.5zM26,29.5v16.5h3v-16.5zM32,29.5v16.5h6.75024c4.53888,0 8.25024,-3.71088 8.25024,-8.24976c0,-4.53888 -3.71088,-8.24976 -8.24976,-8.24976zM35,32.5h3.75024c2.916,0 5.25024,2.33424 5.25024,5.25024c0,2.916 -2.33424,5.25024 -5.24976,5.25024h-3.74976z" id="shadow" fill="#000000" opacity="0.3"/><path d="M21.218,21.218c3.531,-3.531 8.406,-5.718 13.782,-5.718c10.752,0 19.5,8.748 19.5,19.5l-3.33552,3.33552c-0.65866,3.22394 -2.25393,6.10185 -4.49052,8.33844l-23.32604,23.32604h-19.84792c-1.933,0 -3.5,-1.567 -3.5,-3.5l0,-24.064z" id="flatShadow" fill="#000000" opacity="0.324"/><path d="M35,15.5c-10.752,0 -19.5,8.748 -19.5,19.5c0,10.752 8.748,19.5 19.5,19.5c10.752,0 19.5,-8.748 19.5,-19.5c0,-10.752 -8.748,-19.5 -19.5,-19.5zM35,18.5c9.13056,0 16.5,7.36944 16.5,16.5c0,9.13056 -7.36944,16.5 -16.5,16.5c-9.13056,0 -16.5,-7.36944 -16.5,-16.5c0,-9.13056 7.36944,-16.5 16.5,-16.5zM27.5,23c-0.82848,0 -1.5,0.67152 -1.5,1.5c0,0.82848 0.67152,1.5 1.5,1.5c0.82848,0 1.5,-0.67152 1.5,-1.5c0,-0.82848 -0.67152,-1.5 -1.5,-1.5zM26,27.5v16.5h3v-16.5zM32,27.5v16.5h6.75024c4.53888,0 8.25024,-3.71088 8.25024,-8.24976c0,-4.53888 -3.71088,-8.24976 -8.24976,-8.24976zM35,30.5h3.75024c2.916,0 5.25024,2.33424 5.25024,5.25024c0,2.916 -2.33424,5.25024 -5.24976,5.25024h-3.74976z" id="icon" fill="#ffffff"/></g></svg>