<svg version="1.1" xmlns="http://www.w3.org/2000/svg" xmlns:xlink="http://www.w3.org/1999/xlink" width="70" height="70" viewBox="0,0,70,70" odoo-icon:version="1.0" xmlns:odoo-icon="https://ivantodorovich.github.io/odoo-icon" odoo-icon:size="70" odoo-icon:icon-size="0.54" odoo-icon:icon-color="#FFFFFF" odoo-icon:icon-flat-shadow-angle="135" odoo-icon:background-color="#e53935" odoo-icon:background-gradient="0.2" odoo-icon:box-radius="3.5" odoo-icon:odoo-version="14.0"><defs><linearGradient x1="70" y1="0" x2="0" y2="70" gradientUnits="userSpaceOnUse" id="color-1"><stop offset="0" stop-color="#ff6c68"/><stop offset="1" stop-color="#e53935"/></linearGradient></defs><g fill="none" fill-rule="nonzero" stroke="none" stroke-width="1" stroke-linecap="butt" stroke-linejoin="miter" stroke-miterlimit="10" stroke-dasharray="" stroke-dashoffset="0" font-family="none" font-weight="none" font-size="none" text-anchor="none" style="mix-blend-mode: normal"><path d="M3.5,70c-1.933,0 -3.5,-1.567 -3.5,-3.5v-63c0,-1.933 1.567,-3.5 3.5,-3.5h63c1.933,0 3.5,1.567 3.5,3.5v63c0,1.933 -1.567,3.5 -3.5,3.5z" id="box" fill="url(#color-1)"/><path d="M65,1h-61c-1.95033,0 -3.2667,0.63396 -3.9491,1.90189c0.28378,-1.64806 1.72001,-2.90189 3.4491,-2.90189h63c1.72965,0 3.16627,1.25466 3.44938,2.90352c-0.69803,-1.26902 -2.34782,-1.90352 -4.94938,-1.90352z" id="topBoxShadow" fill="#ffffff" opacity="0.383"/><path d="M4,69h61c2.66667,0 4.33333,-1 5,-3v0.5c0,1.933 -1.567,3.5 -3.5,3.5h-63c-1.933,0 -3.5,-1.567 -3.5,-3.5c0,-0.1611 0,-0.32777 0,-0.5c0.66667,2 2,3 4,3z" id="bottomBoxShadow" fill="#000000" opacity="0.383"/><path d="M48.57158,56h-27.14317c-1.49917,0 -2.71432,-1.21515 -2.71432,-2.71432v-16.2859c0,-1.49917 1.21515,-2.71432 2.71432,-2.71432h4.07148v2.71432h-4.07148v16.2859h27.14317v-16.2859h-4.07148v-2.71432h4.07148c1.49917,0 2.71432,1.21515 2.71432,2.71432v16.2859c0,1.49917 -1.21515,2.71432 -2.71432,2.71432zM30.92852,42.42842h8.14295v2.71432h-8.14295zM43.14295,28.85683l-8.14295,8.14295l-8.14295,-8.14295l1.91348,-1.91348l4.87231,4.85884v-13.80219h2.71432v13.80219l4.87231,-4.85841z" id="shadow" fill="#000000" opacity="0.3"/><path d="M33.64284,16h2.71432v13.80219l4.87231,-4.85841l1.91348,1.91305l-21.71453,21.71453l0,1.35716l9.50011,-9.50011h5.42863l8.14295,-8.14295h4.07148c1.49917,0 2.71432,1.21515 2.71432,2.71432v16.2859c0,0.74959 -0.30379,1.42816 -0.79497,1.91935l-16.79497,16.79497h-30.19596c-1.933,0 -3.5,-1.567 -3.5,-3.5l0,-16.85716z" id="flatShadow" fill="#000000" opacity="0.324"/><path d="M48.57158,54h-27.14317c-1.49917,0 -2.71432,-1.21515 -2.71432,-2.71432v-16.2859c0,-1.49917 1.21515,-2.71432 2.71432,-2.71432h4.07148v2.71432h-4.07148v16.2859h27.14317v-16.2859h-4.07148v-2.71432h4.07148c1.49917,0 2.71432,1.21515 2.71432,2.71432v16.2859c0,1.49917 -1.21515,2.71432 -2.71432,2.71432zM30.92852,40.42842h8.14295v2.71432h-8.14295zM43.14295,26.85683l-8.14295,8.14295l-8.14295,-8.14295l1.91348,-1.91348l4.87231,4.85884v-13.80219h2.71432v13.80219l4.87231,-4.85841z" id="icon" fill="#ffffff"/></g></svg>