<svg version="1.1" xmlns="http://www.w3.org/2000/svg" xmlns:xlink="http://www.w3.org/1999/xlink" width="70" height="70" viewBox="0,0,70,70" odoo-icon:version="1.0" xmlns:odoo-icon="https://ivantodorovich.github.io/odoo-icon" odoo-icon:size="70" odoo-icon:icon-size="0.58" odoo-icon:icon-color="#FFFFFF" odoo-icon:icon-flat-shadow-angle="135" odoo-icon:background-color="#e53935" odoo-icon:background-gradient="0.2" odoo-icon:box-radius="3.5" odoo-icon:odoo-version="14.0"><defs><linearGradient x1="70" y1="0" x2="0" y2="70" gradientUnits="userSpaceOnUse" id="color-1"><stop offset="0" stop-color="#ff6c68"/><stop offset="1" stop-color="#e53935"/></linearGradient></defs><g fill="none" fill-rule="nonzero" stroke="none" stroke-width="1" stroke-linecap="butt" stroke-linejoin="miter" stroke-miterlimit="10" stroke-dasharray="" stroke-dashoffset="0" font-family="none" font-weight="none" font-size="none" text-anchor="none" style="mix-blend-mode: normal"><path d="M3.5,70c-1.933,0 -3.5,-1.567 -3.5,-3.5v-63c0,-1.933 1.567,-3.5 3.5,-3.5h63c1.933,0 3.5,1.567 3.5,3.5v63c0,1.933 -1.567,3.5 -3.5,3.5z" id="box" fill="url(#color-1)"/><path d="M65,1h-61c-1.95033,0 -3.2667,0.63396 -3.9491,1.90189c0.28378,-1.64806 1.72001,-2.90189 3.4491,-2.90189h63c1.72965,0 3.16627,1.25466 3.44938,2.90352c-0.69803,-1.26902 -2.34782,-1.90352 -4.94938,-1.90352z" id="topBoxShadow" fill="#ffffff" opacity="0.383"/><path d="M4,69h61c2.66667,0 4.33333,-1 5,-3v0.5c0,1.933 -1.567,3.5 -3.5,3.5h-63c-1.933,0 -3.5,-1.567 -3.5,-3.5c0,-0.1611 0,-0.32777 0,-0.5c0.66667,2 2,3 4,3z" id="bottomBoxShadow" fill="#000000" opacity="0.383"/><path d="M14.50049,35.97547c0,-0.56628 0.45903,-1.02482 1.02482,-1.02482h10.24963c0.56628,0 1.02482,0.45903 1.02482,1.02482v11.27494c0,3.3967 -2.75318,6.14988 -6.14988,6.14988c-3.3967,0 -6.14988,-2.75318 -6.14988,-6.14988zM16.55061,31.87571h8.2v-9.22482c0.00049,-0.71043 -0.36752,-1.37068 -0.97168,-1.7446c-0.60416,-0.37391 -1.35888,-0.40786 -1.99453,-0.09053l-4.09975,2.05012c-0.69518,0.34735 -1.13404,1.05778 -1.13355,1.83463zM32.95012,31.87571c0,-6.22712 5.04782,-11.27494 11.27494,-11.27494c6.22712,0 11.27494,5.04782 11.27494,11.27494c0,6.22712 -5.04782,11.27494 -11.27494,11.27494c-6.22712,0 -11.27494,-5.04782 -11.27494,-11.27494zM42.68759,46.65608c1.02186,0.10873 2.05307,0.10873 3.07494,0v3.66926h4.61241c0.84918,0 1.53747,0.68829 1.53747,1.53747c0,0.84918 -0.68829,1.53747 -1.53747,1.53747h-12.29975c-0.84918,0 -1.53747,-0.68829 -1.53747,-1.53747c0,-0.84918 0.68829,-1.53747 1.53747,-1.53747h4.61241z" id="shadow" fill="#000000" opacity="0.3"/><path d="M17.15152,21.24992c0.15346,-0.15346 0.33264,-0.28384 0.53314,-0.38402l4.09975,-2.05012c0.63565,-0.31733 1.39036,-0.28339 1.99453,0.09053c0.60416,0.37391 0.97217,1.03416 0.97168,1.7446v9.22482l-3.07494,3.07494l3.52917,0l11.04758,-11.04758c2.04034,-2.04034 4.85908,-3.3023 7.97264,-3.3023c6.22712,0 11.27494,5.04782 11.27494,11.27494c0,3.11356 -1.26195,5.93229 -3.3023,7.97264l-6.84551,6.84551c0.13692,-0.01065 0.27371,-0.02324 0.41034,-0.03778v3.66926h4.61241c0.84918,0 1.53747,0.68829 1.53747,1.53747c0,0.42459 -0.17207,0.80895 -0.45029,1.08718l-19.05001,19.05001h-28.9121c-1.933,0 -3.5,-1.567 -3.5,-3.5l0,-28.09857z" id="flatShadow" fill="#000000" opacity="0.324"/><path d="M14.50049,33.97547c0,-0.56628 0.45903,-1.02482 1.02482,-1.02482h10.24963c0.56628,0 1.02482,0.45903 1.02482,1.02482v11.27494c0,3.3967 -2.75318,6.14988 -6.14988,6.14988c-3.3967,0 -6.14988,-2.75318 -6.14988,-6.14988zM16.55061,29.87571h8.2v-9.22482c0.00049,-0.71043 -0.36752,-1.37068 -0.97168,-1.7446c-0.60416,-0.37391 -1.35888,-0.40786 -1.99453,-0.09053l-4.09975,2.05012c-0.69518,0.34735 -1.13404,1.05778 -1.13355,1.83463zM32.95012,29.87571c0,-6.22712 5.04782,-11.27494 11.27494,-11.27494c6.22712,0 11.27494,5.04782 11.27494,11.27494c0,6.22712 -5.04782,11.27494 -11.27494,11.27494c-6.22712,0 -11.27494,-5.04782 -11.27494,-11.27494zM42.68759,44.65608c1.02186,0.10873 2.05307,0.10873 3.07494,0v3.66926h4.61241c0.84918,0 1.53747,0.68829 1.53747,1.53747c0,0.84918 -0.68829,1.53747 -1.53747,1.53747h-12.29975c-0.84918,0 -1.53747,-0.68829 -1.53747,-1.53747c0,-0.84918 0.68829,-1.53747 1.53747,-1.53747h4.61241z" id="icon" fill="#ffffff"/></g></svg>