<svg version="1.1" xmlns="http://www.w3.org/2000/svg" xmlns:xlink="http://www.w3.org/1999/xlink" width="70" height="70" viewBox="0,0,70,70"><!-- Generated with https://ivantodorovich.github.io/odoo-icon --><defs><linearGradient x1="70" y1="0" x2="0" y2="70" gradientUnits="userSpaceOnUse" id="color-1"><stop offset="0" stop-color="#51bbff"/><stop offset="1" stop-color="#1e88e5"/></linearGradient></defs><g fill="none" fill-rule="nonzero" stroke="none" stroke-width="1" stroke-linecap="butt" stroke-linejoin="miter" stroke-miterlimit="10" stroke-dasharray="" stroke-dashoffset="0" font-family="none" font-weight="none" font-size="none" text-anchor="none" style="mix-blend-mode: normal"><path d="M3.5,70c-1.933,0 -3.5,-1.567 -3.5,-3.5v-63c0,-1.933 1.567,-3.5 3.5,-3.5h63c1.933,0 3.5,1.567 3.5,3.5v63c0,1.933 -1.567,3.5 -3.5,3.5z" id="box" fill="url(#color-1)"/><path d="M65,1h-61c-1.95033,0 -3.2667,0.63396 -3.9491,1.90189c0.28378,-1.64806 1.72001,-2.90189 3.4491,-2.90189h63c1.72965,0 3.16627,1.25466 3.44938,2.90352c-0.69803,-1.26902 -2.34782,-1.90352 -4.94938,-1.90352z" id="topBoxShadow" fill="#ffffff" opacity="0.383"/><path d="M4,69h61c2.66667,0 4.33333,-1 5,-3v0.5c0,1.933 -1.567,3.5 -3.5,3.5h-63c-1.933,0 -3.5,-1.567 -3.5,-3.5c0,-0.1611 0,-0.32777 0,-0.5c0.66667,2 2,3 4,3z" id="bottomBoxShadow" fill="#000000" opacity="0.383"/><path d="M47.8116,33.59088v4.38136c0,2.33192 -7.53322,9.2756 -12.8116,9.2756c-5.27838,0 -12.8116,-6.94409 -12.8116,-9.2756v-4.38136l12.8116,8.53273zM54.12762,50.5432c0.86791,1.09995 1.34881,2.45532 1.36848,3.85619v3.10061h-2.56232v-5.12464l-0.84823,3.42326c-0.25336,1.00033 -1.15366,1.70138 -2.18556,1.70138h-2.08839v-3.13136c0.01927,-1.3939 0.49648,-2.7423 1.35782,-3.83815l0.96876,-1.28649c-0.64857,-0.51861 -1.00566,-1.31888 -0.95892,-2.14784c0.04674,-0.82896 0.49197,-1.58413 1.19466,-2.02608v-13.19616l2.56232,-1.71655l0.01025,14.91763c0.71089,0.44236 1.16104,1.2045 1.20491,2.04125c0.04387,0.83634 -0.32388,1.64153 -0.98434,2.15604zM55.49857,26.74928l-20.49857,12.8116l-20.49857,-12.8116l20.49857,-10.24928z" id="shadow" fill="#000000" opacity="0.3"/><path d="M14.50143,24.74928l20.49857,-10.24928l20.49857,10.24928l-5.12464,5.12464l2.56232,-1.71655l0.01025,14.91763c0.71089,0.44236 1.16104,1.2045 1.20491,2.04125c0.03829,0.7301 -0.23709,1.43645 -0.74705,1.94642l-0.22538,0.22538l0.94865,1.25515c0.86791,1.09995 1.34881,2.45532 1.36848,3.85619v3.10061l-14.5,14.5h-37.49611c-1.933,0 -3.5,-1.567 -3.5,-3.5l0,-27.24928z" id="flatShadow" fill="#000000" opacity="0.324"/><path d="M47.8116,31.59088v4.38136c0,2.33192 -7.53322,9.2756 -12.8116,9.2756c-5.27838,0 -12.8116,-6.94409 -12.8116,-9.2756v-4.38136l12.8116,8.53273zM54.12762,48.5432c0.86791,1.09995 1.34881,2.45532 1.36848,3.85619v3.10061h-2.56232v-5.12464l-0.84823,3.42326c-0.25336,1.00033 -1.15366,1.70138 -2.18556,1.70138h-2.08839v-3.13136c0.01927,-1.3939 0.49648,-2.7423 1.35782,-3.83815l0.96876,-1.28649c-0.64857,-0.51861 -1.00566,-1.31888 -0.95892,-2.14784c0.04674,-0.82896 0.49197,-1.58413 1.19466,-2.02608v-13.19616l2.56232,-1.71655l0.01025,14.91763c0.71089,0.44236 1.16104,1.2045 1.20491,2.04125c0.04387,0.83634 -0.32388,1.64153 -0.98434,2.15604zM55.49857,24.74928l-20.49857,12.8116l-20.49857,-12.8116l20.49857,-10.24928z" id="icon" fill="#ffffff"/></g></svg>