<svg version="1.1" xmlns="http://www.w3.org/2000/svg" xmlns:xlink="http://www.w3.org/1999/xlink" width="70" height="70" viewBox="0,0,70,70" odoo-icon:version="1.0" xmlns:odoo-icon="https://ivantodorovich.github.io/odoo-icon" odoo-icon:size="70" odoo-icon:icon-size="0.6" odoo-icon:icon-color="#FFFFFF" odoo-icon:icon-flat-shadow-angle="135" odoo-icon:background-color="#334984" odoo-icon:background-gradient="0.2" odoo-icon:box-radius="3.5" odoo-icon:odoo-version="14.0"><defs><linearGradient x1="70" y1="0" x2="0" y2="70" gradientUnits="userSpaceOnUse" id="color-1"><stop offset="0" stop-color="#667cb7"/><stop offset="1" stop-color="#334984"/></linearGradient></defs><g fill="none" fill-rule="nonzero" stroke="none" stroke-width="1" stroke-linecap="butt" stroke-linejoin="miter" stroke-miterlimit="10" stroke-dasharray="" stroke-dashoffset="0" font-family="none" font-weight="none" font-size="none" text-anchor="none" style="mix-blend-mode: normal"><path d="M3.5,70c-1.933,0 -3.5,-1.567 -3.5,-3.5v-63c0,-1.933 1.567,-3.5 3.5,-3.5h63c1.933,0 3.5,1.567 3.5,3.5v63c0,1.933 -1.567,3.5 -3.5,3.5z" id="box" fill="url(#color-1)"/><path d="M65,1h-61c-1.95033,0 -3.2667,0.63396 -3.9491,1.90189c0.28378,-1.64806 1.72001,-2.90189 3.4491,-2.90189h63c1.72965,0 3.16627,1.25466 3.44938,2.90352c-0.69803,-1.26902 -2.34782,-1.90352 -4.94938,-1.90352z" id="topBoxShadow" fill="#ffffff" opacity="0.383"/><path d="M4,69h61c2.66667,0 4.33333,-1 5,-3v0.5c0,1.933 -1.567,3.5 -3.5,3.5h-63c-1.933,0 -3.5,-1.567 -3.5,-3.5c0,-0.1611 0,-0.32777 0,-0.5c0.66667,2 2,3 4,3z" id="bottomBoxShadow" fill="#000000" opacity="0.383"/><path d="M55.99899,40.14947c0,3.6958 -2.73015,6.76211 -6.29995,7.26611v6.38412c0,2.31939 -1.88041,4.1998 -4.1998,4.1998h-7.97977v-0.62999c0,-3.13133 -2.53863,-5.66995 -5.66995,-5.66995c-3.14997,0 -5.66995,2.54115 -5.66995,5.66995v0.62999h-7.97977c-2.31939,0 -4.1998,-1.88041 -4.1998,-4.1998v-7.97977h0.62999c3.12881,0 5.66995,-2.51998 5.66995,-5.66995c0,-3.14997 -2.54115,-5.66995 -5.66995,-5.66995h-0.62999v-7.97977c0,-2.31939 1.88041,-4.1998 4.1998,-4.1998h6.38412c0.504,-3.5698 3.5698,-6.29995 7.26611,-6.29995c3.6958,0 6.76211,2.73015 7.26611,6.29995h6.38412c2.31939,0 4.1998,1.88041 4.1998,4.1998v6.38412c3.5698,0.504 6.29995,3.5698 6.29995,7.26611M45.49874,43.29945h3.14997c1.73979,0 3.14997,-1.41018 3.14997,-3.14997c0,-1.73979 -1.41018,-3.14997 -3.14997,-3.14997h-3.14997v-10.49975h-10.49975v-3.14997c0,-1.73979 -1.41018,-3.14997 -3.14997,-3.14997c-1.73979,0 -3.14997,1.41018 -3.14997,3.14997v3.14997h-10.49975v4.4518c3.6958,1.42782 6.29995,4.99813 6.29995,9.19793c0,4.1998 -2.62481,7.77011 -6.29995,9.19793v4.4518h4.4518c1.47268,-3.7961 5.12614,-6.29844 9.19793,-6.29995c4.1998,0 7.77011,2.62481 9.19793,6.29995h4.4518z" id="shadow" fill="#000000" opacity="0.3"/><path d="M53.84949,43.34117l-4.15044,4.15044v4.30808c0,1.15969 -0.4701,2.20964 -1.23013,2.96967l-15.23063,15.23063h-29.73828c-1.933,0 -3.5,-1.567 -3.5,-3.5l0,-29.73929l15.23013,-15.23013c0.76003,-0.76003 1.80998,-1.23013 2.96967,-1.23013l4.30791,0l4.1506,-4.1506c1.32913,-1.32913 3.16571,-2.14935 5.19171,-2.14935c3.6958,0 6.76211,2.73015 7.26611,6.29995h6.38412c2.31939,0 4.1998,1.88041 4.1998,4.1998v6.38412c3.5698,0.504 6.29995,3.5698 6.29995,7.26611l-0.00101,0.00101c-0.00054,2.02501 -0.82072,3.8609 -2.14951,5.18969z" id="flatShadow" fill="#000000" opacity="0.324"/><path d="M55.99899,38.14947c0,3.6958 -2.73015,6.76211 -6.29995,7.26611v6.38412c0,2.31939 -1.88041,4.1998 -4.1998,4.1998h-7.97977v-0.62999c0,-3.13133 -2.53863,-5.66995 -5.66995,-5.66995c-3.14997,0 -5.66995,2.54115 -5.66995,5.66995v0.62999h-7.97977c-2.31939,0 -4.1998,-1.88041 -4.1998,-4.1998v-7.97977h0.62999c3.12881,0 5.66995,-2.51998 5.66995,-5.66995c0,-3.14997 -2.54115,-5.66995 -5.66995,-5.66995h-0.62999v-7.97977c0,-2.31939 1.88041,-4.1998 4.1998,-4.1998h6.38412c0.504,-3.5698 3.5698,-6.29995 7.26611,-6.29995c3.6958,0 6.76211,2.73015 7.26611,6.29995h6.38412c2.31939,0 4.1998,1.88041 4.1998,4.1998v6.38412c3.5698,0.504 6.29995,3.5698 6.29995,7.26611M45.49874,41.29945h3.14997c1.73979,0 3.14997,-1.41018 3.14997,-3.14997c0,-1.73979 -1.41018,-3.14997 -3.14997,-3.14997h-3.14997v-10.49975h-10.49975v-3.14997c0,-1.73979 -1.41018,-3.14997 -3.14997,-3.14997c-1.73979,0 -3.14997,1.41018 -3.14997,3.14997v3.14997h-10.49975v4.4518c3.6958,1.42782 6.29995,4.99813 6.29995,9.19793c0,4.1998 -2.62481,7.77011 -6.29995,9.19793v4.4518h4.4518c1.47268,-3.7961 5.12614,-6.29844 9.19793,-6.29995c4.1998,0 7.77011,2.62481 9.19793,6.29995h4.4518z" id="icon" fill="#ffffff"/></g></svg>