<svg version="1.1" xmlns="http://www.w3.org/2000/svg" xmlns:xlink="http://www.w3.org/1999/xlink" width="70" height="70" viewBox="0,0,70,70" odoo-icon:version="1.0" xmlns:odoo-icon="https://ivantodorovich.github.io/odoo-icon" odoo-icon:size="70" odoo-icon:icon-size="0.54" odoo-icon:icon-color="#FFFFFF" odoo-icon:icon-flat-shadow-angle="135" odoo-icon:background-color="#e53935" odoo-icon:background-gradient="0.2" odoo-icon:box-radius="3.5" odoo-icon:odoo-version="14.0"><defs><linearGradient x1="70" y1="0" x2="0" y2="70" gradientUnits="userSpaceOnUse" id="color-1"><stop offset="0" stop-color="#ff6c68"/><stop offset="1" stop-color="#e53935"/></linearGradient></defs><g fill="none" fill-rule="nonzero" stroke="none" stroke-width="1" stroke-linecap="butt" stroke-linejoin="miter" stroke-miterlimit="10" stroke-dasharray="" stroke-dashoffset="0" font-family="none" font-weight="none" font-size="none" text-anchor="none" style="mix-blend-mode: normal"><path d="M3.5,70c-1.933,0 -3.5,-1.567 -3.5,-3.5v-63c0,-1.933 1.567,-3.5 3.5,-3.5h63c1.933,0 3.5,1.567 3.5,3.5v63c0,1.933 -1.567,3.5 -3.5,3.5z" id="box" fill="url(#color-1)"/><path d="M65,1h-61c-1.95033,0 -3.2667,0.63396 -3.9491,1.90189c0.28378,-1.64806 1.72001,-2.90189 3.4491,-2.90189h63c1.72965,0 3.16627,1.25466 3.44938,2.90352c-0.69803,-1.26902 -2.34782,-1.90352 -4.94938,-1.90352z" id="topBoxShadow" fill="#ffffff" opacity="0.383"/><path d="M4,69h61c2.66667,0 4.33333,-1 5,-3v0.5c0,1.933 -1.567,3.5 -3.5,3.5h-63c-1.933,0 -3.5,-1.567 -3.5,-3.5c0,-0.1611 0,-0.32777 0,-0.5c0.66667,2 2,3 4,3z" id="bottomBoxShadow" fill="#000000" opacity="0.383"/><path d="M46.39991,27.5c-2.08983,0 -3.79982,1.70999 -3.79982,3.79982v11.39991c0,2.08983 1.70999,3.79982 3.79982,3.79982h3.79982c2.08983,0 3.79982,-1.70999 3.79982,-3.79982v-7.60009h-3.79982v7.60009h-3.79982v-11.39991h7.60009v-3.79982h-7.60009M16,27.5v19h11.39991v-3.79982h-7.60009v-15.19973h-3.79982M33.09986,27.5c-2.08983,0 -3.79982,1.70999 -3.79982,3.79982v11.39991c0,2.08983 1.70999,3.79982 3.79982,3.79982h3.79982c2.08983,0 3.79982,-1.70999 3.79982,-3.79982v-11.39991c0,-2.08983 -1.70999,-3.79982 -3.79982,-3.79982h-3.79982M33.09986,31.29982h3.79982v11.39991h-3.79982z" id="shadow" fill="#000000" opacity="0.3"/><path d="M54,29.29982l-3.79982,3.79982l3.79936,0v7.60009c0,1.04492 -0.4275,1.99487 -1.11622,2.6836l-26.61668,26.61668h-22.76664c-1.933,0 -3.5,-1.567 -3.5,-3.5l0,-25l16,-16v0.00046h3.79982l0,11.73222l10.61645,-10.61645c0.68873,-0.68873 1.63868,-1.11622 2.6836,-1.11622h3.79982c2.08983,0 3.79982,1.70999 3.79982,3.79982v0.33322l3.01681,-3.01681c0.68873,-0.68873 1.63868,-1.11622 2.6836,-1.11622h7.60009z" id="flatShadow" fill="#000000" opacity="0.324"/><path d="M46.39991,25.5c-2.08983,0 -3.79982,1.70999 -3.79982,3.79982v11.39991c0,2.08983 1.70999,3.79982 3.79982,3.79982h3.79982c2.08983,0 3.79982,-1.70999 3.79982,-3.79982v-7.60009h-3.79982v7.60009h-3.79982v-11.39991h7.60009v-3.79982h-7.60009M16,25.5v19h11.39991v-3.79982h-7.60009v-15.19973h-3.79982M33.09986,25.5c-2.08983,0 -3.79982,1.70999 -3.79982,3.79982v11.39991c0,2.08983 1.70999,3.79982 3.79982,3.79982h3.79982c2.08983,0 3.79982,-1.70999 3.79982,-3.79982v-11.39991c0,-2.08983 -1.70999,-3.79982 -3.79982,-3.79982h-3.79982M33.09986,29.29982h3.79982v11.39991h-3.79982z" id="icon" fill="#ffffff"/></g></svg>