<svg version="1.1" xmlns="http://www.w3.org/2000/svg" xmlns:xlink="http://www.w3.org/1999/xlink" width="70" height="70" viewBox="0,0,70,70" odoo-icon:version="1.0" xmlns:odoo-icon="https://ivantodorovich.github.io/odoo-icon" odoo-icon:size="70" odoo-icon:icon-size="0.54" odoo-icon:icon-color="#FFFFFF" odoo-icon:icon-flat-shadow-angle="135" odoo-icon:background-color="#e53935" odoo-icon:background-gradient="0.2" odoo-icon:box-radius="3.5" odoo-icon:odoo-version="14.0"><defs><linearGradient x1="70" y1="0" x2="0" y2="70" gradientUnits="userSpaceOnUse" id="color-1"><stop offset="0" stop-color="#ff6c68"/><stop offset="1" stop-color="#e53935"/></linearGradient></defs><g fill="none" fill-rule="nonzero" stroke="none" stroke-width="1" stroke-linecap="butt" stroke-linejoin="miter" stroke-miterlimit="10" stroke-dasharray="" stroke-dashoffset="0" font-family="none" font-weight="none" font-size="none" text-anchor="none" style="mix-blend-mode: normal"><path d="M3.5,70c-1.933,0 -3.5,-1.567 -3.5,-3.5v-63c0,-1.933 1.567,-3.5 3.5,-3.5h63c1.933,0 3.5,1.567 3.5,3.5v63c0,1.933 -1.567,3.5 -3.5,3.5z" id="box" fill="url(#color-1)"/><path d="M65,1h-61c-1.95033,0 -3.2667,0.63396 -3.9491,1.90189c0.28378,-1.64806 1.72001,-2.90189 3.4491,-2.90189h63c1.72965,0 3.16627,1.25466 3.44938,2.90352c-0.69803,-1.26902 -2.34782,-1.90352 -4.94938,-1.90352z" id="topBoxShadow" fill="#ffffff" opacity="0.383"/><path d="M4,69h61c2.66667,0 4.33333,-1 5,-3v0.5c0,1.933 -1.567,3.5 -3.5,3.5h-63c-1.933,0 -3.5,-1.567 -3.5,-3.5c0,-0.1611 0,-0.32777 0,-0.5c0.66667,2 2,3 4,3z" id="bottomBoxShadow" fill="#000000" opacity="0.383"/><path d="M35.00051,55.99899c-4.85532,0 -9.08695,-1.61017 -12.69386,-4.82999c-3.60691,-3.22033 -5.67408,-7.23966 -6.2005,-12.05851h4.32789c0.49247,3.6591 2.12037,6.68487 4.88319,9.07783c2.76282,2.39245 5.99075,3.58867 9.68379,3.58867c4.11661,0 7.60902,-1.43435 10.47722,-4.30256c2.8682,-2.8682 4.30154,-6.3601 4.30002,-10.47519c0,-4.11661 -1.43435,-7.60902 -4.30256,-10.47722c-2.8682,-2.8682 -6.3601,-4.30154 -10.47519,-4.30002c-2.42791,0 -4.69724,0.5629 -6.8085,1.6887c-2.11125,1.1258 -3.88811,2.67415 -5.33057,4.64455h5.80531v4.222h-12.6665v-12.6665h4.222v4.96121c1.79459,-2.2516 3.98488,-3.99349 6.57189,-5.22468c2.58701,-1.23169 5.32196,-1.84728 8.20586,-1.84728c2.63868,0 5.11068,0.50159 7.41598,1.50529c2.3053,1.00369 4.31066,2.35749 6.01659,4.06189c1.70592,1.70694 3.06023,3.7128 4.06392,6.01659c1.00369,2.30378 1.50427,4.77578 1.50326,7.41649c0,2.63868 -0.50159,5.11068 -1.50529,7.41598c-1.00369,2.3053 -2.35749,4.31066 -4.06189,6.01659c-1.70694,1.70592 -3.7128,3.06023 -6.01659,4.06392c-2.30378,1.00369 -4.77578,1.50427 -7.41598,1.50326zM40.91171,45.86579l-8.02195,-8.02195v-11.39985h4.222v9.71115l6.7553,6.7553z" id="shadow" fill="#000000" opacity="0.3"/><path d="M16.00025,18.11075h4.222l0,4.78824l1.43395,-1.43395c1.49115,-1.49115 3.20365,-2.69721 5.13794,-3.61775c2.58701,-1.23169 5.32196,-1.84728 8.20586,-1.84728c2.63868,0 5.11068,0.50159 7.41598,1.50529c2.3053,1.00369 4.31066,2.35749 6.01659,4.06189c1.70592,1.70694 3.06023,3.7128 4.06392,6.01659c1.00369,2.30378 1.50427,4.77578 1.50326,7.41649c0,2.63868 -0.50159,5.11068 -1.50529,7.41598c-1.00369,2.3053 -2.35749,4.31066 -4.06189,6.01659l-21.56718,21.56718h-23.36539c-1.933,0 -3.5,-1.567 -3.5,-3.5l0,-32.389z" id="flatShadow" fill="#000000" opacity="0.324"/><path d="M35.00051,53.99899c-4.85532,0 -9.08695,-1.61017 -12.69386,-4.82999c-3.60691,-3.22033 -5.67408,-7.23966 -6.2005,-12.05851h4.32789c0.49247,3.6591 2.12037,6.68487 4.88319,9.07783c2.76282,2.39245 5.99075,3.58867 9.68379,3.58867c4.11661,0 7.60902,-1.43435 10.47722,-4.30256c2.8682,-2.8682 4.30154,-6.3601 4.30002,-10.47519c0,-4.11661 -1.43435,-7.60902 -4.30256,-10.47722c-2.8682,-2.8682 -6.3601,-4.30154 -10.47519,-4.30002c-2.42791,0 -4.69724,0.5629 -6.8085,1.6887c-2.11125,1.1258 -3.88811,2.67415 -5.33057,4.64455h5.80531v4.222h-12.6665v-12.6665h4.222v4.96121c1.79459,-2.2516 3.98488,-3.99349 6.57189,-5.22468c2.58701,-1.23169 5.32196,-1.84728 8.20586,-1.84728c2.63868,0 5.11068,0.50159 7.41598,1.50529c2.3053,1.00369 4.31066,2.35749 6.01659,4.06189c1.70592,1.70694 3.06023,3.7128 4.06392,6.01659c1.00369,2.30378 1.50427,4.77578 1.50326,7.41649c0,2.63868 -0.50159,5.11068 -1.50529,7.41598c-1.00369,2.3053 -2.35749,4.31066 -4.06189,6.01659c-1.70694,1.70592 -3.7128,3.06023 -6.01659,4.06392c-2.30378,1.00369 -4.77578,1.50427 -7.41598,1.50326zM40.91171,43.86579l-8.02195,-8.02195v-11.39985h4.222v9.71115l6.7553,6.7553z" id="icon" fill="#ffffff"/></g></svg>