<svg version="1.1" xmlns="http://www.w3.org/2000/svg" xmlns:xlink="http://www.w3.org/1999/xlink" width="70" height="70" viewBox="0,0,70,70" odoo-icon:version="1.0" xmlns:odoo-icon="https://ivantodorovich.github.io/odoo-icon" odoo-icon:size="70" odoo-icon:icon-size="0.59" odoo-icon:icon-color="#FFFFFF" odoo-icon:icon-flat-shadow-angle="135" odoo-icon:background-color="#5a9442" odoo-icon:background-gradient="0.2" odoo-icon:box-radius="3.5" odoo-icon:odoo-version="14.0"><defs><linearGradient x1="70" y1="0" x2="0" y2="70" gradientUnits="userSpaceOnUse" id="color-1"><stop offset="0" stop-color="#8dc775"/><stop offset="1" stop-color="#5a9442"/></linearGradient></defs><g fill="none" fill-rule="nonzero" stroke="none" stroke-width="1" stroke-linecap="butt" stroke-linejoin="miter" stroke-miterlimit="10" stroke-dasharray="" stroke-dashoffset="0" font-family="none" font-weight="none" font-size="none" text-anchor="none" style="mix-blend-mode: normal"><path d="M3.5,70c-1.933,0 -3.5,-1.567 -3.5,-3.5v-63c0,-1.933 1.567,-3.5 3.5,-3.5h63c1.933,0 3.5,1.567 3.5,3.5v63c0,1.933 -1.567,3.5 -3.5,3.5z" id="box" fill="url(#color-1)"/><path d="M65,1h-61c-1.95033,0 -3.2667,0.63396 -3.9491,1.90189c0.28378,-1.64806 1.72001,-2.90189 3.4491,-2.90189h63c1.72965,0 3.16627,1.25466 3.44938,2.90352c-0.69803,-1.26902 -2.34782,-1.90352 -4.94938,-1.90352z" id="topBoxShadow" fill="#ffffff" opacity="0.383"/><path d="M4,69h61c2.66667,0 4.33333,-1 5,-3v0.5c0,1.933 -1.567,3.5 -3.5,3.5h-63c-1.933,0 -3.5,-1.567 -3.5,-3.5c0,-0.1611 0,-0.32777 0,-0.5c0.66667,2 2,3 4,3z" id="bottomBoxShadow" fill="#000000" opacity="0.383"/><path d="M39.86827,16l-1.11793,2.47044l-2.48861,1.13611l2.48861,1.13611l1.11793,2.47044l1.13611,-2.47044l2.47044,-1.13611l-2.47044,-1.13611l-1.13611,-2.47044M31.75323,19.60654l-1.96579,4.3462l-4.3462,1.96579l4.3462,1.96579l1.96579,4.3462l1.98353,-4.3462l4.32802,-1.96579l-4.32802,-1.96579l-1.98353,-4.3462M46.88313,25.26933c-2.39859,-0.14412 -5.13953,0.9197 -7.30354,3.06554c-2.86732,2.86732 -3.76884,6.74436 -2.48861,9.50347l-17.60077,17.60077l2.54271,2.54271l12.42489,-12.38897l12.40714,12.40714l2.54271,-2.54271l-12.40714,-12.40714l2.65091,-2.65091c2.75911,1.28023 6.63616,0.3787 9.50347,-2.48861c3.44424,-3.44424 4.11162,-8.38554 1.46071,-11.03646c-0.99198,-0.95563 -2.30813,-1.51481 -3.73292,-1.60483M19.86934,25.91853c-2.81278,2.82101 -2.81278,7.38577 0,10.20678l7.55586,7.53812l5.1036,-5.12135z" id="shadow" fill="#000000" opacity="0.3"/><path d="M43.47481,17.60654l-6.03027,6.03027l0.62024,0.28172l-6.31119,6.31119l-0.00036,0.0008l-2.77302,2.77302l1.96815,1.96256l8.63124,-8.63124c2.16401,-2.14583 4.90495,-3.20966 7.30354,-3.06554l-0.00003,0.00003c1.42463,0.0901 2.74062,0.64927 3.73251,1.60481c2.65091,2.65091 1.98353,7.59222 -1.46071,11.03646l0,0l-8.64696,8.64696l8.89971,8.89971l-16.54271,16.54271h-29.36495c-1.933,0 -3.5,-1.567 -3.5,-3.5l0,-22.71213l19.86934,-19.86934l2.78991,2.78199l9.09398,-9.09398l1.41282,3.09568l6.70223,-6.70223l1.13611,2.47044z" id="flatShadow" fill="#000000" opacity="0.324"/><path d="M39.86827,14l-1.11793,2.47044l-2.48861,1.13611l2.48861,1.13611l1.11793,2.47044l1.13611,-2.47044l2.47044,-1.13611l-2.47044,-1.13611l-1.13611,-2.47044M31.75323,17.60654l-1.96579,4.3462l-4.3462,1.96579l4.3462,1.96579l1.96579,4.3462l1.98353,-4.3462l4.32802,-1.96579l-4.32802,-1.96579l-1.98353,-4.3462M46.88313,23.26933c-2.39859,-0.14412 -5.13953,0.9197 -7.30354,3.06554c-2.86732,2.86732 -3.76884,6.74436 -2.48861,9.50347l-17.60077,17.60077l2.54271,2.54271l12.42489,-12.38897l12.40714,12.40714l2.54271,-2.54271l-12.40714,-12.40714l2.65091,-2.65091c2.75911,1.28023 6.63616,0.3787 9.50347,-2.48861c3.44424,-3.44424 4.11162,-8.38554 1.46071,-11.03646c-0.99198,-0.95563 -2.30813,-1.51481 -3.73292,-1.60483M19.86934,23.91853c-2.81278,2.82101 -2.81278,7.38577 0,10.20678l7.55586,7.53812l5.1036,-5.12135z" id="icon" fill="#ffffff"/></g></svg>