<svg version="1.1" xmlns="http://www.w3.org/2000/svg" xmlns:xlink="http://www.w3.org/1999/xlink" width="70" height="70" viewBox="0,0,70,70" odoo-icon:version="1.0" xmlns:odoo-icon="https://ivantodorovich.github.io/odoo-icon" odoo-icon:size="70" odoo-icon:icon-size="0.55" odoo-icon:icon-color="#FFFFFF" odoo-icon:icon-flat-shadow-angle="135" odoo-icon:background-color="#001d4d" odoo-icon:background-gradient="0.2" odoo-icon:box-radius="3.5" odoo-icon:odoo-version="14.0"><defs><linearGradient x1="70" y1="0" x2="0" y2="70" gradientUnits="userSpaceOnUse" id="color-1"><stop offset="0" stop-color="#335080"/><stop offset="1" stop-color="#001d4d"/></linearGradient></defs><g fill="none" fill-rule="nonzero" stroke="none" stroke-width="1" stroke-linecap="butt" stroke-linejoin="miter" stroke-miterlimit="10" stroke-dasharray="" stroke-dashoffset="0" font-family="none" font-weight="none" font-size="none" text-anchor="none" style="mix-blend-mode: normal"><path d="M3.5,70c-1.933,0 -3.5,-1.567 -3.5,-3.5v-63c0,-1.933 1.567,-3.5 3.5,-3.5h63c1.933,0 3.5,1.567 3.5,3.5v63c0,1.933 -1.567,3.5 -3.5,3.5z" id="box" fill="url(#color-1)"/><path d="M65,1h-61c-1.95033,0 -3.2667,0.63396 -3.9491,1.90189c0.28378,-1.64806 1.72001,-2.90189 3.4491,-2.90189h63c1.72965,0 3.16627,1.25466 3.44938,2.90352c-0.69803,-1.26902 -2.34782,-1.90352 -4.94938,-1.90352z" id="topBoxShadow" fill="#ffffff" opacity="0.383"/><path d="M4,69h61c2.66667,0 4.33333,-1 5,-3v0.5c0,1.933 -1.567,3.5 -3.5,3.5h-63c-1.933,0 -3.5,-1.567 -3.5,-3.5c0,-0.1611 0,-0.32777 0,-0.5c0.66667,2 2,3 4,3z" id="bottomBoxShadow" fill="#000000" opacity="0.383"/><path d="M35.00312,56.5c-10.07968,0 -13.75556,-3.33944 -14.14244,-3.72112l-0.76856,-0.754l13.81276,-34.52488h12.37756l-7.67988,5.46468l11.30532,29.06644l-0.76232,0.74776c-0.38688,0.38168 -4.06224,3.72112 -14.14244,3.72112zM23.99056,51.03532c1.42844,0.81276 4.79856,2.21468 11.01256,2.21468c6.22024,0 9.58412,-1.40244 11.01932,-2.22144l-10.855,-27.93024zM38.25312,50c-2.69256,0 -4.875,-2.18244 -4.875,-4.875c0,-2.69256 2.18244,-4.875 4.875,-4.875c0.42588,0 0.82524,0.06968 1.21888,0.17056c-1.8798,-1.79452 -4.64932,-2.29424 -7.03768,-1.26984c-2.38836,1.0244 -3.93536,3.37532 -3.9312,5.97376c0,3.59112 2.90888,6.5 6.5,6.5c1.66452,-0.00312 3.26456,-0.64584 4.46888,-1.79556c-0.39728,0.10868 -0.80704,0.16588 -1.21888,0.17056zM35.00312,32.125c0.89388,0 1.625,0.73112 1.625,1.625c0,0.89388 -0.73112,1.625 -1.625,1.625c-0.89388,0 -1.625,-0.73112 -1.625,-1.625c0,-0.89388 0.73112,-1.625 1.625,-1.625zM39.87812,43.5c0.89388,0 1.625,0.73112 1.625,1.625c0,0.89388 -0.73112,1.625 -1.625,1.625c-0.89388,0 -1.625,-0.73112 -1.625,-1.625c0,-0.89388 0.73112,-1.625 1.625,-1.625z" id="shadow" fill="#000000" opacity="0.3"/><path d="M33.90488,15.5h12.37756l-7.05956,7.05956l10.685,27.47156l-19.96888,19.96888h-26.439c-1.933,0 -3.5,-1.567 -3.5,-3.5l0,-17.09512z" id="flatShadow" fill="#000000" opacity="0.324"/><path d="M35.00312,54.5c-10.07968,0 -13.75556,-3.33944 -14.14244,-3.72112l-0.76856,-0.754l13.81276,-34.52488h12.37756l-7.67988,5.46468l11.30532,29.06644l-0.76232,0.74776c-0.38688,0.38168 -4.06224,3.72112 -14.14244,3.72112zM23.99056,49.03532c1.42844,0.81276 4.79856,2.21468 11.01256,2.21468c6.22024,0 9.58412,-1.40244 11.01932,-2.22144l-10.855,-27.93024zM38.25312,48c-2.69256,0 -4.875,-2.18244 -4.875,-4.875c0,-2.69256 2.18244,-4.875 4.875,-4.875c0.42588,0 0.82524,0.06968 1.21888,0.17056c-1.8798,-1.79452 -4.64932,-2.29424 -7.03768,-1.26984c-2.38836,1.0244 -3.93536,3.37532 -3.9312,5.97376c0,3.59112 2.90888,6.5 6.5,6.5c1.66452,-0.00312 3.26456,-0.64584 4.46888,-1.79556c-0.39728,0.10868 -0.80704,0.16588 -1.21888,0.17056zM35.00312,30.125c0.89388,0 1.625,0.73112 1.625,1.625c0,0.89388 -0.73112,1.625 -1.625,1.625c-0.89388,0 -1.625,-0.73112 -1.625,-1.625c0,-0.89388 0.73112,-1.625 1.625,-1.625zM39.87812,41.5c0.89388,0 1.625,0.73112 1.625,1.625c0,0.89388 -0.73112,1.625 -1.625,1.625c-0.89388,0 -1.625,-0.73112 -1.625,-1.625c0,-0.89388 0.73112,-1.625 1.625,-1.625z" id="icon" fill="#ffffff"/></g></svg>