<svg version="1.1" xmlns="http://www.w3.org/2000/svg" xmlns:xlink="http://www.w3.org/1999/xlink" width="70" height="70" viewBox="0,0,70,70" odoo-icon:version="1.0" xmlns:odoo-icon="https://ivantodorovich.github.io/odoo-icon" odoo-icon:size="70" odoo-icon:icon-size="0.6" odoo-icon:icon-color="#FFFFFF" odoo-icon:icon-flat-shadow-angle="135" odoo-icon:background-color="#1e88e5" odoo-icon:background-gradient="0.2" odoo-icon:box-radius="3.5" odoo-icon:odoo-version="14.0"><defs><linearGradient x1="70" y1="0" x2="0" y2="70" gradientUnits="userSpaceOnUse" id="color-1"><stop offset="0" stop-color="#51bbff"/><stop offset="1" stop-color="#1e88e5"/></linearGradient></defs><g fill="none" fill-rule="nonzero" stroke="none" stroke-width="1" stroke-linecap="butt" stroke-linejoin="miter" stroke-miterlimit="10" stroke-dasharray="" stroke-dashoffset="0" font-family="none" font-weight="none" font-size="none" text-anchor="none" style="mix-blend-mode: normal"><path d="M3.5,70c-1.933,0 -3.5,-1.567 -3.5,-3.5v-63c0,-1.933 1.567,-3.5 3.5,-3.5h63c1.933,0 3.5,1.567 3.5,3.5v63c0,1.933 -1.567,3.5 -3.5,3.5z" id="box" fill="url(#color-1)"/><path d="M65,1h-61c-1.95033,0 -3.2667,0.63396 -3.9491,1.90189c0.28378,-1.64806 1.72001,-2.90189 3.4491,-2.90189h63c1.72965,0 3.16627,1.25466 3.44938,2.90352c-0.69803,-1.26902 -2.34782,-1.90352 -4.94938,-1.90352z" id="topBoxShadow" fill="#ffffff" opacity="0.383"/><path d="M4,69h61c2.66667,0 4.33333,-1 5,-3v0.5c0,1.933 -1.567,3.5 -3.5,3.5h-63c-1.933,0 -3.5,-1.567 -3.5,-3.5c0,-0.1611 0,-0.32777 0,-0.5c0.66667,2 2,3 4,3z" id="bottomBoxShadow" fill="#000000" opacity="0.383"/><path d="M56,50.0598v2.61184h-42v-31.34328h2.625v28.73145zM53.375,24.59338v8.87642c0,0.28554 -0.13321,0.48645 -0.39994,0.6021c-0.26673,0.11566 -0.50933,0.06457 -0.7281,-0.15296l-2.48145,-2.46922l-12.98145,12.91688c-0.13666,0.13603 -0.294,0.20404 -0.47172,0.20404c-0.17772,0 -0.33506,-0.06801 -0.47172,-0.20404l-4.77828,-4.75446l-8.53133,8.4887l-3.93766,-3.91791l11.99696,-11.9374c0.13666,-0.13603 0.294,-0.20404 0.47172,-0.20404c0.17772,0 0.33506,0.06801 0.47172,0.20404l4.77828,4.75446l9.51551,-9.46818l-2.48145,-2.46922c-0.21878,-0.21752 -0.26987,-0.45918 -0.1539,-0.72434c0.11628,-0.26516 0.31782,-0.39806 0.60493,-0.39806h8.92093c0.19151,0 0.34854,0.06112 0.47172,0.18367c0.12318,0.12255 0.18461,0.27896 0.18461,0.46921z" id="shadow" fill="#000000" opacity="0.3"/><path d="M56,50.67164l-19.32836,19.32836h-33.17164c-1.933,0 -3.5,-1.567 -3.5,-3.5l0,-33.17164l14,-14h2.625v24.82292l1.96835,-1.96835l11.99696,-11.9374c0.13666,-0.13603 0.294,-0.20404 0.47172,-0.20404c0.17772,0 0.33506,0.06801 0.47172,0.20404l1.84198,1.8328l9.96568,-9.96568c0.11491,-0.11491 0.26679,-0.17246 0.45572,-0.17246h8.92093c0.19151,0 0.34854,0.06112 0.47172,0.18367c0.12318,0.12255 0.18461,0.27896 0.18461,0.46921l0.00062,0.00031v8.87642c0,0.18688 -0.05706,0.3375 -0.17126,0.4517l-16.1383,16.1383l18.93456,0z" id="flatShadow" fill="#000000" opacity="0.324"/><path d="M56,48.0598v2.61184h-42v-31.34328h2.625v28.73145zM53.375,22.59338v8.87642c0,0.28554 -0.13321,0.48645 -0.39994,0.6021c-0.26673,0.11566 -0.50933,0.06457 -0.7281,-0.15296l-2.48145,-2.46922l-12.98145,12.91688c-0.13666,0.13603 -0.294,0.20404 -0.47172,0.20404c-0.17772,0 -0.33506,-0.06801 -0.47172,-0.20404l-4.77828,-4.75446l-8.53133,8.4887l-3.93766,-3.91791l11.99696,-11.9374c0.13666,-0.13603 0.294,-0.20404 0.47172,-0.20404c0.17772,0 0.33506,0.06801 0.47172,0.20404l4.77828,4.75446l9.51551,-9.46818l-2.48145,-2.46922c-0.21878,-0.21752 -0.26987,-0.45918 -0.1539,-0.72434c0.11628,-0.26516 0.31782,-0.39806 0.60493,-0.39806h8.92093c0.19151,0 0.34854,0.06112 0.47172,0.18367c0.12318,0.12255 0.18461,0.27896 0.18461,0.46921z" id="icon" fill="#ffffff"/></g></svg>