<svg version="1.1" xmlns="http://www.w3.org/2000/svg" xmlns:xlink="http://www.w3.org/1999/xlink" width="70" height="70" viewBox="0,0,70,70" odoo-icon:version="1.0" xmlns:odoo-icon="https://ivantodorovich.github.io/odoo-icon" odoo-icon:size="70" odoo-icon:icon-size="0.58" odoo-icon:icon-color="#FFFFFF" odoo-icon:icon-flat-shadow-angle="135" odoo-icon:background-color="#1e88e5" odoo-icon:background-gradient="0.2" odoo-icon:box-radius="3.5" odoo-icon:odoo-version="14.0"><defs><linearGradient x1="70" y1="0" x2="0" y2="70" gradientUnits="userSpaceOnUse" id="color-1"><stop offset="0" stop-color="#51bbff"/><stop offset="1" stop-color="#1e88e5"/></linearGradient></defs><g fill="none" fill-rule="nonzero" stroke="none" stroke-width="1" stroke-linecap="butt" stroke-linejoin="miter" stroke-miterlimit="10" stroke-dasharray="" stroke-dashoffset="0" font-family="none" font-weight="none" font-size="none" text-anchor="none" style="mix-blend-mode: normal"><path d="M3.5,70c-1.933,0 -3.5,-1.567 -3.5,-3.5v-63c0,-1.933 1.567,-3.5 3.5,-3.5h63c1.933,0 3.5,1.567 3.5,3.5v63c0,1.933 -1.567,3.5 -3.5,3.5z" id="box" fill="url(#color-1)"/><path d="M65,1h-61c-1.95033,0 -3.2667,0.63396 -3.9491,1.90189c0.28378,-1.64806 1.72001,-2.90189 3.4491,-2.90189h63c1.72965,0 3.16627,1.25466 3.44938,2.90352c-0.69803,-1.26902 -2.34782,-1.90352 -4.94938,-1.90352z" id="topBoxShadow" fill="#ffffff" opacity="0.383"/><path d="M4,69h61c2.66667,0 4.33333,-1 5,-3v0.5c0,1.933 -1.567,3.5 -3.5,3.5h-63c-1.933,0 -3.5,-1.567 -3.5,-3.5c0,-0.1611 0,-0.32777 0,-0.5c0.66667,2 2,3 4,3z" id="bottomBoxShadow" fill="#000000" opacity="0.383"/><path d="M53.12952,32.64989v0zM47.09635,18.65614c0.23411,-0.71996 1.25255,-0.71996 1.48625,0l4.5465,13.99375h-10.58008l-7.54894,23.23394l-7.54853,-23.23394h15.09788zM35.00009,55.88383l-19.85553,-14.42589c-0.54776,-0.39811 -0.77736,-1.10331 -0.56785,-1.74742l2.29437,-7.06063v0v0zM16.87066,32.64989l4.54691,-13.99375c0.2337,-0.71996 1.25255,-0.71996 1.48625,0l4.54732,13.99375zM53.12911,32.64989l2.29437,7.06063c0.2091,0.64411 -0.02009,1.34972 -0.56785,1.74742l-19.85553,14.42589z" id="shadow" fill="#000000" opacity="0.3"/><path d="M47.28709,16.34009c0.3811,-0.3811 1.10342,-0.27575 1.29551,0.31605l4.5465,13.99375l2.29437,7.06063c0.18343,0.56504 0.02958,1.1774 -0.38073,1.58771l-49.49747,49.49747c-0.05742,0.05742 -0.11987,0.11089 -0.18712,0.15971l-19.85553,14.42589l-7.54853,-23.23394l22.04592,-22.04592l0,-20.15319l21.60825,-21.60825c0.38099,-0.38099 1.10349,-0.27562 1.29557,0.31614l4.54732,13.99375l-5.94292,5.94292l0.00018,0.00023l5.94315,-5.94315h5.52574z" id="flatShadow" fill="#000000" opacity="0.324"/><path d="M53.12952,30.64989v0zM47.09635,16.65614c0.23411,-0.71996 1.25255,-0.71996 1.48625,0l4.5465,13.99375h-10.58008l-7.54894,23.23394l-7.54853,-23.23394h15.09788zM35.00009,53.88383l-19.85553,-14.42589c-0.54776,-0.39811 -0.77736,-1.10331 -0.56785,-1.74742l2.29437,-7.06063v0v0zM16.87066,30.64989l4.54691,-13.99375c0.2337,-0.71996 1.25255,-0.71996 1.48625,0l4.54732,13.99375zM53.12911,30.64989l2.29437,7.06063c0.2091,0.64411 -0.02009,1.34972 -0.56785,1.74742l-19.85553,14.42589z" id="icon" fill="#ffffff"/></g></svg>