<svg version="1.1" xmlns="http://www.w3.org/2000/svg" xmlns:xlink="http://www.w3.org/1999/xlink" width="70" height="70" viewBox="0,0,70,70" odoo-icon:version="1.0" xmlns:odoo-icon="https://ivantodorovich.github.io/odoo-icon" odoo-icon:size="70" odoo-icon:icon-size="0.6" odoo-icon:icon-color="#FFFFFF" odoo-icon:icon-flat-shadow-angle="135" odoo-icon:background-color="#ffb300" odoo-icon:background-gradient="0.2" odoo-icon:box-radius="3.5" odoo-icon:odoo-version="14.0"><defs><linearGradient x1="70" y1="0" x2="0" y2="70" gradientUnits="userSpaceOnUse" id="color-1"><stop offset="0" stop-color="#ffe633"/><stop offset="1" stop-color="#ffb300"/></linearGradient></defs><g fill="none" fill-rule="nonzero" stroke="none" stroke-width="1" stroke-linecap="butt" stroke-linejoin="miter" stroke-miterlimit="10" stroke-dasharray="" stroke-dashoffset="0" font-family="none" font-weight="none" font-size="none" text-anchor="none" style="mix-blend-mode: normal"><path d="M3.5,70c-1.933,0 -3.5,-1.567 -3.5,-3.5v-63c0,-1.933 1.567,-3.5 3.5,-3.5h63c1.933,0 3.5,1.567 3.5,3.5v63c0,1.933 -1.567,3.5 -3.5,3.5z" id="box" fill="url(#color-1)"/><path d="M65,1h-61c-1.95033,0 -3.2667,0.63396 -3.9491,1.90189c0.28378,-1.64806 1.72001,-2.90189 3.4491,-2.90189h63c1.72965,0 3.16627,1.25466 3.44938,2.90352c-0.69803,-1.26902 -2.34782,-1.90352 -4.94938,-1.90352z" id="topBoxShadow" fill="#ffffff" opacity="0.383"/><path d="M4,69h61c2.66667,0 4.33333,-1 5,-3v0.5c0,1.933 -1.567,3.5 -3.5,3.5h-63c-1.933,0 -3.5,-1.567 -3.5,-3.5c0,-0.1611 0,-0.32777 0,-0.5c0.66667,2 2,3 4,3z" id="bottomBoxShadow" fill="#000000" opacity="0.383"/><path d="M43.47699,27.36693v-2.31166c0,-0.21208 -0.17361,-0.38519 -0.38519,-0.38519h-18.49525c-0.21208,0 -0.38519,0.17361 -0.38519,0.38519v2.31215c0,0.21208 0.17361,0.38519 0.38519,0.38519h18.49525c0.21208,0 0.38519,-0.17361 0.38519,-0.38519zM24.59605,31.60555c-0.21208,0 -0.38519,0.17361 -0.38519,0.38519v2.31215c0,0.21208 0.17361,0.38519 0.38519,0.38519h8.86243c0.21208,0 0.38519,-0.17361 0.38519,-0.38519v-2.31166c0,-0.21208 -0.17361,-0.38519 -0.38519,-0.38519zM42.70611,37.1926c-5.74586,0 -10.4037,4.65735 -10.4037,10.4037c0,5.74586 4.65735,10.4037 10.4037,10.4037c5.74586,0 10.4037,-4.65735 10.4037,-10.4037c0,-5.74586 -4.65735,-10.4037 -10.4037,-10.4037zM47.88379,52.77349c-1.38246,1.38246 -3.22212,2.14348 -5.17768,2.14348c-1.95556,0 -3.79523,-0.76102 -5.17768,-2.14348c-1.38246,-1.38246 -2.14348,-3.22212 -2.14348,-5.17768c0,-1.95556 0.76102,-3.79523 2.14348,-5.17768c1.38246,-1.38246 3.22212,-2.14348 5.17768,-2.14348c1.95556,0 3.79523,0.76102 5.17768,2.14348c1.38246,1.38246 2.14348,3.22212 2.14348,5.17768c0,1.95556 -0.76102,3.79523 -2.14348,5.17768zM41.16484,51.44923c0,0.85127 0.69,1.54127 1.54127,1.54127c0.85127,0 1.54127,-0.69 1.54127,-1.54127c0,-0.85127 -0.69,-1.54127 -1.54127,-1.54127c-0.85127,0 -1.54127,0.69 -1.54127,1.54127zM41.74287,48.36669h1.92647c0.21208,0 0.38519,-0.17361 0.38519,-0.38519v-5.3942c0,-0.21208 -0.17361,-0.38519 -0.38519,-0.38519h-1.92647c-0.21208,0 -0.38519,0.17361 -0.38519,0.38519v5.39469c0,0.21208 0.17361,0.38519 0.38519,0.38519zM31.53202,53.37569h-11.17409v-33.90796h26.97249v16.56878c0,0.21208 0.17361,0.38519 0.38519,0.38519h2.69735c0.21208,0 0.38519,-0.17361 0.38519,-0.38519v-18.49525c0,-0.85275 -0.68852,-1.54127 -1.54127,-1.54127h-30.82542c-0.85275,0 -1.54127,0.68852 -1.54127,1.54127v37.76138c0,0.85275 0.68852,1.54127 1.54127,1.54127h13.10105c0.21208,0 0.38519,-0.17361 0.38519,-0.38519v-2.69735c0,-0.21208 -0.17361,-0.38519 -0.38519,-0.38519z" id="shadow" fill="#000000" opacity="0.3"/><path d="M50.06278,52.95291l-17.04709,17.04709h-29.51569c-1.933,0 -3.5,-1.567 -3.5,-3.5l0,-34.7081l17.34104,-17.34104c0.27872,-0.27872 0.66404,-0.45085 1.09042,-0.45085h30.82542c0.85275,0 1.54127,0.68852 1.54127,1.54127v18.49525c0,0.10585 -0.04333,0.2022 -0.11319,0.27206l-2.4641,2.4641c2.93642,1.83906 4.88895,5.10327 4.88895,8.82362c0,2.87311 -1.16441,5.47399 -3.04703,7.35661z" id="flatShadow" fill="#000000" opacity="0.324"/><path d="M43.47699,25.36693v-2.31166c0,-0.21208 -0.17361,-0.38519 -0.38519,-0.38519h-18.49525c-0.21208,0 -0.38519,0.17361 -0.38519,0.38519v2.31215c0,0.21208 0.17361,0.38519 0.38519,0.38519h18.49525c0.21208,0 0.38519,-0.17361 0.38519,-0.38519zM24.59605,29.60555c-0.21208,0 -0.38519,0.17361 -0.38519,0.38519v2.31215c0,0.21208 0.17361,0.38519 0.38519,0.38519h8.86243c0.21208,0 0.38519,-0.17361 0.38519,-0.38519v-2.31166c0,-0.21208 -0.17361,-0.38519 -0.38519,-0.38519zM42.70611,35.1926c-5.74586,0 -10.4037,4.65735 -10.4037,10.4037c0,5.74586 4.65735,10.4037 10.4037,10.4037c5.74586,0 10.4037,-4.65735 10.4037,-10.4037c0,-5.74586 -4.65735,-10.4037 -10.4037,-10.4037zM47.88379,50.77349c-1.38246,1.38246 -3.22212,2.14348 -5.17768,2.14348c-1.95556,0 -3.79523,-0.76102 -5.17768,-2.14348c-1.38246,-1.38246 -2.14348,-3.22212 -2.14348,-5.17768c0,-1.95556 0.76102,-3.79523 2.14348,-5.17768c1.38246,-1.38246 3.22212,-2.14348 5.17768,-2.14348c1.95556,0 3.79523,0.76102 5.17768,2.14348c1.38246,1.38246 2.14348,3.22212 2.14348,5.17768c0,1.95556 -0.76102,3.79523 -2.14348,5.17768zM41.16484,49.44923c0,0.85127 0.69,1.54127 1.54127,1.54127c0.85127,0 1.54127,-0.69 1.54127,-1.54127c0,-0.85127 -0.69,-1.54127 -1.54127,-1.54127c-0.85127,0 -1.54127,0.69 -1.54127,1.54127zM41.74287,46.36669h1.92647c0.21208,0 0.38519,-0.17361 0.38519,-0.38519v-5.3942c0,-0.21208 -0.17361,-0.38519 -0.38519,-0.38519h-1.92647c-0.21208,0 -0.38519,0.17361 -0.38519,0.38519v5.39469c0,0.21208 0.17361,0.38519 0.38519,0.38519zM31.53202,51.37569h-11.17409v-33.90796h26.97249v16.56878c0,0.21208 0.17361,0.38519 0.38519,0.38519h2.69735c0.21208,0 0.38519,-0.17361 0.38519,-0.38519v-18.49525c0,-0.85275 -0.68852,-1.54127 -1.54127,-1.54127h-30.82542c-0.85275,0 -1.54127,0.68852 -1.54127,1.54127v37.76138c0,0.85275 0.68852,1.54127 1.54127,1.54127h13.10105c0.21208,0 0.38519,-0.17361 0.38519,-0.38519v-2.69735c0,-0.21208 -0.17361,-0.38519 -0.38519,-0.38519z" id="icon" fill="#ffffff"/></g></svg>