<svg version="1.1" xmlns="http://www.w3.org/2000/svg" xmlns:xlink="http://www.w3.org/1999/xlink" width="70" height="70" viewBox="0,0,70,70" odoo-icon:version="1.0" xmlns:odoo-icon="https://ivantodorovich.github.io/odoo-icon" odoo-icon:size="70" odoo-icon:icon-size="0.55" odoo-icon:icon-color="#FFFFFF" odoo-icon:icon-flat-shadow-angle="135" odoo-icon:background-color="#cb6482" odoo-icon:background-gradient="0.2" odoo-icon:box-radius="3.5" odoo-icon:odoo-version="14.0"><defs><linearGradient x1="70" y1="0" x2="0" y2="70" gradientUnits="userSpaceOnUse" id="color-1"><stop offset="0" stop-color="#fe97b5"/><stop offset="1" stop-color="#cb6482"/></linearGradient></defs><g fill="none" fill-rule="nonzero" stroke="none" stroke-width="1" stroke-linecap="butt" stroke-linejoin="miter" stroke-miterlimit="10" stroke-dasharray="" stroke-dashoffset="0" font-family="none" font-weight="none" font-size="none" text-anchor="none" style="mix-blend-mode: normal"><path d="M3.5,70c-1.933,0 -3.5,-1.567 -3.5,-3.5v-63c0,-1.933 1.567,-3.5 3.5,-3.5h63c1.933,0 3.5,1.567 3.5,3.5v63c0,1.933 -1.567,3.5 -3.5,3.5z" id="box" fill="url(#color-1)"/><path d="M65,1h-61c-1.95033,0 -3.2667,0.63396 -3.9491,1.90189c0.28378,-1.64806 1.72001,-2.90189 3.4491,-2.90189h63c1.72965,0 3.16627,1.25466 3.44938,2.90352c-0.69803,-1.26902 -2.34782,-1.90352 -4.94938,-1.90352z" id="topBoxShadow" fill="#ffffff" opacity="0.383"/><path d="M4,69h61c2.66667,0 4.33333,-1 5,-3v0.5c0,1.933 -1.567,3.5 -3.5,3.5h-63c-1.933,0 -3.5,-1.567 -3.5,-3.5c0,-0.1611 0,-0.32777 0,-0.5c0.66667,2 2,3 4,3z" id="bottomBoxShadow" fill="#000000" opacity="0.383"/><path d="M24.02429,21.595l2.61857,2.61857l-5.90571,5.90571l5.90571,5.90571l-2.61857,2.63729l-8.52429,-8.54301l8.52429,-8.52429M34.83286,21.595l8.52429,8.52429l-8.52429,8.54301l-2.61857,-2.63729l5.90571,-5.90571l-5.90571,-5.90571l2.61857,-2.61857M54.5,26.40515v22.28571c0,2.06143 -1.65271,3.71414 -3.71414,3.71414h-29.71443c-2.05118,0 -3.71414,-1.66296 -3.71414,-3.71414v-7.42872h3.71414v7.42872h29.71443v-22.28571h-5.51571v-3.71414h5.51571c2.06143,0 3.71414,1.65271 3.71414,3.71414z" id="shadow" fill="#000000" opacity="0.3"/><path d="M24.02429,19.595l2.61857,2.61857l-5.90571,5.90571l2.78571,2.78571l11.31,-11.31l5.76665,5.76665l4.67064,-4.67064h5.51571c2.06143,0 3.71414,1.65271 3.71414,3.71414v22.28571c0,1.03071 -0.41318,1.95925 -1.08403,2.6301l-20.67903,20.67903h-29.23693c-1.933,0 -3.5,-1.567 -3.5,-3.5l0,-22.88071z" id="flatShadow" fill="#000000" opacity="0.324"/><path d="M24.02429,19.595l2.61857,2.61857l-5.90571,5.90571l5.90571,5.90571l-2.61857,2.63729l-8.52429,-8.54301l8.52429,-8.52429M34.83286,19.595l8.52429,8.52429l-8.52429,8.54301l-2.61857,-2.63729l5.90571,-5.90571l-5.90571,-5.90571l2.61857,-2.61857M54.5,24.40515v22.28571c0,2.06143 -1.65271,3.71414 -3.71414,3.71414h-29.71443c-2.05118,0 -3.71414,-1.66296 -3.71414,-3.71414v-7.42872h3.71414v7.42872h29.71443v-22.28571h-5.51571v-3.71414h5.51571c2.06143,0 3.71414,1.65271 3.71414,3.71414z" id="icon" fill="#ffffff"/></g></svg>