<svg version="1.1" xmlns="http://www.w3.org/2000/svg" xmlns:xlink="http://www.w3.org/1999/xlink" width="70" height="70" viewBox="0,0,70,70" odoo-icon:version="1.0" xmlns:odoo-icon="https://ivantodorovich.github.io/odoo-icon" odoo-icon:size="70" odoo-icon:icon-size="0.62" odoo-icon:icon-color="#FFFFFF" odoo-icon:icon-flat-shadow-angle="135" odoo-icon:background-color="#eea544" odoo-icon:background-gradient="0.2" odoo-icon:box-radius="3.5" odoo-icon:odoo-version="14.0"><defs><linearGradient x1="70" y1="0" x2="0" y2="70" gradientUnits="userSpaceOnUse" id="color-1"><stop offset="0" stop-color="#ffd877"/><stop offset="1" stop-color="#eea544"/></linearGradient></defs><g fill="none" fill-rule="nonzero" stroke="none" stroke-width="1" stroke-linecap="butt" stroke-linejoin="miter" stroke-miterlimit="10" stroke-dasharray="" stroke-dashoffset="0" font-family="none" font-weight="none" font-size="none" text-anchor="none" style="mix-blend-mode: normal"><path d="M3.5,70c-1.933,0 -3.5,-1.567 -3.5,-3.5v-63c0,-1.933 1.567,-3.5 3.5,-3.5h63c1.933,0 3.5,1.567 3.5,3.5v63c0,1.933 -1.567,3.5 -3.5,3.5z" id="box" fill="url(#color-1)"/><path d="M65,1h-61c-1.95033,0 -3.2667,0.63396 -3.9491,1.90189c0.28378,-1.64806 1.72001,-2.90189 3.4491,-2.90189h63c1.72965,0 3.16627,1.25466 3.44938,2.90352c-0.69803,-1.26902 -2.34782,-1.90352 -4.94938,-1.90352z" id="topBoxShadow" fill="#ffffff" opacity="0.383"/><path d="M4,69h61c2.66667,0 4.33333,-1 5,-3v0.5c0,1.933 -1.567,3.5 -3.5,3.5h-63c-1.933,0 -3.5,-1.567 -3.5,-3.5c0,-0.1611 0,-0.32777 0,-0.5c0.66667,2 2,3 4,3z" id="bottomBoxShadow" fill="#000000" opacity="0.383"/><path d="M39.39984,15h-17.59989c-2.44201,0 -4.39984,1.95783 -4.39984,4.39984v35.20032c0,2.44201 1.95783,4.39984 4.39984,4.39984h26.40011c2.44201,0 4.39984,-1.95783 4.39984,-4.39984v-26.40011l-13.20005,-13.20005M32.79982,54.60016h-2.20018c-3.54184,0 -8.80021,-2.33219 -8.80021,-8.80021c0,-6.44585 5.25785,-8.80021 8.80021,-8.80021h2.20018v4.39984h-2.20018c-1.01218,0 -4.39984,0.37383 -4.39984,4.39984c0,4.18019 3.67384,4.39984 4.39984,4.39984h2.20018v4.39984M41.60003,43.60029v4.39984h-13.20005v-4.39984h13.20005M39.39984,54.60016h-2.20018v-4.39984h2.20018c1.01218,0 4.39984,-0.37383 4.39984,-4.39984c0,-4.18019 -3.67384,-4.39984 -4.39984,-4.39984h-2.20018v-4.39984h2.20018c3.54184,0 8.80021,2.35383 8.80021,8.80021c0,6.46803 -5.25785,8.80021 -8.80021,8.80021M37.20018,30.40024v-12.10022l12.10022,12.10022z" id="shadow" fill="#000000" opacity="0.3"/><path d="M18.68427,14.28417c0.79471,-0.79471 1.89467,-1.28417 3.11567,-1.28417h17.59989l13.20005,13.20005v26.40011l-17.39984,17.39984h-31.70005c-1.933,0 -3.5,-1.567 -3.5,-3.5l0,-33.53156z" id="flatShadow" fill="#000000" opacity="0.324"/><path d="M39.39984,13h-17.59989c-2.44201,0 -4.39984,1.95783 -4.39984,4.39984v35.20032c0,2.44201 1.95783,4.39984 4.39984,4.39984h26.40011c2.44201,0 4.39984,-1.95783 4.39984,-4.39984v-26.40011l-13.20005,-13.20005M32.79982,52.60016h-2.20018c-3.54184,0 -8.80021,-2.33219 -8.80021,-8.80021c0,-6.44585 5.25785,-8.80021 8.80021,-8.80021h2.20018v4.39984h-2.20018c-1.01218,0 -4.39984,0.37383 -4.39984,4.39984c0,4.18019 3.67384,4.39984 4.39984,4.39984h2.20018v4.39984M41.60003,41.60029v4.39984h-13.20005v-4.39984h13.20005M39.39984,52.60016h-2.20018v-4.39984h2.20018c1.01218,0 4.39984,-0.37383 4.39984,-4.39984c0,-4.18019 -3.67384,-4.39984 -4.39984,-4.39984h-2.20018v-4.39984h2.20018c3.54184,0 8.80021,2.35383 8.80021,8.80021c0,6.46803 -5.25785,8.80021 -8.80021,8.80021M37.20018,28.40024v-12.10022l12.10022,12.10022z" id="icon" fill="#ffffff"/></g></svg>