<svg version="1.1" xmlns="http://www.w3.org/2000/svg" xmlns:xlink="http://www.w3.org/1999/xlink" width="70" height="70" viewBox="0,0,70,70" odoo-icon:version="1.0" xmlns:odoo-icon="https://ivantodorovich.github.io/odoo-icon" odoo-icon:size="70" odoo-icon:icon-size="0.54" odoo-icon:icon-color="#FFFFFF" odoo-icon:icon-flat-shadow-angle="135" odoo-icon:background-color="#e53935" odoo-icon:background-gradient="0.2" odoo-icon:box-radius="3.5" odoo-icon:odoo-version="14.0"><defs><linearGradient x1="70" y1="0" x2="0" y2="70" gradientUnits="userSpaceOnUse" id="color-1"><stop offset="0" stop-color="#ff6c68"/><stop offset="1" stop-color="#e53935"/></linearGradient></defs><g fill="none" fill-rule="nonzero" stroke="none" stroke-width="1" stroke-linecap="butt" stroke-linejoin="miter" stroke-miterlimit="10" stroke-dasharray="" stroke-dashoffset="0" font-family="none" font-weight="none" font-size="none" text-anchor="none" style="mix-blend-mode: normal"><path d="M3.5,70c-1.933,0 -3.5,-1.567 -3.5,-3.5v-63c0,-1.933 1.567,-3.5 3.5,-3.5h63c1.933,0 3.5,1.567 3.5,3.5v63c0,1.933 -1.567,3.5 -3.5,3.5z" id="box" fill="url(#color-1)"/><path d="M65,1h-61c-1.95033,0 -3.2667,0.63396 -3.9491,1.90189c0.28378,-1.64806 1.72001,-2.90189 3.4491,-2.90189h63c1.72965,0 3.16627,1.25466 3.44938,2.90352c-0.69803,-1.26902 -2.34782,-1.90352 -4.94938,-1.90352z" id="topBoxShadow" fill="#ffffff" opacity="0.383"/><path d="M4,69h61c2.66667,0 4.33333,-1 5,-3v0.5c0,1.933 -1.567,3.5 -3.5,3.5h-63c-1.933,0 -3.5,-1.567 -3.5,-3.5c0,-0.1611 0,-0.32777 0,-0.5c0.66667,2 2,3 4,3z" id="bottomBoxShadow" fill="#000000" opacity="0.383"/><path d="M52.87893,36.20201l-17.09986,-17.09986c-0.71227,-0.70679 -1.67533,-1.1026 -2.67898,-1.10214h-13.30005c-2.0985,0 -3.79982,1.70132 -3.79982,3.79982v13.30005c-0.00091,1.01277 0.40264,1.98404 1.12084,2.69813l17.09986,17.09986c0.71227,0.70679 1.67533,1.1026 2.67898,1.10214c1.00638,-0.0041 1.96945,-0.4072 2.67898,-1.12084l13.30005,-13.30005c0.71363,-0.70953 1.11674,-1.67259 1.12084,-2.67898c0.00091,-1.01277 -0.40264,-1.98404 -1.12084,-2.69813M36.90036,52.19973l-17.09986,-17.09986v-13.30005h13.30005l17.09986,17.09986M24.55016,23.69995c1.5741,0 2.84998,1.27588 2.84998,2.84998c0,1.5741 -1.27588,2.84998 -2.84998,2.84998c-1.5741,0 -2.84998,-1.27588 -2.84998,-2.84998c0,-1.5741 1.27588,-2.84998 2.84998,-2.84998z" id="shadow" fill="#000000" opacity="0.3"/><path d="M17.1132,17.11297c0.68764,-0.68764 1.6376,-1.11297 2.68684,-1.11297h13.30005c1.00365,-0.00046 1.96671,0.39535 2.67898,1.10214l17.09986,17.09986c0.71819,0.71409 1.12175,1.68536 1.12084,2.69813c-0.00409,1.00272 -0.40428,1.96244 -1.11306,2.67122l-13.31558,13.31558c0,0 0,0 0,0l-17.11306,17.11306h-18.95807c-1.933,0 -3.5,-1.567 -3.5,-3.5l0,-32.27383z" id="flatShadow" fill="#000000" opacity="0.324"/><path d="M52.87893,34.20201l-17.09986,-17.09986c-0.71227,-0.70679 -1.67533,-1.1026 -2.67898,-1.10214h-13.30005c-2.0985,0 -3.79982,1.70132 -3.79982,3.79982v13.30005c-0.00091,1.01277 0.40264,1.98404 1.12084,2.69813l17.09986,17.09986c0.71227,0.70679 1.67533,1.1026 2.67898,1.10214c1.00638,-0.0041 1.96945,-0.4072 2.67898,-1.12084l13.30005,-13.30005c0.71363,-0.70953 1.11674,-1.67259 1.12084,-2.67898c0.00091,-1.01277 -0.40264,-1.98404 -1.12084,-2.69813M36.90036,50.19973l-17.09986,-17.09986v-13.30005h13.30005l17.09986,17.09986M24.55016,21.69995c1.5741,0 2.84998,1.27588 2.84998,2.84998c0,1.5741 -1.27588,2.84998 -2.84998,2.84998c-1.5741,0 -2.84998,-1.27588 -2.84998,-2.84998c0,-1.5741 1.27588,-2.84998 2.84998,-2.84998z" id="icon" fill="#ffffff"/></g></svg>