<svg version="1.1" xmlns="http://www.w3.org/2000/svg" xmlns:xlink="http://www.w3.org/1999/xlink" width="70" height="70" viewBox="0,0,70,70" odoo-icon:version="1.0" xmlns:odoo-icon="https://ivantodorovich.github.io/odoo-icon" odoo-icon:size="70" odoo-icon:icon-size="0.62" odoo-icon:icon-color="#FFFFFF" odoo-icon:icon-flat-shadow-angle="135" odoo-icon:background-color="#eea544" odoo-icon:background-gradient="0.2" odoo-icon:box-radius="3.5" odoo-icon:odoo-version="14.0"><defs><linearGradient x1="70" y1="0" x2="0" y2="70" gradientUnits="userSpaceOnUse" id="color-1"><stop offset="0" stop-color="#ffd877"/><stop offset="1" stop-color="#eea544"/></linearGradient></defs><g fill="none" fill-rule="nonzero" stroke="none" stroke-width="1" stroke-linecap="butt" stroke-linejoin="miter" stroke-miterlimit="10" stroke-dasharray="" stroke-dashoffset="0" font-family="none" font-weight="none" font-size="none" text-anchor="none" style="mix-blend-mode: normal"><path d="M3.5,70c-1.933,0 -3.5,-1.567 -3.5,-3.5v-63c0,-1.933 1.567,-3.5 3.5,-3.5h63c1.933,0 3.5,1.567 3.5,3.5v63c0,1.933 -1.567,3.5 -3.5,3.5z" id="box" fill="url(#color-1)"/><path d="M65,1h-61c-1.95033,0 -3.2667,0.63396 -3.9491,1.90189c0.28378,-1.64806 1.72001,-2.90189 3.4491,-2.90189h63c1.72965,0 3.16627,1.25466 3.44938,2.90352c-0.69803,-1.26902 -2.34782,-1.90352 -4.94938,-1.90352z" id="topBoxShadow" fill="#ffffff" opacity="0.383"/><path d="M4,69h61c2.66667,0 4.33333,-1 5,-3v0.5c0,1.933 -1.567,3.5 -3.5,3.5h-63c-1.933,0 -3.5,-1.567 -3.5,-3.5c0,-0.1611 0,-0.32777 0,-0.5c0.66667,2 2,3 4,3z" id="bottomBoxShadow" fill="#000000" opacity="0.383"/><path d="M56.2898,48.777l-16.58415,-28.80088c-0.97728,-1.67152 -2.76872,-2.69929 -4.70483,-2.69929c-1.9366,0 -3.72755,1.02729 -4.70483,2.69929l-16.58415,28.80088c-0.94912,1.62297 -0.94912,3.63191 0,5.25488c0.96708,1.68075 2.7658,2.70949 4.70483,2.69104h33.1683c1.93805,0.01748 3.73483,-1.01126 4.70143,-2.69104c0.95009,-1.62249 0.95155,-3.63094 0.00388,-5.25488zM52.34523,51.75448c-0.1573,0.26799 -0.4481,0.42771 -0.75833,0.41703h-33.17024c-0.31022,0.01068 -0.60152,-0.14953 -0.75833,-0.41703c-0.13351,-0.21701 -0.13351,-0.49034 0,-0.70735l16.58415,-28.80088c0.16701,-0.25682 0.45247,-0.41169 0.75881,-0.41169c0.30634,0 0.59181,0.15487 0.75881,0.41169l16.58221,28.80088c0.13448,0.21604 0.13594,0.48985 0.00388,0.70735zM32.72487,39.27607v-6.06856c0,-1.25692 1.01903,-2.27547 2.27595,-2.27547c1.25692,0 2.27595,1.01903 2.27595,2.27595v6.06856c0,1.25692 -1.01903,2.27595 -2.27547,2.27595c-1.25692,0 -2.27547,-1.01903 -2.27547,-2.27547zM38.03461,46.86177c0,1.67589 -1.35839,3.03428 -3.03428,3.03428c-1.67589,0 -3.03428,-1.35839 -3.03428,-3.03428c0,-1.67589 1.35839,-3.03428 3.03428,-3.03428c1.67589,0 3.03428,1.35839 3.03428,3.03428z" id="shadow" fill="#000000" opacity="0.3"/><path d="M31.14702,16.87289c1.00894,-1.00894 2.38975,-1.59605 3.8538,-1.59605c1.93611,0 3.72755,1.02777 4.70483,2.69929l16.58415,28.80088h0.00049c0.94767,1.62395 0.94621,3.63239 -0.00388,5.25488c-0.23854,0.41453 -0.52763,0.78942 -0.85693,1.11872l-16.8494,16.8494h-35.08007c-1.933,0 -3.5,-1.567 -3.5,-3.5l0,-18.48009z" id="flatShadow" fill="#000000" opacity="0.324"/><path d="M56.2898,46.777l-16.58415,-28.80088c-0.97728,-1.67152 -2.76872,-2.69929 -4.70483,-2.69929c-1.9366,0 -3.72755,1.02729 -4.70483,2.69929l-16.58415,28.80088c-0.94912,1.62297 -0.94912,3.63191 0,5.25488c0.96708,1.68075 2.7658,2.70949 4.70483,2.69104h33.1683c1.93805,0.01748 3.73483,-1.01126 4.70143,-2.69104c0.95009,-1.62249 0.95155,-3.63094 0.00388,-5.25488zM52.34523,49.75448c-0.1573,0.26799 -0.4481,0.42771 -0.75833,0.41703h-33.17024c-0.31022,0.01068 -0.60152,-0.14953 -0.75833,-0.41703c-0.13351,-0.21701 -0.13351,-0.49034 0,-0.70735l16.58415,-28.80088c0.16701,-0.25682 0.45247,-0.41169 0.75881,-0.41169c0.30634,0 0.59181,0.15487 0.75881,0.41169l16.58221,28.80088c0.13448,0.21604 0.13594,0.48985 0.00388,0.70735zM32.72487,37.27607v-6.06856c0,-1.25692 1.01903,-2.27547 2.27595,-2.27547c1.25692,0 2.27595,1.01903 2.27595,2.27595v6.06856c0,1.25692 -1.01903,2.27595 -2.27547,2.27595c-1.25692,0 -2.27547,-1.01903 -2.27547,-2.27547zM38.03461,44.86177c0,1.67589 -1.35839,3.03428 -3.03428,3.03428c-1.67589,0 -3.03428,-1.35839 -3.03428,-3.03428c0,-1.67589 1.35839,-3.03428 3.03428,-3.03428c1.67589,0 3.03428,1.35839 3.03428,3.03428z" id="icon" fill="#ffffff"/></g></svg>