<svg version="1.1" xmlns="http://www.w3.org/2000/svg" xmlns:xlink="http://www.w3.org/1999/xlink" width="70" height="70" viewBox="0,0,70,70" odoo-icon:version="1.0" xmlns:odoo-icon="https://ivantodorovich.github.io/odoo-icon" odoo-icon:size="70" odoo-icon:icon-size="0.58" odoo-icon:icon-color="#FFFFFF" odoo-icon:icon-flat-shadow-angle="135" odoo-icon:background-color="#334984" odoo-icon:background-gradient="0.2" odoo-icon:box-radius="3.5" odoo-icon:odoo-version="14.0"><defs><linearGradient x1="70" y1="0" x2="0" y2="70" gradientUnits="userSpaceOnUse" id="color-1"><stop offset="0" stop-color="#667cb7"/><stop offset="1" stop-color="#334984"/></linearGradient></defs><g fill="none" fill-rule="nonzero" stroke="none" stroke-width="1" stroke-linecap="butt" stroke-linejoin="miter" stroke-miterlimit="10" stroke-dasharray="" stroke-dashoffset="0" font-family="none" font-weight="none" font-size="none" text-anchor="none" style="mix-blend-mode: normal"><path d="M3.5,70c-1.933,0 -3.5,-1.567 -3.5,-3.5v-63c0,-1.933 1.567,-3.5 3.5,-3.5h63c1.933,0 3.5,1.567 3.5,3.5v63c0,1.933 -1.567,3.5 -3.5,3.5z" id="box" fill="url(#color-1)"/><path d="M65,1h-61c-1.95033,0 -3.2667,0.63396 -3.9491,1.90189c0.28378,-1.64806 1.72001,-2.90189 3.4491,-2.90189h63c1.72965,0 3.16627,1.25466 3.44938,2.90352c-0.69803,-1.26902 -2.34782,-1.90352 -4.94938,-1.90352z" id="topBoxShadow" fill="#ffffff" opacity="0.383"/><path d="M4,69h61c2.66667,0 4.33333,-1 5,-3v0.5c0,1.933 -1.567,3.5 -3.5,3.5h-63c-1.933,0 -3.5,-1.567 -3.5,-3.5c0,-0.1611 0,-0.32777 0,-0.5c0.66667,2 2,3 4,3z" id="bottomBoxShadow" fill="#000000" opacity="0.383"/><path d="M39.80998,50.22002c-0.57399,1.82377 -2.06969,3.31997 -3.89396,3.89396c-3.0947,0.98369 -6.02513,-0.47119 -7.35705,-2.91026c-0.71711,-1.33192 0.34823,-2.93043 1.86509,-2.93043h0.02066c0.69695,0 1.3934,0.32806 1.72147,0.94287c0.34823,0.65563 1.02452,1.10666 1.82377,1.10666c1.12731,0 2.04953,-0.92221 2.04953,-2.04953c0,-1.12731 -0.92221,-2.04953 -2.04953,-2.04953h-17.43993c-1.12731,0 -2.04953,-0.92221 -2.04953,-2.04953c0,-1.12731 0.92221,-2.04953 2.04953,-2.04953h17.41976c4.01692,0 7.17261,3.89396 5.84069,8.09483zM49.15508,25.05366c-0.62809,-2.61614 -2.67122,-4.65927 -5.28736,-5.28736c-3.60672,-0.81991 -6.90652,1.086 -8.23845,4.05774c-0.63547,1.37324 0.34823,2.93043 1.84443,2.93043c0.79925,0 1.53702,-0.45102 1.84443,-1.16814c0.47463,-1.15486 1.59998,-1.90788 2.84878,-1.90591c1.70081,0 3.07405,1.37324 3.07405,3.07405c0,1.70081 -1.37324,3.07405 -3.07405,3.07405h-25.61689c-1.12731,0 -2.04953,0.92221 -2.04953,2.04953c0,1.12731 0.92221,2.04953 2.04953,2.04953h25.61689c4.50877,0 8.054,-4.1807 6.98817,-8.87391zM48.10991,35.97661h-31.56038c-1.12731,0 -2.04953,0.92221 -2.04953,2.04953c0,1.12731 0.92221,2.04953 2.04953,2.04953h31.76499c1.70081,0 3.07405,1.37324 3.07405,3.07405c0.00197,1.24831 -0.75105,2.37415 -1.90591,2.84878c-0.73777,0.3074 -1.16814,1.04518 -1.16814,1.84443c0,1.4962 1.55768,2.47989 2.93043,1.86509c3.09274,-1.38406 4.79994,-4.73895 4.09857,-8.054c-0.69695,-3.36079 -3.81182,-5.6769 -7.23409,-5.6769z" id="shadow" fill="#000000" opacity="0.3"/><path d="M15.10251,28.43054c0.37147,-0.37147 0.88385,-0.60202 1.44751,-0.60202l12.40998,0l8.14771,-8.14771c1.65964,-1.65964 4.12811,-2.51281 6.76001,-1.91451c2.61614,0.62809 4.65927,2.67122 5.28736,5.28736c0.59834,2.63467 -0.25649,5.10782 -1.91916,6.7705l-4.15245,4.15245h5.02644l-0.00049,0.00049c3.42227,0 6.53714,2.31611 7.23409,5.6769c0.51561,2.43701 -0.27044,4.89556 -1.95171,6.57682l-23.76918,23.76918h-26.12262c-1.933,0 -3.5,-1.567 -3.5,-3.5l0,-22.96695z" id="flatShadow" fill="#000000" opacity="0.324"/><path d="M39.80998,48.22002c-0.57399,1.82377 -2.06969,3.31997 -3.89396,3.89396c-3.0947,0.98369 -6.02513,-0.47119 -7.35705,-2.91026c-0.71711,-1.33192 0.34823,-2.93043 1.86509,-2.93043h0.02066c0.69695,0 1.3934,0.32806 1.72147,0.94287c0.34823,0.65563 1.02452,1.10666 1.82377,1.10666c1.12731,0 2.04953,-0.92221 2.04953,-2.04953c0,-1.12731 -0.92221,-2.04953 -2.04953,-2.04953h-17.43993c-1.12731,0 -2.04953,-0.92221 -2.04953,-2.04953c0,-1.12731 0.92221,-2.04953 2.04953,-2.04953h17.41976c4.01692,0 7.17261,3.89396 5.84069,8.09483zM49.15508,23.05366c-0.62809,-2.61614 -2.67122,-4.65927 -5.28736,-5.28736c-3.60672,-0.81991 -6.90652,1.086 -8.23845,4.05774c-0.63547,1.37324 0.34823,2.93043 1.84443,2.93043c0.79925,0 1.53702,-0.45102 1.84443,-1.16814c0.47463,-1.15486 1.59998,-1.90788 2.84878,-1.90591c1.70081,0 3.07405,1.37324 3.07405,3.07405c0,1.70081 -1.37324,3.07405 -3.07405,3.07405h-25.61689c-1.12731,0 -2.04953,0.92221 -2.04953,2.04953c0,1.12731 0.92221,2.04953 2.04953,2.04953h25.61689c4.50877,0 8.054,-4.1807 6.98817,-8.87391zM48.10991,33.97661h-31.56038c-1.12731,0 -2.04953,0.92221 -2.04953,2.04953c0,1.12731 0.92221,2.04953 2.04953,2.04953h31.76499c1.70081,0 3.07405,1.37324 3.07405,3.07405c0.00197,1.24831 -0.75105,2.37415 -1.90591,2.84878c-0.73777,0.3074 -1.16814,1.04518 -1.16814,1.84443c0,1.4962 1.55768,2.47989 2.93043,1.86509c3.09274,-1.38406 4.79994,-4.73895 4.09857,-8.054c-0.69695,-3.36079 -3.81182,-5.6769 -7.23409,-5.6769z" id="icon" fill="#ffffff"/></g></svg>