<svg version="1.1" xmlns="http://www.w3.org/2000/svg" xmlns:xlink="http://www.w3.org/1999/xlink" width="70" height="70" viewBox="0,0,70,70" odoo-icon:version="1.0" xmlns:odoo-icon="https://ivantodorovich.github.io/odoo-icon" odoo-icon:size="70" odoo-icon:icon-size="0.58" odoo-icon:icon-color="#FFFFFF" odoo-icon:icon-flat-shadow-angle="135" odoo-icon:background-color="#5a9442" odoo-icon:background-gradient="0.2" odoo-icon:box-radius="3.5" odoo-icon:odoo-version="14.0"><defs><linearGradient x1="70" y1="0" x2="0" y2="70" gradientUnits="userSpaceOnUse" id="color-1"><stop offset="0" stop-color="#8dc775"/><stop offset="1" stop-color="#5a9442"/></linearGradient></defs><g fill="none" fill-rule="nonzero" stroke="none" stroke-width="1" stroke-linecap="butt" stroke-linejoin="miter" stroke-miterlimit="10" stroke-dasharray="" stroke-dashoffset="0" font-family="none" font-weight="none" font-size="none" text-anchor="none" style="mix-blend-mode: normal"><path d="M3.5,70c-1.933,0 -3.5,-1.567 -3.5,-3.5v-63c0,-1.933 1.567,-3.5 3.5,-3.5h63c1.933,0 3.5,1.567 3.5,3.5v63c0,1.933 -1.567,3.5 -3.5,3.5z" id="box" fill="url(#color-1)"/><path d="M65,1h-61c-1.95033,0 -3.2667,0.63396 -3.9491,1.90189c0.28378,-1.64806 1.72001,-2.90189 3.4491,-2.90189h63c1.72965,0 3.16627,1.25466 3.44938,2.90352c-0.69803,-1.26902 -2.34782,-1.90352 -4.94938,-1.90352z" id="topBoxShadow" fill="#ffffff" opacity="0.383"/><path d="M4,69h61c2.66667,0 4.33333,-1 5,-3v0.5c0,1.933 -1.567,3.5 -3.5,3.5h-63c-1.933,0 -3.5,-1.567 -3.5,-3.5c0,-0.1611 0,-0.32777 0,-0.5c0.66667,2 2,3 4,3z" id="bottomBoxShadow" fill="#000000" opacity="0.383"/><path d="M43.76343,49.81231l7.12361,-7.07244l-2.15248,-2.15248l-4.97113,4.86879l-1.99898,-1.99898l-2.15248,2.20365zM45.24975,55.44961c-2.83587,0 -5.25255,-0.99974 -7.25104,-2.99921c-1.998,-1.99947 -2.99773,-4.41616 -2.99921,-7.25055c0,-2.83587 0.99974,-5.25353 2.99921,-7.25301c1.99947,-1.99947 4.41616,-2.99822 7.25104,-2.99724c2.83587,0 5.25353,0.99974 7.25301,2.99921c1.99947,1.99947 2.99822,4.41616 2.99724,7.25104c0,2.83587 -0.99974,5.25353 -2.99921,7.25301c-1.99947,1.99947 -4.41616,2.99822 -7.25055,2.99724zM14.5,47.25l9.22493,-14.35005l-9.22493,-14.35005h26.75229l9.48126,13.37639c-0.82016,-0.34145 -1.76823,-0.615 -2.84521,-0.82016c-1.07698,-0.20516 -2.059,-0.29028 -2.94558,-0.25633c-4.03142,0.06839 -7.37994,1.52912 -10.04508,4.3827c-2.66514,2.85358 -3.99747,6.19226 -3.99747,10.01606c0,0.34145 0.00886,0.67502 0.02657,1.00023c0.01771,0.32521 0.06002,0.6578 0.12693,0.99826h-16.5537z" id="shadow" fill="#000000" opacity="0.3"/><path d="M41.76445,41.4572l1.99898,1.99898l4.97113,-4.86879l0.56481,0.56481l3.20339,-3.20339c1.99947,1.99947 2.99822,4.41616 2.99724,7.25104c0,2.83587 -0.99974,5.25353 -2.99921,7.25301l-19.54714,19.54714l-19.73199,0zM14.5,16.5499h26.75229l9.48126,13.37639l-40.07371,40.07371h-7.15983c-1.933,0 -3.5,-1.567 -3.5,-3.5l0,-35.4501z" id="flatShadow" fill="#000000" opacity="0.324"/><path d="M43.76343,47.81231l7.12361,-7.07244l-2.15248,-2.15248l-4.97113,4.86879l-1.99898,-1.99898l-2.15248,2.20365zM45.24975,53.44961c-2.83587,0 -5.25255,-0.99974 -7.25104,-2.99921c-1.998,-1.99947 -2.99773,-4.41616 -2.99921,-7.25055c0,-2.83587 0.99974,-5.25353 2.99921,-7.25301c1.99947,-1.99947 4.41616,-2.99822 7.25104,-2.99724c2.83587,0 5.25353,0.99974 7.25301,2.99921c1.99947,1.99947 2.99822,4.41616 2.99724,7.25104c0,2.83587 -0.99974,5.25353 -2.99921,7.25301c-1.99947,1.99947 -4.41616,2.99822 -7.25055,2.99724zM14.5,45.25l9.22493,-14.35005l-9.22493,-14.35005h26.75229l9.48126,13.37639c-0.82016,-0.34145 -1.76823,-0.615 -2.84521,-0.82016c-1.07698,-0.20516 -2.059,-0.29028 -2.94558,-0.25633c-4.03142,0.06839 -7.37994,1.52912 -10.04508,4.3827c-2.66514,2.85358 -3.99747,6.19226 -3.99747,10.01606c0,0.34145 0.00886,0.67502 0.02657,1.00023c0.01771,0.32521 0.06002,0.6578 0.12693,0.99826h-16.5537z" id="icon" fill="#ffffff"/></g></svg>