<svg version="1.1" xmlns="http://www.w3.org/2000/svg" xmlns:xlink="http://www.w3.org/1999/xlink" width="70" height="70" viewBox="0,0,70,70" odoo-icon:version="1.0" xmlns:odoo-icon="https://ivantodorovich.github.io/odoo-icon" odoo-icon:size="70" odoo-icon:icon-size="0.56" odoo-icon:icon-color="#FFFFFF" odoo-icon:icon-flat-shadow-angle="135" odoo-icon:background-color="#5e57a6" odoo-icon:background-gradient="0.2" odoo-icon:box-radius="3.5" odoo-icon:odoo-version="14.0"><defs><linearGradient x1="70" y1="0" x2="0" y2="70" gradientUnits="userSpaceOnUse" id="color-1"><stop offset="0" stop-color="#918ad9"/><stop offset="1" stop-color="#5e57a6"/></linearGradient></defs><g fill="none" fill-rule="nonzero" stroke="none" stroke-width="1" stroke-linecap="butt" stroke-linejoin="miter" stroke-miterlimit="10" stroke-dasharray="" stroke-dashoffset="0" font-family="none" font-weight="none" font-size="none" text-anchor="none" style="mix-blend-mode: normal"><path d="M3.5,70c-1.933,0 -3.5,-1.567 -3.5,-3.5v-63c0,-1.933 1.567,-3.5 3.5,-3.5h63c1.933,0 3.5,1.567 3.5,3.5v63c0,1.933 -1.567,3.5 -3.5,3.5z" id="box" fill="url(#color-1)"/><path d="M65,1h-61c-1.95033,0 -3.2667,0.63396 -3.9491,1.90189c0.28378,-1.64806 1.72001,-2.90189 3.4491,-2.90189h63c1.72965,0 3.16627,1.25466 3.44938,2.90352c-0.69803,-1.26902 -2.34782,-1.90352 -4.94938,-1.90352z" id="topBoxShadow" fill="#ffffff" opacity="0.383"/><path d="M4,69h61c2.66667,0 4.33333,-1 5,-3v0.5c0,1.933 -1.567,3.5 -3.5,3.5h-63c-1.933,0 -3.5,-1.567 -3.5,-3.5c0,-0.1611 0,-0.32777 0,-0.5c0.66667,2 2,3 4,3z" id="bottomBoxShadow" fill="#000000" opacity="0.383"/><path d="M15.00212,17h34.44163v5.55531h-2.22223v-3.33308h-29.9977v25.55377h23.76138v2.22223h-25.98361zM48.33289,31.44316c1.84093,0 3.33308,-1.49215 3.33308,-3.33308c0,-1.84093 -1.49215,-3.33308 -3.33308,-3.33308c-1.84093,0 -3.33308,1.49215 -3.33308,3.33308c0,1.84093 1.49215,3.33308 3.33308,3.33308zM50.58925,33.67659c1.44309,0 2.5854,0.64902 3.33308,1.65107c0.69861,0.93859 0.99459,2.09957 1.06125,3.17202c0.06506,1.09965 -0.08426,2.20196 -0.44103,3.24402c-0.33331,0.96686 -0.89646,1.96625 -1.7652,2.65206v10.93463c0.0016,0.8682 -0.66342,1.59241 -1.52895,1.66387c-0.86553,0.07146 -1.64094,-0.53276 -1.78173,-1.38976l-1.43349,-8.60734h-0.33117l-1.61961,8.63934c-0.15945,0.84474 -0.93539,1.42976 -1.79186,1.3503c-0.85593,-0.07946 -1.51135,-0.79727 -1.51242,-1.65694v-15.85105c-0.22238,0.33864 -0.44157,0.67888 -0.65755,1.02126l-0.08639,0.13652l-0.0224,0.03573l-0.00533,0.01013c-0.30451,0.48903 -0.8394,0.78554 -1.41536,0.78554h-5.55531c-0.92046,0 -1.66654,-0.74608 -1.66654,-1.66654c0,-0.92046 0.74608,-1.66654 1.66654,-1.66654h4.64071c0.26985,-0.41757 0.62555,-0.95993 0.99886,-1.50442c0.38877,-0.56796 0.81754,-1.16898 1.19991,-1.63987c0.18559,-0.22985 0.39304,-0.46983 0.60209,-0.66662c0.10239,-0.09653 0.24425,-0.22238 0.41757,-0.33331c0.30611,-0.20052 0.66288,-0.30931 1.02872,-0.31304h6.66616z" id="shadow" fill="#000000" opacity="0.3"/><path d="M49.44374,15v5.55531l-2.54522,2.54522c0.43444,-0.20741 0.92083,-0.32352 1.43437,-0.32352c1.84093,0 3.33308,1.49215 3.33308,3.33308l-5.56757,5.56757l4.48979,0l0.00107,-0.00107c1.44309,0 2.5854,0.64902 3.33308,1.65107c0.69861,0.93859 0.99459,2.09957 1.06125,3.17202c0.06506,1.09965 -0.08426,2.20196 -0.44103,3.24402c-0.28131,0.81602 -0.72634,1.65521 -1.38063,2.3095l-0.38457,0.38457v10.89262c0.00085,0.4594 -0.18496,0.87849 -0.48835,1.18189l-15.48772,15.48772h-33.30128c-1.933,0 -3.5,-1.567 -3.5,-3.5l0,-36.49788l15.00212,-15.00212z" id="flatShadow" fill="#000000" opacity="0.324"/><path d="M15.00212,15h34.44163v5.55531h-2.22223v-3.33308h-29.9977v25.55377h23.76138v2.22223h-25.98361zM48.33289,29.44316c1.84093,0 3.33308,-1.49215 3.33308,-3.33308c0,-1.84093 -1.49215,-3.33308 -3.33308,-3.33308c-1.84093,0 -3.33308,1.49215 -3.33308,3.33308c0,1.84093 1.49215,3.33308 3.33308,3.33308zM50.58925,31.67659c1.44309,0 2.5854,0.64902 3.33308,1.65107c0.69861,0.93859 0.99459,2.09957 1.06125,3.17202c0.06506,1.09965 -0.08426,2.20196 -0.44103,3.24402c-0.33331,0.96686 -0.89646,1.96625 -1.7652,2.65206v10.93463c0.0016,0.8682 -0.66342,1.59241 -1.52895,1.66387c-0.86553,0.07146 -1.64094,-0.53276 -1.78173,-1.38976l-1.43349,-8.60734h-0.33117l-1.61961,8.63934c-0.15945,0.84474 -0.93539,1.42976 -1.79186,1.3503c-0.85593,-0.07946 -1.51135,-0.79727 -1.51242,-1.65694v-15.85105c-0.22238,0.33864 -0.44157,0.67888 -0.65755,1.02126l-0.08639,0.13652l-0.0224,0.03573l-0.00533,0.01013c-0.30451,0.48903 -0.8394,0.78554 -1.41536,0.78554h-5.55531c-0.92046,0 -1.66654,-0.74608 -1.66654,-1.66654c0,-0.92046 0.74608,-1.66654 1.66654,-1.66654h4.64071c0.26985,-0.41757 0.62555,-0.95993 0.99886,-1.50442c0.38877,-0.56796 0.81754,-1.16898 1.19991,-1.63987c0.18559,-0.22985 0.39304,-0.46983 0.60209,-0.66662c0.10239,-0.09653 0.24425,-0.22238 0.41757,-0.33331c0.30611,-0.20052 0.66288,-0.30931 1.02872,-0.31304h6.66616z" id="icon" fill="#ffffff"/></g></svg>