<svg version="1.1" xmlns="http://www.w3.org/2000/svg" xmlns:xlink="http://www.w3.org/1999/xlink" width="70" height="70" viewBox="0,0,70,70"><!-- Generated with https://ivantodorovich.github.io/odoo-icon --><defs><linearGradient x1="70" y1="0" x2="0" y2="70" gradientUnits="userSpaceOnUse" id="color-1"><stop offset="0" stop-color="#ff6c68"/><stop offset="1" stop-color="#e53935"/></linearGradient></defs><g fill="none" fill-rule="nonzero" stroke="none" stroke-width="1" stroke-linecap="butt" stroke-linejoin="miter" stroke-miterlimit="10" stroke-dasharray="" stroke-dashoffset="0" font-family="none" font-weight="none" font-size="none" text-anchor="none" style="mix-blend-mode: normal"><path d="M3.5,70c-1.933,0 -3.5,-1.567 -3.5,-3.5v-63c0,-1.933 1.567,-3.5 3.5,-3.5h63c1.933,0 3.5,1.567 3.5,3.5v63c0,1.933 -1.567,3.5 -3.5,3.5z" id="box" fill="url(#color-1)"/><path d="M65,1h-61c-1.95033,0 -3.2667,0.63396 -3.9491,1.90189c0.28378,-1.64806 1.72001,-2.90189 3.4491,-2.90189h63c1.72965,0 3.16627,1.25466 3.44938,2.90352c-0.69803,-1.26902 -2.34782,-1.90352 -4.94938,-1.90352z" id="topBoxShadow" fill="#ffffff" opacity="0.383"/><path d="M4,69h61c2.66667,0 4.33333,-1 5,-3v0.5c0,1.933 -1.567,3.5 -3.5,3.5h-63c-1.933,0 -3.5,-1.567 -3.5,-3.5c0,-0.1611 0,-0.32777 0,-0.5c0.66667,2 2,3 4,3z" id="bottomBoxShadow" fill="#000000" opacity="0.383"/><path d="M36.02787,52.44737c-0.70993,-2.06535 -2.65414,-3.45047 -4.83789,-3.44773c-2.85711,0 -5.1428,2.28569 -5.1428,5.1428v2.85711h-7.23786c-2.10375,0 -3.80933,-1.70558 -3.80933,-3.80933v-7.23786h2.85711c2.85711,0 5.1428,-2.28569 5.1428,-5.1428c0,-2.85711 -2.28569,-5.1428 -5.1428,-5.1428h-2.85711v-7.23786c0,-2.09506 1.71427,-3.80933 3.80933,-3.80933h7.61911v-2.85711c0,-2.62991 2.13209,-4.762 4.762,-4.762c2.62991,0 4.762,2.13209 4.762,4.762v2.85711h7.61911c2.10375,0 3.80933,1.70558 3.80933,3.80933v7.61911h2.85711c2.62991,0 4.762,2.13209 4.762,4.762c0,0.60936 -0.11428,1.18079 -0.32365,1.69507c-2.04752,-1.70787 -4.62898,-2.64454 -7.295,-2.64774c-6.30484,0 -11.42844,5.1236 -11.42844,11.42844c0,0.3808 0,0.78079 0.07634,1.16204M39.76132,49.38089v3.80933h15.23777v-3.80933z" id="shadow" fill="#000000" opacity="0.3"/><path d="M16.11902,23.73859c0.69045,-0.69045 1.64278,-1.11902 2.69031,-1.11902l4.762,0l7.61911,-7.61911c2.62991,0 4.762,2.13209 4.762,4.762v2.85711h7.61911c2.10375,0 3.80933,1.70558 3.80933,3.80933v7.61911h2.85711c2.62991,0 4.762,2.13209 4.762,4.762c0,0.60936 -0.11428,1.18079 -0.32365,1.69507l-6.87581,6.87581h7.19855v3.80933l-18.80979,18.80979h-32.6893c-1.933,0 -3.5,-1.567 -3.5,-3.5l0,-26.6424z" id="flatShadow" fill="#000000" opacity="0.324"/><path d="M36.02787,50.44737c-0.70993,-2.06535 -2.65414,-3.45047 -4.83789,-3.44773c-2.85711,0 -5.1428,2.28569 -5.1428,5.1428v2.85711h-7.23786c-2.10375,0 -3.80933,-1.70558 -3.80933,-3.80933v-7.23786h2.85711c2.85711,0 5.1428,-2.28569 5.1428,-5.1428c0,-2.85711 -2.28569,-5.1428 -5.1428,-5.1428h-2.85711v-7.23786c0,-2.09506 1.71427,-3.80933 3.80933,-3.80933h7.61911v-2.85711c0,-2.62991 2.13209,-4.762 4.762,-4.762c2.62991,0 4.762,2.13209 4.762,4.762v2.85711h7.61911c2.10375,0 3.80933,1.70558 3.80933,3.80933v7.61911h2.85711c2.62991,0 4.762,2.13209 4.762,4.762c0,0.60936 -0.11428,1.18079 -0.32365,1.69507c-2.04752,-1.70787 -4.62898,-2.64454 -7.295,-2.64774c-6.30484,0 -11.42844,5.1236 -11.42844,11.42844c0,0.3808 0,0.78079 0.07634,1.16204M39.76132,47.38089v3.80933h15.23777v-3.80933z" id="icon" fill="#ffffff"/></g></svg>