<svg version="1.1" xmlns="http://www.w3.org/2000/svg" xmlns:xlink="http://www.w3.org/1999/xlink" width="70" height="70" viewBox="0,0,70,70" odoo-icon:version="1.0" xmlns:odoo-icon="https://ivantodorovich.github.io/odoo-icon" odoo-icon:size="70" odoo-icon:icon-size="0.58" odoo-icon:icon-color="#FFFFFF" odoo-icon:icon-flat-shadow-angle="135" odoo-icon:background-color="#334984" odoo-icon:background-gradient="0.2" odoo-icon:box-radius="3.5" odoo-icon:odoo-version="14.0"><defs><linearGradient x1="70" y1="0" x2="0" y2="70" gradientUnits="userSpaceOnUse" id="color-1"><stop offset="0" stop-color="#667cb7"/><stop offset="1" stop-color="#334984"/></linearGradient></defs><g fill="none" fill-rule="nonzero" stroke="none" stroke-width="1" stroke-linecap="butt" stroke-linejoin="miter" stroke-miterlimit="10" stroke-dasharray="" stroke-dashoffset="0" font-family="none" font-weight="none" font-size="none" text-anchor="none" style="mix-blend-mode: normal"><path d="M3.5,70c-1.933,0 -3.5,-1.567 -3.5,-3.5v-63c0,-1.933 1.567,-3.5 3.5,-3.5h63c1.933,0 3.5,1.567 3.5,3.5v63c0,1.933 -1.567,3.5 -3.5,3.5z" id="box" fill="url(#color-1)"/><path d="M65,1h-61c-1.95033,0 -3.2667,0.63396 -3.9491,1.90189c0.28378,-1.64806 1.72001,-2.90189 3.4491,-2.90189h63c1.72965,0 3.16627,1.25466 3.44938,2.90352c-0.69803,-1.26902 -2.34782,-1.90352 -4.94938,-1.90352z" id="topBoxShadow" fill="#ffffff" opacity="0.383"/><path d="M4,69h61c2.66667,0 4.33333,-1 5,-3v0.5c0,1.933 -1.567,3.5 -3.5,3.5h-63c-1.933,0 -3.5,-1.567 -3.5,-3.5c0,-0.1611 0,-0.32777 0,-0.5c0.66667,2 2,3 4,3z" id="bottomBoxShadow" fill="#000000" opacity="0.383"/><path d="M46.71429,44.32143h2.92857v7.32143h-2.92857zM40.85714,37h2.92857v14.64286h-2.92857zM27.67857,51.64286c-4.04143,-0.00469 -7.31674,-3.28 -7.32143,-7.32143h2.92857c0,2.42626 1.96659,4.39286 4.39286,4.39286c2.42626,0 4.39286,-1.96659 4.39286,-4.39286c0,-2.42626 -1.96659,-4.39286 -4.39286,-4.39286v-2.92857c4.0433,0 7.32143,3.27813 7.32143,7.32143c0,4.0433 -3.27813,7.32143 -7.32143,7.32143zM55.5,19.42857v35.14286c-0.00234,1.61657 -1.312,2.92623 -2.92857,2.92857h-35.14286c-1.61657,-0.00141 -2.92717,-1.312 -2.92857,-2.92857v-35.14286c0.00141,-1.61657 1.312,-2.92717 2.92857,-2.92857h35.14286c1.61657,0.00141 2.92717,1.312 2.92857,2.92857zM52.57143,19.42857h-20.5v10.25h20.5zM17.42857,19.42857v10.25h11.71429v-10.25zM52.57424,54.57143l-0.00281,-21.96429h-35.14286v21.96429z" id="shadow" fill="#000000" opacity="0.3"/><path d="M55.5,52.57143c-0.00117,0.80829 -0.32917,1.53984 -0.85895,2.06962l-15.35895,15.35895h-35.7821c-1.933,0 -3.5,-1.567 -3.5,-3.5l0,-35.7828l15.3586,-15.3586c0.5299,-0.5299 1.26169,-0.8579 2.06997,-0.8586h35.14286c1.61657,0.00141 2.92717,1.312 2.92857,2.92857z" id="flatShadow" fill="#000000" opacity="0.324"/><path d="M46.71429,42.32143h2.92857v7.32143h-2.92857zM40.85714,35h2.92857v14.64286h-2.92857zM27.67857,49.64286c-4.04143,-0.00469 -7.31674,-3.28 -7.32143,-7.32143h2.92857c0,2.42626 1.96659,4.39286 4.39286,4.39286c2.42626,0 4.39286,-1.96659 4.39286,-4.39286c0,-2.42626 -1.96659,-4.39286 -4.39286,-4.39286v-2.92857c4.0433,0 7.32143,3.27813 7.32143,7.32143c0,4.0433 -3.27813,7.32143 -7.32143,7.32143zM55.5,17.42857v35.14286c-0.00234,1.61657 -1.312,2.92623 -2.92857,2.92857h-35.14286c-1.61657,-0.00141 -2.92717,-1.312 -2.92857,-2.92857v-35.14286c0.00141,-1.61657 1.312,-2.92717 2.92857,-2.92857h35.14286c1.61657,0.00141 2.92717,1.312 2.92857,2.92857zM52.57143,17.42857h-20.5v10.25h20.5zM17.42857,17.42857v10.25h11.71429v-10.25zM52.57424,52.57143l-0.00281,-21.96429h-35.14286v21.96429z" id="icon" fill="#ffffff"/></g></svg>