<svg version="1.1" xmlns="http://www.w3.org/2000/svg" xmlns:xlink="http://www.w3.org/1999/xlink" width="70" height="70" viewBox="0,0,70,70" odoo-icon:version="1.0" xmlns:odoo-icon="https://ivantodorovich.github.io/odoo-icon" odoo-icon:size="70" odoo-icon:icon-size="0.65" odoo-icon:icon-color="#FFFFFF" odoo-icon:icon-flat-shadow-angle="135" odoo-icon:background-color="#e53935" odoo-icon:background-gradient="0.2" odoo-icon:box-radius="3.5" odoo-icon:odoo-version="14.0"><defs><linearGradient x1="70" y1="0" x2="0" y2="70" gradientUnits="userSpaceOnUse" id="color-1"><stop offset="0" stop-color="#ff6c68"/><stop offset="1" stop-color="#e53935"/></linearGradient></defs><g fill="none" fill-rule="nonzero" stroke="none" stroke-width="1" stroke-linecap="butt" stroke-linejoin="miter" stroke-miterlimit="10" stroke-dasharray="" stroke-dashoffset="0" font-family="none" font-weight="none" font-size="none" text-anchor="none" style="mix-blend-mode: normal"><path d="M3.5,70c-1.933,0 -3.5,-1.567 -3.5,-3.5v-63c0,-1.933 1.567,-3.5 3.5,-3.5h63c1.933,0 3.5,1.567 3.5,3.5v63c0,1.933 -1.567,3.5 -3.5,3.5z" id="box" fill="url(#color-1)"/><path d="M65,1h-61c-1.95033,0 -3.2667,0.63396 -3.9491,1.90189c0.28378,-1.64806 1.72001,-2.90189 3.4491,-2.90189h63c1.72965,0 3.16627,1.25466 3.44938,2.90352c-0.69803,-1.26902 -2.34782,-1.90352 -4.94938,-1.90352z" id="topBoxShadow" fill="#ffffff" opacity="0.383"/><path d="M4,69h61c2.66667,0 4.33333,-1 5,-3v0.5c0,1.933 -1.567,3.5 -3.5,3.5h-63c-1.933,0 -3.5,-1.567 -3.5,-3.5c0,-0.1611 0,-0.32777 0,-0.5c0.66667,2 2,3 4,3z" id="bottomBoxShadow" fill="#000000" opacity="0.383"/><path d="M13.64282,14v42.71331h26.28511v-3.28564h-22.99947v-36.14203h16.4282v9.85692h9.85692v3.28564h3.28564v-5.58559l-0.49311,-0.49311l-9.85692,-9.85692l-0.49311,-0.49258zM36.64229,19.58559l4.27133,4.27133h-4.27133zM20.2141,30.4282v3.28564h19.71384v-3.28564zM48.14203,33.71384v3.28564c-2.79253,0.49311 -4.92846,2.79253 -4.92846,5.75013c0,3.28564 2.46449,5.75013 5.75013,5.75013h1.64282c1.31426,0 2.46449,1.14971 2.46449,2.46449c0,1.31426 -1.14971,2.46449 -2.46397,2.46449h-5.74961v3.28564h3.28564v3.28564h3.28564v-3.28564c2.79253,-0.49311 4.92846,-2.79253 4.92846,-5.74961c0,-3.28564 -2.46397,-5.74961 -5.74961,-5.74961h-1.64282c-1.31426,0 -2.46397,-1.14971 -2.46397,-2.46397c0,-1.31426 1.14971,-2.46397 2.46449,-2.46397h5.75013v-3.28564h-3.28564v-3.28564zM20.2141,38.64229v3.28564h11.49974v-3.28564zM34.99947,38.64229v3.28564h4.92846v-3.28564zM20.2141,45.21357v3.28564h11.49974v-3.28564zM34.99947,45.21357v3.28564h4.92846v-3.28564z" id="shadow" fill="#000000" opacity="0.3"/><path d="M36.14919,12.49258l10.35003,10.35003v5.58559l-8.2141,8.2141h1.64282l0,3.28564l8.2141,-8.2141l3.28774,0.0021v3.28564h3.28564v3.28564l-4.92793,4.92793h0.8201c3.28564,0 5.74961,2.46397 5.74961,5.74961c0,1.61743 -0.63902,3.0381 -1.67497,4.07406l-3.25349,3.25349v1.7077l-12,12h-35.92872c-1.933,0 -3.5,-1.567 -3.5,-3.5l0,-40.85718l13.64282,-13.64282l22.01326,0z" id="flatShadow" fill="#000000" opacity="0.324"/><path d="M13.64282,12v42.71331h26.28511v-3.28564h-22.99947v-36.14203h16.4282v9.85692h9.85692v3.28564h3.28564v-5.58559l-0.49311,-0.49311l-9.85692,-9.85692l-0.49311,-0.49258zM36.64229,17.58559l4.27133,4.27133h-4.27133zM20.2141,28.4282v3.28564h19.71384v-3.28564zM48.14203,31.71384v3.28564c-2.79253,0.49311 -4.92846,2.79253 -4.92846,5.75013c0,3.28564 2.46449,5.75013 5.75013,5.75013h1.64282c1.31426,0 2.46449,1.14971 2.46449,2.46449c0,1.31426 -1.14971,2.46449 -2.46397,2.46449h-5.74961v3.28564h3.28564v3.28564h3.28564v-3.28564c2.79253,-0.49311 4.92846,-2.79253 4.92846,-5.74961c0,-3.28564 -2.46397,-5.74961 -5.74961,-5.74961h-1.64282c-1.31426,0 -2.46397,-1.14971 -2.46397,-2.46397c0,-1.31426 1.14971,-2.46397 2.46449,-2.46397h5.75013v-3.28564h-3.28564v-3.28564zM20.2141,36.64229v3.28564h11.49974v-3.28564zM34.99947,36.64229v3.28564h4.92846v-3.28564zM20.2141,43.21357v3.28564h11.49974v-3.28564zM34.99947,43.21357v3.28564h4.92846v-3.28564z" id="icon" fill="#ffffff"/></g></svg>