<svg version="1.1" xmlns="http://www.w3.org/2000/svg" xmlns:xlink="http://www.w3.org/1999/xlink" width="70" height="70" viewBox="0,0,70,70" odoo-icon:version="1.0" xmlns:odoo-icon="https://ivantodorovich.github.io/odoo-icon" odoo-icon:size="70" odoo-icon:icon-size="0.54" odoo-icon:icon-color="#FFFFFF" odoo-icon:icon-flat-shadow-angle="135" odoo-icon:background-color="#e53935" odoo-icon:background-gradient="0.2" odoo-icon:box-radius="3.5" odoo-icon:odoo-version="14.0"><defs><linearGradient x1="70" y1="0" x2="0" y2="70" gradientUnits="userSpaceOnUse" id="color-1"><stop offset="0" stop-color="#ff6c68"/><stop offset="1" stop-color="#e53935"/></linearGradient></defs><g fill="none" fill-rule="nonzero" stroke="none" stroke-width="1" stroke-linecap="butt" stroke-linejoin="miter" stroke-miterlimit="10" stroke-dasharray="" stroke-dashoffset="0" font-family="none" font-weight="none" font-size="none" text-anchor="none" style="mix-blend-mode: normal"><path d="M3.5,70c-1.933,0 -3.5,-1.567 -3.5,-3.5v-63c0,-1.933 1.567,-3.5 3.5,-3.5h63c1.933,0 3.5,1.567 3.5,3.5v63c0,1.933 -1.567,3.5 -3.5,3.5z" id="box" fill="url(#color-1)"/><path d="M65,1h-61c-1.95033,0 -3.2667,0.63396 -3.9491,1.90189c0.28378,-1.64806 1.72001,-2.90189 3.4491,-2.90189h63c1.72965,0 3.16627,1.25466 3.44938,2.90352c-0.69803,-1.26902 -2.34782,-1.90352 -4.94938,-1.90352z" id="topBoxShadow" fill="#ffffff" opacity="0.383"/><path d="M4,69h61c2.66667,0 4.33333,-1 5,-3v0.5c0,1.933 -1.567,3.5 -3.5,3.5h-63c-1.933,0 -3.5,-1.567 -3.5,-3.5c0,-0.1611 0,-0.32777 0,-0.5c0.66667,2 2,3 4,3z" id="bottomBoxShadow" fill="#000000" opacity="0.383"/><path d="M34.06366,18.04205c0.5747,-0.0239 1.14902,-0.02155 1.72372,-0.00705c0.27658,0.01058 0.55159,0.03056 0.8266,0.05602c0.37687,0.02076 0.75021,0.07874 1.12394,0.12379c0.22448,0.03291 0.4466,0.07483 0.67029,0.11165c0.60526,0.10186 1.20034,0.25111 1.79189,0.4133c0.93786,0.26561 1.85339,0.60604 2.73954,1.01073c2.03477,0.93669 3.90266,2.23496 5.4877,3.81647c1.5345,1.53724 2.81319,3.33226 3.74557,5.29417c0.08658,0.19823 0.18687,0.39019 0.266,0.59233c0.21547,0.49204 0.41291,0.99231 0.58058,1.50199c0.31732,0.94334 0.56217,1.91215 0.72161,2.89467c0.04348,0.24015 0.07953,0.48186 0.10734,0.72475c0.04231,0.29303 0.07208,0.58842 0.0905,0.88458c0.06346,0.63817 0.06425,1.28025 0.05915,1.92038c-0.00548,0.38039 -0.01998,0.7604 -0.05759,1.13922c-0.01841,0.25856 -0.03918,0.51712 -0.07522,0.7745c-0.02977,0.20802 -0.04819,0.41761 -0.08501,0.62524c-0.06895,0.39411 -0.13006,0.78899 -0.21977,1.17918c-0.31419,1.41541 -0.78899,2.79674 -1.41815,4.10363c-1.20817,2.51193 -2.97498,4.75708 -5.14217,6.51292c-1.3257,1.08242 -2.79243,1.97954 -4.36023,2.66746c-0.47559,0.20489 -0.95471,0.40155 -1.44557,0.56687c-0.26874,0.08893 -0.5371,0.18217 -0.80976,0.25934c-0.50732,0.14377 -1.01817,0.27854 -1.53529,0.38274c-0.35689,0.06973 -0.71574,0.13241 -1.07497,0.18961c-0.40233,0.05054 -0.80427,0.11008 -1.20974,0.1332c-0.51241,0.05054 -1.02757,0.06425 -1.54155,0.0619c-0.5226,0.00235 -1.04559,-0.00901 -1.56663,-0.06033c-0.2519,-0.01763 -0.5034,-0.03839 -0.75295,-0.07287c-0.20841,-0.02977 -0.41839,-0.04819 -0.62602,-0.08501c-0.31575,-0.05524 -0.6319,-0.10499 -0.94609,-0.17002c-0.32555,-0.07208 -0.65031,-0.14456 -0.97233,-0.23114c-0.66128,-0.1661 -1.30846,-0.38353 -1.94663,-0.62211c-0.80349,-0.31536 -1.59287,-0.66951 -2.34739,-1.09025c-0.16415,-0.08814 -0.3279,-0.17511 -0.48656,-0.27305c-0.85951,-0.5034 -1.67475,-1.07889 -2.44533,-1.70923c-2.65688,-2.17385 -4.70497,-5.08302 -5.84929,-8.31695c-0.23662,-0.66873 -0.43759,-1.35038 -0.59743,-2.04143c-0.11322,-0.47128 -0.19313,-0.9504 -0.27423,-1.42795c-0.03056,-0.17982 -0.04662,-0.36198 -0.07287,-0.54258c-0.04584,-0.30283 -0.05759,-0.60918 -0.08971,-0.91357c-0.06111,-0.72475 -0.05445,-1.45302 -0.03918,-2.17972c0.01058,-0.26874 0.02586,-0.53631 0.05367,-0.80427c0.0239,-0.2425 0.03526,-0.48734 0.07052,-0.72827c0.03134,-0.21507 0.04975,-0.4325 0.08893,-0.64561c0.05367,-0.30165 0.09951,-0.60448 0.16258,-0.90456c0.26287,-1.26419 0.64875,-2.50449 1.169,-3.68641c0.08814,-0.2233 0.19862,-0.43759 0.29577,-0.65736c0.61662,-1.27869 1.37153,-2.49117 2.25925,-3.60062c1.53215,-1.94193 3.45528,-3.57163 5.61345,-4.7798c0.5747,-0.31771 1.16155,-0.61584 1.7676,-0.87009c1.21209,-0.52652 2.48294,-0.91436 3.77769,-1.17683c0.26874,-0.05132 0.53945,-0.0948 0.80897,-0.14142c0.20058,-0.03604 0.40468,-0.05367 0.60604,-0.08266c0.27031,-0.04074 0.54415,-0.0521 0.81602,-0.07953c0.18843,-0.01841 0.37608,-0.02742 0.56373,-0.03918M34.72573,19.90993c-0.70712,0.00784 -1.41188,0.07561 -2.11234,0.1708c-0.55943,0.08266 -1.11337,0.19901 -1.66339,0.32907c-1.06557,0.26796 -2.10529,0.63817 -3.09995,1.10318c-0.80153,0.38196 -1.5776,0.81877 -2.31214,1.31747c-0.32006,0.2233 -0.64365,0.44386 -0.9453,0.69106c-0.38901,0.30361 -0.7647,0.62524 -1.12473,0.96332c-0.19235,0.1712 -0.36864,0.35963 -0.55316,0.54023c-2.16209,2.20284 -3.71109,5.0031 -4.40528,8.01021c-0.15631,0.64561 -0.27109,1.30219 -0.34004,1.96269c-0.08423,0.68009 -0.11047,1.36566 -0.10812,2.05044c0.00862,0.5465 0.02899,1.0926 0.09363,1.63518c0.0474,0.54493 0.14338,1.08359 0.24524,1.62069c0.08188,0.35571 0.15553,0.71299 0.25503,1.0644c0.48186,1.78875 1.26419,3.4968 2.30391,5.03091c0.66207,0.9931 1.43891,1.90745 2.29686,2.7368c1.24735,1.21052 2.68548,2.22203 4.23996,3.00084c0.55786,0.26914 1.12316,0.52573 1.70609,0.73689c0.38627,0.13476 0.77058,0.27305 1.16586,0.38118c0.86264,0.2472 1.74448,0.42858 2.63455,0.54023c0.22291,0.02233 0.44503,0.04662 0.66794,0.06895c1.05891,0.08266 2.12527,0.07639 3.18261,-0.03291c0.34083,-0.04584 0.68322,-0.07561 1.02287,-0.13633c0.27815,-0.05132 0.55786,-0.09559 0.83287,-0.16062c0.31654,-0.07483 0.63425,-0.14612 0.94687,-0.23505c2.03007,-0.56178 3.95163,-1.50826 5.63735,-2.7697c1.20895,-0.90456 2.29529,-1.97092 3.22688,-3.15833c0.24994,-0.30753 0.47285,-0.63582 0.69967,-0.96019c0.25973,-0.38705 0.50419,-0.78429 0.73532,-1.18898c0.18373,-0.33965 0.36316,-0.68165 0.53239,-1.02914c0.43602,-0.92219 0.78743,-1.88395 1.05343,-2.86843c0.19862,-0.76588 0.36394,-1.54273 0.45208,-2.32976c0.13555,-1.03071 0.14847,-2.07356 0.09872,-3.11014c-0.02233,-0.29773 -0.05132,-0.59468 -0.07678,-0.89203c-0.1708,-1.46007 -0.52025,-2.90055 -1.05891,-4.26934c-0.456,-1.15763 -1.03658,-2.26708 -1.73234,-3.30014c-0.97233,-1.43852 -2.16366,-2.73014 -3.52187,-3.81256c-1.91921,-1.53019 -4.17297,-2.64356 -6.56189,-3.21983c-0.59586,-0.14769 -1.2019,-0.25542 -1.8103,-0.34043c-0.29969,-0.04505 -0.60134,-0.06268 -0.90182,-0.0948c-0.56609,-0.04348 -1.13452,-0.05524 -1.70217,-0.04427zM26.67047,23.65041c1.01895,-0.68009 2.15112,-1.17683 3.31738,-1.5439c-0.24289,0.13555 -0.49322,0.25856 -0.73023,0.40468c-0.85873,0.51124 -1.64889,1.14001 -2.32741,1.87376c-0.52103,0.56844 -0.97743,1.20347 -1.30337,1.90432c-0.2519,0.52495 -0.43211,1.08555 -0.52573,1.66104c-0.0713,0.37099 -0.09951,0.7506 -0.08971,1.12864c0.00979,1.0452 0.34004,2.07199 0.86499,2.97028c0.45365,0.78194 1.04442,1.47887 1.71314,2.0857c0.37138,0.33377 0.78468,0.61897 1.14549,0.96411c0.17316,0.16767 0.34396,0.33808 0.49244,0.52887c0.20058,0.25307 0.37452,0.53474 0.45874,0.84932c0.06895,0.23114 0.05054,0.47441 0.05289,0.71221c0.00157,0.3138 -0.00313,0.62759 0.00235,0.94099c0.01058,0.2707 -0.00157,0.54258 0.00862,0.81328c0.00627,0.18217 0.00157,0.36433 0.00392,0.5465c0.01214,0.44151 0.0047,0.88223 0.01136,1.32374c0.00862,0.22252 0.00157,0.44542 0.00979,0.66873c0.00235,0.12458 0.00979,0.25111 -0.00235,0.37569c-0.06973,0.00901 -0.13946,0.01371 -0.2092,0.01214c-0.84188,0 -1.67632,-0.20136 -2.44768,-0.53044c-0.45953,-0.20645 -0.90495,-0.45052 -1.30924,-0.75217c-0.44033,-0.32046 -0.84972,-0.68557 -1.20974,-1.09495c-0.50027,-0.55394 -0.91788,-1.17761 -1.2732,-1.83263c-0.08188,-0.15513 -0.17159,-0.30753 -0.24367,-0.46815c-0.08893,-0.20215 -0.20058,-0.39332 -0.28128,-0.59821c-0.31027,-0.74081 -0.5034,-1.52588 -0.61897,-2.31919c-0.03761,-0.33965 -0.08344,-0.6793 -0.09206,-1.0213c-0.05367,-1.20347 0.06425,-2.41399 0.35767,-3.5826c0.16258,-0.62367 0.36551,-1.23794 0.6366,-1.82323c0.48421,-1.08634 1.17526,-2.07982 2.01479,-2.9221c0.48107,-0.47441 1.00603,-0.90613 1.57289,-1.27555zM40.10609,22.1112c0.20998,0.0568 0.41448,0.1332 0.61976,0.20489c0.48734,0.17825 0.97155,0.37021 1.43343,0.60918c1.00446,0.49283 1.93919,1.13335 2.74424,1.91059c0.78155,0.76118 1.43578,1.65281 1.92587,2.6275c0.09794,0.21037 0.20215,0.41761 0.29186,0.6319c0.48343,1.15528 0.76627,2.39166 0.86029,3.63979c0.03134,0.34749 0.03369,0.69536 0.03447,1.04363c0.00548,0.89046 -0.114,1.77896 -0.32947,2.64199c-0.15083,0.55629 -0.33338,1.10867 -0.60213,1.62069c-0.24367,0.50811 -0.51163,1.00681 -0.83052,1.47221c-0.53161,0.80114 -1.19524,1.5204 -1.97797,2.08257c-0.8031,0.5845 -1.73469,0.99623 -2.71212,1.17683c-0.26874,0.05289 -0.54258,0.08266 -0.81681,0.09245c-0.14182,0.0047 -0.2852,0.01214 -0.42584,-0.00784c-0.02155,-0.16454 0,-0.32986 -0.00078,-0.49439c-0.00235,-0.28559 0.01058,-0.57 0.00784,-0.85481c0.01449,-0.5371 0.00157,-1.07497 0.01606,-1.61207c0.00235,-0.18217 -0.00235,-0.36433 0.00235,-0.5465c0.01293,-0.38784 -0.00313,-0.77567 0.01058,-1.1639c0.00784,-0.22878 -0.01841,-0.46227 0.03918,-0.68557c0.05054,-0.19118 0.13633,-0.37178 0.23662,-0.5418c0.34161,-0.55943 0.84737,-0.99153 1.35469,-1.397c0.41213,-0.31967 0.80231,-0.67108 1.15058,-1.05891c0.58842,-0.64052 1.08555,-1.36801 1.43891,-2.16288c0.19157,-0.45365 0.34631,-0.92572 0.42505,-1.41228c0.06581,-0.33456 0.08109,-0.67578 0.07757,-1.01543c-0.00157,-0.60056 -0.10734,-1.19759 -0.27893,-1.77269c-0.13398,-0.43837 -0.32712,-0.85559 -0.54336,-1.25871c-0.29656,-0.53044 -0.66285,-1.01856 -1.06949,-1.46908c-0.76157,-0.83013 -1.66652,-1.52588 -2.651,-2.07356c-0.14182,-0.07796 -0.29421,-0.13907 -0.43132,-0.22722zM32.38382,26.58347c0.07522,-0.0901 0.15239,-0.17825 0.23897,-0.25856c-0.04662,0.0713 -0.09716,0.13868 -0.14926,0.20489c-0.2374,0.29695 -0.42427,0.63582 -0.53866,0.99937c-0.0666,0.25033 -0.12889,0.50497 -0.13241,0.7651c-0.00548,0.19274 -0.00627,0.38784 0.02468,0.5794c0.08658,0.58371 0.33182,1.13609 0.67186,1.61599c0.15318,0.20645 0.32555,0.40312 0.53004,0.56099c0.12419,0.09716 0.27031,0.15984 0.40899,0.23349c0.23819,0.1285 0.48421,0.2472 0.69497,0.41918c0.2045,0.15984 0.34866,0.40782 0.33691,0.67264c-0.00078,5.63696 0,11.27352 -0.00078,16.91126c0,0.10342 -0.00627,0.20645 0.00313,0.30909c0.00979,0.11322 0.06268,0.21664 0.11243,0.31771c0.06581,0.12693 0.13633,0.25542 0.24367,0.35336c0.06503,0.05876 0.15083,0.10695 0.24132,0.0948c0.11478,-0.01528 0.20371,-0.10342 0.26443,-0.19666c0.07365,-0.11557 0.12889,-0.24171 0.17472,-0.37099c0.05837,-0.16297 0.03369,-0.33808 0.04153,-0.50732c0.01058,-0.30831 -0.00157,-0.61662 0.01058,-0.92493c0.00235,-0.45052 0.00235,-0.90064 0.0047,-1.35116c0.01058,-0.27697 0.00235,-0.55394 0.00862,-0.83091c0.01136,-0.30831 -0.00157,-0.61662 0.01058,-0.92493c0.00235,-0.45835 0.00235,-0.91671 0.00548,-1.37506c0.01058,-0.27697 0.00157,-0.55394 0.00862,-0.83091c0.01058,-0.30087 -0.00157,-0.60134 0.01058,-0.90143c0.00235,-0.45835 0.00235,-0.91671 0.0047,-1.37506c0.01214,-0.30165 -0.00078,-0.60291 0.01449,-0.90456c0.02233,0.11008 0.00979,0.2233 0.01685,0.33495c0.01449,0.27619 0.03212,0.55316 0.05837,0.82934c0.02468,0.26326 0.03369,0.5273 0.06581,0.78978c0.02821,0.23701 0.03918,0.47598 0.07287,0.71221c0.04348,0.31301 0.0666,0.62837 0.11792,0.94021c0.11204,0.69184 0.21664,1.38564 0.3898,2.06494c0.08658,0.36864 0.18373,0.73532 0.30635,1.09417c0.1947,0.60448 0.43837,1.19916 0.78978,1.73077c0.13241,0.20215 0.29656,0.38118 0.46736,0.55159c0.02076,0.0192 0.04231,0.03918 0.06738,0.05445c0.04584,0.0192 0.10029,-0.00548 0.13006,-0.04348c0.05445,-0.06738 0.08971,-0.14847 0.13006,-0.22408c0.31027,-0.59664 0.62681,-1.19054 0.9453,-1.78366c0.05367,-0.10029 0.11047,-0.20058 0.19627,-0.27619c0.13398,-0.12027 0.29421,-0.20567 0.45796,-0.27775c0.22056,-0.09324 0.45208,-0.16767 0.69184,-0.1853c0.50419,-0.0474 1.00446,0.0572 1.49846,0.14142c0.28285,0.04427 0.56687,0.08971 0.85285,0.10773c0.28637,0.00784 0.57314,0.00392 0.85873,-0.02155c0.65501,-0.07052 1.3018,-0.22643 1.91059,-0.47833c0.40586,-0.17159 0.80153,-0.36942 1.17291,-0.60683c0.87792,-0.55159 1.64419,-1.26772 2.30156,-2.06651c0.08971,-0.10852 0.17237,-0.22173 0.26522,-0.32751c-0.09206,0.24798 -0.2045,0.48734 -0.31889,0.72553c-0.09559,0.22173 -0.21742,0.42936 -0.32712,0.64444c-0.39528,0.73689 -0.84423,1.44675 -1.35978,2.10568c-0.3087,0.39881 -0.65345,0.76901 -1.0213,1.11493c-0.50889,0.46305 -1.07811,0.87009 -1.71863,1.12943c-0.62916,0.25777 -1.32609,0.35415 -1.99873,0.2519c-0.27266,-0.04427 -0.5371,-0.12928 -0.79761,-0.22017c-0.2139,-0.07404 -0.41291,-0.18217 -0.61505,-0.28246c-0.26287,-0.13085 -0.50889,-0.29147 -0.74394,-0.46501c0.20763,0.23427 0.43602,0.44856 0.66637,0.65893c0.32712,0.28755 0.66951,0.55943 1.04442,0.78273c0.30479,0.18765 0.63503,0.33652 0.9837,0.42153c0.11204,0.02821 0.22683,0.03526 0.34083,0.04584c-0.09559,0.08423 -0.20136,0.15592 -0.30557,0.228c-0.73611,0.50027 -1.53294,0.9073 -2.35131,1.25714c-1.59797,0.66559 -3.30758,1.0691 -5.0364,1.1737c-0.35689,0.01841 -0.71417,0.02742 -1.07106,0.02742c-0.38157,-0.00823 -0.76392,-0.00979 -1.14314,-0.04975c-0.85794,-0.05798 -1.70766,-0.20881 -2.54131,-0.41565c-0.79291,-0.20724 -1.57446,-0.46815 -2.32154,-0.80741c-0.66716,-0.29538 -1.31159,-0.64444 -1.9145,-1.055c-0.14025,-0.10029 -0.28637,-0.19353 -0.41134,-0.31223c0.50576,-0.09089 0.99819,-0.25934 1.45498,-0.49596c0.43994,-0.21899 0.84188,-0.50967 1.19759,-0.84697c0.17159,-0.16767 0.32868,-0.35101 0.47441,-0.54258c-0.26287,0.16297 -0.53083,0.31771 -0.81367,0.44229c-0.33769,0.16532 -0.69497,0.28833 -1.05813,0.38392c-0.43916,0.11635 -0.89947,0.13241 -1.3492,0.08736c-0.62289,-0.07287 -1.21522,-0.32672 -1.7245,-0.68714c-0.33103,-0.22487 -0.62994,-0.49204 -0.91631,-0.7698c-0.76079,-0.77724 -1.39425,-1.66887 -1.96582,-2.59067c-0.30204,-0.4799 -0.57705,-0.97547 -0.85207,-1.47065c-0.08031,-0.15592 -0.16454,-0.30988 -0.24367,-0.46658c0.21821,0.2233 0.42662,0.45679 0.646,0.6793c0.6887,0.68635 1.42207,1.33432 2.23418,1.87298c0.57862,0.37491 1.20034,0.70633 1.8816,0.84384c0.23819,0.05602 0.48421,0.03604 0.72553,0.0619c0.21233,0.02155 0.42584,0.01528 0.63895,0.02311c0.38705,0.0047 0.7745,0.00313 1.16155,-0.01214c0.27971,-0.01214 0.55707,-0.05054 0.83444,-0.08344c0.15866,-0.0192 0.31497,-0.05445 0.4705,-0.09167c0.29734,-0.07287 0.62132,-0.07326 0.90652,0.04662c0.36472,0.14142 0.64679,0.43171 0.87205,0.74277c0.16532,0.23114 0.31105,0.47598 0.43367,0.73297c0.08893,0.18608 0.18843,0.36668 0.27188,0.55551c0.07678,0.17159 0.16454,0.33808 0.26208,0.4987c0.05132,0.07796 0.10734,0.16454 0.20058,0.19509c0.08109,-0.0572 0.13085,-0.14612 0.17472,-0.23192c0.16101,-0.3185 0.26208,-0.66167 0.37452,-0.99858c0.15474,-0.50419 0.28951,-1.01543 0.39763,-1.53176c0.16924,-0.7079 0.24916,-1.43225 0.34788,-2.1523c0.04309,-0.30439 0.06346,-0.61153 0.10029,-0.91592c0.0666,-0.81407 0.14573,-1.62735 0.17159,-2.44376c0.00627,-0.14221 0.01841,-0.28402 0.0192,-0.42623c0.00078,-0.33299 0.0192,-0.66481 0.01685,-0.99702c-0.00078,-0.18217 -0.00078,-0.36433 0,-0.54571c0.00392,-0.38784 -0.01528,-0.77567 -0.01685,-1.1639c-0.01528,-0.50576 -0.05445,-1.00994 -0.09872,-1.51335c-0.05602,-0.44973 -0.1187,-0.90143 -0.23897,-1.3398c-0.15709,-0.59312 -0.42819,-1.15019 -0.75099,-1.66966c-0.2421,-0.38784 -0.52025,-0.75609 -0.84972,-1.07341c-0.29734,-0.29538 -0.65736,-0.5418 -1.06792,-0.6464c-0.11478,-0.03134 -0.23427,-0.03447 -0.3518,-0.04897c0.00548,-0.22878 0.05367,-0.45365 0.09637,-0.67734c0.12184,-0.58998 0.29107,-1.17056 0.5179,-1.7292c0.11635,-0.30831 0.2613,-0.60448 0.41291,-0.89673c0.26443,-0.50184 0.58371,-0.9786 0.95471,-1.41228zM34.7794,26.71354c0.02664,-0.0047 0.05445,-0.00901 0.08188,-0.01449c0.01449,0.13711 0.00705,0.27384 0.00784,0.41095v2.9174c-0.00078,0.1332 0.00979,0.26718 -0.01136,0.39959c-0.02742,-0.00235 -0.05445,-0.00392 -0.08109,-0.00392c-0.07287,-0.28676 -0.13163,-0.57784 -0.20058,-0.86539c-0.02899,-0.11713 -0.04427,-0.23662 -0.08188,-0.35101c-0.13006,-0.01841 -0.26287,-0.01293 -0.3945,-0.01528c-0.38784,-0.00078 -0.77607,0 -1.1639,-0.00078c-0.12732,-0.00078 -0.25425,0.00705 -0.38157,-0.00235c-0.00235,-0.02977 -0.01998,-0.06973 0.01214,-0.0901c0.09794,-0.04975 0.20841,-0.06738 0.31105,-0.10342c0.26287,-0.08736 0.52691,-0.16532 0.78978,-0.25307c0.10656,-0.03682 0.22212,-0.05524 0.31889,-0.11792c0.00313,-0.0427 0.00157,-0.08658 -0.00392,-0.1285c-0.09441,-0.04192 -0.19392,-0.0666 -0.29186,-0.09794c-0.23975,-0.07874 -0.48186,-0.15004 -0.72083,-0.23114c-0.13711,-0.0474 -0.28128,-0.07639 -0.41448,-0.13711c-0.00235,-0.02821 -0.00548,-0.05602 -0.00862,-0.08344c0.3898,-0.01449 0.78155,0.0047 1.17213,-0.00901c0.25738,-0.00979 0.51555,0.00627 0.77293,-0.00548c0.00901,-0.02977 0.01998,-0.05876 0.02821,-0.08893c0.08266,-0.37804 0.17864,-0.75217 0.25973,-1.12864zM35.23658,26.69826c0.02742,0.00392 0.05524,0.00901 0.08266,0.01528c0.07522,0.2946 0.13241,0.5939 0.20763,0.8885c0.02742,0.10852 0.04309,0.22017 0.07874,0.32672c0.19392,0.01371 0.38862,-0.00078 0.58293,0.00392c0.39528,0.00901 0.79134,0.00901 1.18662,0.00548c0.05837,-0.00078 0.11635,0.00235 0.17472,0.00627c-0.00313,0.02742 -0.00548,0.05524 -0.00784,0.08266c-0.13946,0.06346 -0.28951,0.09559 -0.43446,0.14456c-0.28559,0.09402 -0.57314,0.18295 -0.85951,0.27305c-0.04348,0.01293 -0.08579,0.03212 -0.1281,0.04897c-0.01136,0.04192 -0.01371,0.08579 -0.00901,0.12928c0.0666,0.03682 0.13946,0.0619 0.21233,0.08344c0.37373,0.11635 0.74551,0.24015 1.12081,0.3518c0.02899,0.00979 0.05994,0.02076 0.08658,0.03761c0.03056,0.02076 0.01763,0.06033 0.01136,0.0901c-0.12732,0.00979 -0.25347,0.00235 -0.38079,0.00313c-0.39606,0.00078 -0.79134,-0.00078 -1.18741,0.00078c-0.1234,0.00235 -0.24681,-0.00157 -0.36942,0.01606c-0.03996,0.12771 -0.05524,0.26169 -0.08971,0.39097c-0.07208,0.27305 -0.11635,0.55394 -0.1947,0.82464c-0.02742,0.00078 -0.05445,0.00157 -0.08109,0.0047c-0.02233,-0.13241 -0.01136,-0.26639 -0.01136,-0.39959v-2.9174c0.00157,-0.13633 -0.00627,-0.27384 0.00862,-0.41095zM20.98494,30.13904c0.08579,-0.16454 0.15944,-0.33652 0.25817,-0.49439c-0.13946,0.57862 -0.22291,1.16821 -0.27736,1.75976c-0.06111,0.58998 -0.06503,1.18506 -0.04153,1.77739c0.08031,1.52588 0.42427,3.04746 1.09025,4.42879c0.22918,0.45835 0.48656,0.90534 0.80427,1.30924c0.46893,0.57157 0.9598,1.12943 1.52001,1.61364c0.36786,0.3138 0.76549,0.59547 1.19054,0.82621c0.25033,0.12614 0.4987,0.25934 0.76157,0.35806c0.38392,0.15513 0.78077,0.27619 1.18153,0.37804c0.29342,0.07326 0.59586,0.10773 0.88262,0.20724c0.38314,0.12027 0.72553,0.35258 0.99819,0.64483c0.37765,0.39998 0.61976,0.90809 0.78155,1.42834c0.076,0.22173 0.12184,0.45208 0.1661,0.68244c0.01136,0.0572 0.01685,0.11635 0.01214,0.17511c-0.49792,0.21272 -1.01582,0.38705 -1.55213,0.47285c-0.31497,0.05955 -0.63503,0.07561 -0.95471,0.08266c-0.78547,0.01841 -1.56819,-0.13476 -2.30743,-0.39175c-0.28637,-0.10852 -0.57392,-0.21821 -0.84501,-0.3612c-0.61741,-0.29382 -1.19838,-0.66559 -1.72059,-1.10631c-0.22369,-0.19509 -0.4466,-0.39254 -0.64365,-0.61427c-0.70163,-0.75217 -1.24891,-1.63832 -1.66927,-2.57461c-0.18295,-0.42466 -0.35336,-0.85559 -0.48813,-1.29749c-0.08971,-0.30165 -0.18099,-0.60369 -0.24994,-0.91122c-0.05759,-0.22487 -0.09363,-0.45522 -0.14338,-0.68244c-0.03526,-0.16375 -0.05289,-0.33064 -0.07874,-0.49596c-0.06503,-0.41565 -0.09794,-0.8364 -0.10186,-1.25714c0.00862,-0.47285 0.0192,-0.94648 0.08188,-1.41541c0.03056,-0.21899 0.05132,-0.43916 0.08814,-0.65815c0.07522,-0.43602 0.16415,-0.87009 0.28441,-1.29553c0.23662,-0.89124 0.57314,-1.75584 0.97233,-2.58911zM48.85161,29.64621c0.08423,0.12693 0.14652,0.26639 0.21311,0.40233c0.16101,0.34043 0.32476,0.68087 0.4611,1.03227c0.58293,1.43539 0.94217,2.96793 0.99897,4.51811c0.00157,0.13476 0.00548,0.26953 0.00862,0.40468c0.00979,0.73219 -0.09716,1.46085 -0.24367,2.17698c-0.05602,0.27462 -0.11792,0.54846 -0.19784,0.81798c-0.30949,1.12629 -0.76627,2.2189 -1.41032,3.19672c-0.62916,0.96176 -1.45654,1.80207 -2.43946,2.40341c-0.43916,0.27462 -0.90339,0.50811 -1.38289,0.7032c-0.44268,0.16767 -0.89712,0.30831 -1.3637,0.39097c-0.49048,0.08031 -0.98918,0.11635 -1.48632,0.09402c-0.60683,-0.03682 -1.20895,-0.15827 -1.77817,-0.37099c-0.14847,-0.06111 -0.30204,-0.11165 -0.44738,-0.17825c-0.01606,-0.11557 0.0192,-0.22878 0.04074,-0.34122c0.08893,-0.43916 0.23231,-0.8693 0.43681,-1.2685c0.18138,-0.34514 0.42309,-0.66167 0.72475,-0.91044c0.18608,-0.1567 0.40155,-0.27619 0.62524,-0.36942c0.27423,-0.11478 0.57235,-0.15083 0.86108,-0.21664c0.55394,-0.13085 1.10083,-0.30087 1.6203,-0.53553c0.79291,-0.35571 1.51021,-0.87087 2.11822,-1.48906c0.12184,-0.12301 0.24759,-0.24328 0.36316,-0.37256c0.25817,-0.28755 0.51398,-0.5794 0.75452,-0.88223c0.57314,-0.77058 0.98213,-1.65203 1.28025,-2.56168c0.12105,-0.40547 0.24602,-0.81093 0.32241,-1.22815c0.04819,-0.21977 0.07953,-0.44229 0.11635,-0.66402c0.0666,-0.4658 0.12184,-0.93512 0.12889,-1.4064c0.00901,-0.50889 0.01058,-1.01935 -0.04074,-1.52588c-0.05602,-0.61153 -0.14338,-1.2211 -0.28441,-1.8197z" id="shadow" fill="#000000" opacity="0.3"/><path d="M34.06366,16.04205c0.5747,-0.0239 1.14902,-0.02155 1.72372,-0.00705c0.27658,0.01058 0.55159,0.03056 0.8266,0.05602c0.37687,0.02076 0.75021,0.07874 1.12394,0.12379c0.22448,0.03291 0.4466,0.07483 0.67029,0.11165c0.60526,0.10186 1.20034,0.25111 1.79189,0.4133c0.93786,0.26561 1.85339,0.60604 2.73954,1.01073c2.03477,0.93669 3.90266,2.23496 5.4877,3.81647c1.5345,1.53724 2.81319,3.33226 3.74557,5.29417c0.08658,0.19823 0.18687,0.39019 0.266,0.59233c0.21547,0.49204 0.41291,0.99231 0.58058,1.50199c0.31732,0.94334 0.56217,1.91215 0.72161,2.89467c0.04348,0.24015 0.07953,0.48186 0.10734,0.72475c0.04231,0.29303 0.07208,0.58842 0.0905,0.88458c0.06346,0.63817 0.06425,1.28025 0.05915,1.92038c-0.00548,0.38039 -0.01998,0.7604 -0.05759,1.13922c-0.01841,0.25856 -0.03918,0.51712 -0.07522,0.7745c-0.02977,0.20802 -0.04819,0.41761 -0.08501,0.62524c-0.06895,0.39411 -0.13006,0.78899 -0.21977,1.17918c-0.31419,1.41541 -0.78899,2.79674 -1.41815,4.10363c-0.9265,1.9263 -2.18152,3.69572 -3.6937,5.20789l-21.5905,21.5905h-23.35815c-1.933,0 -3.5,-1.567 -3.5,-3.5l0,-23.35778l21.56016,-21.56016c1.23419,-1.23419 2.64028,-2.29684 4.16344,-3.14953c0.5747,-0.31771 1.16155,-0.61584 1.7676,-0.87009c1.21209,-0.52652 2.48294,-0.91436 3.77769,-1.17683c0.26874,-0.05132 0.53945,-0.0948 0.80897,-0.14142c0.20058,-0.03604 0.40468,-0.05367 0.60604,-0.08266c0.27031,-0.04074 0.54415,-0.0521 0.81602,-0.07953c0.18815,-0.01839 0.37553,-0.0274 0.5629,-0.03912z" id="flatShadow" fill="#000000" opacity="0.324"/><path d="M34.06366,16.04205c0.5747,-0.0239 1.14902,-0.02155 1.72372,-0.00705c0.27658,0.01058 0.55159,0.03056 0.8266,0.05602c0.37687,0.02076 0.75021,0.07874 1.12394,0.12379c0.22448,0.03291 0.4466,0.07483 0.67029,0.11165c0.60526,0.10186 1.20034,0.25111 1.79189,0.4133c0.93786,0.26561 1.85339,0.60604 2.73954,1.01073c2.03477,0.93669 3.90266,2.23496 5.4877,3.81647c1.5345,1.53724 2.81319,3.33226 3.74557,5.29417c0.08658,0.19823 0.18687,0.39019 0.266,0.59233c0.21547,0.49204 0.41291,0.99231 0.58058,1.50199c0.31732,0.94334 0.56217,1.91215 0.72161,2.89467c0.04348,0.24015 0.07953,0.48186 0.10734,0.72475c0.04231,0.29303 0.07208,0.58842 0.0905,0.88458c0.06346,0.63817 0.06425,1.28025 0.05915,1.92038c-0.00548,0.38039 -0.01998,0.7604 -0.05759,1.13922c-0.01841,0.25856 -0.03918,0.51712 -0.07522,0.7745c-0.02977,0.20802 -0.04819,0.41761 -0.08501,0.62524c-0.06895,0.39411 -0.13006,0.78899 -0.21977,1.17918c-0.31419,1.41541 -0.78899,2.79674 -1.41815,4.10363c-1.20817,2.51193 -2.97498,4.75708 -5.14217,6.51292c-1.3257,1.08242 -2.79243,1.97954 -4.36023,2.66746c-0.47559,0.20489 -0.95471,0.40155 -1.44557,0.56687c-0.26874,0.08893 -0.5371,0.18217 -0.80976,0.25934c-0.50732,0.14377 -1.01817,0.27854 -1.53529,0.38274c-0.35689,0.06973 -0.71574,0.13241 -1.07497,0.18961c-0.40233,0.05054 -0.80427,0.11008 -1.20974,0.1332c-0.51241,0.05054 -1.02757,0.06425 -1.54155,0.0619c-0.5226,0.00235 -1.04559,-0.00901 -1.56663,-0.06033c-0.2519,-0.01763 -0.5034,-0.03839 -0.75295,-0.07287c-0.20841,-0.02977 -0.41839,-0.04819 -0.62602,-0.08501c-0.31575,-0.05524 -0.6319,-0.10499 -0.94609,-0.17002c-0.32555,-0.07208 -0.65031,-0.14456 -0.97233,-0.23114c-0.66128,-0.1661 -1.30846,-0.38353 -1.94663,-0.62211c-0.80349,-0.31536 -1.59287,-0.66951 -2.34739,-1.09025c-0.16415,-0.08814 -0.3279,-0.17511 -0.48656,-0.27305c-0.85951,-0.5034 -1.67475,-1.07889 -2.44533,-1.70923c-2.65688,-2.17385 -4.70497,-5.08302 -5.84929,-8.31695c-0.23662,-0.66873 -0.43759,-1.35038 -0.59743,-2.04143c-0.11322,-0.47128 -0.19313,-0.9504 -0.27423,-1.42795c-0.03056,-0.17982 -0.04662,-0.36198 -0.07287,-0.54258c-0.04584,-0.30283 -0.05759,-0.60918 -0.08971,-0.91357c-0.06111,-0.72475 -0.05445,-1.45302 -0.03918,-2.17972c0.01058,-0.26874 0.02586,-0.53631 0.05367,-0.80427c0.0239,-0.2425 0.03526,-0.48734 0.07052,-0.72827c0.03134,-0.21507 0.04975,-0.4325 0.08893,-0.64561c0.05367,-0.30165 0.09951,-0.60448 0.16258,-0.90456c0.26287,-1.26419 0.64875,-2.50449 1.169,-3.68641c0.08814,-0.2233 0.19862,-0.43759 0.29577,-0.65736c0.61662,-1.27869 1.37153,-2.49117 2.25925,-3.60062c1.53215,-1.94193 3.45528,-3.57163 5.61345,-4.7798c0.5747,-0.31771 1.16155,-0.61584 1.7676,-0.87009c1.21209,-0.52652 2.48294,-0.91436 3.77769,-1.17683c0.26874,-0.05132 0.53945,-0.0948 0.80897,-0.14142c0.20058,-0.03604 0.40468,-0.05367 0.60604,-0.08266c0.27031,-0.04074 0.54415,-0.0521 0.81602,-0.07953c0.18843,-0.01841 0.37608,-0.02742 0.56373,-0.03918M34.72573,17.90993c-0.70712,0.00784 -1.41188,0.07561 -2.11234,0.1708c-0.55943,0.08266 -1.11337,0.19901 -1.66339,0.32907c-1.06557,0.26796 -2.10529,0.63817 -3.09995,1.10318c-0.80153,0.38196 -1.5776,0.81877 -2.31214,1.31747c-0.32006,0.2233 -0.64365,0.44386 -0.9453,0.69106c-0.38901,0.30361 -0.7647,0.62524 -1.12473,0.96332c-0.19235,0.1712 -0.36864,0.35963 -0.55316,0.54023c-2.16209,2.20284 -3.71109,5.0031 -4.40528,8.01021c-0.15631,0.64561 -0.27109,1.30219 -0.34004,1.96269c-0.08423,0.68009 -0.11047,1.36566 -0.10812,2.05044c0.00862,0.5465 0.02899,1.0926 0.09363,1.63518c0.0474,0.54493 0.14338,1.08359 0.24524,1.62069c0.08188,0.35571 0.15553,0.71299 0.25503,1.0644c0.48186,1.78875 1.26419,3.4968 2.30391,5.03091c0.66207,0.9931 1.43891,1.90745 2.29686,2.7368c1.24735,1.21052 2.68548,2.22203 4.23996,3.00084c0.55786,0.26914 1.12316,0.52573 1.70609,0.73689c0.38627,0.13476 0.77058,0.27305 1.16586,0.38118c0.86264,0.2472 1.74448,0.42858 2.63455,0.54023c0.22291,0.02233 0.44503,0.04662 0.66794,0.06895c1.05891,0.08266 2.12527,0.07639 3.18261,-0.03291c0.34083,-0.04584 0.68322,-0.07561 1.02287,-0.13633c0.27815,-0.05132 0.55786,-0.09559 0.83287,-0.16062c0.31654,-0.07483 0.63425,-0.14612 0.94687,-0.23505c2.03007,-0.56178 3.95163,-1.50826 5.63735,-2.7697c1.20895,-0.90456 2.29529,-1.97092 3.22688,-3.15833c0.24994,-0.30753 0.47285,-0.63582 0.69967,-0.96019c0.25973,-0.38705 0.50419,-0.78429 0.73532,-1.18898c0.18373,-0.33965 0.36316,-0.68165 0.53239,-1.02914c0.43602,-0.92219 0.78743,-1.88395 1.05343,-2.86843c0.19862,-0.76588 0.36394,-1.54273 0.45208,-2.32976c0.13555,-1.03071 0.14847,-2.07356 0.09872,-3.11014c-0.02233,-0.29773 -0.05132,-0.59468 -0.07678,-0.89203c-0.1708,-1.46007 -0.52025,-2.90055 -1.05891,-4.26934c-0.456,-1.15763 -1.03658,-2.26708 -1.73234,-3.30014c-0.97233,-1.43852 -2.16366,-2.73014 -3.52187,-3.81256c-1.91921,-1.53019 -4.17297,-2.64356 -6.56189,-3.21983c-0.59586,-0.14769 -1.2019,-0.25542 -1.8103,-0.34043c-0.29969,-0.04505 -0.60134,-0.06268 -0.90182,-0.0948c-0.56609,-0.04348 -1.13452,-0.05524 -1.70217,-0.04427zM26.67047,21.65041c1.01895,-0.68009 2.15112,-1.17683 3.31738,-1.5439c-0.24289,0.13555 -0.49322,0.25856 -0.73023,0.40468c-0.85873,0.51124 -1.64889,1.14001 -2.32741,1.87376c-0.52103,0.56844 -0.97743,1.20347 -1.30337,1.90432c-0.2519,0.52495 -0.43211,1.08555 -0.52573,1.66104c-0.0713,0.37099 -0.09951,0.7506 -0.08971,1.12864c0.00979,1.0452 0.34004,2.07199 0.86499,2.97028c0.45365,0.78194 1.04442,1.47887 1.71314,2.0857c0.37138,0.33377 0.78468,0.61897 1.14549,0.96411c0.17316,0.16767 0.34396,0.33808 0.49244,0.52887c0.20058,0.25307 0.37452,0.53474 0.45874,0.84932c0.06895,0.23114 0.05054,0.47441 0.05289,0.71221c0.00157,0.3138 -0.00313,0.62759 0.00235,0.94099c0.01058,0.2707 -0.00157,0.54258 0.00862,0.81328c0.00627,0.18217 0.00157,0.36433 0.00392,0.5465c0.01214,0.44151 0.0047,0.88223 0.01136,1.32374c0.00862,0.22252 0.00157,0.44542 0.00979,0.66873c0.00235,0.12458 0.00979,0.25111 -0.00235,0.37569c-0.06973,0.00901 -0.13946,0.01371 -0.2092,0.01214c-0.84188,0 -1.67632,-0.20136 -2.44768,-0.53044c-0.45953,-0.20645 -0.90495,-0.45052 -1.30924,-0.75217c-0.44033,-0.32046 -0.84972,-0.68557 -1.20974,-1.09495c-0.50027,-0.55394 -0.91788,-1.17761 -1.2732,-1.83263c-0.08188,-0.15513 -0.17159,-0.30753 -0.24367,-0.46815c-0.08893,-0.20215 -0.20058,-0.39332 -0.28128,-0.59821c-0.31027,-0.74081 -0.5034,-1.52588 -0.61897,-2.31919c-0.03761,-0.33965 -0.08344,-0.6793 -0.09206,-1.0213c-0.05367,-1.20347 0.06425,-2.41399 0.35767,-3.5826c0.16258,-0.62367 0.36551,-1.23794 0.6366,-1.82323c0.48421,-1.08634 1.17526,-2.07982 2.01479,-2.9221c0.48107,-0.47441 1.00603,-0.90613 1.57289,-1.27555zM40.10609,20.1112c0.20998,0.0568 0.41448,0.1332 0.61976,0.20489c0.48734,0.17825 0.97155,0.37021 1.43343,0.60918c1.00446,0.49283 1.93919,1.13335 2.74424,1.91059c0.78155,0.76118 1.43578,1.65281 1.92587,2.6275c0.09794,0.21037 0.20215,0.41761 0.29186,0.6319c0.48343,1.15528 0.76627,2.39166 0.86029,3.63979c0.03134,0.34749 0.03369,0.69536 0.03447,1.04363c0.00548,0.89046 -0.114,1.77896 -0.32947,2.64199c-0.15083,0.55629 -0.33338,1.10867 -0.60213,1.62069c-0.24367,0.50811 -0.51163,1.00681 -0.83052,1.47221c-0.53161,0.80114 -1.19524,1.5204 -1.97797,2.08257c-0.8031,0.5845 -1.73469,0.99623 -2.71212,1.17683c-0.26874,0.05289 -0.54258,0.08266 -0.81681,0.09245c-0.14182,0.0047 -0.2852,0.01214 -0.42584,-0.00784c-0.02155,-0.16454 0,-0.32986 -0.00078,-0.49439c-0.00235,-0.28559 0.01058,-0.57 0.00784,-0.85481c0.01449,-0.5371 0.00157,-1.07497 0.01606,-1.61207c0.00235,-0.18217 -0.00235,-0.36433 0.00235,-0.5465c0.01293,-0.38784 -0.00313,-0.77567 0.01058,-1.1639c0.00784,-0.22878 -0.01841,-0.46227 0.03918,-0.68557c0.05054,-0.19118 0.13633,-0.37178 0.23662,-0.5418c0.34161,-0.55943 0.84737,-0.99153 1.35469,-1.397c0.41213,-0.31967 0.80231,-0.67108 1.15058,-1.05891c0.58842,-0.64052 1.08555,-1.36801 1.43891,-2.16288c0.19157,-0.45365 0.34631,-0.92572 0.42505,-1.41228c0.06581,-0.33456 0.08109,-0.67578 0.07757,-1.01543c-0.00157,-0.60056 -0.10734,-1.19759 -0.27893,-1.77269c-0.13398,-0.43837 -0.32712,-0.85559 -0.54336,-1.25871c-0.29656,-0.53044 -0.66285,-1.01856 -1.06949,-1.46908c-0.76157,-0.83013 -1.66652,-1.52588 -2.651,-2.07356c-0.14182,-0.07796 -0.29421,-0.13907 -0.43132,-0.22722zM32.38382,24.58347c0.07522,-0.0901 0.15239,-0.17825 0.23897,-0.25856c-0.04662,0.0713 -0.09716,0.13868 -0.14926,0.20489c-0.2374,0.29695 -0.42427,0.63582 -0.53866,0.99937c-0.0666,0.25033 -0.12889,0.50497 -0.13241,0.7651c-0.00548,0.19274 -0.00627,0.38784 0.02468,0.5794c0.08658,0.58371 0.33182,1.13609 0.67186,1.61599c0.15318,0.20645 0.32555,0.40312 0.53004,0.56099c0.12419,0.09716 0.27031,0.15984 0.40899,0.23349c0.23819,0.1285 0.48421,0.2472 0.69497,0.41918c0.2045,0.15984 0.34866,0.40782 0.33691,0.67264c-0.00078,5.63696 0,11.27352 -0.00078,16.91126c0,0.10342 -0.00627,0.20645 0.00313,0.30909c0.00979,0.11322 0.06268,0.21664 0.11243,0.31771c0.06581,0.12693 0.13633,0.25542 0.24367,0.35336c0.06503,0.05876 0.15083,0.10695 0.24132,0.0948c0.11478,-0.01528 0.20371,-0.10342 0.26443,-0.19666c0.07365,-0.11557 0.12889,-0.24171 0.17472,-0.37099c0.05837,-0.16297 0.03369,-0.33808 0.04153,-0.50732c0.01058,-0.30831 -0.00157,-0.61662 0.01058,-0.92493c0.00235,-0.45052 0.00235,-0.90064 0.0047,-1.35116c0.01058,-0.27697 0.00235,-0.55394 0.00862,-0.83091c0.01136,-0.30831 -0.00157,-0.61662 0.01058,-0.92493c0.00235,-0.45835 0.00235,-0.91671 0.00548,-1.37506c0.01058,-0.27697 0.00157,-0.55394 0.00862,-0.83091c0.01058,-0.30087 -0.00157,-0.60134 0.01058,-0.90143c0.00235,-0.45835 0.00235,-0.91671 0.0047,-1.37506c0.01214,-0.30165 -0.00078,-0.60291 0.01449,-0.90456c0.02233,0.11008 0.00979,0.2233 0.01685,0.33495c0.01449,0.27619 0.03212,0.55316 0.05837,0.82934c0.02468,0.26326 0.03369,0.5273 0.06581,0.78978c0.02821,0.23701 0.03918,0.47598 0.07287,0.71221c0.04348,0.31301 0.0666,0.62837 0.11792,0.94021c0.11204,0.69184 0.21664,1.38564 0.3898,2.06494c0.08658,0.36864 0.18373,0.73532 0.30635,1.09417c0.1947,0.60448 0.43837,1.19916 0.78978,1.73077c0.13241,0.20215 0.29656,0.38118 0.46736,0.55159c0.02076,0.0192 0.04231,0.03918 0.06738,0.05445c0.04584,0.0192 0.10029,-0.00548 0.13006,-0.04348c0.05445,-0.06738 0.08971,-0.14847 0.13006,-0.22408c0.31027,-0.59664 0.62681,-1.19054 0.9453,-1.78366c0.05367,-0.10029 0.11047,-0.20058 0.19627,-0.27619c0.13398,-0.12027 0.29421,-0.20567 0.45796,-0.27775c0.22056,-0.09324 0.45208,-0.16767 0.69184,-0.1853c0.50419,-0.0474 1.00446,0.0572 1.49846,0.14142c0.28285,0.04427 0.56687,0.08971 0.85285,0.10773c0.28637,0.00784 0.57314,0.00392 0.85873,-0.02155c0.65501,-0.07052 1.3018,-0.22643 1.91059,-0.47833c0.40586,-0.17159 0.80153,-0.36942 1.17291,-0.60683c0.87792,-0.55159 1.64419,-1.26772 2.30156,-2.06651c0.08971,-0.10852 0.17237,-0.22173 0.26522,-0.32751c-0.09206,0.24798 -0.2045,0.48734 -0.31889,0.72553c-0.09559,0.22173 -0.21742,0.42936 -0.32712,0.64444c-0.39528,0.73689 -0.84423,1.44675 -1.35978,2.10568c-0.3087,0.39881 -0.65345,0.76901 -1.0213,1.11493c-0.50889,0.46305 -1.07811,0.87009 -1.71863,1.12943c-0.62916,0.25777 -1.32609,0.35415 -1.99873,0.2519c-0.27266,-0.04427 -0.5371,-0.12928 -0.79761,-0.22017c-0.2139,-0.07404 -0.41291,-0.18217 -0.61505,-0.28246c-0.26287,-0.13085 -0.50889,-0.29147 -0.74394,-0.46501c0.20763,0.23427 0.43602,0.44856 0.66637,0.65893c0.32712,0.28755 0.66951,0.55943 1.04442,0.78273c0.30479,0.18765 0.63503,0.33652 0.9837,0.42153c0.11204,0.02821 0.22683,0.03526 0.34083,0.04584c-0.09559,0.08423 -0.20136,0.15592 -0.30557,0.228c-0.73611,0.50027 -1.53294,0.9073 -2.35131,1.25714c-1.59797,0.66559 -3.30758,1.0691 -5.0364,1.1737c-0.35689,0.01841 -0.71417,0.02742 -1.07106,0.02742c-0.38157,-0.00823 -0.76392,-0.00979 -1.14314,-0.04975c-0.85794,-0.05798 -1.70766,-0.20881 -2.54131,-0.41565c-0.79291,-0.20724 -1.57446,-0.46815 -2.32154,-0.80741c-0.66716,-0.29538 -1.31159,-0.64444 -1.9145,-1.055c-0.14025,-0.10029 -0.28637,-0.19353 -0.41134,-0.31223c0.50576,-0.09089 0.99819,-0.25934 1.45498,-0.49596c0.43994,-0.21899 0.84188,-0.50967 1.19759,-0.84697c0.17159,-0.16767 0.32868,-0.35101 0.47441,-0.54258c-0.26287,0.16297 -0.53083,0.31771 -0.81367,0.44229c-0.33769,0.16532 -0.69497,0.28833 -1.05813,0.38392c-0.43916,0.11635 -0.89947,0.13241 -1.3492,0.08736c-0.62289,-0.07287 -1.21522,-0.32672 -1.7245,-0.68714c-0.33103,-0.22487 -0.62994,-0.49204 -0.91631,-0.7698c-0.76079,-0.77724 -1.39425,-1.66887 -1.96582,-2.59067c-0.30204,-0.4799 -0.57705,-0.97547 -0.85207,-1.47065c-0.08031,-0.15592 -0.16454,-0.30988 -0.24367,-0.46658c0.21821,0.2233 0.42662,0.45679 0.646,0.6793c0.6887,0.68635 1.42207,1.33432 2.23418,1.87298c0.57862,0.37491 1.20034,0.70633 1.8816,0.84384c0.23819,0.05602 0.48421,0.03604 0.72553,0.0619c0.21233,0.02155 0.42584,0.01528 0.63895,0.02311c0.38705,0.0047 0.7745,0.00313 1.16155,-0.01214c0.27971,-0.01214 0.55707,-0.05054 0.83444,-0.08344c0.15866,-0.0192 0.31497,-0.05445 0.4705,-0.09167c0.29734,-0.07287 0.62132,-0.07326 0.90652,0.04662c0.36472,0.14142 0.64679,0.43171 0.87205,0.74277c0.16532,0.23114 0.31105,0.47598 0.43367,0.73297c0.08893,0.18608 0.18843,0.36668 0.27188,0.55551c0.07678,0.17159 0.16454,0.33808 0.26208,0.4987c0.05132,0.07796 0.10734,0.16454 0.20058,0.19509c0.08109,-0.0572 0.13085,-0.14612 0.17472,-0.23192c0.16101,-0.3185 0.26208,-0.66167 0.37452,-0.99858c0.15474,-0.50419 0.28951,-1.01543 0.39763,-1.53176c0.16924,-0.7079 0.24916,-1.43225 0.34788,-2.1523c0.04309,-0.30439 0.06346,-0.61153 0.10029,-0.91592c0.0666,-0.81407 0.14573,-1.62735 0.17159,-2.44376c0.00627,-0.14221 0.01841,-0.28402 0.0192,-0.42623c0.00078,-0.33299 0.0192,-0.66481 0.01685,-0.99702c-0.00078,-0.18217 -0.00078,-0.36433 0,-0.54571c0.00392,-0.38784 -0.01528,-0.77567 -0.01685,-1.1639c-0.01528,-0.50576 -0.05445,-1.00994 -0.09872,-1.51335c-0.05602,-0.44973 -0.1187,-0.90143 -0.23897,-1.3398c-0.15709,-0.59312 -0.42819,-1.15019 -0.75099,-1.66966c-0.2421,-0.38784 -0.52025,-0.75609 -0.84972,-1.07341c-0.29734,-0.29538 -0.65736,-0.5418 -1.06792,-0.6464c-0.11478,-0.03134 -0.23427,-0.03447 -0.3518,-0.04897c0.00548,-0.22878 0.05367,-0.45365 0.09637,-0.67734c0.12184,-0.58998 0.29107,-1.17056 0.5179,-1.7292c0.11635,-0.30831 0.2613,-0.60448 0.41291,-0.89673c0.26443,-0.50184 0.58371,-0.9786 0.95471,-1.41228zM34.7794,24.71354c0.02664,-0.0047 0.05445,-0.00901 0.08188,-0.01449c0.01449,0.13711 0.00705,0.27384 0.00784,0.41095v2.9174c-0.00078,0.1332 0.00979,0.26718 -0.01136,0.39959c-0.02742,-0.00235 -0.05445,-0.00392 -0.08109,-0.00392c-0.07287,-0.28676 -0.13163,-0.57784 -0.20058,-0.86539c-0.02899,-0.11713 -0.04427,-0.23662 -0.08188,-0.35101c-0.13006,-0.01841 -0.26287,-0.01293 -0.3945,-0.01528c-0.38784,-0.00078 -0.77607,0 -1.1639,-0.00078c-0.12732,-0.00078 -0.25425,0.00705 -0.38157,-0.00235c-0.00235,-0.02977 -0.01998,-0.06973 0.01214,-0.0901c0.09794,-0.04975 0.20841,-0.06738 0.31105,-0.10342c0.26287,-0.08736 0.52691,-0.16532 0.78978,-0.25307c0.10656,-0.03682 0.22212,-0.05524 0.31889,-0.11792c0.00313,-0.0427 0.00157,-0.08658 -0.00392,-0.1285c-0.09441,-0.04192 -0.19392,-0.0666 -0.29186,-0.09794c-0.23975,-0.07874 -0.48186,-0.15004 -0.72083,-0.23114c-0.13711,-0.0474 -0.28128,-0.07639 -0.41448,-0.13711c-0.00235,-0.02821 -0.00548,-0.05602 -0.00862,-0.08344c0.3898,-0.01449 0.78155,0.0047 1.17213,-0.00901c0.25738,-0.00979 0.51555,0.00627 0.77293,-0.00548c0.00901,-0.02977 0.01998,-0.05876 0.02821,-0.08893c0.08266,-0.37804 0.17864,-0.75217 0.25973,-1.12864zM35.23658,24.69826c0.02742,0.00392 0.05524,0.00901 0.08266,0.01528c0.07522,0.2946 0.13241,0.5939 0.20763,0.8885c0.02742,0.10852 0.04309,0.22017 0.07874,0.32672c0.19392,0.01371 0.38862,-0.00078 0.58293,0.00392c0.39528,0.00901 0.79134,0.00901 1.18662,0.00548c0.05837,-0.00078 0.11635,0.00235 0.17472,0.00627c-0.00313,0.02742 -0.00548,0.05524 -0.00784,0.08266c-0.13946,0.06346 -0.28951,0.09559 -0.43446,0.14456c-0.28559,0.09402 -0.57314,0.18295 -0.85951,0.27305c-0.04348,0.01293 -0.08579,0.03212 -0.1281,0.04897c-0.01136,0.04192 -0.01371,0.08579 -0.00901,0.12928c0.0666,0.03682 0.13946,0.0619 0.21233,0.08344c0.37373,0.11635 0.74551,0.24015 1.12081,0.3518c0.02899,0.00979 0.05994,0.02076 0.08658,0.03761c0.03056,0.02076 0.01763,0.06033 0.01136,0.0901c-0.12732,0.00979 -0.25347,0.00235 -0.38079,0.00313c-0.39606,0.00078 -0.79134,-0.00078 -1.18741,0.00078c-0.1234,0.00235 -0.24681,-0.00157 -0.36942,0.01606c-0.03996,0.12771 -0.05524,0.26169 -0.08971,0.39097c-0.07208,0.27305 -0.11635,0.55394 -0.1947,0.82464c-0.02742,0.00078 -0.05445,0.00157 -0.08109,0.0047c-0.02233,-0.13241 -0.01136,-0.26639 -0.01136,-0.39959v-2.9174c0.00157,-0.13633 -0.00627,-0.27384 0.00862,-0.41095zM20.98494,28.13904c0.08579,-0.16454 0.15944,-0.33652 0.25817,-0.49439c-0.13946,0.57862 -0.22291,1.16821 -0.27736,1.75976c-0.06111,0.58998 -0.06503,1.18506 -0.04153,1.77739c0.08031,1.52588 0.42427,3.04746 1.09025,4.42879c0.22918,0.45835 0.48656,0.90534 0.80427,1.30924c0.46893,0.57157 0.9598,1.12943 1.52001,1.61364c0.36786,0.3138 0.76549,0.59547 1.19054,0.82621c0.25033,0.12614 0.4987,0.25934 0.76157,0.35806c0.38392,0.15513 0.78077,0.27619 1.18153,0.37804c0.29342,0.07326 0.59586,0.10773 0.88262,0.20724c0.38314,0.12027 0.72553,0.35258 0.99819,0.64483c0.37765,0.39998 0.61976,0.90809 0.78155,1.42834c0.076,0.22173 0.12184,0.45208 0.1661,0.68244c0.01136,0.0572 0.01685,0.11635 0.01214,0.17511c-0.49792,0.21272 -1.01582,0.38705 -1.55213,0.47285c-0.31497,0.05955 -0.63503,0.07561 -0.95471,0.08266c-0.78547,0.01841 -1.56819,-0.13476 -2.30743,-0.39175c-0.28637,-0.10852 -0.57392,-0.21821 -0.84501,-0.3612c-0.61741,-0.29382 -1.19838,-0.66559 -1.72059,-1.10631c-0.22369,-0.19509 -0.4466,-0.39254 -0.64365,-0.61427c-0.70163,-0.75217 -1.24891,-1.63832 -1.66927,-2.57461c-0.18295,-0.42466 -0.35336,-0.85559 -0.48813,-1.29749c-0.08971,-0.30165 -0.18099,-0.60369 -0.24994,-0.91122c-0.05759,-0.22487 -0.09363,-0.45522 -0.14338,-0.68244c-0.03526,-0.16375 -0.05289,-0.33064 -0.07874,-0.49596c-0.06503,-0.41565 -0.09794,-0.8364 -0.10186,-1.25714c0.00862,-0.47285 0.0192,-0.94648 0.08188,-1.41541c0.03056,-0.21899 0.05132,-0.43916 0.08814,-0.65815c0.07522,-0.43602 0.16415,-0.87009 0.28441,-1.29553c0.23662,-0.89124 0.57314,-1.75584 0.97233,-2.58911zM48.85161,27.64621c0.08423,0.12693 0.14652,0.26639 0.21311,0.40233c0.16101,0.34043 0.32476,0.68087 0.4611,1.03227c0.58293,1.43539 0.94217,2.96793 0.99897,4.51811c0.00157,0.13476 0.00548,0.26953 0.00862,0.40468c0.00979,0.73219 -0.09716,1.46085 -0.24367,2.17698c-0.05602,0.27462 -0.11792,0.54846 -0.19784,0.81798c-0.30949,1.12629 -0.76627,2.2189 -1.41032,3.19672c-0.62916,0.96176 -1.45654,1.80207 -2.43946,2.40341c-0.43916,0.27462 -0.90339,0.50811 -1.38289,0.7032c-0.44268,0.16767 -0.89712,0.30831 -1.3637,0.39097c-0.49048,0.08031 -0.98918,0.11635 -1.48632,0.09402c-0.60683,-0.03682 -1.20895,-0.15827 -1.77817,-0.37099c-0.14847,-0.06111 -0.30204,-0.11165 -0.44738,-0.17825c-0.01606,-0.11557 0.0192,-0.22878 0.04074,-0.34122c0.08893,-0.43916 0.23231,-0.8693 0.43681,-1.2685c0.18138,-0.34514 0.42309,-0.66167 0.72475,-0.91044c0.18608,-0.1567 0.40155,-0.27619 0.62524,-0.36942c0.27423,-0.11478 0.57235,-0.15083 0.86108,-0.21664c0.55394,-0.13085 1.10083,-0.30087 1.6203,-0.53553c0.79291,-0.35571 1.51021,-0.87087 2.11822,-1.48906c0.12184,-0.12301 0.24759,-0.24328 0.36316,-0.37256c0.25817,-0.28755 0.51398,-0.5794 0.75452,-0.88223c0.57314,-0.77058 0.98213,-1.65203 1.28025,-2.56168c0.12105,-0.40547 0.24602,-0.81093 0.32241,-1.22815c0.04819,-0.21977 0.07953,-0.44229 0.11635,-0.66402c0.0666,-0.4658 0.12184,-0.93512 0.12889,-1.4064c0.00901,-0.50889 0.01058,-1.01935 -0.04074,-1.52588c-0.05602,-0.61153 -0.14338,-1.2211 -0.28441,-1.8197z" id="icon" fill="#ffffff"/></g></svg>