<svg version="1.1" xmlns="http://www.w3.org/2000/svg" xmlns:xlink="http://www.w3.org/1999/xlink" width="70" height="70" viewBox="0,0,70,70" odoo-icon:version="1.0" xmlns:odoo-icon="https://ivantodorovich.github.io/odoo-icon" odoo-icon:size="70" odoo-icon:icon-size="0.65" odoo-icon:icon-color="#FFFFFF" odoo-icon:icon-flat-shadow-angle="135" odoo-icon:background-color="#e53935" odoo-icon:background-gradient="0.2" odoo-icon:box-radius="3.5" odoo-icon:odoo-version="14.0"><defs><linearGradient x1="70" y1="0" x2="0" y2="70" gradientUnits="userSpaceOnUse" id="color-1"><stop offset="0" stop-color="#ff6c68"/><stop offset="1" stop-color="#e53935"/></linearGradient></defs><g fill="none" fill-rule="nonzero" stroke="none" stroke-width="1" stroke-linecap="butt" stroke-linejoin="miter" stroke-miterlimit="10" stroke-dasharray="" stroke-dashoffset="0" font-family="none" font-weight="none" font-size="none" text-anchor="none" style="mix-blend-mode: normal"><path d="M3.5,70c-1.933,0 -3.5,-1.567 -3.5,-3.5v-63c0,-1.933 1.567,-3.5 3.5,-3.5h63c1.933,0 3.5,1.567 3.5,3.5v63c0,1.933 -1.567,3.5 -3.5,3.5z" id="box" fill="url(#color-1)"/><path d="M65,1h-61c-1.95033,0 -3.2667,0.63396 -3.9491,1.90189c0.28378,-1.64806 1.72001,-2.90189 3.4491,-2.90189h63c1.72965,0 3.16627,1.25466 3.44938,2.90352c-0.69803,-1.26902 -2.34782,-1.90352 -4.94938,-1.90352z" id="topBoxShadow" fill="#ffffff" opacity="0.383"/><path d="M4,69h61c2.66667,0 4.33333,-1 5,-3v0.5c0,1.933 -1.567,3.5 -3.5,3.5h-63c-1.933,0 -3.5,-1.567 -3.5,-3.5c0,-0.1611 0,-0.32777 0,-0.5c0.66667,2 2,3 4,3z" id="bottomBoxShadow" fill="#000000" opacity="0.383"/><path d="M54.16524,24.73433c-1.26731,0.00049 -2.45219,0.62703 -3.16607,1.67356c-0.71387,1.04701 -0.86401,2.37909 -0.40183,3.55857l-8.06555,8.06555c-0.89933,-0.35375 -1.89925,-0.35375 -2.79809,0l-5.76594,-5.76594c0.62801,-1.59849 0.11628,-3.41972 -1.25308,-4.45693c-1.36887,-1.0372 -3.26076,-1.0372 -4.62963,0c-1.36887,1.0372 -1.88109,2.85844 -1.25308,4.45693l-9.59878,9.59878c-1.68975,-0.66285 -3.61254,-0.04955 -4.60706,1.46896c-0.99403,1.51851 -0.78698,3.52619 0.49652,4.80969c1.2835,1.2835 3.29118,1.49055 4.80969,0.49652c1.51851,-0.99403 2.13181,-2.91731 1.46896,-4.60706l9.59878,-9.59878c0.89933,0.35375 1.89925,0.35375 2.79809,0l5.76594,5.76594c-0.62801,1.59849 -0.11628,3.41972 1.25308,4.45693c1.36887,1.0372 3.26076,1.0372 4.62963,0c1.36887,-1.0372 1.88109,-2.85844 1.25308,-4.45693l8.06555,-8.06555c1.43511,0.56374 3.06892,0.21294 4.14537,-0.89099c1.07694,-1.10393 1.38702,-2.74559 0.78747,-4.16647c-0.59956,-1.42088 -1.99198,-2.34425 -3.53404,-2.34327z" id="shadow" fill="#000000" opacity="0.3"/><path d="M51.45544,23.85725c0.71142,-0.71142 1.68283,-1.12212 2.70832,-1.12291l0.00049,-0.00049c1.54207,-0.00098 2.93449,0.92239 3.53404,2.34327c0.59956,1.42088 0.28947,3.06254 -0.78747,4.16647c-0.01131,0.0116 -0.02268,0.02312 -0.03412,0.03455l-13.0173,13.0173c-0.00519,0.00525 -0.0104,0.01049 -0.01563,0.01572l-27.68885,27.68885h-12.65494c-1.933,0 -3.5,-1.567 -3.5,-3.5l0,-12.65686l27.6881,-27.6881c0.12294,-0.12294 0.25537,-0.23862 0.39696,-0.3459c1.36887,-1.0372 3.26076,-1.0372 4.62963,0c1.36936,1.0372 1.88109,2.85844 1.25308,4.45693l5.53943,5.53943z" id="flatShadow" fill="#000000" opacity="0.324"/><path d="M54.16524,22.73433c-1.26731,0.00049 -2.45219,0.62703 -3.16607,1.67356c-0.71387,1.04701 -0.86401,2.37909 -0.40183,3.55857l-8.06555,8.06555c-0.89933,-0.35375 -1.89925,-0.35375 -2.79809,0l-5.76594,-5.76594c0.62801,-1.59849 0.11628,-3.41972 -1.25308,-4.45693c-1.36887,-1.0372 -3.26076,-1.0372 -4.62963,0c-1.36887,1.0372 -1.88109,2.85844 -1.25308,4.45693l-9.59878,9.59878c-1.68975,-0.66285 -3.61254,-0.04955 -4.60706,1.46896c-0.99403,1.51851 -0.78698,3.52619 0.49652,4.80969c1.2835,1.2835 3.29118,1.49055 4.80969,0.49652c1.51851,-0.99403 2.13181,-2.91731 1.46896,-4.60706l9.59878,-9.59878c0.89933,0.35375 1.89925,0.35375 2.79809,0l5.76594,5.76594c-0.62801,1.59849 -0.11628,3.41972 1.25308,4.45693c1.36887,1.0372 3.26076,1.0372 4.62963,0c1.36887,-1.0372 1.88109,-2.85844 1.25308,-4.45693l8.06555,-8.06555c1.43511,0.56374 3.06892,0.21294 4.14537,-0.89099c1.07694,-1.10393 1.38702,-2.74559 0.78747,-4.16647c-0.59956,-1.42088 -1.99198,-2.34425 -3.53404,-2.34327z" id="icon" fill="#ffffff"/></g></svg>