<svg version="1.1" xmlns="http://www.w3.org/2000/svg" xmlns:xlink="http://www.w3.org/1999/xlink" width="70" height="70" viewBox="0,0,70,70"><!-- Generated with https://ivantodorovich.github.io/odoo-icon --><defs><linearGradient x1="70" y1="0" x2="0" y2="70" gradientUnits="userSpaceOnUse" id="color-1"><stop offset="0" stop-color="#ff8451"/><stop offset="1" stop-color="#f4511e"/></linearGradient></defs><g fill="none" fill-rule="nonzero" stroke="none" stroke-width="1" stroke-linecap="butt" stroke-linejoin="miter" stroke-miterlimit="10" stroke-dasharray="" stroke-dashoffset="0" font-family="none" font-weight="none" font-size="none" text-anchor="none" style="mix-blend-mode: normal"><path d="M3.5,70c-1.933,0 -3.5,-1.567 -3.5,-3.5v-63c0,-1.933 1.567,-3.5 3.5,-3.5h63c1.933,0 3.5,1.567 3.5,3.5v63c0,1.933 -1.567,3.5 -3.5,3.5z" id="box" fill="url(#color-1)"/><path d="M65,1h-61c-1.95033,0 -3.2667,0.63396 -3.9491,1.90189c0.28378,-1.64806 1.72001,-2.90189 3.4491,-2.90189h63c1.72965,0 3.16627,1.25466 3.44938,2.90352c-0.69803,-1.26902 -2.34782,-1.90352 -4.94938,-1.90352z" id="topBoxShadow" fill="#ffffff" opacity="0.383"/><path d="M4,69h61c2.66667,0 4.33333,-1 5,-3v0.5c0,1.933 -1.567,3.5 -3.5,3.5h-63c-1.933,0 -3.5,-1.567 -3.5,-3.5c0,-0.1611 0,-0.32777 0,-0.5c0.66667,2 2,3 4,3z" id="bottomBoxShadow" fill="#000000" opacity="0.383"/><path d="M40.93737,46.01711l6.2902,-6.2902l1.67012,1.67012l-7.95994,7.95994l-4.3974,-4.3974l1.67012,-1.67012zM54,32.24957v23.75024h-23.75024v-14.49144c-0.75469,0.16074 -1.54624,0.2413 -2.37502,0.2413c-1.64504,0 -3.18519,-0.30932 -4.62009,-0.92759c-1.43489,-0.61865 -2.69651,-1.46567 -3.78522,-2.54185c-1.08871,-1.07617 -1.93574,-2.3317 -2.54185,-3.7666c-0.60611,-1.43489 -0.91543,-2.98113 -0.92759,-4.63871c0,-1.64504 0.30932,-3.18519 0.92759,-4.62009c0.61865,-1.43489 1.46567,-2.69651 2.54185,-3.78522c1.07617,-1.08871 2.3317,-1.93574 3.7666,-2.54185c1.43489,-0.60611 2.98113,-0.91543 4.63871,-0.92759c1.64504,0 3.18519,0.30932 4.62009,0.92759c1.43489,0.61865 2.69651,1.46567 3.78522,2.54185c1.08871,1.07617 1.93574,2.3317 2.54185,3.7666c0.60611,1.43489 0.91543,2.98113 0.92759,4.63871c0,0.82879 -0.08056,1.62034 -0.2413,2.37502zM18.37464,29.87455c0,1.31139 0.24738,2.54185 0.74215,3.6925c0.49476,1.15027 1.17497,2.15234 2.041,3.00583c0.86603,0.85349 1.87418,1.5337 3.02445,2.041c1.15027,0.50731 2.3811,0.76077 3.6925,0.76077c1.31139,0 2.54185,-0.24738 3.6925,-0.74215c1.15027,-0.49476 2.15234,-1.17497 3.00583,-2.041c0.85349,-0.86603 1.5337,-1.87418 2.041,-3.02445c0.50731,-1.15027 0.76077,-2.3811 0.76077,-3.6925c0,-1.31139 -0.24738,-2.54185 -0.74215,-3.6925c-0.49476,-1.15027 -1.17497,-2.15234 -2.041,-3.00583c-0.86603,-0.85349 -1.87418,-1.5337 -3.02445,-2.041c-1.15027,-0.50731 -2.3811,-0.76077 -3.6925,-0.76077c-1.31139,0 -2.54185,0.24738 -3.6925,0.74215c-1.15027,0.49476 -2.15234,1.17497 -3.00583,2.041c-0.85349,0.86603 -1.5337,1.87418 -2.041,3.02445c-0.50731,1.15027 -0.76077,2.3811 -0.76077,3.6925zM51.62498,34.6246h-12.85857c-0.63081,1.39765 -1.45959,2.60987 -2.48636,3.63664c-1.02677,1.02677 -2.24506,1.86164 -3.65526,2.50499v12.85857h19.00019zM34.64717,27.14688l-7.95994,7.95994l-4.3974,-4.3974l1.67012,-1.67012l2.72767,2.72767l6.2902,-6.2902z" id="shadow" fill="#000000" opacity="0.3"/><path d="M54,53.99981l-16.00019,16.00019h-34.49981c-1.933,0 -3.5,-1.567 -3.5,-3.5l0,-27.56122l19.51763,-19.51763c1.06541,-1.06541 2.30487,-1.89629 3.7184,-2.49337c1.43489,-0.60611 2.98113,-0.91543 4.63871,-0.92759c1.64504,0 3.18519,0.30932 4.62009,0.92759c1.43489,0.61865 2.69651,1.46567 3.78522,2.54185c1.08871,1.07617 1.93574,2.3317 2.54185,3.7666c0.60611,1.43489 0.91543,2.98113 0.92759,4.63871c0,0.82879 -0.08056,1.62034 -0.2413,2.37502l14.49182,-0.00038z" id="flatShadow" fill="#000000" opacity="0.324"/><path d="M40.93737,44.01711l6.2902,-6.2902l1.67012,1.67012l-7.95994,7.95994l-4.3974,-4.3974l1.67012,-1.67012zM54,30.24957v23.75024h-23.75024v-14.49144c-0.75469,0.16074 -1.54624,0.2413 -2.37502,0.2413c-1.64504,0 -3.18519,-0.30932 -4.62009,-0.92759c-1.43489,-0.61865 -2.69651,-1.46567 -3.78522,-2.54185c-1.08871,-1.07617 -1.93574,-2.3317 -2.54185,-3.7666c-0.60611,-1.43489 -0.91543,-2.98113 -0.92759,-4.63871c0,-1.64504 0.30932,-3.18519 0.92759,-4.62009c0.61865,-1.43489 1.46567,-2.69651 2.54185,-3.78522c1.07617,-1.08871 2.3317,-1.93574 3.7666,-2.54185c1.43489,-0.60611 2.98113,-0.91543 4.63871,-0.92759c1.64504,0 3.18519,0.30932 4.62009,0.92759c1.43489,0.61865 2.69651,1.46567 3.78522,2.54185c1.08871,1.07617 1.93574,2.3317 2.54185,3.7666c0.60611,1.43489 0.91543,2.98113 0.92759,4.63871c0,0.82879 -0.08056,1.62034 -0.2413,2.37502zM18.37464,27.87455c0,1.31139 0.24738,2.54185 0.74215,3.6925c0.49476,1.15027 1.17497,2.15234 2.041,3.00583c0.86603,0.85349 1.87418,1.5337 3.02445,2.041c1.15027,0.50731 2.3811,0.76077 3.6925,0.76077c1.31139,0 2.54185,-0.24738 3.6925,-0.74215c1.15027,-0.49476 2.15234,-1.17497 3.00583,-2.041c0.85349,-0.86603 1.5337,-1.87418 2.041,-3.02445c0.50731,-1.15027 0.76077,-2.3811 0.76077,-3.6925c0,-1.31139 -0.24738,-2.54185 -0.74215,-3.6925c-0.49476,-1.15027 -1.17497,-2.15234 -2.041,-3.00583c-0.86603,-0.85349 -1.87418,-1.5337 -3.02445,-2.041c-1.15027,-0.50731 -2.3811,-0.76077 -3.6925,-0.76077c-1.31139,0 -2.54185,0.24738 -3.6925,0.74215c-1.15027,0.49476 -2.15234,1.17497 -3.00583,2.041c-0.85349,0.86603 -1.5337,1.87418 -2.041,3.02445c-0.50731,1.15027 -0.76077,2.3811 -0.76077,3.6925zM51.62498,32.6246h-12.85857c-0.63081,1.39765 -1.45959,2.60987 -2.48636,3.63664c-1.02677,1.02677 -2.24506,1.86164 -3.65526,2.50499v12.85857h19.00019zM34.64717,25.14688l-7.95994,7.95994l-4.3974,-4.3974l1.67012,-1.67012l2.72767,2.72767l6.2902,-6.2902z" id="icon" fill="#ffffff"/></g></svg>