<svg version="1.1" xmlns="http://www.w3.org/2000/svg" xmlns:xlink="http://www.w3.org/1999/xlink" width="70" height="70" viewBox="0,0,70,70"><!-- Generated with https://ivantodorovich.github.io/odoo-icon --><defs><linearGradient x1="70" y1="0" x2="0" y2="70" gradientUnits="userSpaceOnUse" id="color-1"><stop offset="0" stop-color="#76d37a"/><stop offset="1" stop-color="#43a047"/></linearGradient></defs><g fill="none" fill-rule="nonzero" stroke="none" stroke-width="1" stroke-linecap="butt" stroke-linejoin="miter" stroke-miterlimit="10" stroke-dasharray="" stroke-dashoffset="0" font-family="none" font-weight="none" font-size="none" text-anchor="none" style="mix-blend-mode: normal"><path d="M3.5,70c-1.933,0 -3.5,-1.567 -3.5,-3.5v-63c0,-1.933 1.567,-3.5 3.5,-3.5h63c1.933,0 3.5,1.567 3.5,3.5v63c0,1.933 -1.567,3.5 -3.5,3.5z" id="box" fill="url(#color-1)"/><path d="M65,1h-61c-1.95033,0 -3.2667,0.63396 -3.9491,1.90189c0.28378,-1.64806 1.72001,-2.90189 3.4491,-2.90189h63c1.72965,0 3.16627,1.25466 3.44938,2.90352c-0.69803,-1.26902 -2.34782,-1.90352 -4.94938,-1.90352z" id="topBoxShadow" fill="#ffffff" opacity="0.383"/><path d="M4,69h61c2.66667,0 4.33333,-1 5,-3v0.5c0,1.933 -1.567,3.5 -3.5,3.5h-63c-1.933,0 -3.5,-1.567 -3.5,-3.5c0,-0.1611 0,-0.32777 0,-0.5c0.66667,2 2,3 4,3z" id="bottomBoxShadow" fill="#000000" opacity="0.383"/><path d="M50.23077,23.15385h-30.46154c-1.5295,0 -2.76923,1.23973 -2.76923,2.76923v22.15385c0,1.5295 1.23973,2.76923 2.76923,2.76923h30.46154c1.5295,0 2.76923,-1.23973 2.76923,-2.76923v-22.15385c0,-1.5295 -1.23973,-2.76923 -2.76923,-2.76923zM23.92308,43.92308c0,0.76475 -0.61986,1.38462 -1.38462,1.38462c-0.76475,0 -1.38462,-0.61986 -1.38462,-1.38462v-13.84615c0,-0.76475 0.61986,-1.38462 1.38462,-1.38462c0.76475,0 1.38462,0.61986 1.38462,1.38462zM36.6097,37.03279l-2.13918,0.69253l1.32214,1.8175c0.44972,0.62119 0.3106,1.48962 -0.3106,1.93935c-0.62119,0.44972 -1.48962,0.3106 -1.93935,-0.3106l-1.31195,-1.81573l-1.32037,1.81883c-0.44972,0.62119 -1.31815,0.76032 -1.93935,0.3106c-0.62119,-0.44972 -0.76032,-1.31815 -0.3106,-1.93935l1.32214,-1.8175l-2.13918,-0.69209c-0.72709,-0.23882 -1.12231,-1.02218 -0.8835,-1.74882c0.23882,-0.72709 1.02218,-1.12231 1.74882,-0.8835l2.1374,0.69253v-2.24994c0,-0.76475 0.61986,-1.38462 1.38462,-1.38462c0.76475,0 1.38462,0.61986 1.38462,1.38462v2.24994l2.1374,-0.69209c0.72709,-0.23882 1.51001,0.15641 1.74882,0.8835c0.23882,0.72709 -0.15641,1.51001 -0.8835,1.74882zM49.07124,37.03279l-2.13918,0.69253l1.32214,1.8175c0.44972,0.62119 0.3106,1.48962 -0.3106,1.93935c-0.62119,0.44972 -1.48962,0.3106 -1.93935,-0.3106l-1.31195,-1.81573l-1.32037,1.81883c-0.44972,0.62119 -1.31815,0.76032 -1.93935,0.3106c-0.62119,-0.44972 -0.76032,-1.31815 -0.3106,-1.93935l1.32214,-1.8175l-2.13918,-0.69209c-0.72709,-0.23882 -1.12231,-1.02218 -0.8835,-1.74882c0.23882,-0.72709 1.02218,-1.12231 1.74882,-0.8835l2.1374,0.69253v-2.24994c0,-0.76475 0.61986,-1.38462 1.38462,-1.38462c0.76475,0 1.38462,0.61986 1.38462,1.38462v2.24994l2.1374,-0.69209c0.72709,-0.23882 1.51001,0.15641 1.74882,0.8835c0.23882,0.72709 -0.15641,1.51001 -0.8835,1.74882z" id="shadow" fill="#000000" opacity="0.3"/><path d="M17,23.92308c1.68849,-1.68849 2.69942,-2.69942 2.76923,-2.76923h30.46154c1.5295,0 2.76923,1.23973 2.76923,2.76923v22.15385c0,0.76475 -0.30993,1.45706 -0.81105,1.95818l-21.9649,21.9649h-26.72405c-1.933,0 -3.5,-1.567 -3.5,-3.5l0,-25.57692c7.14693,-7.14693 13.59694,-13.59694 17,-17z" id="flatShadow" fill="#000000" opacity="0.324"/><path d="M50.23077,21.15385h-30.46154c-1.5295,0 -2.76923,1.23973 -2.76923,2.76923v22.15385c0,1.5295 1.23973,2.76923 2.76923,2.76923h30.46154c1.5295,0 2.76923,-1.23973 2.76923,-2.76923v-22.15385c0,-1.5295 -1.23973,-2.76923 -2.76923,-2.76923zM23.92308,41.92308c0,0.76475 -0.61986,1.38462 -1.38462,1.38462c-0.76475,0 -1.38462,-0.61986 -1.38462,-1.38462v-13.84615c0,-0.76475 0.61986,-1.38462 1.38462,-1.38462c0.76475,0 1.38462,0.61986 1.38462,1.38462zM36.6097,35.03279l-2.13918,0.69253l1.32214,1.8175c0.44972,0.62119 0.3106,1.48962 -0.3106,1.93935c-0.62119,0.44972 -1.48962,0.3106 -1.93935,-0.3106l-1.31195,-1.81573l-1.32037,1.81883c-0.44972,0.62119 -1.31815,0.76032 -1.93935,0.3106c-0.62119,-0.44972 -0.76032,-1.31815 -0.3106,-1.93935l1.32214,-1.8175l-2.13918,-0.69209c-0.72709,-0.23882 -1.12231,-1.02218 -0.8835,-1.74882c0.23882,-0.72709 1.02218,-1.12231 1.74882,-0.8835l2.1374,0.69253v-2.24994c0,-0.76475 0.61986,-1.38462 1.38462,-1.38462c0.76475,0 1.38462,0.61986 1.38462,1.38462v2.24994l2.1374,-0.69209c0.72709,-0.23882 1.51001,0.15641 1.74882,0.8835c0.23882,0.72709 -0.15641,1.51001 -0.8835,1.74882zM49.07124,35.03279l-2.13918,0.69253l1.32214,1.8175c0.44972,0.62119 0.3106,1.48962 -0.3106,1.93935c-0.62119,0.44972 -1.48962,0.3106 -1.93935,-0.3106l-1.31195,-1.81573l-1.32037,1.81883c-0.44972,0.62119 -1.31815,0.76032 -1.93935,0.3106c-0.62119,-0.44972 -0.76032,-1.31815 -0.3106,-1.93935l1.32214,-1.8175l-2.13918,-0.69209c-0.72709,-0.23882 -1.12231,-1.02218 -0.8835,-1.74882c0.23882,-0.72709 1.02218,-1.12231 1.74882,-0.8835l2.1374,0.69253v-2.24994c0,-0.76475 0.61986,-1.38462 1.38462,-1.38462c0.76475,0 1.38462,0.61986 1.38462,1.38462v2.24994l2.1374,-0.69209c0.72709,-0.23882 1.51001,0.15641 1.74882,0.8835c0.23882,0.72709 -0.15641,1.51001 -0.8835,1.74882z" id="icon" fill="#ffffff"/></g></svg>