<svg version="1.1" xmlns="http://www.w3.org/2000/svg" xmlns:xlink="http://www.w3.org/1999/xlink" width="70" height="70" viewBox="0,0,70,70" odoo-icon:version="1.0" xmlns:odoo-icon="https://ivantodorovich.github.io/odoo-icon" odoo-icon:size="70" odoo-icon:icon-size="0.61" odoo-icon:icon-color="#FFFFFF" odoo-icon:icon-flat-shadow-angle="135" odoo-icon:background-color="#ffbc30" odoo-icon:background-gradient="0.2" odoo-icon:box-radius="3.5" odoo-icon:odoo-version="14.0"><defs><linearGradient x1="70" y1="0" x2="0" y2="70" gradientUnits="userSpaceOnUse" id="color-1"><stop offset="0" stop-color="#ffef63"/><stop offset="1" stop-color="#ffbc30"/></linearGradient></defs><g fill="none" fill-rule="nonzero" stroke="none" stroke-width="1" stroke-linecap="butt" stroke-linejoin="miter" stroke-miterlimit="10" stroke-dasharray="" stroke-dashoffset="0" font-family="none" font-weight="none" font-size="none" text-anchor="none" style="mix-blend-mode: normal"><path d="M3.5,70c-1.933,0 -3.5,-1.567 -3.5,-3.5v-63c0,-1.933 1.567,-3.5 3.5,-3.5h63c1.933,0 3.5,1.567 3.5,3.5v63c0,1.933 -1.567,3.5 -3.5,3.5z" id="box" fill="url(#color-1)"/><path d="M65,1h-61c-1.95033,0 -3.2667,0.63396 -3.9491,1.90189c0.28378,-1.64806 1.72001,-2.90189 3.4491,-2.90189h63c1.72965,0 3.16627,1.25466 3.44938,2.90352c-0.69803,-1.26902 -2.34782,-1.90352 -4.94938,-1.90352z" id="topBoxShadow" fill="#ffffff" opacity="0.383"/><path d="M4,69h61c2.66667,0 4.33333,-1 5,-3v0.5c0,1.933 -1.567,3.5 -3.5,3.5h-63c-1.933,0 -3.5,-1.567 -3.5,-3.5c0,-0.1611 0,-0.32777 0,-0.5c0.66667,2 2,3 4,3z" id="bottomBoxShadow" fill="#000000" opacity="0.383"/><path d="M51.125,41.43261c0.02494,0.48031 -0.1548,0.94901 -0.49536,1.28914c-0.34013,0.34013 -0.80883,0.5203 -1.28914,0.49536h-7.181c-0.97825,0.11997 -1.95736,-0.21758 -2.65439,-0.91461c-0.69703,-0.69703 -1.03415,-1.67614 -0.91461,-2.65439v-3.5905c-0.02494,-0.48031 0.1548,-0.94901 0.49536,-1.28914c0.34013,-0.34013 0.80883,-0.5203 1.28914,-0.49536h8.9655c0.48031,-0.02494 0.94901,0.1548 1.28914,0.49536c0.34013,0.34013 0.5203,0.80883 0.49536,1.28914zM31.4095,39.64811c0.12857,0.98599 -0.20812,1.97585 -0.9116,2.6789c-0.70305,0.70305 -1.69291,1.03974 -2.6789,0.9116h-7.1595c-0.48031,0.02494 -0.94901,-0.1548 -1.28914,-0.49536c-0.34013,-0.34013 -0.5203,-0.80883 -0.49536,-1.28914v-5.3965c-0.02494,-0.48031 0.1548,-0.94901 0.49536,-1.28914c0.34013,-0.34013 0.80883,-0.5203 1.28914,-0.49536h8.9655c0.48031,-0.02494 0.94901,0.1548 1.28914,0.49536c0.34013,0.34013 0.5203,0.80883 0.49536,1.28914zM13.5,29.32811v13.502c0,0.23736 0.19264,0.43 0.43,0.43h3.698c0.61404,1.10897 1.78536,1.79353 3.053,1.7845h7.1595c2.27943,0.17458 4.41266,-1.1352 5.289,-3.2465c0.05547,-0.16684 0.21113,-0.27907 0.387,-0.2795h2.9885c0.17587,0.00043 0.33153,0.11266 0.387,0.2795c0.86215,2.1285 2.99882,3.45763 5.289,3.2895h7.1595c1.1825,0 2.365,0 2.9455,-1.505c0.06063,-0.16297 0.21328,-0.27305 0.387,-0.2795h3.397c0.23736,0 0.43,-0.19264 0.43,-0.43v-13.545c0,-0.23736 -0.19264,-0.43 -0.43,-0.43h-42.14c-0.23736,0 -0.43,0.19264 -0.43,0.43z" id="shadow" fill="#000000" opacity="0.3"/><path d="M56.5,27.32811v13.545c0,0.11868 -0.04816,0.22618 -0.12599,0.30401l-28.82288,28.82288h-24.05113c-1.933,0 -3.5,-1.567 -3.5,-3.5l0,-25.84991l13.62599,-13.62599c0.07783,-0.07783 0.18533,-0.12599 0.30401,-0.12599h42.14c0.23736,0 0.43,0.19264 0.43,0.43z" id="flatShadow" fill="#000000" opacity="0.324"/><path d="M51.125,39.43261c0.02494,0.48031 -0.1548,0.94901 -0.49536,1.28914c-0.34013,0.34013 -0.80883,0.5203 -1.28914,0.49536h-7.181c-0.97825,0.11997 -1.95736,-0.21758 -2.65439,-0.91461c-0.69703,-0.69703 -1.03415,-1.67614 -0.91461,-2.65439v-3.5905c-0.02494,-0.48031 0.1548,-0.94901 0.49536,-1.28914c0.34013,-0.34013 0.80883,-0.5203 1.28914,-0.49536h8.9655c0.48031,-0.02494 0.94901,0.1548 1.28914,0.49536c0.34013,0.34013 0.5203,0.80883 0.49536,1.28914zM31.4095,37.64811c0.12857,0.98599 -0.20812,1.97585 -0.9116,2.6789c-0.70305,0.70305 -1.69291,1.03974 -2.6789,0.9116h-7.1595c-0.48031,0.02494 -0.94901,-0.1548 -1.28914,-0.49536c-0.34013,-0.34013 -0.5203,-0.80883 -0.49536,-1.28914v-5.3965c-0.02494,-0.48031 0.1548,-0.94901 0.49536,-1.28914c0.34013,-0.34013 0.80883,-0.5203 1.28914,-0.49536h8.9655c0.48031,-0.02494 0.94901,0.1548 1.28914,0.49536c0.34013,0.34013 0.5203,0.80883 0.49536,1.28914zM13.5,27.32811v13.502c0,0.23736 0.19264,0.43 0.43,0.43h3.698c0.61404,1.10897 1.78536,1.79353 3.053,1.7845h7.1595c2.27943,0.17458 4.41266,-1.1352 5.289,-3.2465c0.05547,-0.16684 0.21113,-0.27907 0.387,-0.2795h2.9885c0.17587,0.00043 0.33153,0.11266 0.387,0.2795c0.86215,2.1285 2.99882,3.45763 5.289,3.2895h7.1595c1.1825,0 2.365,0 2.9455,-1.505c0.06063,-0.16297 0.21328,-0.27305 0.387,-0.2795h3.397c0.23736,0 0.43,-0.19264 0.43,-0.43v-13.545c0,-0.23736 -0.19264,-0.43 -0.43,-0.43h-42.14c-0.23736,0 -0.43,0.19264 -0.43,0.43z" id="icon" fill="#ffffff"/></g></svg>