<svg version="1.1" xmlns="http://www.w3.org/2000/svg" xmlns:xlink="http://www.w3.org/1999/xlink" width="70" height="70" viewBox="0,0,70,70" odoo-icon:version="1.0" xmlns:odoo-icon="https://ivantodorovich.github.io/odoo-icon" odoo-icon:size="70" odoo-icon:icon-size="0.62" odoo-icon:icon-color="#FFFFFF" odoo-icon:icon-flat-shadow-angle="135" odoo-icon:background-color="#5a9442" odoo-icon:background-gradient="0.2" odoo-icon:box-radius="3.5" odoo-icon:odoo-version="14.0"><defs><linearGradient x1="70" y1="0" x2="0" y2="70" gradientUnits="userSpaceOnUse" id="color-1"><stop offset="0" stop-color="#8dc775"/><stop offset="1" stop-color="#5a9442"/></linearGradient></defs><g fill="none" fill-rule="nonzero" stroke="none" stroke-width="1" stroke-linecap="butt" stroke-linejoin="miter" stroke-miterlimit="10" stroke-dasharray="" stroke-dashoffset="0" font-family="none" font-weight="none" font-size="none" text-anchor="none" style="mix-blend-mode: normal"><path d="M3.5,70c-1.933,0 -3.5,-1.567 -3.5,-3.5v-63c0,-1.933 1.567,-3.5 3.5,-3.5h63c1.933,0 3.5,1.567 3.5,3.5v63c0,1.933 -1.567,3.5 -3.5,3.5z" id="box" fill="url(#color-1)"/><path d="M65,1h-61c-1.95033,0 -3.2667,0.63396 -3.9491,1.90189c0.28378,-1.64806 1.72001,-2.90189 3.4491,-2.90189h63c1.72965,0 3.16627,1.25466 3.44938,2.90352c-0.69803,-1.26902 -2.34782,-1.90352 -4.94938,-1.90352z" id="topBoxShadow" fill="#ffffff" opacity="0.383"/><path d="M4,69h61c2.66667,0 4.33333,-1 5,-3v0.5c0,1.933 -1.567,3.5 -3.5,3.5h-63c-1.933,0 -3.5,-1.567 -3.5,-3.5c0,-0.1611 0,-0.32777 0,-0.5c0.66667,2 2,3 4,3z" id="bottomBoxShadow" fill="#000000" opacity="0.383"/><path d="M47.364,37c0.0044,3.77828 -1.72128,7.35108 -4.68336,9.69672l-3.564,-8.32128l8.13736,-3.05272c0.07436,0.55 0.11,1.10836 0.11,1.67772zM57,37c0,12.15016 -9.84984,22 -22,22c-12.15016,0 -22,-9.84984 -22,-22c0,-12.15016 9.84984,-22 22,-22c12.15016,0 22,9.84984 22,22zM54.25,37c-0.00352,-7.99436 -4.9478,-15.15404 -12.42252,-17.98984c-7.47428,-2.83536 -15.9236,-0.75592 -21.22868,5.22412c-5.30508,5.98048 -6.36152,14.61724 -2.65452,21.69992l5.467,-4.55664c-2.1076,-5.55764 0.03388,-11.82896 5.10048,-14.93668c5.0666,-3.10772 11.62744,-2.17448 15.62616,2.22332l-10.52172,4.21036l2.75,6.875l3.66564,8.55228c-1.54,0.69036 -3.245,1.07272 -5.04064,1.07272c-1.49556,0.00132 -2.9788,-0.26884 -4.378,-0.79728l-4.55928,5.47228c5.96772,3.13192 13.13928,2.915 18.9068,-0.57244c5.76752,-3.48744 9.2906,-9.73764 9.28928,-16.47756zM31.43864,37.38236c0.16412,-0.24464 0.154,-0.56716 -0.02508,-0.80124c-0.17908,-0.23408 -0.48796,-0.3278 -0.76692,-0.23276l-4.125,1.375l0.43736,1.30372l2.222,-0.74228l-1.63636,2.45872c-0.16324,0.2442 -0.15312,0.5654 0.02508,0.79904c0.1782,0.23364 0.48532,0.3278 0.76384,0.23496l2.222,-0.74228l-1.63636,2.45872c-0.16324,0.2442 -0.15312,0.5654 0.02508,0.79904c0.1782,0.23364 0.48532,0.3278 0.76384,0.23496l4.125,-1.375l-0.43736,-1.30372l-2.222,0.74228l1.639,-2.45872c0.16412,-0.24464 0.154,-0.56716 -0.02508,-0.80124c-0.17908,-0.23408 -0.48796,-0.3278 -0.76692,-0.23276l-2.222,0.74228z" id="shadow" fill="#000000" opacity="0.3"/><path d="M50.55631,50.55631l-19.44369,19.44369h-27.61262c-1.933,0 -3.5,-1.567 -3.5,-3.5l0,-27.61262l19.44369,-19.44369c3.98123,-3.98123 9.48123,-6.44369 15.55631,-6.44369c12.15016,0 22,9.84984 22,22c0,6.07508 -2.46246,11.57508 -6.44369,15.55631z" id="flatShadow" fill="#000000" opacity="0.324"/><path d="M47.364,35c0.0044,3.77828 -1.72128,7.35108 -4.68336,9.69672l-3.564,-8.32128l8.13736,-3.05272c0.07436,0.55 0.11,1.10836 0.11,1.67772zM57,35c0,12.15016 -9.84984,22 -22,22c-12.15016,0 -22,-9.84984 -22,-22c0,-12.15016 9.84984,-22 22,-22c12.15016,0 22,9.84984 22,22zM54.25,35c-0.00352,-7.99436 -4.9478,-15.15404 -12.42252,-17.98984c-7.47428,-2.83536 -15.9236,-0.75592 -21.22868,5.22412c-5.30508,5.98048 -6.36152,14.61724 -2.65452,21.69992l5.467,-4.55664c-2.1076,-5.55764 0.03388,-11.82896 5.10048,-14.93668c5.0666,-3.10772 11.62744,-2.17448 15.62616,2.22332l-10.52172,4.21036l2.75,6.875l3.66564,8.55228c-1.54,0.69036 -3.245,1.07272 -5.04064,1.07272c-1.49556,0.00132 -2.9788,-0.26884 -4.378,-0.79728l-4.55928,5.47228c5.96772,3.13192 13.13928,2.915 18.9068,-0.57244c5.76752,-3.48744 9.2906,-9.73764 9.28928,-16.47756zM31.43864,35.38236c0.16412,-0.24464 0.154,-0.56716 -0.02508,-0.80124c-0.17908,-0.23408 -0.48796,-0.3278 -0.76692,-0.23276l-4.125,1.375l0.43736,1.30372l2.222,-0.74228l-1.63636,2.45872c-0.16324,0.2442 -0.15312,0.5654 0.02508,0.79904c0.1782,0.23364 0.48532,0.3278 0.76384,0.23496l2.222,-0.74228l-1.63636,2.45872c-0.16324,0.2442 -0.15312,0.5654 0.02508,0.79904c0.1782,0.23364 0.48532,0.3278 0.76384,0.23496l4.125,-1.375l-0.43736,-1.30372l-2.222,0.74228l1.639,-2.45872c0.16412,-0.24464 0.154,-0.56716 -0.02508,-0.80124c-0.17908,-0.23408 -0.48796,-0.3278 -0.76692,-0.23276l-2.222,0.74228z" id="icon" fill="#ffffff"/></g></svg>