<svg version="1.1" xmlns="http://www.w3.org/2000/svg" xmlns:xlink="http://www.w3.org/1999/xlink" width="70" height="70" viewBox="0,0,70,70"><!-- Generated with https://ivantodorovich.github.io/odoo-icon --><defs><linearGradient x1="70" y1="0" x2="0" y2="70" gradientUnits="userSpaceOnUse" id="color-1"><stop offset="0" stop-color="#ff6c68"/><stop offset="1" stop-color="#e53935"/></linearGradient></defs><g fill="none" fill-rule="nonzero" stroke="none" stroke-width="1" stroke-linecap="butt" stroke-linejoin="miter" stroke-miterlimit="10" stroke-dasharray="" stroke-dashoffset="0" font-family="none" font-weight="none" font-size="none" text-anchor="none" style="mix-blend-mode: normal"><path d="M3.5,70c-1.933,0 -3.5,-1.567 -3.5,-3.5v-63c0,-1.933 1.567,-3.5 3.5,-3.5h63c1.933,0 3.5,1.567 3.5,3.5v63c0,1.933 -1.567,3.5 -3.5,3.5z" id="box" fill="url(#color-1)"/><path d="M65,1h-61c-1.95033,0 -3.2667,0.63396 -3.9491,1.90189c0.28378,-1.64806 1.72001,-2.90189 3.4491,-2.90189h63c1.72965,0 3.16627,1.25466 3.44938,2.90352c-0.69803,-1.26902 -2.34782,-1.90352 -4.94938,-1.90352z" id="topBoxShadow" fill="#ffffff" opacity="0.383"/><path d="M4,69h61c2.66667,0 4.33333,-1 5,-3v0.5c0,1.933 -1.567,3.5 -3.5,3.5h-63c-1.933,0 -3.5,-1.567 -3.5,-3.5c0,-0.1611 0,-0.32777 0,-0.5c0.66667,2 2,3 4,3z" id="bottomBoxShadow" fill="#000000" opacity="0.383"/><path d="M32.8998,32.8001h-12.6002l-4.1999,-4.1999l4.1999,-4.1999h12.6002v-6.3001l2.1002,-2.1002l2.1002,2.1002v2.1002h12.6002l4.1999,4.1999l-4.1999,4.1999h-12.6002v4.1999h12.6002l4.1999,4.1999l-4.1999,4.1999h-12.6002v12.6002c2.31945,0 4.1999,1.88045 4.1999,4.1999h-12.6002c0,-2.31945 1.88045,-4.1999 4.1999,-4.1999z" id="shadow" fill="#000000" opacity="0.3"/><path d="M20.2996,22.4003l6.3001,0l8.4003,-8.4003l2.1002,2.1002v2.1002h12.6002l4.1999,4.1999l-8.3998,8.3998h4.1999l4.1999,4.1999l-16.8001,16.8001c2.31945,0 4.1999,1.88045 4.1999,4.1999l-14,14h-23.8001c-1.933,0 -3.5,-1.567 -3.5,-3.5l0,-23.8001z" id="flatShadow" fill="#000000" opacity="0.324"/><path d="M32.8998,30.8001h-12.6002l-4.1999,-4.1999l4.1999,-4.1999h12.6002v-6.3001l2.1002,-2.1002l2.1002,2.1002v2.1002h12.6002l4.1999,4.1999l-4.1999,4.1999h-12.6002v4.1999h12.6002l4.1999,4.1999l-4.1999,4.1999h-12.6002v12.6002c2.31945,0 4.1999,1.88045 4.1999,4.1999h-12.6002c0,-2.31945 1.88045,-4.1999 4.1999,-4.1999z" id="icon" fill="#ffffff"/></g></svg>