<svg version="1.1" xmlns="http://www.w3.org/2000/svg" xmlns:xlink="http://www.w3.org/1999/xlink" width="70" height="70" viewBox="0,0,70,70" odoo-icon:version="1.0" xmlns:odoo-icon="https://ivantodorovich.github.io/odoo-icon" odoo-icon:size="70" odoo-icon:icon-size="0.65" odoo-icon:icon-color="#FFFFFF" odoo-icon:icon-flat-shadow-angle="135" odoo-icon:background-color="#fdd835" odoo-icon:background-gradient="0.2" odoo-icon:box-radius="3.5" odoo-icon:odoo-version="14.0"><defs><linearGradient x1="70" y1="0" x2="0" y2="70" gradientUnits="userSpaceOnUse" id="color-1"><stop offset="0" stop-color="#ffff68"/><stop offset="1" stop-color="#fdd835"/></linearGradient></defs><g fill="none" fill-rule="nonzero" stroke="none" stroke-width="1" stroke-linecap="butt" stroke-linejoin="miter" stroke-miterlimit="10" stroke-dasharray="" stroke-dashoffset="0" font-family="none" font-weight="none" font-size="none" text-anchor="none" style="mix-blend-mode: normal"><path d="M3.5,70c-1.933,0 -3.5,-1.567 -3.5,-3.5v-63c0,-1.933 1.567,-3.5 3.5,-3.5h63c1.933,0 3.5,1.567 3.5,3.5v63c0,1.933 -1.567,3.5 -3.5,3.5z" id="box" fill="url(#color-1)"/><path d="M65,1h-61c-1.95033,0 -3.2667,0.63396 -3.9491,1.90189c0.28378,-1.64806 1.72001,-2.90189 3.4491,-2.90189h63c1.72965,0 3.16627,1.25466 3.44938,2.90352c-0.69803,-1.26902 -2.34782,-1.90352 -4.94938,-1.90352z" id="topBoxShadow" fill="#ffffff" opacity="0.383"/><path d="M4,69h61c2.66667,0 4.33333,-1 5,-3v0.5c0,1.933 -1.567,3.5 -3.5,3.5h-63c-1.933,0 -3.5,-1.567 -3.5,-3.5c0,-0.1611 0,-0.32777 0,-0.5c0.66667,2 2,3 4,3z" id="bottomBoxShadow" fill="#000000" opacity="0.383"/><path d="M12,49.11333l12.16424,-12.11333l-12.16424,-12.11333l10.88667,-10.88667l12.11333,12.16424l12.11333,-12.16424l10.88667,10.88667l-12.16424,12.11333l12.16424,12.11333l-10.88667,10.88667l-12.11333,-12.16424l-12.11333,12.16424l-10.88667,-10.88667M35,40.60333l12.11333,12.13909l3.62909,-3.62909l-12.13909,-12.11333l12.13909,-12.11333l-3.62909,-3.62909l-12.11333,12.13909l-12.11333,-12.13909l-3.62909,3.62909l12.13909,12.11333l-12.13909,12.11333l3.62909,3.62909z" id="shadow" fill="#000000" opacity="0.3"/><path d="M22.88667,12l12.08793,12.13873l12.13873,-12.13873l10.88667,10.88667l-12.13873,12.13873l12.13873,12.08793l-22.88667,22.88667h-31.61333c-1.933,0 -3.5,-1.567 -3.5,-3.5l0,-31.61333z" id="flatShadow" fill="#000000" opacity="0.324"/><path d="M12,47.11333l12.16424,-12.11333l-12.16424,-12.11333l10.88667,-10.88667l12.11333,12.16424l12.11333,-12.16424l10.88667,10.88667l-12.16424,12.11333l12.16424,12.11333l-10.88667,10.88667l-12.11333,-12.16424l-12.11333,12.16424l-10.88667,-10.88667M35,38.60333l12.11333,12.13909l3.62909,-3.62909l-12.13909,-12.11333l12.13909,-12.11333l-3.62909,-3.62909l-12.11333,12.13909l-12.11333,-12.13909l-3.62909,3.62909l12.13909,12.11333l-12.13909,12.11333l3.62909,3.62909z" id="icon" fill="#ffffff"/></g></svg>