<svg version="1.1" xmlns="http://www.w3.org/2000/svg" xmlns:xlink="http://www.w3.org/1999/xlink" width="70" height="70" viewBox="0,0,70,70"><!-- Generated with https://ivantodorovich.github.io/odoo-icon --><defs><linearGradient x1="70" y1="0" x2="0" y2="70" gradientUnits="userSpaceOnUse" id="color-1"><stop offset="0" stop-color="#f3fd66"/><stop offset="1" stop-color="#c0ca33"/></linearGradient></defs><g fill="none" fill-rule="nonzero" stroke="none" stroke-width="1" stroke-linecap="butt" stroke-linejoin="miter" stroke-miterlimit="10" stroke-dasharray="" stroke-dashoffset="0" font-family="none" font-weight="none" font-size="none" text-anchor="none" style="mix-blend-mode: normal"><path d="M3.5,70c-1.933,0 -3.5,-1.567 -3.5,-3.5v-63c0,-1.933 1.567,-3.5 3.5,-3.5h63c1.933,0 3.5,1.567 3.5,3.5v63c0,1.933 -1.567,3.5 -3.5,3.5z" id="box" fill="url(#color-1)"/><path d="M65,1h-61c-1.95033,0 -3.2667,0.63396 -3.9491,1.90189c0.28378,-1.64806 1.72001,-2.90189 3.4491,-2.90189h63c1.72965,0 3.16627,1.25466 3.44938,2.90352c-0.69803,-1.26902 -2.34782,-1.90352 -4.94938,-1.90352z" id="topBoxShadow" fill="#ffffff" opacity="0.383"/><path d="M4,69h61c2.66667,0 4.33333,-1 5,-3v0.5c0,1.933 -1.567,3.5 -3.5,3.5h-63c-1.933,0 -3.5,-1.567 -3.5,-3.5c0,-0.1611 0,-0.32777 0,-0.5c0.66667,2 2,3 4,3z" id="bottomBoxShadow" fill="#000000" opacity="0.383"/><path d="M20.0504,25.50041c-1.90551,0 -3.45001,-1.5445 -3.45001,-3.45001c0,-1.90551 1.5445,-3.45001 3.45001,-3.45001c1.90551,0 3.45001,1.5445 3.45001,3.45001c0,1.90551 -1.5445,3.45001 -3.45001,3.45001M56.64318,36.03427l-20.70008,-20.70008c-0.828,-0.828 -1.97782,-1.33419 -3.24301,-1.33419h-16.10025c-2.55301,0 -4.59983,2.04682 -4.59983,4.59983v16.10025c0,1.26519 0.50619,2.41501 1.35682,3.24301l20.6769,20.70008c0.85119,0.828 2.00101,1.35682 3.2662,1.35682c1.26519,0 2.41501,-0.52882 3.24301,-1.35682l16.10025,-16.10025c0.85119,-0.828 1.35682,-1.97782 1.35682,-3.24301c0,-1.28782 -0.52882,-2.43819 -1.35682,-3.2662z" id="shadow" fill="#000000" opacity="0.3"/><path d="M13.34254,13.34254c0,0 0,0 0,0c0.83083,-0.83083 1.98079,-1.34254 3.2573,-1.34254h16.10025c1.26519,0 2.41501,0.50619 3.24301,1.33419l20.69981,20.69981l0.00028,-0.00028c0.828,0.828 1.35682,1.97838 1.35682,3.2662c0,1.2432 -0.48821,2.37501 -1.31275,3.19955l-29.50053,29.50053h-23.68671c-1.933,0 -3.5,-1.567 -3.5,-3.5l0,-39.81492z" id="flatShadow" fill="#000000" opacity="0.324"/><path d="M20.0504,23.50041c-1.90551,0 -3.45001,-1.5445 -3.45001,-3.45001c0,-1.90551 1.5445,-3.45001 3.45001,-3.45001c1.90551,0 3.45001,1.5445 3.45001,3.45001c0,1.90551 -1.5445,3.45001 -3.45001,3.45001M56.64318,34.03427l-20.70008,-20.70008c-0.828,-0.828 -1.97782,-1.33419 -3.24301,-1.33419h-16.10025c-2.55301,0 -4.59983,2.04682 -4.59983,4.59983v16.10025c0,1.26519 0.50619,2.41501 1.35682,3.24301l20.6769,20.70008c0.85119,0.828 2.00101,1.35682 3.2662,1.35682c1.26519,0 2.41501,-0.52882 3.24301,-1.35682l16.10025,-16.10025c0.85119,-0.828 1.35682,-1.97782 1.35682,-3.24301c0,-1.28782 -0.52882,-2.43819 -1.35682,-3.2662z" id="icon" fill="#ffffff"/></g></svg>