<svg version="1.1" xmlns="http://www.w3.org/2000/svg" xmlns:xlink="http://www.w3.org/1999/xlink" width="70" height="70" viewBox="0,0,70,70" odoo-icon:version="1.0" xmlns:odoo-icon="https://ivantodorovich.github.io/odoo-icon" odoo-icon:size="70" odoo-icon:icon-size="0.65" odoo-icon:icon-color="#FFFFFF" odoo-icon:icon-flat-shadow-angle="135" odoo-icon:background-color="#334984" odoo-icon:background-gradient="0.2" odoo-icon:box-radius="3.5" odoo-icon:odoo-version="14.0"><defs><linearGradient x1="70" y1="0" x2="0" y2="70" gradientUnits="userSpaceOnUse" id="color-1"><stop offset="0" stop-color="#667cb7"/><stop offset="1" stop-color="#334984"/></linearGradient></defs><g fill="none" fill-rule="nonzero" stroke="none" stroke-width="1" stroke-linecap="butt" stroke-linejoin="miter" stroke-miterlimit="10" stroke-dasharray="" stroke-dashoffset="0" font-family="none" font-weight="none" font-size="none" text-anchor="none" style="mix-blend-mode: normal"><path d="M3.5,70c-1.933,0 -3.5,-1.567 -3.5,-3.5v-63c0,-1.933 1.567,-3.5 3.5,-3.5h63c1.933,0 3.5,1.567 3.5,3.5v63c0,1.933 -1.567,3.5 -3.5,3.5z" id="box" fill="url(#color-1)"/><path d="M65,1h-61c-1.95033,0 -3.2667,0.63396 -3.9491,1.90189c0.28378,-1.64806 1.72001,-2.90189 3.4491,-2.90189h63c1.72965,0 3.16627,1.25466 3.44938,2.90352c-0.69803,-1.26902 -2.34782,-1.90352 -4.94938,-1.90352z" id="topBoxShadow" fill="#ffffff" opacity="0.383"/><path d="M4,69h61c2.66667,0 4.33333,-1 5,-3v0.5c0,1.933 -1.567,3.5 -3.5,3.5h-63c-1.933,0 -3.5,-1.567 -3.5,-3.5c0,-0.1611 0,-0.32777 0,-0.5c0.66667,2 2,3 4,3z" id="bottomBoxShadow" fill="#000000" opacity="0.383"/><path d="M54.16678,19.75006h-38.33356c-2.08934,0.07682 -3.75686,1.74434 -3.83322,3.83322v26.83345c0.07682,2.08934 1.74434,3.75686 3.83322,3.83322h38.33356c2.08934,-0.07682 3.75686,-1.74434 3.83322,-3.83322v-26.83345c-0.07314,-2.08612 -1.74756,-3.76008 -3.83322,-3.83322M54.16678,50.41718h-38.33356v-26.83345h38.33356v26.83345M38.83299,46.58351v-2.3957c0,-3.18185 -6.40188,-4.79187 -9.58328,-4.79187c-3.18185,0 -9.58328,1.61002 -9.58328,4.79187v2.3957h19.16701M29.24971,27.41695c-2.64641,0 -4.79187,2.14546 -4.79187,4.79187c0,2.64641 2.14546,4.79187 4.79187,4.79187c2.64641,0 4.79187,-2.14546 4.79187,-4.79187c0,-2.64641 -2.14546,-4.79187 -4.79187,-4.79187M38.83299,27.41695v1.91684h11.50012v-1.91684h-11.50012M38.83299,31.25017v1.91684h11.50012v-1.91684h-11.50012M38.83299,35.08339v1.91684h7.6669v-1.91684z" id="shadow" fill="#000000" opacity="0.3"/><path d="M15.83322,17.75006h38.33356c2.08566,0.07314 3.76008,1.7471 3.83322,3.83322v26.83345l-21.58328,21.58328h-32.91672c-1.933,0 -3.5,-1.567 -3.5,-3.5l0,-32.91672z" id="flatShadow" fill="#000000" opacity="0.324"/><path d="M54.16678,17.75006h-38.33356c-2.08934,0.07682 -3.75686,1.74434 -3.83322,3.83322v26.83345c0.07682,2.08934 1.74434,3.75686 3.83322,3.83322h38.33356c2.08934,-0.07682 3.75686,-1.74434 3.83322,-3.83322v-26.83345c-0.07314,-2.08612 -1.74756,-3.76008 -3.83322,-3.83322M54.16678,48.41718h-38.33356v-26.83345h38.33356v26.83345M38.83299,44.58351v-2.3957c0,-3.18185 -6.40188,-4.79187 -9.58328,-4.79187c-3.18185,0 -9.58328,1.61002 -9.58328,4.79187v2.3957h19.16701M29.24971,25.41695c-2.64641,0 -4.79187,2.14546 -4.79187,4.79187c0,2.64641 2.14546,4.79187 4.79187,4.79187c2.64641,0 4.79187,-2.14546 4.79187,-4.79187c0,-2.64641 -2.14546,-4.79187 -4.79187,-4.79187M38.83299,25.41695v1.91684h11.50012v-1.91684h-11.50012M38.83299,29.25017v1.91684h11.50012v-1.91684h-11.50012M38.83299,33.08339v1.91684h7.6669v-1.91684z" id="icon" fill="#ffffff"/></g></svg>