<svg version="1.1" xmlns="http://www.w3.org/2000/svg" xmlns:xlink="http://www.w3.org/1999/xlink" width="70" height="70" viewBox="0,0,70,70" odoo-icon:version="1.0" xmlns:odoo-icon="https://ivantodorovich.github.io/odoo-icon" odoo-icon:size="70" odoo-icon:icon-size="0.67" odoo-icon:icon-color="#FFFFFF" odoo-icon:icon-flat-shadow-angle="135" odoo-icon:background-color="#bfb422" odoo-icon:background-gradient="0.2" odoo-icon:box-radius="3.5" odoo-icon:odoo-version="14.0"><defs><linearGradient x1="70" y1="0" x2="0" y2="70" gradientUnits="userSpaceOnUse" id="color-1"><stop offset="0" stop-color="#f2e755"/><stop offset="1" stop-color="#bfb422"/></linearGradient></defs><g fill="none" fill-rule="nonzero" stroke="none" stroke-width="1" stroke-linecap="butt" stroke-linejoin="miter" stroke-miterlimit="10" stroke-dasharray="" stroke-dashoffset="0" font-family="none" font-weight="none" font-size="none" text-anchor="none" style="mix-blend-mode: normal"><path d="M3.5,70c-1.933,0 -3.5,-1.567 -3.5,-3.5v-63c0,-1.933 1.567,-3.5 3.5,-3.5h63c1.933,0 3.5,1.567 3.5,3.5v63c0,1.933 -1.567,3.5 -3.5,3.5z" id="box" fill="url(#color-1)"/><path d="M65,1h-61c-1.95033,0 -3.2667,0.63396 -3.9491,1.90189c0.28378,-1.64806 1.72001,-2.90189 3.4491,-2.90189h63c1.72965,0 3.16627,1.25466 3.44938,2.90352c-0.69803,-1.26902 -2.34782,-1.90352 -4.94938,-1.90352z" id="topBoxShadow" fill="#ffffff" opacity="0.383"/><path d="M4,69h61c2.66667,0 4.33333,-1 5,-3v0.5c0,1.933 -1.567,3.5 -3.5,3.5h-63c-1.933,0 -3.5,-1.567 -3.5,-3.5c0,-0.1611 0,-0.32777 0,-0.5c0.66667,2 2,3 4,3z" id="bottomBoxShadow" fill="#000000" opacity="0.383"/><path d="M33.43333,19.76667v-4.7c0,-0.8653 0.70137,-1.56667 1.56667,-1.56667c0.8653,0 1.56667,0.70137 1.56667,1.56667v4.7c0,0.8653 -0.70137,1.56667 -1.56667,1.56667c-0.8653,0 -1.56667,-0.70137 -1.56667,-1.56667zM47.53333,37c0,6.92191 -5.61142,12.53333 -12.53333,12.53333c-6.92191,0 -12.53333,-5.61142 -12.53333,-12.53333c0,-6.92191 5.61142,-12.53333 12.53333,-12.53333c6.9189,0.00752 12.52581,5.61443 12.53333,12.53333zM18.22489,22.44178c-0.61213,-0.61213 -0.61213,-1.60477 0,-2.2169c0.61213,-0.61213 1.60477,-0.61213 2.2169,0l3.13333,3.13333c0.61213,0.61213 0.61213,1.60477 0,2.2169c-0.61213,0.61213 -1.60477,0.61213 -2.2169,0zM23.57511,48.42489c0.61213,0.61213 0.61213,1.60477 0,2.2169l-3.13333,3.13333c-0.61213,0.61213 -1.60477,0.61213 -2.2169,0c-0.61213,-0.61213 -0.61213,-1.60477 0,-2.2169l3.13333,-3.13333c0.61213,-0.61213 1.60477,-0.61213 2.2169,0zM46.08498,25.06626c-0.24265,-0.58556 -0.10829,-1.25985 0.34041,-1.70804l3.13333,-3.13333c0.61213,-0.61213 1.60477,-0.61213 2.2169,0c0.61213,0.61213 0.61213,1.60477 0,2.2169l-3.13333,3.13333c-0.29428,0.29378 -0.69284,0.45872 -1.10845,0.45822c-0.63419,0.0005 -1.20571,-0.38101 -1.44835,-0.96707zM51.77511,51.55822c0.61213,0.61213 0.61213,1.60477 0,2.2169c-0.61213,0.61213 -1.60477,0.61213 -2.2169,0l-3.13333,-3.13333c-0.61213,-0.61213 -0.61213,-1.60477 0,-2.2169c0.61213,-0.61213 1.60477,-0.61213 2.2169,0zM17.76667,38.56667h-4.7c-0.8653,0 -1.56667,-0.70137 -1.56667,-1.56667c0,-0.8653 0.70137,-1.56667 1.56667,-1.56667h4.7c0.8653,0 1.56667,0.70137 1.56667,1.56667c0,0.8653 -0.70137,1.56667 -1.56667,1.56667zM36.56667,54.23333v4.7c0,0.8653 -0.70137,1.56667 -1.56667,1.56667c-0.8653,0 -1.56667,-0.70137 -1.56667,-1.56667v-4.7c0,-0.8653 0.70137,-1.56667 1.56667,-1.56667c0.8653,0 1.56667,0.70137 1.56667,1.56667zM58.5,37c0,0.8653 -0.70137,1.56667 -1.56667,1.56667h-4.7c-0.8653,0 -1.56667,-0.70137 -1.56667,-1.56667c0,-0.8653 0.70137,-1.56667 1.56667,-1.56667h4.7c0.8653,0 1.56667,0.70137 1.56667,1.56667z" id="shadow" fill="#000000" opacity="0.3"/><path d="M33.89218,11.95885c0.2835,-0.2835 0.67517,-0.45885 1.10782,-0.45885c0.8653,0 1.56667,0.70137 1.56667,1.56667v4.7c0,0.43265 -0.17534,0.82432 -0.45885,1.10782l-3.90563,3.90563c0.89961,-0.20512 1.83606,-0.31345 2.79781,-0.31345c2.89469,0.00315 5.55974,0.98639 7.68116,2.63577l3.7436,-3.7436c0.00021,-0.00021 0.00042,-0.00042 0.00062,-0.00062l3.13333,-3.13333c0.61213,-0.61213 1.60477,-0.61213 2.2169,0c0.61213,0.61213 0.61213,1.60477 0,2.2169l-6.87762,6.87762c1.64912,2.12134 2.63219,4.78616 2.63534,7.6806c0,0.96175 -0.10833,1.89819 -0.31345,2.79781l3.90563,-3.90563c0.2835,-0.2835 0.67517,-0.45885 1.10782,-0.45885h4.7c0.8653,0 1.56667,0.70137 1.56667,1.56667c0,0.43265 -0.17534,0.82432 -0.45885,1.10782l-9.95737,9.95737c0.2035,0.07615 0.39435,0.19605 0.558,0.3597l3.13333,3.13333c0.61213,0.61213 0.61213,1.60477 0,2.2169l-18.22489,18.22489h-30.05023c-1.933,0 -3.5,-1.567 -3.5,-3.5l0,-27.83333l20.44178,-20.44178l3.13333,3.13333c0.16365,0.16365 0.28355,0.35449 0.3597,0.558z" id="flatShadow" fill="#000000" opacity="0.324"/><path d="M33.43333,17.76667v-4.7c0,-0.8653 0.70137,-1.56667 1.56667,-1.56667c0.8653,0 1.56667,0.70137 1.56667,1.56667v4.7c0,0.8653 -0.70137,1.56667 -1.56667,1.56667c-0.8653,0 -1.56667,-0.70137 -1.56667,-1.56667zM47.53333,35c0,6.92191 -5.61142,12.53333 -12.53333,12.53333c-6.92191,0 -12.53333,-5.61142 -12.53333,-12.53333c0,-6.92191 5.61142,-12.53333 12.53333,-12.53333c6.9189,0.00752 12.52581,5.61443 12.53333,12.53333zM18.22489,20.44178c-0.61213,-0.61213 -0.61213,-1.60477 0,-2.2169c0.61213,-0.61213 1.60477,-0.61213 2.2169,0l3.13333,3.13333c0.61213,0.61213 0.61213,1.60477 0,2.2169c-0.61213,0.61213 -1.60477,0.61213 -2.2169,0zM23.57511,46.42489c0.61213,0.61213 0.61213,1.60477 0,2.2169l-3.13333,3.13333c-0.61213,0.61213 -1.60477,0.61213 -2.2169,0c-0.61213,-0.61213 -0.61213,-1.60477 0,-2.2169l3.13333,-3.13333c0.61213,-0.61213 1.60477,-0.61213 2.2169,0zM46.08498,23.06626c-0.24265,-0.58556 -0.10829,-1.25985 0.34041,-1.70804l3.13333,-3.13333c0.61213,-0.61213 1.60477,-0.61213 2.2169,0c0.61213,0.61213 0.61213,1.60477 0,2.2169l-3.13333,3.13333c-0.29428,0.29378 -0.69284,0.45872 -1.10845,0.45822c-0.63419,0.0005 -1.20571,-0.38101 -1.44835,-0.96707zM51.77511,49.55822c0.61213,0.61213 0.61213,1.60477 0,2.2169c-0.61213,0.61213 -1.60477,0.61213 -2.2169,0l-3.13333,-3.13333c-0.61213,-0.61213 -0.61213,-1.60477 0,-2.2169c0.61213,-0.61213 1.60477,-0.61213 2.2169,0zM17.76667,36.56667h-4.7c-0.8653,0 -1.56667,-0.70137 -1.56667,-1.56667c0,-0.8653 0.70137,-1.56667 1.56667,-1.56667h4.7c0.8653,0 1.56667,0.70137 1.56667,1.56667c0,0.8653 -0.70137,1.56667 -1.56667,1.56667zM36.56667,52.23333v4.7c0,0.8653 -0.70137,1.56667 -1.56667,1.56667c-0.8653,0 -1.56667,-0.70137 -1.56667,-1.56667v-4.7c0,-0.8653 0.70137,-1.56667 1.56667,-1.56667c0.8653,0 1.56667,0.70137 1.56667,1.56667zM58.5,35c0,0.8653 -0.70137,1.56667 -1.56667,1.56667h-4.7c-0.8653,0 -1.56667,-0.70137 -1.56667,-1.56667c0,-0.8653 0.70137,-1.56667 1.56667,-1.56667h4.7c0.8653,0 1.56667,0.70137 1.56667,1.56667z" id="icon" fill="#ffffff"/></g></svg>