<svg version="1.1" xmlns="http://www.w3.org/2000/svg" xmlns:xlink="http://www.w3.org/1999/xlink" width="70" height="70" viewBox="0,0,70,70" odoo-icon:version="1.0" xmlns:odoo-icon="https://ivantodorovich.github.io/odoo-icon" odoo-icon:size="70" odoo-icon:icon-size="0.64" odoo-icon:icon-color="#FFFFFF" odoo-icon:icon-flat-shadow-angle="135" odoo-icon:background-color="#5a9442" odoo-icon:background-gradient="0.2" odoo-icon:box-radius="3.5" odoo-icon:odoo-version="14.0"><defs><linearGradient x1="70" y1="0" x2="0" y2="70" gradientUnits="userSpaceOnUse" id="color-1"><stop offset="0" stop-color="#8dc775"/><stop offset="1" stop-color="#5a9442"/></linearGradient></defs><g fill="none" fill-rule="nonzero" stroke="none" stroke-width="1" stroke-linecap="butt" stroke-linejoin="miter" stroke-miterlimit="10" stroke-dasharray="" stroke-dashoffset="0" font-family="none" font-weight="none" font-size="none" text-anchor="none" style="mix-blend-mode: normal"><path d="M3.5,70c-1.933,0 -3.5,-1.567 -3.5,-3.5v-63c0,-1.933 1.567,-3.5 3.5,-3.5h63c1.933,0 3.5,1.567 3.5,3.5v63c0,1.933 -1.567,3.5 -3.5,3.5z" id="box" fill="url(#color-1)"/><path d="M65,1h-61c-1.95033,0 -3.2667,0.63396 -3.9491,1.90189c0.28378,-1.64806 1.72001,-2.90189 3.4491,-2.90189h63c1.72965,0 3.16627,1.25466 3.44938,2.90352c-0.69803,-1.26902 -2.34782,-1.90352 -4.94938,-1.90352z" id="topBoxShadow" fill="#ffffff" opacity="0.383"/><path d="M4,69h61c2.66667,0 4.33333,-1 5,-3v0.5c0,1.933 -1.567,3.5 -3.5,3.5h-63c-1.933,0 -3.5,-1.567 -3.5,-3.5c0,-0.1611 0,-0.32777 0,-0.5c0.66667,2 2,3 4,3z" id="bottomBoxShadow" fill="#000000" opacity="0.383"/><path d="M35.52268,17.52206c-0.3357,-0.13455 -0.71056,-0.13455 -1.04626,0l-16.78517,6.71362l6.76132,2.70273l17.30852,-6.92152zM45.54653,21.53295l-17.30807,6.92152l6.76132,2.70273l17.30852,-6.92152zM54.68702,26.31425l-18.28143,7.31257v22.28062l18.28143,-7.31257v-22.27792zM33.59306,55.9106v-22.28647l-18.28143,-7.30987v22.28377zM33.43286,14.90934c1.00576,-0.4023 2.12762,-0.4023 3.13338,0l20.0504,8.02133c0.53326,0.21375 0.88291,0.73036 0.88336,1.30501v24.36234c-0.0009,1.14976 -0.70111,2.18342 -1.76897,2.61003l-20.2079,8.08343c-0.3357,0.13455 -0.71056,0.13455 -1.04626,0l-20.2052,-8.08343c-1.06876,-0.4257 -1.77077,-1.45936 -1.77167,-2.61003v-24.36189c0,-0.57466 0.34965,-1.09126 0.88336,-1.30501z" id="shadow" fill="#000000" opacity="0.3"/><path d="M36.56624,12.90934l20.0504,8.02133c0.53326,0.21375 0.88291,0.73036 0.88336,1.30501v24.36234c-0.0006,0.7608 -0.30738,1.47076 -0.82427,1.98765l-21.41433,21.41433h-31.7614c-1.933,0 -3.5,-1.567 -3.5,-3.5l0,-32.34614l12.91184,-12.91184c0.13191,-0.13191 0.29121,-0.23869 0.47152,-0.3109l20.0495,-8.02178c1.00576,-0.4023 2.12762,-0.4023 3.13338,0z" id="flatShadow" fill="#000000" opacity="0.324"/><path d="M35.52268,15.52206c-0.3357,-0.13455 -0.71056,-0.13455 -1.04626,0l-16.78517,6.71362l6.76132,2.70273l17.30852,-6.92152zM45.54653,19.53295l-17.30807,6.92152l6.76132,2.70273l17.30852,-6.92152zM54.68702,24.31425l-18.28143,7.31257v22.28062l18.28143,-7.31257v-22.27792zM33.59306,53.9106v-22.28647l-18.28143,-7.30987v22.28377zM33.43286,12.90934c1.00576,-0.4023 2.12762,-0.4023 3.13338,0l20.0504,8.02133c0.53326,0.21375 0.88291,0.73036 0.88336,1.30501v24.36234c-0.0009,1.14976 -0.70111,2.18342 -1.76897,2.61003l-20.2079,8.08343c-0.3357,0.13455 -0.71056,0.13455 -1.04626,0l-20.2052,-8.08343c-1.06876,-0.4257 -1.77077,-1.45936 -1.77167,-2.61003v-24.36189c0,-0.57466 0.34965,-1.09126 0.88336,-1.30501z" id="icon" fill="#ffffff"/></g></svg>