<svg version="1.1" xmlns="http://www.w3.org/2000/svg" xmlns:xlink="http://www.w3.org/1999/xlink" width="70" height="70" viewBox="0,0,70,70" odoo-icon:version="1.0" xmlns:odoo-icon="https://ivantodorovich.github.io/odoo-icon" odoo-icon:size="70" odoo-icon:icon-size="0.6" odoo-icon:icon-color="#FFFFFF" odoo-icon:icon-flat-shadow-angle="135" odoo-icon:background-color="#334984" odoo-icon:background-gradient="0.2" odoo-icon:box-radius="3.5" odoo-icon:odoo-version="16.0"><defs><linearGradient x1="70" y1="0" x2="0" y2="70" gradientUnits="userSpaceOnUse" id="color-1"><stop offset="0" stop-color="#667cb7"/><stop offset="1" stop-color="#334984"/></linearGradient></defs><g fill="none" fill-rule="nonzero" stroke="none" stroke-width="1" stroke-linecap="butt" stroke-linejoin="miter" stroke-miterlimit="10" stroke-dasharray="" stroke-dashoffset="0" font-family="none" font-weight="none" font-size="none" text-anchor="none" style="mix-blend-mode: normal"><path d="M3.5,70c-1.933,0 -3.5,-1.567 -3.5,-3.5v-63c0,-1.933 1.567,-3.5 3.5,-3.5h63c1.933,0 3.5,1.567 3.5,3.5v63c0,1.933 -1.567,3.5 -3.5,3.5z" id="box" fill="url(#color-1)"/><path d="M65,1h-61c-1.95033,0 -3.2667,0.63396 -3.9491,1.90189c0.28378,-1.64806 1.72001,-2.90189 3.4491,-2.90189h63c1.72965,0 3.16627,1.25466 3.44938,2.90352c-0.69803,-1.26902 -2.34782,-1.90352 -4.94938,-1.90352z" id="topBoxShadow" fill="#ffffff" opacity="0.383"/><path d="M4,69h61c2.66667,0 4.33333,-1 5,-3v0.5c0,1.933 -1.567,3.5 -3.5,3.5h-63c-1.933,0 -3.5,-1.567 -3.5,-3.5c0,-0.1611 0,-0.32777 0,-0.5c0.66667,2 2,3 4,3z" id="bottomBoxShadow" fill="#000000" opacity="0.383"/><path d="M45.50013,26.49988h10.49987v21.00024h-10.49987v4.19985c0,1.15971 0.93996,2.10018 2.10018,2.10018h4.19985v4.19985h-5.25019c-1.15517,0 -3.15001,-0.945 -3.15001,-2.10018c0,1.15517 -1.99484,2.10018 -3.15001,2.10018h-5.25019v-4.19985h4.19985c1.15971,0 2.10018,-0.93996 2.10018,-2.10018v-29.39994c0,-1.15971 -0.93996,-2.10018 -2.10018,-2.10018h-4.19985v-4.19985h5.25019c1.15517,0 3.15001,0.945 3.15001,2.10018c0,-1.15517 1.99484,-2.10018 3.15001,-2.10018h5.25019v4.19985h-4.19985c-1.15971,0 -2.10018,0.93996 -2.10018,2.10018v4.19985M14,26.49988h23.09991v4.19985h-18.90008v12.60005h18.90008v4.19985h-23.09991v-21.00024M51.80015,43.29977v-12.60005h-6.30003v12.60005z" id="shadow" fill="#000000" opacity="0.3"/><path d="M56,24.49988v21.00024l-6.30003,6.30003h2.10019v4.19985l-14,14h-34.30016c-1.933,0 -3.5,-1.567 -3.5,-3.5l0,-28.00062l14,-14l0,0.0005h10.49988l10.49988,-10.49988h5.25019c1.01294,0 2.6715,0.72662 3.06457,1.68441l0.56671,-0.56671c0.66352,-0.66352 1.8679,-1.1177 2.66873,-1.1177h5.25019v4.19985l-6.30003,6.30003z" id="flatShadow" fill="#000000" opacity="0.324"/><path d="M45.50013,24.49988h10.49987v21.00024h-10.49987v4.19985c0,1.15971 0.93996,2.10018 2.10018,2.10018h4.19985v4.19985h-5.25019c-1.15517,0 -3.15001,-0.945 -3.15001,-2.10018c0,1.15517 -1.99484,2.10018 -3.15001,2.10018h-5.25019v-4.19985h4.19985c1.15971,0 2.10018,-0.93996 2.10018,-2.10018v-29.39994c0,-1.15971 -0.93996,-2.10018 -2.10018,-2.10018h-4.19985v-4.19985h5.25019c1.15517,0 3.15001,0.945 3.15001,2.10018c0,-1.15517 1.99484,-2.10018 3.15001,-2.10018h5.25019v4.19985h-4.19985c-1.15971,0 -2.10018,0.93996 -2.10018,2.10018v4.19985M14,24.49988h23.09991v4.19985h-18.90008v12.60005h18.90008v4.19985h-23.09991v-21.00024M51.80015,41.29977v-12.60005h-6.30003v12.60005z" id="icon" fill="#ffffff"/></g></svg>