<svg version="1.1" xmlns="http://www.w3.org/2000/svg" xmlns:xlink="http://www.w3.org/1999/xlink" width="70" height="70" viewBox="0,0,70,70" odoo-icon:version="1.0" xmlns:odoo-icon="https://ivantodorovich.github.io/odoo-icon" odoo-icon:size="70" odoo-icon:icon-size="0.6" odoo-icon:icon-color="#FFFFFF" odoo-icon:icon-flat-shadow-angle="135" odoo-icon:background-color="#5a9442" odoo-icon:background-gradient="0.2" odoo-icon:box-radius="3.5" odoo-icon:odoo-version="14.0"><defs><linearGradient x1="70" y1="0" x2="0" y2="70" gradientUnits="userSpaceOnUse" id="color-1"><stop offset="0" stop-color="#8dc775"/><stop offset="1" stop-color="#5a9442"/></linearGradient></defs><g fill="none" fill-rule="nonzero" stroke="none" stroke-width="1" stroke-linecap="butt" stroke-linejoin="miter" stroke-miterlimit="10" stroke-dasharray="" stroke-dashoffset="0" font-family="none" font-weight="none" font-size="none" text-anchor="none" style="mix-blend-mode: normal"><path d="M3.5,70c-1.933,0 -3.5,-1.567 -3.5,-3.5v-63c0,-1.933 1.567,-3.5 3.5,-3.5h63c1.933,0 3.5,1.567 3.5,3.5v63c0,1.933 -1.567,3.5 -3.5,3.5z" id="box" fill="url(#color-1)"/><path d="M65,1h-61c-1.95033,0 -3.2667,0.63396 -3.9491,1.90189c0.28378,-1.64806 1.72001,-2.90189 3.4491,-2.90189h63c1.72965,0 3.16627,1.25466 3.44938,2.90352c-0.69803,-1.26902 -2.34782,-1.90352 -4.94938,-1.90352z" id="topBoxShadow" fill="#ffffff" opacity="0.383"/><path d="M4,69h61c2.66667,0 4.33333,-1 5,-3v0.5c0,1.933 -1.567,3.5 -3.5,3.5h-63c-1.933,0 -3.5,-1.567 -3.5,-3.5c0,-0.1611 0,-0.32777 0,-0.5c0.66667,2 2,3 4,3z" id="bottomBoxShadow" fill="#000000" opacity="0.383"/><path d="M19.47828,29.6957c-1.0045,0 -1.82624,-0.82174 -1.82624,-1.82624c0,-1.0045 0.82174,-1.82624 1.82624,-1.82624h4.63813c-0.63899,1.09566 -0.98609,2.35566 -0.98609,3.65204h-3.65204M23.13032,38.82646h-5.47828c-1.0045,0 -1.82624,-0.82174 -1.82624,-1.82624c0,-1.0045 0.82174,-1.82624 1.82624,-1.82624h5.47828v3.65204M15.82624,47.95678c-1.008,0 -1.82624,-0.82174 -1.82624,-1.82624c0,-1.0045 0.81824,-1.82624 1.82624,-1.82624h7.30452c0,1.29638 0.3471,2.55638 0.98609,3.65204h-8.29061M52.34796,26.04366h-21.91312c-2.02696,0 -3.65204,1.62508 -3.65204,3.65204v14.6086c0,2.02696 1.62508,3.65204 3.65204,3.65204h21.91312c2.02696,0 3.65204,-1.62508 3.65204,-3.65204v-14.6086c0,-2.02696 -1.62508,-3.65204 -3.65204,-3.65204M52.34796,37.00022h-21.91312v-5.47828h21.91312z" id="shadow" fill="#000000" opacity="0.3"/><path d="M18.18847,24.57965c0.331,-0.331 0.78756,-0.53643 1.28981,-0.53643h4.63813c-0.63899,1.09566 -0.98609,2.35566 -0.98609,3.65204l-23.13032,23.13032l0,-8.05745zM17.65204,33.17398l3.65248,0c2.16324,-2.16324 4.03268,-4.03268 5.47828,-5.47828c2.19417,-2.19417 3.54597,-3.54597 3.65204,-3.65204h21.91312c2.02696,0 3.65204,1.62508 3.65204,3.65204v14.6086c0,1.01348 -0.40627,1.92649 -1.06591,2.58613l-25.10957,25.10957h-26.32452c-1.933,0 -3.5,-1.567 -3.5,-3.5l0,-15.67398z" id="flatShadow" fill="#000000" opacity="0.324"/><path d="M19.47828,27.6957c-1.0045,0 -1.82624,-0.82174 -1.82624,-1.82624c0,-1.0045 0.82174,-1.82624 1.82624,-1.82624h4.63813c-0.63899,1.09566 -0.98609,2.35566 -0.98609,3.65204h-3.65204M23.13032,36.82646h-5.47828c-1.0045,0 -1.82624,-0.82174 -1.82624,-1.82624c0,-1.0045 0.82174,-1.82624 1.82624,-1.82624h5.47828v3.65204M15.82624,45.95678c-1.008,0 -1.82624,-0.82174 -1.82624,-1.82624c0,-1.0045 0.81824,-1.82624 1.82624,-1.82624h7.30452c0,1.29638 0.3471,2.55638 0.98609,3.65204h-8.29061M52.34796,24.04366h-21.91312c-2.02696,0 -3.65204,1.62508 -3.65204,3.65204v14.6086c0,2.02696 1.62508,3.65204 3.65204,3.65204h21.91312c2.02696,0 3.65204,-1.62508 3.65204,-3.65204v-14.6086c0,-2.02696 -1.62508,-3.65204 -3.65204,-3.65204M52.34796,35.00022h-21.91312v-5.47828h21.91312z" id="icon" fill="#ffffff"/></g></svg>