<svg version="1.1" xmlns="http://www.w3.org/2000/svg" xmlns:xlink="http://www.w3.org/1999/xlink" width="70" height="70" viewBox="0,0,70,70" odoo-icon:version="1.0" xmlns:odoo-icon="https://ivantodorovich.github.io/odoo-icon" odoo-icon:size="70" odoo-icon:icon-size="0.57" odoo-icon:icon-color="#FFFFFF" odoo-icon:icon-flat-shadow-angle="135" odoo-icon:background-color="#5a9442" odoo-icon:background-gradient="0.2" odoo-icon:box-radius="3.5" odoo-icon:odoo-version="14.0"><defs><linearGradient x1="70" y1="0" x2="0" y2="70" gradientUnits="userSpaceOnUse" id="color-1"><stop offset="0" stop-color="#8dc775"/><stop offset="1" stop-color="#5a9442"/></linearGradient></defs><g fill="none" fill-rule="nonzero" stroke="none" stroke-width="1" stroke-linecap="butt" stroke-linejoin="miter" stroke-miterlimit="10" stroke-dasharray="" stroke-dashoffset="0" font-family="none" font-weight="none" font-size="none" text-anchor="none" style="mix-blend-mode: normal"><path d="M3.5,70c-1.933,0 -3.5,-1.567 -3.5,-3.5v-63c0,-1.933 1.567,-3.5 3.5,-3.5h63c1.933,0 3.5,1.567 3.5,3.5v63c0,1.933 -1.567,3.5 -3.5,3.5z" id="box" fill="url(#color-1)"/><path d="M65,1h-61c-1.95033,0 -3.2667,0.63396 -3.9491,1.90189c0.28378,-1.64806 1.72001,-2.90189 3.4491,-2.90189h63c1.72965,0 3.16627,1.25466 3.44938,2.90352c-0.69803,-1.26902 -2.34782,-1.90352 -4.94938,-1.90352z" id="topBoxShadow" fill="#ffffff" opacity="0.383"/><path d="M4,69h61c2.66667,0 4.33333,-1 5,-3v0.5c0,1.933 -1.567,3.5 -3.5,3.5h-63c-1.933,0 -3.5,-1.567 -3.5,-3.5c0,-0.1611 0,-0.32777 0,-0.5c0.66667,2 2,3 4,3z" id="bottomBoxShadow" fill="#000000" opacity="0.383"/><path d="M40.9826,17l12.608,9.7768l-2.6804,22.8676l-25.8984,7.3556l-4.9584,-15.462l-3.644,-21.3896zM20.5526,25.5008l15.382,-2.2152l5.5276,5.6772l9.0324,-1.598l-10.1872,-7.9004l-21.1624,2.7168zM21.5974,31.9684l1.4312,3.7532l7.8084,-1.4928l2.0352,3.48l8.5104,-1.8164l-5.2648,-6.468zM24.1026,42.7596l1.4068,4.0548l7.8416,-1.96l-1.9224,-3.7676z" id="shadow" fill="#000000" opacity="0.3"/><path d="M53.5906,24.7768l-2.6804,22.8676l-22.3556,22.3556h-25.0546c-1.933,0 -3.5,-1.567 -3.5,-3.5l0,-31.9422l16.4094,-16.4094l24.5732,-3.1484z" id="flatShadow" fill="#000000" opacity="0.324"/><path d="M40.9826,15l12.608,9.7768l-2.6804,22.8676l-25.8984,7.3556l-4.9584,-15.462l-3.644,-21.3896zM20.5526,23.5008l15.382,-2.2152l5.5276,5.6772l9.0324,-1.598l-10.1872,-7.9004l-21.1624,2.7168zM21.5974,29.9684l1.4312,3.7532l7.8084,-1.4928l2.0352,3.48l8.5104,-1.8164l-5.2648,-6.468zM24.1026,40.7596l1.4068,4.0548l7.8416,-1.96l-1.9224,-3.7676z" id="icon" fill="#ffffff"/></g></svg>