<svg version="1.1" xmlns="http://www.w3.org/2000/svg" xmlns:xlink="http://www.w3.org/1999/xlink" width="70" height="70" viewBox="0,0,70,70" odoo-icon:version="1.0" xmlns:odoo-icon="https://ivantodorovich.github.io/odoo-icon" odoo-icon:size="70" odoo-icon:icon-size="0.55" odoo-icon:icon-color="#FFFFFF" odoo-icon:icon-flat-shadow-angle="135" odoo-icon:background-color="#cb6482" odoo-icon:background-gradient="0.2" odoo-icon:box-radius="3.5" odoo-icon:odoo-version="14.0"><defs><linearGradient x1="70" y1="0" x2="0" y2="70" gradientUnits="userSpaceOnUse" id="color-1"><stop offset="0" stop-color="#fe97b5"/><stop offset="1" stop-color="#cb6482"/></linearGradient></defs><g fill="none" fill-rule="nonzero" stroke="none" stroke-width="1" stroke-linecap="butt" stroke-linejoin="miter" stroke-miterlimit="10" stroke-dasharray="" stroke-dashoffset="0" font-family="none" font-weight="none" font-size="none" text-anchor="none" style="mix-blend-mode: normal"><path d="M3.5,70c-1.933,0 -3.5,-1.567 -3.5,-3.5v-63c0,-1.933 1.567,-3.5 3.5,-3.5h63c1.933,0 3.5,1.567 3.5,3.5v63c0,1.933 -1.567,3.5 -3.5,3.5z" id="box" fill="url(#color-1)"/><path d="M65,1h-61c-1.95033,0 -3.2667,0.63396 -3.9491,1.90189c0.28378,-1.64806 1.72001,-2.90189 3.4491,-2.90189h63c1.72965,0 3.16627,1.25466 3.44938,2.90352c-0.69803,-1.26902 -2.34782,-1.90352 -4.94938,-1.90352z" id="topBoxShadow" fill="#ffffff" opacity="0.383"/><path d="M4,69h61c2.66667,0 4.33333,-1 5,-3v0.5c0,1.933 -1.567,3.5 -3.5,3.5h-63c-1.933,0 -3.5,-1.567 -3.5,-3.5c0,-0.1611 0,-0.32777 0,-0.5c0.66667,2 2,3 4,3z" id="bottomBoxShadow" fill="#000000" opacity="0.383"/><path d="M48.92873,56.5h-27.85746c-1.53862,0 -2.78575,-1.24712 -2.78575,-2.78575v-16.71448c0,-1.53862 1.24712,-2.78575 2.78575,-2.78575h4.17862v2.78575h-4.17862v16.71448h27.85746v-16.71448h-4.17862v-2.78575h4.17862c1.53862,0 2.78575,1.24712 2.78575,2.78575v16.71448c0,1.53862 -1.24712,2.78575 -2.78575,2.78575zM30.82138,42.57127h8.35724v2.78575h-8.35724zM43.35724,28.64254l-8.35724,8.35724l-8.35724,-8.35724l1.96384,-1.96384l5.00053,4.98671v-14.16541h2.78575v14.16541l5.00053,-4.98626z" id="shadow" fill="#000000" opacity="0.3"/><path d="M33.60713,15.5h2.78575v14.16541l5.00053,-4.98626l1.96384,1.96339l-22.28597,22.28597v1.39287l9.75011,-9.75011h5.57149l8.35724,-8.35724h4.17862c1.53862,0 2.78575,1.24712 2.78575,2.78575v16.71448c0,0.76931 -0.31178,1.46575 -0.81589,1.96986l-16.31589,16.31589h-31.0827c-1.933,0 -3.5,-1.567 -3.5,-3.5l0,-17.39287z" id="flatShadow" fill="#000000" opacity="0.324"/><path d="M48.92873,54.5h-27.85746c-1.53862,0 -2.78575,-1.24712 -2.78575,-2.78575v-16.71448c0,-1.53862 1.24712,-2.78575 2.78575,-2.78575h4.17862v2.78575h-4.17862v16.71448h27.85746v-16.71448h-4.17862v-2.78575h4.17862c1.53862,0 2.78575,1.24712 2.78575,2.78575v16.71448c0,1.53862 -1.24712,2.78575 -2.78575,2.78575zM30.82138,40.57127h8.35724v2.78575h-8.35724zM43.35724,26.64254l-8.35724,8.35724l-8.35724,-8.35724l1.96384,-1.96384l5.00053,4.98671v-14.16541h2.78575v14.16541l5.00053,-4.98626z" id="icon" fill="#ffffff"/></g></svg>