<svg version="1.1" xmlns="http://www.w3.org/2000/svg" xmlns:xlink="http://www.w3.org/1999/xlink" width="70" height="70" viewBox="0,0,70,70" odoo-icon:version="1.0" xmlns:odoo-icon="https://ivantodorovich.github.io/odoo-icon" odoo-icon:size="70" odoo-icon:icon-size="0.65" odoo-icon:icon-color="#FFFFFF" odoo-icon:icon-flat-shadow-angle="135" odoo-icon:background-color="#e53935" odoo-icon:background-gradient="0.2" odoo-icon:box-radius="3.5" odoo-icon:odoo-version="14.0"><defs><linearGradient x1="70" y1="0" x2="0" y2="70" gradientUnits="userSpaceOnUse" id="color-1"><stop offset="0" stop-color="#ff6c68"/><stop offset="1" stop-color="#e53935"/></linearGradient></defs><g fill="none" fill-rule="nonzero" stroke="none" stroke-width="1" stroke-linecap="butt" stroke-linejoin="miter" stroke-miterlimit="10" stroke-dasharray="" stroke-dashoffset="0" font-family="none" font-weight="none" font-size="none" text-anchor="none" style="mix-blend-mode: normal"><path d="M3.5,70c-1.933,0 -3.5,-1.567 -3.5,-3.5v-63c0,-1.933 1.567,-3.5 3.5,-3.5h63c1.933,0 3.5,1.567 3.5,3.5v63c0,1.933 -1.567,3.5 -3.5,3.5z" id="box" fill="url(#color-1)"/><path d="M65,1h-61c-1.95033,0 -3.2667,0.63396 -3.9491,1.90189c0.28378,-1.64806 1.72001,-2.90189 3.4491,-2.90189h63c1.72965,0 3.16627,1.25466 3.44938,2.90352c-0.69803,-1.26902 -2.34782,-1.90352 -4.94938,-1.90352z" id="topBoxShadow" fill="#ffffff" opacity="0.383"/><path d="M4,69h61c2.66667,0 4.33333,-1 5,-3v0.5c0,1.933 -1.567,3.5 -3.5,3.5h-63c-1.933,0 -3.5,-1.567 -3.5,-3.5c0,-0.1611 0,-0.32777 0,-0.5c0.66667,2 2,3 4,3z" id="bottomBoxShadow" fill="#000000" opacity="0.383"/><path d="M43.76208,35.33533c0,-1.29221 -0.15351,-2.54078 -0.30649,-3.81143h7.40363c0.17506,0.72286 0.32857,1.46779 0.41637,2.19065c1.57714,0.15351 3.08857,0.50363 4.53429,1.09506c-0.63506,-11.58779 -10.18571,-20.80935 -21.90494,-20.80935c-12.11351,0 -21.90494,9.85714 -21.90494,21.90494c0,12.04779 9.85714,21.90494 21.90494,21.90494c1.90571,0 3.74571,-0.26286 5.47637,-0.72286c-1.78165,-2.16962 -2.89248,-4.81029 -3.19792,-7.60078c-0.67922,1.33637 -1.42363,2.62857 -2.27792,3.85506c-1.81792,-2.62857 -3.28571,-5.54208 -4.18363,-8.67429h6.76857c0.37221,-1.57714 1.00779,-3.04494 1.86208,-4.38078h-9.57221c-0.21922,-1.44571 -0.35065,-2.89143 -0.35065,-4.38078c0,-1.48935 0.13143,-2.95714 0.35065,-4.38078h10.25143c0.19714,1.42363 0.35065,2.89143 0.35065,4.38078c0,1.09506 -0.08779,2.19065 -0.21922,3.28571c1.2349,-1.60395 2.80469,-2.91982 4.6,-3.85506M16.95065,40.28545c-0.35065,-1.40208 -0.56935,-2.86935 -0.56935,-4.38078c0,-1.51143 0.21922,-2.97922 0.56935,-4.38078h7.40363c-0.17506,1.44571 -0.30649,2.89143 -0.30649,4.38078c0,1.48935 0.13143,2.93506 0.30649,4.38078h-7.40363M18.74702,44.66675h6.39637c0.76649,2.73792 1.75221,5.36649 3.06649,7.79792c-3.98965,-1.37632 -7.34949,-4.14526 -9.46286,-7.79792M25.14286,27.14259h-6.39637c2.10023,-3.66423 5.4648,-6.43685 9.46286,-7.79792c-1.31429,2.43143 -2.3,5.06 -3.06649,7.79792M29.7213,27.14259c0.89792,-3.13221 2.36571,-6.06779 4.18363,-8.69637c1.81792,2.62857 3.28571,5.56363 4.18363,8.69637h-8.36779M49.06286,27.14259h-6.46208c-0.68553,-2.71321 -1.70069,-5.33179 -3.02286,-7.79792c4.03065,1.38 7.38208,4.16208 9.48494,7.79792M58,47.95247c0,1.79637 -0.54779,3.46078 -1.46779,4.84078l-2.38779,-2.38779c0.37221,-0.74494 0.56935,-1.57714 0.56935,-2.45351c0,-3.02443 -2.45193,-5.47637 -5.47637,-5.47637v3.28571l-4.92857,-4.92857l4.92857,-4.92857v3.28571c4.84078,0 8.76208,3.92078 8.76208,8.76208M49.23845,50.14259l4.92857,4.92857l-4.92857,4.92857v-3.28571c-4.84078,0 -8.76208,-3.92078 -8.76208,-8.76208c0,-1.79637 0.54779,-3.46078 1.46779,-4.84078l2.38779,2.38779c-0.37221,0.74494 -0.56935,1.57714 -0.56935,2.45351c0,3.02443 2.45193,5.47637 5.47637,5.47637z" id="shadow" fill="#000000" opacity="0.3"/><path d="M18.42608,18.41862c3.96077,-3.96077 9.43034,-6.41836 15.47886,-6.41836c11.71922,0 21.26987,9.22155 21.90494,20.80935l-4.60239,4.60239c3.89143,0.89328 6.79199,4.37616 6.79199,8.53994l-3.15429,3.15429l0.00053,0.00053l3.15429,-3.15429c0,1.79637 -0.54779,3.46078 -1.46779,4.84078l-19.20675,19.20675h-33.82545c-1.933,0 -3.5,-1.567 -3.5,-3.5l0,-29.65531z" id="flatShadow" fill="#000000" opacity="0.324"/><path d="M43.76208,33.33533c0,-1.29221 -0.15351,-2.54078 -0.30649,-3.81143h7.40363c0.17506,0.72286 0.32857,1.46779 0.41637,2.19065c1.57714,0.15351 3.08857,0.50363 4.53429,1.09506c-0.63506,-11.58779 -10.18571,-20.80935 -21.90494,-20.80935c-12.11351,0 -21.90494,9.85714 -21.90494,21.90494c0,12.04779 9.85714,21.90494 21.90494,21.90494c1.90571,0 3.74571,-0.26286 5.47637,-0.72286c-1.78165,-2.16962 -2.89248,-4.81029 -3.19792,-7.60078c-0.67922,1.33637 -1.42363,2.62857 -2.27792,3.85506c-1.81792,-2.62857 -3.28571,-5.54208 -4.18363,-8.67429h6.76857c0.37221,-1.57714 1.00779,-3.04494 1.86208,-4.38078h-9.57221c-0.21922,-1.44571 -0.35065,-2.89143 -0.35065,-4.38078c0,-1.48935 0.13143,-2.95714 0.35065,-4.38078h10.25143c0.19714,1.42363 0.35065,2.89143 0.35065,4.38078c0,1.09506 -0.08779,2.19065 -0.21922,3.28571c1.2349,-1.60395 2.80469,-2.91982 4.6,-3.85506M16.95065,38.28545c-0.35065,-1.40208 -0.56935,-2.86935 -0.56935,-4.38078c0,-1.51143 0.21922,-2.97922 0.56935,-4.38078h7.40363c-0.17506,1.44571 -0.30649,2.89143 -0.30649,4.38078c0,1.48935 0.13143,2.93506 0.30649,4.38078h-7.40363M18.74702,42.66675h6.39637c0.76649,2.73792 1.75221,5.36649 3.06649,7.79792c-3.98965,-1.37632 -7.34949,-4.14526 -9.46286,-7.79792M25.14286,25.14259h-6.39637c2.10023,-3.66423 5.4648,-6.43685 9.46286,-7.79792c-1.31429,2.43143 -2.3,5.06 -3.06649,7.79792M29.7213,25.14259c0.89792,-3.13221 2.36571,-6.06779 4.18363,-8.69637c1.81792,2.62857 3.28571,5.56363 4.18363,8.69637h-8.36779M49.06286,25.14259h-6.46208c-0.68553,-2.71321 -1.70069,-5.33179 -3.02286,-7.79792c4.03065,1.38 7.38208,4.16208 9.48494,7.79792M58,45.95247c0,1.79637 -0.54779,3.46078 -1.46779,4.84078l-2.38779,-2.38779c0.37221,-0.74494 0.56935,-1.57714 0.56935,-2.45351c0,-3.02443 -2.45193,-5.47637 -5.47637,-5.47637v3.28571l-4.92857,-4.92857l4.92857,-4.92857v3.28571c4.84078,0 8.76208,3.92078 8.76208,8.76208M49.23845,48.14259l4.92857,4.92857l-4.92857,4.92857v-3.28571c-4.84078,0 -8.76208,-3.92078 -8.76208,-8.76208c0,-1.79637 0.54779,-3.46078 1.46779,-4.84078l2.38779,2.38779c-0.37221,0.74494 -0.56935,1.57714 -0.56935,2.45351c0,3.02443 2.45193,5.47637 5.47637,5.47637z" id="icon" fill="#ffffff"/></g></svg>