<svg version="1.1" xmlns="http://www.w3.org/2000/svg" xmlns:xlink="http://www.w3.org/1999/xlink" width="70" height="70" viewBox="0,0,70,70" odoo-icon:version="1.0" xmlns:odoo-icon="https://ivantodorovich.github.io/odoo-icon" odoo-icon:size="70" odoo-icon:icon-size="0.58" odoo-icon:icon-color="#FFFFFF" odoo-icon:icon-flat-shadow-angle="135" odoo-icon:background-color="#eea544" odoo-icon:background-gradient="0.2" odoo-icon:box-radius="3.5" odoo-icon:odoo-version="14.0"><defs><linearGradient x1="70" y1="0" x2="0" y2="70" gradientUnits="userSpaceOnUse" id="color-1"><stop offset="0" stop-color="#ffd877"/><stop offset="1" stop-color="#eea544"/></linearGradient></defs><g fill="none" fill-rule="nonzero" stroke="none" stroke-width="1" stroke-linecap="butt" stroke-linejoin="miter" stroke-miterlimit="10" stroke-dasharray="" stroke-dashoffset="0" font-family="none" font-weight="none" font-size="none" text-anchor="none" style="mix-blend-mode: normal"><path d="M3.5,70c-1.933,0 -3.5,-1.567 -3.5,-3.5v-63c0,-1.933 1.567,-3.5 3.5,-3.5h63c1.933,0 3.5,1.567 3.5,3.5v63c0,1.933 -1.567,3.5 -3.5,3.5z" id="box" fill="url(#color-1)"/><path d="M65,1h-61c-1.95033,0 -3.2667,0.63396 -3.9491,1.90189c0.28378,-1.64806 1.72001,-2.90189 3.4491,-2.90189h63c1.72965,0 3.16627,1.25466 3.44938,2.90352c-0.69803,-1.26902 -2.34782,-1.90352 -4.94938,-1.90352z" id="topBoxShadow" fill="#ffffff" opacity="0.383"/><path d="M4,69h61c2.66667,0 4.33333,-1 5,-3v0.5c0,1.933 -1.567,3.5 -3.5,3.5h-63c-1.933,0 -3.5,-1.567 -3.5,-3.5c0,-0.1611 0,-0.32777 0,-0.5c0.66667,2 2,3 4,3z" id="bottomBoxShadow" fill="#000000" opacity="0.383"/><path d="M23.28585,57.5c-1.07395,0 -1.99328,-0.38282 -2.75892,-1.14799c-0.76517,-0.76517 -1.14752,-1.68403 -1.14611,-2.75657v-19.52374c0,-1.07395 0.38282,-1.99328 1.14799,-2.75892c0.76517,-0.76517 1.68403,-1.14752 2.75657,-1.14611h1.95251v-3.90456c0,-2.70081 0.95213,-5.00335 2.85638,-6.9076c1.90425,-1.90425 4.20585,-2.85544 6.90526,-2.8545c2.70081,0 5.00335,0.95213 6.9076,2.85638c1.90425,1.90425 2.85544,4.20585 2.8545,6.90573v3.90456h1.95251c1.07395,0 1.99328,0.38282 2.75892,1.14799c0.76517,0.76517 1.14752,1.68403 1.14611,2.75657v19.52374c0,1.07395 -0.38282,1.99328 -1.14799,2.75892c-0.76517,0.76517 -1.68403,1.14752 -2.75657,1.14611zM23.28585,53.59497h23.4283v-19.52374h-23.4283zM35,47.73789c1.07395,0 1.99328,-0.38282 2.75892,-1.14799c0.76517,-0.76517 1.14752,-1.68403 1.14611,-2.75657c0,-1.07395 -0.38282,-1.99328 -1.14799,-2.75892c-0.76517,-0.76517 -1.68403,-1.14752 -2.75657,-1.14611c-1.07395,0 -1.99328,0.38282 -2.75892,1.14799c-0.76517,0.76517 -1.14752,1.68403 -1.14611,2.75657c0,1.07395 0.38282,1.99328 1.14799,2.75892c0.76517,0.76517 1.68403,1.14752 2.75657,1.14611zM29.14292,30.16667h11.71415v-3.90456c0,-1.62686 -0.56931,-3.01007 -1.70839,-4.14868c-1.13908,-1.13908 -2.52182,-1.70839 -4.14868,-1.70839c-1.62686,0 -3.01007,0.56931 -4.14868,1.70839c-1.13908,1.13908 -1.70839,2.52182 -1.70839,4.14868zM23.28585,53.59497v-19.52374z" id="shadow" fill="#000000" opacity="0.3"/><path d="M28.09427,17.3545c1.90425,-1.90425 4.20585,-2.85544 6.90526,-2.8545c2.70081,0 5.00335,0.95213 6.9076,2.85638c1.90425,1.90425 2.85544,4.20585 2.8545,6.90573v3.90456h1.95251c1.07395,0 1.99328,0.38282 2.75892,1.14799c0.76517,0.76517 1.14752,1.68403 1.14611,2.75657v19.52374c0,1.07395 -0.38282,1.99328 -1.14799,2.75892l-15.64612,15.64612h-30.32508c-1.933,0 -3.5,-1.567 -3.5,-3.5l0,-21.05122z" id="flatShadow" fill="#000000" opacity="0.324"/><path d="M23.28585,55.5c-1.07395,0 -1.99328,-0.38282 -2.75892,-1.14799c-0.76517,-0.76517 -1.14752,-1.68403 -1.14611,-2.75657v-19.52374c0,-1.07395 0.38282,-1.99328 1.14799,-2.75892c0.76517,-0.76517 1.68403,-1.14752 2.75657,-1.14611h1.95251v-3.90456c0,-2.70081 0.95213,-5.00335 2.85638,-6.9076c1.90425,-1.90425 4.20585,-2.85544 6.90526,-2.8545c2.70081,0 5.00335,0.95213 6.9076,2.85638c1.90425,1.90425 2.85544,4.20585 2.8545,6.90573v3.90456h1.95251c1.07395,0 1.99328,0.38282 2.75892,1.14799c0.76517,0.76517 1.14752,1.68403 1.14611,2.75657v19.52374c0,1.07395 -0.38282,1.99328 -1.14799,2.75892c-0.76517,0.76517 -1.68403,1.14752 -2.75657,1.14611zM23.28585,51.59497h23.4283v-19.52374h-23.4283zM35,45.73789c1.07395,0 1.99328,-0.38282 2.75892,-1.14799c0.76517,-0.76517 1.14752,-1.68403 1.14611,-2.75657c0,-1.07395 -0.38282,-1.99328 -1.14799,-2.75892c-0.76517,-0.76517 -1.68403,-1.14752 -2.75657,-1.14611c-1.07395,0 -1.99328,0.38282 -2.75892,1.14799c-0.76517,0.76517 -1.14752,1.68403 -1.14611,2.75657c0,1.07395 0.38282,1.99328 1.14799,2.75892c0.76517,0.76517 1.68403,1.14752 2.75657,1.14611zM29.14292,28.16667h11.71415v-3.90456c0,-1.62686 -0.56931,-3.01007 -1.70839,-4.14868c-1.13908,-1.13908 -2.52182,-1.70839 -4.14868,-1.70839c-1.62686,0 -3.01007,0.56931 -4.14868,1.70839c-1.13908,1.13908 -1.70839,2.52182 -1.70839,4.14868zM23.28585,51.59497v-19.52374z" id="icon" fill="#ffffff"/></g></svg>