<svg version="1.1" xmlns="http://www.w3.org/2000/svg" xmlns:xlink="http://www.w3.org/1999/xlink" width="70" height="70" viewBox="0,0,70,70" odoo-icon:version="1.0" xmlns:odoo-icon="https://ivantodorovich.github.io/odoo-icon" odoo-icon:size="70" odoo-icon:icon-size="0.65" odoo-icon:icon-color="#FFFFFF" odoo-icon:icon-flat-shadow-angle="135" odoo-icon:background-color="#00acc1" odoo-icon:background-gradient="0.2" odoo-icon:box-radius="3.5" odoo-icon:odoo-version="14.0"><defs><linearGradient x1="70" y1="0" x2="0" y2="70" gradientUnits="userSpaceOnUse" id="color-1"><stop offset="0" stop-color="#33dff4"/><stop offset="1" stop-color="#00acc1"/></linearGradient></defs><g fill="none" fill-rule="nonzero" stroke="none" stroke-width="1" stroke-linecap="butt" stroke-linejoin="miter" stroke-miterlimit="10" stroke-dasharray="" stroke-dashoffset="0" font-family="none" font-weight="none" font-size="none" text-anchor="none" style="mix-blend-mode: normal"><path d="M3.5,70c-1.933,0 -3.5,-1.567 -3.5,-3.5v-63c0,-1.933 1.567,-3.5 3.5,-3.5h63c1.933,0 3.5,1.567 3.5,3.5v63c0,1.933 -1.567,3.5 -3.5,3.5z" id="box" fill="url(#color-1)"/><path d="M65,1h-61c-1.95033,0 -3.2667,0.63396 -3.9491,1.90189c0.28378,-1.64806 1.72001,-2.90189 3.4491,-2.90189h63c1.72965,0 3.16627,1.25466 3.44938,2.90352c-0.69803,-1.26902 -2.34782,-1.90352 -4.94938,-1.90352z" id="topBoxShadow" fill="#ffffff" opacity="0.383"/><path d="M4,69h61c2.66667,0 4.33333,-1 5,-3v0.5c0,1.933 -1.567,3.5 -3.5,3.5h-63c-1.933,0 -3.5,-1.567 -3.5,-3.5c0,-0.1611 0,-0.32777 0,-0.5c0.66667,2 2,3 4,3z" id="bottomBoxShadow" fill="#000000" opacity="0.383"/><path d="M56.27408,32.39926h-9.77482v-12.07482c0,-0.95312 -0.77206,-1.72482 -1.72482,-1.72482h-10.35c-0.95312,0 -1.72482,0.77206 -1.72482,1.72518v5.17518h-4.6v-5.75c0,-0.63554 -0.51446,-1.15 -1.15,-1.15h-1.15c-0.63554,0 -1.15,0.51446 -1.15,1.15v5.75h-4.6v-5.75c0,-0.63554 -0.51446,-1.15 -1.15,-1.15h-1.15c-0.63554,0 -1.15,0.51446 -1.15,1.15v5.75h-2.87482c-0.95312,0 -1.72482,0.77206 -1.72482,1.72518v25.87518c0,1.26997 1.03003,2.3 2.3,2.3h41.4c1.26997,0 2.3,-1.03003 2.3,-2.3v-18.97482c0,-0.95312 -0.7728,-1.72482 -1.72482,-1.72482zM21.1989,47.63667c0,0.47656 -0.38603,0.86259 -0.86259,0.86259h-2.87482c-0.47656,0 -0.86259,-0.38603 -0.86259,-0.86259v-2.87482c0,-0.47656 0.38603,-0.86259 0.86259,-0.86259h2.87518c0.47656,0 0.86259,0.38603 0.86259,0.86259zM21.1989,40.73667c0,0.47656 -0.38603,0.86259 -0.86259,0.86259h-2.87482c-0.47656,0 -0.86259,-0.38603 -0.86259,-0.86259v-2.87482c0,-0.47656 0.38603,-0.86259 0.86259,-0.86259h2.87518c0.47656,0 0.86259,0.38603 0.86259,0.86259zM21.1989,33.83667c0,0.47656 -0.38603,0.86259 -0.86259,0.86259h-2.87482c-0.47656,0 -0.86259,-0.38603 -0.86259,-0.86259v-2.87482c0,-0.47656 0.38603,-0.86259 0.86259,-0.86259h2.87518c0.47656,0 0.86259,0.38603 0.86259,0.86259zM30.3989,47.63667c0,0.47656 -0.38603,0.86259 -0.86259,0.86259h-2.87482c-0.47656,0 -0.86259,-0.38603 -0.86259,-0.86259v-2.87482c0,-0.47656 0.38603,-0.86259 0.86259,-0.86259h2.87518c0.47656,0 0.86259,0.38603 0.86259,0.86259zM30.3989,40.73667c0,0.47656 -0.38603,0.86259 -0.86259,0.86259h-2.87482c-0.47656,0 -0.86259,-0.38603 -0.86259,-0.86259v-2.87482c0,-0.47656 0.38603,-0.86259 0.86259,-0.86259h2.87518c0.47656,0 0.86259,0.38603 0.86259,0.86259zM30.3989,33.83667c0,0.47656 -0.38603,0.86259 -0.86259,0.86259h-2.87482c-0.47656,0 -0.86259,-0.38603 -0.86259,-0.86259v-2.87482c0,-0.47656 0.38603,-0.86259 0.86259,-0.86259h2.87518c0.47656,0 0.86259,0.38603 0.86259,0.86259zM41.8989,40.73667c0,0.47656 -0.38603,0.86259 -0.86259,0.86259h-2.87482c-0.47656,0 -0.86259,-0.38603 -0.86259,-0.86259v-2.87482c0,-0.47656 0.38603,-0.86259 0.86259,-0.86259h2.87518c0.47656,0 0.86259,0.38603 0.86259,0.86259zM41.8989,33.83667c0,0.47656 -0.38603,0.86259 -0.86259,0.86259h-2.87482c-0.47656,0 -0.86259,-0.38603 -0.86259,-0.86259v-2.87482c0,-0.47656 0.38603,-0.86259 0.86259,-0.86259h2.87518c0.47656,0 0.86259,0.38603 0.86259,0.86259zM41.8989,26.93667c0,0.47656 -0.38603,0.86259 -0.86259,0.86259h-2.87482c-0.47656,0 -0.86259,-0.38603 -0.86259,-0.86259v-2.87482c0,-0.47656 0.38603,-0.86259 0.86259,-0.86259h2.87518c0.47656,0 0.86259,0.38603 0.86259,0.86259zM53.3989,47.63667c0,0.47656 -0.38603,0.86259 -0.86259,0.86259h-2.87482c-0.47656,0 -0.86259,-0.38603 -0.86259,-0.86259v-2.87482c0,-0.47656 0.38603,-0.86259 0.86259,-0.86259h2.87518c0.47656,0 0.86259,0.38603 0.86259,0.86259zM53.3989,40.73667c0,0.47656 -0.38603,0.86259 -0.86259,0.86259h-2.87482c-0.47656,0 -0.86259,-0.38603 -0.86259,-0.86259v-2.87482c0,-0.47656 0.38603,-0.86259 0.86259,-0.86259h2.87518c0.47656,0 0.86259,0.38603 0.86259,0.86259z" id="shadow" fill="#000000" opacity="0.3"/><path d="M16.93631,16.93667c0.20806,-0.20806 0.49556,-0.33667 0.81333,-0.33667h1.15c0.63554,0 1.15,0.51446 1.15,1.15l0,4.12335l4.93667,-4.93667c0.20806,-0.20806 0.49556,-0.33667 0.81333,-0.33667h1.15c0.63554,0 1.15,0.51446 1.15,1.15l0,4.45979l5.10517,-5.10517c0.31205,-0.31205 0.74318,-0.50499 1.21965,-0.50499h10.35c0.95275,0 1.72482,0.7717 1.72482,1.72482v12.07482h9.77482l0.0011,0.00147c0.95202,0 1.72482,0.7717 1.72482,1.72482v18.97482c0,0.63498 -0.25751,1.20998 -0.67376,1.62624l-17.27339,17.27339h-36.55284c-1.933,0 -3.5,-1.567 -3.5,-3.5l0,-32.62702z" id="flatShadow" fill="#000000" opacity="0.324"/><path d="M56.27408,30.39926h-9.77482v-12.07482c0,-0.95312 -0.77206,-1.72482 -1.72482,-1.72482h-10.35c-0.95312,0 -1.72482,0.77206 -1.72482,1.72518v5.17518h-4.6v-5.75c0,-0.63554 -0.51446,-1.15 -1.15,-1.15h-1.15c-0.63554,0 -1.15,0.51446 -1.15,1.15v5.75h-4.6v-5.75c0,-0.63554 -0.51446,-1.15 -1.15,-1.15h-1.15c-0.63554,0 -1.15,0.51446 -1.15,1.15v5.75h-2.87482c-0.95312,0 -1.72482,0.77206 -1.72482,1.72518v25.87518c0,1.26997 1.03003,2.3 2.3,2.3h41.4c1.26997,0 2.3,-1.03003 2.3,-2.3v-18.97482c0,-0.95312 -0.7728,-1.72482 -1.72482,-1.72482zM21.1989,45.63667c0,0.47656 -0.38603,0.86259 -0.86259,0.86259h-2.87482c-0.47656,0 -0.86259,-0.38603 -0.86259,-0.86259v-2.87482c0,-0.47656 0.38603,-0.86259 0.86259,-0.86259h2.87518c0.47656,0 0.86259,0.38603 0.86259,0.86259zM21.1989,38.73667c0,0.47656 -0.38603,0.86259 -0.86259,0.86259h-2.87482c-0.47656,0 -0.86259,-0.38603 -0.86259,-0.86259v-2.87482c0,-0.47656 0.38603,-0.86259 0.86259,-0.86259h2.87518c0.47656,0 0.86259,0.38603 0.86259,0.86259zM21.1989,31.83667c0,0.47656 -0.38603,0.86259 -0.86259,0.86259h-2.87482c-0.47656,0 -0.86259,-0.38603 -0.86259,-0.86259v-2.87482c0,-0.47656 0.38603,-0.86259 0.86259,-0.86259h2.87518c0.47656,0 0.86259,0.38603 0.86259,0.86259zM30.3989,45.63667c0,0.47656 -0.38603,0.86259 -0.86259,0.86259h-2.87482c-0.47656,0 -0.86259,-0.38603 -0.86259,-0.86259v-2.87482c0,-0.47656 0.38603,-0.86259 0.86259,-0.86259h2.87518c0.47656,0 0.86259,0.38603 0.86259,0.86259zM30.3989,38.73667c0,0.47656 -0.38603,0.86259 -0.86259,0.86259h-2.87482c-0.47656,0 -0.86259,-0.38603 -0.86259,-0.86259v-2.87482c0,-0.47656 0.38603,-0.86259 0.86259,-0.86259h2.87518c0.47656,0 0.86259,0.38603 0.86259,0.86259zM30.3989,31.83667c0,0.47656 -0.38603,0.86259 -0.86259,0.86259h-2.87482c-0.47656,0 -0.86259,-0.38603 -0.86259,-0.86259v-2.87482c0,-0.47656 0.38603,-0.86259 0.86259,-0.86259h2.87518c0.47656,0 0.86259,0.38603 0.86259,0.86259zM41.8989,38.73667c0,0.47656 -0.38603,0.86259 -0.86259,0.86259h-2.87482c-0.47656,0 -0.86259,-0.38603 -0.86259,-0.86259v-2.87482c0,-0.47656 0.38603,-0.86259 0.86259,-0.86259h2.87518c0.47656,0 0.86259,0.38603 0.86259,0.86259zM41.8989,31.83667c0,0.47656 -0.38603,0.86259 -0.86259,0.86259h-2.87482c-0.47656,0 -0.86259,-0.38603 -0.86259,-0.86259v-2.87482c0,-0.47656 0.38603,-0.86259 0.86259,-0.86259h2.87518c0.47656,0 0.86259,0.38603 0.86259,0.86259zM41.8989,24.93667c0,0.47656 -0.38603,0.86259 -0.86259,0.86259h-2.87482c-0.47656,0 -0.86259,-0.38603 -0.86259,-0.86259v-2.87482c0,-0.47656 0.38603,-0.86259 0.86259,-0.86259h2.87518c0.47656,0 0.86259,0.38603 0.86259,0.86259zM53.3989,45.63667c0,0.47656 -0.38603,0.86259 -0.86259,0.86259h-2.87482c-0.47656,0 -0.86259,-0.38603 -0.86259,-0.86259v-2.87482c0,-0.47656 0.38603,-0.86259 0.86259,-0.86259h2.87518c0.47656,0 0.86259,0.38603 0.86259,0.86259zM53.3989,38.73667c0,0.47656 -0.38603,0.86259 -0.86259,0.86259h-2.87482c-0.47656,0 -0.86259,-0.38603 -0.86259,-0.86259v-2.87482c0,-0.47656 0.38603,-0.86259 0.86259,-0.86259h2.87518c0.47656,0 0.86259,0.38603 0.86259,0.86259z" id="icon" fill="#ffffff"/></g></svg>