<svg version="1.1" xmlns="http://www.w3.org/2000/svg" xmlns:xlink="http://www.w3.org/1999/xlink" width="70" height="70" viewBox="0,0,70,70" odoo-icon:version="1.0" xmlns:odoo-icon="https://ivantodorovich.github.io/odoo-icon" odoo-icon:size="70" odoo-icon:icon-size="0.55" odoo-icon:icon-color="#FFFFFF" odoo-icon:icon-flat-shadow-angle="135" odoo-icon:background-color="#e53935" odoo-icon:background-gradient="0.2" odoo-icon:box-radius="3.5" odoo-icon:odoo-version="14.0"><defs><linearGradient x1="70" y1="0" x2="0" y2="70" gradientUnits="userSpaceOnUse" id="color-1"><stop offset="0" stop-color="#ff6c68"/><stop offset="1" stop-color="#e53935"/></linearGradient></defs><g fill="none" fill-rule="nonzero" stroke="none" stroke-width="1" stroke-linecap="butt" stroke-linejoin="miter" stroke-miterlimit="10" stroke-dasharray="" stroke-dashoffset="0" font-family="none" font-weight="none" font-size="none" text-anchor="none" style="mix-blend-mode: normal"><path d="M3.5,70c-1.933,0 -3.5,-1.567 -3.5,-3.5v-63c0,-1.933 1.567,-3.5 3.5,-3.5h63c1.933,0 3.5,1.567 3.5,3.5v63c0,1.933 -1.567,3.5 -3.5,3.5z" id="box" fill="url(#color-1)"/><path d="M65,1h-61c-1.95033,0 -3.2667,0.63396 -3.9491,1.90189c0.28378,-1.64806 1.72001,-2.90189 3.4491,-2.90189h63c1.72965,0 3.16627,1.25466 3.44938,2.90352c-0.69803,-1.26902 -2.34782,-1.90352 -4.94938,-1.90352z" id="topBoxShadow" fill="#ffffff" opacity="0.383"/><path d="M4,69h61c2.66667,0 4.33333,-1 5,-3v0.5c0,1.933 -1.567,3.5 -3.5,3.5h-63c-1.933,0 -3.5,-1.567 -3.5,-3.5c0,-0.1611 0,-0.32777 0,-0.5c0.66667,2 2,3 4,3z" id="bottomBoxShadow" fill="#000000" opacity="0.383"/><path d="M22.82762,22.37529h24.37471l-12.21163,15.35594zM16.12424,21.42469c4.92385,6.31319 14.01515,18.01296 14.01515,18.01296v14.62471c0,1.34079 1.09685,2.43765 2.43765,2.43765h4.87471c1.34079,0 2.43765,-1.09685 2.43765,-2.43765v-14.62471c0,0 9.06732,-11.69977 13.99116,-18.01296c0.56978,-0.73416 0.67157,-1.72864 0.26207,-2.56342c-0.40949,-0.83419 -1.25831,-1.36244 -2.18786,-1.36127h-33.90475c-2.02289,0 -3.16888,2.31538 -1.92578,3.9241z" id="shadow" fill="#000000" opacity="0.3"/><path d="M54.14263,16.86127c0.40949,0.83478 0.3077,1.82926 -0.26207,2.56342c-4.92385,6.31319 -13.99116,18.01296 -13.99116,18.01296v14.62471c0,0.6704 -0.27421,1.27981 -0.71603,1.72162l-16.21603,16.21603h-19.45734c-1.933,0 -3.5,-1.567 -3.5,-3.5l0,-33.96578l16.3316,-16.3316c0.42705,-0.42705 1.02056,-0.70262 1.71842,-0.70262h33.90475c0.92955,-0.00117 1.77836,0.52707 2.18786,1.36127z" id="flatShadow" fill="#000000" opacity="0.324"/><path d="M22.82762,20.37529h24.37471l-12.21163,15.35594zM16.12424,19.42469c4.92385,6.31319 14.01515,18.01296 14.01515,18.01296v14.62471c0,1.34079 1.09685,2.43765 2.43765,2.43765h4.87471c1.34079,0 2.43765,-1.09685 2.43765,-2.43765v-14.62471c0,0 9.06732,-11.69977 13.99116,-18.01296c0.56978,-0.73416 0.67157,-1.72864 0.26207,-2.56342c-0.40949,-0.83419 -1.25831,-1.36244 -2.18786,-1.36127h-33.90475c-2.02289,0 -3.16888,2.31538 -1.92578,3.9241z" id="icon" fill="#ffffff"/></g></svg>