<svg version="1.1" xmlns="http://www.w3.org/2000/svg" xmlns:xlink="http://www.w3.org/1999/xlink" width="70" height="70" viewBox="0,0,70,70" odoo-icon:version="1.0" xmlns:odoo-icon="https://ivantodorovich.github.io/odoo-icon" odoo-icon:size="70" odoo-icon:icon-size="0.59" odoo-icon:icon-color="#FFFFFF" odoo-icon:icon-flat-shadow-angle="135" odoo-icon:background-color="#5a9442" odoo-icon:background-gradient="0.2" odoo-icon:box-radius="3.5" odoo-icon:odoo-version="14.0"><defs><linearGradient x1="70" y1="0" x2="0" y2="70" gradientUnits="userSpaceOnUse" id="color-1"><stop offset="0" stop-color="#8dc775"/><stop offset="1" stop-color="#5a9442"/></linearGradient></defs><g fill="none" fill-rule="nonzero" stroke="none" stroke-width="1" stroke-linecap="butt" stroke-linejoin="miter" stroke-miterlimit="10" stroke-dasharray="" stroke-dashoffset="0" font-family="none" font-weight="none" font-size="none" text-anchor="none" style="mix-blend-mode: normal"><path d="M3.5,70c-1.933,0 -3.5,-1.567 -3.5,-3.5v-63c0,-1.933 1.567,-3.5 3.5,-3.5h63c1.933,0 3.5,1.567 3.5,3.5v63c0,1.933 -1.567,3.5 -3.5,3.5z" id="box" fill="url(#color-1)"/><path d="M65,1h-61c-1.95033,0 -3.2667,0.63396 -3.9491,1.90189c0.28378,-1.64806 1.72001,-2.90189 3.4491,-2.90189h63c1.72965,0 3.16627,1.25466 3.44938,2.90352c-0.69803,-1.26902 -2.34782,-1.90352 -4.94938,-1.90352z" id="topBoxShadow" fill="#ffffff" opacity="0.383"/><path d="M4,69h61c2.66667,0 4.33333,-1 5,-3v0.5c0,1.933 -1.567,3.5 -3.5,3.5h-63c-1.933,0 -3.5,-1.567 -3.5,-3.5c0,-0.1611 0,-0.32777 0,-0.5c0.66667,2 2,3 4,3z" id="bottomBoxShadow" fill="#000000" opacity="0.383"/><path d="M32.89934,30.70005h-4.1998v-14.70005h-4.1998v14.70005h-4.1998v-14.70005h-4.1998v14.70005c0,4.4518 3.48614,8.06394 7.87494,8.3371v18.96285h5.25013v-18.96285c4.3888,-0.27317 7.87494,-3.8848 7.87494,-8.3371v-14.70005h-4.1998v14.70005M43.3996,24.4001v16.7997h5.25013v16.7997h5.25013v-41.9995c-5.79595,0 -10.49975,4.70379 -10.49975,8.4001z" id="shadow" fill="#000000" opacity="0.3"/><path d="M16.10015,14h4.1998v4.1998l4.1998,-4.1998h4.1998l0,4.20081l4.20081,-4.20081h4.1998l0,12.14637l8.76577,-8.76577c1.92653,-1.92653 4.81142,-3.3806 8.03393,-3.3806v41.9995l-14.0005,14.0005h-36.39934c-1.933,0 -3.5,-1.567 -3.5,-3.5l0,-36.39985z" id="flatShadow" fill="#000000" opacity="0.324"/><path d="M32.89934,28.70005h-4.1998v-14.70005h-4.1998v14.70005h-4.1998v-14.70005h-4.1998v14.70005c0,4.4518 3.48614,8.06394 7.87494,8.3371v18.96285h5.25013v-18.96285c4.3888,-0.27317 7.87494,-3.8848 7.87494,-8.3371v-14.70005h-4.1998v14.70005M43.3996,22.4001v16.7997h5.25013v16.7997h5.25013v-41.9995c-5.79595,0 -10.49975,4.70379 -10.49975,8.4001z" id="icon" fill="#ffffff"/></g></svg>