<svg version="1.1" xmlns="http://www.w3.org/2000/svg" xmlns:xlink="http://www.w3.org/1999/xlink" width="70" height="70" viewBox="0,0,70,70" odoo-icon:version="1.0" xmlns:odoo-icon="https://ivantodorovich.github.io/odoo-icon" odoo-icon:size="70" odoo-icon:icon-size="0.55" odoo-icon:icon-color="#FFFFFF" odoo-icon:icon-flat-shadow-angle="135" odoo-icon:background-color="#cb6482" odoo-icon:background-gradient="0.2" odoo-icon:box-radius="3.5" odoo-icon:odoo-version="14.0"><defs><linearGradient x1="70" y1="0" x2="0" y2="70" gradientUnits="userSpaceOnUse" id="color-1"><stop offset="0" stop-color="#fe97b5"/><stop offset="1" stop-color="#cb6482"/></linearGradient></defs><g fill="none" fill-rule="nonzero" stroke="none" stroke-width="1" stroke-linecap="butt" stroke-linejoin="miter" stroke-miterlimit="10" stroke-dasharray="" stroke-dashoffset="0" font-family="none" font-weight="none" font-size="none" text-anchor="none" style="mix-blend-mode: normal"><path d="M3.5,70c-1.933,0 -3.5,-1.567 -3.5,-3.5v-63c0,-1.933 1.567,-3.5 3.5,-3.5h63c1.933,0 3.5,1.567 3.5,3.5v63c0,1.933 -1.567,3.5 -3.5,3.5z" id="box" fill="url(#color-1)"/><path d="M65,1h-61c-1.95033,0 -3.2667,0.63396 -3.9491,1.90189c0.28378,-1.64806 1.72001,-2.90189 3.4491,-2.90189h63c1.72965,0 3.16627,1.25466 3.44938,2.90352c-0.69803,-1.26902 -2.34782,-1.90352 -4.94938,-1.90352z" id="topBoxShadow" fill="#ffffff" opacity="0.383"/><path d="M4,69h61c2.66667,0 4.33333,-1 5,-3v0.5c0,1.933 -1.567,3.5 -3.5,3.5h-63c-1.933,0 -3.5,-1.567 -3.5,-3.5c0,-0.1611 0,-0.32777 0,-0.5c0.66667,2 2,3 4,3z" id="bottomBoxShadow" fill="#000000" opacity="0.383"/><path d="M24.60007,38.29987h-1.29987v-2.60013h1.29987c0.71799,0 1.29987,0.58188 1.29987,1.29987c0,0.71799 -0.58188,1.29987 -1.29987,1.29987zM33.70033,43.50013v-7.8h1.29987c0.71799,0 1.29987,0.58188 1.29987,1.29987v5.19987c0,0.71799 -0.58188,1.29987 -1.29987,1.29987zM18.10033,21.4c0,-2.15397 1.74603,-3.9 3.9,-3.9h21.33807l8.56167,8.56167v26.53833c0,2.15397 -1.74603,3.9 -3.9,3.9h-26.00013c-2.15397,0 -3.9,-1.74603 -3.9,-3.9zM24.60007,33.1h-3.9v12.99987h2.60013v-5.19987h1.29987c2.15397,0 3.9,-1.74603 3.9,-3.9c0,-2.15397 -1.74603,-3.9 -3.9,-3.9zM35.0002,33.1h-3.9v12.99987h3.9c2.15397,0 3.9,-1.74603 3.9,-3.9v-5.19987c0,-2.15397 -1.74603,-3.9 -3.9,-3.9zM44.10007,46.09987v-5.19987h2.60013v-2.60013h-2.60013v-2.60013h5.19987v-2.60013h-7.8v12.99987z" id="shadow" fill="#000000" opacity="0.3"/><path d="M19.24259,16.64226c0.70575,-0.70575 1.68075,-1.14226 2.75774,-1.14226h21.33807l8.56167,8.56167v26.53833c0,1.07699 -0.43651,2.05199 -1.14226,2.75774l-16.64226,16.64226h-30.61554c-1.933,0 -3.5,-1.567 -3.5,-3.5l0,-30.61515z" id="flatShadow" fill="#000000" opacity="0.324"/><path d="M24.60007,36.29987h-1.29987v-2.60013h1.29987c0.71799,0 1.29987,0.58188 1.29987,1.29987c0,0.71799 -0.58188,1.29987 -1.29987,1.29987zM33.70033,41.50013v-7.8h1.29987c0.71799,0 1.29987,0.58188 1.29987,1.29987v5.19987c0,0.71799 -0.58188,1.29987 -1.29987,1.29987zM18.10033,19.4c0,-2.15397 1.74603,-3.9 3.9,-3.9h21.33807l8.56167,8.56167v26.53833c0,2.15397 -1.74603,3.9 -3.9,3.9h-26.00013c-2.15397,0 -3.9,-1.74603 -3.9,-3.9zM24.60007,31.1h-3.9v12.99987h2.60013v-5.19987h1.29987c2.15397,0 3.9,-1.74603 3.9,-3.9c0,-2.15397 -1.74603,-3.9 -3.9,-3.9zM35.0002,31.1h-3.9v12.99987h3.9c2.15397,0 3.9,-1.74603 3.9,-3.9v-5.19987c0,-2.15397 -1.74603,-3.9 -3.9,-3.9zM44.10007,44.09987v-5.19987h2.60013v-2.60013h-2.60013v-2.60013h5.19987v-2.60013h-7.8v12.99987z" id="icon" fill="#ffffff"/></g></svg>