<svg version="1.1" xmlns="http://www.w3.org/2000/svg" xmlns:xlink="http://www.w3.org/1999/xlink" width="70" height="70" viewBox="0,0,70,70"><!-- Generated with https://ivantodorovich.github.io/odoo-icon --><defs><linearGradient x1="70" y1="0" x2="0" y2="70" gradientUnits="userSpaceOnUse" id="color-1"><stop offset="0" stop-color="#ff4e93"/><stop offset="1" stop-color="#d81b60"/></linearGradient></defs><g fill="none" fill-rule="nonzero" stroke="none" stroke-width="1" stroke-linecap="butt" stroke-linejoin="miter" stroke-miterlimit="10" stroke-dasharray="" stroke-dashoffset="0" font-family="none" font-weight="none" font-size="none" text-anchor="none" style="mix-blend-mode: normal"><path d="M3.5,70c-1.933,0 -3.5,-1.567 -3.5,-3.5v-63c0,-1.933 1.567,-3.5 3.5,-3.5h63c1.933,0 3.5,1.567 3.5,3.5v63c0,1.933 -1.567,3.5 -3.5,3.5z" id="box" fill="url(#color-1)"/><path d="M65,1h-61c-1.95033,0 -3.2667,0.63396 -3.9491,1.90189c0.28378,-1.64806 1.72001,-2.90189 3.4491,-2.90189h63c1.72965,0 3.16627,1.25466 3.44938,2.90352c-0.69803,-1.26902 -2.34782,-1.90352 -4.94938,-1.90352z" id="topBoxShadow" fill="#ffffff" opacity="0.383"/><path d="M4,69h61c2.66667,0 4.33333,-1 5,-3v0.5c0,1.933 -1.567,3.5 -3.5,3.5h-63c-1.933,0 -3.5,-1.567 -3.5,-3.5c0,-0.1611 0,-0.32777 0,-0.5c0.66667,2 2,3 4,3z" id="bottomBoxShadow" fill="#000000" opacity="0.383"/><path d="M49.77789,18h-29.55578c-2.34336,0 -4.22211,1.87875 -4.22211,4.22211v29.55578c0,2.34336 1.87875,4.22211 4.22211,4.22211h29.55578c2.34336,0 4.22211,-1.87875 4.22211,-4.22211v-29.55578c0,-2.34336 -1.87875,-4.22211 -4.22211,-4.22211M26.55502,43.33367h-3.16671l-1.0554,-4.22211l-1.0554,4.22211h-3.16671l1.58335,-6.33342l-1.58335,-6.33342h3.16671l1.0554,4.22211l1.0554,-4.22211h3.16671l-1.58335,6.33342l1.58335,6.33342M42.38857,43.33367h-3.16671v-9.50013h-2.11131v7.38882h-3.16671v-7.38882h-2.11131v9.50013h-3.16671v-8.44473c0,-2.32208 1.90003,-4.22211 4.22211,-4.22211h5.27802c2.33171,0 4.22211,1.8904 4.22211,4.22211v8.44473M51.88869,43.33367h-6.33342v-12.66684h3.16671v9.50013h3.16671z" id="shadow" fill="#000000" opacity="0.3"/><path d="M20.22211,16h29.55578c2.34336,0 4.22211,1.87875 4.22211,4.22211v29.55578c0,1.17168 -0.46969,2.22721 -1.23229,2.98982l-17.23229,17.23229h-32.03541c-1.933,0 -3.5,-1.567 -3.5,-3.5l0,-30.27789c6.49814,-6.49814 12.40114,-12.40114 16,-16c2.51424,-2.51424 4.08983,-4.08983 4.22211,-4.22211z" id="flatShadow" fill="#000000" opacity="0.324"/><path d="M49.77789,16h-29.55578c-2.34336,0 -4.22211,1.87875 -4.22211,4.22211v29.55578c0,2.34336 1.87875,4.22211 4.22211,4.22211h29.55578c2.34336,0 4.22211,-1.87875 4.22211,-4.22211v-29.55578c0,-2.34336 -1.87875,-4.22211 -4.22211,-4.22211M26.55502,41.33367h-3.16671l-1.0554,-4.22211l-1.0554,4.22211h-3.16671l1.58335,-6.33342l-1.58335,-6.33342h3.16671l1.0554,4.22211l1.0554,-4.22211h3.16671l-1.58335,6.33342l1.58335,6.33342M42.38857,41.33367h-3.16671v-9.50013h-2.11131v7.38882h-3.16671v-7.38882h-2.11131v9.50013h-3.16671v-8.44473c0,-2.32208 1.90003,-4.22211 4.22211,-4.22211h5.27802c2.33171,0 4.22211,1.8904 4.22211,4.22211v8.44473M51.88869,41.33367h-6.33342v-12.66684h3.16671v9.50013h3.16671z" id="icon" fill="#ffffff"/></g></svg>