<svg version="1.1" xmlns="http://www.w3.org/2000/svg" xmlns:xlink="http://www.w3.org/1999/xlink" width="70" height="70" viewBox="0,0,70,70" odoo-icon:version="1.0" xmlns:odoo-icon="https://ivantodorovich.github.io/odoo-icon" odoo-icon:size="70" odoo-icon:icon-size="0.49" odoo-icon:icon-color="#FFFFFF" odoo-icon:icon-flat-shadow-angle="135" odoo-icon:background-color="#ffbc30" odoo-icon:background-gradient="0.2" odoo-icon:box-radius="3.5" odoo-icon:odoo-version="14.0"><defs><linearGradient x1="70" y1="0" x2="0" y2="70" gradientUnits="userSpaceOnUse" id="color-1"><stop offset="0" stop-color="#ffef63"/><stop offset="1" stop-color="#ffbc30"/></linearGradient></defs><g fill="none" fill-rule="nonzero" stroke="none" stroke-width="1" stroke-linecap="butt" stroke-linejoin="miter" stroke-miterlimit="10" stroke-dasharray="" stroke-dashoffset="0" font-family="none" font-weight="none" font-size="none" text-anchor="none" style="mix-blend-mode: normal"><path d="M3.5,70c-1.933,0 -3.5,-1.567 -3.5,-3.5v-63c0,-1.933 1.567,-3.5 3.5,-3.5h63c1.933,0 3.5,1.567 3.5,3.5v63c0,1.933 -1.567,3.5 -3.5,3.5z" id="box" fill="url(#color-1)"/><path d="M65,1h-61c-1.95033,0 -3.2667,0.63396 -3.9491,1.90189c0.28378,-1.64806 1.72001,-2.90189 3.4491,-2.90189h63c1.72965,0 3.16627,1.25466 3.44938,2.90352c-0.69803,-1.26902 -2.34782,-1.90352 -4.94938,-1.90352z" id="topBoxShadow" fill="#ffffff" opacity="0.383"/><path d="M4,69h61c2.66667,0 4.33333,-1 5,-3v0.5c0,1.933 -1.567,3.5 -3.5,3.5h-63c-1.933,0 -3.5,-1.567 -3.5,-3.5c0,-0.1611 0,-0.32777 0,-0.5c0.66667,2 2,3 4,3z" id="bottomBoxShadow" fill="#000000" opacity="0.383"/><path d="M35,19.5c-9.65676,0 -17.5,7.84324 -17.5,17.5c0,9.65676 7.84324,17.5 17.5,17.5c9.65676,0 17.5,-7.84324 17.5,-17.5c0,-9.65676 -7.84324,-17.5 -17.5,-17.5zM35,20.85207c1.99657,0 3.90739,0.36224 5.6717,1.02328l-1.45744,3.88662c1.60549,0.59989 3.06408,1.53627 4.27771,2.74644l2.92948,-2.92948c1.42629,1.4259 2.57262,3.10599 3.38017,4.95374l-3.27481,3.05754l4.40807,0.78486c0.05922,0.36301 0.10614,0.72795 0.14036,1.09442l-3.88355,0.36993l-0.66488,-2.24884l-0.68142,-2.30498l-3.38479,3.15983c-1.06443,-3.09753 -4.00737,-5.33099 -7.461,-5.33099c-1.0702,0 -2.09117,0.21496 -3.02255,0.60297l0.12998,-4.63111l-2.17885,1.01405l-2.17885,1.01405l3.62782,2.88372c-2.53032,1.31477 -4.26348,3.96046 -4.26348,7.003c0,3.32711 2.07233,6.18045 4.99374,7.33679l-3.30826,3.23443l2.27152,0.78563l2.27152,0.78563l-0.60259,-4.58727c0.73333,0.21996 1.49512,0.33148 2.26076,0.3311c4.34731,0 7.88631,-3.53899 7.88631,-7.88631c0.00038,-0.64642 -0.07922,-1.29016 -0.23611,-1.91697l4.34808,0.77409l-0.04615,0.00461c0.03961,0.37801 0.06153,0.75794 0.06499,1.13826c-0.00615,4.79339 -2.86027,9.12493 -7.26295,11.02152l1.64394,3.81087c-1.96158,0.84601 -4.12427,1.31554 -6.39811,1.31554c-1.12403,0.00038 -2.24537,-0.11613 -3.34557,-0.34725l-0.58374,-4.44422l-3.20636,3.13483c-1.79815,-0.88677 -3.41594,-2.09963 -4.7707,-3.57745l3.05677,-2.8022c-2.0331,-2.21269 -3.16329,-5.10679 -3.16752,-8.11165c0.00269,-3.18598 1.27093,-6.24044 3.52515,-8.49197l-2.92948,-2.92948c0.85985,-0.85946 1.81391,-1.61972 2.84412,-2.26576l3.50592,2.78643l0.12575,-4.47652c1.55857,-0.49991 3.21982,-0.77102 4.94567,-0.77102zM35,30.46576c2.27806,0 4.27809,1.15749 5.44712,2.91833l-3.13945,2.93102l4.2258,0.75256c-0.03615,3.58514 -2.9391,6.46656 -6.53347,6.46656c-0.07614,0 -0.1519,-0.00192 -0.22688,-0.00461l-0.55952,-4.25848l-3.07407,3.00524c-1.62241,-1.18748 -2.67376,-3.10599 -2.67376,-5.27676c0,-1.93081 0.83178,-3.66166 2.15731,-4.85645l3.36172,2.67222l0.12036,-4.28925c0.29649,-0.04038 0.59528,-0.06076 0.89484,-0.06076zM35,34.59658c-1.32746,0 -2.40342,1.07596 -2.40342,2.40342c0,1.32746 1.07596,2.40342 2.40342,2.40342c1.32746,0 2.40342,-1.07596 2.40342,-2.40342c0,-1.32746 -1.07596,-2.40342 -2.40342,-2.40342z" id="shadow" fill="#000000" opacity="0.3"/><path d="M47.37129,47.37129l0,0l-22.62871,22.62871h-21.24257c-1.933,0 -3.5,-1.567 -3.5,-3.5l0,-21.24257l22.62871,-22.62871c3.1679,-3.1679 7.5429,-5.12871 12.37129,-5.12871c9.65676,0 17.5,7.84324 17.5,17.5c0,4.82838 -1.96081,9.20338 -5.12871,12.37129z" id="flatShadow" fill="#000000" opacity="0.324"/><path d="M35,17.5c-9.65676,0 -17.5,7.84324 -17.5,17.5c0,9.65676 7.84324,17.5 17.5,17.5c9.65676,0 17.5,-7.84324 17.5,-17.5c0,-9.65676 -7.84324,-17.5 -17.5,-17.5zM35,18.85207c1.99657,0 3.90739,0.36224 5.6717,1.02328l-1.45744,3.88662c1.60549,0.59989 3.06408,1.53627 4.27771,2.74644l2.92948,-2.92948c1.42629,1.4259 2.57262,3.10599 3.38017,4.95374l-3.27481,3.05754l4.40807,0.78486c0.05922,0.36301 0.10614,0.72795 0.14036,1.09442l-3.88355,0.36993l-0.66488,-2.24884l-0.68142,-2.30498l-3.38479,3.15983c-1.06443,-3.09753 -4.00737,-5.33099 -7.461,-5.33099c-1.0702,0 -2.09117,0.21496 -3.02255,0.60297l0.12998,-4.63111l-2.17885,1.01405l-2.17885,1.01405l3.62782,2.88372c-2.53032,1.31477 -4.26348,3.96046 -4.26348,7.003c0,3.32711 2.07233,6.18045 4.99374,7.33679l-3.30826,3.23443l2.27152,0.78563l2.27152,0.78563l-0.60259,-4.58727c0.73333,0.21996 1.49512,0.33148 2.26076,0.3311c4.34731,0 7.88631,-3.53899 7.88631,-7.88631c0.00038,-0.64642 -0.07922,-1.29016 -0.23611,-1.91697l4.34808,0.77409l-0.04615,0.00461c0.03961,0.37801 0.06153,0.75794 0.06499,1.13826c-0.00615,4.79339 -2.86027,9.12493 -7.26295,11.02152l1.64394,3.81087c-1.96158,0.84601 -4.12427,1.31554 -6.39811,1.31554c-1.12403,0.00038 -2.24537,-0.11613 -3.34557,-0.34725l-0.58374,-4.44422l-3.20636,3.13483c-1.79815,-0.88677 -3.41594,-2.09963 -4.7707,-3.57745l3.05677,-2.8022c-2.0331,-2.21269 -3.16329,-5.10679 -3.16752,-8.11165c0.00269,-3.18598 1.27093,-6.24044 3.52515,-8.49197l-2.92948,-2.92948c0.85985,-0.85946 1.81391,-1.61972 2.84412,-2.26576l3.50592,2.78643l0.12575,-4.47652c1.55857,-0.49991 3.21982,-0.77102 4.94567,-0.77102zM35,28.46576c2.27806,0 4.27809,1.15749 5.44712,2.91833l-3.13945,2.93102l4.2258,0.75256c-0.03615,3.58514 -2.9391,6.46656 -6.53347,6.46656c-0.07614,0 -0.1519,-0.00192 -0.22688,-0.00461l-0.55952,-4.25848l-3.07407,3.00524c-1.62241,-1.18748 -2.67376,-3.10599 -2.67376,-5.27676c0,-1.93081 0.83178,-3.66166 2.15731,-4.85645l3.36172,2.67222l0.12036,-4.28925c0.29649,-0.04038 0.59528,-0.06076 0.89484,-0.06076zM35,32.59658c-1.32746,0 -2.40342,1.07596 -2.40342,2.40342c0,1.32746 1.07596,2.40342 2.40342,2.40342c1.32746,0 2.40342,-1.07596 2.40342,-2.40342c0,-1.32746 -1.07596,-2.40342 -2.40342,-2.40342z" id="icon" fill="#ffffff"/></g></svg>