<svg version="1.1" xmlns="http://www.w3.org/2000/svg" xmlns:xlink="http://www.w3.org/1999/xlink" width="70" height="70" viewBox="0,0,70,70" odoo-icon:version="1.0" xmlns:odoo-icon="https://ivantodorovich.github.io/odoo-icon" odoo-icon:size="70" odoo-icon:icon-size="0.6" odoo-icon:icon-color="#FFFFFF" odoo-icon:icon-flat-shadow-angle="135" odoo-icon:background-color="#00897b" odoo-icon:background-gradient="0.2" odoo-icon:box-radius="3.5" odoo-icon:odoo-version="14.0"><defs><linearGradient x1="70" y1="0" x2="0" y2="70" gradientUnits="userSpaceOnUse" id="color-1"><stop offset="0" stop-color="#33bcae"/><stop offset="1" stop-color="#00897b"/></linearGradient></defs><g fill="none" fill-rule="nonzero" stroke="none" stroke-width="1" stroke-linecap="butt" stroke-linejoin="miter" stroke-miterlimit="10" stroke-dasharray="" stroke-dashoffset="0" font-family="none" font-weight="none" font-size="none" text-anchor="none" style="mix-blend-mode: normal"><path d="M3.5,70c-1.933,0 -3.5,-1.567 -3.5,-3.5v-63c0,-1.933 1.567,-3.5 3.5,-3.5h63c1.933,0 3.5,1.567 3.5,3.5v63c0,1.933 -1.567,3.5 -3.5,3.5z" id="box" fill="url(#color-1)"/><path d="M65,1h-61c-1.95033,0 -3.2667,0.63396 -3.9491,1.90189c0.28378,-1.64806 1.72001,-2.90189 3.4491,-2.90189h63c1.72965,0 3.16627,1.25466 3.44938,2.90352c-0.69803,-1.26902 -2.34782,-1.90352 -4.94938,-1.90352z" id="topBoxShadow" fill="#ffffff" opacity="0.383"/><path d="M4,69h61c2.66667,0 4.33333,-1 5,-3v0.5c0,1.933 -1.567,3.5 -3.5,3.5h-63c-1.933,0 -3.5,-1.567 -3.5,-3.5c0,-0.1611 0,-0.32777 0,-0.5c0.66667,2 2,3 4,3z" id="bottomBoxShadow" fill="#000000" opacity="0.383"/><path d="M55.99952,43.00506c-0.0048,7.74624 -5.90747,14.21479 -13.62059,14.92659c-7.7136,0.7118 -14.70004,-4.56692 -16.1222,-12.18164c4.86018,0.90378 9.85331,-0.6446 13.34893,-4.14022c3.49562,-3.49562 5.04401,-8.48875 4.14022,-13.34893c7.1026,1.32232 12.25364,7.51969 12.25412,14.7442zM41.00045,28.006c0.92058,0.00096 1.83973,0.08639 2.74495,0.25486c-1.38519,-7.44674 -8.10477,-12.69233 -15.66478,-12.2282c-7.56001,0.46413 -13.58795,6.49208 -14.05208,14.05208c-0.46413,7.56001 4.78146,14.28007 12.2282,15.66478c-0.81595,-4.38309 0.36046,-8.90153 3.20956,-12.33091c2.8491,-3.42891 7.0762,-5.41262 11.53464,-5.4131z" id="shadow" fill="#000000" opacity="0.3"/><path d="M51.60395,51.60444l-18.39556,18.39556h-29.70839c-0.96478,0 -1.83839,-0.39036 -2.4715,-1.02176l42.71738,-42.71738c7.1026,1.32232 12.25364,7.51969 12.25412,14.7442l-0.00048,0.00048c-0.00268,4.11861 -1.67267,7.87599 -4.39557,10.59889zM-9.89181,89.10726c0,0 0,0 0,0zM18.39362,18.39775c2.51,-2.51 5.90699,-4.13302 9.687,-4.36509c7.56001,-0.46413 14.27959,4.78146 15.66478,12.2282l-42.71714,42.71714c-0.63522,-0.63362 -1.02826,-1.50991 -1.02826,-2.478l0,-29.70862z" id="flatShadow" fill="#000000" opacity="0.324"/><path d="M55.99952,41.00506c-0.0048,7.74624 -5.90747,14.21479 -13.62059,14.92659c-7.7136,0.7118 -14.70004,-4.56692 -16.1222,-12.18164c4.86018,0.90378 9.85331,-0.6446 13.34893,-4.14022c3.49562,-3.49562 5.04401,-8.48875 4.14022,-13.34893c7.1026,1.32232 12.25364,7.51969 12.25412,14.7442zM41.00045,26.006c0.92058,0.00096 1.83973,0.08639 2.74495,0.25486c-1.38519,-7.44674 -8.10477,-12.69233 -15.66478,-12.2282c-7.56001,0.46413 -13.58795,6.49208 -14.05208,14.05208c-0.46413,7.56001 4.78146,14.28007 12.2282,15.66478c-0.81595,-4.38309 0.36046,-8.90153 3.20956,-12.33091c2.8491,-3.42891 7.0762,-5.41262 11.53464,-5.4131z" id="icon" fill="#ffffff"/></g></svg>