<svg version="1.1" xmlns="http://www.w3.org/2000/svg" xmlns:xlink="http://www.w3.org/1999/xlink" width="70" height="70" viewBox="0,0,70,70" odoo-icon:version="1.0" xmlns:odoo-icon="https://ivantodorovich.github.io/odoo-icon" odoo-icon:size="70" odoo-icon:icon-size="0.55" odoo-icon:icon-color="#FFFFFF" odoo-icon:icon-flat-shadow-angle="135" odoo-icon:background-color="#cb6482" odoo-icon:background-gradient="0.2" odoo-icon:box-radius="3.5" odoo-icon:odoo-version="14.0"><defs><linearGradient x1="70" y1="0" x2="0" y2="70" gradientUnits="userSpaceOnUse" id="color-1"><stop offset="0" stop-color="#fe97b5"/><stop offset="1" stop-color="#cb6482"/></linearGradient></defs><g fill="none" fill-rule="nonzero" stroke="none" stroke-width="1" stroke-linecap="butt" stroke-linejoin="miter" stroke-miterlimit="10" stroke-dasharray="" stroke-dashoffset="0" font-family="none" font-weight="none" font-size="none" text-anchor="none" style="mix-blend-mode: normal"><path d="M3.5,70c-1.933,0 -3.5,-1.567 -3.5,-3.5v-63c0,-1.933 1.567,-3.5 3.5,-3.5h63c1.933,0 3.5,1.567 3.5,3.5v63c0,1.933 -1.567,3.5 -3.5,3.5z" id="box" fill="url(#color-1)"/><path d="M65,1h-61c-1.95033,0 -3.2667,0.63396 -3.9491,1.90189c0.28378,-1.64806 1.72001,-2.90189 3.4491,-2.90189h63c1.72965,0 3.16627,1.25466 3.44938,2.90352c-0.69803,-1.26902 -2.34782,-1.90352 -4.94938,-1.90352z" id="topBoxShadow" fill="#ffffff" opacity="0.383"/><path d="M4,69h61c2.66667,0 4.33333,-1 5,-3v0.5c0,1.933 -1.567,3.5 -3.5,3.5h-63c-1.933,0 -3.5,-1.567 -3.5,-3.5c0,-0.1611 0,-0.32777 0,-0.5c0.66667,2 2,3 4,3z" id="bottomBoxShadow" fill="#000000" opacity="0.383"/><path d="M33.97361,22.63148h20.52639v4.10508h-20.52639M33.97361,51.36852v-4.10508h20.52639v4.10508M33.97361,34.94721h20.52639v4.10508h-20.52639M27.81574,39.05279v4.10508l-6.83523,8.21066h6.83523v4.10508h-12.31574v-4.10508l6.83523,-8.21066h-6.83523v-4.10508M23.71066,18.52639h-4.10508c-2.25772,0 -4.10508,1.84736 -4.10508,4.10508v12.31574h4.10508v-4.10508h4.10508v4.10508h4.10508v-12.31574c0,-2.26708 -1.838,-4.10508 -4.10508,-4.10508M23.71066,26.73705h-4.10508v-4.10508h4.10508z" id="shadow" fill="#000000" opacity="0.3"/><path d="M33.97361,20.63148h20.52639v4.10508l-8.21066,8.21066h8.21066v4.10508l-8.21115,8.21115h8.21115v4.10508l-20.63148,20.63148h-30.36852c-1.933,0 -3.5,-1.567 -3.5,-3.5l0,-30.36803l19.60557,-19.60557h4.10508c2.26708,0 4.10508,1.838 4.10508,4.10508l0,6.15787z" id="flatShadow" fill="#000000" opacity="0.324"/><path d="M33.97361,20.63148h20.52639v4.10508h-20.52639M33.97361,49.36852v-4.10508h20.52639v4.10508M33.97361,32.94721h20.52639v4.10508h-20.52639M27.81574,37.05279v4.10508l-6.83523,8.21066h6.83523v4.10508h-12.31574v-4.10508l6.83523,-8.21066h-6.83523v-4.10508M23.71066,16.52639h-4.10508c-2.25772,0 -4.10508,1.84736 -4.10508,4.10508v12.31574h4.10508v-4.10508h4.10508v4.10508h4.10508v-12.31574c0,-2.26708 -1.838,-4.10508 -4.10508,-4.10508M23.71066,24.73705h-4.10508v-4.10508h4.10508z" id="icon" fill="#ffffff"/></g></svg>