<svg version="1.1" xmlns="http://www.w3.org/2000/svg" xmlns:xlink="http://www.w3.org/1999/xlink" width="70" height="70" viewBox="0,0,70,70" odoo-icon:version="1.0" xmlns:odoo-icon="https://ivantodorovich.github.io/odoo-icon" odoo-icon:size="70" odoo-icon:icon-size="0.54" odoo-icon:icon-color="#FFFFFF" odoo-icon:icon-flat-shadow-angle="135" odoo-icon:background-color="#a4426b" odoo-icon:background-gradient="0.2" odoo-icon:box-radius="3.5" odoo-icon:odoo-version="14.0"><defs><linearGradient x1="70" y1="0" x2="0" y2="70" gradientUnits="userSpaceOnUse" id="color-1"><stop offset="0" stop-color="#d7759e"/><stop offset="1" stop-color="#a4426b"/></linearGradient></defs><g fill="none" fill-rule="nonzero" stroke="none" stroke-width="1" stroke-linecap="butt" stroke-linejoin="miter" stroke-miterlimit="10" stroke-dasharray="" stroke-dashoffset="0" font-family="none" font-weight="none" font-size="none" text-anchor="none" style="mix-blend-mode: normal"><path d="M3.5,70c-1.933,0 -3.5,-1.567 -3.5,-3.5v-63c0,-1.933 1.567,-3.5 3.5,-3.5h63c1.933,0 3.5,1.567 3.5,3.5v63c0,1.933 -1.567,3.5 -3.5,3.5z" id="box" fill="url(#color-1)"/><path d="M65,1h-61c-1.95033,0 -3.2667,0.63396 -3.9491,1.90189c0.28378,-1.64806 1.72001,-2.90189 3.4491,-2.90189h63c1.72965,0 3.16627,1.25466 3.44938,2.90352c-0.69803,-1.26902 -2.34782,-1.90352 -4.94938,-1.90352z" id="topBoxShadow" fill="#ffffff" opacity="0.383"/><path d="M4,69h61c2.66667,0 4.33333,-1 5,-3v0.5c0,1.933 -1.567,3.5 -3.5,3.5h-63c-1.933,0 -3.5,-1.567 -3.5,-3.5c0,-0.1611 0,-0.32777 0,-0.5c0.66667,2 2,3 4,3z" id="bottomBoxShadow" fill="#000000" opacity="0.383"/><path d="M20.75,25.125c0,-3.9349 3.1901,-7.125 7.125,-7.125h19c3.9349,0 7.125,3.1901 7.125,7.125v19c0,3.9349 -3.1901,7.125 -7.125,7.125h-7.18438c0.0399,-0.29498 0.05938,-0.5928 0.05938,-0.89063c0,-2.18263 -1.39175,-4.161 -3.43662,-4.8165c1.6511,-2.204 1.3566,-5.30243 -0.6802,-7.15588c-2.0368,-1.85345 -5.149,-1.85583 -7.18817,-0.00475c-1.35802,-2.89798 -4.61605,-4.3852 -7.695,-3.51262zM37.375,26.3125c0,-0.65598 -0.53152,-1.1875 -1.1875,-1.1875c-0.65597,0 -1.1875,0.53153 -1.1875,1.1875v9.5c0,0.65598 0.53153,1.1875 1.1875,1.1875h7.125c0.65597,0 1.1875,-0.53153 1.1875,-1.1875c0,-0.65597 -0.53153,-1.1875 -1.1875,-1.1875h-5.9375zM22.53125,45.3125c2.2952,0 4.15625,-1.86105 4.15625,-4.15625c0,-2.2952 -1.86105,-4.15625 -4.15625,-4.15625c-2.2952,0 -4.15625,1.86105 -4.15625,4.15625c0,2.2952 1.86105,4.15625 4.15625,4.15625zM23.125,56c5.08963,0 7.125,-2.60775 7.125,-5.1965c0,-1.7195 -1.368,-3.116 -3.05425,-3.116h-8.1415c-1.68625,0 -3.05425,1.3965 -3.05425,3.11838c0,2.5935 2.03538,5.19412 7.125,5.19412zM31.4375,54.8125h-0.05462c0.81462,-1.17752 1.2483,-2.57688 1.24212,-4.009c0,-1.14713 -0.3515,-2.22538 -0.9595,-3.116h3.16825c1.406,0 2.54362,1.197 2.54362,2.67188c0,2.21825 -1.69575,4.45313 -5.9375,4.45313zM32.03125,45.3125c1.6397,0 2.96875,-1.32905 2.96875,-2.96875c0,-1.6397 -1.32905,-2.96875 -2.96875,-2.96875c-1.6397,0 -2.96875,1.32905 -2.96875,2.96875c0,1.6397 1.32905,2.96875 2.96875,2.96875z" id="shadow" fill="#000000" opacity="0.3"/><path d="M22.83691,18.08691c1.28939,-1.28939 3.07064,-2.08691 5.03809,-2.08691h19c3.9349,0 7.125,3.1901 7.125,7.125v19c0,1.96745 -0.79753,3.7487 -2.08691,5.03809l-22.83691,22.83691h-25.57618c-1.933,0 -3.5,-1.567 -3.5,-3.5l0,-25.57617z" id="flatShadow" fill="#000000" opacity="0.324"/><path d="M20.75,23.125c0,-3.9349 3.1901,-7.125 7.125,-7.125h19c3.9349,0 7.125,3.1901 7.125,7.125v19c0,3.9349 -3.1901,7.125 -7.125,7.125h-7.18438c0.0399,-0.29498 0.05938,-0.5928 0.05938,-0.89063c0,-2.18263 -1.39175,-4.161 -3.43662,-4.8165c1.6511,-2.204 1.3566,-5.30243 -0.6802,-7.15588c-2.0368,-1.85345 -5.149,-1.85583 -7.18817,-0.00475c-1.35802,-2.89798 -4.61605,-4.3852 -7.695,-3.51262zM37.375,24.3125c0,-0.65598 -0.53152,-1.1875 -1.1875,-1.1875c-0.65597,0 -1.1875,0.53153 -1.1875,1.1875v9.5c0,0.65598 0.53153,1.1875 1.1875,1.1875h7.125c0.65597,0 1.1875,-0.53153 1.1875,-1.1875c0,-0.65597 -0.53153,-1.1875 -1.1875,-1.1875h-5.9375zM22.53125,43.3125c2.2952,0 4.15625,-1.86105 4.15625,-4.15625c0,-2.2952 -1.86105,-4.15625 -4.15625,-4.15625c-2.2952,0 -4.15625,1.86105 -4.15625,4.15625c0,2.2952 1.86105,4.15625 4.15625,4.15625zM23.125,54c5.08963,0 7.125,-2.60775 7.125,-5.1965c0,-1.7195 -1.368,-3.116 -3.05425,-3.116h-8.1415c-1.68625,0 -3.05425,1.3965 -3.05425,3.11838c0,2.5935 2.03538,5.19412 7.125,5.19412zM31.4375,52.8125h-0.05462c0.81462,-1.17752 1.2483,-2.57688 1.24212,-4.009c0,-1.14713 -0.3515,-2.22538 -0.9595,-3.116h3.16825c1.406,0 2.54362,1.197 2.54362,2.67188c0,2.21825 -1.69575,4.45313 -5.9375,4.45313zM32.03125,43.3125c1.6397,0 2.96875,-1.32905 2.96875,-2.96875c0,-1.6397 -1.32905,-2.96875 -2.96875,-2.96875c-1.6397,0 -2.96875,1.32905 -2.96875,2.96875c0,1.6397 1.32905,2.96875 2.96875,2.96875z" id="icon" fill="#ffffff"/></g></svg>