<svg version="1.1" xmlns="http://www.w3.org/2000/svg" xmlns:xlink="http://www.w3.org/1999/xlink" width="70" height="70" viewBox="0,0,70,70" odoo-icon:version="1.0" xmlns:odoo-icon="https://ivantodorovich.github.io/odoo-icon" odoo-icon:size="70" odoo-icon:icon-size="0.6" odoo-icon:icon-color="#FFFFFF" odoo-icon:icon-flat-shadow-angle="135" odoo-icon:background-color="#334984" odoo-icon:background-gradient="0.2" odoo-icon:box-radius="3.5" odoo-icon:odoo-version="14.0"><defs><linearGradient x1="70" y1="0" x2="0" y2="70" gradientUnits="userSpaceOnUse" id="color-1"><stop offset="0" stop-color="#667cb7"/><stop offset="1" stop-color="#334984"/></linearGradient></defs><g fill="none" fill-rule="nonzero" stroke="none" stroke-width="1" stroke-linecap="butt" stroke-linejoin="miter" stroke-miterlimit="10" stroke-dasharray="" stroke-dashoffset="0" font-family="none" font-weight="none" font-size="none" text-anchor="none" style="mix-blend-mode: normal"><path d="M3.5,70c-1.933,0 -3.5,-1.567 -3.5,-3.5v-63c0,-1.933 1.567,-3.5 3.5,-3.5h63c1.933,0 3.5,1.567 3.5,3.5v63c0,1.933 -1.567,3.5 -3.5,3.5z" id="box" fill="url(#color-1)"/><path d="M65,1h-61c-1.95033,0 -3.2667,0.63396 -3.9491,1.90189c0.28378,-1.64806 1.72001,-2.90189 3.4491,-2.90189h63c1.72965,0 3.16627,1.25466 3.44938,2.90352c-0.69803,-1.26902 -2.34782,-1.90352 -4.94938,-1.90352z" id="topBoxShadow" fill="#ffffff" opacity="0.383"/><path d="M4,69h61c2.66667,0 4.33333,-1 5,-3v0.5c0,1.933 -1.567,3.5 -3.5,3.5h-63c-1.933,0 -3.5,-1.567 -3.5,-3.5c0,-0.1611 0,-0.32777 0,-0.5c0.66667,2 2,3 4,3z" id="bottomBoxShadow" fill="#000000" opacity="0.383"/><path d="M28.99959,19.99979v-3.99979h11.99986v3.99979zM30.99973,43.49937l-2.19981,-4.40011c-0.16656,-0.36672 -0.41664,-0.64223 -0.74975,-0.82607c-0.33312,-0.18384 -0.68351,-0.27552 -1.05023,-0.27408h-9.89989c0.50015,-4.49995 2.44989,-8.29191 5.84969,-11.37587c3.3998,-3.08396 7.4164,-4.62523 12.04978,-4.62379c2.06686,0 4.04971,0.33312 5.95001,0.99983c1.89982,0.66671 3.68348,1.63342 5.35002,2.90013l2.79981,-2.79981l2.79981,2.79981l-2.79981,2.79981c1.06655,1.40014 1.91662,2.87517 2.54973,4.42603c0.63311,1.55086 1.04975,3.17516 1.24991,4.87386h-8.64998l-3.44972,-6.89992c-0.36672,-0.76655 -0.96671,-1.15007 -1.79998,-1.15007c-0.83327,0 -1.43326,0.38352 -1.79998,1.15007zM34.99952,57.99952c-4.63339,0 -8.64998,-1.54222 -12.04978,-4.62571c-3.3998,-3.08396 -5.35002,-6.87544 -5.84969,-11.37395h8.64998l3.4502,6.89992c0.36672,0.76655 0.96671,1.15007 1.79998,1.15007c0.83327,0 1.43326,-0.38352 1.79998,-1.15007l6.20009,-12.3997l2.19981,4.40011c0.16656,0.36672 0.41664,0.64223 0.75023,0.82607c0.33312,0.18384 0.68351,0.27552 1.04975,0.27408h9.89989c-0.50015,4.49995 -2.44989,8.29143 -5.84969,11.37395c-3.3998,3.08252 -7.4164,4.62475 -12.04978,4.62571z" id="shadow" fill="#000000" opacity="0.3"/><path d="M28.99959,14h11.99986v3.99979l-2.3613,2.3613c0.78363,0.15977 1.55406,0.37249 2.31138,0.63819c1.89982,0.66671 3.68348,1.63342 5.35002,2.90013l2.79981,-2.79981l2.79981,2.79981l-2.79981,2.79981c1.06655,1.40014 1.91662,2.87517 2.54973,4.42603c0.63311,1.55086 1.04975,3.17516 1.24991,4.87386l-4.00123,4.00123h4.00219c-0.4634,4.1693 -2.17119,7.73042 -5.12375,10.68297l-19.31669,19.31669h-24.95952c-1.933,0 -3.5,-1.567 -3.5,-3.5l0,-23.50041z" id="flatShadow" fill="#000000" opacity="0.324"/><path d="M28.99959,17.99979v-3.99979h11.99986v3.99979zM30.99973,41.49937l-2.19981,-4.40011c-0.16656,-0.36672 -0.41664,-0.64223 -0.74975,-0.82607c-0.33312,-0.18384 -0.68351,-0.27552 -1.05023,-0.27408h-9.89989c0.50015,-4.49995 2.44989,-8.29191 5.84969,-11.37587c3.3998,-3.08396 7.4164,-4.62523 12.04978,-4.62379c2.06686,0 4.04971,0.33312 5.95001,0.99983c1.89982,0.66671 3.68348,1.63342 5.35002,2.90013l2.79981,-2.79981l2.79981,2.79981l-2.79981,2.79981c1.06655,1.40014 1.91662,2.87517 2.54973,4.42603c0.63311,1.55086 1.04975,3.17516 1.24991,4.87386h-8.64998l-3.44972,-6.89992c-0.36672,-0.76655 -0.96671,-1.15007 -1.79998,-1.15007c-0.83327,0 -1.43326,0.38352 -1.79998,1.15007zM34.99952,55.99952c-4.63339,0 -8.64998,-1.54222 -12.04978,-4.62571c-3.3998,-3.08396 -5.35002,-6.87544 -5.84969,-11.37395h8.64998l3.4502,6.89992c0.36672,0.76655 0.96671,1.15007 1.79998,1.15007c0.83327,0 1.43326,-0.38352 1.79998,-1.15007l6.20009,-12.3997l2.19981,4.40011c0.16656,0.36672 0.41664,0.64223 0.75023,0.82607c0.33312,0.18384 0.68351,0.27552 1.04975,0.27408h9.89989c-0.50015,4.49995 -2.44989,8.29143 -5.84969,11.37395c-3.3998,3.08252 -7.4164,4.62475 -12.04978,4.62571z" id="icon" fill="#ffffff"/></g></svg>