<svg version="1.1" xmlns="http://www.w3.org/2000/svg" xmlns:xlink="http://www.w3.org/1999/xlink" width="70" height="70" viewBox="0,0,70,70" odoo-icon:version="1.0" xmlns:odoo-icon="https://ivantodorovich.github.io/odoo-icon" odoo-icon:size="70" odoo-icon:icon-size="0.56" odoo-icon:icon-color="#FFFFFF" odoo-icon:icon-flat-shadow-angle="135" odoo-icon:background-color="#5e57a6" odoo-icon:background-gradient="0.2" odoo-icon:box-radius="3.5" odoo-icon:odoo-version="14.0"><defs><linearGradient x1="70" y1="0" x2="0" y2="70" gradientUnits="userSpaceOnUse" id="color-1"><stop offset="0" stop-color="#918ad9"/><stop offset="1" stop-color="#5e57a6"/></linearGradient></defs><g fill="none" fill-rule="nonzero" stroke="none" stroke-width="1" stroke-linecap="butt" stroke-linejoin="miter" stroke-miterlimit="10" stroke-dasharray="" stroke-dashoffset="0" font-family="none" font-weight="none" font-size="none" text-anchor="none" style="mix-blend-mode: normal"><path d="M3.5,70c-1.933,0 -3.5,-1.567 -3.5,-3.5v-63c0,-1.933 1.567,-3.5 3.5,-3.5h63c1.933,0 3.5,1.567 3.5,3.5v63c0,1.933 -1.567,3.5 -3.5,3.5z" id="box" fill="url(#color-1)"/><path d="M65,1h-61c-1.95033,0 -3.2667,0.63396 -3.9491,1.90189c0.28378,-1.64806 1.72001,-2.90189 3.4491,-2.90189h63c1.72965,0 3.16627,1.25466 3.44938,2.90352c-0.69803,-1.26902 -2.34782,-1.90352 -4.94938,-1.90352z" id="topBoxShadow" fill="#ffffff" opacity="0.383"/><path d="M4,69h61c2.66667,0 4.33333,-1 5,-3v0.5c0,1.933 -1.567,3.5 -3.5,3.5h-63c-1.933,0 -3.5,-1.567 -3.5,-3.5c0,-0.1611 0,-0.32777 0,-0.5c0.66667,2 2,3 4,3z" id="bottomBoxShadow" fill="#000000" opacity="0.383"/><path d="M19.44534,56.99946c-1.2224,0 -2.2688,-0.43573 -3.14026,-1.30667c-0.87093,-0.87093 -1.30613,-1.9168 -1.30453,-3.1376v-27.77758c0,-0.55573 0.0928,-1.05547 0.27787,-1.49973c0.18507,-0.44427 0.42613,-0.8704 0.72213,-1.27787l3.11093,-3.7776c0.29653,-0.40747 0.66667,-0.71307 1.11093,-0.91787c0.44427,-0.20427 0.92587,-0.30613 1.44427,-0.30453h26.66665c0.5184,0 1,0.10133 1.44427,0.30453c0.44427,0.2032 0.81493,0.5088 1.11093,0.91787l3.11093,3.7776c0.29653,0.40747 0.53707,0.8336 0.72213,1.27787c0.18507,0.44427 0.27787,0.94453 0.27787,1.49973v27.77758c0,1.2224 -0.43573,2.2688 -1.30667,3.14026c-0.87093,0.87093 -1.9168,1.30613 -3.1376,1.30453zM20.33441,23.66615h29.33332l-1.88907,-2.2224h-25.55572zM19.44534,28.11041v24.44425h31.11092v-24.44425zM35.00107,50.3328l8.88906,-8.88906l-3.11093,-3.11093l-3.55573,3.55573v-9.33333h-4.44426v9.33333l-3.55573,-3.55573l-3.11093,3.11093zM19.44534,52.5552h31.11092z" id="shadow" fill="#000000" opacity="0.3"/><path d="M19.41493,15.86635c0.23462,-0.23462 0.50372,-0.42177 0.80749,-0.5618c0.44427,-0.20427 0.92587,-0.30613 1.44427,-0.30453h26.66665c0.5184,0 1,0.10133 1.44427,0.30453c0.44427,0.2032 0.81493,0.5088 1.11093,0.91787l3.11093,3.7776c0.29653,0.40747 0.53707,0.8336 0.72213,1.27787c0.18507,0.44427 0.27787,0.94453 0.27787,1.49973v27.77758c0,1.2224 -0.43573,2.2688 -1.30667,3.14026l-16.30454,16.30454h-33.88825c-1.933,0 -3.5,-1.567 -3.5,-3.5l0,-31.21872z" id="flatShadow" fill="#000000" opacity="0.324"/><path d="M19.44534,54.99946c-1.2224,0 -2.2688,-0.43573 -3.14026,-1.30667c-0.87093,-0.87093 -1.30613,-1.9168 -1.30453,-3.1376v-27.77758c0,-0.55573 0.0928,-1.05547 0.27787,-1.49973c0.18507,-0.44427 0.42613,-0.8704 0.72213,-1.27787l3.11093,-3.7776c0.29653,-0.40747 0.66667,-0.71307 1.11093,-0.91787c0.44427,-0.20427 0.92587,-0.30613 1.44427,-0.30453h26.66665c0.5184,0 1,0.10133 1.44427,0.30453c0.44427,0.2032 0.81493,0.5088 1.11093,0.91787l3.11093,3.7776c0.29653,0.40747 0.53707,0.8336 0.72213,1.27787c0.18507,0.44427 0.27787,0.94453 0.27787,1.49973v27.77758c0,1.2224 -0.43573,2.2688 -1.30667,3.14026c-0.87093,0.87093 -1.9168,1.30613 -3.1376,1.30453zM20.33441,21.66615h29.33332l-1.88907,-2.2224h-25.55572zM19.44534,26.11041v24.44425h31.11092v-24.44425zM35.00107,48.3328l8.88906,-8.88906l-3.11093,-3.11093l-3.55573,3.55573v-9.33333h-4.44426v9.33333l-3.55573,-3.55573l-3.11093,3.11093zM19.44534,50.5552h31.11092z" id="icon" fill="#ffffff"/></g></svg>