<svg version="1.1" xmlns="http://www.w3.org/2000/svg" xmlns:xlink="http://www.w3.org/1999/xlink" width="70" height="70" viewBox="0,0,70,70" odoo-icon:version="1.0" xmlns:odoo-icon="https://ivantodorovich.github.io/odoo-icon" odoo-icon:size="70" odoo-icon:icon-size="0.61" odoo-icon:icon-color="#FFFFFF" odoo-icon:icon-flat-shadow-angle="135" odoo-icon:background-color="#5e57a6" odoo-icon:background-gradient="0.2" odoo-icon:box-radius="3.5" odoo-icon:odoo-version="14.0"><defs><linearGradient x1="70" y1="0" x2="0" y2="70" gradientUnits="userSpaceOnUse" id="color-1"><stop offset="0" stop-color="#918ad9"/><stop offset="1" stop-color="#5e57a6"/></linearGradient></defs><g fill="none" fill-rule="nonzero" stroke="none" stroke-width="1" stroke-linecap="butt" stroke-linejoin="miter" stroke-miterlimit="10" stroke-dasharray="" stroke-dashoffset="0" font-family="none" font-weight="none" font-size="none" text-anchor="none" style="mix-blend-mode: normal"><path d="M3.5,70c-1.933,0 -3.5,-1.567 -3.5,-3.5v-63c0,-1.933 1.567,-3.5 3.5,-3.5h63c1.933,0 3.5,1.567 3.5,3.5v63c0,1.933 -1.567,3.5 -3.5,3.5z" id="box" fill="url(#color-1)"/><path d="M65,1h-61c-1.95033,0 -3.2667,0.63396 -3.9491,1.90189c0.28378,-1.64806 1.72001,-2.90189 3.4491,-2.90189h63c1.72965,0 3.16627,1.25466 3.44938,2.90352c-0.69803,-1.26902 -2.34782,-1.90352 -4.94938,-1.90352z" id="topBoxShadow" fill="#ffffff" opacity="0.383"/><path d="M4,69h61c2.66667,0 4.33333,-1 5,-3v0.5c0,1.933 -1.567,3.5 -3.5,3.5h-63c-1.933,0 -3.5,-1.567 -3.5,-3.5c0,-0.1611 0,-0.32777 0,-0.5c0.66667,2 2,3 4,3z" id="bottomBoxShadow" fill="#000000" opacity="0.383"/><path d="M19.23319,51.33319v1.43319h2.86681v-1.43319zM33.56681,51.33319v1.43319h2.86681v-1.43319zM22.1,51.33319v-1.43319h-2.86681v1.43319zM33.56681,49.9v1.43319h2.86681v-1.43319zM27.83319,44.16681c3.16652,0 5.73319,2.5671 5.73319,5.73319h2.86681c0,-4.74978 -3.85022,-8.6 -8.6,-8.6zM22.1,49.9c0,-3.16652 2.5671,-5.73319 5.73319,-5.73319v-2.86681c-4.74978,0 -8.6,3.85022 -8.6,8.6zM27.83319,26.96681c-3.16652,0 -5.73319,2.5671 -5.73319,5.73319h2.86681c0,-1.58326 1.28355,-2.86681 2.86681,-2.86681zM33.56681,32.7c0,-3.16652 -2.5671,-5.73319 -5.73319,-5.73319v2.86681c1.58326,0 2.86681,1.28355 2.86681,2.86681zM27.83319,38.43319c3.16652,0 5.73319,-2.5671 5.73319,-5.73319h-2.86681c0,1.58326 -1.28355,2.86681 -2.86681,2.86681zM27.83319,35.56681c-1.58326,0 -2.86681,-1.28355 -2.86681,-2.86681h-2.86681c0,3.16652 2.5671,5.73319 5.73319,5.73319zM17.8,24.1h34.4v-2.86681h-34.4zM53.63319,25.53319v22.93319h2.86681v-22.93319zM52.2,49.9h-34.4v2.86681h34.4zM16.36681,48.46681v-22.93319h-2.86681v22.93319zM17.8,49.9c-0.79163,0 -1.43319,-0.64156 -1.43319,-1.43319h-2.86681c0,2.37489 1.92511,4.3 4.3,4.3zM53.63319,48.46681c0,0.79163 -0.64156,1.43319 -1.43319,1.43319v2.86681c2.37489,0 4.3,-1.92511 4.3,-4.3zM52.2,24.1c0.79163,0 1.43319,0.64156 1.43319,1.43319h2.86681c0,-2.37489 -1.92511,-4.3 -4.3,-4.3zM17.8,21.23319c-2.37489,0 -4.3,1.92511 -4.3,4.3h2.86681c0,-0.79163 0.64156,-1.43319 1.43319,-1.43319zM39.3,32.7h8.6v-2.86681h-8.6zM39.3,41.3h8.6v-2.86681h-8.6z" id="shadow" fill="#000000" opacity="0.3"/><path d="M14.75942,20.49261c0.77814,-0.77814 1.85314,-1.25942 3.04058,-1.25942h34.4c2.37489,0 4.3,1.92511 4.3,4.3v22.93319l-0.00043,0.00043h0.00043l-53.79747,53.79747v-2.86681l1.43362,-1.43362h-0.00043l0,-12.89957l-17.19957,17.19957h-2.86681v-2.86638h-0.00043c0,-2.32499 -1.38409,-4.32697 -3.37343,-5.22657l-8.09295,8.09295h-2.86681l0,-1.43276l-1.43319,1.43319v-2.86681l1.57755,-1.57755c0.32302,-1.74245 1.17132,-3.30046 2.37447,-4.50362l5.42297,-5.42297c-0.21361,-0.0244 -0.42365,-0.06054 -0.62947,-0.10776l-10.17871,10.17871l-2.86681,0l11.05938,-11.05938c-1.48678,-1.0358 -2.45981,-2.75793 -2.45981,-4.70743l0.00043,-0.00043c0.00012,-1.58293 0.64181,-3.0161 1.67926,-4.05355l4.54602,-4.54602h-10.52527l-1.43319,1.43319h-2.86638l4.29957,-4.29957v-0.00043l31.69747,-31.69747l0,-1.78117z" id="flatShadow" fill="#000000" opacity="0.324"/><path d="M19.23319,49.33319v1.43319h2.86681v-1.43319zM33.56681,49.33319v1.43319h2.86681v-1.43319zM22.1,49.33319v-1.43319h-2.86681v1.43319zM33.56681,47.9v1.43319h2.86681v-1.43319zM27.83319,42.16681c3.16652,0 5.73319,2.5671 5.73319,5.73319h2.86681c0,-4.74978 -3.85022,-8.6 -8.6,-8.6zM22.1,47.9c0,-3.16652 2.5671,-5.73319 5.73319,-5.73319v-2.86681c-4.74978,0 -8.6,3.85022 -8.6,8.6zM27.83319,24.96681c-3.16652,0 -5.73319,2.5671 -5.73319,5.73319h2.86681c0,-1.58326 1.28355,-2.86681 2.86681,-2.86681zM33.56681,30.7c0,-3.16652 -2.5671,-5.73319 -5.73319,-5.73319v2.86681c1.58326,0 2.86681,1.28355 2.86681,2.86681zM27.83319,36.43319c3.16652,0 5.73319,-2.5671 5.73319,-5.73319h-2.86681c0,1.58326 -1.28355,2.86681 -2.86681,2.86681zM27.83319,33.56681c-1.58326,0 -2.86681,-1.28355 -2.86681,-2.86681h-2.86681c0,3.16652 2.5671,5.73319 5.73319,5.73319zM17.8,22.1h34.4v-2.86681h-34.4zM53.63319,23.53319v22.93319h2.86681v-22.93319zM52.2,47.9h-34.4v2.86681h34.4zM16.36681,46.46681v-22.93319h-2.86681v22.93319zM17.8,47.9c-0.79163,0 -1.43319,-0.64156 -1.43319,-1.43319h-2.86681c0,2.37489 1.92511,4.3 4.3,4.3zM53.63319,46.46681c0,0.79163 -0.64156,1.43319 -1.43319,1.43319v2.86681c2.37489,0 4.3,-1.92511 4.3,-4.3zM52.2,22.1c0.79163,0 1.43319,0.64156 1.43319,1.43319h2.86681c0,-2.37489 -1.92511,-4.3 -4.3,-4.3zM17.8,19.23319c-2.37489,0 -4.3,1.92511 -4.3,4.3h2.86681c0,-0.79163 0.64156,-1.43319 1.43319,-1.43319zM39.3,30.7h8.6v-2.86681h-8.6zM39.3,39.3h8.6v-2.86681h-8.6z" id="icon" fill="#ffffff"/></g></svg>