<svg version="1.1" xmlns="http://www.w3.org/2000/svg" xmlns:xlink="http://www.w3.org/1999/xlink" width="70" height="70" viewBox="0,0,70,70" odoo-icon:version="1.0" xmlns:odoo-icon="https://ivantodorovich.github.io/odoo-icon" odoo-icon:size="70" odoo-icon:icon-size="0.67" odoo-icon:icon-color="#FFFFFF" odoo-icon:icon-flat-shadow-angle="135" odoo-icon:background-color="#bfb422" odoo-icon:background-gradient="0.2" odoo-icon:box-radius="3.5" odoo-icon:odoo-version="14.0"><defs><linearGradient x1="70" y1="0" x2="0" y2="70" gradientUnits="userSpaceOnUse" id="color-1"><stop offset="0" stop-color="#f2e755"/><stop offset="1" stop-color="#bfb422"/></linearGradient></defs><g fill="none" fill-rule="nonzero" stroke="none" stroke-width="1" stroke-linecap="butt" stroke-linejoin="miter" stroke-miterlimit="10" stroke-dasharray="" stroke-dashoffset="0" font-family="none" font-weight="none" font-size="none" text-anchor="none" style="mix-blend-mode: normal"><path d="M3.5,70c-1.933,0 -3.5,-1.567 -3.5,-3.5v-63c0,-1.933 1.567,-3.5 3.5,-3.5h63c1.933,0 3.5,1.567 3.5,3.5v63c0,1.933 -1.567,3.5 -3.5,3.5z" id="box" fill="url(#color-1)"/><path d="M65,1h-61c-1.95033,0 -3.2667,0.63396 -3.9491,1.90189c0.28378,-1.64806 1.72001,-2.90189 3.4491,-2.90189h63c1.72965,0 3.16627,1.25466 3.44938,2.90352c-0.69803,-1.26902 -2.34782,-1.90352 -4.94938,-1.90352z" id="topBoxShadow" fill="#ffffff" opacity="0.383"/><path d="M4,69h61c2.66667,0 4.33333,-1 5,-3v0.5c0,1.933 -1.567,3.5 -3.5,3.5h-63c-1.933,0 -3.5,-1.567 -3.5,-3.5c0,-0.1611 0,-0.32777 0,-0.5c0.66667,2 2,3 4,3z" id="bottomBoxShadow" fill="#000000" opacity="0.383"/><path d="M50.66656,50.05583h-19.58359l5.22208,-5.22208h14.36151M19.33281,50.05583v-6.52807l20.57562,-20.49729c0.49633,-0.52202 1.33168,-0.52202 1.8537,0l4.59541,4.59541c0.52202,0.52202 0.52202,1.33168 0,1.8537l-20.57562,20.57562M53.27792,13.5h-36.55583c-2.89837,0 -5.22208,2.32371 -5.22208,5.22208v36.55583c0,2.88396 2.33812,5.22208 5.22208,5.22208h36.55583c2.88396,0 5.22208,-2.33812 5.22208,-5.22208v-36.55583c0,-2.88396 -2.33812,-5.22208 -5.22208,-5.22208z" id="shadow" fill="#000000" opacity="0.3"/><path d="M13.02415,13.02415c0.94322,-0.94322 2.24874,-1.52415 3.69793,-1.52415h36.55583c2.88396,0 5.22208,2.33812 5.22208,5.22208v36.55583l-16.72208,16.72208h-38.27792c-1.933,0 -3.5,-1.567 -3.5,-3.5l0,-40.4517z" id="flatShadow" fill="#000000" opacity="0.324"/><path d="M50.66656,48.05583h-19.58359l5.22208,-5.22208h14.36151M19.33281,48.05583v-6.52807l20.57562,-20.49729c0.49633,-0.52202 1.33168,-0.52202 1.8537,0l4.59541,4.59541c0.52202,0.52202 0.52202,1.33168 0,1.8537l-20.57562,20.57562M53.27792,11.5h-36.55583c-2.89837,0 -5.22208,2.32371 -5.22208,5.22208v36.55583c0,2.88396 2.33812,5.22208 5.22208,5.22208h36.55583c2.88396,0 5.22208,-2.33812 5.22208,-5.22208v-36.55583c0,-2.88396 -2.33812,-5.22208 -5.22208,-5.22208z" id="icon" fill="#ffffff"/></g></svg>