<svg version="1.1" xmlns="http://www.w3.org/2000/svg" xmlns:xlink="http://www.w3.org/1999/xlink" width="70" height="70" viewBox="0,0,70,70" odoo-icon:version="1.0" xmlns:odoo-icon="https://ivantodorovich.github.io/odoo-icon" odoo-icon:size="70" odoo-icon:icon-size="0.6" odoo-icon:icon-color="#FFFFFF" odoo-icon:icon-flat-shadow-angle="135" odoo-icon:background-color="#00897b" odoo-icon:background-gradient="0.2" odoo-icon:box-radius="3.5" odoo-icon:odoo-version="14.0"><defs><linearGradient x1="70" y1="0" x2="0" y2="70" gradientUnits="userSpaceOnUse" id="color-1"><stop offset="0" stop-color="#33bcae"/><stop offset="1" stop-color="#00897b"/></linearGradient></defs><g fill="none" fill-rule="nonzero" stroke="none" stroke-width="1" stroke-linecap="butt" stroke-linejoin="miter" stroke-miterlimit="10" stroke-dasharray="" stroke-dashoffset="0" font-family="none" font-weight="none" font-size="none" text-anchor="none" style="mix-blend-mode: normal"><path d="M3.5,70c-1.933,0 -3.5,-1.567 -3.5,-3.5v-63c0,-1.933 1.567,-3.5 3.5,-3.5h63c1.933,0 3.5,1.567 3.5,3.5v63c0,1.933 -1.567,3.5 -3.5,3.5z" id="box" fill="url(#color-1)"/><path d="M65,1h-61c-1.95033,0 -3.2667,0.63396 -3.9491,1.90189c0.28378,-1.64806 1.72001,-2.90189 3.4491,-2.90189h63c1.72965,0 3.16627,1.25466 3.44938,2.90352c-0.69803,-1.26902 -2.34782,-1.90352 -4.94938,-1.90352z" id="topBoxShadow" fill="#ffffff" opacity="0.383"/><path d="M4,69h61c2.66667,0 4.33333,-1 5,-3v0.5c0,1.933 -1.567,3.5 -3.5,3.5h-63c-1.933,0 -3.5,-1.567 -3.5,-3.5c0,-0.1611 0,-0.32777 0,-0.5c0.66667,2 2,3 4,3z" id="bottomBoxShadow" fill="#000000" opacity="0.383"/><path d="M47.19906,39.60018c-0.26711,-0.63209 -0.58295,-1.24233 -0.94498,-1.82528v-10.54891c0.00672,-2.97858 -1.17765,-5.83578 -3.28979,-7.93615c-2.09954,-2.11171 -4.95631,-3.29651 -7.93447,-3.28979h-0.00336c-2.97858,-0.0084 -5.83662,1.17513 -7.93783,3.28643c-2.11297,2.1008 -3.29777,4.96009 -3.28979,7.93951v1.53465h4.49726v-1.53465c0,-1.79546 0.70013,-3.48593 1.97228,-4.75976c1.25997,-1.26543 2.97396,-1.97438 4.75976,-1.9685c3.71482,0.00462 6.72532,3.01386 6.73204,6.72868v6.13901c-2.04452,-1.21713 -4.38093,-1.85678 -6.76018,-1.85132c-3.51238,-0.00504 -6.88197,1.39059 -9.36244,3.87778c-2.48719,2.48005 -3.88282,5.84963 -3.87778,9.36244c-0.00546,3.51238 1.38933,6.88197 3.8761,9.36244c2.47963,2.48971 5.85005,3.88744 9.36412,3.88324c3.51238,0.00504 6.88197,-1.39059 9.36244,-3.87778c2.48719,-2.48005 3.88282,-5.84963 3.87778,-9.36244c0,-1.78664 -0.34985,-3.52078 -1.04116,-5.15539zM35,53.4981c-4.82654,-0.00588 -8.73791,-3.91642 -8.74463,-8.74295c0.00588,-4.82696 3.91768,-8.73875 8.74463,-8.74463c4.82738,0.00462 8.73959,3.91726 8.74463,8.74463c-0.00588,4.82696 -3.91768,8.73791 -8.74463,8.74295zM38.75388,44.79589c0,2.04914 -1.66106,3.70978 -3.70978,3.70978c-2.04914,0 -3.70978,-1.66106 -3.70978,-3.70978c0,-2.04914 1.66106,-3.70978 3.70978,-3.70978c2.04914,0 3.70978,1.66106 3.70978,3.70978z" id="shadow" fill="#000000" opacity="0.3"/><path d="M27.06577,17.30927c0.00427,-0.00427 0.00853,-0.00853 0.01281,-0.01279l0.02894,-0.02894c2.09944,-2.09944 4.94928,-3.27587 7.91894,-3.2675h0.00336c2.97816,-0.00672 5.83494,1.17807 7.93447,3.28979c2.11213,2.10038 3.29651,4.95757 3.28979,7.93615v10.54891c0.36203,0.58295 0.67787,1.19319 0.94498,1.82528v0.0042c0.69131,1.63461 1.04116,3.36875 1.04116,5.15539l-13.24022,13.24022c3.50047,0.00502 6.8591,-1.38113 9.33716,-3.85249l0.02528,-0.02528c-0.00421,0.00422 -0.00842,0.00844 -0.01263,0.01265l-17.86514,17.86514h-22.98467c-1.933,0 -3.5,-1.567 -3.5,-3.5l0,-22.12496z" id="flatShadow" fill="#000000" opacity="0.324"/><path d="M47.19906,37.60018c-0.26711,-0.63209 -0.58295,-1.24233 -0.94498,-1.82528v-10.54891c0.00672,-2.97858 -1.17765,-5.83578 -3.28979,-7.93615c-2.09954,-2.11171 -4.95631,-3.29651 -7.93447,-3.28979h-0.00336c-2.97858,-0.0084 -5.83662,1.17513 -7.93783,3.28643c-2.11297,2.1008 -3.29777,4.96009 -3.28979,7.93951v1.53465h4.49726v-1.53465c0,-1.79546 0.70013,-3.48593 1.97228,-4.75976c1.25997,-1.26543 2.97396,-1.97438 4.75976,-1.9685c3.71482,0.00462 6.72532,3.01386 6.73204,6.72868v6.13901c-2.04452,-1.21713 -4.38093,-1.85678 -6.76018,-1.85132c-3.51238,-0.00504 -6.88197,1.39059 -9.36244,3.87778c-2.48719,2.48005 -3.88282,5.84963 -3.87778,9.36244c-0.00546,3.51238 1.38933,6.88197 3.8761,9.36244c2.47963,2.48971 5.85005,3.88744 9.36412,3.88324c3.51238,0.00504 6.88197,-1.39059 9.36244,-3.87778c2.48719,-2.48005 3.88282,-5.84963 3.87778,-9.36244c0,-1.78664 -0.34985,-3.52078 -1.04116,-5.15539zM35,51.4981c-4.82654,-0.00588 -8.73791,-3.91642 -8.74463,-8.74295c0.00588,-4.82696 3.91768,-8.73875 8.74463,-8.74463c4.82738,0.00462 8.73959,3.91726 8.74463,8.74463c-0.00588,4.82696 -3.91768,8.73791 -8.74463,8.74295zM38.75388,42.79589c0,2.04914 -1.66106,3.70978 -3.70978,3.70978c-2.04914,0 -3.70978,-1.66106 -3.70978,-3.70978c0,-2.04914 1.66106,-3.70978 3.70978,-3.70978c2.04914,0 3.70978,1.66106 3.70978,3.70978z" id="icon" fill="#ffffff"/></g></svg>