<svg version="1.1" xmlns="http://www.w3.org/2000/svg" xmlns:xlink="http://www.w3.org/1999/xlink" width="70" height="70" viewBox="0,0,70,70"><!-- Generated with https://ivantodorovich.github.io/odoo-icon --><defs><linearGradient x1="70" y1="0" x2="0" y2="70" gradientUnits="userSpaceOnUse" id="color-1"><stop offset="0" stop-color="#33dff4"/><stop offset="1" stop-color="#00acc1"/></linearGradient></defs><g fill="none" fill-rule="nonzero" stroke="none" stroke-width="1" stroke-linecap="butt" stroke-linejoin="miter" stroke-miterlimit="10" stroke-dasharray="" stroke-dashoffset="0" font-family="none" font-weight="none" font-size="none" text-anchor="none" style="mix-blend-mode: normal"><path d="M3.5,70c-1.933,0 -3.5,-1.567 -3.5,-3.5v-63c0,-1.933 1.567,-3.5 3.5,-3.5h63c1.933,0 3.5,1.567 3.5,3.5v63c0,1.933 -1.567,3.5 -3.5,3.5z" id="box" fill="url(#color-1)"/><path d="M65,1h-61c-1.95033,0 -3.2667,0.63396 -3.9491,1.90189c0.28378,-1.64806 1.72001,-2.90189 3.4491,-2.90189h63c1.72965,0 3.16627,1.25466 3.44938,2.90352c-0.69803,-1.26902 -2.34782,-1.90352 -4.94938,-1.90352z" id="topBoxShadow" fill="#ffffff" opacity="0.383"/><path d="M4,69h61c2.66667,0 4.33333,-1 5,-3v0.5c0,1.933 -1.567,3.5 -3.5,3.5h-63c-1.933,0 -3.5,-1.567 -3.5,-3.5c0,-0.1611 0,-0.32777 0,-0.5c0.66667,2 2,3 4,3z" id="bottomBoxShadow" fill="#000000" opacity="0.383"/><path d="M20.22217,53.88917v-8.44484h-4.22217v-4.22217h4.22217v-4.22217h-4.22217v-4.22217h4.22217v-6.3335l6.3335,-6.3335l4.22217,4.22217l4.27486,-4.22217l4.22217,4.22217l4.22217,-4.22217l6.3335,6.3335v6.3335h4.16947v4.22217h-4.16947v4.22217h4.16947v4.22217h-4.16947v8.44484zM24.44484,32.77783h4.22217v-4.59154l-2.11134,-2.11134l-2.11134,2.11134zM32.88917,32.77783h4.22217v-4.59154l-2.11134,-2.11134l-2.11134,2.11134zM41.3867,32.77783h4.16947v-4.59154l-2.11134,-2.11134l-2.05864,2.05813zM24.44484,41.22217h4.22217v-4.22217h-4.22217zM32.88917,41.22217h4.22217v-4.22217h-4.22217zM41.3867,41.22217h4.16947v-4.22217h-4.16947zM24.44484,49.667h4.22217v-4.22217h-4.22217zM32.88917,49.667h4.22217v-4.22217h-4.22217zM41.3867,49.667h4.16947v-4.22217h-4.16947z" id="shadow" fill="#000000" opacity="0.3"/><path d="M26.55567,18.11083l4.22217,4.22217l4.27486,-4.22217l4.22217,4.22217l4.22217,-4.22217l6.3335,6.3335v6.3335h4.16947v4.22217l-4.16947,4.16947v0.05269h4.16947v4.22217l-4.16947,4.16947v4.27537l-18.11083,18.11083h-28.2197c-1.933,0 -3.5,-1.567 -3.5,-3.5l0,-21.8335z" id="flatShadow" fill="#000000" opacity="0.324"/><path d="M20.22217,51.88917v-8.44484h-4.22217v-4.22217h4.22217v-4.22217h-4.22217v-4.22217h4.22217v-6.3335l6.3335,-6.3335l4.22217,4.22217l4.27486,-4.22217l4.22217,4.22217l4.22217,-4.22217l6.3335,6.3335v6.3335h4.16947v4.22217h-4.16947v4.22217h4.16947v4.22217h-4.16947v8.44484zM24.44484,30.77783h4.22217v-4.59154l-2.11134,-2.11134l-2.11134,2.11134zM32.88917,30.77783h4.22217v-4.59154l-2.11134,-2.11134l-2.11134,2.11134zM41.3867,30.77783h4.16947v-4.59154l-2.11134,-2.11134l-2.05864,2.05813zM24.44484,39.22217h4.22217v-4.22217h-4.22217zM32.88917,39.22217h4.22217v-4.22217h-4.22217zM41.3867,39.22217h4.16947v-4.22217h-4.16947zM24.44484,47.667h4.22217v-4.22217h-4.22217zM32.88917,47.667h4.22217v-4.22217h-4.22217zM41.3867,47.667h4.16947v-4.22217h-4.16947z" id="icon" fill="#ffffff"/></g></svg>