<svg version="1.1" xmlns="http://www.w3.org/2000/svg" xmlns:xlink="http://www.w3.org/1999/xlink" width="70" height="70" viewBox="0,0,70,70" odoo-icon:version="1.0" xmlns:odoo-icon="https://ivantodorovich.github.io/odoo-icon" odoo-icon:size="70" odoo-icon:icon-size="0.55" odoo-icon:icon-color="#FFFFFF" odoo-icon:icon-flat-shadow-angle="135" odoo-icon:background-color="#cb6482" odoo-icon:background-gradient="0.2" odoo-icon:box-radius="3.5" odoo-icon:odoo-version="14.0"><defs><linearGradient x1="70" y1="0" x2="0" y2="70" gradientUnits="userSpaceOnUse" id="color-1"><stop offset="0" stop-color="#fe97b5"/><stop offset="1" stop-color="#cb6482"/></linearGradient></defs><g fill="none" fill-rule="nonzero" stroke="none" stroke-width="1" stroke-linecap="butt" stroke-linejoin="miter" stroke-miterlimit="10" stroke-dasharray="" stroke-dashoffset="0" font-family="none" font-weight="none" font-size="none" text-anchor="none" style="mix-blend-mode: normal"><path d="M3.5,70c-1.933,0 -3.5,-1.567 -3.5,-3.5v-63c0,-1.933 1.567,-3.5 3.5,-3.5h63c1.933,0 3.5,1.567 3.5,3.5v63c0,1.933 -1.567,3.5 -3.5,3.5z" id="box" fill="url(#color-1)"/><path d="M65,1h-61c-1.95033,0 -3.2667,0.63396 -3.9491,1.90189c0.28378,-1.64806 1.72001,-2.90189 3.4491,-2.90189h63c1.72965,0 3.16627,1.25466 3.44938,2.90352c-0.69803,-1.26902 -2.34782,-1.90352 -4.94938,-1.90352z" id="topBoxShadow" fill="#ffffff" opacity="0.383"/><path d="M4,69h61c2.66667,0 4.33333,-1 5,-3v0.5c0,1.933 -1.567,3.5 -3.5,3.5h-63c-1.933,0 -3.5,-1.567 -3.5,-3.5c0,-0.1611 0,-0.32777 0,-0.5c0.66667,2 2,3 4,3z" id="bottomBoxShadow" fill="#000000" opacity="0.383"/><path d="M18.81473,20.61979h-2.92485c-0.21466,0 -0.38988,0.17572 -0.38988,0.38988v31.98066c0,0.21466 0.17572,0.38988 0.38988,0.38988h2.92485c0.21466,0 0.38988,-0.17572 0.38988,-0.38988v-31.98016c0,-0.21466 -0.17572,-0.38988 -0.38988,-0.38988zM54.11012,20.61979h-2.92485c-0.21466,0 -0.38988,0.17572 -0.38988,0.38988v31.98066c0,0.21466 0.17572,0.38988 0.38988,0.38988h2.92485c0.21466,0 0.38988,-0.17572 0.38988,-0.38988v-31.98016c0,-0.21466 -0.17572,-0.38988 -0.38988,-0.38988zM48.32332,36.62435l-6.22061,-4.9092c-0.10633,-0.08337 -0.2506,-0.09884 -0.37241,-0.03994c-0.12131,0.05941 -0.19818,0.18271 -0.19818,0.3175v3.25183h-13.06523v-3.06163c0,-0.29253 -0.34146,-0.45827 -0.57059,-0.27806l-6.22061,4.91419c-0.08536,0.0659 -0.13528,0.16773 -0.13528,0.27556c0,0.10783 0.04992,0.20967 0.13528,0.27556l6.21562,4.91419c0.22914,0.18021 0.57059,0.01947 0.57059,-0.27806v-3.25183h13.06523v3.06163c0,0.29253 0.34146,0.45827 0.57059,0.27806l6.21562,-4.91419c0.18521,-0.14128 0.18521,-0.41434 0.00998,-0.55562z" id="shadow" fill="#000000" opacity="0.3"/><path d="M15.61457,18.7343c0.07063,-0.07063 0.16805,-0.11451 0.27531,-0.11451h2.92485v0.0005c0.21416,0 0.38988,0.17522 0.38988,0.38988l0,18.27592l2.43769,-2.43769c0.01042,-0.01042 0.02156,-0.02023 0.03338,-0.02935l6.22061,-4.91419c0.22914,-0.18021 0.57059,-0.01448 0.57059,0.27806v3.06163l7.93283,0l14.51024,-14.51024c0.07063,-0.07063 0.16805,-0.11451 0.27531,-0.11451h2.92485v0.0005c0.21416,0 0.38988,0.17522 0.38988,0.38988v31.98016c0,0.10714 -0.04386,0.20466 -0.11457,0.27537l-18.7343,18.7343h-32.15114c-1.933,0 -3.5,-1.567 -3.5,-3.5l0,-32.15114z" id="flatShadow" fill="#000000" opacity="0.324"/><path d="M18.81473,18.61979h-2.92485c-0.21466,0 -0.38988,0.17572 -0.38988,0.38988v31.98066c0,0.21466 0.17572,0.38988 0.38988,0.38988h2.92485c0.21466,0 0.38988,-0.17572 0.38988,-0.38988v-31.98016c0,-0.21466 -0.17572,-0.38988 -0.38988,-0.38988zM54.11012,18.61979h-2.92485c-0.21466,0 -0.38988,0.17572 -0.38988,0.38988v31.98066c0,0.21466 0.17572,0.38988 0.38988,0.38988h2.92485c0.21466,0 0.38988,-0.17572 0.38988,-0.38988v-31.98016c0,-0.21466 -0.17572,-0.38988 -0.38988,-0.38988zM48.32332,34.62435l-6.22061,-4.9092c-0.10633,-0.08337 -0.2506,-0.09884 -0.37241,-0.03994c-0.12131,0.05941 -0.19818,0.18271 -0.19818,0.3175v3.25183h-13.06523v-3.06163c0,-0.29253 -0.34146,-0.45827 -0.57059,-0.27806l-6.22061,4.91419c-0.08536,0.0659 -0.13528,0.16773 -0.13528,0.27556c0,0.10783 0.04992,0.20967 0.13528,0.27556l6.21562,4.91419c0.22914,0.18021 0.57059,0.01947 0.57059,-0.27806v-3.25183h13.06523v3.06163c0,0.29253 0.34146,0.45827 0.57059,0.27806l6.21562,-4.91419c0.18521,-0.14128 0.18521,-0.41434 0.00998,-0.55562z" id="icon" fill="#ffffff"/></g></svg>