<svg version="1.1" xmlns="http://www.w3.org/2000/svg" xmlns:xlink="http://www.w3.org/1999/xlink" width="70" height="70" viewBox="0,0,70,70" odoo-icon:version="1.0" xmlns:odoo-icon="https://ivantodorovich.github.io/odoo-icon" odoo-icon:size="70" odoo-icon:icon-size="0.6" odoo-icon:icon-color="#FFFFFF" odoo-icon:icon-flat-shadow-angle="135" odoo-icon:background-color="#00897b" odoo-icon:background-gradient="0.2" odoo-icon:box-radius="3.5" odoo-icon:odoo-version="14.0"><defs><linearGradient x1="70" y1="0" x2="0" y2="70" gradientUnits="userSpaceOnUse" id="color-1"><stop offset="0" stop-color="#33bcae"/><stop offset="1" stop-color="#00897b"/></linearGradient></defs><g fill="none" fill-rule="nonzero" stroke="none" stroke-width="1" stroke-linecap="butt" stroke-linejoin="miter" stroke-miterlimit="10" stroke-dasharray="" stroke-dashoffset="0" font-family="none" font-weight="none" font-size="none" text-anchor="none" style="mix-blend-mode: normal"><path d="M3.5,70c-1.933,0 -3.5,-1.567 -3.5,-3.5v-63c0,-1.933 1.567,-3.5 3.5,-3.5h63c1.933,0 3.5,1.567 3.5,3.5v63c0,1.933 -1.567,3.5 -3.5,3.5z" id="box" fill="url(#color-1)"/><path d="M65,1h-61c-1.95033,0 -3.2667,0.63396 -3.9491,1.90189c0.28378,-1.64806 1.72001,-2.90189 3.4491,-2.90189h63c1.72965,0 3.16627,1.25466 3.44938,2.90352c-0.69803,-1.26902 -2.34782,-1.90352 -4.94938,-1.90352z" id="topBoxShadow" fill="#ffffff" opacity="0.383"/><path d="M4,69h61c2.66667,0 4.33333,-1 5,-3v0.5c0,1.933 -1.567,3.5 -3.5,3.5h-63c-1.933,0 -3.5,-1.567 -3.5,-3.5c0,-0.1611 0,-0.32777 0,-0.5c0.66667,2 2,3 4,3z" id="bottomBoxShadow" fill="#000000" opacity="0.383"/><path d="M40.25,23.875h-10.5l-3.88836,-5.83254c-0.58254,-0.8778 0.04116,-2.04246 1.09116,-2.04246h16.0944c1.05,0 1.67328,1.16466 1.09116,2.04246zM29.75,26.5h10.5c0.31164,0.20496 0.66444,0.4347 1.06638,0.68922c4.65108,2.9778 14.68362,9.39246 14.68362,22.93578c0,4.34784 -3.52716,7.875 -7.875,7.875h-26.25c-4.34784,0 -7.875,-3.52716 -7.875,-7.875c0,-13.54332 10.03254,-19.9584 14.68362,-22.93578c0.39396,-0.2541 0.75474,-0.48384 1.06638,-0.68922zM36.64052,33.71896c0,-0.90216 -0.73836,-1.64052 -1.64052,-1.64052c-0.90216,0 -1.64052,0.73836 -1.64052,1.64052v1.14828c-0.62328,0.13944 -1.24698,0.36078 -1.82112,0.6972c-1.1403,0.68082 -2.12478,1.87026 -2.11638,3.60108c0.0084,1.6653 0.98448,2.7153 2.02608,3.33858c0.90216,0.54138 2.02608,0.88578 2.92026,1.14828l0.13944,0.04116c1.03362,0.31164 1.78836,0.55776 2.29698,0.8778c0.41832,0.2625 0.47586,0.4431 0.48384,0.67284c0.0084,0.41034 -0.14784,0.65646 -0.48384,0.86142c-0.41034,0.2541 -1.0584,0.41034 -1.7556,0.38556c-0.91056,-0.03276 -1.76358,-0.32004 -2.8791,-0.6972c-0.18858,-0.06552 -0.38556,-0.13146 -0.59052,-0.19698c-0.86142,-0.28728 -1.78836,0.1806 -2.07522,1.03362c-0.28728,0.85302 0.1806,1.78836 1.03362,2.07522c0.15582,0.04914 0.32802,0.10668 0.50022,0.1722c0.68082,0.23772 1.46832,0.50862 2.31336,0.68922v1.21422c0,0.90216 0.73836,1.64052 1.64052,1.64052c0.90216,0 1.64052,-0.73836 1.64052,-1.64052v-1.1319c0.65646,-0.13944 1.3125,-0.36918 1.90302,-0.73836c1.17306,-0.72996 2.05884,-1.97694 2.03448,-3.69138c-0.02478,-1.6653 -0.9597,-2.73966 -2.0181,-3.4125c-0.94332,-0.59052 -2.12478,-0.95172 -3.04332,-1.2306l-0.05754,-0.01638c-1.05,-0.32004 -1.79634,-0.54978 -2.32134,-0.86142c-0.42672,-0.2541 -0.4347,-0.40194 -0.4347,-0.54978c0,-0.30366 0.11466,-0.5334 0.50862,-0.76272c0.4431,-0.2625 1.11552,-0.41832 1.76358,-0.41034c0.7875,0.0084 1.6569,0.1806 2.55948,0.42672c0.8778,0.22974 1.77198,-0.28728 2.0097,-1.16466c0.23772,-0.8778 -0.28728,-1.77198 -1.16466,-2.0097c-0.5334,-0.13944 -1.12392,-0.27888 -1.73082,-0.38556z" id="shadow" fill="#000000" opacity="0.3"/><path d="M26.02698,14.37901c0.23068,-0.23068 0.5511,-0.37901 0.92582,-0.37901h16.0944c1.05,0 1.67328,1.16466 1.09116,2.04246l-3.88836,5.83254l-2.625,2.625h2.625c0.31164,0.20496 0.66444,0.4347 1.06638,0.68922c4.65108,2.9778 14.68362,9.39246 14.68362,22.93578c0,2.17392 -0.88179,4.14267 -2.30706,5.56794l-16.30706,16.30706h-33.88588c-1.933,0 -3.5,-1.567 -3.5,-3.5l0,-26.09401z" id="flatShadow" fill="#000000" opacity="0.324"/><path d="M40.25,21.875h-10.5l-3.88836,-5.83254c-0.58254,-0.8778 0.04116,-2.04246 1.09116,-2.04246h16.0944c1.05,0 1.67328,1.16466 1.09116,2.04246zM29.75,24.5h10.5c0.31164,0.20496 0.66444,0.4347 1.06638,0.68922c4.65108,2.9778 14.68362,9.39246 14.68362,22.93578c0,4.34784 -3.52716,7.875 -7.875,7.875h-26.25c-4.34784,0 -7.875,-3.52716 -7.875,-7.875c0,-13.54332 10.03254,-19.9584 14.68362,-22.93578c0.39396,-0.2541 0.75474,-0.48384 1.06638,-0.68922zM36.64052,31.71896c0,-0.90216 -0.73836,-1.64052 -1.64052,-1.64052c-0.90216,0 -1.64052,0.73836 -1.64052,1.64052v1.14828c-0.62328,0.13944 -1.24698,0.36078 -1.82112,0.6972c-1.1403,0.68082 -2.12478,1.87026 -2.11638,3.60108c0.0084,1.6653 0.98448,2.7153 2.02608,3.33858c0.90216,0.54138 2.02608,0.88578 2.92026,1.14828l0.13944,0.04116c1.03362,0.31164 1.78836,0.55776 2.29698,0.8778c0.41832,0.2625 0.47586,0.4431 0.48384,0.67284c0.0084,0.41034 -0.14784,0.65646 -0.48384,0.86142c-0.41034,0.2541 -1.0584,0.41034 -1.7556,0.38556c-0.91056,-0.03276 -1.76358,-0.32004 -2.8791,-0.6972c-0.18858,-0.06552 -0.38556,-0.13146 -0.59052,-0.19698c-0.86142,-0.28728 -1.78836,0.1806 -2.07522,1.03362c-0.28728,0.85302 0.1806,1.78836 1.03362,2.07522c0.15582,0.04914 0.32802,0.10668 0.50022,0.1722c0.68082,0.23772 1.46832,0.50862 2.31336,0.68922v1.21422c0,0.90216 0.73836,1.64052 1.64052,1.64052c0.90216,0 1.64052,-0.73836 1.64052,-1.64052v-1.1319c0.65646,-0.13944 1.3125,-0.36918 1.90302,-0.73836c1.17306,-0.72996 2.05884,-1.97694 2.03448,-3.69138c-0.02478,-1.6653 -0.9597,-2.73966 -2.0181,-3.4125c-0.94332,-0.59052 -2.12478,-0.95172 -3.04332,-1.2306l-0.05754,-0.01638c-1.05,-0.32004 -1.79634,-0.54978 -2.32134,-0.86142c-0.42672,-0.2541 -0.4347,-0.40194 -0.4347,-0.54978c0,-0.30366 0.11466,-0.5334 0.50862,-0.76272c0.4431,-0.2625 1.11552,-0.41832 1.76358,-0.41034c0.7875,0.0084 1.6569,0.1806 2.55948,0.42672c0.8778,0.22974 1.77198,-0.28728 2.0097,-1.16466c0.23772,-0.8778 -0.28728,-1.77198 -1.16466,-2.0097c-0.5334,-0.13944 -1.12392,-0.27888 -1.73082,-0.38556z" id="icon" fill="#ffffff"/></g></svg>