<svg version="1.1" xmlns="http://www.w3.org/2000/svg" xmlns:xlink="http://www.w3.org/1999/xlink" width="70" height="70" viewBox="0,0,70,70" odoo-icon:version="1.0" xmlns:odoo-icon="https://ivantodorovich.github.io/odoo-icon" odoo-icon:size="70" odoo-icon:icon-size="0.59" odoo-icon:icon-color="#FFFFFF" odoo-icon:icon-flat-shadow-angle="135" odoo-icon:background-color="#039be5" odoo-icon:background-gradient="0.2" odoo-icon:box-radius="3.5" odoo-icon:odoo-version="14.0"><defs><linearGradient x1="70" y1="0" x2="0" y2="70" gradientUnits="userSpaceOnUse" id="color-1"><stop offset="0" stop-color="#36ceff"/><stop offset="1" stop-color="#039be5"/></linearGradient></defs><g fill="none" fill-rule="nonzero" stroke="none" stroke-width="1" stroke-linecap="butt" stroke-linejoin="miter" stroke-miterlimit="10" stroke-dasharray="" stroke-dashoffset="0" font-family="none" font-weight="none" font-size="none" text-anchor="none" style="mix-blend-mode: normal"><path d="M3.5,70c-1.933,0 -3.5,-1.567 -3.5,-3.5v-63c0,-1.933 1.567,-3.5 3.5,-3.5h63c1.933,0 3.5,1.567 3.5,3.5v63c0,1.933 -1.567,3.5 -3.5,3.5z" id="box" fill="url(#color-1)"/><path d="M65,1h-61c-1.95033,0 -3.2667,0.63396 -3.9491,1.90189c0.28378,-1.64806 1.72001,-2.90189 3.4491,-2.90189h63c1.72965,0 3.16627,1.25466 3.44938,2.90352c-0.69803,-1.26902 -2.34782,-1.90352 -4.94938,-1.90352z" id="topBoxShadow" fill="#ffffff" opacity="0.383"/><path d="M4,69h61c2.66667,0 4.33333,-1 5,-3v0.5c0,1.933 -1.567,3.5 -3.5,3.5h-63c-1.933,0 -3.5,-1.567 -3.5,-3.5c0,-0.1611 0,-0.32777 0,-0.5c0.66667,2 2,3 4,3z" id="bottomBoxShadow" fill="#000000" opacity="0.383"/><path d="M38.81824,52.27252h3.81802v3.81802h-15.27252v-3.81802h3.81802v-3.81802h-13.36374c-2.10855,0 -3.81802,-1.70947 -3.81802,-3.81802v-22.90901c0,-2.10855 1.70947,-3.81802 3.81802,-3.81802h34.36351c2.10855,0 3.81802,1.70947 3.81802,3.81802v8.41906c-0.9718,-1.62013 -2.27257,-3.01803 -3.81802,-4.10438v-4.31468h-34.36351v22.90901h15.80722c1.32231,1.89732 3.11059,3.42261 5.19256,4.42923zM56,37c0,6.32609 -5.12841,11.4545 -11.4545,11.4545c-6.32609,0 -11.4545,-5.12841 -11.4545,-11.4545c0,-6.32609 5.12841,-11.4545 11.4545,-11.4545c6.32609,0 11.4545,5.12841 11.4545,11.4545zM47.40912,37c0,-1.58164 -1.28199,-2.86363 -2.86363,-2.86363c-1.58164,0 -2.86363,1.28199 -2.86363,2.86363c0,1.58164 1.28199,2.86363 2.86363,2.86363c1.58164,0 2.86363,-1.28199 2.86363,-2.86363z" id="shadow" fill="#000000" opacity="0.3"/><path d="M42.63626,54.09053l-15.90947,15.90947h-23.22679c-1.933,0 -3.5,-1.567 -3.5,-3.5l0,-34.35393l15.1183,-15.1183c0.69094,-0.69094 1.64544,-1.1183 2.69971,-1.1183h34.36351c2.10855,0 3.81802,1.70947 3.81802,3.81802v8.41906l-1.38611,1.38611c0.88421,1.62479 1.38657,3.48741 1.38657,5.46735c0,3.16305 -1.2821,6.02667 -3.35497,8.09954l-10.00877,10.00877z" id="flatShadow" fill="#000000" opacity="0.324"/><path d="M38.81824,50.27252h3.81802v3.81802h-15.27252v-3.81802h3.81802v-3.81802h-13.36374c-2.10855,0 -3.81802,-1.70947 -3.81802,-3.81802v-22.90901c0,-2.10855 1.70947,-3.81802 3.81802,-3.81802h34.36351c2.10855,0 3.81802,1.70947 3.81802,3.81802v8.41906c-0.9718,-1.62013 -2.27257,-3.01803 -3.81802,-4.10438v-4.31468h-34.36351v22.90901h15.80722c1.32231,1.89732 3.11059,3.42261 5.19256,4.42923zM56,35c0,6.32609 -5.12841,11.4545 -11.4545,11.4545c-6.32609,0 -11.4545,-5.12841 -11.4545,-11.4545c0,-6.32609 5.12841,-11.4545 11.4545,-11.4545c6.32609,0 11.4545,5.12841 11.4545,11.4545zM47.40912,35c0,-1.58164 -1.28199,-2.86363 -2.86363,-2.86363c-1.58164,0 -2.86363,1.28199 -2.86363,2.86363c0,1.58164 1.28199,2.86363 2.86363,2.86363c1.58164,0 2.86363,-1.28199 2.86363,-2.86363z" id="icon" fill="#ffffff"/></g></svg>