<svg version="1.1" xmlns="http://www.w3.org/2000/svg" xmlns:xlink="http://www.w3.org/1999/xlink" width="70" height="70" viewBox="0,0,70,70" odoo-icon:version="1.0" xmlns:odoo-icon="https://ivantodorovich.github.io/odoo-icon" odoo-icon:size="70" odoo-icon:icon-size="0.6" odoo-icon:icon-color="#FFFFFF" odoo-icon:icon-flat-shadow-angle="135" odoo-icon:background-color="#00897b" odoo-icon:background-gradient="0.2" odoo-icon:box-radius="3.5" odoo-icon:odoo-version="14.0"><defs><linearGradient x1="70" y1="0" x2="0" y2="70" gradientUnits="userSpaceOnUse" id="color-1"><stop offset="0" stop-color="#33bcae"/><stop offset="1" stop-color="#00897b"/></linearGradient></defs><g fill="none" fill-rule="nonzero" stroke="none" stroke-width="1" stroke-linecap="butt" stroke-linejoin="miter" stroke-miterlimit="10" stroke-dasharray="" stroke-dashoffset="0" font-family="none" font-weight="none" font-size="none" text-anchor="none" style="mix-blend-mode: normal"><path d="M3.5,70c-1.933,0 -3.5,-1.567 -3.5,-3.5v-63c0,-1.933 1.567,-3.5 3.5,-3.5h63c1.933,0 3.5,1.567 3.5,3.5v63c0,1.933 -1.567,3.5 -3.5,3.5z" id="box" fill="url(#color-1)"/><path d="M65,1h-61c-1.95033,0 -3.2667,0.63396 -3.9491,1.90189c0.28378,-1.64806 1.72001,-2.90189 3.4491,-2.90189h63c1.72965,0 3.16627,1.25466 3.44938,2.90352c-0.69803,-1.26902 -2.34782,-1.90352 -4.94938,-1.90352z" id="topBoxShadow" fill="#ffffff" opacity="0.383"/><path d="M4,69h61c2.66667,0 4.33333,-1 5,-3v0.5c0,1.933 -1.567,3.5 -3.5,3.5h-63c-1.933,0 -3.5,-1.567 -3.5,-3.5c0,-0.1611 0,-0.32777 0,-0.5c0.66667,2 2,3 4,3z" id="bottomBoxShadow" fill="#000000" opacity="0.383"/><path d="M52.50011,21.25005h-35.00021c-1.90766,0.07014 -3.43017,1.59266 -3.49989,3.49989v24.50011c0.07014,1.90766 1.59266,3.43017 3.49989,3.49989h35.00021c1.90766,-0.07014 3.43017,-1.59266 3.49989,-3.49989v-24.50011c-0.06678,-1.90472 -1.5956,-3.43311 -3.49989,-3.49989M52.50011,49.25047h-35.00021v-24.50011h35.00021v24.50011M38.49968,45.75016v-2.18738c0,-2.90517 -5.8452,-4.37518 -8.74995,-4.37518c-2.90517,0 -8.74995,1.47001 -8.74995,4.37518v2.18738h17.50032M29.74974,28.25026c-2.41628,0 -4.37518,1.9589 -4.37518,4.37518c0,2.41628 1.9589,4.37518 4.37518,4.37518c2.41628,0 4.37518,-1.9589 4.37518,-4.37518c0,-2.41628 -1.9589,-4.37518 -4.37518,-4.37518M38.49968,28.25026v1.75016h10.50011v-1.75016h-10.50011M38.49968,31.75016v1.75016h10.50011v-1.75016h-10.50011M38.49968,35.25005v1.75016h7.00021v-1.75016z" id="shadow" fill="#000000" opacity="0.3"/><path d="M15.06072,20.31109c0.6278,-0.6278 1.48534,-1.02597 2.43917,-1.06104h35.00021c1.9043,0.06678 3.43311,1.59518 3.49989,3.49989v24.50011c-0.03486,0.95362 -0.43292,1.81106 -1.06072,2.43886l-20.31109,20.31109h-31.12819c-1.933,0 -3.5,-1.567 -3.5,-3.5l0,-31.12819z" id="flatShadow" fill="#000000" opacity="0.324"/><path d="M52.50011,19.25005h-35.00021c-1.90766,0.07014 -3.43017,1.59266 -3.49989,3.49989v24.50011c0.07014,1.90766 1.59266,3.43017 3.49989,3.49989h35.00021c1.90766,-0.07014 3.43017,-1.59266 3.49989,-3.49989v-24.50011c-0.06678,-1.90472 -1.5956,-3.43311 -3.49989,-3.49989M52.50011,47.25047h-35.00021v-24.50011h35.00021v24.50011M38.49968,43.75016v-2.18738c0,-2.90517 -5.8452,-4.37518 -8.74995,-4.37518c-2.90517,0 -8.74995,1.47001 -8.74995,4.37518v2.18738h17.50032M29.74974,26.25026c-2.41628,0 -4.37518,1.9589 -4.37518,4.37518c0,2.41628 1.9589,4.37518 4.37518,4.37518c2.41628,0 4.37518,-1.9589 4.37518,-4.37518c0,-2.41628 -1.9589,-4.37518 -4.37518,-4.37518M38.49968,26.25026v1.75016h10.50011v-1.75016h-10.50011M38.49968,29.75016v1.75016h10.50011v-1.75016h-10.50011M38.49968,33.25005v1.75016h7.00021v-1.75016z" id="icon" fill="#ffffff"/></g></svg>