<svg version="1.1" xmlns="http://www.w3.org/2000/svg" xmlns:xlink="http://www.w3.org/1999/xlink" width="70" height="70" viewBox="0,0,70,70"><!-- Generated with https://ivantodorovich.github.io/odoo-icon --><defs><linearGradient x1="70" y1="0" x2="0" y2="70" gradientUnits="userSpaceOnUse" id="color-1"><stop offset="0" stop-color="#ffe633"/><stop offset="1" stop-color="#ffb300"/></linearGradient></defs><g fill="none" fill-rule="nonzero" stroke="none" stroke-width="1" stroke-linecap="butt" stroke-linejoin="miter" stroke-miterlimit="10" stroke-dasharray="" stroke-dashoffset="0" font-family="none" font-weight="none" font-size="none" text-anchor="none" style="mix-blend-mode: normal"><path d="M3.5,70c-1.933,0 -3.5,-1.567 -3.5,-3.5v-63c0,-1.933 1.567,-3.5 3.5,-3.5h63c1.933,0 3.5,1.567 3.5,3.5v63c0,1.933 -1.567,3.5 -3.5,3.5z" id="box" fill="url(#color-1)"/><path d="M65,1h-61c-1.95033,0 -3.2667,0.63396 -3.9491,1.90189c0.28378,-1.64806 1.72001,-2.90189 3.4491,-2.90189h63c1.72965,0 3.16627,1.25466 3.44938,2.90352c-0.69803,-1.26902 -2.34782,-1.90352 -4.94938,-1.90352z" id="topBoxShadow" fill="#ffffff" opacity="0.383"/><path d="M4,69h61c2.66667,0 4.33333,-1 5,-3v0.5c0,1.933 -1.567,3.5 -3.5,3.5h-63c-1.933,0 -3.5,-1.567 -3.5,-3.5c0,-0.1611 0,-0.32777 0,-0.5c0.66667,2 2,3 4,3z" id="bottomBoxShadow" fill="#000000" opacity="0.383"/><path d="M13.42846,37.77984c-0.88784,0.513 -1.19204,1.64834 -0.67949,2.53663l8.25294,14.29549c0.24615,0.4266 0.65205,0.73799 1.12769,0.86534c0.47565,0.12735 0.98279,0.06075 1.40939,-0.18585l33.03245,-19.07086c0.4266,-0.24615 0.73799,-0.65205 0.86534,-1.12769c0.12735,-0.47565 0.06075,-0.98279 -0.18585,-1.40939l-8.25294,-14.29549c-0.24615,-0.4266 -0.65205,-0.73799 -1.12769,-0.86534c-0.47565,-0.12735 -0.98279,-0.06075 -1.40939,0.18585zM16.89389,40.06763l29.81588,-17.21417l6.39625,11.07892l-2.14873,1.24064l-2.39713,-4.15302l-1.60829,0.92879l2.39713,4.15257l-2.45923,1.42019l-2.39758,-4.15302l-1.60829,0.92879l2.39758,4.15257l-2.45653,1.41839l-2.39758,-4.15302l-1.60829,0.92879l2.39758,4.15257l-2.45923,1.42019l-3.33177,-5.77031l-1.60829,0.92834l3.33177,5.77031l-2.45968,1.42019l-2.39758,-4.15302l-1.60829,0.92879l2.39758,4.15257l-2.45653,1.41794l-2.39713,-4.15257l-1.60829,0.92879l2.39713,4.15257l-2.45923,1.41974l-2.39758,-4.15257l-1.60829,0.92879l2.39758,4.15257l-1.65869,0.95759z" id="shadow" fill="#000000" opacity="0.3"/><path d="M47.8703,16.52269c0.47565,0.12735 0.88154,0.43875 1.12769,0.86534l8.25294,14.29549c0.2466,0.4266 0.3132,0.93374 0.18585,1.40939c-0.08502,0.31754 -0.25206,0.604 -0.48065,0.83259l-36.0745,36.0745h-17.38163c-1.933,0 -3.5,-1.567 -3.5,-3.5l0,-17.38162l13.04316,-13.04316c0.11238,-0.11238 0.24115,-0.21208 0.38531,-0.29538l33.03245,-19.07131c0.4266,-0.2466 0.93374,-0.3132 1.40939,-0.18585z" id="flatShadow" fill="#000000" opacity="0.324"/><path d="M13.42846,35.77984c-0.88784,0.513 -1.19204,1.64834 -0.67949,2.53663l8.25294,14.29549c0.24615,0.4266 0.65205,0.73799 1.12769,0.86534c0.47565,0.12735 0.98279,0.06075 1.40939,-0.18585l33.03245,-19.07086c0.4266,-0.24615 0.73799,-0.65205 0.86534,-1.12769c0.12735,-0.47565 0.06075,-0.98279 -0.18585,-1.40939l-8.25294,-14.29549c-0.24615,-0.4266 -0.65205,-0.73799 -1.12769,-0.86534c-0.47565,-0.12735 -0.98279,-0.06075 -1.40939,0.18585zM16.89389,38.06763l29.81588,-17.21417l6.39625,11.07892l-2.14873,1.24064l-2.39713,-4.15302l-1.60829,0.92879l2.39713,4.15257l-2.45923,1.42019l-2.39758,-4.15302l-1.60829,0.92879l2.39758,4.15257l-2.45653,1.41839l-2.39758,-4.15302l-1.60829,0.92879l2.39758,4.15257l-2.45923,1.42019l-3.33177,-5.77031l-1.60829,0.92834l3.33177,5.77031l-2.45968,1.42019l-2.39758,-4.15302l-1.60829,0.92879l2.39758,4.15257l-2.45653,1.41794l-2.39713,-4.15257l-1.60829,0.92879l2.39713,4.15257l-2.45923,1.41974l-2.39758,-4.15257l-1.60829,0.92879l2.39758,4.15257l-1.65869,0.95759z" id="icon" fill="#ffffff"/></g></svg>