<svg version="1.1" xmlns="http://www.w3.org/2000/svg" xmlns:xlink="http://www.w3.org/1999/xlink" width="70" height="70" viewBox="0,0,70,70" odoo-icon:version="1.0" xmlns:odoo-icon="https://ivantodorovich.github.io/odoo-icon" odoo-icon:size="70" odoo-icon:icon-size="0.65" odoo-icon:icon-color="#FFFFFF" odoo-icon:icon-flat-shadow-angle="135" odoo-icon:background-color="#5a9442" odoo-icon:background-gradient="0.2" odoo-icon:box-radius="3.5" odoo-icon:odoo-version="14.0"><defs><linearGradient x1="70" y1="0" x2="0" y2="70" gradientUnits="userSpaceOnUse" id="color-1"><stop offset="0" stop-color="#8dc775"/><stop offset="1" stop-color="#5a9442"/></linearGradient></defs><g fill="none" fill-rule="nonzero" stroke="none" stroke-width="1" stroke-linecap="butt" stroke-linejoin="miter" stroke-miterlimit="10" stroke-dasharray="" stroke-dashoffset="0" font-family="none" font-weight="none" font-size="none" text-anchor="none" style="mix-blend-mode: normal"><path d="M3.5,70c-1.933,0 -3.5,-1.567 -3.5,-3.5v-63c0,-1.933 1.567,-3.5 3.5,-3.5h63c1.933,0 3.5,1.567 3.5,3.5v63c0,1.933 -1.567,3.5 -3.5,3.5z" id="box" fill="url(#color-1)"/><path d="M65,1h-61c-1.95033,0 -3.2667,0.63396 -3.9491,1.90189c0.28378,-1.64806 1.72001,-2.90189 3.4491,-2.90189h63c1.72965,0 3.16627,1.25466 3.44938,2.90352c-0.69803,-1.26902 -2.34782,-1.90352 -4.94938,-1.90352z" id="topBoxShadow" fill="#ffffff" opacity="0.383"/><path d="M4,69h61c2.66667,0 4.33333,-1 5,-3v0.5c0,1.933 -1.567,3.5 -3.5,3.5h-63c-1.933,0 -3.5,-1.567 -3.5,-3.5c0,-0.1611 0,-0.32777 0,-0.5c0.66667,2 2,3 4,3z" id="bottomBoxShadow" fill="#000000" opacity="0.383"/><path d="M50.60696,46.85677h-16.42838c-0.49311,0 -0.82116,-0.32857 -0.82116,-0.82116c0,-0.49311 0.32857,-0.82116 0.82168,-0.82116h16.42838c0.49311,0 0.82168,0.32857 0.82168,0.82168c0,0.49311 -0.49311,0.82168 -0.82116,0.82168zM12,48.17104v-22.3426c0,-1.97141 1.64284,-3.61424 3.61424,-3.61424h38.60696c2.13595,0 3.77879,1.64284 3.77879,3.61424v22.17858c0,2.13595 -1.64284,3.77879 -3.61424,3.77879h-38.77099c-1.97141,0 -3.61424,-1.64284 -3.61424,-3.61424zM52.09367,48.49961c0.48786,0 0.97729,-0.47629 0.97729,-0.95258v-3.02282c0,-0.634 -0.48943,-0.95258 -0.97729,-0.95258h-19.40179c-0.6524,0 -0.97729,0.47629 -0.97729,0.95258v3.02282c0,0.634 0.48943,0.95258 0.97729,0.95258zM31.71406,27.96439c0,0.45369 0.368,0.82168 0.82168,0.82168h19.71406c0.45369,0 0.82168,-0.368 0.82168,-0.82116c0,-0.45369 -0.368,-0.82116 -0.82116,-0.82116h-19.71406c-0.45369,0 -0.82116,0.368 -0.82116,0.82168zM32.53574,33.71406h19.71406c0.45369,0 0.82168,-0.368 0.82168,-0.82116c0,-0.45369 -0.368,-0.82116 -0.82116,-0.82116h-19.71406c-0.45369,0 -0.82116,0.368 -0.82116,0.82168c0,0.45369 0.368,0.82168 0.82168,0.82168zM32.53574,38.64258h19.71406c0.45369,0 0.82168,-0.368 0.82168,-0.82116c0,-0.45369 -0.368,-0.82116 -0.82116,-0.82116h-19.71406c-0.45369,0 -0.82116,0.368 -0.82116,0.82168c0,0.45369 0.368,0.82168 0.82168,0.82168zM15.31669,40.60925c1.14499,-1.779 2.92241,-3.07697 4.99738,-3.53697c-1.00726,-0.35958 -1.73011,-1.31269 -1.85628,-2.36884l-0.07728,-1.01041c-0.58669,-0.04101 -1.04984,-0.55042 -1.04984,-1.17286c-0.00841,-0.53727 0.35117,-1.01041 0.87057,-1.14657l-0.06571,-0.87057c-0.16087,-1.84839 1.12712,-3.3598 2.89455,-3.3598h1.61024c1.60814,0 3.05542,1.51141 2.8914,3.3598l-0.06571,0.87057c0.51993,0.13616 0.87898,0.60982 0.87057,1.14657c0.01104,0.60509 -0.4458,1.1166 -1.04826,1.17286l-0.07728,1.01041c-0.11986,1.1287 -0.777,1.97456 -1.70382,2.33309c1.9877,0.40848 3.7462,1.5561 4.9201,3.21155v-13.10486c0,-0.9857 -0.80171,-1.64284 -1.60341,-1.64284h-9.93589c-0.96257,0 -1.60341,0.82168 -1.60341,1.64284v13.14271c-0.00053,0.10882 0.00946,0.21712 0.02944,0.32384z" id="shadow" fill="#000000" opacity="0.3"/><path d="M15.61424,20.21419h38.60696c2.13595,0 3.77879,1.64284 3.77879,3.61424v22.17858c0,1.08938 -0.42733,2.05049 -1.10765,2.7308l-21.26219,21.26219h-32.13017c-1.933,0 -3.5,-1.567 -3.5,-3.5l0,-30.67156z" id="flatShadow" fill="#000000" opacity="0.324"/><path d="M50.60696,44.85677h-16.42838c-0.49311,0 -0.82116,-0.32857 -0.82116,-0.82116c0,-0.49311 0.32857,-0.82116 0.82168,-0.82116h16.42838c0.49311,0 0.82168,0.32857 0.82168,0.82168c0,0.49311 -0.49311,0.82168 -0.82116,0.82168zM12,46.17104v-22.3426c0,-1.97141 1.64284,-3.61424 3.61424,-3.61424h38.60696c2.13595,0 3.77879,1.64284 3.77879,3.61424v22.17858c0,2.13595 -1.64284,3.77879 -3.61424,3.77879h-38.77099c-1.97141,0 -3.61424,-1.64284 -3.61424,-3.61424zM52.09367,46.49961c0.48786,0 0.97729,-0.47629 0.97729,-0.95258v-3.02282c0,-0.634 -0.48943,-0.95258 -0.97729,-0.95258h-19.40179c-0.6524,0 -0.97729,0.47629 -0.97729,0.95258v3.02282c0,0.634 0.48943,0.95258 0.97729,0.95258zM31.71406,25.96439c0,0.45369 0.368,0.82168 0.82168,0.82168h19.71406c0.45369,0 0.82168,-0.368 0.82168,-0.82116c0,-0.45369 -0.368,-0.82116 -0.82116,-0.82116h-19.71406c-0.45369,0 -0.82116,0.368 -0.82116,0.82168zM32.53574,31.71406h19.71406c0.45369,0 0.82168,-0.368 0.82168,-0.82116c0,-0.45369 -0.368,-0.82116 -0.82116,-0.82116h-19.71406c-0.45369,0 -0.82116,0.368 -0.82116,0.82168c0,0.45369 0.368,0.82168 0.82168,0.82168zM32.53574,36.64258h19.71406c0.45369,0 0.82168,-0.368 0.82168,-0.82116c0,-0.45369 -0.368,-0.82116 -0.82116,-0.82116h-19.71406c-0.45369,0 -0.82116,0.368 -0.82116,0.82168c0,0.45369 0.368,0.82168 0.82168,0.82168zM15.31669,38.60925c1.14499,-1.779 2.92241,-3.07697 4.99738,-3.53697c-1.00726,-0.35958 -1.73011,-1.31269 -1.85628,-2.36884l-0.07728,-1.01041c-0.58669,-0.04101 -1.04984,-0.55042 -1.04984,-1.17286c-0.00841,-0.53727 0.35117,-1.01041 0.87057,-1.14657l-0.06571,-0.87057c-0.16087,-1.84839 1.12712,-3.3598 2.89455,-3.3598h1.61024c1.60814,0 3.05542,1.51141 2.8914,3.3598l-0.06571,0.87057c0.51993,0.13616 0.87898,0.60982 0.87057,1.14657c0.01104,0.60509 -0.4458,1.1166 -1.04826,1.17286l-0.07728,1.01041c-0.11986,1.1287 -0.777,1.97456 -1.70382,2.33309c1.9877,0.40848 3.7462,1.5561 4.9201,3.21155v-13.10486c0,-0.9857 -0.80171,-1.64284 -1.60341,-1.64284h-9.93589c-0.96257,0 -1.60341,0.82168 -1.60341,1.64284v13.14271c-0.00053,0.10882 0.00946,0.21712 0.02944,0.32384z" id="icon" fill="#ffffff"/></g></svg>