<svg version="1.1" xmlns="http://www.w3.org/2000/svg" xmlns:xlink="http://www.w3.org/1999/xlink" width="70" height="70" viewBox="0,0,70,70" odoo-icon:version="1.0" xmlns:odoo-icon="https://ivantodorovich.github.io/odoo-icon" odoo-icon:size="70" odoo-icon:icon-size="0.54" odoo-icon:icon-color="#FFFFFF" odoo-icon:icon-flat-shadow-angle="135" odoo-icon:background-color="#a4426b" odoo-icon:background-gradient="0.2" odoo-icon:box-radius="3.5" odoo-icon:odoo-version="14.0"><defs><linearGradient x1="70" y1="0" x2="0" y2="70" gradientUnits="userSpaceOnUse" id="color-1"><stop offset="0" stop-color="#d7759e"/><stop offset="1" stop-color="#a4426b"/></linearGradient></defs><g fill="none" fill-rule="nonzero" stroke="none" stroke-width="1" stroke-linecap="butt" stroke-linejoin="miter" stroke-miterlimit="10" stroke-dasharray="" stroke-dashoffset="0" font-family="none" font-weight="none" font-size="none" text-anchor="none" style="mix-blend-mode: normal"><path d="M3.5,70c-1.933,0 -3.5,-1.567 -3.5,-3.5v-63c0,-1.933 1.567,-3.5 3.5,-3.5h63c1.933,0 3.5,1.567 3.5,3.5v63c0,1.933 -1.567,3.5 -3.5,3.5z" id="box" fill="url(#color-1)"/><path d="M65,1h-61c-1.95033,0 -3.2667,0.63396 -3.9491,1.90189c0.28378,-1.64806 1.72001,-2.90189 3.4491,-2.90189h63c1.72965,0 3.16627,1.25466 3.44938,2.90352c-0.69803,-1.26902 -2.34782,-1.90352 -4.94938,-1.90352z" id="topBoxShadow" fill="#ffffff" opacity="0.383"/><path d="M4,69h61c2.66667,0 4.33333,-1 5,-3v0.5c0,1.933 -1.567,3.5 -3.5,3.5h-63c-1.933,0 -3.5,-1.567 -3.5,-3.5c0,-0.1611 0,-0.32777 0,-0.5c0.66667,2 2,3 4,3z" id="bottomBoxShadow" fill="#000000" opacity="0.383"/><path d="M16,18h2.53346v35.46654h35.46654v2.53346h-38zM21.06654,23.06654h7.6v2.53346h-7.6zM23.6,30.66654h12.66654v2.53346h-12.66654zM28.66654,38.26654h7.6v2.53346h-7.6zM36.26654,45.86654h17.73346v2.53346h-17.73346z" id="shadow" fill="#000000" opacity="0.3"/><path d="M18.53346,16l0,7.59962l2.53308,-2.53308h7.6v2.53346l-5.06654,5.06654h12.66654v2.53346l-5.06654,5.06654h5.06654v2.53346l-12.66654,12.66654l5.06654,0l7.6,-7.6h17.73346v2.53346l-5.06654,5.06654h5.06654v2.53346l-16,16h-34.5c-1.933,0 -3.5,-1.567 -3.5,-3.5l0,-34.5l16,-16z" id="flatShadow" fill="#000000" opacity="0.324"/><path d="M16,16h2.53346v35.46654h35.46654v2.53346h-38zM21.06654,21.06654h7.6v2.53346h-7.6zM23.6,28.66654h12.66654v2.53346h-12.66654zM28.66654,36.26654h7.6v2.53346h-7.6zM36.26654,43.86654h17.73346v2.53346h-17.73346z" id="icon" fill="#ffffff"/></g></svg>