<svg version="1.1" xmlns="http://www.w3.org/2000/svg" xmlns:xlink="http://www.w3.org/1999/xlink" width="70" height="70" viewBox="0,0,70,70" odoo-icon:version="1.0" xmlns:odoo-icon="https://ivantodorovich.github.io/odoo-icon" odoo-icon:size="70" odoo-icon:icon-size="0.56" odoo-icon:icon-color="#FFFFFF" odoo-icon:icon-flat-shadow-angle="135" odoo-icon:background-color="#5a9442" odoo-icon:background-gradient="0.2" odoo-icon:box-radius="3.5" odoo-icon:odoo-version="14.0"><defs><linearGradient x1="70" y1="0" x2="0" y2="70" gradientUnits="userSpaceOnUse" id="color-1"><stop offset="0" stop-color="#8dc775"/><stop offset="1" stop-color="#5a9442"/></linearGradient></defs><g fill="none" fill-rule="nonzero" stroke="none" stroke-width="1" stroke-linecap="butt" stroke-linejoin="miter" stroke-miterlimit="10" stroke-dasharray="" stroke-dashoffset="0" font-family="none" font-weight="none" font-size="none" text-anchor="none" style="mix-blend-mode: normal"><path d="M3.5,70c-1.933,0 -3.5,-1.567 -3.5,-3.5v-63c0,-1.933 1.567,-3.5 3.5,-3.5h63c1.933,0 3.5,1.567 3.5,3.5v63c0,1.933 -1.567,3.5 -3.5,3.5z" id="box" fill="url(#color-1)"/><path d="M65,1h-61c-1.95033,0 -3.2667,0.63396 -3.9491,1.90189c0.28378,-1.64806 1.72001,-2.90189 3.4491,-2.90189h63c1.72965,0 3.16627,1.25466 3.44938,2.90352c-0.69803,-1.26902 -2.34782,-1.90352 -4.94938,-1.90352z" id="topBoxShadow" fill="#ffffff" opacity="0.383"/><path d="M4,69h61c2.66667,0 4.33333,-1 5,-3v0.5c0,1.933 -1.567,3.5 -3.5,3.5h-63c-1.933,0 -3.5,-1.567 -3.5,-3.5c0,-0.1611 0,-0.32777 0,-0.5c0.66667,2 2,3 4,3z" id="bottomBoxShadow" fill="#000000" opacity="0.383"/><path d="M31.00014,28.99957c0,-2.30401 1.70017,-3.99986 3.99986,-3.99986c2.30209,0 3.99986,1.69585 3.99986,3.99986c0,2.30401 -1.69777,3.99986 -3.99986,3.99986c-2.30017,0 -3.99986,-1.69585 -3.99986,-3.99986zM43.00019,42.19962v0.77184h-15.9999v-0.77184c0,-3.97586 3.58225,-7.20003 8.00019,-7.20003c4.41794,0 8.00019,3.22417 8.00019,7.20003zM53.00007,20.99986v26.00026c0,2.20609 -1.79377,3.99986 -3.99986,3.99986h-8.00019l-6.00002,6.00002l-6.00002,-6.00002h-8.00019c-2.20609,0 -3.99986,-1.79377 -3.99986,-3.99986v-26.00026c0,-2.20609 1.79377,-3.99986 3.99986,-3.99986h27.99995c2.20609,0 3.99986,1.79425 3.99986,3.99986zM49.00406,46.99964l-0.00384,-26.00026h-27.99995v26.00026h9.99988l3.99986,3.99986l3.99986,-3.99986z" id="shadow" fill="#000000" opacity="0.3"/><path d="M53.00007,45.00012c0,1.10304 -0.44844,2.10301 -1.17264,2.82721l-22.17267,22.17267h-26.15476c-1.933,0 -3.5,-1.567 -3.5,-3.5l0,-32.15478l18.17257,-18.17257l0,0c0,0 0,0 0,0c0.7242,-0.7242 1.72417,-1.17264 2.82721,-1.17264h27.99995c2.20609,0 3.99986,1.79425 3.99986,3.99986h0.00048z" id="flatShadow" fill="#000000" opacity="0.324"/><path d="M31.00014,26.99957c0,-2.30401 1.70017,-3.99986 3.99986,-3.99986c2.30209,0 3.99986,1.69585 3.99986,3.99986c0,2.30401 -1.69777,3.99986 -3.99986,3.99986c-2.30017,0 -3.99986,-1.69585 -3.99986,-3.99986zM43.00019,40.19962v0.77184h-15.9999v-0.77184c0,-3.97586 3.58225,-7.20003 8.00019,-7.20003c4.41794,0 8.00019,3.22417 8.00019,7.20003zM53.00007,18.99986v26.00026c0,2.20609 -1.79377,3.99986 -3.99986,3.99986h-8.00019l-6.00002,6.00002l-6.00002,-6.00002h-8.00019c-2.20609,0 -3.99986,-1.79377 -3.99986,-3.99986v-26.00026c0,-2.20609 1.79377,-3.99986 3.99986,-3.99986h27.99995c2.20609,0 3.99986,1.79425 3.99986,3.99986zM49.00406,44.99964l-0.00384,-26.00026h-27.99995v26.00026h9.99988l3.99986,3.99986l3.99986,-3.99986z" id="icon" fill="#ffffff"/></g></svg>