<svg version="1.1" xmlns="http://www.w3.org/2000/svg" xmlns:xlink="http://www.w3.org/1999/xlink" width="70" height="70" viewBox="0,0,70,70"><!-- Generated with https://ivantodorovich.github.io/odoo-icon --><defs><linearGradient x1="70" y1="0" x2="0" y2="70" gradientUnits="userSpaceOnUse" id="color-1"><stop offset="0" stop-color="#ffbb5a"/><stop offset="1" stop-color="#d88827"/></linearGradient></defs><g fill="none" fill-rule="nonzero" stroke="none" stroke-width="1" stroke-linecap="butt" stroke-linejoin="miter" stroke-miterlimit="10" stroke-dasharray="" stroke-dashoffset="0" font-family="none" font-weight="none" font-size="none" text-anchor="none" style="mix-blend-mode: normal"><path d="M3.5,70c-1.933,0 -3.5,-1.567 -3.5,-3.5v-63c0,-1.933 1.567,-3.5 3.5,-3.5h63c1.933,0 3.5,1.567 3.5,3.5v63c0,1.933 -1.567,3.5 -3.5,3.5z" id="box" fill="url(#color-1)"/><path d="M65,1h-61c-1.95033,0 -3.2667,0.63396 -3.9491,1.90189c0.28378,-1.64806 1.72001,-2.90189 3.4491,-2.90189h63c1.72965,0 3.16627,1.25466 3.44938,2.90352c-0.69803,-1.26902 -2.34782,-1.90352 -4.94938,-1.90352z" id="topBoxShadow" fill="#ffffff" opacity="0.383"/><path d="M4,69h61c2.66667,0 4.33333,-1 5,-3v0.5c0,1.933 -1.567,3.5 -3.5,3.5h-63c-1.933,0 -3.5,-1.567 -3.5,-3.5c0,-0.1611 0,-0.32777 0,-0.5c0.66667,2 2,3 4,3z" id="bottomBoxShadow" fill="#000000" opacity="0.383"/><path d="M40.125,26.02922c-0.38704,0.22673 -0.79417,0.40057 -1.22139,0.5207c-0.42722,0.12013 -0.87412,0.18696 -1.34111,0.20008v-2.5625c0.36039,0 0.69413,-0.06683 1.00081,-0.20008c0.30709,-0.13366 0.574,-0.31365 0.80073,-0.54038c0.22673,-0.22673 0.41369,-0.50061 0.56047,-0.82082c0.14678,-0.32021 0.21361,-0.65395 0.20008,-1.00081h2.5625v12.8125h-2.5625zM43.96875,52.375h-7.6875v-0.50061c0,-0.16031 -0.00656,-0.33374 -0.02009,-0.5207c0,-0.33374 0.02009,-0.66051 0.05986,-0.98113c0.04018,-0.32021 0.12013,-0.64042 0.24026,-0.96104c0.14678,-0.37351 0.36695,-0.7339 0.66051,-1.08117c0.29356,-0.34686 0.62074,-0.69413 0.98113,-1.04099c0.36039,-0.34686 0.72734,-0.6806 1.10126,-1.00081c0.37351,-0.32021 0.72078,-0.64739 1.04099,-0.98113c0.32021,-0.33374 0.574,-0.65395 0.76055,-0.96104c0.18696,-0.30709 0.287,-0.62074 0.30012,-0.94095c0,-0.36039 -0.12669,-0.66051 -0.38048,-0.90077c-0.25338,-0.24026 -0.55391,-0.36695 -0.90077,-0.38048c-0.30709,0 -0.574,0.09348 -0.80073,0.28044c-0.22673,0.18696 -0.38048,0.43378 -0.46043,0.74087l-2.50264,-0.5207c0.07995,-0.44034 0.2337,-0.84747 0.46043,-1.22139c0.22673,-0.37351 0.5207,-0.69413 0.88068,-0.96104c0.36039,-0.26691 0.74087,-0.48052 1.14103,-0.64042c0.40057,-0.16031 0.82738,-0.24026 1.28125,-0.24026c0.53382,0 1.03443,0.10004 1.50142,0.30012c0.46699,0.20008 0.87412,0.47396 1.22139,0.82082c0.34686,0.34686 0.62074,0.75399 0.82082,1.22139c0.20008,0.46699 0.30012,0.9676 0.30012,1.50142c0,0.78761 -0.16687,1.46821 -0.50061,2.0418c-0.33374,0.574 -0.74087,1.10126 -1.22139,1.58137c-0.48052,0.48052 -0.99425,0.93439 -1.5416,1.3612c-0.54735,0.42722 -1.02787,0.90077 -1.44156,1.42147h4.70475zM25.01035,34.39732h-2.28206l4.70475,-12.57224h2.34233l4.68466,12.57224h-2.30215l-1.12094,-3.20292h-4.94501zM28.53389,23.68689c-0.02665,0.14678 -0.04674,0.287 -0.05986,0.42025c-0.01353,0.13366 -0.04674,0.26035 -0.10004,0.38048l-1.74168,5.00487h3.86384l-1.76177,-5.00487c-0.04018,-0.12013 -0.07339,-0.24682 -0.10004,-0.38048c-0.02665,-0.13366 -0.05986,-0.27347 -0.10004,-0.42025zM25.01035,52.33482h-2.28206l4.70475,-12.57224h2.34233l4.68466,12.57224h-2.30215l-1.12094,-3.20292h-4.94501zM28.53389,41.62439c-0.02665,0.14678 -0.04674,0.287 -0.05986,0.42025c-0.01353,0.13366 -0.04674,0.26035 -0.10004,0.38048l-1.74168,5.00487h3.86384l-1.76177,-5.00487c-0.04018,-0.12013 -0.07339,-0.24682 -0.10004,-0.38048c-0.02665,-0.13366 -0.05986,-0.27347 -0.10004,-0.42025zM45.29018,36.85978c0.28044,0 0.50717,-0.07995 0.6806,-0.24026c0.17343,-0.16031 0.30709,-0.35383 0.40057,-0.58056c0.09348,-0.22673 0.15334,-0.48052 0.17999,-0.76055c0.02665,-0.28044 0.04674,-0.5207 0.05986,-0.72078h-1.3612v-2.64245h2.5625v2.64245c0,0.40057 -0.04018,0.80729 -0.12013,1.22139c-0.07995,0.41369 -0.22017,0.78761 -0.42025,1.12094c-0.20008,0.33374 -0.46043,0.61377 -0.78064,0.84091c-0.32021,0.22673 -0.72078,0.33374 -1.2013,0.32021zM55.5,16.5v41h-41v-41zM52.9375,19.0625h-35.875v35.875h35.875z" id="shadow" fill="#000000" opacity="0.3"/><path d="M55.5,55.5l-14.5,14.5h-37.5c-1.933,0 -3.5,-1.567 -3.5,-3.5l0,-37.5l14.5,-14.5h41z" id="flatShadow" fill="#000000" opacity="0.324"/><path d="M40.125,24.02922c-0.38704,0.22673 -0.79417,0.40057 -1.22139,0.5207c-0.42722,0.12013 -0.87412,0.18696 -1.34111,0.20008v-2.5625c0.36039,0 0.69413,-0.06683 1.00081,-0.20008c0.30709,-0.13366 0.574,-0.31365 0.80073,-0.54038c0.22673,-0.22673 0.41369,-0.50061 0.56047,-0.82082c0.14678,-0.32021 0.21361,-0.65395 0.20008,-1.00081h2.5625v12.8125h-2.5625zM43.96875,50.375h-7.6875v-0.50061c0,-0.16031 -0.00656,-0.33374 -0.02009,-0.5207c0,-0.33374 0.02009,-0.66051 0.05986,-0.98113c0.04018,-0.32021 0.12013,-0.64042 0.24026,-0.96104c0.14678,-0.37351 0.36695,-0.7339 0.66051,-1.08117c0.29356,-0.34686 0.62074,-0.69413 0.98113,-1.04099c0.36039,-0.34686 0.72734,-0.6806 1.10126,-1.00081c0.37351,-0.32021 0.72078,-0.64739 1.04099,-0.98113c0.32021,-0.33374 0.574,-0.65395 0.76055,-0.96104c0.18696,-0.30709 0.287,-0.62074 0.30012,-0.94095c0,-0.36039 -0.12669,-0.66051 -0.38048,-0.90077c-0.25338,-0.24026 -0.55391,-0.36695 -0.90077,-0.38048c-0.30709,0 -0.574,0.09348 -0.80073,0.28044c-0.22673,0.18696 -0.38048,0.43378 -0.46043,0.74087l-2.50264,-0.5207c0.07995,-0.44034 0.2337,-0.84747 0.46043,-1.22139c0.22673,-0.37351 0.5207,-0.69413 0.88068,-0.96104c0.36039,-0.26691 0.74087,-0.48052 1.14103,-0.64042c0.40057,-0.16031 0.82738,-0.24026 1.28125,-0.24026c0.53382,0 1.03443,0.10004 1.50142,0.30012c0.46699,0.20008 0.87412,0.47396 1.22139,0.82082c0.34686,0.34686 0.62074,0.75399 0.82082,1.22139c0.20008,0.46699 0.30012,0.9676 0.30012,1.50142c0,0.78761 -0.16687,1.46821 -0.50061,2.0418c-0.33374,0.574 -0.74087,1.10126 -1.22139,1.58137c-0.48052,0.48052 -0.99425,0.93439 -1.5416,1.3612c-0.54735,0.42722 -1.02787,0.90077 -1.44156,1.42147h4.70475zM25.01035,32.39732h-2.28206l4.70475,-12.57224h2.34233l4.68466,12.57224h-2.30215l-1.12094,-3.20292h-4.94501zM28.53389,21.68689c-0.02665,0.14678 -0.04674,0.287 -0.05986,0.42025c-0.01353,0.13366 -0.04674,0.26035 -0.10004,0.38048l-1.74168,5.00487h3.86384l-1.76177,-5.00487c-0.04018,-0.12013 -0.07339,-0.24682 -0.10004,-0.38048c-0.02665,-0.13366 -0.05986,-0.27347 -0.10004,-0.42025zM25.01035,50.33482h-2.28206l4.70475,-12.57224h2.34233l4.68466,12.57224h-2.30215l-1.12094,-3.20292h-4.94501zM28.53389,39.62439c-0.02665,0.14678 -0.04674,0.287 -0.05986,0.42025c-0.01353,0.13366 -0.04674,0.26035 -0.10004,0.38048l-1.74168,5.00487h3.86384l-1.76177,-5.00487c-0.04018,-0.12013 -0.07339,-0.24682 -0.10004,-0.38048c-0.02665,-0.13366 -0.05986,-0.27347 -0.10004,-0.42025zM45.29018,34.85978c0.28044,0 0.50717,-0.07995 0.6806,-0.24026c0.17343,-0.16031 0.30709,-0.35383 0.40057,-0.58056c0.09348,-0.22673 0.15334,-0.48052 0.17999,-0.76055c0.02665,-0.28044 0.04674,-0.5207 0.05986,-0.72078h-1.3612v-2.64245h2.5625v2.64245c0,0.40057 -0.04018,0.80729 -0.12013,1.22139c-0.07995,0.41369 -0.22017,0.78761 -0.42025,1.12094c-0.20008,0.33374 -0.46043,0.61377 -0.78064,0.84091c-0.32021,0.22673 -0.72078,0.33374 -1.2013,0.32021zM55.5,14.5v41h-41v-41zM52.9375,17.0625h-35.875v35.875h35.875z" id="icon" fill="#ffffff"/></g></svg>