<svg version="1.1" xmlns="http://www.w3.org/2000/svg" xmlns:xlink="http://www.w3.org/1999/xlink" width="70" height="70" viewBox="0,0,70,70" odoo-icon:version="1.0" xmlns:odoo-icon="https://ivantodorovich.github.io/odoo-icon" odoo-icon:size="70" odoo-icon:icon-size="0.55" odoo-icon:icon-color="#FFFFFF" odoo-icon:icon-flat-shadow-angle="135" odoo-icon:background-color="#fdd835" odoo-icon:background-gradient="0.2" odoo-icon:box-radius="3.5" odoo-icon:odoo-version="14.0"><defs><linearGradient x1="70" y1="0" x2="0" y2="70" gradientUnits="userSpaceOnUse" id="color-1"><stop offset="0" stop-color="#ffff68"/><stop offset="1" stop-color="#fdd835"/></linearGradient></defs><g fill="none" fill-rule="nonzero" stroke="none" stroke-width="1" stroke-linecap="butt" stroke-linejoin="miter" stroke-miterlimit="10" stroke-dasharray="" stroke-dashoffset="0" font-family="none" font-weight="none" font-size="none" text-anchor="none" style="mix-blend-mode: normal"><path d="M3.5,70c-1.933,0 -3.5,-1.567 -3.5,-3.5v-63c0,-1.933 1.567,-3.5 3.5,-3.5h63c1.933,0 3.5,1.567 3.5,3.5v63c0,1.933 -1.567,3.5 -3.5,3.5z" id="box" fill="url(#color-1)"/><path d="M65,1h-61c-1.95033,0 -3.2667,0.63396 -3.9491,1.90189c0.28378,-1.64806 1.72001,-2.90189 3.4491,-2.90189h63c1.72965,0 3.16627,1.25466 3.44938,2.90352c-0.69803,-1.26902 -2.34782,-1.90352 -4.94938,-1.90352z" id="topBoxShadow" fill="#ffffff" opacity="0.383"/><path d="M4,69h61c2.66667,0 4.33333,-1 5,-3v0.5c0,1.933 -1.567,3.5 -3.5,3.5h-63c-1.933,0 -3.5,-1.567 -3.5,-3.5c0,-0.1611 0,-0.32777 0,-0.5c0.66667,2 2,3 4,3z" id="bottomBoxShadow" fill="#000000" opacity="0.383"/><path d="M35.00025,56.49999c-0.5818,0 -1.0695,-0.19705 -1.4636,-0.59116c-0.3941,-0.3941 -0.59066,-0.88131 -0.58918,-1.46163v-4.10508h-12.31574c-0.5818,0 -1.0695,-0.19705 -1.4636,-0.59116c-0.3941,-0.3941 -0.59066,-0.88131 -0.58918,-1.46163c0,-0.5818 0.19705,-1.0695 0.59116,-1.4636c0.3941,-0.3941 0.88131,-0.59066 1.46163,-0.58918h28.73655c0.5818,0 1.0695,0.19705 1.4636,0.59116c0.3941,0.3941 0.59066,0.88131 0.58918,1.46163c0,0.5818 -0.19705,1.0695 -0.59116,1.4636c-0.3941,0.3941 -0.88131,0.59066 -1.46163,0.58918h-12.31574v4.10508c0,0.5818 -0.19705,1.0695 -0.59116,1.4636c-0.3941,0.3941 -0.88131,0.59066 -1.46163,0.58918zM28.84238,34.94746c0.5818,0 1.0695,-0.19705 1.4636,-0.59116c0.3941,-0.3941 0.59066,-0.88131 0.58918,-1.46163c0,-0.5818 -0.19705,-1.0695 -0.59116,-1.4636c-0.3941,-0.3941 -0.88131,-0.59066 -1.46163,-0.58918c-0.5818,0 -1.0695,0.19705 -1.4636,0.59116c-0.3941,0.3941 -0.59066,0.88131 -0.58918,1.46163c0,0.5818 0.19705,1.0695 0.59116,1.4636c0.3941,0.3941 0.88131,0.59066 1.46163,0.58918zM41.15811,34.94746c0.5818,0 1.0695,-0.19705 1.4636,-0.59116c0.3941,-0.3941 0.59066,-0.88131 0.58918,-1.46163c0,-0.5818 -0.19705,-1.0695 -0.59116,-1.4636c-0.3941,-0.3941 -0.88131,-0.59066 -1.46163,-0.58918c-0.5818,0 -1.0695,0.19705 -1.4636,0.59116c-0.3941,0.3941 -0.59066,0.88131 -0.58918,1.46163c0,0.5818 0.19705,1.0695 0.59116,1.4636c0.3941,0.3941 0.88131,0.59066 1.46163,0.58918zM22.68451,44.18426c-0.5818,0 -1.0695,-0.19705 -1.4636,-0.59116c-0.3941,-0.3941 -0.59066,-0.88131 -0.58918,-1.46163v-13.13695l3.38683,-9.85259c0.17094,-0.47884 0.45371,-0.87245 0.84782,-1.18034c0.3941,-0.30789 0.83008,-0.46159 1.30744,-0.46159h17.65239c0.47884,0 0.91531,0.1537 1.30941,0.46159c0.3941,0.30789 0.67589,0.7015 0.84584,1.18034l3.38683,9.85259v13.13695c0,0.5818 -0.19705,1.0695 -0.59116,1.4636c-0.3941,0.3941 -0.88131,0.59066 -1.46163,0.58918c-0.5818,0 -1.0695,-0.19705 -1.4636,-0.59116c-0.3941,-0.3941 -0.59066,-0.88131 -0.58918,-1.46163v-2.05279h-20.52639v2.05279c0,0.5818 -0.19705,1.0695 -0.59116,1.4636c-0.3941,0.3941 -0.88131,0.59066 -1.46163,0.58918zM26.07134,25.71065h17.85782l-1.437,-4.10508h-14.98431zM24.7373,29.81574v6.15787zM24.7373,35.9736h20.52639v-6.15787h-20.52639z" id="shadow" fill="#000000" opacity="0.3"/><path d="M24.62372,16.17595c0.07555,-0.07555 0.15643,-0.147 0.24264,-0.21436c0.3941,-0.30789 0.83008,-0.46159 1.30744,-0.46159h17.65239c0.47884,0 0.91531,0.1537 1.30941,0.46159c0.3941,0.30789 0.67589,0.7015 0.84584,1.18034l3.38683,9.85259v13.13695c0,0.5818 -0.19705,1.0695 -0.59116,1.4636l-2.64148,2.64148h3.23263c0.5818,0 1.0695,0.19705 1.4636,0.59116c0.3941,0.3941 0.59066,0.88131 0.58918,1.46163c0,0.5818 -0.19705,1.0695 -0.59116,1.4636l-22.24706,22.24706h-25.08285c-1.933,0 -3.5,-1.567 -3.5,-3.5l0,-25.70033z" id="flatShadow" fill="#000000" opacity="0.324"/><path d="M35.00025,54.49999c-0.5818,0 -1.0695,-0.19705 -1.4636,-0.59116c-0.3941,-0.3941 -0.59066,-0.88131 -0.58918,-1.46163v-4.10508h-12.31574c-0.5818,0 -1.0695,-0.19705 -1.4636,-0.59116c-0.3941,-0.3941 -0.59066,-0.88131 -0.58918,-1.46163c0,-0.5818 0.19705,-1.0695 0.59116,-1.4636c0.3941,-0.3941 0.88131,-0.59066 1.46163,-0.58918h28.73655c0.5818,0 1.0695,0.19705 1.4636,0.59116c0.3941,0.3941 0.59066,0.88131 0.58918,1.46163c0,0.5818 -0.19705,1.0695 -0.59116,1.4636c-0.3941,0.3941 -0.88131,0.59066 -1.46163,0.58918h-12.31574v4.10508c0,0.5818 -0.19705,1.0695 -0.59116,1.4636c-0.3941,0.3941 -0.88131,0.59066 -1.46163,0.58918zM28.84238,32.94746c0.5818,0 1.0695,-0.19705 1.4636,-0.59116c0.3941,-0.3941 0.59066,-0.88131 0.58918,-1.46163c0,-0.5818 -0.19705,-1.0695 -0.59116,-1.4636c-0.3941,-0.3941 -0.88131,-0.59066 -1.46163,-0.58918c-0.5818,0 -1.0695,0.19705 -1.4636,0.59116c-0.3941,0.3941 -0.59066,0.88131 -0.58918,1.46163c0,0.5818 0.19705,1.0695 0.59116,1.4636c0.3941,0.3941 0.88131,0.59066 1.46163,0.58918zM41.15811,32.94746c0.5818,0 1.0695,-0.19705 1.4636,-0.59116c0.3941,-0.3941 0.59066,-0.88131 0.58918,-1.46163c0,-0.5818 -0.19705,-1.0695 -0.59116,-1.4636c-0.3941,-0.3941 -0.88131,-0.59066 -1.46163,-0.58918c-0.5818,0 -1.0695,0.19705 -1.4636,0.59116c-0.3941,0.3941 -0.59066,0.88131 -0.58918,1.46163c0,0.5818 0.19705,1.0695 0.59116,1.4636c0.3941,0.3941 0.88131,0.59066 1.46163,0.58918zM22.68451,42.18426c-0.5818,0 -1.0695,-0.19705 -1.4636,-0.59116c-0.3941,-0.3941 -0.59066,-0.88131 -0.58918,-1.46163v-13.13695l3.38683,-9.85259c0.17094,-0.47884 0.45371,-0.87245 0.84782,-1.18034c0.3941,-0.30789 0.83008,-0.46159 1.30744,-0.46159h17.65239c0.47884,0 0.91531,0.1537 1.30941,0.46159c0.3941,0.30789 0.67589,0.7015 0.84584,1.18034l3.38683,9.85259v13.13695c0,0.5818 -0.19705,1.0695 -0.59116,1.4636c-0.3941,0.3941 -0.88131,0.59066 -1.46163,0.58918c-0.5818,0 -1.0695,-0.19705 -1.4636,-0.59116c-0.3941,-0.3941 -0.59066,-0.88131 -0.58918,-1.46163v-2.05279h-20.52639v2.05279c0,0.5818 -0.19705,1.0695 -0.59116,1.4636c-0.3941,0.3941 -0.88131,0.59066 -1.46163,0.58918zM26.07134,23.71065h17.85782l-1.437,-4.10508h-14.98431zM24.7373,27.81574v6.15787zM24.7373,33.9736h20.52639v-6.15787h-20.52639z" id="icon" fill="#ffffff"/></g></svg>