<svg version="1.1" xmlns="http://www.w3.org/2000/svg" xmlns:xlink="http://www.w3.org/1999/xlink" width="70" height="70" viewBox="0,0,70,70" odoo-icon:version="1.0" xmlns:odoo-icon="https://ivantodorovich.github.io/odoo-icon" odoo-icon:size="70" odoo-icon:icon-size="0.6" odoo-icon:icon-color="#FFFFFF" odoo-icon:icon-flat-shadow-angle="135" odoo-icon:background-color="#a4426b" odoo-icon:background-gradient="0.2" odoo-icon:box-radius="3.5" odoo-icon:odoo-version="14.0"><defs><linearGradient x1="70" y1="0" x2="0" y2="70" gradientUnits="userSpaceOnUse" id="color-1"><stop offset="0" stop-color="#d7759e"/><stop offset="1" stop-color="#a4426b"/></linearGradient></defs><g fill="none" fill-rule="nonzero" stroke="none" stroke-width="1" stroke-linecap="butt" stroke-linejoin="miter" stroke-miterlimit="10" stroke-dasharray="" stroke-dashoffset="0" font-family="none" font-weight="none" font-size="none" text-anchor="none" style="mix-blend-mode: normal"><path d="M3.5,70c-1.933,0 -3.5,-1.567 -3.5,-3.5v-63c0,-1.933 1.567,-3.5 3.5,-3.5h63c1.933,0 3.5,1.567 3.5,3.5v63c0,1.933 -1.567,3.5 -3.5,3.5z" id="box" fill="url(#color-1)"/><path d="M65,1h-61c-1.95033,0 -3.2667,0.63396 -3.9491,1.90189c0.28378,-1.64806 1.72001,-2.90189 3.4491,-2.90189h63c1.72965,0 3.16627,1.25466 3.44938,2.90352c-0.69803,-1.26902 -2.34782,-1.90352 -4.94938,-1.90352z" id="topBoxShadow" fill="#ffffff" opacity="0.383"/><path d="M4,69h61c2.66667,0 4.33333,-1 5,-3v0.5c0,1.933 -1.567,3.5 -3.5,3.5h-63c-1.933,0 -3.5,-1.567 -3.5,-3.5c0,-0.1611 0,-0.32777 0,-0.5c0.66667,2 2,3 4,3z" id="bottomBoxShadow" fill="#000000" opacity="0.383"/><path d="M54.5526,29.9756c-0.40368,0.45234 -0.87502,0.83887 -1.39781,1.14615h-0.00556c-0.08157,0.04959 -0.16453,0.09501 -0.24795,0.14043l-0.04449,0.02178c-0.07137,0.038 -0.14414,0.07323 -0.21736,0.10752l-0.06767,0.03059c-0.06628,0.02966 -0.13301,0.05886 -0.20114,0.0862l-0.08435,0.03337c-0.06349,0.02456 -0.12653,0.0482 -0.19095,0.07045l-0.09594,0.03244c-0.06164,0.01993 -0.12421,0.03893 -0.18631,0.05701c-0.03522,0.01066 -0.06952,0.02086 -0.10521,0.02966c-0.05793,0.01715 -0.11957,0.03152 -0.18121,0.04635l-0.11123,0.02642c-0.05701,0.01251 -0.11957,0.02456 -0.18121,0.03522l-0.11401,0.02086c-0.06349,0.00973 -0.12745,0.01808 -0.19095,0.02642l-0.11309,0.01437c-0.06952,0.00742 -0.1395,0.01159 -0.20995,0.01715l-0.09779,0.00742c-0.10335,0.00927 -0.20624,0.00927 -0.31145,0.00927c-0.08852,0 -0.1738,-0.00742 -0.26417,-0.00742l-0.07786,-0.00463c-0.0672,-0.00371 -0.13394,-0.00927 -0.20022,-0.01437l-0.06952,-0.00649c-0.0825,-0.00927 -0.16453,-0.01993 -0.2461,-0.03152l-0.08528,-0.01344l-0.16546,-0.02966l-0.10428,-0.02086l-0.15665,-0.03615l-0.1738,-0.04542c-0.04171,-0.01159 -0.0825,-0.02271 -0.12328,-0.03522l-0.13579,-0.04264l-0.0862,-0.02873c-0.16731,-0.05793 -0.33091,-0.12328 -0.49173,-0.19558l-0.03522,-0.01622c-0.23822,-0.10891 -0.46903,-0.23451 -0.68963,-0.37587c-0.84165,-0.53484 -1.53175,-1.27731 -2.00402,-2.15511c-0.03337,-0.06257 -0.06535,-0.1256 -0.09686,-0.18909l-0.02966,-0.06071c-0.03337,-0.07045 -0.06535,-0.14228 -0.09594,-0.21366c-0.00834,-0.01808 -0.01529,-0.03615 -0.02271,-0.05515c-0.02642,-0.06349 -0.05144,-0.12745 -0.07601,-0.19187c-0.00649,-0.01622 -0.01251,-0.03244 -0.01808,-0.04866c-0.02734,-0.07508 -0.05237,-0.15016 -0.07693,-0.2271l-0.019,-0.06164c-0.02456,-0.07879 -0.04727,-0.15758 -0.06767,-0.23822v-0.01715c-0.01993,-0.07693 -0.038,-0.1548 -0.05423,-0.23266c-0.00371,-0.01993 -0.01159,-0.03893 -0.01159,-0.05886c-0.01622,-0.08157 -0.03152,-0.16314 -0.04449,-0.24517c-0.00649,-0.01529 -0.00649,-0.03152 -0.00649,-0.04727c-0.01159,-0.07508 -0.02086,-0.15109 -0.02873,-0.22802l-0.00556,-0.04357c-0.00788,-0.08528 -0.01437,-0.17009 -0.019,-0.25537v-0.05793c-0.00742,-0.08528 -0.00742,-0.17565 -0.00742,-0.26603c0,-0.10521 0.00371,-0.2081 0.00927,-0.31145c0.00185,-0.03244 0.00742,-0.06535 0.00742,-0.09779c0.00556,-0.07045 0.00973,-0.14043 0.01715,-0.20995c0.00463,-0.038 0.00973,-0.07508 0.01437,-0.11216c0.00834,-0.06442 0.01622,-0.12838 0.02642,-0.19187c0.00649,-0.038 0.01344,-0.07601 0.02086,-0.11401c0.01066,-0.05701 0.02271,-0.11957 0.03522,-0.18121c0.00834,-0.03708 0.01715,-0.07415 0.02642,-0.11123c0.01437,-0.05886 0.02873,-0.1205 0.04635,-0.18121c0.00927,-0.03522 0.019,-0.06952 0.02966,-0.10521c0.01808,-0.06257 0.03708,-0.12514 0.05701,-0.18631l0.03244,-0.09594c0.02271,-0.06442 0.04635,-0.12745 0.07045,-0.19095c0.01066,-0.02827 0.02178,-0.05608 0.03337,-0.08435c0.02734,-0.06767 0.05608,-0.13487 0.0862,-0.20114c0.00973,-0.02271 0.01993,-0.04542 0.03059,-0.06767c0.0343,-0.07323 0.06952,-0.14553 0.10752,-0.21736l0.02178,-0.04449c0.04542,-0.08342 0.0913,-0.16638 0.14043,-0.24795v-0.00556c0.30959,-0.51815 0.69751,-0.98532 1.15032,-1.38483c1.70833,-1.5095 4.14336,-1.87703 6.22107,-0.93851c2.07771,0.93851 3.41202,3.00834 3.40831,5.28812c0.00139,1.41125 -0.51352,2.77429 -1.44832,3.83192zM54.5526,33.66987v14.91843c-0.00278,2.79839 -2.27097,5.06612 -5.0689,5.06936h-30.41479c-2.79839,-0.00278 -5.06612,-2.27097 -5.0689,-5.0689v-21.72485c0.00278,-2.79839 2.27097,-5.06612 5.06936,-5.0689h23.60837c-1.60266,2.76734 -1.55399,6.19141 0.12745,8.91194l-8.52866,6.63355l-12.14599,-9.44678c-0.40785,-0.32628 -0.95983,-0.40785 -1.44462,-0.21319c-0.48478,0.19465 -0.82728,0.63495 -0.89634,1.15263c-0.06906,0.51769 0.14599,1.0326 0.56264,1.34729l13.03491,10.13826c0.52279,0.40646 1.25506,0.40646 1.77785,0l9.55523,-7.43164c2.79561,2.27978 6.71049,2.59215 9.83238,0.78372z" id="shadow" fill="#000000" opacity="0.3"/><path d="M54.32474,28.21678l-4.60896,4.60896c1.65313,0.09318 3.33525,-0.28571 4.83462,-1.15367l0.0022,-0.0022v14.91843c-0.00139,1.3992 -0.56913,2.66573 -1.48627,3.58286l-19.82884,19.82884h-29.73748c-1.933,0 -3.5,-1.567 -3.5,-3.5l0,-29.73257l15.4861,-15.4861c0.91721,-0.91721 2.18395,-1.48493 3.58326,-1.48632h23.60837c-0.86339,1.49084 -1.24753,3.17227 -1.15531,4.83162l4.58242,-4.58242c0.08588,-0.08588 0.1745,-0.16915 0.26577,-0.24967c1.70833,-1.5095 4.14336,-1.87703 6.22107,-0.93851c2.07771,0.93851 3.41202,3.00834 3.40831,5.28812c0.00139,1.41125 -0.51352,2.77429 -1.44832,3.83192l0.00093,-0.00046c-0.07373,0.08262 -0.14971,0.16303 -0.22785,0.24118z" id="flatShadow" fill="#000000" opacity="0.324"/><path d="M54.5526,27.9756c-0.40368,0.45234 -0.87502,0.83887 -1.39781,1.14615h-0.00556c-0.08157,0.04959 -0.16453,0.09501 -0.24795,0.14043l-0.04449,0.02178c-0.07137,0.038 -0.14414,0.07323 -0.21736,0.10752l-0.06767,0.03059c-0.06628,0.02966 -0.13301,0.05886 -0.20114,0.0862l-0.08435,0.03337c-0.06349,0.02456 -0.12653,0.0482 -0.19095,0.07045l-0.09594,0.03244c-0.06164,0.01993 -0.12421,0.03893 -0.18631,0.05701c-0.03522,0.01066 -0.06952,0.02086 -0.10521,0.02966c-0.05793,0.01715 -0.11957,0.03152 -0.18121,0.04635l-0.11123,0.02642c-0.05701,0.01251 -0.11957,0.02456 -0.18121,0.03522l-0.11401,0.02086c-0.06349,0.00973 -0.12745,0.01808 -0.19095,0.02642l-0.11309,0.01437c-0.06952,0.00742 -0.1395,0.01159 -0.20995,0.01715l-0.09779,0.00742c-0.10335,0.00927 -0.20624,0.00927 -0.31145,0.00927c-0.08852,0 -0.1738,-0.00742 -0.26417,-0.00742l-0.07786,-0.00463c-0.0672,-0.00371 -0.13394,-0.00927 -0.20022,-0.01437l-0.06952,-0.00649c-0.0825,-0.00927 -0.16453,-0.01993 -0.2461,-0.03152l-0.08528,-0.01344l-0.16546,-0.02966l-0.10428,-0.02086l-0.15665,-0.03615l-0.1738,-0.04542c-0.04171,-0.01159 -0.0825,-0.02271 -0.12328,-0.03522l-0.13579,-0.04264l-0.0862,-0.02873c-0.16731,-0.05793 -0.33091,-0.12328 -0.49173,-0.19558l-0.03522,-0.01622c-0.23822,-0.10891 -0.46903,-0.23451 -0.68963,-0.37587c-0.84165,-0.53484 -1.53175,-1.27731 -2.00402,-2.15511c-0.03337,-0.06257 -0.06535,-0.1256 -0.09686,-0.18909l-0.02966,-0.06071c-0.03337,-0.07045 -0.06535,-0.14228 -0.09594,-0.21366c-0.00834,-0.01808 -0.01529,-0.03615 -0.02271,-0.05515c-0.02642,-0.06349 -0.05144,-0.12745 -0.07601,-0.19187c-0.00649,-0.01622 -0.01251,-0.03244 -0.01808,-0.04866c-0.02734,-0.07508 -0.05237,-0.15016 -0.07693,-0.2271l-0.019,-0.06164c-0.02456,-0.07879 -0.04727,-0.15758 -0.06767,-0.23822v-0.01715c-0.01993,-0.07693 -0.038,-0.1548 -0.05423,-0.23266c-0.00371,-0.01993 -0.01159,-0.03893 -0.01159,-0.05886c-0.01622,-0.08157 -0.03152,-0.16314 -0.04449,-0.24517c-0.00649,-0.01529 -0.00649,-0.03152 -0.00649,-0.04727c-0.01159,-0.07508 -0.02086,-0.15109 -0.02873,-0.22802l-0.00556,-0.04357c-0.00788,-0.08528 -0.01437,-0.17009 -0.019,-0.25537v-0.05793c-0.00742,-0.08528 -0.00742,-0.17565 -0.00742,-0.26603c0,-0.10521 0.00371,-0.2081 0.00927,-0.31145c0.00185,-0.03244 0.00742,-0.06535 0.00742,-0.09779c0.00556,-0.07045 0.00973,-0.14043 0.01715,-0.20995c0.00463,-0.038 0.00973,-0.07508 0.01437,-0.11216c0.00834,-0.06442 0.01622,-0.12838 0.02642,-0.19187c0.00649,-0.038 0.01344,-0.07601 0.02086,-0.11401c0.01066,-0.05701 0.02271,-0.11957 0.03522,-0.18121c0.00834,-0.03708 0.01715,-0.07415 0.02642,-0.11123c0.01437,-0.05886 0.02873,-0.1205 0.04635,-0.18121c0.00927,-0.03522 0.019,-0.06952 0.02966,-0.10521c0.01808,-0.06257 0.03708,-0.12514 0.05701,-0.18631l0.03244,-0.09594c0.02271,-0.06442 0.04635,-0.12745 0.07045,-0.19095c0.01066,-0.02827 0.02178,-0.05608 0.03337,-0.08435c0.02734,-0.06767 0.05608,-0.13487 0.0862,-0.20114c0.00973,-0.02271 0.01993,-0.04542 0.03059,-0.06767c0.0343,-0.07323 0.06952,-0.14553 0.10752,-0.21736l0.02178,-0.04449c0.04542,-0.08342 0.0913,-0.16638 0.14043,-0.24795v-0.00556c0.30959,-0.51815 0.69751,-0.98532 1.15032,-1.38483c1.70833,-1.5095 4.14336,-1.87703 6.22107,-0.93851c2.07771,0.93851 3.41202,3.00834 3.40831,5.28812c0.00139,1.41125 -0.51352,2.77429 -1.44832,3.83192zM54.5526,31.66987v14.91843c-0.00278,2.79839 -2.27097,5.06612 -5.0689,5.06936h-30.41479c-2.79839,-0.00278 -5.06612,-2.27097 -5.0689,-5.0689v-21.72485c0.00278,-2.79839 2.27097,-5.06612 5.06936,-5.0689h23.60837c-1.60266,2.76734 -1.55399,6.19141 0.12745,8.91194l-8.52866,6.63355l-12.14599,-9.44678c-0.40785,-0.32628 -0.95983,-0.40785 -1.44462,-0.21319c-0.48478,0.19465 -0.82728,0.63495 -0.89634,1.15263c-0.06906,0.51769 0.14599,1.0326 0.56264,1.34729l13.03491,10.13826c0.52279,0.40646 1.25506,0.40646 1.77785,0l9.55523,-7.43164c2.79561,2.27978 6.71049,2.59215 9.83238,0.78372z" id="icon" fill="#ffffff"/></g></svg>