<svg version="1.1" xmlns="http://www.w3.org/2000/svg" xmlns:xlink="http://www.w3.org/1999/xlink" width="70" height="70" viewBox="0,0,70,70" odoo-icon:version="1.0" xmlns:odoo-icon="https://ivantodorovich.github.io/odoo-icon" odoo-icon:size="70" odoo-icon:icon-size="0.59" odoo-icon:icon-color="#FFFFFF" odoo-icon:icon-flat-shadow-angle="135" odoo-icon:background-color="#039be5" odoo-icon:background-gradient="0.2" odoo-icon:box-radius="3.5" odoo-icon:odoo-version="14.0"><defs><linearGradient x1="70" y1="0" x2="0" y2="70" gradientUnits="userSpaceOnUse" id="color-1"><stop offset="0" stop-color="#36ceff"/><stop offset="1" stop-color="#039be5"/></linearGradient></defs><g fill="none" fill-rule="nonzero" stroke="none" stroke-width="1" stroke-linecap="butt" stroke-linejoin="miter" stroke-miterlimit="10" stroke-dasharray="" stroke-dashoffset="0" font-family="none" font-weight="none" font-size="none" text-anchor="none" style="mix-blend-mode: normal"><path d="M3.5,70c-1.933,0 -3.5,-1.567 -3.5,-3.5v-63c0,-1.933 1.567,-3.5 3.5,-3.5h63c1.933,0 3.5,1.567 3.5,3.5v63c0,1.933 -1.567,3.5 -3.5,3.5z" id="box" fill="url(#color-1)"/><path d="M65,1h-61c-1.95033,0 -3.2667,0.63396 -3.9491,1.90189c0.28378,-1.64806 1.72001,-2.90189 3.4491,-2.90189h63c1.72965,0 3.16627,1.25466 3.44938,2.90352c-0.69803,-1.26902 -2.34782,-1.90352 -4.94938,-1.90352z" id="topBoxShadow" fill="#ffffff" opacity="0.383"/><path d="M4,69h61c2.66667,0 4.33333,-1 5,-3v0.5c0,1.933 -1.567,3.5 -3.5,3.5h-63c-1.933,0 -3.5,-1.567 -3.5,-3.5c0,-0.1611 0,-0.32777 0,-0.5c0.66667,2 2,3 4,3z" id="bottomBoxShadow" fill="#000000" opacity="0.383"/><path d="M26.96152,46.89144h0.00336c0.18731,0.02604 0.35783,0.12096 0.47794,0.26585l-0.00168,-0.00168c0.24401,0.29273 0.26753,0.70893 0.05838,1.02728l-0.00168,0.00168c-0.09576,0.13187 -0.22805,0.23351 -0.38092,0.29231l0.021,-0.00546c-0.32381,0.09324 -0.66189,0.12893 -0.9983,0.105h-0.68079v-1.73075h0.60142l0.17093,-0.00168c0.24485,-0.00084 0.48928,0.01428 0.73203,0.04536zM31.75395,47.24171l0.83619,2.26455h-1.67237zM49.5982,16c1.73033,0 3.13265,1.3914 3.13265,3.10788v35.78425c0,1.71647 -1.40232,3.10788 -3.13265,3.10788h-29.19639c-1.73033,0 -3.13265,-1.39098 -3.13265,-3.10788v-35.78425c0,-1.71647 1.40232,-3.10788 3.13265,-3.10788zM35.62577,24.949h0.04242c1.31581,-0.0315 2.61608,-0.13313 3.71139,-0.28013l-0.02478,-0.0735c-0.17807,-0.4603 -0.38806,-0.90464 -0.59806,-1.27591l-0.01932,-0.03864c-0.40738,-0.76815 -0.95252,-1.4523 -1.61064,-2.0281l0.00336,0.00168c-0.30155,-0.25703 -0.68079,-0.42502 -1.10792,-0.46702c-0.12683,-0.01386 -0.27005,-0.01386 -0.39688,-0.02814zM39.88776,35.47504l-0.02814,0.12767c0.31751,-1.22845 0.50986,-2.50772 0.56446,-3.85881h-4.79789v3.388h0.03528c1.41618,0.0231 2.82985,0.13523 4.23175,0.33599zM35.6241,40.947h0.00336c0.13145,-0.00168 0.26291,-0.01092 0.39352,-0.02814h0.00882c0.40528,-0.0378 0.78831,-0.19907 1.097,-0.46198l0.00882,-0.00714c0.66567,-0.57958 1.21585,-1.27843 1.62114,-2.0596l-0.03192,0.063c0.27047,-0.49558 0.50398,-1.01048 0.69843,-1.54008l0.17303,0.01932c-1.31623,-0.17807 -2.64211,-0.27803 -3.97052,-0.29903zM39.83275,38.97644l-0.01932,0.04032c-0.20285,0.38512 -0.4393,0.75051 -0.69339,1.07642l0.06342,-0.02604c1.13437,-0.50314 2.16543,-1.20955 3.0411,-2.08438c0.14111,-0.14195 0.29819,-0.29567 0.4393,-0.46534h-0.01428c-0.65811,-0.16631 -1.32295,-0.30785 -1.9756,-0.41998l-0.02814,0.08904c-0.23267,0.64047 -0.5149,1.25827 -0.80973,1.78157zM41.68697,31.74223l-0.00168,0.03864c-0.05838,1.38048 -0.25913,2.72485 -0.56278,3.88148c0.78999,0.15329 1.57494,0.33179 2.35317,0.53548l0.17093,0.042l-0.02478,0.042c0.87105,-1.37041 1.3998,-2.92728 1.54176,-4.54128zM35.63459,29.97158h4.79789l-0.00168,-0.03486c-0.0546,-1.35823 -0.26417,-2.67655 -0.57958,-3.81513c-1.40148,0.18395 -2.81221,0.29021 -4.22545,0.31877zM41.08304,25.92168c0.34061,1.32379 0.53548,2.68033 0.58084,4.04612h3.48712l-0.00168,-0.03654c-0.14657,-1.69379 -0.71775,-3.26537 -1.58586,-4.57446l-0.16925,0.042c-0.75849,0.21167 -1.51698,0.38134 -2.31075,0.52162zM42.56012,24.06536c-0.11298,-0.12599 -0.22763,-0.23981 -0.32633,-0.36581c-0.89582,-0.8849 -1.94746,-1.5993 -3.10284,-2.1079c0.26249,0.36413 0.50314,0.74379 0.71985,1.13689l-0.03528,-0.07014c0.31709,0.58294 0.58882,1.18897 0.81309,1.81307c0.63837,-0.11214 1.28935,-0.25199 1.92814,-0.4078zM32.86019,21.25525l-0.00714,0.00546c-0.63837,0.56698 -1.17301,1.24609 -1.59468,2.04574l0.03192,-0.063c-0.23477,0.4288 -0.44434,0.87315 -0.65433,1.4124l-0.16925,-0.01932c1.30153,0.17807 2.61272,0.27803 3.92642,0.29903v-4.17547h-0.00336c-0.13943,0.00168 -0.27677,0.01218 -0.39352,0.02814h-0.00882c-0.41788,0.04032 -0.79923,0.20831 -1.097,0.46366zM28.89806,35.66571c-0.32129,-1.25197 -0.50734,-2.55812 -0.54472,-3.92348h-3.48712l0.00168,0.03486c0.12935,1.58838 0.64971,3.12132 1.5153,4.464l0.17093,-0.042c0.74841,-0.21083 1.53924,-0.38008 2.34393,-0.5338zM27.36723,37.53296c0.14111,0.16967 0.28223,0.32381 0.42334,0.47962c0.89582,0.8849 1.94746,1.5993 3.10284,2.1079c-0.24989,-0.34523 -0.48046,-0.70809 -0.71943,-1.13647l0.03528,0.07014c-0.32465,-0.59134 -0.60688,-1.20745 -0.87147,-1.94074c-0.66441,0.11172 -1.32337,0.25199 -1.9756,0.41998zM30.59186,36.92062l0.02814,0.08232c0.18143,0.47668 0.3952,0.94034 0.64047,1.38762l0.01932,0.03864c0.40864,0.76731 0.9542,1.4544 1.61064,2.0281l-0.00714,-0.00504c0.17597,0.14699 0.36287,0.28055 0.559,0.39898c0.31457,0.04746 0.63123,0.08022 0.94916,0.09786v-4.31533h-0.01764c-1.33513,0.01596 -2.65135,0.11718 -3.78027,0.28013zM34.39312,31.73887h-4.81889l0.00168,0.03318c0.0462,1.24567 0.23099,2.48252 0.55102,3.68829c1.38594,-0.19319 2.80045,-0.30491 4.26619,-0.33347zM30.16473,26.12496l0.02982,-0.12935c-0.34397,1.26163 -0.55564,2.57744 -0.62074,3.9722h4.81889v-3.52954h-0.01764c-1.40736,-0.01176 -2.81263,-0.12012 -4.20529,-0.32381zM30.88038,21.603l-0.05754,0.0231c-1.12681,0.5065 -2.15409,1.20745 -3.03396,2.0701c-0.11634,0.11928 -0.23015,0.24107 -0.34061,0.36581h0.01428c0.63837,0.15581 1.28137,0.29189 1.92814,0.4078l0.02478,-0.08232c0.20537,-0.57286 0.45694,-1.12849 0.75303,-1.66061l0.02982,-0.05754c0.21335,-0.3805 0.44938,-0.74589 0.68205,-1.06634zM26.45544,25.35513l0.0231,-0.03654c-0.92396,1.3914 -1.48254,2.98944 -1.6245,4.64963h3.48712l0.00168,-0.03486c0.04788,-1.35571 0.24695,-2.70217 0.59428,-4.0142c-0.79377,-0.15581 -1.5594,-0.32381 -2.31075,-0.52162zM28.21223,49.23999l0.00546,-0.00336c0.22049,-0.14993 0.39604,-0.35615 0.50818,-0.5968l-0.00546,0.01386c0.14111,-0.28853 0.21881,-0.61234 0.21881,-0.95546c0,-0.44434 -0.13229,-0.85761 -0.35447,-1.19527l-0.00336,-0.00336c-0.22301,-0.29105 -0.5359,-0.50188 -0.89078,-0.60016l0.04074,0.00714c-0.49852,-0.09408 -1.0067,-0.12935 -1.51362,-0.105h-1.9987v6.1158h1.24693v-2.30655h0.79923l0.17639,0.00168c0.37546,0.00084 0.75093,-0.02814 1.12178,-0.08568l0.01428,-0.00336c0.22763,-0.06006 0.4435,-0.15875 0.63669,-0.29231zM34.88702,51.9157l-2.46614,-6.1158h-1.31749l-2.39894,6.11622h1.31749l0.51154,-1.3914h2.4695l0.53968,1.3914zM39.9579,51.12068c0.17807,-0.27047 0.28097,-0.5947 0.28097,-0.94286v-0.04368l0.00168,-0.08064c0.00126,-0.31373 -0.08274,-0.622 -0.24359,-0.89246l-0.00336,-0.00714c-0.16589,-0.25367 -0.3952,-0.46366 -0.67575,-0.61234l0.04242,0.01764c-0.42502,-0.19235 -0.87483,-0.34313 -1.38804,-0.45316l-0.01932,-0.00168c-0.41116,-0.06636 -0.79713,-0.20999 -1.12891,-0.40402h-0.00168c-0.1113,-0.08232 -0.18353,-0.21335 -0.18353,-0.36035v-0.00504c0.00168,-0.15077 0.0756,-0.29189 0.19949,-0.37966l-0.00546,0.00336c0.25031,-0.16799 0.54934,-0.24779 0.85089,-0.22763l0.09492,-0.00336c0.24989,-0.00084 0.49432,0.07434 0.70011,0.21545c0.19067,0.17723 0.31121,0.4162 0.34061,0.67365l1.24693,-0.05586v-0.02814c0,-0.50734 -0.22301,-0.9899 -0.61024,-1.32127l0.00714,0.00546c-0.49852,-0.37966 -1.12094,-0.56236 -1.74713,-0.5128l-0.08358,-0.00168c-0.40906,0 -0.79923,0.07686 -1.13605,0.21167l-0.0105,0.00336c-0.30323,0.12935 -0.56278,0.34313 -0.75303,0.61444l0.00336,-0.00546c-0.17303,0.24485 -0.27341,0.54262 -0.27341,0.86433v0.04368c0.00042,0.4624 0.20495,0.9017 0.55942,1.20157c0.41662,0.30533 0.89792,0.51322 1.40736,0.60772c0.50608,0.12767 0.84669,0.21167 0.9878,0.26753l0.00882,0.00168c0.16631,0.05376 0.31835,0.14405 0.44434,0.26417v-0.00168c0.08316,0.0987 0.12893,0.22301 0.12893,0.35195v0.01596c-0.00882,0.23351 -0.12348,0.45022 -0.31205,0.58966l0.00714,-0.00336c-0.55774,0.35321 -1.27423,0.34355 -1.82231,-0.02436c-0.23813,-0.22763 -0.39688,-0.5338 -0.4393,-0.88364l-1.20493,0.11214v0.00714c0.04158,0.59386 0.30995,1.14949 0.74967,1.55394l-0.00714,-0.00546c0.51826,0.38764 1.15915,0.57874 1.80719,0.53884l0.12432,0.00168c0.44098,0 0.86097,-0.084 1.22425,-0.22763l0.01218,-0.00336c0.34019,-0.13733 0.62871,-0.37672 0.82569,-0.68415zM37.77273,52.02742h0.00546c-0.00042,0 -0.00084,0 -0.00084,0zM37.71813,45.70331h-0.00336c0.00042,0 0.00042,0 0.00084,0zM39.9495,51.13327l0.00336,-0.00714l0.00504,-0.00588c-0.00294,0.0042 -0.00546,0.0084 -0.0084,0.0126zM45.70327,51.11396c-0.00294,0.00462 -0.00588,0.00924 -0.00882,0.01386c-0.00168,0.00252 -0.00336,0.00462 -0.00504,0.00714zM45.69445,51.12781c0.18647,-0.26081 0.28643,-0.57244 0.28601,-0.89204l-0.00336,-0.10206l0.00168,-0.07854c0.00126,-0.31373 -0.08274,-0.622 -0.24359,-0.89246l-0.00336,-0.00714c-0.16589,-0.25367 -0.3952,-0.46366 -0.67575,-0.61234l0.04242,0.01764c-0.42502,-0.19235 -0.87483,-0.34313 -1.38804,-0.45316l-0.01932,-0.00336c-0.41116,-0.06804 -0.79713,-0.20999 -1.12723,-0.40402h-0.00168c-0.1113,-0.08232 -0.18353,-0.21335 -0.18353,-0.36035v-0.00504c0.00168,-0.15077 0.0756,-0.29189 0.19949,-0.37966l-0.00546,0.00336c0.25031,-0.16799 0.54934,-0.24779 0.85089,-0.22763l0.09492,-0.00336c0.24989,-0.00084 0.49432,0.07434 0.70011,0.21545c0.19067,0.17723 0.31121,0.4162 0.34061,0.67365l1.24693,-0.05586v-0.02814c0,-0.50734 -0.22301,-0.9899 -0.61024,-1.32127l0.00714,0.00546c-0.49852,-0.37966 -1.12094,-0.56236 -1.74713,-0.5128l-0.08358,-0.00168c-0.40738,0 -0.79923,0.07686 -1.13605,0.21167l-0.0105,0.00336c-0.30449,0.13019 -0.5653,0.34313 -0.75303,0.61444l0.00336,-0.00546c-0.17303,0.24485 -0.27341,0.54262 -0.27341,0.86433v0.04368c0.00042,0.4624 0.20495,0.9017 0.55942,1.20157c0.41662,0.30533 0.89792,0.51322 1.40736,0.60772c0.50608,0.12767 0.84669,0.21167 0.9878,0.26753l0.00882,0.00168c0.16631,0.05376 0.31835,0.14405 0.44434,0.26417v-0.00168c0.08316,0.0987 0.12893,0.22301 0.12893,0.35195v0.01596c-0.00882,0.23351 -0.12348,0.45022 -0.31205,0.58966l0.00714,-0.00336c-0.55774,0.35321 -1.27423,0.34355 -1.82231,-0.02436c-0.23813,-0.22763 -0.39688,-0.5338 -0.4393,-0.88364l-1.20493,0.11214v0.00714c0.04158,0.59386 0.30995,1.14949 0.74967,1.55394l-0.00714,-0.00546c0.51826,0.38764 1.15915,0.57874 1.80719,0.53884l0.12432,0.00168c0.44098,0 0.86097,-0.084 1.22425,-0.22763l0.01218,-0.00336c0.33515,-0.13565 0.6199,-0.36959 0.81645,-0.67029zM43.51264,52.02742h0.00546c-0.00042,0 -0.00084,0 -0.00084,0zM43.45762,45.70331h-0.00336c0.00042,0 0.00042,0 0.00084,0zM45.97668,50.13581v-0.00336v0.00126z" id="shadow" fill="#000000" opacity="0.3"/><path d="M52.73085,17.10788v35.78425c0,0.85379 -0.34696,1.62716 -0.90866,2.18886l-14.91902,14.91902h-33.40317c-1.933,0 -3.5,-1.567 -3.5,-3.5l0,-33.40317l18.17781,-18.17781c0.56755,-0.56755 1.35434,-0.91902 2.22399,-0.91902l29.19639,0c1.73033,0 3.13265,1.3914 3.13265,3.10788z" id="flatShadow" fill="#000000" opacity="0.324"/><path d="M26.96152,44.89144h0.00336c0.18731,0.02604 0.35783,0.12096 0.47794,0.26585l-0.00168,-0.00168c0.24401,0.29273 0.26753,0.70893 0.05838,1.02728l-0.00168,0.00168c-0.09576,0.13187 -0.22805,0.23351 -0.38092,0.29231l0.021,-0.00546c-0.32381,0.09324 -0.66189,0.12893 -0.9983,0.105h-0.68079v-1.73075h0.60142l0.17093,-0.00168c0.24485,-0.00084 0.48928,0.01428 0.73203,0.04536zM31.75395,45.24171l0.83619,2.26455h-1.67237zM49.5982,14c1.73033,0 3.13265,1.3914 3.13265,3.10788v35.78425c0,1.71647 -1.40232,3.10788 -3.13265,3.10788h-29.19639c-1.73033,0 -3.13265,-1.39098 -3.13265,-3.10788v-35.78425c0,-1.71647 1.40232,-3.10788 3.13265,-3.10788zM35.62577,22.949h0.04242c1.31581,-0.0315 2.61608,-0.13313 3.71139,-0.28013l-0.02478,-0.0735c-0.17807,-0.4603 -0.38806,-0.90464 -0.59806,-1.27591l-0.01932,-0.03864c-0.40738,-0.76815 -0.95252,-1.4523 -1.61064,-2.0281l0.00336,0.00168c-0.30155,-0.25703 -0.68079,-0.42502 -1.10792,-0.46702c-0.12683,-0.01386 -0.27005,-0.01386 -0.39688,-0.02814zM39.88776,33.47504l-0.02814,0.12767c0.31751,-1.22845 0.50986,-2.50772 0.56446,-3.85881h-4.79789v3.388h0.03528c1.41618,0.0231 2.82985,0.13523 4.23175,0.33599zM35.6241,38.947h0.00336c0.13145,-0.00168 0.26291,-0.01092 0.39352,-0.02814h0.00882c0.40528,-0.0378 0.78831,-0.19907 1.097,-0.46198l0.00882,-0.00714c0.66567,-0.57958 1.21585,-1.27843 1.62114,-2.0596l-0.03192,0.063c0.27047,-0.49558 0.50398,-1.01048 0.69843,-1.54008l0.17303,0.01932c-1.31623,-0.17807 -2.64211,-0.27803 -3.97052,-0.29903zM39.83275,36.97644l-0.01932,0.04032c-0.20285,0.38512 -0.4393,0.75051 -0.69339,1.07642l0.06342,-0.02604c1.13437,-0.50314 2.16543,-1.20955 3.0411,-2.08438c0.14111,-0.14195 0.29819,-0.29567 0.4393,-0.46534h-0.01428c-0.65811,-0.16631 -1.32295,-0.30785 -1.9756,-0.41998l-0.02814,0.08904c-0.23267,0.64047 -0.5149,1.25827 -0.80973,1.78157zM41.68697,29.74223l-0.00168,0.03864c-0.05838,1.38048 -0.25913,2.72485 -0.56278,3.88148c0.78999,0.15329 1.57494,0.33179 2.35317,0.53548l0.17093,0.042l-0.02478,0.042c0.87105,-1.37041 1.3998,-2.92728 1.54176,-4.54128zM35.63459,27.97158h4.79789l-0.00168,-0.03486c-0.0546,-1.35823 -0.26417,-2.67655 -0.57958,-3.81513c-1.40148,0.18395 -2.81221,0.29021 -4.22545,0.31877zM41.08304,23.92168c0.34061,1.32379 0.53548,2.68033 0.58084,4.04612h3.48712l-0.00168,-0.03654c-0.14657,-1.69379 -0.71775,-3.26537 -1.58586,-4.57446l-0.16925,0.042c-0.75849,0.21167 -1.51698,0.38134 -2.31075,0.52162zM42.56012,22.06536c-0.11298,-0.12599 -0.22763,-0.23981 -0.32633,-0.36581c-0.89582,-0.8849 -1.94746,-1.5993 -3.10284,-2.1079c0.26249,0.36413 0.50314,0.74379 0.71985,1.13689l-0.03528,-0.07014c0.31709,0.58294 0.58882,1.18897 0.81309,1.81307c0.63837,-0.11214 1.28935,-0.25199 1.92814,-0.4078zM32.86019,19.25525l-0.00714,0.00546c-0.63837,0.56698 -1.17301,1.24609 -1.59468,2.04574l0.03192,-0.063c-0.23477,0.4288 -0.44434,0.87315 -0.65433,1.4124l-0.16925,-0.01932c1.30153,0.17807 2.61272,0.27803 3.92642,0.29903v-4.17547h-0.00336c-0.13943,0.00168 -0.27677,0.01218 -0.39352,0.02814h-0.00882c-0.41788,0.04032 -0.79923,0.20831 -1.097,0.46366zM28.89806,33.66571c-0.32129,-1.25197 -0.50734,-2.55812 -0.54472,-3.92348h-3.48712l0.00168,0.03486c0.12935,1.58838 0.64971,3.12132 1.5153,4.464l0.17093,-0.042c0.74841,-0.21083 1.53924,-0.38008 2.34393,-0.5338zM27.36723,35.53296c0.14111,0.16967 0.28223,0.32381 0.42334,0.47962c0.89582,0.8849 1.94746,1.5993 3.10284,2.1079c-0.24989,-0.34523 -0.48046,-0.70809 -0.71943,-1.13647l0.03528,0.07014c-0.32465,-0.59134 -0.60688,-1.20745 -0.87147,-1.94074c-0.66441,0.11172 -1.32337,0.25199 -1.9756,0.41998zM30.59186,34.92062l0.02814,0.08232c0.18143,0.47668 0.3952,0.94034 0.64047,1.38762l0.01932,0.03864c0.40864,0.76731 0.9542,1.4544 1.61064,2.0281l-0.00714,-0.00504c0.17597,0.14699 0.36287,0.28055 0.559,0.39898c0.31457,0.04746 0.63123,0.08022 0.94916,0.09786v-4.31533h-0.01764c-1.33513,0.01596 -2.65135,0.11718 -3.78027,0.28013zM34.39312,29.73887h-4.81889l0.00168,0.03318c0.0462,1.24567 0.23099,2.48252 0.55102,3.68829c1.38594,-0.19319 2.80045,-0.30491 4.26619,-0.33347zM30.16473,24.12496l0.02982,-0.12935c-0.34397,1.26163 -0.55564,2.57744 -0.62074,3.9722h4.81889v-3.52954h-0.01764c-1.40736,-0.01176 -2.81263,-0.12012 -4.20529,-0.32381zM30.88038,19.603l-0.05754,0.0231c-1.12681,0.5065 -2.15409,1.20745 -3.03396,2.0701c-0.11634,0.11928 -0.23015,0.24107 -0.34061,0.36581h0.01428c0.63837,0.15581 1.28137,0.29189 1.92814,0.4078l0.02478,-0.08232c0.20537,-0.57286 0.45694,-1.12849 0.75303,-1.66061l0.02982,-0.05754c0.21335,-0.3805 0.44938,-0.74589 0.68205,-1.06634zM26.45544,23.35513l0.0231,-0.03654c-0.92396,1.3914 -1.48254,2.98944 -1.6245,4.64963h3.48712l0.00168,-0.03486c0.04788,-1.35571 0.24695,-2.70217 0.59428,-4.0142c-0.79377,-0.15581 -1.5594,-0.32381 -2.31075,-0.52162zM28.21223,47.23999l0.00546,-0.00336c0.22049,-0.14993 0.39604,-0.35615 0.50818,-0.5968l-0.00546,0.01386c0.14111,-0.28853 0.21881,-0.61234 0.21881,-0.95546c0,-0.44434 -0.13229,-0.85761 -0.35447,-1.19527l-0.00336,-0.00336c-0.22301,-0.29105 -0.5359,-0.50188 -0.89078,-0.60016l0.04074,0.00714c-0.49852,-0.09408 -1.0067,-0.12935 -1.51362,-0.105h-1.9987v6.1158h1.24693v-2.30655h0.79923l0.17639,0.00168c0.37546,0.00084 0.75093,-0.02814 1.12178,-0.08568l0.01428,-0.00336c0.22763,-0.06006 0.4435,-0.15875 0.63669,-0.29231zM34.88702,49.9157l-2.46614,-6.1158h-1.31749l-2.39894,6.11622h1.31749l0.51154,-1.3914h2.4695l0.53968,1.3914zM39.9579,49.12068c0.17807,-0.27047 0.28097,-0.5947 0.28097,-0.94286v-0.04368l0.00168,-0.08064c0.00126,-0.31373 -0.08274,-0.622 -0.24359,-0.89246l-0.00336,-0.00714c-0.16589,-0.25367 -0.3952,-0.46366 -0.67575,-0.61234l0.04242,0.01764c-0.42502,-0.19235 -0.87483,-0.34313 -1.38804,-0.45316l-0.01932,-0.00168c-0.41116,-0.06636 -0.79713,-0.20999 -1.12891,-0.40402h-0.00168c-0.1113,-0.08232 -0.18353,-0.21335 -0.18353,-0.36035v-0.00504c0.00168,-0.15077 0.0756,-0.29189 0.19949,-0.37966l-0.00546,0.00336c0.25031,-0.16799 0.54934,-0.24779 0.85089,-0.22763l0.09492,-0.00336c0.24989,-0.00084 0.49432,0.07434 0.70011,0.21545c0.19067,0.17723 0.31121,0.4162 0.34061,0.67365l1.24693,-0.05586v-0.02814c0,-0.50734 -0.22301,-0.9899 -0.61024,-1.32127l0.00714,0.00546c-0.49852,-0.37966 -1.12094,-0.56236 -1.74713,-0.5128l-0.08358,-0.00168c-0.40906,0 -0.79923,0.07686 -1.13605,0.21167l-0.0105,0.00336c-0.30323,0.12935 -0.56278,0.34313 -0.75303,0.61444l0.00336,-0.00546c-0.17303,0.24485 -0.27341,0.54262 -0.27341,0.86433v0.04368c0.00042,0.4624 0.20495,0.9017 0.55942,1.20157c0.41662,0.30533 0.89792,0.51322 1.40736,0.60772c0.50608,0.12767 0.84669,0.21167 0.9878,0.26753l0.00882,0.00168c0.16631,0.05376 0.31835,0.14405 0.44434,0.26417v-0.00168c0.08316,0.0987 0.12893,0.22301 0.12893,0.35195v0.01596c-0.00882,0.23351 -0.12348,0.45022 -0.31205,0.58966l0.00714,-0.00336c-0.55774,0.35321 -1.27423,0.34355 -1.82231,-0.02436c-0.23813,-0.22763 -0.39688,-0.5338 -0.4393,-0.88364l-1.20493,0.11214v0.00714c0.04158,0.59386 0.30995,1.14949 0.74967,1.55394l-0.00714,-0.00546c0.51826,0.38764 1.15915,0.57874 1.80719,0.53884l0.12432,0.00168c0.44098,0 0.86097,-0.084 1.22425,-0.22763l0.01218,-0.00336c0.34019,-0.13733 0.62871,-0.37672 0.82569,-0.68415zM37.77273,50.02742h0.00546c-0.00042,0 -0.00084,0 -0.00084,0zM37.71813,43.70331h-0.00336c0.00042,0 0.00042,0 0.00084,0zM39.9495,49.13327l0.00336,-0.00714l0.00504,-0.00588c-0.00294,0.0042 -0.00546,0.0084 -0.0084,0.0126zM45.70327,49.11396c-0.00294,0.00462 -0.00588,0.00924 -0.00882,0.01386c-0.00168,0.00252 -0.00336,0.00462 -0.00504,0.00714zM45.69445,49.12781c0.18647,-0.26081 0.28643,-0.57244 0.28601,-0.89204l-0.00336,-0.10206l0.00168,-0.07854c0.00126,-0.31373 -0.08274,-0.622 -0.24359,-0.89246l-0.00336,-0.00714c-0.16589,-0.25367 -0.3952,-0.46366 -0.67575,-0.61234l0.04242,0.01764c-0.42502,-0.19235 -0.87483,-0.34313 -1.38804,-0.45316l-0.01932,-0.00336c-0.41116,-0.06804 -0.79713,-0.20999 -1.12723,-0.40402h-0.00168c-0.1113,-0.08232 -0.18353,-0.21335 -0.18353,-0.36035v-0.00504c0.00168,-0.15077 0.0756,-0.29189 0.19949,-0.37966l-0.00546,0.00336c0.25031,-0.16799 0.54934,-0.24779 0.85089,-0.22763l0.09492,-0.00336c0.24989,-0.00084 0.49432,0.07434 0.70011,0.21545c0.19067,0.17723 0.31121,0.4162 0.34061,0.67365l1.24693,-0.05586v-0.02814c0,-0.50734 -0.22301,-0.9899 -0.61024,-1.32127l0.00714,0.00546c-0.49852,-0.37966 -1.12094,-0.56236 -1.74713,-0.5128l-0.08358,-0.00168c-0.40738,0 -0.79923,0.07686 -1.13605,0.21167l-0.0105,0.00336c-0.30449,0.13019 -0.5653,0.34313 -0.75303,0.61444l0.00336,-0.00546c-0.17303,0.24485 -0.27341,0.54262 -0.27341,0.86433v0.04368c0.00042,0.4624 0.20495,0.9017 0.55942,1.20157c0.41662,0.30533 0.89792,0.51322 1.40736,0.60772c0.50608,0.12767 0.84669,0.21167 0.9878,0.26753l0.00882,0.00168c0.16631,0.05376 0.31835,0.14405 0.44434,0.26417v-0.00168c0.08316,0.0987 0.12893,0.22301 0.12893,0.35195v0.01596c-0.00882,0.23351 -0.12348,0.45022 -0.31205,0.58966l0.00714,-0.00336c-0.55774,0.35321 -1.27423,0.34355 -1.82231,-0.02436c-0.23813,-0.22763 -0.39688,-0.5338 -0.4393,-0.88364l-1.20493,0.11214v0.00714c0.04158,0.59386 0.30995,1.14949 0.74967,1.55394l-0.00714,-0.00546c0.51826,0.38764 1.15915,0.57874 1.80719,0.53884l0.12432,0.00168c0.44098,0 0.86097,-0.084 1.22425,-0.22763l0.01218,-0.00336c0.33515,-0.13565 0.6199,-0.36959 0.81645,-0.67029zM43.51264,50.02742h0.00546c-0.00042,0 -0.00084,0 -0.00084,0zM43.45762,43.70331h-0.00336c0.00042,0 0.00042,0 0.00084,0zM45.97668,48.13581v-0.00336v0.00126z" id="icon" fill="#ffffff"/></g></svg>