<svg version="1.1" xmlns="http://www.w3.org/2000/svg" xmlns:xlink="http://www.w3.org/1999/xlink" width="70" height="70" viewBox="0,0,70,70" odoo-icon:version="1.0" xmlns:odoo-icon="https://ivantodorovich.github.io/odoo-icon" odoo-icon:size="70" odoo-icon:icon-size="0.55" odoo-icon:icon-color="#FFFFFF" odoo-icon:icon-flat-shadow-angle="135" odoo-icon:background-color="#f4511e" odoo-icon:background-gradient="0.2" odoo-icon:box-radius="3.5" odoo-icon:odoo-version="14.0"><defs><linearGradient x1="70" y1="0" x2="0" y2="70" gradientUnits="userSpaceOnUse" id="color-1"><stop offset="0" stop-color="#ff8451"/><stop offset="1" stop-color="#f4511e"/></linearGradient></defs><g fill="none" fill-rule="nonzero" stroke="none" stroke-width="1" stroke-linecap="butt" stroke-linejoin="miter" stroke-miterlimit="10" stroke-dasharray="" stroke-dashoffset="0" font-family="none" font-weight="none" font-size="none" text-anchor="none" style="mix-blend-mode: normal"><path d="M3.5,70c-1.933,0 -3.5,-1.567 -3.5,-3.5v-63c0,-1.933 1.567,-3.5 3.5,-3.5h63c1.933,0 3.5,1.567 3.5,3.5v63c0,1.933 -1.567,3.5 -3.5,3.5z" id="box" fill="url(#color-1)"/><path d="M65,1h-61c-1.95033,0 -3.2667,0.63396 -3.9491,1.90189c0.28378,-1.64806 1.72001,-2.90189 3.4491,-2.90189h63c1.72965,0 3.16627,1.25466 3.44938,2.90352c-0.69803,-1.26902 -2.34782,-1.90352 -4.94938,-1.90352z" id="topBoxShadow" fill="#ffffff" opacity="0.383"/><path d="M4,69h61c2.66667,0 4.33333,-1 5,-3v0.5c0,1.933 -1.567,3.5 -3.5,3.5h-63c-1.933,0 -3.5,-1.567 -3.5,-3.5c0,-0.1611 0,-0.32777 0,-0.5c0.66667,2 2,3 4,3z" id="bottomBoxShadow" fill="#000000" opacity="0.383"/><path d="M50.59991,17.5h-23.40009c-2.14485,0 -3.89986,1.75501 -3.89986,3.89986v23.40009c0,2.14485 1.75501,3.89986 3.89986,3.89986h23.40009c2.14485,0 3.89986,-1.75501 3.89986,-3.89986v-23.40009c0,-2.14485 -1.75501,-3.89986 -3.89986,-3.89986zM34.02515,32.12506c0,1.61835 -1.30666,2.92501 -2.92501,2.92501h-1.95016v3.89986h-2.92501v-11.70005h4.87518c1.61835,0 2.92501,1.30666 2.92501,2.92501zM43.77504,36.02539c0,1.61835 -1.30666,2.92501 -2.92501,2.92501h-4.87518v-11.70005h4.87518c1.61835,0 2.92501,1.30666 2.92501,2.92501zM51.57522,30.17536h-2.92501v1.95016h2.92501v2.92501h-2.92501v3.89986h-2.92501v-11.70005h5.85002zM29.14998,32.12506h1.95016v-1.95016h-1.95016zM19.40009,25.30019h-3.89986v27.29995c0,2.14485 1.75501,3.89986 3.89986,3.89986h27.29995v-3.89986h-27.29995zM38.89986,36.02539h1.95016v-5.85002h-1.95016z" id="shadow" fill="#000000" opacity="0.3"/><path d="M24.44556,16.64561c0.70686,-0.70686 1.68182,-1.14561 2.75425,-1.14561h23.40009c2.14485,0 3.89986,1.75501 3.89986,3.89986v23.40009l-7.80019,7.80019h0.00047v3.89986l-15.5,15.5h-27.70005c-1.933,0 -3.5,-1.567 -3.5,-3.5l0,-27.69958l15.50023,-15.50023l2.29075,0z" id="flatShadow" fill="#000000" opacity="0.324"/><path d="M50.59991,15.5h-23.40009c-2.14485,0 -3.89986,1.75501 -3.89986,3.89986v23.40009c0,2.14485 1.75501,3.89986 3.89986,3.89986h23.40009c2.14485,0 3.89986,-1.75501 3.89986,-3.89986v-23.40009c0,-2.14485 -1.75501,-3.89986 -3.89986,-3.89986zM34.02515,30.12506c0,1.61835 -1.30666,2.92501 -2.92501,2.92501h-1.95016v3.89986h-2.92501v-11.70005h4.87518c1.61835,0 2.92501,1.30666 2.92501,2.92501zM43.77504,34.02539c0,1.61835 -1.30666,2.92501 -2.92501,2.92501h-4.87518v-11.70005h4.87518c1.61835,0 2.92501,1.30666 2.92501,2.92501zM51.57522,28.17536h-2.92501v1.95016h2.92501v2.92501h-2.92501v3.89986h-2.92501v-11.70005h5.85002zM29.14998,30.12506h1.95016v-1.95016h-1.95016zM19.40009,23.30019h-3.89986v27.29995c0,2.14485 1.75501,3.89986 3.89986,3.89986h27.29995v-3.89986h-27.29995zM38.89986,34.02539h1.95016v-5.85002h-1.95016z" id="icon" fill="#ffffff"/></g></svg>