<svg version="1.1" xmlns="http://www.w3.org/2000/svg" xmlns:xlink="http://www.w3.org/1999/xlink" width="70" height="70" viewBox="0,0,70,70" odoo-icon:version="1.0" xmlns:odoo-icon="https://ivantodorovich.github.io/odoo-icon" odoo-icon:size="70" odoo-icon:icon-size="0.65" odoo-icon:icon-color="#FFFFFF" odoo-icon:icon-flat-shadow-angle="135" odoo-icon:background-color="#e53935" odoo-icon:background-gradient="0.2" odoo-icon:box-radius="3.5" odoo-icon:odoo-version="14.0"><defs><linearGradient x1="70" y1="0" x2="0" y2="70" gradientUnits="userSpaceOnUse" id="color-1"><stop offset="0" stop-color="#ff6c68"/><stop offset="1" stop-color="#e53935"/></linearGradient></defs><g fill="none" fill-rule="nonzero" stroke="none" stroke-width="1" stroke-linecap="butt" stroke-linejoin="miter" stroke-miterlimit="10" stroke-dasharray="" stroke-dashoffset="0" font-family="none" font-weight="none" font-size="none" text-anchor="none" style="mix-blend-mode: normal"><path d="M3.5,70c-1.933,0 -3.5,-1.567 -3.5,-3.5v-63c0,-1.933 1.567,-3.5 3.5,-3.5h63c1.933,0 3.5,1.567 3.5,3.5v63c0,1.933 -1.567,3.5 -3.5,3.5z" id="box" fill="url(#color-1)"/><path d="M65,1h-61c-1.95033,0 -3.2667,0.63396 -3.9491,1.90189c0.28378,-1.64806 1.72001,-2.90189 3.4491,-2.90189h63c1.72965,0 3.16627,1.25466 3.44938,2.90352c-0.69803,-1.26902 -2.34782,-1.90352 -4.94938,-1.90352z" id="topBoxShadow" fill="#ffffff" opacity="0.383"/><path d="M4,69h61c2.66667,0 4.33333,-1 5,-3v0.5c0,1.933 -1.567,3.5 -3.5,3.5h-63c-1.933,0 -3.5,-1.567 -3.5,-3.5c0,-0.1611 0,-0.32777 0,-0.5c0.66667,2 2,3 4,3z" id="bottomBoxShadow" fill="#000000" opacity="0.383"/><path d="M25.44943,22.72014c0.55716,0.21217 0.92516,0.74634 0.92573,1.3426v7.18737h17.24968v-7.18737c0,-0.59684 0.36857,-1.13215 0.92688,-1.34432c0.55831,-0.21217 1.18965,-0.05692 1.58582,0.38984l11.49978,12.93726c0.48357,0.54451 0.48357,1.36445 0,1.90896l-11.49978,12.93726c-0.39617,0.44677 -1.02751,0.60201 -1.58582,0.38984c-0.55831,-0.21217 -0.92746,-0.74691 -0.92688,-1.34432v-7.18737h-17.24968v7.18737c0,0.59684 -0.36857,1.13215 -0.92688,1.34432c-0.55831,0.21217 -1.18965,0.05692 -1.58582,-0.38984l-11.49978,-12.93726c-0.48357,-0.54451 -0.48357,-1.36445 0,-1.90896l11.49978,-12.93726c0.39674,-0.44677 1.02866,-0.60086 1.58697,-0.38812z" id="shadow" fill="#000000" opacity="0.3"/><path d="M26.37516,22.06274v7.18737l9.46634,0l8.20481,-8.20481c0.14061,-0.14061 0.31157,-0.25322 0.5054,-0.32688c0.55831,-0.21217 1.18965,-0.05692 1.58582,0.38984l11.49978,12.93726c0.48357,0.54451 0.48357,1.36445 0,1.90896l-11.49978,12.93726c-0.01924,0.02169 -0.03903,0.0427 -0.05934,0.06301l-21.04525,21.04525h-21.53295c-1.933,0 -3.5,-1.567 -3.5,-3.5l0,-21.53286l23.92105,-23.92105c0.39851,-0.39851 0.99681,-0.5285 1.52838,-0.32595c0.55716,0.21217 0.92516,0.74634 0.92573,1.3426z" id="flatShadow" fill="#000000" opacity="0.324"/><path d="M25.44943,20.72014c0.55716,0.21217 0.92516,0.74634 0.92573,1.3426v7.18737h17.24968v-7.18737c0,-0.59684 0.36857,-1.13215 0.92688,-1.34432c0.55831,-0.21217 1.18965,-0.05692 1.58582,0.38984l11.49978,12.93726c0.48357,0.54451 0.48357,1.36445 0,1.90896l-11.49978,12.93726c-0.39617,0.44677 -1.02751,0.60201 -1.58582,0.38984c-0.55831,-0.21217 -0.92746,-0.74691 -0.92688,-1.34432v-7.18737h-17.24968v7.18737c0,0.59684 -0.36857,1.13215 -0.92688,1.34432c-0.55831,0.21217 -1.18965,0.05692 -1.58582,-0.38984l-11.49978,-12.93726c-0.48357,-0.54451 -0.48357,-1.36445 0,-1.90896l11.49978,-12.93726c0.39674,-0.44677 1.02866,-0.60086 1.58697,-0.38812z" id="icon" fill="#ffffff"/></g></svg>