<svg version="1.1" xmlns="http://www.w3.org/2000/svg" xmlns:xlink="http://www.w3.org/1999/xlink" width="70" height="70" viewBox="0,0,70,70" odoo-icon:version="1.0" xmlns:odoo-icon="https://ivantodorovich.github.io/odoo-icon" odoo-icon:size="70" odoo-icon:icon-size="0.6" odoo-icon:icon-color="#FFFFFF" odoo-icon:icon-flat-shadow-angle="135" odoo-icon:background-color="#5a9442" odoo-icon:background-gradient="0.2" odoo-icon:box-radius="3.5" odoo-icon:odoo-version="14.0"><defs><linearGradient x1="70" y1="0" x2="0" y2="70" gradientUnits="userSpaceOnUse" id="color-1"><stop offset="0" stop-color="#8dc775"/><stop offset="1" stop-color="#5a9442"/></linearGradient></defs><g fill="none" fill-rule="nonzero" stroke="none" stroke-width="1" stroke-linecap="butt" stroke-linejoin="miter" stroke-miterlimit="10" stroke-dasharray="" stroke-dashoffset="0" font-family="none" font-weight="none" font-size="none" text-anchor="none" style="mix-blend-mode: normal"><path d="M3.5,70c-1.933,0 -3.5,-1.567 -3.5,-3.5v-63c0,-1.933 1.567,-3.5 3.5,-3.5h63c1.933,0 3.5,1.567 3.5,3.5v63c0,1.933 -1.567,3.5 -3.5,3.5z" id="box" fill="url(#color-1)"/><path d="M65,1h-61c-1.95033,0 -3.2667,0.63396 -3.9491,1.90189c0.28378,-1.64806 1.72001,-2.90189 3.4491,-2.90189h63c1.72965,0 3.16627,1.25466 3.44938,2.90352c-0.69803,-1.26902 -2.34782,-1.90352 -4.94938,-1.90352z" id="topBoxShadow" fill="#ffffff" opacity="0.383"/><path d="M4,69h61c2.66667,0 4.33333,-1 5,-3v0.5c0,1.933 -1.567,3.5 -3.5,3.5h-63c-1.933,0 -3.5,-1.567 -3.5,-3.5c0,-0.1611 0,-0.32777 0,-0.5c0.66667,2 2,3 4,3z" id="bottomBoxShadow" fill="#000000" opacity="0.383"/><path d="M27.58816,16.00136c-0.06189,0.16308 -0.13236,0.3352 -0.18522,0.52041c-0.309,0.96448 -0.44994,2.10786 -0.04427,2.93727c0.04427,0.0899 0.07047,0.11294 0.10571,0.18251c0.43232,-0.35914 1.14699,-0.80728 2.18827,-0.77565c0.86465,0.02575 1.57931,0.53126 1.99402,1.15828c0.41471,0.62748 0.60896,1.37286 0.64419,2.11735c0.03524,0.74358 -0.07951,1.49122 -0.39709,2.144c-0.31758,0.65278 -0.90892,1.2527 -1.72071,1.36744c-1.33221,0.19425 -2.29398,-0.53803 -2.77916,-0.85606c-0.07951,-0.04427 -0.11474,-0.05285 -0.15902,-0.07951c-0.02665,0.04427 -0.03524,0.04427 -0.07951,0.14998c-0.04427,0.08809 -0.07951,0.7237 0.10571,1.55311c0.07047,0.29996 0.14998,0.62658 0.25569,0.96177c1.81739,-0.04427 3.59999,0.09713 4.87934,0.59134c0.65278,0.24711 1.11175,0.46756 1.42933,0.92654c0.31758,0.45898 0.23807,1.06748 0.10571,1.41172c-0.25569,0.68801 -0.57372,1.07652 -0.4766,1.95878c0.04427,0.3352 0.14095,0.44136 0.35282,0.55565c0.21187,0.11474 0.57372,0.17663 0.96177,0.11474c0.77656,-0.10571 1.49122,-0.63516 1.57073,-1.18223c0.11474,-0.78514 -0.05285,-0.76752 -0.34423,-1.12937c-0.07047,-0.09713 -0.17663,-0.21187 -0.25569,-0.43232c-0.07951,-0.22949 -0.06189,-0.59992 0.07047,-0.83799c0.25569,-0.4766 0.57372,-0.60896 1.06748,-0.87368c0.77656,-0.42374 1.6412,-0.3352 2.58536,-0.18522c0.66181,0.10571 1.37648,0.27331 2.09973,0.45898c-0.20284,-0.80276 -0.38805,-1.59693 -0.5028,-2.33825c-0.14998,-0.99701 -0.21187,-1.91451 0.23807,-2.7263c0.15902,-0.27331 0.28234,-0.48337 0.44136,-0.66723c0.14998,-0.18341 0.3352,-0.38579 0.69705,-0.46214c0.36185,-0.0777 0.74132,0.11474 0.89988,0.26563c0.1676,0.15088 0.23807,0.27331 0.309,0.38037c0.1414,0.21006 0.25569,0.36863 0.36185,0.43955c0.10571,0.07951 0.18522,0.14095 0.51183,0.08809c0.22045,-0.02665 0.43232,-0.17663 0.62658,-0.49421c0.20284,-0.31397 0.34423,-0.78243 0.37043,-1.23689c0.01762,-0.45446 -0.07047,-0.88407 -0.22949,-1.13976c-0.14998,-0.25479 -0.28234,-0.36546 -0.62658,-0.38489c-0.45898,-0.02665 -0.64419,0.06008 -0.7499,0.12784c-0.10571,0.06686 -0.14998,0.13236 -0.23807,0.28325c-0.05285,0.07499 -0.06189,0.18431 -0.34423,0.38037c-0.1414,0.09803 -0.43232,0.18793 -0.6704,0.13688c-0.24711,-0.05195 -0.37947,-0.17392 -0.46756,-0.26201c-0.34423,-0.35011 -0.38805,-0.5814 -0.66181,-1.15241c-0.66181,-1.37738 -0.59134,-2.86228 -0.35282,-3.99707zM42.86088,16.00136c-0.22949,0.95906 -0.38805,2.29217 0.09713,3.30771c0.00903,0.01129 0.00903,0.01491 0.01762,0.02665c0.02665,-0.01852 0.04427,-0.03885 0.07047,-0.05647c0.41471,-0.26563 0.98797,-0.42284 1.70309,-0.38128c0.83799,0.04743 1.53504,0.53984 1.90593,1.15919c0.37043,0.61844 0.48518,1.33582 0.44136,2.03829c-0.03524,0.70247 -0.22949,1.39681 -0.59992,1.99673c-0.37043,0.59134 -0.97036,1.11175 -1.74691,1.21746c-0.6704,0.09713 -1.27935,-0.07951 -1.68502,-0.37043c-0.1676,-0.12333 -0.29138,-0.25569 -0.40567,-0.38805c-0.08809,0.25569 -0.1414,0.84703 -0.02665,1.6412c0.13236,0.86465 0.40567,1.92355 0.68801,3.00006c0,0.00903 0,0.01762 0.00903,0.01762c0.76752,0.20284 1.51742,0.37947 2.18827,0.48518c0.89988,0.14095 1.6412,0.13236 1.99402,0c0.17663,-0.06189 0.23807,-0.10571 0.309,-0.14998c0,-0.00903 0,-0.00903 -0.00903,-0.01762c-0.34423,-0.48518 -1.24412,-1.49122 -1.13841,-2.99103c0.06189,-0.85606 0.65278,-1.55266 1.33221,-1.835c0.34423,-0.14095 0.70608,-0.21187 1.06748,-0.22949c0.37043,-0.01762 0.74132,0.00903 1.11175,0.07951c0.73228,0.13236 1.45599,0.42329 2.06449,0.85606c0.60896,0.43232 1.12937,1.03225 1.24412,1.83546c0.17663,1.21746 -0.46756,2.06449 -0.82038,2.48823l0.01762,0.01762c0.52041,0.24711 1.69406,0.12333 2.7001,-0.20284c0.21187,-0.06189 0.41471,-0.14095 0.60896,-0.21187v-13.33201zM49.32857,26.05954c-0.29138,0 -0.54707,0.04427 -0.71467,0.10571c-0.26472,0.11474 -0.3352,0.1676 -0.35282,0.4766c-0.06189,0.84703 0.39709,1.33221 0.84703,1.96737c0.11474,0.15902 0.22949,0.32661 0.31758,0.54707c0.09713,0.22949 0.14998,0.56469 0.05285,0.88227c-0.21187,0.64419 -0.7499,0.89988 -1.42075,1.14699c-0.84703,0.31758 -1.78215,0.23807 -2.79678,0.07951c-0.48518,-0.07951 -0.98797,-0.18522 -1.49981,-0.309c0.11474,0.49421 0.22045,0.98797 0.29138,1.46457c0.15902,1.02366 0.22045,1.9764 -0.1676,2.82343c-0.27331,0.60896 -0.36185,0.95274 -0.86465,1.27935c-0.24711,0.15902 -0.71467,0.18522 -0.97036,0.07047c-0.24711,-0.11474 -0.34423,-0.23807 -0.44136,-0.3352c-0.37043,-0.37947 -0.44994,-0.65278 -1.35886,-0.59992c-0.32661,0.01762 -0.42374,0.10571 -0.55565,0.37043c-0.13236,0.25569 -0.20284,0.70608 -0.15902,1.17364c0.05285,0.4766 0.21187,0.95274 0.41471,1.2527c0.19425,0.309 0.35282,0.37947 0.46756,0.37947c0.61754,0.00903 0.95274,-0.29138 1.53504,-0.59134c0.29138,-0.15902 0.77656,-0.34423 1.28839,-0.1414c0.5028,0.20284 0.76752,0.61754 1.02366,1.13841c0.43232,0.8913 0.61754,2.144 0.67943,3.5381c0.07951,-0.00903 0.1676,-0.02665 0.24711,-0.04427c0.98797,-0.1676 1.90593,-0.24711 2.75296,0.06189c0.3352,0.12333 0.59134,0.23807 0.82941,0.39709c0.22949,0.15902 0.48518,0.40567 0.56469,0.76752c0.07951,0.37043 -0.06189,0.69705 -0.18522,0.8913c-0.12333,0.20284 -0.25569,0.32661 -0.37947,0.45898c-0.5028,0.5028 -0.9175,0.81179 -0.82038,1.50884c0.03524,0.24711 0.19425,0.4766 0.57372,0.69705c0.37043,0.22949 0.92654,0.39709 1.48219,0.44136c0.55565,0.04427 1.10272,-0.03524 1.45599,-0.18522c0.34423,-0.14998 0.44136,-0.27331 0.46756,-0.45898c0.09713,-0.64419 -0.26472,-1.01463 -0.71467,-1.61455c-0.22045,-0.29996 -0.53803,-0.68801 -0.48518,-1.29697c0.05285,-0.60896 0.52041,-1.04986 1.10272,-1.38506c1.31459,-0.74132 2.85008,-0.43232 4.03231,-0.05285c0.04427,0.01762 0.08809,0.02665 0.13236,0.04427v-11.99077c-0.04427,0.01762 -0.07951,0.02665 -0.12333,0.04427c-1.15603,0.37043 -2.60298,0.73228 -3.88233,0.10571c-0.25569,-0.12333 -0.46756,-0.24711 -0.66181,-0.41471c-0.19425,-0.17663 -0.37947,-0.42374 -0.43232,-0.74132c-0.04427,-0.31758 0.06189,-0.59992 0.15902,-0.77656c0.10571,-0.17663 0.21187,-0.29996 0.29996,-0.41471c0.38805,-0.44136 0.6704,-0.64419 0.56469,-1.34983c-0.02665,-0.21187 -0.21187,-0.5028 -0.59134,-0.77656c-0.37947,-0.26472 -0.9175,-0.48518 -1.43837,-0.5823c-0.19425,-0.03524 -0.38805,-0.05285 -0.56469,-0.05285zM28.05572,28.97152h-0.05285l0.11474,0.36185c0.32661,1.0589 0.66181,2.144 0.84703,3.15005c0.17663,1.00604 0.25569,1.94975 -0.17663,2.79678c-0.14998,0.29996 -0.29138,0.52945 -0.46756,0.74132c-0.17663,0.20284 -0.44994,0.43232 -0.84703,0.44994c-0.38805,0.01762 -0.67943,-0.19425 -0.83799,-0.35282c-0.14998,-0.14998 -0.24711,-0.28234 -0.3352,-0.41471c-0.19425,-0.26472 -0.36185,-0.49421 -0.54707,-0.62658c-0.17663,-0.14095 -0.3352,-0.22045 -0.7237,-0.17663c-0.27331,0.03524 -0.48518,0.18522 -0.70563,0.54707c-0.21187,0.37043 -0.36185,0.9175 -0.39709,1.4736c-0.02665,0.55565 0.07047,1.11175 0.23807,1.4736c0.1676,0.36185 0.32661,0.48518 0.53803,0.51183c0.70608,0.10571 1.10272,-0.25569 1.71168,-0.67943c0.29996,-0.21187 0.6704,-0.5028 1.27077,-0.45898c0.59992,0.04427 1.04986,0.51183 1.35886,1.06748c0.43232,0.79417 0.32661,1.66741 0.1676,2.63821c-0.1676,0.96177 -0.45898,2.03829 -0.7499,3.11481c-0.01762,0.06189 -0.03524,0.11474 -0.05285,0.17663c1.54408,-0.08809 2.99103,-0.35282 3.68808,-0.69705c0.00903,0 0.00903,0 0.00903,-0.00903c-0.25569,-0.39709 -0.40567,-0.95274 -0.37043,-1.64979c0.03524,-0.84703 0.51183,-1.54408 1.10272,-1.94975c0.59134,-0.40567 1.28839,-0.57372 1.9764,-0.59992c0.68801,-0.02665 1.36744,0.08809 1.94975,0.40567c0.59134,0.31758 1.12034,0.92654 1.13841,1.70309c0.01762,0.90892 -0.3352,1.5617 -0.52041,1.86166c0.08809,0.07047 0.21187,0.15902 0.40567,0.26472c0.1676,0.09713 0.75894,0.1676 1.55311,0.03524c0.79417,-0.12333 1.78215,-0.38805 2.79678,-0.66181c0.40567,-0.10571 0.81179,-0.22045 1.21746,-0.32661c-0.06189,-1.43837 -0.28234,-2.71772 -0.52041,-3.2029c-0.07047,-0.15902 -0.12333,-0.22045 -0.1676,-0.27331c-0.3352,0.17663 -1.12034,0.77656 -2.27636,0.75894c-0.78514,-0.00903 -1.3941,-0.52041 -1.77357,-1.09414c-0.37043,-0.57372 -0.59134,-1.26173 -0.66181,-1.95878c-0.07047,-0.70563 -0.00903,-1.42933 0.32661,-2.07353c0.3352,-0.64419 1.03225,-1.17364 1.87928,-1.2265c1.02366,-0.05285 1.73833,0.37043 2.17065,0.71467c0.03524,-0.07951 0.07047,-0.10571 0.11474,-0.20284c0.13236,-0.29996 0.17663,-1.02366 0.03524,-1.92355c-0.09713,-0.64419 -0.26472,-1.38506 -0.45898,-2.144c-1.02366,-0.26472 -2.00305,-0.52041 -2.80581,-0.64419c-0.82038,-0.13236 -1.43837,-0.06189 -1.57931,0.00903c-0.07951,0.04427 -0.09713,0.07047 -0.15902,0.10571c0.25569,0.40567 0.56469,1.09414 0.43232,2.00305c-0.22045,1.49981 -1.61455,2.34684 -2.92056,2.53205c-0.65278,0.08809 -1.34124,0.02665 -1.94117,-0.29996c-0.59992,-0.32661 -1.0851,-0.97939 -1.17364,-1.77357c-0.14998,-1.36744 0.44136,-2.34684 0.56469,-2.69107c-0.06189,-0.04427 -0.22045,-0.14998 -0.60896,-0.29996c-0.78514,-0.29996 -2.24113,-0.4766 -3.77617,-0.48518zM26.35262,29.04199c-1.65882,0.13236 -3.19386,0.48518 -3.79379,0.81179c-0.15902,0.08809 -0.22949,0.14998 -0.28234,0.20284c0.22949,0.34423 0.94416,1.17364 0.83799,2.39969c-0.06189,0.76752 -0.62658,1.35886 -1.23508,1.62359c-0.60896,0.27331 -1.28748,0.32661 -1.96601,0.24711c-0.67762,-0.08809 -1.35886,-0.31758 -1.93574,-0.7237c-0.57688,-0.41471 -1.05709,-1.0589 -1.15693,-1.86166c-0.08809,-0.70563 0.07318,-1.31459 0.3492,-1.73833c0.10255,-0.15902 0.21458,-0.28234 0.3239,-0.38805c-0.0131,-0.00903 -0.014,-0.00903 -0.02846,-0.01762c-0.81089,-0.41471 -1.98002,-0.32661 -2.96618,-0.05285c-0.17754,0.04427 -0.34152,0.09713 -0.49918,0.14998v14.6728c0.15631,0.05285 0.31939,0.10571 0.49512,0.14998c0.98301,0.27331 2.15213,0.37043 2.97793,-0.04427c0.16308,-0.07951 0.22678,-0.13236 0.31397,-0.19425c-0.32481,-0.40567 -0.90982,-1.23508 -0.77746,-2.47061c0.08899,-0.82038 0.60173,-1.4736 1.21746,-1.84404c0.61573,-0.37043 1.32859,-0.51183 2.03197,-0.51183c0.70247,0 1.39952,0.14998 2.00802,0.49421c0.59992,0.3352 1.13841,0.92654 1.24412,1.70309c0.14998,1.14699 -0.45898,1.94117 -0.78514,2.32922c0.05285,0.03524 0.06189,0.05285 0.15902,0.10571c0.56469,0.31758 2.17065,0.62658 3.8733,0.68801c0.06189,-0.20284 0.11474,-0.39709 0.1676,-0.59992c0.29138,-1.07652 0.57372,-2.12638 0.71467,-2.96483c0.14095,-0.84703 0.07951,-1.48219 0.00903,-1.60597c-0.07047,-0.13236 -0.09713,-0.15902 -0.12333,-0.19425c-0.04427,0.02665 -0.10571,0.05285 -0.20284,0.12333c-0.5028,0.34423 -1.4736,1.14699 -2.85008,0.94416c-0.82941,-0.11474 -1.42933,-0.74132 -1.74691,-1.41172c-0.31758,-0.67943 -0.42329,-1.45599 -0.37947,-2.22351c0.03524,-0.76752 0.22045,-1.54408 0.60896,-2.19685c0.38805,-0.66181 1.04986,-1.2265 1.90593,-1.32362c0.7499,-0.07951 1.40268,0.14998 1.84404,0.48518c0.31758,0.22949 0.52041,0.48518 0.68801,0.70608c0.11474,-0.27331 0.15902,-0.90892 0,-1.74691c-0.14998,-0.86465 -0.46756,-1.90593 -0.79417,-2.95579c-0.07951,-0.25569 -0.1676,-0.51183 -0.24711,-0.76752zM20.25175,41.04135c-0.46395,0 -0.91841,0.10571 -1.20798,0.28234c-0.28957,0.17663 -0.42103,0.34423 -0.45446,0.65278c-0.0908,0.85606 0.20826,1.02366 0.59044,1.50884c0.09622,0.12333 0.20826,0.26472 0.29454,0.49421c0.08719,0.22949 0.10164,0.59134 -0.02394,0.87368c-0.24891,0.55565 -0.66362,0.74132 -1.26806,1.04986c-1.3959,0.68801 -2.93727,0.46756 -4.11001,0.14998c-0.02485,-0.00903 -0.04743,-0.01762 -0.07228,-0.02665v11.97315h12.02601c-0.22949,-1.03225 -0.27331,-2.32922 0.39709,-3.51144c0.29138,-0.51183 0.42374,-0.80276 0.80276,-1.07652c0.18522,-0.1414 0.54707,-0.25569 0.82941,-0.18522c0.28234,0.06189 0.42374,0.19425 0.51183,0.27331c0.17663,0.15902 0.22949,0.22045 0.32661,0.26472c0.09713,0.04427 0.22949,0.09713 0.5823,0.05285c0.14095,-0.01762 0.36185,-0.14998 0.57372,-0.52945c0.22045,-0.37043 0.38805,-0.92654 0.43232,-1.4736c0.04427,-0.53803 -0.04427,-1.06748 -0.19425,-1.37648c-0.14998,-0.309 -0.25569,-0.40567 -0.56469,-0.42374c-0.40567,-0.02665 -0.5823,0.07047 -0.75894,0.21187c-0.17663,0.1414 -0.32661,0.37043 -0.46756,0.61754c-0.07951,0.11474 -0.14095,0.23807 -0.27331,0.39709c-0.06189,0.07951 -0.14998,0.17663 -0.31758,0.26472c-0.15902,0.09713 -0.44136,0.14998 -0.6704,0.08809c-0.46756,-0.11474 -0.5823,-0.39709 -0.69705,-0.59992c-0.11474,-0.21187 -0.21187,-0.44136 -0.3352,-0.75894c-0.31758,-0.85606 -0.22949,-1.8088 -0.05285,-2.84105c0.06189,-0.3352 0.13236,-0.68801 0.21187,-1.04128c-1.67644,-0.06189 -3.21148,-0.29996 -4.25276,-0.87368c-0.52945,-0.29996 -0.94596,-0.55565 -1.09594,-1.13841c-0.07409,-0.29138 -0.00903,-0.60896 0.08809,-0.80276c0.09532,-0.20284 0.20464,-0.32661 0.29273,-0.44136c0.37947,-0.44994 0.62658,-0.5823 0.53803,-1.24412c-0.02665,-0.18522 -0.13236,-0.35282 -0.44136,-0.52041c-0.41651,-0.18522 -0.85832,-0.29138 -1.2396,-0.29138zM53.66943,44.18236c-0.41471,0 -0.78514,0.07047 -1.0589,0.22045c-0.14998,0.08809 -0.19425,0.13236 -0.23807,0.15902c0.02665,0.04427 0.04427,0.09713 0.11474,0.19425c0.36185,0.4766 1.21746,1.42075 1.01463,2.78819c-0.11474,0.82038 -0.7499,1.41172 -1.42075,1.69406c-0.67943,0.28234 -1.43837,0.36185 -2.20589,0.29996c-0.75894,-0.06189 -1.51742,-0.26472 -2.17065,-0.65278c-0.64419,-0.38805 -1.21746,-1.02366 -1.32362,-1.85307c-0.18522,-1.34124 0.64419,-2.22351 1.12034,-2.7001c-0.04427,-0.01762 -0.04427,-0.01762 -0.10571,-0.04427c-0.34423,-0.12333 -1.06748,-0.13236 -1.94117,0.01762c-0.15902,0.02665 -0.32661,0.05285 -0.49421,0.08809c-0.03524,1.91451 -0.26472,3.84709 -0.78514,5.1793c-0.25569,0.66181 -0.4766,1.13841 -1.00604,1.42075c-0.27331,0.1414 -0.59992,0.17663 -0.85606,0.13236c-0.24711,-0.05285 -0.43232,-0.1414 -0.59992,-0.22949c-0.66181,-0.35282 -1.10272,-0.7499 -2.02926,-0.71467c-0.32661,0.00903 -0.35282,0.06189 -0.45898,0.309c-0.09713,0.24711 -0.1414,0.7237 -0.04427,1.21746c0.08809,0.49421 0.29996,1.00604 0.54707,1.34124c0.23807,0.3352 0.45898,0.43232 0.55565,0.44136c0.59134,0.00903 0.62658,-0.19425 1.06748,-0.56469c0.10571,-0.09713 0.24711,-0.22045 0.49421,-0.29996c0.24711,-0.07951 0.59992,-0.04427 0.83799,0.07951c0.48518,0.25569 0.66181,0.59992 0.97036,1.14699c0.73228,1.29697 0.54707,2.8144 0.28234,3.99707c-0.00903,0.05285 -0.02665,0.09713 -0.03524,0.14998h12.09648v-13.30536c-0.19425,-0.07047 -0.39709,-0.14998 -0.60896,-0.21187c-0.56469,-0.18522 -1.18223,-0.29138 -1.72071,-0.29996z" id="shadow" fill="#000000" opacity="0.3"/><path d="M27.58816,14.00136l13.58725,-0.00136c-0.11596,0.55169 -0.1922,1.18612 -0.16389,1.85072l1.84937,-1.84937l13.13867,0.0009v13.33201l-2.16601,2.16601c0.7176,-0.04223 1.42232,-0.23868 2.04313,-0.43762c0.04382,-0.01762 0.07906,-0.02665 0.12333,-0.04427v11.99077l-1.29322,1.29322c0.22986,0.04721 0.45955,0.10771 0.6811,0.18038c0.21187,0.06189 0.41471,0.1414 0.60896,0.21187v13.30536l-14,14h-38.49684c-1.933,0 -3.5,-1.567 -3.5,-3.5l0,-24.91049z" id="flatShadow" fill="#000000" opacity="0.324"/><path d="M27.58816,14.00136c-0.06189,0.16308 -0.13236,0.3352 -0.18522,0.52041c-0.309,0.96448 -0.44994,2.10786 -0.04427,2.93727c0.04427,0.0899 0.07047,0.11294 0.10571,0.18251c0.43232,-0.35914 1.14699,-0.80728 2.18827,-0.77565c0.86465,0.02575 1.57931,0.53126 1.99402,1.15828c0.41471,0.62748 0.60896,1.37286 0.64419,2.11735c0.03524,0.74358 -0.07951,1.49122 -0.39709,2.144c-0.31758,0.65278 -0.90892,1.2527 -1.72071,1.36744c-1.33221,0.19425 -2.29398,-0.53803 -2.77916,-0.85606c-0.07951,-0.04427 -0.11474,-0.05285 -0.15902,-0.07951c-0.02665,0.04427 -0.03524,0.04427 -0.07951,0.14998c-0.04427,0.08809 -0.07951,0.7237 0.10571,1.55311c0.07047,0.29996 0.14998,0.62658 0.25569,0.96177c1.81739,-0.04427 3.59999,0.09713 4.87934,0.59134c0.65278,0.24711 1.11175,0.46756 1.42933,0.92654c0.31758,0.45898 0.23807,1.06748 0.10571,1.41172c-0.25569,0.68801 -0.57372,1.07652 -0.4766,1.95878c0.04427,0.3352 0.14095,0.44136 0.35282,0.55565c0.21187,0.11474 0.57372,0.17663 0.96177,0.11474c0.77656,-0.10571 1.49122,-0.63516 1.57073,-1.18223c0.11474,-0.78514 -0.05285,-0.76752 -0.34423,-1.12937c-0.07047,-0.09713 -0.17663,-0.21187 -0.25569,-0.43232c-0.07951,-0.22949 -0.06189,-0.59992 0.07047,-0.83799c0.25569,-0.4766 0.57372,-0.60896 1.06748,-0.87368c0.77656,-0.42374 1.6412,-0.3352 2.58536,-0.18522c0.66181,0.10571 1.37648,0.27331 2.09973,0.45898c-0.20284,-0.80276 -0.38805,-1.59693 -0.5028,-2.33825c-0.14998,-0.99701 -0.21187,-1.91451 0.23807,-2.7263c0.15902,-0.27331 0.28234,-0.48337 0.44136,-0.66723c0.14998,-0.18341 0.3352,-0.38579 0.69705,-0.46214c0.36185,-0.0777 0.74132,0.11474 0.89988,0.26563c0.1676,0.15088 0.23807,0.27331 0.309,0.38037c0.1414,0.21006 0.25569,0.36863 0.36185,0.43955c0.10571,0.07951 0.18522,0.14095 0.51183,0.08809c0.22045,-0.02665 0.43232,-0.17663 0.62658,-0.49421c0.20284,-0.31397 0.34423,-0.78243 0.37043,-1.23689c0.01762,-0.45446 -0.07047,-0.88407 -0.22949,-1.13976c-0.14998,-0.25479 -0.28234,-0.36546 -0.62658,-0.38489c-0.45898,-0.02665 -0.64419,0.06008 -0.7499,0.12784c-0.10571,0.06686 -0.14998,0.13236 -0.23807,0.28325c-0.05285,0.07499 -0.06189,0.18431 -0.34423,0.38037c-0.1414,0.09803 -0.43232,0.18793 -0.6704,0.13688c-0.24711,-0.05195 -0.37947,-0.17392 -0.46756,-0.26201c-0.34423,-0.35011 -0.38805,-0.5814 -0.66181,-1.15241c-0.66181,-1.37738 -0.59134,-2.86228 -0.35282,-3.99707zM42.86088,14.00136c-0.22949,0.95906 -0.38805,2.29217 0.09713,3.30771c0.00903,0.01129 0.00903,0.01491 0.01762,0.02665c0.02665,-0.01852 0.04427,-0.03885 0.07047,-0.05647c0.41471,-0.26563 0.98797,-0.42284 1.70309,-0.38128c0.83799,0.04743 1.53504,0.53984 1.90593,1.15919c0.37043,0.61844 0.48518,1.33582 0.44136,2.03829c-0.03524,0.70247 -0.22949,1.39681 -0.59992,1.99673c-0.37043,0.59134 -0.97036,1.11175 -1.74691,1.21746c-0.6704,0.09713 -1.27935,-0.07951 -1.68502,-0.37043c-0.1676,-0.12333 -0.29138,-0.25569 -0.40567,-0.38805c-0.08809,0.25569 -0.1414,0.84703 -0.02665,1.6412c0.13236,0.86465 0.40567,1.92355 0.68801,3.00006c0,0.00903 0,0.01762 0.00903,0.01762c0.76752,0.20284 1.51742,0.37947 2.18827,0.48518c0.89988,0.14095 1.6412,0.13236 1.99402,0c0.17663,-0.06189 0.23807,-0.10571 0.309,-0.14998c0,-0.00903 0,-0.00903 -0.00903,-0.01762c-0.34423,-0.48518 -1.24412,-1.49122 -1.13841,-2.99103c0.06189,-0.85606 0.65278,-1.55266 1.33221,-1.835c0.34423,-0.14095 0.70608,-0.21187 1.06748,-0.22949c0.37043,-0.01762 0.74132,0.00903 1.11175,0.07951c0.73228,0.13236 1.45599,0.42329 2.06449,0.85606c0.60896,0.43232 1.12937,1.03225 1.24412,1.83546c0.17663,1.21746 -0.46756,2.06449 -0.82038,2.48823l0.01762,0.01762c0.52041,0.24711 1.69406,0.12333 2.7001,-0.20284c0.21187,-0.06189 0.41471,-0.14095 0.60896,-0.21187v-13.33201zM49.32857,24.05954c-0.29138,0 -0.54707,0.04427 -0.71467,0.10571c-0.26472,0.11474 -0.3352,0.1676 -0.35282,0.4766c-0.06189,0.84703 0.39709,1.33221 0.84703,1.96737c0.11474,0.15902 0.22949,0.32661 0.31758,0.54707c0.09713,0.22949 0.14998,0.56469 0.05285,0.88227c-0.21187,0.64419 -0.7499,0.89988 -1.42075,1.14699c-0.84703,0.31758 -1.78215,0.23807 -2.79678,0.07951c-0.48518,-0.07951 -0.98797,-0.18522 -1.49981,-0.309c0.11474,0.49421 0.22045,0.98797 0.29138,1.46457c0.15902,1.02366 0.22045,1.9764 -0.1676,2.82343c-0.27331,0.60896 -0.36185,0.95274 -0.86465,1.27935c-0.24711,0.15902 -0.71467,0.18522 -0.97036,0.07047c-0.24711,-0.11474 -0.34423,-0.23807 -0.44136,-0.3352c-0.37043,-0.37947 -0.44994,-0.65278 -1.35886,-0.59992c-0.32661,0.01762 -0.42374,0.10571 -0.55565,0.37043c-0.13236,0.25569 -0.20284,0.70608 -0.15902,1.17364c0.05285,0.4766 0.21187,0.95274 0.41471,1.2527c0.19425,0.309 0.35282,0.37947 0.46756,0.37947c0.61754,0.00903 0.95274,-0.29138 1.53504,-0.59134c0.29138,-0.15902 0.77656,-0.34423 1.28839,-0.1414c0.5028,0.20284 0.76752,0.61754 1.02366,1.13841c0.43232,0.8913 0.61754,2.144 0.67943,3.5381c0.07951,-0.00903 0.1676,-0.02665 0.24711,-0.04427c0.98797,-0.1676 1.90593,-0.24711 2.75296,0.06189c0.3352,0.12333 0.59134,0.23807 0.82941,0.39709c0.22949,0.15902 0.48518,0.40567 0.56469,0.76752c0.07951,0.37043 -0.06189,0.69705 -0.18522,0.8913c-0.12333,0.20284 -0.25569,0.32661 -0.37947,0.45898c-0.5028,0.5028 -0.9175,0.81179 -0.82038,1.50884c0.03524,0.24711 0.19425,0.4766 0.57372,0.69705c0.37043,0.22949 0.92654,0.39709 1.48219,0.44136c0.55565,0.04427 1.10272,-0.03524 1.45599,-0.18522c0.34423,-0.14998 0.44136,-0.27331 0.46756,-0.45898c0.09713,-0.64419 -0.26472,-1.01463 -0.71467,-1.61455c-0.22045,-0.29996 -0.53803,-0.68801 -0.48518,-1.29697c0.05285,-0.60896 0.52041,-1.04986 1.10272,-1.38506c1.31459,-0.74132 2.85008,-0.43232 4.03231,-0.05285c0.04427,0.01762 0.08809,0.02665 0.13236,0.04427v-11.99077c-0.04427,0.01762 -0.07951,0.02665 -0.12333,0.04427c-1.15603,0.37043 -2.60298,0.73228 -3.88233,0.10571c-0.25569,-0.12333 -0.46756,-0.24711 -0.66181,-0.41471c-0.19425,-0.17663 -0.37947,-0.42374 -0.43232,-0.74132c-0.04427,-0.31758 0.06189,-0.59992 0.15902,-0.77656c0.10571,-0.17663 0.21187,-0.29996 0.29996,-0.41471c0.38805,-0.44136 0.6704,-0.64419 0.56469,-1.34983c-0.02665,-0.21187 -0.21187,-0.5028 -0.59134,-0.77656c-0.37947,-0.26472 -0.9175,-0.48518 -1.43837,-0.5823c-0.19425,-0.03524 -0.38805,-0.05285 -0.56469,-0.05285zM28.05572,26.97152h-0.05285l0.11474,0.36185c0.32661,1.0589 0.66181,2.144 0.84703,3.15005c0.17663,1.00604 0.25569,1.94975 -0.17663,2.79678c-0.14998,0.29996 -0.29138,0.52945 -0.46756,0.74132c-0.17663,0.20284 -0.44994,0.43232 -0.84703,0.44994c-0.38805,0.01762 -0.67943,-0.19425 -0.83799,-0.35282c-0.14998,-0.14998 -0.24711,-0.28234 -0.3352,-0.41471c-0.19425,-0.26472 -0.36185,-0.49421 -0.54707,-0.62658c-0.17663,-0.14095 -0.3352,-0.22045 -0.7237,-0.17663c-0.27331,0.03524 -0.48518,0.18522 -0.70563,0.54707c-0.21187,0.37043 -0.36185,0.9175 -0.39709,1.4736c-0.02665,0.55565 0.07047,1.11175 0.23807,1.4736c0.1676,0.36185 0.32661,0.48518 0.53803,0.51183c0.70608,0.10571 1.10272,-0.25569 1.71168,-0.67943c0.29996,-0.21187 0.6704,-0.5028 1.27077,-0.45898c0.59992,0.04427 1.04986,0.51183 1.35886,1.06748c0.43232,0.79417 0.32661,1.66741 0.1676,2.63821c-0.1676,0.96177 -0.45898,2.03829 -0.7499,3.11481c-0.01762,0.06189 -0.03524,0.11474 -0.05285,0.17663c1.54408,-0.08809 2.99103,-0.35282 3.68808,-0.69705c0.00903,0 0.00903,0 0.00903,-0.00903c-0.25569,-0.39709 -0.40567,-0.95274 -0.37043,-1.64979c0.03524,-0.84703 0.51183,-1.54408 1.10272,-1.94975c0.59134,-0.40567 1.28839,-0.57372 1.9764,-0.59992c0.68801,-0.02665 1.36744,0.08809 1.94975,0.40567c0.59134,0.31758 1.12034,0.92654 1.13841,1.70309c0.01762,0.90892 -0.3352,1.5617 -0.52041,1.86166c0.08809,0.07047 0.21187,0.15902 0.40567,0.26472c0.1676,0.09713 0.75894,0.1676 1.55311,0.03524c0.79417,-0.12333 1.78215,-0.38805 2.79678,-0.66181c0.40567,-0.10571 0.81179,-0.22045 1.21746,-0.32661c-0.06189,-1.43837 -0.28234,-2.71772 -0.52041,-3.2029c-0.07047,-0.15902 -0.12333,-0.22045 -0.1676,-0.27331c-0.3352,0.17663 -1.12034,0.77656 -2.27636,0.75894c-0.78514,-0.00903 -1.3941,-0.52041 -1.77357,-1.09414c-0.37043,-0.57372 -0.59134,-1.26173 -0.66181,-1.95878c-0.07047,-0.70563 -0.00903,-1.42933 0.32661,-2.07353c0.3352,-0.64419 1.03225,-1.17364 1.87928,-1.2265c1.02366,-0.05285 1.73833,0.37043 2.17065,0.71467c0.03524,-0.07951 0.07047,-0.10571 0.11474,-0.20284c0.13236,-0.29996 0.17663,-1.02366 0.03524,-1.92355c-0.09713,-0.64419 -0.26472,-1.38506 -0.45898,-2.144c-1.02366,-0.26472 -2.00305,-0.52041 -2.80581,-0.64419c-0.82038,-0.13236 -1.43837,-0.06189 -1.57931,0.00903c-0.07951,0.04427 -0.09713,0.07047 -0.15902,0.10571c0.25569,0.40567 0.56469,1.09414 0.43232,2.00305c-0.22045,1.49981 -1.61455,2.34684 -2.92056,2.53205c-0.65278,0.08809 -1.34124,0.02665 -1.94117,-0.29996c-0.59992,-0.32661 -1.0851,-0.97939 -1.17364,-1.77357c-0.14998,-1.36744 0.44136,-2.34684 0.56469,-2.69107c-0.06189,-0.04427 -0.22045,-0.14998 -0.60896,-0.29996c-0.78514,-0.29996 -2.24113,-0.4766 -3.77617,-0.48518zM26.35262,27.04199c-1.65882,0.13236 -3.19386,0.48518 -3.79379,0.81179c-0.15902,0.08809 -0.22949,0.14998 -0.28234,0.20284c0.22949,0.34423 0.94416,1.17364 0.83799,2.39969c-0.06189,0.76752 -0.62658,1.35886 -1.23508,1.62359c-0.60896,0.27331 -1.28748,0.32661 -1.96601,0.24711c-0.67762,-0.08809 -1.35886,-0.31758 -1.93574,-0.7237c-0.57688,-0.41471 -1.05709,-1.0589 -1.15693,-1.86166c-0.08809,-0.70563 0.07318,-1.31459 0.3492,-1.73833c0.10255,-0.15902 0.21458,-0.28234 0.3239,-0.38805c-0.0131,-0.00903 -0.014,-0.00903 -0.02846,-0.01762c-0.81089,-0.41471 -1.98002,-0.32661 -2.96618,-0.05285c-0.17754,0.04427 -0.34152,0.09713 -0.49918,0.14998v14.6728c0.15631,0.05285 0.31939,0.10571 0.49512,0.14998c0.98301,0.27331 2.15213,0.37043 2.97793,-0.04427c0.16308,-0.07951 0.22678,-0.13236 0.31397,-0.19425c-0.32481,-0.40567 -0.90982,-1.23508 -0.77746,-2.47061c0.08899,-0.82038 0.60173,-1.4736 1.21746,-1.84404c0.61573,-0.37043 1.32859,-0.51183 2.03197,-0.51183c0.70247,0 1.39952,0.14998 2.00802,0.49421c0.59992,0.3352 1.13841,0.92654 1.24412,1.70309c0.14998,1.14699 -0.45898,1.94117 -0.78514,2.32922c0.05285,0.03524 0.06189,0.05285 0.15902,0.10571c0.56469,0.31758 2.17065,0.62658 3.8733,0.68801c0.06189,-0.20284 0.11474,-0.39709 0.1676,-0.59992c0.29138,-1.07652 0.57372,-2.12638 0.71467,-2.96483c0.14095,-0.84703 0.07951,-1.48219 0.00903,-1.60597c-0.07047,-0.13236 -0.09713,-0.15902 -0.12333,-0.19425c-0.04427,0.02665 -0.10571,0.05285 -0.20284,0.12333c-0.5028,0.34423 -1.4736,1.14699 -2.85008,0.94416c-0.82941,-0.11474 -1.42933,-0.74132 -1.74691,-1.41172c-0.31758,-0.67943 -0.42329,-1.45599 -0.37947,-2.22351c0.03524,-0.76752 0.22045,-1.54408 0.60896,-2.19685c0.38805,-0.66181 1.04986,-1.2265 1.90593,-1.32362c0.7499,-0.07951 1.40268,0.14998 1.84404,0.48518c0.31758,0.22949 0.52041,0.48518 0.68801,0.70608c0.11474,-0.27331 0.15902,-0.90892 0,-1.74691c-0.14998,-0.86465 -0.46756,-1.90593 -0.79417,-2.95579c-0.07951,-0.25569 -0.1676,-0.51183 -0.24711,-0.76752zM20.25175,39.04135c-0.46395,0 -0.91841,0.10571 -1.20798,0.28234c-0.28957,0.17663 -0.42103,0.34423 -0.45446,0.65278c-0.0908,0.85606 0.20826,1.02366 0.59044,1.50884c0.09622,0.12333 0.20826,0.26472 0.29454,0.49421c0.08719,0.22949 0.10164,0.59134 -0.02394,0.87368c-0.24891,0.55565 -0.66362,0.74132 -1.26806,1.04986c-1.3959,0.68801 -2.93727,0.46756 -4.11001,0.14998c-0.02485,-0.00903 -0.04743,-0.01762 -0.07228,-0.02665v11.97315h12.02601c-0.22949,-1.03225 -0.27331,-2.32922 0.39709,-3.51144c0.29138,-0.51183 0.42374,-0.80276 0.80276,-1.07652c0.18522,-0.1414 0.54707,-0.25569 0.82941,-0.18522c0.28234,0.06189 0.42374,0.19425 0.51183,0.27331c0.17663,0.15902 0.22949,0.22045 0.32661,0.26472c0.09713,0.04427 0.22949,0.09713 0.5823,0.05285c0.14095,-0.01762 0.36185,-0.14998 0.57372,-0.52945c0.22045,-0.37043 0.38805,-0.92654 0.43232,-1.4736c0.04427,-0.53803 -0.04427,-1.06748 -0.19425,-1.37648c-0.14998,-0.309 -0.25569,-0.40567 -0.56469,-0.42374c-0.40567,-0.02665 -0.5823,0.07047 -0.75894,0.21187c-0.17663,0.1414 -0.32661,0.37043 -0.46756,0.61754c-0.07951,0.11474 -0.14095,0.23807 -0.27331,0.39709c-0.06189,0.07951 -0.14998,0.17663 -0.31758,0.26472c-0.15902,0.09713 -0.44136,0.14998 -0.6704,0.08809c-0.46756,-0.11474 -0.5823,-0.39709 -0.69705,-0.59992c-0.11474,-0.21187 -0.21187,-0.44136 -0.3352,-0.75894c-0.31758,-0.85606 -0.22949,-1.8088 -0.05285,-2.84105c0.06189,-0.3352 0.13236,-0.68801 0.21187,-1.04128c-1.67644,-0.06189 -3.21148,-0.29996 -4.25276,-0.87368c-0.52945,-0.29996 -0.94596,-0.55565 -1.09594,-1.13841c-0.07409,-0.29138 -0.00903,-0.60896 0.08809,-0.80276c0.09532,-0.20284 0.20464,-0.32661 0.29273,-0.44136c0.37947,-0.44994 0.62658,-0.5823 0.53803,-1.24412c-0.02665,-0.18522 -0.13236,-0.35282 -0.44136,-0.52041c-0.41651,-0.18522 -0.85832,-0.29138 -1.2396,-0.29138zM53.66943,42.18236c-0.41471,0 -0.78514,0.07047 -1.0589,0.22045c-0.14998,0.08809 -0.19425,0.13236 -0.23807,0.15902c0.02665,0.04427 0.04427,0.09713 0.11474,0.19425c0.36185,0.4766 1.21746,1.42075 1.01463,2.78819c-0.11474,0.82038 -0.7499,1.41172 -1.42075,1.69406c-0.67943,0.28234 -1.43837,0.36185 -2.20589,0.29996c-0.75894,-0.06189 -1.51742,-0.26472 -2.17065,-0.65278c-0.64419,-0.38805 -1.21746,-1.02366 -1.32362,-1.85307c-0.18522,-1.34124 0.64419,-2.22351 1.12034,-2.7001c-0.04427,-0.01762 -0.04427,-0.01762 -0.10571,-0.04427c-0.34423,-0.12333 -1.06748,-0.13236 -1.94117,0.01762c-0.15902,0.02665 -0.32661,0.05285 -0.49421,0.08809c-0.03524,1.91451 -0.26472,3.84709 -0.78514,5.1793c-0.25569,0.66181 -0.4766,1.13841 -1.00604,1.42075c-0.27331,0.1414 -0.59992,0.17663 -0.85606,0.13236c-0.24711,-0.05285 -0.43232,-0.1414 -0.59992,-0.22949c-0.66181,-0.35282 -1.10272,-0.7499 -2.02926,-0.71467c-0.32661,0.00903 -0.35282,0.06189 -0.45898,0.309c-0.09713,0.24711 -0.1414,0.7237 -0.04427,1.21746c0.08809,0.49421 0.29996,1.00604 0.54707,1.34124c0.23807,0.3352 0.45898,0.43232 0.55565,0.44136c0.59134,0.00903 0.62658,-0.19425 1.06748,-0.56469c0.10571,-0.09713 0.24711,-0.22045 0.49421,-0.29996c0.24711,-0.07951 0.59992,-0.04427 0.83799,0.07951c0.48518,0.25569 0.66181,0.59992 0.97036,1.14699c0.73228,1.29697 0.54707,2.8144 0.28234,3.99707c-0.00903,0.05285 -0.02665,0.09713 -0.03524,0.14998h12.09648v-13.30536c-0.19425,-0.07047 -0.39709,-0.14998 -0.60896,-0.21187c-0.56469,-0.18522 -1.18223,-0.29138 -1.72071,-0.29996z" id="icon" fill="#ffffff"/></g></svg>