<svg version="1.1" xmlns="http://www.w3.org/2000/svg" xmlns:xlink="http://www.w3.org/1999/xlink" width="70" height="70" viewBox="0,0,70,70"><!-- Generated with https://ivantodorovich.github.io/odoo-icon --><defs><linearGradient x1="70" y1="0" x2="0" y2="70" gradientUnits="userSpaceOnUse" id="color-1"><stop offset="0" stop-color="#ffbb5a"/><stop offset="1" stop-color="#d88827"/></linearGradient></defs><g fill="none" fill-rule="nonzero" stroke="none" stroke-width="1" stroke-linecap="butt" stroke-linejoin="miter" stroke-miterlimit="10" stroke-dasharray="" stroke-dashoffset="0" font-family="none" font-weight="none" font-size="none" text-anchor="none" style="mix-blend-mode: normal"><path d="M3.5,70c-1.933,0 -3.5,-1.567 -3.5,-3.5v-63c0,-1.933 1.567,-3.5 3.5,-3.5h63c1.933,0 3.5,1.567 3.5,3.5v63c0,1.933 -1.567,3.5 -3.5,3.5z" id="box" fill="url(#color-1)"/><path d="M65,1h-61c-1.95033,0 -3.2667,0.63396 -3.9491,1.90189c0.28378,-1.64806 1.72001,-2.90189 3.4491,-2.90189h63c1.72965,0 3.16627,1.25466 3.44938,2.90352c-0.69803,-1.26902 -2.34782,-1.90352 -4.94938,-1.90352z" id="topBoxShadow" fill="#ffffff" opacity="0.383"/><path d="M4,69h61c2.66667,0 4.33333,-1 5,-3v0.5c0,1.933 -1.567,3.5 -3.5,3.5h-63c-1.933,0 -3.5,-1.567 -3.5,-3.5c0,-0.1611 0,-0.32777 0,-0.5c0.66667,2 2,3 4,3z" id="bottomBoxShadow" fill="#000000" opacity="0.383"/><path d="M39.42799,46.23491v-8.09691h3.29143v6.18788l5.35423,3.09394l-1.64571,2.85275l-6.99994,-4.03766M49.30227,17.29195l-3.29143,-3.29143l-3.29143,3.29143l-3.29143,-3.29143l-3.29143,3.29143l-3.29143,-3.29143l-3.29143,3.29143l-3.29143,-3.29143l-3.29143,3.29143l-3.29143,-3.29143l-3.29143,3.29143l-3.29143,-3.29143v43.88551l3.29143,-3.29143l3.29143,3.29143l3.29143,-3.29143l3.29143,3.29143l3.46679,-3.46679c0.30702,0.41709 0.65829,0.78994 1.03114,1.1628c5.9904,5.90087 15.61242,5.88928 21.5886,-0.02686c5.97618,-5.91614 6.08519,-15.53711 0.24488,-21.58702v-19.96816l-3.29143,3.29143M30.87028,33.74909c-1.31657,1.25074 -2.34771,2.74268 -3.13765,4.38839h-8.0532v-4.38839h11.19085M26.41606,42.5264c-0.15378,0.72411 -0.15378,1.44823 -0.15378,2.19446c0,0.74623 0,1.47035 0.15378,2.19446h-6.73663v-4.38839h6.73663M46.01084,29.36069h-26.33141v-4.38839h26.33141v4.38839M52.26455,44.72086c0,1.40452 -0.26331,2.78692 -0.76782,4.08137c-0.57034,1.27286 -1.36028,2.50148 -2.34771,3.4452c-0.94372,0.98743 -2.17234,1.77737 -3.4452,2.34771c-1.29445,0.50451 -2.67685,0.76782 -4.08137,0.76782c-5.88086,0 -10.6421,-4.76177 -10.6421,-10.6421c0,-2.83063 1.11908,-5.48589 3.11606,-7.52657c2.04068,-1.99697 4.69594,-3.11606 7.52657,-3.11606c5.85874,0 10.6421,4.76177 10.6421,10.6421z" id="shadow" fill="#000000" opacity="0.3"/><path d="M16.388,15.29195l3.29143,-3.29143l3.29143,3.29143l3.29143,-3.29143l3.29143,3.29143l3.29143,-3.29143l3.29143,3.29143l3.29143,-3.29143l3.29143,3.29143l3.29143,-3.29143l3.29116,3.29116l3.29169,-3.29169v19.96816c5.82197,6.03091 5.73192,15.6105 -0.18877,21.53118l-16.50065,16.50065h-32.40427c-1.933,0 -3.5,-1.567 -3.5,-3.5l0,-41.4029l13.09657,-13.09657z" id="flatShadow" fill="#000000" opacity="0.324"/><path d="M39.42799,44.23491v-8.09691h3.29143v6.18788l5.35423,3.09394l-1.64571,2.85275l-6.99994,-4.03766M49.30227,15.29195l-3.29143,-3.29143l-3.29143,3.29143l-3.29143,-3.29143l-3.29143,3.29143l-3.29143,-3.29143l-3.29143,3.29143l-3.29143,-3.29143l-3.29143,3.29143l-3.29143,-3.29143l-3.29143,3.29143l-3.29143,-3.29143v43.88551l3.29143,-3.29143l3.29143,3.29143l3.29143,-3.29143l3.29143,3.29143l3.46679,-3.46679c0.30702,0.41709 0.65829,0.78994 1.03114,1.1628c5.9904,5.90087 15.61242,5.88928 21.5886,-0.02686c5.97618,-5.91614 6.08519,-15.53711 0.24488,-21.58702v-19.96816l-3.29143,3.29143M30.87028,31.74909c-1.31657,1.25074 -2.34771,2.74268 -3.13765,4.38839h-8.0532v-4.38839h11.19085M26.41606,40.5264c-0.15378,0.72411 -0.15378,1.44823 -0.15378,2.19446c0,0.74623 0,1.47035 0.15378,2.19446h-6.73663v-4.38839h6.73663M46.01084,27.36069h-26.33141v-4.38839h26.33141v4.38839M52.26455,42.72086c0,1.40452 -0.26331,2.78692 -0.76782,4.08137c-0.57034,1.27286 -1.36028,2.50148 -2.34771,3.4452c-0.94372,0.98743 -2.17234,1.77737 -3.4452,2.34771c-1.29445,0.50451 -2.67685,0.76782 -4.08137,0.76782c-5.88086,0 -10.6421,-4.76177 -10.6421,-10.6421c0,-2.83063 1.11908,-5.48589 3.11606,-7.52657c2.04068,-1.99697 4.69594,-3.11606 7.52657,-3.11606c5.85874,0 10.6421,4.76177 10.6421,10.6421z" id="icon" fill="#ffffff"/></g></svg>