<svg version="1.1" xmlns="http://www.w3.org/2000/svg" xmlns:xlink="http://www.w3.org/1999/xlink" width="70" height="70" viewBox="0,0,70,70"><!-- Generated with https://ivantodorovich.github.io/odoo-icon --><defs><linearGradient x1="70" y1="0" x2="0" y2="70" gradientUnits="userSpaceOnUse" id="color-1"><stop offset="0" stop-color="#ffbf33"/><stop offset="1" stop-color="#fb8c00"/></linearGradient></defs><g fill="none" fill-rule="nonzero" stroke="none" stroke-width="1" stroke-linecap="butt" stroke-linejoin="miter" stroke-miterlimit="10" stroke-dasharray="" stroke-dashoffset="0" font-family="none" font-weight="none" font-size="none" text-anchor="none" style="mix-blend-mode: normal"><path d="M3.5,70c-1.933,0 -3.5,-1.567 -3.5,-3.5v-63c0,-1.933 1.567,-3.5 3.5,-3.5h63c1.933,0 3.5,1.567 3.5,3.5v63c0,1.933 -1.567,3.5 -3.5,3.5z" id="box" fill="url(#color-1)"/><path d="M65,1h-61c-1.95033,0 -3.2667,0.63396 -3.9491,1.90189c0.28378,-1.64806 1.72001,-2.90189 3.4491,-2.90189h63c1.72965,0 3.16627,1.25466 3.44938,2.90352c-0.69803,-1.26902 -2.34782,-1.90352 -4.94938,-1.90352z" id="topBoxShadow" fill="#ffffff" opacity="0.383"/><path d="M4,69h61c2.66667,0 4.33333,-1 5,-3v0.5c0,1.933 -1.567,3.5 -3.5,3.5h-63c-1.933,0 -3.5,-1.567 -3.5,-3.5c0,-0.1611 0,-0.32777 0,-0.5c0.66667,2 2,3 4,3z" id="bottomBoxShadow" fill="#000000" opacity="0.383"/><path d="M36.91085,53.15396c-0.4059,0 -0.77763,-0.22719 -0.96326,-0.5883l-0.75454,-1.47121v5.14553h9.28948v-8.9667h-3.48731l-3.15206,5.34779c-0.19441,0.33017 -0.54905,0.53289 -0.93232,0.53289zM26.80311,34.73755l-1.49014,1.80322h2.41553zM16.18557,47.58544c-0.23458,0.28353 -0.58322,0.41744 -0.92447,0.38927v8.26527h9.01888v-8.9667h-7.83674zM55.54753,56.87123c0,0.21103 -0.10344,0.39805 -0.26275,0.51257c-0.05357,0.16162 -0.20595,0.27799 -0.38512,0.27799c-0.13161,0 -0.24843,-0.06234 -0.32232,-0.15931h-9.36613c-0.07435,0.09697 -0.19117,0.15931 -0.32232,0.15931c-0.13161,0 -0.24843,-0.06234 -0.32232,-0.15931h-9.45618c-0.07435,0.09697 -0.19117,0.15931 -0.32232,0.15931c-0.13161,0 -0.24843,-0.06234 -0.32232,-0.15931h-9.45618c-0.07435,0.09697 -0.19117,0.15931 -0.32232,0.15931c-0.13161,0 -0.24843,-0.06234 -0.32232,-0.15931h-9.7337c-0.34864,0 -0.63124,-0.2826 -0.63124,-0.63124v-39.90177c0,-0.34864 0.2826,-0.63124 0.63124,-0.63124c0.21472,0 0.40405,0.10713 0.51811,0.2706h39.76832c0.22396,0 0.38927,0.13668 0.38927,0.36064v3.5418c0.05449,0.02124 0.10805,0.0471 0.16024,0.07758c0.51488,0.30338 0.68619,0.96695 0.38281,1.48183l-0.54304,0.9217v33.38108c0.14731,0.11544 0.24197,0.29507 0.24197,0.49733zM15.2611,45.30613l6.57287,-7.95357h-6.57287zM26.18156,32.09159c0.23181,-0.28076 0.58922,-0.42575 0.95125,-0.3865c0.36203,0.03925 0.67973,0.25813 0.84597,0.58183l2.18188,4.25385h4.2206v-9.19943h-9.28948v6.06862zM36.97688,49.82874l1.50584,-2.55499h-2.81681zM53.98397,20.9721c0.12237,-0.2078 0.30338,-0.35972 0.5098,-0.447v-3.1045h-9.19943v9.10939h5.41382zM54.49376,47.27375h-9.19943v8.9667h9.19943zM25.09178,47.27375v8.9667h9.28948v-6.72803l-1.14797,-2.23821zM24.27998,46.46195v-8.67163l-7.16625,8.67163zM24.27998,27.34133h-9.01888v9.19943h7.24336l1.77552,-2.14863zM24.27998,26.53v-9.10939h-9.01888v9.10939zM44.48253,17.42061h-9.28948v9.10939h9.28948zM54.49376,26.53v-2.15971l-1.27265,2.15971zM35.19305,27.34133v9.19943h9.28948v-9.19943zM54.49376,36.54077v-9.19943h-1.75104l-5.42167,9.19943zM45.29433,27.34133v8.37425l4.93543,-8.37425zM25.09178,26.53h9.28948v-9.10939h-9.28948zM34.38126,37.35256h-3.80408l3.80408,7.41653zM25.09178,37.35256v9.10939h7.72499l-4.67268,-9.10939zM44.48253,46.46195v-5.10582l-3.00891,5.10582zM35.19305,37.35256v8.99902l0.05634,0.1099h3.71127l5.36857,-9.10939zM54.49376,46.46195v-9.10939h-7.65157l-1.54786,2.6261v6.48283z" id="shadow" fill="#000000" opacity="0.3"/><path d="M55.36285,55.31745l-0.08462,0.08462c-0.02058,0.05332 -0.05208,0.10119 -0.09176,0.14086l-14.45706,14.45706h-37.22941c-1.933,0 -3.5,-1.567 -3.5,-3.5l0,-37.79202l14.18488,-14.18488c0,0 0,0 0,0c0.11423,-0.11423 0.27204,-0.18488 0.44636,-0.18488c0.21472,0 0.40405,0.10713 0.51811,0.2706h39.76832c0.22396,0 0.38927,0.13668 0.38927,0.36064v3.5418c0.05449,0.02124 0.10805,0.0471 0.16024,0.07758c0.51488,0.30338 0.68619,0.96695 0.38281,1.48183l-0.54304,0.9217v33.38108c0.14731,0.11544 0.24197,0.29507 0.24197,0.49733l-0.00139,0.00139c-0.00025,0.17382 -0.07068,0.3313 -0.18468,0.4453z" id="flatShadow" fill="#000000" opacity="0.324"/><path d="M36.91085,51.15396c-0.4059,0 -0.77763,-0.22719 -0.96326,-0.5883l-0.75454,-1.47121v5.14553h9.28948v-8.9667h-3.48731l-3.15206,5.34779c-0.19441,0.33017 -0.54905,0.53289 -0.93232,0.53289zM26.80311,32.73755l-1.49014,1.80322h2.41553zM16.18557,45.58544c-0.23458,0.28353 -0.58322,0.41744 -0.92447,0.38927v8.26527h9.01888v-8.9667h-7.83674zM55.54753,54.87123c0,0.21103 -0.10344,0.39805 -0.26275,0.51257c-0.05357,0.16162 -0.20595,0.27799 -0.38512,0.27799c-0.13161,0 -0.24843,-0.06234 -0.32232,-0.15931h-9.36613c-0.07435,0.09697 -0.19117,0.15931 -0.32232,0.15931c-0.13161,0 -0.24843,-0.06234 -0.32232,-0.15931h-9.45618c-0.07435,0.09697 -0.19117,0.15931 -0.32232,0.15931c-0.13161,0 -0.24843,-0.06234 -0.32232,-0.15931h-9.45618c-0.07435,0.09697 -0.19117,0.15931 -0.32232,0.15931c-0.13161,0 -0.24843,-0.06234 -0.32232,-0.15931h-9.7337c-0.34864,0 -0.63124,-0.2826 -0.63124,-0.63124v-39.90177c0,-0.34864 0.2826,-0.63124 0.63124,-0.63124c0.21472,0 0.40405,0.10713 0.51811,0.2706h39.76832c0.22396,0 0.38927,0.13668 0.38927,0.36064v3.5418c0.05449,0.02124 0.10805,0.0471 0.16024,0.07758c0.51488,0.30338 0.68619,0.96695 0.38281,1.48183l-0.54304,0.9217v33.38108c0.14731,0.11544 0.24197,0.29507 0.24197,0.49733zM15.2611,43.30613l6.57287,-7.95357h-6.57287zM26.18156,30.09159c0.23181,-0.28076 0.58922,-0.42575 0.95125,-0.3865c0.36203,0.03925 0.67973,0.25813 0.84597,0.58183l2.18188,4.25385h4.2206v-9.19943h-9.28948v6.06862zM36.97688,47.82874l1.50584,-2.55499h-2.81681zM53.98397,18.9721c0.12237,-0.2078 0.30338,-0.35972 0.5098,-0.447v-3.1045h-9.19943v9.10939h5.41382zM54.49376,45.27375h-9.19943v8.9667h9.19943zM25.09178,45.27375v8.9667h9.28948v-6.72803l-1.14797,-2.23821zM24.27998,44.46195v-8.67163l-7.16625,8.67163zM24.27998,25.34133h-9.01888v9.19943h7.24336l1.77552,-2.14863zM24.27998,24.53v-9.10939h-9.01888v9.10939zM44.48253,15.42061h-9.28948v9.10939h9.28948zM54.49376,24.53v-2.15971l-1.27265,2.15971zM35.19305,25.34133v9.19943h9.28948v-9.19943zM54.49376,34.54077v-9.19943h-1.75104l-5.42167,9.19943zM45.29433,25.34133v8.37425l4.93543,-8.37425zM25.09178,24.53h9.28948v-9.10939h-9.28948zM34.38126,35.35256h-3.80408l3.80408,7.41653zM25.09178,35.35256v9.10939h7.72499l-4.67268,-9.10939zM44.48253,44.46195v-5.10582l-3.00891,5.10582zM35.19305,35.35256v8.99902l0.05634,0.1099h3.71127l5.36857,-9.10939zM54.49376,44.46195v-9.10939h-7.65157l-1.54786,2.6261v6.48283z" id="icon" fill="#ffffff"/></g></svg>