<svg version="1.1" xmlns="http://www.w3.org/2000/svg" xmlns:xlink="http://www.w3.org/1999/xlink" width="70" height="70" viewBox="0,0,70,70" odoo-icon:version="1.0" xmlns:odoo-icon="https://ivantodorovich.github.io/odoo-icon" odoo-icon:size="70" odoo-icon:icon-size="0.6" odoo-icon:icon-color="#FFFFFF" odoo-icon:icon-flat-shadow-angle="135" odoo-icon:background-color="#1e88e5" odoo-icon:background-gradient="0.2" odoo-icon:box-radius="3.5" odoo-icon:odoo-version="14.0"><defs><linearGradient x1="70" y1="0" x2="0" y2="70" gradientUnits="userSpaceOnUse" id="color-1"><stop offset="0" stop-color="#51bbff"/><stop offset="1" stop-color="#1e88e5"/></linearGradient></defs><g fill="none" fill-rule="nonzero" stroke="none" stroke-width="1" stroke-linecap="butt" stroke-linejoin="miter" stroke-miterlimit="10" stroke-dasharray="" stroke-dashoffset="0" font-family="none" font-weight="none" font-size="none" text-anchor="none" style="mix-blend-mode: normal"><path d="M3.5,70c-1.933,0 -3.5,-1.567 -3.5,-3.5v-63c0,-1.933 1.567,-3.5 3.5,-3.5h63c1.933,0 3.5,1.567 3.5,3.5v63c0,1.933 -1.567,3.5 -3.5,3.5z" id="box" fill="url(#color-1)"/><path d="M65,1h-61c-1.95033,0 -3.2667,0.63396 -3.9491,1.90189c0.28378,-1.64806 1.72001,-2.90189 3.4491,-2.90189h63c1.72965,0 3.16627,1.25466 3.44938,2.90352c-0.69803,-1.26902 -2.34782,-1.90352 -4.94938,-1.90352z" id="topBoxShadow" fill="#ffffff" opacity="0.383"/><path d="M4,69h61c2.66667,0 4.33333,-1 5,-3v0.5c0,1.933 -1.567,3.5 -3.5,3.5h-63c-1.933,0 -3.5,-1.567 -3.5,-3.5c0,-0.1611 0,-0.32777 0,-0.5c0.66667,2 2,3 4,3z" id="bottomBoxShadow" fill="#000000" opacity="0.383"/><path d="M54.38462,22.46154v32.30769c0,1.78442 -1.44635,3.23077 -3.23077,3.23077h-32.30769c-1.78442,0 -3.23077,-1.44635 -3.23077,-3.23077v-32.30769c0,-1.78442 1.44635,-3.23077 3.23077,-3.23077h4.84615v-1.61538c0,-0.89221 0.72318,-1.61538 1.61538,-1.61538c0.89221,0 1.61538,0.72318 1.61538,1.61538v1.61538h16.15385v-1.61538c0,-0.89221 0.72318,-1.61538 1.61538,-1.61538c0.89221,0 1.61538,0.72318 1.61538,1.61538v1.61538h4.84615c1.78442,0 3.23077,1.44635 3.23077,3.23077zM51.15385,32.15385h-32.30769v22.61538h32.30769zM31.76923,37v12.92308c0,0.89221 -0.72318,1.61538 -1.61538,1.61538c-0.89221,0 -1.61538,-0.72318 -1.61538,-1.61538v-10.31003l-0.89273,0.44817c-0.79865,0.39906 -1.76943,0.07547 -2.16849,-0.72266c-0.39906,-0.79865 -0.07547,-1.76943 0.72266,-2.16849l3.23077,-1.61538c0.5009,-0.25071 1.09588,-0.22383 1.57248,0.07082c0.4766,0.29465 0.76608,0.81519 0.76608,1.37502zM43.71481,43.1488l-3.86865,5.15889h3.23077c0.89221,0 1.61538,0.72318 1.61538,1.61538c0,0.89221 -0.72318,1.61538 -1.61538,1.61538h-6.46154c-0.61204,0 -1.17135,-0.34582 -1.4448,-0.89273c-0.27345,-0.54742 -0.21452,-1.20236 0.15249,-1.69189l5.81125,-7.74764c0.3603,-0.4797 0.42491,-1.11914 0.16852,-1.66087c-0.25639,-0.54225 -0.79193,-0.89738 -1.39156,-0.92322c-0.59911,-0.02533 -1.16308,0.28276 -1.46496,0.80123c-0.28017,0.51589 -0.81829,0.83948 -1.40551,0.84465c-0.58722,0.00517 -1.13103,-0.30912 -1.41999,-0.82036c-0.28896,-0.51124 -0.2781,-1.13878 0.02895,-1.63968c1.09691,-1.89866 3.33209,-2.82395 5.45044,-2.25637c2.11783,0.56758 3.59106,2.4864 3.59158,4.67919c0.00362,1.05349 -0.34014,2.07906 -0.9775,2.91803z" id="shadow" fill="#000000" opacity="0.3"/><path d="M54.38462,52.76923c0,0.89221 -0.36159,1.6999 -0.94623,2.28454l-14.94623,14.94623h-34.99216c-1.933,0 -3.5,-1.567 -3.5,-3.5l0,-31.76139l16.56161,-16.56161c0.58464,-0.58464 1.39233,-0.94623 2.28454,-0.94623l3.23077,0l1.61538,-1.61538c0,0 0.47311,-1.14227 0.47311,-1.14227c0,0 0,0 0,0c0.29232,-0.29232 0.69617,-0.47311 1.14227,-0.47311c0.89221,0 1.61538,0.72318 1.61538,1.61538v1.61538l13.8693,0l2.75766,-2.75766c0.29232,-0.29232 0.69617,-0.47311 1.14227,-0.47311c0.89221,0 1.61538,0.72318 1.61538,1.61538v1.61538h4.84615c1.78442,0 3.23077,1.44635 3.23077,3.23077z" id="flatShadow" fill="#000000" opacity="0.324"/><path d="M54.38462,20.46154v32.30769c0,1.78442 -1.44635,3.23077 -3.23077,3.23077h-32.30769c-1.78442,0 -3.23077,-1.44635 -3.23077,-3.23077v-32.30769c0,-1.78442 1.44635,-3.23077 3.23077,-3.23077h4.84615v-1.61538c0,-0.89221 0.72318,-1.61538 1.61538,-1.61538c0.89221,0 1.61538,0.72318 1.61538,1.61538v1.61538h16.15385v-1.61538c0,-0.89221 0.72318,-1.61538 1.61538,-1.61538c0.89221,0 1.61538,0.72318 1.61538,1.61538v1.61538h4.84615c1.78442,0 3.23077,1.44635 3.23077,3.23077zM51.15385,30.15385h-32.30769v22.61538h32.30769zM31.76923,35v12.92308c0,0.89221 -0.72318,1.61538 -1.61538,1.61538c-0.89221,0 -1.61538,-0.72318 -1.61538,-1.61538v-10.31003l-0.89273,0.44817c-0.79865,0.39906 -1.76943,0.07547 -2.16849,-0.72266c-0.39906,-0.79865 -0.07547,-1.76943 0.72266,-2.16849l3.23077,-1.61538c0.5009,-0.25071 1.09588,-0.22383 1.57248,0.07082c0.4766,0.29465 0.76608,0.81519 0.76608,1.37502zM43.71481,41.1488l-3.86865,5.15889h3.23077c0.89221,0 1.61538,0.72318 1.61538,1.61538c0,0.89221 -0.72318,1.61538 -1.61538,1.61538h-6.46154c-0.61204,0 -1.17135,-0.34582 -1.4448,-0.89273c-0.27345,-0.54742 -0.21452,-1.20236 0.15249,-1.69189l5.81125,-7.74764c0.3603,-0.4797 0.42491,-1.11914 0.16852,-1.66087c-0.25639,-0.54225 -0.79193,-0.89738 -1.39156,-0.92322c-0.59911,-0.02533 -1.16308,0.28276 -1.46496,0.80123c-0.28017,0.51589 -0.81829,0.83948 -1.40551,0.84465c-0.58722,0.00517 -1.13103,-0.30912 -1.41999,-0.82036c-0.28896,-0.51124 -0.2781,-1.13878 0.02895,-1.63968c1.09691,-1.89866 3.33209,-2.82395 5.45044,-2.25637c2.11783,0.56758 3.59106,2.4864 3.59158,4.67919c0.00362,1.05349 -0.34014,2.07906 -0.9775,2.91803z" id="icon" fill="#ffffff"/></g></svg>