<svg version="1.1" xmlns="http://www.w3.org/2000/svg" xmlns:xlink="http://www.w3.org/1999/xlink" width="70" height="70" viewBox="0,0,70,70" odoo-icon:version="1.0" xmlns:odoo-icon="https://ivantodorovich.github.io/odoo-icon" odoo-icon:size="70" odoo-icon:icon-size="0.58" odoo-icon:icon-color="#FFFFFF" odoo-icon:icon-flat-shadow-angle="135" odoo-icon:background-color="#fdd835" odoo-icon:background-gradient="0.2" odoo-icon:box-radius="3.5" odoo-icon:odoo-version="14.0"><defs><linearGradient x1="70" y1="0" x2="0" y2="70" gradientUnits="userSpaceOnUse" id="color-1"><stop offset="0" stop-color="#ffff68"/><stop offset="1" stop-color="#fdd835"/></linearGradient></defs><g fill="none" fill-rule="nonzero" stroke="none" stroke-width="1" stroke-linecap="butt" stroke-linejoin="miter" stroke-miterlimit="10" stroke-dasharray="" stroke-dashoffset="0" font-family="none" font-weight="none" font-size="none" text-anchor="none" style="mix-blend-mode: normal"><path d="M3.5,70c-1.933,0 -3.5,-1.567 -3.5,-3.5v-63c0,-1.933 1.567,-3.5 3.5,-3.5h63c1.933,0 3.5,1.567 3.5,3.5v63c0,1.933 -1.567,3.5 -3.5,3.5z" id="box" fill="url(#color-1)"/><path d="M65,1h-61c-1.95033,0 -3.2667,0.63396 -3.9491,1.90189c0.28378,-1.64806 1.72001,-2.90189 3.4491,-2.90189h63c1.72965,0 3.16627,1.25466 3.44938,2.90352c-0.69803,-1.26902 -2.34782,-1.90352 -4.94938,-1.90352z" id="topBoxShadow" fill="#ffffff" opacity="0.383"/><path d="M4,69h61c2.66667,0 4.33333,-1 5,-3v0.5c0,1.933 -1.567,3.5 -3.5,3.5h-63c-1.933,0 -3.5,-1.567 -3.5,-3.5c0,-0.1611 0,-0.32777 0,-0.5c0.66667,2 2,3 4,3z" id="bottomBoxShadow" fill="#000000" opacity="0.383"/><path d="M14.76676,22.19862c-0.70515,2.65374 0.05658,5.48213 1.99902,7.42294c1.94285,1.94039 4.77206,2.69925 7.42499,1.99123l16.24756,16.01962c-0.68465,2.32577 -0.23286,4.83848 1.21884,6.7801c1.45171,1.94203 3.73361,3.08585 6.15817,3.08749c3.00878,-0.0041 5.73836,-1.76329 6.98509,-4.50148c1.24672,-2.7382 0.7814,-5.95196 -1.19056,-8.22443c-1.97237,-2.27206 -5.08856,-3.18506 -7.97517,-2.3356l-16.01962,-16.24756c0.71171,-2.65415 -0.04551,-5.48623 -1.98672,-7.43113c-1.94121,-1.9449 -4.77206,-2.70745 -7.42745,-2.00066l5.48582,5.48869l-0.93268,4.50476l-4.50189,0.93268zM49.02476,45.30828l1.3529,0.06642l0.73549,1.14013l1.14013,0.73549l0.06642,1.35536l0.61988,1.20695l-0.62029,1.20695l-0.06642,1.35536l-1.14013,0.73549l-0.73549,1.14013l-1.35536,0.06642l-1.20695,0.61988l-1.20695,-0.62029l-1.35536,-0.06642l-0.73549,-1.14013l-1.14013,-0.73549l-0.06642,-1.35536l-0.61988,-1.20695l0.62029,-1.20695l0.06642,-1.35536l1.14013,-0.73549l0.73549,-1.14013l1.35536,-0.06642l1.20695,-0.61988l1.20695,0.62029z" id="shadow" fill="#000000" opacity="0.3"/><path d="M29.61509,24.19092l16.01962,16.24756c2.88661,-0.84946 6.0028,0.06355 7.97517,2.3356c1.97196,2.27247 2.43728,5.48623 1.19056,8.22443c-0.38814,0.85249 -0.92002,1.61008 -1.5593,2.24936l-16.75212,16.75212h-32.98901c-1.933,0 -3.5,-1.567 -3.5,-3.5l0,-31.53994l20.20093,-20.20093c2.65538,-0.70679 5.48623,0.05576 7.42745,2.00066c1.94121,1.9449 2.69843,4.77698 1.98672,7.43113z" id="flatShadow" fill="#000000" opacity="0.324"/><path d="M14.76676,20.19862c-0.70515,2.65374 0.05658,5.48213 1.99902,7.42294c1.94285,1.94039 4.77206,2.69925 7.42499,1.99123l16.24756,16.01962c-0.68465,2.32577 -0.23286,4.83848 1.21884,6.7801c1.45171,1.94203 3.73361,3.08585 6.15817,3.08749c3.00878,-0.0041 5.73836,-1.76329 6.98509,-4.50148c1.24672,-2.7382 0.7814,-5.95196 -1.19056,-8.22443c-1.97237,-2.27206 -5.08856,-3.18506 -7.97517,-2.3356l-16.01962,-16.24756c0.71171,-2.65415 -0.04551,-5.48623 -1.98672,-7.43113c-1.94121,-1.9449 -4.77206,-2.70745 -7.42745,-2.00066l5.48582,5.48869l-0.93268,4.50476l-4.50189,0.93268zM49.02476,43.30828l1.3529,0.06642l0.73549,1.14013l1.14013,0.73549l0.06642,1.35536l0.61988,1.20695l-0.62029,1.20695l-0.06642,1.35536l-1.14013,0.73549l-0.73549,1.14013l-1.35536,0.06642l-1.20695,0.61988l-1.20695,-0.62029l-1.35536,-0.06642l-0.73549,-1.14013l-1.14013,-0.73549l-0.06642,-1.35536l-0.61988,-1.20695l0.62029,-1.20695l0.06642,-1.35536l1.14013,-0.73549l0.73549,-1.14013l1.35536,-0.06642l1.20695,-0.61988l1.20695,0.62029z" id="icon" fill="#ffffff"/></g></svg>