<svg version="1.1" xmlns="http://www.w3.org/2000/svg" xmlns:xlink="http://www.w3.org/1999/xlink" width="70" height="70" viewBox="0,0,70,70" odoo-icon:version="1.0" xmlns:odoo-icon="https://ivantodorovich.github.io/odoo-icon" odoo-icon:size="70" odoo-icon:icon-size="0.6" odoo-icon:icon-color="#FFFFFF" odoo-icon:icon-flat-shadow-angle="135" odoo-icon:background-color="#5a9442" odoo-icon:background-gradient="0.2" odoo-icon:box-radius="3.5" odoo-icon:odoo-version="14.0"><defs><linearGradient x1="70" y1="0" x2="0" y2="70" gradientUnits="userSpaceOnUse" id="color-1"><stop offset="0" stop-color="#8dc775"/><stop offset="1" stop-color="#5a9442"/></linearGradient></defs><g fill="none" fill-rule="nonzero" stroke="none" stroke-width="1" stroke-linecap="butt" stroke-linejoin="miter" stroke-miterlimit="10" stroke-dasharray="" stroke-dashoffset="0" font-family="none" font-weight="none" font-size="none" text-anchor="none" style="mix-blend-mode: normal"><path d="M3.5,70c-1.933,0 -3.5,-1.567 -3.5,-3.5v-63c0,-1.933 1.567,-3.5 3.5,-3.5h63c1.933,0 3.5,1.567 3.5,3.5v63c0,1.933 -1.567,3.5 -3.5,3.5z" id="box" fill="url(#color-1)"/><path d="M65,1h-61c-1.95033,0 -3.2667,0.63396 -3.9491,1.90189c0.28378,-1.64806 1.72001,-2.90189 3.4491,-2.90189h63c1.72965,0 3.16627,1.25466 3.44938,2.90352c-0.69803,-1.26902 -2.34782,-1.90352 -4.94938,-1.90352z" id="topBoxShadow" fill="#ffffff" opacity="0.383"/><path d="M4,69h61c2.66667,0 4.33333,-1 5,-3v0.5c0,1.933 -1.567,3.5 -3.5,3.5h-63c-1.933,0 -3.5,-1.567 -3.5,-3.5c0,-0.1611 0,-0.32777 0,-0.5c0.66667,2 2,3 4,3z" id="bottomBoxShadow" fill="#000000" opacity="0.383"/><path d="M51.11751,40.41877c0,-0.80922 -0.65591,-1.46512 -1.46512,-1.46512h-5.86049c-0.80922,0 -1.46512,0.65591 -1.46512,1.46512v13.1861h-2.93024v-31.74415c0,-1.42199 -0.00375,-2.34419 -0.09377,-3.02026c-0.0858,-0.63481 -0.22457,-0.83406 -0.33616,-0.94565c-0.11158,-0.11158 -0.31037,-0.24989 -0.94565,-0.33616c-0.67794,-0.09002 -1.5978,-0.09377 -3.02026,-0.09377c-1.42199,0 -2.34419,0.00375 -3.02026,0.09377c-0.63481,0.0858 -0.83406,0.22457 -0.94565,0.33616c-0.11158,0.11158 -0.24989,0.31037 -0.33616,0.94565c-0.09002,0.67794 -0.09377,1.5978 -0.09377,3.02026v31.74415h-2.93024v-22.95342c0,-0.80922 -0.65591,-1.46512 -1.46512,-1.46512h-5.86049c-0.80922,0 -1.46512,0.65591 -1.46512,1.46512v22.95342h-3.41877c-0.80922,0 -1.46512,0.65591 -1.46512,1.46512c0,0.80922 0.65591,1.46512 1.46512,1.46512h39.06976c0.80922,0 1.46512,-0.65591 1.46512,-1.46512c0,-0.80922 -0.65591,-1.46512 -1.46512,-1.46512h-3.41877z" id="shadow" fill="#000000" opacity="0.3"/><path d="M42.75589,37.38276c0.26513,-0.26513 0.63141,-0.4291 1.03602,-0.4291h5.86049c0.80922,0 1.46512,0.65591 1.46512,1.46512l-0.00141,13.1861h3.41877c0.80922,0 1.46512,0.65591 1.46512,1.46512l-16.93001,16.93001h-35.56999c-1.933,0 -3.5,-1.567 -3.5,-3.5l0,-19.57156l19.313,-19.313c0.01165,-0.01165 0.0235,-0.02311 0.03553,-0.03436l11.68626,-11.68626c0.11158,-0.11158 0.31084,-0.25036 0.94565,-0.33616c0.67607,-0.09002 1.59827,-0.09377 3.02026,-0.09377c1.42246,0 2.34232,0.00375 3.02026,0.09377c0.63528,0.08627 0.83406,0.22457 0.94565,0.33616c0.11158,0.11158 0.25036,0.31084 0.33616,0.94565c0.09002,0.67607 0.09377,1.59827 0.09377,3.02026l0,20.88138z" id="flatShadow" fill="#000000" opacity="0.324"/><path d="M51.11751,38.41877c0,-0.80922 -0.65591,-1.46512 -1.46512,-1.46512h-5.86049c-0.80922,0 -1.46512,0.65591 -1.46512,1.46512v13.1861h-2.93024v-31.74415c0,-1.42199 -0.00375,-2.34419 -0.09377,-3.02026c-0.0858,-0.63481 -0.22457,-0.83406 -0.33616,-0.94565c-0.11158,-0.11158 -0.31037,-0.24989 -0.94565,-0.33616c-0.67794,-0.09002 -1.5978,-0.09377 -3.02026,-0.09377c-1.42199,0 -2.34419,0.00375 -3.02026,0.09377c-0.63481,0.0858 -0.83406,0.22457 -0.94565,0.33616c-0.11158,0.11158 -0.24989,0.31037 -0.33616,0.94565c-0.09002,0.67794 -0.09377,1.5978 -0.09377,3.02026v31.74415h-2.93024v-22.95342c0,-0.80922 -0.65591,-1.46512 -1.46512,-1.46512h-5.86049c-0.80922,0 -1.46512,0.65591 -1.46512,1.46512v22.95342h-3.41877c-0.80922,0 -1.46512,0.65591 -1.46512,1.46512c0,0.80922 0.65591,1.46512 1.46512,1.46512h39.06976c0.80922,0 1.46512,-0.65591 1.46512,-1.46512c0,-0.80922 -0.65591,-1.46512 -1.46512,-1.46512h-3.41877z" id="icon" fill="#ffffff"/></g></svg>