<svg version="1.1" xmlns="http://www.w3.org/2000/svg" xmlns:xlink="http://www.w3.org/1999/xlink" width="70" height="70" viewBox="0,0,70,70"><!-- Generated with https://ivantodorovich.github.io/odoo-icon --><defs><linearGradient x1="70" y1="0" x2="0" y2="70" gradientUnits="userSpaceOnUse" id="color-1"><stop offset="0" stop-color="#a8a8a8"/><stop offset="1" stop-color="#757575"/></linearGradient></defs><g fill="none" fill-rule="nonzero" stroke="none" stroke-width="1" stroke-linecap="butt" stroke-linejoin="miter" stroke-miterlimit="10" stroke-dasharray="" stroke-dashoffset="0" font-family="none" font-weight="none" font-size="none" text-anchor="none" style="mix-blend-mode: normal"><path d="M3.5,70c-1.933,0 -3.5,-1.567 -3.5,-3.5v-63c0,-1.933 1.567,-3.5 3.5,-3.5h63c1.933,0 3.5,1.567 3.5,3.5v63c0,1.933 -1.567,3.5 -3.5,3.5z" id="box" fill="url(#color-1)"/><path d="M65,1h-61c-1.95033,0 -3.2667,0.63396 -3.9491,1.90189c0.28378,-1.64806 1.72001,-2.90189 3.4491,-2.90189h63c1.72965,0 3.16627,1.25466 3.44938,2.90352c-0.69803,-1.26902 -2.34782,-1.90352 -4.94938,-1.90352z" id="topBoxShadow" fill="#ffffff" opacity="0.383"/><path d="M4,69h61c2.66667,0 4.33333,-1 5,-3v0.5c0,1.933 -1.567,3.5 -3.5,3.5h-63c-1.933,0 -3.5,-1.567 -3.5,-3.5c0,-0.1611 0,-0.32777 0,-0.5c0.66667,2 2,3 4,3z" id="bottomBoxShadow" fill="#000000" opacity="0.383"/><path d="M44.23061,17c-1.6994,0 -3.0771,1.3777 -3.0771,3.0771h-23.0771v3.0771l3.0771,3.0771l3.0771,-3.0771l3.0771,3.0771l3.0771,-3.0771l3.0771,3.0771h7.69252c0,1.6994 1.3777,3.0771 3.0771,3.0771h6.15374c0.8497,0 1.53832,-0.68862 1.53832,-1.53832v-9.23084c0,-0.8497 -0.68862,-1.53832 -1.53832,-1.53832zM45.76893,21.61542c0,-0.8497 0.68862,-1.53832 1.53832,-1.53832c0.8497,0 1.53832,0.68862 1.53832,1.53832v3.0771c0,0.8497 -0.68862,1.53832 -1.53832,1.53832c-0.8497,0 -1.53832,-0.68862 -1.53832,-1.53832zM18.52595,42.70466c-0.28754,0.28846 -0.44908,0.67893 -0.44908,1.08601v11.67101c0,0.8497 0.68862,1.53832 1.53832,1.53832h4.61542c0.8497,0 1.53832,-0.68862 1.53832,-1.53832v-1.53832h18.46168v1.53832c0,0.8497 0.68862,1.53832 1.53832,1.53832h4.61542c0.8497,0 1.53832,-0.68862 1.53832,-1.53832v-11.67101c0,-0.40708 -0.16154,-0.79801 -0.44908,-1.08601l-2.62756,-2.62756l-4.16634,-6.94482c-0.27877,-0.46477 -0.78093,-0.74908 -1.32324,-0.7477h-16.71382c-0.54093,0 -1.04216,0.28385 -1.32001,0.7477l-4.16911,6.94482zM46.18155,41.61542h-22.3631l3.69234,-6.15374h14.97842zM28.84603,47.24023v1.14462c0,0.51 -0.41308,0.92308 -0.92308,0.92308h-5.84635c-0.51,0 -0.92308,-0.41308 -0.92308,-0.92308v-2.56617c0,-0.27646 0.12415,-0.53862 0.33831,-0.71354c0.21416,-0.17539 0.49523,-0.24508 0.76662,-0.19108l5.59989,1.12016c0.57416,0.11585 0.9877,0.62031 0.9877,1.20601zM48.84603,46.19392v2.19094c0,0.51 -0.41308,0.92308 -0.92308,0.92308h-5.84635c-0.51,0 -0.92308,-0.41308 -0.92308,-0.92308v-1.39709c0,-0.43985 0.31062,-0.81831 0.7417,-0.90462l5.47712,-1.09524c0.36185,-0.07292 0.73708,0.02031 1.02278,0.25385c0.28569,0.23354 0.45139,0.58293 0.45139,0.95216z" id="shadow" fill="#000000" opacity="0.3"/><path d="M51.92359,16.53924v9.23084c0,0.42485 -0.17216,0.80943 -0.45052,1.0878l-5.84884,5.84884l3.2218,5.37038l2.62756,2.62756c0.28754,0.288 0.44908,0.67893 0.44908,1.08601v11.67101l-16.53832,16.53832h-31.88435c-1.933,0 -3.5,-1.567 -3.5,-3.5l0,-30.34649l18.07641,-18.07641l21.80255,0l2.17582,-2.17582c0.55685,-0.55685 1.32613,-0.90128 2.17582,-0.90128l6.15466,0.00092c0.8497,0 1.53832,0.68862 1.53832,1.53832z" id="flatShadow" fill="#000000" opacity="0.324"/><path d="M44.23061,15c-1.6994,0 -3.0771,1.3777 -3.0771,3.0771h-23.0771v3.0771l3.0771,3.0771l3.0771,-3.0771l3.0771,3.0771l3.0771,-3.0771l3.0771,3.0771h7.69252c0,1.6994 1.3777,3.0771 3.0771,3.0771h6.15374c0.8497,0 1.53832,-0.68862 1.53832,-1.53832v-9.23084c0,-0.8497 -0.68862,-1.53832 -1.53832,-1.53832zM45.76893,19.61542c0,-0.8497 0.68862,-1.53832 1.53832,-1.53832c0.8497,0 1.53832,0.68862 1.53832,1.53832v3.0771c0,0.8497 -0.68862,1.53832 -1.53832,1.53832c-0.8497,0 -1.53832,-0.68862 -1.53832,-1.53832zM18.52595,40.70466c-0.28754,0.28846 -0.44908,0.67893 -0.44908,1.08601v11.67101c0,0.8497 0.68862,1.53832 1.53832,1.53832h4.61542c0.8497,0 1.53832,-0.68862 1.53832,-1.53832v-1.53832h18.46168v1.53832c0,0.8497 0.68862,1.53832 1.53832,1.53832h4.61542c0.8497,0 1.53832,-0.68862 1.53832,-1.53832v-11.67101c0,-0.40708 -0.16154,-0.79801 -0.44908,-1.08601l-2.62756,-2.62756l-4.16634,-6.94482c-0.27877,-0.46477 -0.78093,-0.74908 -1.32324,-0.7477h-16.71382c-0.54093,0 -1.04216,0.28385 -1.32001,0.7477l-4.16911,6.94482zM46.18155,39.61542h-22.3631l3.69234,-6.15374h14.97842zM28.84603,45.24023v1.14462c0,0.51 -0.41308,0.92308 -0.92308,0.92308h-5.84635c-0.51,0 -0.92308,-0.41308 -0.92308,-0.92308v-2.56617c0,-0.27646 0.12415,-0.53862 0.33831,-0.71354c0.21416,-0.17539 0.49523,-0.24508 0.76662,-0.19108l5.59989,1.12016c0.57416,0.11585 0.9877,0.62031 0.9877,1.20601zM48.84603,44.19392v2.19094c0,0.51 -0.41308,0.92308 -0.92308,0.92308h-5.84635c-0.51,0 -0.92308,-0.41308 -0.92308,-0.92308v-1.39709c0,-0.43985 0.31062,-0.81831 0.7417,-0.90462l5.47712,-1.09524c0.36185,-0.07292 0.73708,0.02031 1.02278,0.25385c0.28569,0.23354 0.45139,0.58293 0.45139,0.95216z" id="icon" fill="#ffffff"/></g></svg>