<svg version="1.1" xmlns="http://www.w3.org/2000/svg" xmlns:xlink="http://www.w3.org/1999/xlink" width="70" height="70" viewBox="0,0,70,70" odoo-icon:version="1.0" xmlns:odoo-icon="https://ivantodorovich.github.io/odoo-icon" odoo-icon:size="70" odoo-icon:icon-size="0.6" odoo-icon:icon-color="#FFFFFF" odoo-icon:icon-flat-shadow-angle="135" odoo-icon:background-color="#a4426b" odoo-icon:background-gradient="0.2" odoo-icon:box-radius="3.5" odoo-icon:odoo-version="14.0"><defs><linearGradient x1="70" y1="0" x2="0" y2="70" gradientUnits="userSpaceOnUse" id="color-1"><stop offset="0" stop-color="#d7759e"/><stop offset="1" stop-color="#a4426b"/></linearGradient></defs><g fill="none" fill-rule="nonzero" stroke="none" stroke-width="1" stroke-linecap="butt" stroke-linejoin="miter" stroke-miterlimit="10" stroke-dasharray="" stroke-dashoffset="0" font-family="none" font-weight="none" font-size="none" text-anchor="none" style="mix-blend-mode: normal"><path d="M3.5,70c-1.933,0 -3.5,-1.567 -3.5,-3.5v-63c0,-1.933 1.567,-3.5 3.5,-3.5h63c1.933,0 3.5,1.567 3.5,3.5v63c0,1.933 -1.567,3.5 -3.5,3.5z" id="box" fill="url(#color-1)"/><path d="M65,1h-61c-1.95033,0 -3.2667,0.63396 -3.9491,1.90189c0.28378,-1.64806 1.72001,-2.90189 3.4491,-2.90189h63c1.72965,0 3.16627,1.25466 3.44938,2.90352c-0.69803,-1.26902 -2.34782,-1.90352 -4.94938,-1.90352z" id="topBoxShadow" fill="#ffffff" opacity="0.383"/><path d="M4,69h61c2.66667,0 4.33333,-1 5,-3v0.5c0,1.933 -1.567,3.5 -3.5,3.5h-63c-1.933,0 -3.5,-1.567 -3.5,-3.5c0,-0.1611 0,-0.32777 0,-0.5c0.66667,2 2,3 4,3z" id="bottomBoxShadow" fill="#000000" opacity="0.383"/><path d="M33.09099,36.04561l15.27252,-9.54527v-3.81801l-15.27252,9.54527l-15.27252,-9.54527v3.81801zM46.45473,55.13614c-2.64095,0 -4.89245,-0.93102 -6.75449,-2.79307c-1.86204,-1.86204 -2.79215,-4.11262 -2.79123,-6.7522c0,-2.64095 0.93102,-4.89245 2.79307,-6.75449c1.86204,-1.86204 4.11262,-2.79215 6.7522,-2.79123c2.64095,0 4.89245,0.93102 6.75449,2.79307c1.86204,1.86204 2.79215,4.11262 2.79123,6.75266c0,2.64095 -0.93102,4.89245 -2.79307,6.75449c-1.86204,1.86204 -4.11262,2.79215 -6.7522,2.79123zM40.72748,46.54527h11.4545v-1.90924h-11.4545zM17.81848,49.40889c-1.05015,0 -1.9491,-0.37433 -2.69776,-1.12254c-0.74821,-0.74821 -1.12208,-1.6467 -1.12071,-2.69547v-22.90901c0,-1.05015 0.37433,-1.9491 1.12254,-2.69776c0.74821,-0.74821 1.6467,-1.12208 2.69547,-1.12071h30.54549c1.05015,0 1.9491,0.37433 2.69776,1.12254c0.74821,0.74821 1.12208,1.6467 1.12071,2.69547v10.88178c-0.8907,-0.44535 -1.81348,-0.77936 -2.76832,-1.00204c-0.95439,-0.22268 -1.94085,-0.33401 -2.95893,-0.33401c-3.72271,0 -6.88095,1.29619 -9.47471,3.88857c-2.59376,2.59238 -3.88995,5.75062 -3.88857,9.47471c0,0.63641 0.04765,1.27282 0.14295,1.90924c0.0953,0.63641 0.23871,1.27282 0.42977,1.90924z" id="shadow" fill="#000000" opacity="0.3"/><path d="M15.12255,17.98411c0.74821,-0.74821 1.6467,-1.12208 2.69547,-1.12071h30.54549c1.05015,0 1.9491,0.37433 2.69776,1.12254c0.74821,0.74821 1.12208,1.6467 1.12071,2.69547v10.88178l-2.88539,2.88539c1.45374,0.43872 2.75779,1.23527 3.91217,2.38964c1.86204,1.86204 2.79215,4.11262 2.79123,6.75266c0,2.64095 -0.93102,4.89245 -2.79307,6.75449l-19.65463,19.65463h-30.0523c-1.933,0 -3.5,-1.567 -3.5,-3.5l0,-33.39335z" id="flatShadow" fill="#000000" opacity="0.324"/><path d="M33.09099,34.04561l15.27252,-9.54527v-3.81801l-15.27252,9.54527l-15.27252,-9.54527v3.81801zM46.45473,53.13614c-2.64095,0 -4.89245,-0.93102 -6.75449,-2.79307c-1.86204,-1.86204 -2.79215,-4.11262 -2.79123,-6.7522c0,-2.64095 0.93102,-4.89245 2.79307,-6.75449c1.86204,-1.86204 4.11262,-2.79215 6.7522,-2.79123c2.64095,0 4.89245,0.93102 6.75449,2.79307c1.86204,1.86204 2.79215,4.11262 2.79123,6.75266c0,2.64095 -0.93102,4.89245 -2.79307,6.75449c-1.86204,1.86204 -4.11262,2.79215 -6.7522,2.79123zM40.72748,44.54527h11.4545v-1.90924h-11.4545zM17.81848,47.40889c-1.05015,0 -1.9491,-0.37433 -2.69776,-1.12254c-0.74821,-0.74821 -1.12208,-1.6467 -1.12071,-2.69547v-22.90901c0,-1.05015 0.37433,-1.9491 1.12254,-2.69776c0.74821,-0.74821 1.6467,-1.12208 2.69547,-1.12071h30.54549c1.05015,0 1.9491,0.37433 2.69776,1.12254c0.74821,0.74821 1.12208,1.6467 1.12071,2.69547v10.88178c-0.8907,-0.44535 -1.81348,-0.77936 -2.76832,-1.00204c-0.95439,-0.22268 -1.94085,-0.33401 -2.95893,-0.33401c-3.72271,0 -6.88095,1.29619 -9.47471,3.88857c-2.59376,2.59238 -3.88995,5.75062 -3.88857,9.47471c0,0.63641 0.04765,1.27282 0.14295,1.90924c0.0953,0.63641 0.23871,1.27282 0.42977,1.90924z" id="icon" fill="#ffffff"/></g></svg>