<svg version="1.1" xmlns="http://www.w3.org/2000/svg" xmlns:xlink="http://www.w3.org/1999/xlink" width="70" height="70" viewBox="0,0,70,70" odoo-icon:version="1.0" xmlns:odoo-icon="https://ivantodorovich.github.io/odoo-icon" odoo-icon:size="70" odoo-icon:icon-size="0.55" odoo-icon:icon-color="#FFFFFF" odoo-icon:icon-flat-shadow-angle="135" odoo-icon:background-color="#cb6482" odoo-icon:background-gradient="0.2" odoo-icon:box-radius="3.5" odoo-icon:odoo-version="14.0"><defs><linearGradient x1="70" y1="0" x2="0" y2="70" gradientUnits="userSpaceOnUse" id="color-1"><stop offset="0" stop-color="#fe97b5"/><stop offset="1" stop-color="#cb6482"/></linearGradient></defs><g fill="none" fill-rule="nonzero" stroke="none" stroke-width="1" stroke-linecap="butt" stroke-linejoin="miter" stroke-miterlimit="10" stroke-dasharray="" stroke-dashoffset="0" font-family="none" font-weight="none" font-size="none" text-anchor="none" style="mix-blend-mode: normal"><path d="M3.5,70c-1.933,0 -3.5,-1.567 -3.5,-3.5v-63c0,-1.933 1.567,-3.5 3.5,-3.5h63c1.933,0 3.5,1.567 3.5,3.5v63c0,1.933 -1.567,3.5 -3.5,3.5z" id="box" fill="url(#color-1)"/><path d="M65,1h-61c-1.95033,0 -3.2667,0.63396 -3.9491,1.90189c0.28378,-1.64806 1.72001,-2.90189 3.4491,-2.90189h63c1.72965,0 3.16627,1.25466 3.44938,2.90352c-0.69803,-1.26902 -2.34782,-1.90352 -4.94938,-1.90352z" id="topBoxShadow" fill="#ffffff" opacity="0.383"/><path d="M4,69h61c2.66667,0 4.33333,-1 5,-3v0.5c0,1.933 -1.567,3.5 -3.5,3.5h-63c-1.933,0 -3.5,-1.567 -3.5,-3.5c0,-0.1611 0,-0.32777 0,-0.5c0.66667,2 2,3 4,3z" id="bottomBoxShadow" fill="#000000" opacity="0.383"/><path d="M32.07479,39.92498v15.59972h-15.59972v-15.59972h15.59972M28.17498,43.82479h-7.80009v7.80009h7.80009v-7.80009M34.02493,17.5l10.72507,17.54986h-21.44967l10.72507,-17.54986M34.02493,25.02725l-3.74397,6.1228h7.48794l-3.74397,-6.1228M44.75,38.95014c4.87512,0 8.77493,3.89981 8.77493,8.77493c0,4.87512 -3.89981,8.77493 -8.77493,8.77493c-4.87512,0 -8.77493,-3.89981 -8.77493,-8.77493c0,-4.87512 3.89981,-8.77493 8.77493,-8.77493M44.75,42.84995c-2.69238,0 -4.87512,2.18273 -4.87512,4.87512c0,2.69238 2.18273,4.87512 4.87512,4.87512c2.69238,0 4.87512,-2.18273 4.87512,-4.87512c0,-2.69238 -2.18273,-4.87512 -4.87512,-4.87512z" id="shadow" fill="#000000" opacity="0.3"/><path d="M34.02493,15.5l0.00018,0.00029l0.00029,-0.00029l-0.00023,0.00038l10.72484,17.54948l-12.67521,12.67521v0.24394l6.45958,-6.45958c1.58434,-1.58434 3.77808,-2.5593 6.21563,-2.5593c4.87512,0 8.77493,3.89981 8.77493,8.77493c0,2.43756 -0.97495,4.63129 -2.5593,6.21563l-18.0593,18.0593h-29.40634c-1.933,0 -3.5,-1.567 -3.5,-3.5l0,-16.97507z" id="flatShadow" fill="#000000" opacity="0.324"/><path d="M32.07479,37.92498v15.59972h-15.59972v-15.59972h15.59972M28.17498,41.82479h-7.80009v7.80009h7.80009v-7.80009M34.02493,15.5l10.72507,17.54986h-21.44967l10.72507,-17.54986M34.02493,23.02725l-3.74397,6.1228h7.48794l-3.74397,-6.1228M44.75,36.95014c4.87512,0 8.77493,3.89981 8.77493,8.77493c0,4.87512 -3.89981,8.77493 -8.77493,8.77493c-4.87512,0 -8.77493,-3.89981 -8.77493,-8.77493c0,-4.87512 3.89981,-8.77493 8.77493,-8.77493M44.75,40.84995c-2.69238,0 -4.87512,2.18273 -4.87512,4.87512c0,2.69238 2.18273,4.87512 4.87512,4.87512c2.69238,0 4.87512,-2.18273 4.87512,-4.87512c0,-2.69238 -2.18273,-4.87512 -4.87512,-4.87512z" id="icon" fill="#ffffff"/></g></svg>