<svg version="1.1" xmlns="http://www.w3.org/2000/svg" xmlns:xlink="http://www.w3.org/1999/xlink" width="70" height="70" viewBox="0,0,70,70" odoo-icon:version="1.0" xmlns:odoo-icon="https://ivantodorovich.github.io/odoo-icon" odoo-icon:size="70" odoo-icon:icon-size="0.58" odoo-icon:icon-color="#FFFFFF" odoo-icon:icon-flat-shadow-angle="135" odoo-icon:background-color="#ffbc30" odoo-icon:background-gradient="0.2" odoo-icon:box-radius="3.5" odoo-icon:odoo-version="14.0"><defs><linearGradient x1="70" y1="0" x2="0" y2="70" gradientUnits="userSpaceOnUse" id="color-1"><stop offset="0" stop-color="#ffef63"/><stop offset="1" stop-color="#ffbc30"/></linearGradient></defs><g fill="none" fill-rule="nonzero" stroke="none" stroke-width="1" stroke-linecap="butt" stroke-linejoin="miter" stroke-miterlimit="10" stroke-dasharray="" stroke-dashoffset="0" font-family="none" font-weight="none" font-size="none" text-anchor="none" style="mix-blend-mode: normal"><path d="M3.5,70c-1.933,0 -3.5,-1.567 -3.5,-3.5v-63c0,-1.933 1.567,-3.5 3.5,-3.5h63c1.933,0 3.5,1.567 3.5,3.5v63c0,1.933 -1.567,3.5 -3.5,3.5z" id="box" fill="url(#color-1)"/><path d="M65,1h-61c-1.95033,0 -3.2667,0.63396 -3.9491,1.90189c0.28378,-1.64806 1.72001,-2.90189 3.4491,-2.90189h63c1.72965,0 3.16627,1.25466 3.44938,2.90352c-0.69803,-1.26902 -2.34782,-1.90352 -4.94938,-1.90352z" id="topBoxShadow" fill="#ffffff" opacity="0.383"/><path d="M4,69h61c2.66667,0 4.33333,-1 5,-3v0.5c0,1.933 -1.567,3.5 -3.5,3.5h-63c-1.933,0 -3.5,-1.567 -3.5,-3.5c0,-0.1611 0,-0.32777 0,-0.5c0.66667,2 2,3 4,3z" id="bottomBoxShadow" fill="#000000" opacity="0.383"/><path d="M55.5,54.57143v2.92857h-38.07143c-1.61657,-0.00141 -2.92717,-1.312 -2.92857,-2.92857v-38.07143h2.92857v33.94659l6.71229,-11.93264c0.43109,-0.7783 1.19205,-1.3195 2.06874,-1.47038c0.8767,-0.15088 1.77495,0.10449 2.44126,0.69395l10.88679,9.5031l0.10262,-0.15088l10.25,-15.29886l2.43235,1.6311l-10.20595,15.23279c-0.42827,0.78298 -1.19017,1.32746 -2.06921,1.47975c-0.87904,0.15229 -1.77963,-0.10449 -2.44641,-0.6977l-10.88538,-9.5031l-8.24545,14.63723zM23.28571,28.21429h11.71429v2.92857h-11.71429zM23.28571,22.35714h17.57143v2.92857h-17.57143zM23.28571,16.5h17.57143v2.92857h-17.57143z" id="shadow" fill="#000000" opacity="0.3"/><path d="M55.5,55.5l-14.5,14.5h-37.5c-1.933,0 -3.5,-1.567 -3.5,-3.5l0,-37.5l14.5,-14.5h2.92857l0,5.85714l5.85714,-5.85714h17.57143v2.92857l-2.92857,2.92857h2.92857v2.92857l-12.34023,12.34023c0.0456,0.03575 0.09027,0.07295 0.13394,0.11159l8.16528,7.12749l13.07413,-13.07413l2.43235,1.6311l-10.20595,15.23279c-0.1351,0.24699 -0.3034,0.47025 -0.4981,0.66496l-5.25145,5.25145l19.13289,0.00024z" id="flatShadow" fill="#000000" opacity="0.324"/><path d="M55.5,52.57143v2.92857h-38.07143c-1.61657,-0.00141 -2.92717,-1.312 -2.92857,-2.92857v-38.07143h2.92857v33.94659l6.71229,-11.93264c0.43109,-0.7783 1.19205,-1.3195 2.06874,-1.47038c0.8767,-0.15088 1.77495,0.10449 2.44126,0.69395l10.88679,9.5031l0.10262,-0.15088l10.25,-15.29886l2.43235,1.6311l-10.20595,15.23279c-0.42827,0.78298 -1.19017,1.32746 -2.06921,1.47975c-0.87904,0.15229 -1.77963,-0.10449 -2.44641,-0.6977l-10.88538,-9.5031l-8.24545,14.63723zM23.28571,26.21429h11.71429v2.92857h-11.71429zM23.28571,20.35714h17.57143v2.92857h-17.57143zM23.28571,14.5h17.57143v2.92857h-17.57143z" id="icon" fill="#ffffff"/></g></svg>