<svg version="1.1" xmlns="http://www.w3.org/2000/svg" xmlns:xlink="http://www.w3.org/1999/xlink" width="70" height="70" viewBox="0,0,70,70" odoo-icon:version="1.0" xmlns:odoo-icon="https://ivantodorovich.github.io/odoo-icon" odoo-icon:size="70" odoo-icon:icon-size="0.56" odoo-icon:icon-color="#FFFFFF" odoo-icon:icon-flat-shadow-angle="135" odoo-icon:background-color="#5e57a6" odoo-icon:background-gradient="0.2" odoo-icon:box-radius="3.5" odoo-icon:odoo-version="14.0"><defs><linearGradient x1="70" y1="0" x2="0" y2="70" gradientUnits="userSpaceOnUse" id="color-1"><stop offset="0" stop-color="#918ad9"/><stop offset="1" stop-color="#5e57a6"/></linearGradient></defs><g fill="none" fill-rule="nonzero" stroke="none" stroke-width="1" stroke-linecap="butt" stroke-linejoin="miter" stroke-miterlimit="10" stroke-dasharray="" stroke-dashoffset="0" font-family="none" font-weight="none" font-size="none" text-anchor="none" style="mix-blend-mode: normal"><path d="M3.5,70c-1.933,0 -3.5,-1.567 -3.5,-3.5v-63c0,-1.933 1.567,-3.5 3.5,-3.5h63c1.933,0 3.5,1.567 3.5,3.5v63c0,1.933 -1.567,3.5 -3.5,3.5z" id="box" fill="url(#color-1)"/><path d="M65,1h-61c-1.95033,0 -3.2667,0.63396 -3.9491,1.90189c0.28378,-1.64806 1.72001,-2.90189 3.4491,-2.90189h63c1.72965,0 3.16627,1.25466 3.44938,2.90352c-0.69803,-1.26902 -2.34782,-1.90352 -4.94938,-1.90352z" id="topBoxShadow" fill="#ffffff" opacity="0.383"/><path d="M4,69h61c2.66667,0 4.33333,-1 5,-3v0.5c0,1.933 -1.567,3.5 -3.5,3.5h-63c-1.933,0 -3.5,-1.567 -3.5,-3.5c0,-0.1611 0,-0.32777 0,-0.5c0.66667,2 2,3 4,3z" id="bottomBoxShadow" fill="#000000" opacity="0.383"/><path d="M30.57775,28.15252c1.46793,0 2.65314,1.18521 2.65314,2.65314c0,1.46793 -1.18521,2.65314 -2.65314,2.65314c-1.46793,0 -2.65314,-1.18521 -2.65314,-2.65314c0,-1.46793 1.18521,-2.65314 2.65314,-2.65314M39.42183,40.53356c1.46793,0 2.65314,1.18521 2.65314,2.65314c0,1.46793 -1.18521,2.65314 -2.65314,2.65314c-1.46793,0 -2.65314,-1.18521 -2.65314,-2.65314c0,-1.46793 1.18521,-2.65314 2.65314,-2.65314M28.65008,45.83984l-2.49395,-2.49395l15.19379,-15.19379l2.49395,2.49395l-15.19379,15.19379M46.7619,20.81203l1.07908,6.82727l6.20835,3.16594l-3.1307,6.19052l3.14853,6.19052l-6.26141,3.16594l-1.07908,6.82727l-6.88033,-1.07908l-4.89961,4.89961l-4.91701,-4.97007l-6.82727,1.13215l-1.09649,-6.88033l-6.17311,-3.14853l3.14853,-6.19052l-3.1307,-6.13745l6.20835,-3.2016l1.07908,-6.7568l6.8451,1.11432l4.91701,-4.96116l4.88178,4.89069l6.88033,-1.07908M49.32674,32.34448l-4.59863,-2.42306l-0.88424,-5.11186l-5.12926,0.74288l-3.71439,-3.59044l-3.71439,3.59044l-5.12926,-0.74288l-0.88424,5.11186l-4.59863,2.42306l2.29953,4.6517l-2.29953,4.6517l4.59863,2.42306l0.88424,5.11186l5.12926,-0.74288l3.71439,3.59044l3.71439,-3.59044l5.12926,0.74288l0.88424,-5.11186l4.59863,-2.42306l-2.29953,-4.6517z" id="shadow" fill="#000000" opacity="0.3"/><path d="M47.84098,25.6393l6.20835,3.16594l-3.1307,6.19052l3.14853,6.19052l-6.84251,6.84251l-0.49798,3.1507l-18.82052,18.82052h-24.40614c-1.933,0 -3.5,-1.567 -3.5,-3.5l0,-24.41506l23.2381,-23.2381l6.80713,1.10814l4.95498,-4.95498l4.88178,4.89069l6.88033,-1.07908l-0.00042,0.00042z" id="flatShadow" fill="#000000" opacity="0.324"/><path d="M30.57775,26.15252c1.46793,0 2.65314,1.18521 2.65314,2.65314c0,1.46793 -1.18521,2.65314 -2.65314,2.65314c-1.46793,0 -2.65314,-1.18521 -2.65314,-2.65314c0,-1.46793 1.18521,-2.65314 2.65314,-2.65314M39.42183,38.53356c1.46793,0 2.65314,1.18521 2.65314,2.65314c0,1.46793 -1.18521,2.65314 -2.65314,2.65314c-1.46793,0 -2.65314,-1.18521 -2.65314,-2.65314c0,-1.46793 1.18521,-2.65314 2.65314,-2.65314M28.65008,43.83984l-2.49395,-2.49395l15.19379,-15.19379l2.49395,2.49395l-15.19379,15.19379M46.7619,18.81203l1.07908,6.82727l6.20835,3.16594l-3.1307,6.19052l3.14853,6.19052l-6.26141,3.16594l-1.07908,6.82727l-6.88033,-1.07908l-4.89961,4.89961l-4.91701,-4.97007l-6.82727,1.13215l-1.09649,-6.88033l-6.17311,-3.14853l3.14853,-6.19052l-3.1307,-6.13745l6.20835,-3.2016l1.07908,-6.7568l6.8451,1.11432l4.91701,-4.96116l4.88178,4.89069l6.88033,-1.07908M49.32674,30.34448l-4.59863,-2.42306l-0.88424,-5.11186l-5.12926,0.74288l-3.71439,-3.59044l-3.71439,3.59044l-5.12926,-0.74288l-0.88424,5.11186l-4.59863,2.42306l2.29953,4.6517l-2.29953,4.6517l4.59863,2.42306l0.88424,5.11186l5.12926,-0.74288l3.71439,3.59044l3.71439,-3.59044l5.12926,0.74288l0.88424,-5.11186l4.59863,-2.42306l-2.29953,-4.6517z" id="icon" fill="#ffffff"/></g></svg>