<svg version="1.1" xmlns="http://www.w3.org/2000/svg" xmlns:xlink="http://www.w3.org/1999/xlink" width="70" height="70" viewBox="0,0,70,70" odoo-icon:version="1.0" xmlns:odoo-icon="https://ivantodorovich.github.io/odoo-icon" odoo-icon:size="70" odoo-icon:icon-size="0.62" odoo-icon:icon-color="#FFFFFF" odoo-icon:icon-flat-shadow-angle="135" odoo-icon:background-color="#5a9442" odoo-icon:background-gradient="0.2" odoo-icon:box-radius="3.5" odoo-icon:odoo-version="14.0"><defs><linearGradient x1="70" y1="0" x2="0" y2="70" gradientUnits="userSpaceOnUse" id="color-1"><stop offset="0" stop-color="#8dc775"/><stop offset="1" stop-color="#5a9442"/></linearGradient></defs><g fill="none" fill-rule="nonzero" stroke="none" stroke-width="1" stroke-linecap="butt" stroke-linejoin="miter" stroke-miterlimit="10" stroke-dasharray="" stroke-dashoffset="0" font-family="none" font-weight="none" font-size="none" text-anchor="none" style="mix-blend-mode: normal"><path d="M3.5,70c-1.933,0 -3.5,-1.567 -3.5,-3.5v-63c0,-1.933 1.567,-3.5 3.5,-3.5h63c1.933,0 3.5,1.567 3.5,3.5v63c0,1.933 -1.567,3.5 -3.5,3.5z" id="box" fill="url(#color-1)"/><path d="M65,1h-61c-1.95033,0 -3.2667,0.63396 -3.9491,1.90189c0.28378,-1.64806 1.72001,-2.90189 3.4491,-2.90189h63c1.72965,0 3.16627,1.25466 3.44938,2.90352c-0.69803,-1.26902 -2.34782,-1.90352 -4.94938,-1.90352z" id="topBoxShadow" fill="#ffffff" opacity="0.383"/><path d="M4,69h61c2.66667,0 4.33333,-1 5,-3v0.5c0,1.933 -1.567,3.5 -3.5,3.5h-63c-1.933,0 -3.5,-1.567 -3.5,-3.5c0,-0.1611 0,-0.32777 0,-0.5c0.66667,2 2,3 4,3z" id="bottomBoxShadow" fill="#000000" opacity="0.383"/><path d="M38.9557,15.00096c-9.3461,0 -18.44112,9.84969 -20.31429,22c-0.66599,4.31885 -0.32866,8.34662 0.80141,11.74503c-0.38938,-0.61106 -0.74985,-1.24043 -1.07947,-1.8857c-1.55463,-3.04324 -2.31797,-6.15347 -2.35315,-9.06129c-1.10501,3.41238 -0.76093,7.76207 1.36331,11.91996c2.60711,5.10387 7.67677,8.6536 13.16472,9.17695c0.54214,0.06939 1.08766,0.10409 1.63415,0.10409c9.3461,0 18.4416,-9.84969 20.31429,-22c0.87321,-5.66578 0.02169,-10.83085 -2.08328,-14.73092c2.03557,2.05822 3.4413,4.30969 4.19933,6.54092c0.05879,-2.86204 -1.3238,-6.19009 -4.16126,-9.01744c-3.17384,-3.16227 -7.2686,-4.7916 -10.82362,-4.77425c-0.21927,-0.01108 -0.4395,-0.01831 -0.66262,-0.01831zM38.4285,18.42298c3.78586,0 6.93223,1.91461 9.0078,5.03882c1.49777,4.03693 1.1773,10.19473 0.09204,13.91698c-1.50789,5.17134 -3.82104,9.03912 -7.5081,11.86936c-3.93332,3.01963 -9.2661,2.2958 -10.90651,-0.54552c-0.12771,-0.2212 -0.23421,-0.45396 -0.31806,-0.69491c1.10357,1.32332 3.59454,1.40669 5.81854,0.1224c2.39845,-1.38452 3.57671,-3.83309 2.63217,-5.46916c-0.94454,-1.63607 -3.6543,-1.83992 -6.05275,-0.4554c-0.92526,0.53443 -1.66788,1.22693 -2.17822,1.97052c0.04771,-0.12289 0.09879,-0.24481 0.15325,-0.36529c-1.75896,2.30496 -2.31171,4.90629 -1.2091,6.81609c3.64273,4.32222 9.23044,2.40038 13.24713,-0.60479c3.57189,-2.67217 6.80693,-6.92259 8.41023,-12.42307c0.11807,-0.40577 0.22698,-0.81394 0.32625,-1.22452c-0.02699,0.20867 -0.05542,0.41829 -0.08771,0.62841c-1.5821,10.26124 -9.26273,18.57943 -17.15587,18.57943c-3.35503,0 -6.20792,-1.50355 -8.25843,-4.02006c-2.49338,-4.55498 -1.50499,-13.37339 0.43998,-17.42671c2.51748,-5.24652 6.22479,-11.55564 12.64282,-10.99374c4.33234,0.37926 5.93902,5.51928 3.68273,10.9388c-0.81057,1.9469 -1.99461,3.70056 -3.40804,5.11207c2.34448,-1.56234 4.3974,-3.96561 5.60698,-6.87102c2.25629,-5.42 0.65298,-10.67568 -3.68321,-10.99374c-8.07001,-0.59275 -12.95461,5.51108 -16.71059,12.09345c-0.84864,1.83317 -1.5103,3.74779 -1.97437,5.71397c0.04723,-0.7137 0.12578,-1.425 0.23469,-2.13195c1.58162,-10.26124 9.26273,-18.57943 17.15539,-18.57943z" id="shadow" fill="#000000" opacity="0.3"/><path d="M50.44146,17.79256c2.83747,2.82735 4.22006,6.15539 4.16126,9.01744l-1.8521,1.8521c0.15437,2.00694 0.07563,4.13456 -0.26395,6.3379c-0.9945,6.45248 -4.02598,12.25615 -8.05021,16.28039l-18.71961,18.71961h-22.21685c-1.933,0 -3.5,-1.567 -3.5,-3.5l0,-21.08763l26.69195,-26.69195c3.55309,-3.55309 7.88006,-5.71898 12.26231,-5.71946l0.00096,-0.00096c0.22312,0 0.44335,0.00723 0.66262,0.01831c3.55502,-0.01735 7.64979,1.61198 10.82362,4.77425z" id="flatShadow" fill="#000000" opacity="0.324"/><path d="M38.9557,13.00096c-9.3461,0 -18.44112,9.84969 -20.31429,22c-0.66599,4.31885 -0.32866,8.34662 0.80141,11.74503c-0.38938,-0.61106 -0.74985,-1.24043 -1.07947,-1.8857c-1.55463,-3.04324 -2.31797,-6.15347 -2.35315,-9.06129c-1.10501,3.41238 -0.76093,7.76207 1.36331,11.91996c2.60711,5.10387 7.67677,8.6536 13.16472,9.17695c0.54214,0.06939 1.08766,0.10409 1.63415,0.10409c9.3461,0 18.4416,-9.84969 20.31429,-22c0.87321,-5.66578 0.02169,-10.83085 -2.08328,-14.73092c2.03557,2.05822 3.4413,4.30969 4.19933,6.54092c0.05879,-2.86204 -1.3238,-6.19009 -4.16126,-9.01744c-3.17384,-3.16227 -7.2686,-4.7916 -10.82362,-4.77425c-0.21927,-0.01108 -0.4395,-0.01831 -0.66262,-0.01831zM38.4285,16.42298c3.78586,0 6.93223,1.91461 9.0078,5.03882c1.49777,4.03693 1.1773,10.19473 0.09204,13.91698c-1.50789,5.17134 -3.82104,9.03912 -7.5081,11.86936c-3.93332,3.01963 -9.2661,2.2958 -10.90651,-0.54552c-0.12771,-0.2212 -0.23421,-0.45396 -0.31806,-0.69491c1.10357,1.32332 3.59454,1.40669 5.81854,0.1224c2.39845,-1.38452 3.57671,-3.83309 2.63217,-5.46916c-0.94454,-1.63607 -3.6543,-1.83992 -6.05275,-0.4554c-0.92526,0.53443 -1.66788,1.22693 -2.17822,1.97052c0.04771,-0.12289 0.09879,-0.24481 0.15325,-0.36529c-1.75896,2.30496 -2.31171,4.90629 -1.2091,6.81609c3.64273,4.32222 9.23044,2.40038 13.24713,-0.60479c3.57189,-2.67217 6.80693,-6.92259 8.41023,-12.42307c0.11807,-0.40577 0.22698,-0.81394 0.32625,-1.22452c-0.02699,0.20867 -0.05542,0.41829 -0.08771,0.62841c-1.5821,10.26124 -9.26273,18.57943 -17.15587,18.57943c-3.35503,0 -6.20792,-1.50355 -8.25843,-4.02006c-2.49338,-4.55498 -1.50499,-13.37339 0.43998,-17.42671c2.51748,-5.24652 6.22479,-11.55564 12.64282,-10.99374c4.33234,0.37926 5.93902,5.51928 3.68273,10.9388c-0.81057,1.9469 -1.99461,3.70056 -3.40804,5.11207c2.34448,-1.56234 4.3974,-3.96561 5.60698,-6.87102c2.25629,-5.42 0.65298,-10.67568 -3.68321,-10.99374c-8.07001,-0.59275 -12.95461,5.51108 -16.71059,12.09345c-0.84864,1.83317 -1.5103,3.74779 -1.97437,5.71397c0.04723,-0.7137 0.12578,-1.425 0.23469,-2.13195c1.58162,-10.26124 9.26273,-18.57943 17.15539,-18.57943z" id="icon" fill="#ffffff"/></g></svg>