<svg version="1.1" xmlns="http://www.w3.org/2000/svg" xmlns:xlink="http://www.w3.org/1999/xlink" width="70" height="70" viewBox="0,0,70,70" odoo-icon:version="1.0" xmlns:odoo-icon="https://ivantodorovich.github.io/odoo-icon" odoo-icon:size="70" odoo-icon:icon-size="0.61" odoo-icon:icon-color="#FFFFFF" odoo-icon:icon-flat-shadow-angle="135" odoo-icon:background-color="#ffbc30" odoo-icon:background-gradient="0.2" odoo-icon:box-radius="3.5" odoo-icon:odoo-version="14.0"><defs><linearGradient x1="70" y1="0" x2="0" y2="70" gradientUnits="userSpaceOnUse" id="color-1"><stop offset="0" stop-color="#ffef63"/><stop offset="1" stop-color="#ffbc30"/></linearGradient></defs><g fill="none" fill-rule="nonzero" stroke="none" stroke-width="1" stroke-linecap="butt" stroke-linejoin="miter" stroke-miterlimit="10" stroke-dasharray="" stroke-dashoffset="0" font-family="none" font-weight="none" font-size="none" text-anchor="none" style="mix-blend-mode: normal"><path d="M3.5,70c-1.933,0 -3.5,-1.567 -3.5,-3.5v-63c0,-1.933 1.567,-3.5 3.5,-3.5h63c1.933,0 3.5,1.567 3.5,3.5v63c0,1.933 -1.567,3.5 -3.5,3.5z" id="box" fill="url(#color-1)"/><path d="M65,1h-61c-1.95033,0 -3.2667,0.63396 -3.9491,1.90189c0.28378,-1.64806 1.72001,-2.90189 3.4491,-2.90189h63c1.72965,0 3.16627,1.25466 3.44938,2.90352c-0.69803,-1.26902 -2.34782,-1.90352 -4.94938,-1.90352z" id="topBoxShadow" fill="#ffffff" opacity="0.383"/><path d="M4,69h61c2.66667,0 4.33333,-1 5,-3v0.5c0,1.933 -1.567,3.5 -3.5,3.5h-63c-1.933,0 -3.5,-1.567 -3.5,-3.5c0,-0.1611 0,-0.32777 0,-0.5c0.66667,2 2,3 4,3z" id="bottomBoxShadow" fill="#000000" opacity="0.383"/><path d="M24.25,19.53125c0,0.95675 -0.19888,1.86512 -0.559,2.6875h8.6215c0.74229,0 1.34375,0.60146 1.34375,1.34375v5.375h-1.34375c-1.54316,-0.00269 -3.01269,0.66005 -4.03125,1.81944c-0.83581,0.94869 -1.34375,2.193 -1.34375,3.55556v1.34375h-5.375c-0.74229,0 -1.34375,-0.60146 -1.34375,-1.34375v-8.6215c-1.26742,0.5547 -2.67567,0.70305 -4.03125,0.42463v8.19688c0,2.96861 2.40639,5.375 5.375,5.375h5.375v5.375c-0.00538,2.09464 1.21045,4.00007 3.11212,4.87781c-0.79604,-3.24489 -0.47246,-6.66392 0.91913,-9.70188v-5.92594c0,-0.74229 0.60146,-1.34375 1.34375,-1.34375h5.92862c3.03795,-1.39159 6.45699,-1.71516 9.70188,-0.91913c-0.88526,-1.89791 -2.78909,-3.11105 -4.88319,-3.11212h-5.375v-5.375c0,-2.96861 -2.40639,-5.375 -5.375,-5.375h-8.19419c0.08869,0.43538 0.13438,0.88419 0.13438,1.34375zM21.5625,19.53125c0,2.22632 -1.80493,4.03125 -4.03125,4.03125c-2.22632,0 -4.03125,-1.80493 -4.03125,-4.03125c0,-2.22632 1.80493,-4.03125 4.03125,-4.03125c2.22633,0 4.03125,1.80493 4.03125,4.03125zM51.125,19.53125c0,2.22632 -1.80493,4.03125 -4.03125,4.03125c-2.22633,0 -4.03125,-1.80493 -4.03125,-4.03125c0,-2.22632 1.80492,-4.03125 4.03125,-4.03125c2.22633,0 4.03125,1.80493 4.03125,4.03125zM21.5625,49.09375c0,2.22633 -1.80493,4.03125 -4.03125,4.03125c-2.22632,0 -4.03125,-1.80493 -4.03125,-4.03125c0,-2.22633 1.80493,-4.03125 4.03125,-4.03125c2.22633,0 4.03125,1.80492 4.03125,4.03125zM44.40625,58.5c6.67897,0 12.09375,-5.41478 12.09375,-12.09375c0,-6.67898 -5.41478,-12.09375 -12.09375,-12.09375c-6.67898,0 -12.09375,5.41478 -12.09375,12.09375c0,6.67897 5.41478,12.09375 12.09375,12.09375zM41.99825,41.31075l-2.41069,2.408h4.14681c4.08178,0 7.39063,3.30885 7.39063,7.39063v0.67188c0,0.74229 -0.60146,1.34375 -1.34375,1.34375c-0.74229,0 -1.34375,-0.60146 -1.34375,-1.34375v-0.67187c0,-2.5972 -2.10592,-4.70312 -4.70312,-4.70312h-4.14681l2.41069,2.408c0.52568,0.52568 0.52568,1.37708 0,1.90275c-0.52567,0.52567 -1.37707,0.52567 -1.90275,0l-4.7085,-4.71119c-0.52084,-0.52514 -0.51869,-1.37278 0.00538,-1.89469l4.70313,-4.70312c0.52568,-0.52567 1.37708,-0.52567 1.90275,0c0.52568,0.52568 0.52568,1.37708 0,1.90275z" id="shadow" fill="#000000" opacity="0.3"/><path d="M47.943,30.04962l-2.32303,2.32303c6.1091,0.60883 10.88003,5.76427 10.88003,12.0336c0,3.33949 -1.35369,6.36292 -3.54226,8.55149l-17.04226,17.04226h-32.41548c-1.933,0 -3.5,-1.567 -3.5,-3.5l0,-37.13849l14.68075,-14.68075c0.72952,-0.72952 1.73733,-1.18075 2.8505,-1.18075c2.22633,0 4.03125,1.80493 4.03125,4.03125c0,0.52866 -0.10177,1.03356 -0.2868,1.49617l2.83992,-2.83992h8.19419c2.86312,0 5.20326,2.2384 5.36597,5.06073l6.56747,-6.56747c0.72952,-0.72952 1.73733,-1.18075 2.8505,-1.18075c2.22633,0 4.03125,1.80493 4.03125,4.03125c0,1.11316 -0.45123,2.12097 -1.18075,2.8505l-6.56532,6.56532c1.96671,0.11715 3.72401,1.30153 4.56408,3.10255z" id="flatShadow" fill="#000000" opacity="0.324"/><path d="M24.25,17.53125c0,0.95675 -0.19888,1.86512 -0.559,2.6875h8.6215c0.74229,0 1.34375,0.60146 1.34375,1.34375v5.375h-1.34375c-1.54316,-0.00269 -3.01269,0.66005 -4.03125,1.81944c-0.83581,0.94869 -1.34375,2.193 -1.34375,3.55556v1.34375h-5.375c-0.74229,0 -1.34375,-0.60146 -1.34375,-1.34375v-8.6215c-1.26742,0.5547 -2.67567,0.70305 -4.03125,0.42463v8.19688c0,2.96861 2.40639,5.375 5.375,5.375h5.375v5.375c-0.00538,2.09464 1.21045,4.00007 3.11212,4.87781c-0.79604,-3.24489 -0.47246,-6.66392 0.91913,-9.70188v-5.92594c0,-0.74229 0.60146,-1.34375 1.34375,-1.34375h5.92862c3.03795,-1.39159 6.45699,-1.71516 9.70188,-0.91913c-0.88526,-1.89791 -2.78909,-3.11105 -4.88319,-3.11212h-5.375v-5.375c0,-2.96861 -2.40639,-5.375 -5.375,-5.375h-8.19419c0.08869,0.43538 0.13438,0.88419 0.13438,1.34375zM21.5625,17.53125c0,2.22632 -1.80493,4.03125 -4.03125,4.03125c-2.22632,0 -4.03125,-1.80493 -4.03125,-4.03125c0,-2.22632 1.80493,-4.03125 4.03125,-4.03125c2.22633,0 4.03125,1.80493 4.03125,4.03125zM51.125,17.53125c0,2.22632 -1.80493,4.03125 -4.03125,4.03125c-2.22633,0 -4.03125,-1.80493 -4.03125,-4.03125c0,-2.22632 1.80492,-4.03125 4.03125,-4.03125c2.22633,0 4.03125,1.80493 4.03125,4.03125zM21.5625,47.09375c0,2.22633 -1.80493,4.03125 -4.03125,4.03125c-2.22632,0 -4.03125,-1.80493 -4.03125,-4.03125c0,-2.22633 1.80493,-4.03125 4.03125,-4.03125c2.22633,0 4.03125,1.80492 4.03125,4.03125zM44.40625,56.5c6.67897,0 12.09375,-5.41478 12.09375,-12.09375c0,-6.67898 -5.41478,-12.09375 -12.09375,-12.09375c-6.67898,0 -12.09375,5.41478 -12.09375,12.09375c0,6.67897 5.41478,12.09375 12.09375,12.09375zM41.99825,39.31075l-2.41069,2.408h4.14681c4.08178,0 7.39063,3.30885 7.39063,7.39063v0.67188c0,0.74229 -0.60146,1.34375 -1.34375,1.34375c-0.74229,0 -1.34375,-0.60146 -1.34375,-1.34375v-0.67187c0,-2.5972 -2.10592,-4.70312 -4.70312,-4.70312h-4.14681l2.41069,2.408c0.52568,0.52568 0.52568,1.37708 0,1.90275c-0.52567,0.52567 -1.37707,0.52567 -1.90275,0l-4.7085,-4.71119c-0.52084,-0.52514 -0.51869,-1.37278 0.00538,-1.89469l4.70313,-4.70312c0.52568,-0.52567 1.37708,-0.52567 1.90275,0c0.52568,0.52568 0.52568,1.37708 0,1.90275z" id="icon" fill="#ffffff"/></g></svg>