<svg version="1.1" xmlns="http://www.w3.org/2000/svg" xmlns:xlink="http://www.w3.org/1999/xlink" width="70" height="70" viewBox="0,0,70,70" odoo-icon:version="1.0" xmlns:odoo-icon="https://ivantodorovich.github.io/odoo-icon" odoo-icon:size="70" odoo-icon:icon-size="0.58" odoo-icon:icon-color="#FFFFFF" odoo-icon:icon-flat-shadow-angle="135" odoo-icon:background-color="#e53935" odoo-icon:background-gradient="0.2" odoo-icon:box-radius="3.5" odoo-icon:odoo-version="14.0"><defs><linearGradient x1="70" y1="0" x2="0" y2="70" gradientUnits="userSpaceOnUse" id="color-1"><stop offset="0" stop-color="#ff6c68"/><stop offset="1" stop-color="#e53935"/></linearGradient></defs><g fill="none" fill-rule="nonzero" stroke="none" stroke-width="1" stroke-linecap="butt" stroke-linejoin="miter" stroke-miterlimit="10" stroke-dasharray="" stroke-dashoffset="0" font-family="none" font-weight="none" font-size="none" text-anchor="none" style="mix-blend-mode: normal"><path d="M3.5,70c-1.933,0 -3.5,-1.567 -3.5,-3.5v-63c0,-1.933 1.567,-3.5 3.5,-3.5h63c1.933,0 3.5,1.567 3.5,3.5v63c0,1.933 -1.567,3.5 -3.5,3.5z" id="box" fill="url(#color-1)"/><path d="M65,1h-61c-1.95033,0 -3.2667,0.63396 -3.9491,1.90189c0.28378,-1.64806 1.72001,-2.90189 3.4491,-2.90189h63c1.72965,0 3.16627,1.25466 3.44938,2.90352c-0.69803,-1.26902 -2.34782,-1.90352 -4.94938,-1.90352z" id="topBoxShadow" fill="#ffffff" opacity="0.383"/><path d="M4,69h61c2.66667,0 4.33333,-1 5,-3v0.5c0,1.933 -1.567,3.5 -3.5,3.5h-63c-1.933,0 -3.5,-1.567 -3.5,-3.5c0,-0.1611 0,-0.32777 0,-0.5c0.66667,2 2,3 4,3z" id="bottomBoxShadow" fill="#000000" opacity="0.383"/><path d="M36.71803,49.19683c0.46324,0.46167 0.72345,1.08806 0.72345,1.74174c0,0.65368 -0.26021,1.2806 -0.72345,1.74174l-1.21712,1.21712c-4.80342,4.80342 -12.59089,4.80342 -17.39431,0c-4.80342,-4.80342 -4.80342,-12.59089 0,-17.39431l4.94297,-4.94087c4.60092,-4.61246 12.00122,-4.83543 16.87179,-0.50836c1.01881,0.90549 1.11062,2.46519 0.20513,3.484c-0.90549,1.01881 -2.46519,1.11062 -3.484,0.20513c-2.92056,-2.59372 -7.35623,-2.46152 -10.1173,0.30113l-4.93878,4.93458c-2.88174,2.88174 -2.88174,7.55348 0,10.43522c2.88174,2.88174 7.55348,2.88174 10.43522,0l1.21712,-1.21712c0.46114,-0.46167 1.08701,-0.72135 1.73964,-0.72135c0.65263,0 1.2785,0.25969 1.73964,0.72135zM51.89897,20.09667c-4.80657,-4.79555 -12.58774,-4.79555 -17.39431,0l-1.21712,1.21712c-0.96215,0.96215 -0.96215,2.52185 0,3.484c0.96215,0.96215 2.52185,0.96215 3.484,0l1.21712,-1.21712c2.88174,-2.88174 7.55348,-2.88174 10.43522,0c2.88174,2.88174 2.88174,7.55348 0,10.43522l-4.94087,4.94297c-2.76318,2.7616 -7.20094,2.89013 -10.1194,0.29326c-1.01881,-0.90549 -2.57851,-0.81369 -3.484,0.20513c-0.90549,1.01881 -0.81369,2.57851 0.20513,3.484c4.8669,4.32602 12.26248,4.10778 16.8655,-0.49786l4.94297,-4.94087c4.80133,-4.80552 4.80395,-12.59141 0.0063,-17.40061z" id="shadow" fill="#000000" opacity="0.3"/><path d="M36.72198,50.67637l-19.32363,19.32363h-13.89835c-1.933,0 -3.5,-1.567 -3.5,-3.5l0,-13.89867l34.50466,-34.50466c4.80657,-4.79555 12.58774,-4.79555 17.39431,0l0.00052,0.00525c4.79765,4.80919 4.79503,12.59509 -0.0063,17.40061l-15.10492,15.10492c-0.02161,0.02336 -0.04371,0.04634 -0.06629,0.06893z" id="flatShadow" fill="#000000" opacity="0.324"/><path d="M36.71803,47.19683c0.46324,0.46167 0.72345,1.08806 0.72345,1.74174c0,0.65368 -0.26021,1.2806 -0.72345,1.74174l-1.21712,1.21712c-4.80342,4.80342 -12.59089,4.80342 -17.39431,0c-4.80342,-4.80342 -4.80342,-12.59089 0,-17.39431l4.94297,-4.94087c4.60092,-4.61246 12.00122,-4.83543 16.87179,-0.50836c1.01881,0.90549 1.11062,2.46519 0.20513,3.484c-0.90549,1.01881 -2.46519,1.11062 -3.484,0.20513c-2.92056,-2.59372 -7.35623,-2.46152 -10.1173,0.30113l-4.93878,4.93458c-2.88174,2.88174 -2.88174,7.55348 0,10.43522c2.88174,2.88174 7.55348,2.88174 10.43522,0l1.21712,-1.21712c0.46114,-0.46167 1.08701,-0.72135 1.73964,-0.72135c0.65263,0 1.2785,0.25969 1.73964,0.72135zM51.89897,18.09667c-4.80657,-4.79555 -12.58774,-4.79555 -17.39431,0l-1.21712,1.21712c-0.96215,0.96215 -0.96215,2.52185 0,3.484c0.96215,0.96215 2.52185,0.96215 3.484,0l1.21712,-1.21712c2.88174,-2.88174 7.55348,-2.88174 10.43522,0c2.88174,2.88174 2.88174,7.55348 0,10.43522l-4.94087,4.94297c-2.76318,2.7616 -7.20094,2.89013 -10.1194,0.29326c-1.01881,-0.90549 -2.57851,-0.81369 -3.484,0.20513c-0.90549,1.01881 -0.81369,2.57851 0.20513,3.484c4.8669,4.32602 12.26248,4.10778 16.8655,-0.49786l4.94297,-4.94087c4.80133,-4.80552 4.80395,-12.59141 0.0063,-17.40061z" id="icon" fill="#ffffff"/></g></svg>