<svg version="1.1" xmlns="http://www.w3.org/2000/svg" xmlns:xlink="http://www.w3.org/1999/xlink" width="70" height="70" viewBox="0,0,70,70" odoo-icon:version="1.0" xmlns:odoo-icon="https://ivantodorovich.github.io/odoo-icon" odoo-icon:size="70" odoo-icon:icon-size="0.6" odoo-icon:icon-color="#FFFFFF" odoo-icon:icon-flat-shadow-angle="135" odoo-icon:background-color="#5a9442" odoo-icon:background-gradient="0.2" odoo-icon:box-radius="3.5" odoo-icon:odoo-version="14.0"><defs><linearGradient x1="70" y1="0" x2="0" y2="70" gradientUnits="userSpaceOnUse" id="color-1"><stop offset="0" stop-color="#8dc775"/><stop offset="1" stop-color="#5a9442"/></linearGradient></defs><g fill="none" fill-rule="nonzero" stroke="none" stroke-width="1" stroke-linecap="butt" stroke-linejoin="miter" stroke-miterlimit="10" stroke-dasharray="" stroke-dashoffset="0" font-family="none" font-weight="none" font-size="none" text-anchor="none" style="mix-blend-mode: normal"><path d="M3.5,70c-1.933,0 -3.5,-1.567 -3.5,-3.5v-63c0,-1.933 1.567,-3.5 3.5,-3.5h63c1.933,0 3.5,1.567 3.5,3.5v63c0,1.933 -1.567,3.5 -3.5,3.5z" id="box" fill="url(#color-1)"/><path d="M65,1h-61c-1.95033,0 -3.2667,0.63396 -3.9491,1.90189c0.28378,-1.64806 1.72001,-2.90189 3.4491,-2.90189h63c1.72965,0 3.16627,1.25466 3.44938,2.90352c-0.69803,-1.26902 -2.34782,-1.90352 -4.94938,-1.90352z" id="topBoxShadow" fill="#ffffff" opacity="0.383"/><path d="M4,69h61c2.66667,0 4.33333,-1 5,-3v0.5c0,1.933 -1.567,3.5 -3.5,3.5h-63c-1.933,0 -3.5,-1.567 -3.5,-3.5c0,-0.1611 0,-0.32777 0,-0.5c0.66667,2 2,3 4,3z" id="bottomBoxShadow" fill="#000000" opacity="0.383"/><path d="M47.5998,27.54996h-4.19985v-2.10018c0,-2.31942 -1.88043,-4.19985 -4.19985,-4.19985h-21.00025c-2.31942,0 -4.19985,1.88043 -4.19985,4.19985v21.00025h4.19985c0,3.47963 2.8204,6.30003 6.30003,6.30003c3.47963,0 6.30003,-2.8204 6.30003,-6.30003h8.4002c0,3.47963 2.8204,6.30003 6.30003,6.30003c3.47963,0 6.30003,-2.8204 6.30003,-6.30003h4.19985v-10.49987zM24.49987,49.60005c-1.74032,-0.0005 -3.15052,-1.41171 -3.15001,-3.15203c0.0005,-1.74032 1.41171,-3.15052 3.15203,-3.15001c1.74032,0.0005 3.15052,1.41171 3.15001,3.15203c-0.0005,1.74032 -1.41171,3.15052 -3.15203,3.15001zM18.19985,40.15001v-14.70023h21.00025v14.70023zM45.49962,49.60005c-1.74032,-0.0005 -3.15052,-1.41171 -3.15001,-3.15203c0.0005,-1.74032 1.41171,-3.15052 3.15203,-3.15001c1.74032,0.0005 3.15052,1.41171 3.15001,3.15203c-0.0005,1.74032 -1.41171,3.15052 -3.15203,3.15001z" id="shadow" fill="#000000" opacity="0.3"/><path d="M15.23014,20.48008c0.76004,-0.76004 1.81,-1.23014 2.96971,-1.23014h21.00025c2.31942,0 4.19985,1.88043 4.19985,4.19985v2.10018h4.19985l8.4002,8.4002v10.49987l-25.54996,25.54996h-26.95004c-1.933,0 -3.5,-1.567 -3.5,-3.5l0,-30.78978z" id="flatShadow" fill="#000000" opacity="0.324"/><path d="M47.5998,25.54996h-4.19985v-2.10018c0,-2.31942 -1.88043,-4.19985 -4.19985,-4.19985h-21.00025c-2.31942,0 -4.19985,1.88043 -4.19985,4.19985v21.00025h4.19985c0,3.47963 2.8204,6.30003 6.30003,6.30003c3.47963,0 6.30003,-2.8204 6.30003,-6.30003h8.4002c0,3.47963 2.8204,6.30003 6.30003,6.30003c3.47963,0 6.30003,-2.8204 6.30003,-6.30003h4.19985v-10.49987zM24.49987,47.60005c-1.74032,-0.0005 -3.15052,-1.41171 -3.15001,-3.15203c0.0005,-1.74032 1.41171,-3.15052 3.15203,-3.15001c1.74032,0.0005 3.15052,1.41171 3.15001,3.15203c-0.0005,1.74032 -1.41171,3.15052 -3.15203,3.15001zM18.19985,38.15001v-14.70023h21.00025v14.70023zM45.49962,47.60005c-1.74032,-0.0005 -3.15052,-1.41171 -3.15001,-3.15203c0.0005,-1.74032 1.41171,-3.15052 3.15203,-3.15001c1.74032,0.0005 3.15052,1.41171 3.15001,3.15203c-0.0005,1.74032 -1.41171,3.15052 -3.15203,3.15001z" id="icon" fill="#ffffff"/></g></svg>