<svg version="1.1" xmlns="http://www.w3.org/2000/svg" xmlns:xlink="http://www.w3.org/1999/xlink" width="70" height="70" viewBox="0,0,70,70" odoo-icon:version="1.0" xmlns:odoo-icon="https://ivantodorovich.github.io/odoo-icon" odoo-icon:size="70" odoo-icon:icon-size="0.54" odoo-icon:icon-color="#FFFFFF" odoo-icon:icon-flat-shadow-angle="135" odoo-icon:background-color="#e53935" odoo-icon:background-gradient="0.2" odoo-icon:box-radius="3.5" odoo-icon:odoo-version="14.0"><defs><linearGradient x1="70" y1="0" x2="0" y2="70" gradientUnits="userSpaceOnUse" id="color-1"><stop offset="0" stop-color="#ff6c68"/><stop offset="1" stop-color="#e53935"/></linearGradient></defs><g fill="none" fill-rule="nonzero" stroke="none" stroke-width="1" stroke-linecap="butt" stroke-linejoin="miter" stroke-miterlimit="10" stroke-dasharray="" stroke-dashoffset="0" font-family="none" font-weight="none" font-size="none" text-anchor="none" style="mix-blend-mode: normal"><path d="M3.5,70c-1.933,0 -3.5,-1.567 -3.5,-3.5v-63c0,-1.933 1.567,-3.5 3.5,-3.5h63c1.933,0 3.5,1.567 3.5,3.5v63c0,1.933 -1.567,3.5 -3.5,3.5z" id="box" fill="url(#color-1)"/><path d="M65,1h-61c-1.95033,0 -3.2667,0.63396 -3.9491,1.90189c0.28378,-1.64806 1.72001,-2.90189 3.4491,-2.90189h63c1.72965,0 3.16627,1.25466 3.44938,2.90352c-0.69803,-1.26902 -2.34782,-1.90352 -4.94938,-1.90352z" id="topBoxShadow" fill="#ffffff" opacity="0.383"/><path d="M4,69h61c2.66667,0 4.33333,-1 5,-3v0.5c0,1.933 -1.567,3.5 -3.5,3.5h-63c-1.933,0 -3.5,-1.567 -3.5,-3.5c0,-0.1611 0,-0.32777 0,-0.5c0.66667,2 2,3 4,3z" id="bottomBoxShadow" fill="#000000" opacity="0.383"/><path d="M20.22211,56h29.55578c2.33171,0 4.22211,-1.8904 4.22211,-4.22211v-23.22236l-10.55553,-10.55553h-23.22236c-2.33171,0 -4.22211,1.8904 -4.22211,4.22211v29.55578c0,2.33171 1.8904,4.22211 4.22211,4.22211zM24.44473,22.2216h8.44473v4.22211h4.22211v-4.22211h4.22211v8.44473h-16.88895zM24.44473,39.11105h21.11156v12.66684h-21.11156z" id="shadow" fill="#000000" opacity="0.3"/><path d="M54,49.77789c0,1.16586 -0.4726,2.22138 -1.23666,2.98545l-17.23666,17.23666h-32.02667c-1.933,0 -3.5,-1.567 -3.5,-3.5l0,-32.02667l17.23666,-17.23666c0.76406,-0.76406 1.81959,-1.23666 2.98545,-1.23666h23.22236l10.55553,10.55553z" id="flatShadow" fill="#000000" opacity="0.324"/><path d="M20.22211,54h29.55578c2.33171,0 4.22211,-1.8904 4.22211,-4.22211v-23.22236l-10.55553,-10.55553h-23.22236c-2.33171,0 -4.22211,1.8904 -4.22211,4.22211v29.55578c0,2.33171 1.8904,4.22211 4.22211,4.22211zM24.44473,20.2216h8.44473v4.22211h4.22211v-4.22211h4.22211v8.44473h-16.88895zM24.44473,37.11105h21.11156v12.66684h-21.11156z" id="icon" fill="#ffffff"/></g></svg>