<svg version="1.1" xmlns="http://www.w3.org/2000/svg" xmlns:xlink="http://www.w3.org/1999/xlink" width="70" height="70" viewBox="0,0,70,70" odoo-icon:version="1.0" xmlns:odoo-icon="https://ivantodorovich.github.io/odoo-icon" odoo-icon:size="70" odoo-icon:icon-size="0.64" odoo-icon:icon-color="#FFFFFF" odoo-icon:icon-flat-shadow-angle="135" odoo-icon:background-color="#5a9442" odoo-icon:background-gradient="0.2" odoo-icon:box-radius="3.5" odoo-icon:odoo-version="14.0"><defs><linearGradient x1="70" y1="0" x2="0" y2="70" gradientUnits="userSpaceOnUse" id="color-1"><stop offset="0" stop-color="#8dc775"/><stop offset="1" stop-color="#5a9442"/></linearGradient></defs><g fill="none" fill-rule="nonzero" stroke="none" stroke-width="1" stroke-linecap="butt" stroke-linejoin="miter" stroke-miterlimit="10" stroke-dasharray="" stroke-dashoffset="0" font-family="none" font-weight="none" font-size="none" text-anchor="none" style="mix-blend-mode: normal"><path d="M3.5,70c-1.933,0 -3.5,-1.567 -3.5,-3.5v-63c0,-1.933 1.567,-3.5 3.5,-3.5h63c1.933,0 3.5,1.567 3.5,3.5v63c0,1.933 -1.567,3.5 -3.5,3.5z" id="box" fill="url(#color-1)"/><path d="M65,1h-61c-1.95033,0 -3.2667,0.63396 -3.9491,1.90189c0.28378,-1.64806 1.72001,-2.90189 3.4491,-2.90189h63c1.72965,0 3.16627,1.25466 3.44938,2.90352c-0.69803,-1.26902 -2.34782,-1.90352 -4.94938,-1.90352z" id="topBoxShadow" fill="#ffffff" opacity="0.383"/><path d="M4,69h61c2.66667,0 4.33333,-1 5,-3v0.5c0,1.933 -1.567,3.5 -3.5,3.5h-63c-1.933,0 -3.5,-1.567 -3.5,-3.5c0,-0.1611 0,-0.32777 0,-0.5c0.66667,2 2,3 4,3z" id="bottomBoxShadow" fill="#000000" opacity="0.383"/><path d="M34.22211,24.37384c3.43521,0 6.67243,1.52276 9.04476,3.90365v0.0072c0,-1.14342 0.76903,-2.00785 1.83235,-2.00785h0.26999c1.67756,0 2.0137,1.58216 2.0137,2.0812l0.0072,17.76734c-0.11655,1.16412 1.20237,1.7662 1.93495,1.01832c2.84753,-2.92897 6.26024,-15.07326 -1.7734,-22.10433c-7.49231,-6.56263 -17.54819,-5.47861 -22.89451,-1.7941c-5.68245,3.92615 -9.31476,12.59832 -5.7864,20.74851c3.85325,8.88592 14.86806,11.5368 21.42349,8.89267c3.31866,-1.34007 4.84862,3.14002 1.39901,4.60698c-5.19871,2.21754 -19.68699,1.9912 -26.45391,-9.72695c-4.57143,-7.91574 -4.32979,-21.83973 7.8001,-29.05395c9.27111,-5.52226 21.50404,-3.9923 28.878,3.707c7.70605,8.05614 7.26011,23.1294 -0.26279,28.98915c-3.40731,2.66483 -8.46698,0.0729 -8.43008,-3.8096l-0.0378,-1.26537c-2.37234,2.34984 -5.52901,3.7277 -8.96467,3.7277c-6.79617,0 -12.77967,-5.98484 -12.77967,-12.77382c0,-6.86232 5.98349,-12.91061 12.77967,-12.91061zM42.77054,36.79622c-0.25739,-4.97372 -3.94865,-7.96884 -8.40893,-7.96884h-0.16875c-5.14112,0 -7.99719,4.04989 -7.99719,8.64113c0,5.14832 3.44961,8.39948 7.97604,8.39948c5.05247,0 8.36978,-3.6971 8.61143,-8.07009z" id="shadow" fill="#000000" opacity="0.3"/><path d="M23.03945,16.71254c9.27111,-5.52226 21.50404,-3.9923 28.878,3.707c7.30287,7.63464 7.28446,21.57133 0.85974,27.99606l-21.5844,21.5844h-27.69279c-1.933,0 -3.5,-1.567 -3.5,-3.5l0,-26.74801z" id="flatShadow" fill="#000000" opacity="0.324"/><path d="M34.22211,22.37384c3.43521,0 6.67243,1.52276 9.04476,3.90365v0.0072c0,-1.14342 0.76903,-2.00785 1.83235,-2.00785h0.26999c1.67756,0 2.0137,1.58216 2.0137,2.0812l0.0072,17.76734c-0.11655,1.16412 1.20237,1.7662 1.93495,1.01832c2.84753,-2.92897 6.26024,-15.07326 -1.7734,-22.10433c-7.49231,-6.56263 -17.54819,-5.47861 -22.89451,-1.7941c-5.68245,3.92615 -9.31476,12.59832 -5.7864,20.74851c3.85325,8.88592 14.86806,11.5368 21.42349,8.89267c3.31866,-1.34007 4.84862,3.14002 1.39901,4.60698c-5.19871,2.21754 -19.68699,1.9912 -26.45391,-9.72695c-4.57143,-7.91574 -4.32979,-21.83973 7.8001,-29.05395c9.27111,-5.52226 21.50404,-3.9923 28.878,3.707c7.70605,8.05614 7.26011,23.1294 -0.26279,28.98915c-3.40731,2.66483 -8.46698,0.0729 -8.43008,-3.8096l-0.0378,-1.26537c-2.37234,2.34984 -5.52901,3.7277 -8.96467,3.7277c-6.79617,0 -12.77967,-5.98484 -12.77967,-12.77382c0,-6.86232 5.98349,-12.91061 12.77967,-12.91061zM42.77054,34.79622c-0.25739,-4.97372 -3.94865,-7.96884 -8.40893,-7.96884h-0.16875c-5.14112,0 -7.99719,4.04989 -7.99719,8.64113c0,5.14832 3.44961,8.39948 7.97604,8.39948c5.05247,0 8.36978,-3.6971 8.61143,-8.07009z" id="icon" fill="#ffffff"/></g></svg>