<svg version="1.1" xmlns="http://www.w3.org/2000/svg" xmlns:xlink="http://www.w3.org/1999/xlink" width="70" height="70" viewBox="0,0,70,70" odoo-icon:version="1.0" xmlns:odoo-icon="https://ivantodorovich.github.io/odoo-icon" odoo-icon:size="70" odoo-icon:icon-size="0.55" odoo-icon:icon-color="#FFFFFF" odoo-icon:icon-flat-shadow-angle="135" odoo-icon:background-color="#cb6482" odoo-icon:background-gradient="0.2" odoo-icon:box-radius="3.5" odoo-icon:odoo-version="14.0"><defs><linearGradient x1="70" y1="0" x2="0" y2="70" gradientUnits="userSpaceOnUse" id="color-1"><stop offset="0" stop-color="#fe97b5"/><stop offset="1" stop-color="#cb6482"/></linearGradient></defs><g fill="none" fill-rule="nonzero" stroke="none" stroke-width="1" stroke-linecap="butt" stroke-linejoin="miter" stroke-miterlimit="10" stroke-dasharray="" stroke-dashoffset="0" font-family="none" font-weight="none" font-size="none" text-anchor="none" style="mix-blend-mode: normal"><path d="M3.5,70c-1.933,0 -3.5,-1.567 -3.5,-3.5v-63c0,-1.933 1.567,-3.5 3.5,-3.5h63c1.933,0 3.5,1.567 3.5,3.5v63c0,1.933 -1.567,3.5 -3.5,3.5z" id="box" fill="url(#color-1)"/><path d="M65,1h-61c-1.95033,0 -3.2667,0.63396 -3.9491,1.90189c0.28378,-1.64806 1.72001,-2.90189 3.4491,-2.90189h63c1.72965,0 3.16627,1.25466 3.44938,2.90352c-0.69803,-1.26902 -2.34782,-1.90352 -4.94938,-1.90352z" id="topBoxShadow" fill="#ffffff" opacity="0.383"/><path d="M4,69h61c2.66667,0 4.33333,-1 5,-3v0.5c0,1.933 -1.567,3.5 -3.5,3.5h-63c-1.933,0 -3.5,-1.567 -3.5,-3.5c0,-0.1611 0,-0.32777 0,-0.5c0.66667,2 2,3 4,3z" id="bottomBoxShadow" fill="#000000" opacity="0.383"/><path d="M35.97532,56.5l-0.48766,-5.85002h-0.48766c-4.61497,0 -8.53121,-1.60852 -11.74872,-4.8265c-3.21751,-3.21751 -4.82604,-7.13375 -4.82604,-11.74872c0,-4.61497 1.60852,-8.53121 4.82604,-11.74872c3.21751,-3.21751 7.13375,-4.82604 11.74872,-4.82604c2.30772,0 4.46099,0.43009 6.4603,1.29075c1.9993,0.86066 3.75431,2.04704 5.26502,3.55869c1.51071,1.51211 2.69616,3.26712 3.55681,5.26502c0.86066,1.9979 1.29169,4.15164 1.29262,6.4603c0,2.43735 -0.39827,4.77736 -1.19528,7.02003c-0.79701,2.24266 -1.88558,4.32247 -3.26619,6.23987c-1.38061,1.9174 -3.02189,3.6565 -4.92385,5.21635c-1.90196,1.55985 -3.97334,2.87634 -6.2146,3.94853zM39.87518,49.38216c2.30772,-1.95016 4.18487,-4.23354 5.63147,-6.85061c1.44706,-2.61707 2.16966,-5.43584 2.16825,-8.45726c0,-3.54231 -1.2271,-6.54033 -3.68177,-8.99359c-2.4542,-2.45327 -5.45222,-3.68037 -8.99359,-3.68177c-3.54231,0 -6.54033,1.2271 -8.99359,3.68177c-2.45327,2.4542 -3.68037,5.45222 -3.68177,8.99359c0,3.54231 1.2271,6.54033 3.68177,8.99359c2.4542,2.45327 5.45222,3.68037 8.99359,3.68177h4.87518zM34.9518,44.75128c0.55271,0 1.02399,-0.19516 1.41383,-0.585c0.38985,-0.38985 0.585,-0.86112 0.585,-1.41383c0,-0.55271 -0.19516,-1.02352 -0.585,-1.41383c-0.38985,-0.38985 -0.86112,-0.585 -1.41383,-0.585c-0.55271,0 -1.02399,0.19516 -1.41383,0.585c-0.38985,0.38985 -0.585,0.86112 -0.585,1.41383c0,0.55271 0.19516,1.02352 0.585,1.41383c0.38985,0.38985 0.86112,0.585 1.41383,0.585zM33.53796,38.55962h2.92501c0,-0.97485 0.09734,-1.65766 0.2925,-2.04751c0.19516,-0.38985 0.81245,-1.10495 1.85235,-2.14485c0.585,-0.585 1.07266,-1.21868 1.46251,-1.90102c0.38985,-0.68235 0.585,-1.41383 0.585,-2.19352c0,-1.65766 -0.56113,-2.90114 -1.68293,-3.73044c-1.1218,-0.8293 -2.44578,-1.24348 -3.9724,-1.24208c-1.43021,0 -2.63251,0.39827 -3.60736,1.19528c-0.97485,0.79701 -1.65766,1.76343 -2.04751,2.89974l2.72985,1.07266c0.1624,-0.55271 0.47128,-1.097 0.92618,-1.63426c0.4549,-0.5368 1.12133,-0.8045 1.99884,-0.80356c0.8775,0 1.53551,0.24383 1.97356,0.73149c0.43805,0.48766 0.65801,1.02352 0.65895,1.60852c0,0.55271 -0.1624,1.04832 -0.48766,1.48778c-0.32479,0.43945 -0.71511,0.88593 -1.17,1.33989c-1.13771,0.97485 -1.82848,1.74705 -2.07278,2.31661c-0.2443,0.56956 -0.36598,1.58465 -0.36457,3.04576zM35.00047,35.39124z" id="shadow" fill="#000000" opacity="0.3"/><path d="M23.25128,20.32604c3.21751,-3.21751 7.13375,-4.82604 11.74872,-4.82604c2.30772,0 4.46099,0.43009 6.4603,1.29075c1.9993,0.86066 3.75431,2.04704 5.26502,3.55869c1.51071,1.51211 2.69616,3.26712 3.55681,5.26502c0.86066,1.9979 1.29169,4.15164 1.29262,6.4603c0,2.43735 -0.39827,4.77736 -1.19528,7.02003c-0.79701,2.24266 -1.88558,4.32247 -3.26619,6.23987c-0.84356,1.17155 -1.78444,2.27653 -2.82265,3.31474l-21.35061,21.35061h-19.44003c-1.933,0 -3.5,-1.567 -3.5,-3.5l0,-22.92268z" id="flatShadow" fill="#000000" opacity="0.324"/><path d="M35.97532,54.5l-0.48766,-5.85002h-0.48766c-4.61497,0 -8.53121,-1.60852 -11.74872,-4.8265c-3.21751,-3.21751 -4.82604,-7.13375 -4.82604,-11.74872c0,-4.61497 1.60852,-8.53121 4.82604,-11.74872c3.21751,-3.21751 7.13375,-4.82604 11.74872,-4.82604c2.30772,0 4.46099,0.43009 6.4603,1.29075c1.9993,0.86066 3.75431,2.04704 5.26502,3.55869c1.51071,1.51211 2.69616,3.26712 3.55681,5.26502c0.86066,1.9979 1.29169,4.15164 1.29262,6.4603c0,2.43735 -0.39827,4.77736 -1.19528,7.02003c-0.79701,2.24266 -1.88558,4.32247 -3.26619,6.23987c-1.38061,1.9174 -3.02189,3.6565 -4.92385,5.21635c-1.90196,1.55985 -3.97334,2.87634 -6.2146,3.94853zM39.87518,47.38216c2.30772,-1.95016 4.18487,-4.23354 5.63147,-6.85061c1.44706,-2.61707 2.16966,-5.43584 2.16825,-8.45726c0,-3.54231 -1.2271,-6.54033 -3.68177,-8.99359c-2.4542,-2.45327 -5.45222,-3.68037 -8.99359,-3.68177c-3.54231,0 -6.54033,1.2271 -8.99359,3.68177c-2.45327,2.4542 -3.68037,5.45222 -3.68177,8.99359c0,3.54231 1.2271,6.54033 3.68177,8.99359c2.4542,2.45327 5.45222,3.68037 8.99359,3.68177h4.87518zM34.9518,42.75128c0.55271,0 1.02399,-0.19516 1.41383,-0.585c0.38985,-0.38985 0.585,-0.86112 0.585,-1.41383c0,-0.55271 -0.19516,-1.02352 -0.585,-1.41383c-0.38985,-0.38985 -0.86112,-0.585 -1.41383,-0.585c-0.55271,0 -1.02399,0.19516 -1.41383,0.585c-0.38985,0.38985 -0.585,0.86112 -0.585,1.41383c0,0.55271 0.19516,1.02352 0.585,1.41383c0.38985,0.38985 0.86112,0.585 1.41383,0.585zM33.53796,36.55962h2.92501c0,-0.97485 0.09734,-1.65766 0.2925,-2.04751c0.19516,-0.38985 0.81245,-1.10495 1.85235,-2.14485c0.585,-0.585 1.07266,-1.21868 1.46251,-1.90102c0.38985,-0.68235 0.585,-1.41383 0.585,-2.19352c0,-1.65766 -0.56113,-2.90114 -1.68293,-3.73044c-1.1218,-0.8293 -2.44578,-1.24348 -3.9724,-1.24208c-1.43021,0 -2.63251,0.39827 -3.60736,1.19528c-0.97485,0.79701 -1.65766,1.76343 -2.04751,2.89974l2.72985,1.07266c0.1624,-0.55271 0.47128,-1.097 0.92618,-1.63426c0.4549,-0.5368 1.12133,-0.8045 1.99884,-0.80356c0.8775,0 1.53551,0.24383 1.97356,0.73149c0.43805,0.48766 0.65801,1.02352 0.65895,1.60852c0,0.55271 -0.1624,1.04832 -0.48766,1.48778c-0.32479,0.43945 -0.71511,0.88593 -1.17,1.33989c-1.13771,0.97485 -1.82848,1.74705 -2.07278,2.31661c-0.2443,0.56956 -0.36598,1.58465 -0.36457,3.04576zM35.00047,33.39124z" id="icon" fill="#ffffff"/></g></svg>