<svg version="1.1" xmlns="http://www.w3.org/2000/svg" xmlns:xlink="http://www.w3.org/1999/xlink" width="70" height="70" viewBox="0,0,70,70" odoo-icon:version="1.0" xmlns:odoo-icon="https://ivantodorovich.github.io/odoo-icon" odoo-icon:size="70" odoo-icon:icon-size="0.62" odoo-icon:icon-color="#FFFFFF" odoo-icon:icon-flat-shadow-angle="135" odoo-icon:background-color="#d81b60" odoo-icon:background-gradient="0.2" odoo-icon:box-radius="3.5" odoo-icon:odoo-version="14.0"><defs><linearGradient x1="70" y1="0" x2="0" y2="70" gradientUnits="userSpaceOnUse" id="color-1"><stop offset="0" stop-color="#ff4e93"/><stop offset="1" stop-color="#d81b60"/></linearGradient></defs><g fill="none" fill-rule="nonzero" stroke="none" stroke-width="1" stroke-linecap="butt" stroke-linejoin="miter" stroke-miterlimit="10" stroke-dasharray="" stroke-dashoffset="0" font-family="none" font-weight="none" font-size="none" text-anchor="none" style="mix-blend-mode: normal"><path d="M3.5,70c-1.933,0 -3.5,-1.567 -3.5,-3.5v-63c0,-1.933 1.567,-3.5 3.5,-3.5h63c1.933,0 3.5,1.567 3.5,3.5v63c0,1.933 -1.567,3.5 -3.5,3.5z" id="box" fill="url(#color-1)"/><path d="M65,1h-61c-1.95033,0 -3.2667,0.63396 -3.9491,1.90189c0.28378,-1.64806 1.72001,-2.90189 3.4491,-2.90189h63c1.72965,0 3.16627,1.25466 3.44938,2.90352c-0.69803,-1.26902 -2.34782,-1.90352 -4.94938,-1.90352z" id="topBoxShadow" fill="#ffffff" opacity="0.383"/><path d="M4,69h61c2.66667,0 4.33333,-1 5,-3v0.5c0,1.933 -1.567,3.5 -3.5,3.5h-63c-1.933,0 -3.5,-1.567 -3.5,-3.5c0,-0.1611 0,-0.32777 0,-0.5c0.66667,2 2,3 4,3z" id="bottomBoxShadow" fill="#000000" opacity="0.383"/><path d="M50.39805,29.00955v3.14814c0,5.3919 0,8.08865 -1.80399,9.76276c-1.80399,1.67623 -4.70769,1.67623 -10.51508,1.67623h-1.42968v6.59931c0,0.10348 -0.0095,0.20643 -0.02851,0.30779c1.11502,0.44242 2.0083,1.32884 2.45917,2.44175h16.26757c0.91123,0 1.64983,0.7386 1.64983,1.64983c0,0.91123 -0.7386,1.64983 -1.64983,1.64983h-16.26704c-0.67102,1.66461 -2.286,2.75482 -4.08049,2.75482c-1.79501,0 -3.40947,-1.09021 -4.08049,-2.75482h-16.26704c-0.91123,0 -1.64983,-0.7386 -1.64983,-1.64983c0,-0.91123 0.7386,-1.64983 1.64983,-1.64983h16.26757c0.45087,-1.11291 1.34204,-1.99933 2.45917,-2.44175c-0.01901,-0.10137 -0.02851,-0.20484 -0.02851,-0.30779v-6.59931h-1.42968c-5.8074,0 -8.71109,0 -10.51508,-1.67411c-1.80399,-1.67834 -1.80399,-4.37561 -1.80399,-9.76487v-10.08164c0,-1.2602 0,-1.89163 0.1077,-2.41746c0.46829,-2.31398 2.41957,-4.1222 4.90989,-4.55986c0.56543,-0.09873 1.24489,-0.09873 2.60435,-0.09873c0.59394,0 0.89328,0 1.1789,0.02429c1.2317,0.1077 2.40426,0.55857 3.35667,1.29135c0.22015,0.17158 0.43133,0.36745 0.85369,0.75655l0.84682,0.78769c1.25598,1.1657 1.88529,1.74855 2.6355,2.13818c0.41338,0.21329 0.85369,0.38276 1.30666,0.50155c0.8294,0.22015 1.71582,0.22015 3.49341,0.22015h0.57388c4.05409,0 6.08034,0 7.39809,1.09971c0.1209,0.10137 0.23758,0.20907 0.34528,0.32099c1.18576,1.22325 1.18576,3.1059 1.18576,6.86962zM36.6493,27.09786c0,-0.91123 0.7386,-1.64983 1.64983,-1.64983h6.59931c0.91123,0 1.64983,0.7386 1.64983,1.64983c0,0.91123 -0.7386,1.64983 -1.64983,1.64983h-6.59931c-0.91123,0 -1.64983,-0.7386 -1.64983,-1.64983z" id="shadow" fill="#000000" opacity="0.3"/><path d="M50.39805,30.15769c0,5.26797 0,7.96325 -1.68243,9.64568l-10.17721,10.17721c0.21879,0.29545 0.40151,0.61928 0.54155,0.96495h16.26757c0.91123,0 1.64983,0.7386 1.64983,1.64983c0,0.45562 -0.18465,0.86807 -0.4832,1.16663l-16.23802,16.23802h-36.77614c-1.933,0 -3.5,-1.567 -3.5,-3.5l0,-30.42447l21.24678,-21.24678c0.87738,-0.87738 2.04891,-1.49736 3.37277,-1.73003c0.56543,-0.09873 1.24489,-0.09873 2.60435,-0.09873c0.59394,0 0.89328,0 1.1789,0.02429c1.2317,0.1077 2.40426,0.55857 3.35667,1.29135c0.22015,0.17158 0.43133,0.36745 0.85369,0.75655l0.84682,0.78769c1.25598,1.1657 1.88529,1.74855 2.6355,2.13818c0.41338,0.21329 0.85369,0.38276 1.30666,0.50155c0.8294,0.22015 1.71582,0.22015 3.49341,0.22015h0.57388c4.05409,0 6.08034,0 7.39809,1.09971c0.1209,0.10137 0.23758,0.20907 0.34528,0.32099c1.18576,1.22325 1.18576,3.1059 1.18576,6.86962l-0.00053,0.00053z" id="flatShadow" fill="#000000" opacity="0.324"/><path d="M50.39805,27.00955v3.14814c0,5.3919 0,8.08865 -1.80399,9.76276c-1.80399,1.67623 -4.70769,1.67623 -10.51508,1.67623h-1.42968v6.59931c0,0.10348 -0.0095,0.20643 -0.02851,0.30779c1.11502,0.44242 2.0083,1.32884 2.45917,2.44175h16.26757c0.91123,0 1.64983,0.7386 1.64983,1.64983c0,0.91123 -0.7386,1.64983 -1.64983,1.64983h-16.26704c-0.67102,1.66461 -2.286,2.75482 -4.08049,2.75482c-1.79501,0 -3.40947,-1.09021 -4.08049,-2.75482h-16.26704c-0.91123,0 -1.64983,-0.7386 -1.64983,-1.64983c0,-0.91123 0.7386,-1.64983 1.64983,-1.64983h16.26757c0.45087,-1.11291 1.34204,-1.99933 2.45917,-2.44175c-0.01901,-0.10137 -0.02851,-0.20484 -0.02851,-0.30779v-6.59931h-1.42968c-5.8074,0 -8.71109,0 -10.51508,-1.67411c-1.80399,-1.67834 -1.80399,-4.37561 -1.80399,-9.76487v-10.08164c0,-1.2602 0,-1.89163 0.1077,-2.41746c0.46829,-2.31398 2.41957,-4.1222 4.90989,-4.55986c0.56543,-0.09873 1.24489,-0.09873 2.60435,-0.09873c0.59394,0 0.89328,0 1.1789,0.02429c1.2317,0.1077 2.40426,0.55857 3.35667,1.29135c0.22015,0.17158 0.43133,0.36745 0.85369,0.75655l0.84682,0.78769c1.25598,1.1657 1.88529,1.74855 2.6355,2.13818c0.41338,0.21329 0.85369,0.38276 1.30666,0.50155c0.8294,0.22015 1.71582,0.22015 3.49341,0.22015h0.57388c4.05409,0 6.08034,0 7.39809,1.09971c0.1209,0.10137 0.23758,0.20907 0.34528,0.32099c1.18576,1.22325 1.18576,3.1059 1.18576,6.86962zM36.6493,25.09786c0,-0.91123 0.7386,-1.64983 1.64983,-1.64983h6.59931c0.91123,0 1.64983,0.7386 1.64983,1.64983c0,0.91123 -0.7386,1.64983 -1.64983,1.64983h-6.59931c-0.91123,0 -1.64983,-0.7386 -1.64983,-1.64983z" id="icon" fill="#ffffff"/></g></svg>