<svg version="1.1" xmlns="http://www.w3.org/2000/svg" xmlns:xlink="http://www.w3.org/1999/xlink" width="70" height="70" viewBox="0,0,70,70" odoo-icon:version="1.0" xmlns:odoo-icon="https://ivantodorovich.github.io/odoo-icon" odoo-icon:size="70" odoo-icon:icon-size="0.62" odoo-icon:icon-color="#FFFFFF" odoo-icon:icon-flat-shadow-angle="135" odoo-icon:background-color="#d81b60" odoo-icon:background-gradient="0.2" odoo-icon:box-radius="3.5" odoo-icon:odoo-version="14.0"><defs><linearGradient x1="70" y1="0" x2="0" y2="70" gradientUnits="userSpaceOnUse" id="color-1"><stop offset="0" stop-color="#ff4e93"/><stop offset="1" stop-color="#d81b60"/></linearGradient></defs><g fill="none" fill-rule="nonzero" stroke="none" stroke-width="1" stroke-linecap="butt" stroke-linejoin="miter" stroke-miterlimit="10" stroke-dasharray="" stroke-dashoffset="0" font-family="none" font-weight="none" font-size="none" text-anchor="none" style="mix-blend-mode: normal"><path d="M3.5,70c-1.933,0 -3.5,-1.567 -3.5,-3.5v-63c0,-1.933 1.567,-3.5 3.5,-3.5h63c1.933,0 3.5,1.567 3.5,3.5v63c0,1.933 -1.567,3.5 -3.5,3.5z" id="box" fill="url(#color-1)"/><path d="M65,1h-61c-1.95033,0 -3.2667,0.63396 -3.9491,1.90189c0.28378,-1.64806 1.72001,-2.90189 3.4491,-2.90189h63c1.72965,0 3.16627,1.25466 3.44938,2.90352c-0.69803,-1.26902 -2.34782,-1.90352 -4.94938,-1.90352z" id="topBoxShadow" fill="#ffffff" opacity="0.383"/><path d="M4,69h61c2.66667,0 4.33333,-1 5,-3v0.5c0,1.933 -1.567,3.5 -3.5,3.5h-63c-1.933,0 -3.5,-1.567 -3.5,-3.5c0,-0.1611 0,-0.32777 0,-0.5c0.66667,2 2,3 4,3z" id="bottomBoxShadow" fill="#000000" opacity="0.383"/><path d="M25.49864,33.46372l-1.19636,3.53628h-3.05272l5.12072,-13.75h3.531l5.09872,13.75h-3.20936l-1.19636,-3.53628zM29.99236,31.43972l-1.86736,-5.56072h-0.13464l-1.86736,5.56028zM13,20.5c0,-3.03776 2.46224,-5.5 5.5,-5.5h19.25c3.03776,0 5.5,2.46224 5.5,5.5v8.25h8.25c3.03776,0 5.5,2.46224 5.5,5.5v19.25c0,3.03776 -2.46224,5.5 -5.5,5.5h-19.25c-3.03776,0 -5.5,-2.46224 -5.5,-5.5v-8.25h-8.25c-3.03776,0 -5.5,-2.46224 -5.5,-5.5zM18.5,17.75c-1.51888,0 -2.75,1.23112 -2.75,2.75v19.25c0,1.51888 1.23112,2.75 2.75,2.75h19.25c1.51888,0 2.75,-1.23112 2.75,-2.75v-19.25c0,-1.51888 -1.23112,-2.75 -2.75,-2.75zM38.12972,45.23636c0.53064,0.82764 1.10528,1.60336 1.73272,2.32672c-2.057,1.58136 -4.60064,2.75264 -7.612,3.553c0.48928,0.59664 1.24036,1.74636 1.52636,2.38436c3.09364,-0.98736 5.72,-2.321 7.93672,-4.10828c2.13664,1.82864 4.78236,3.20364 8.05772,4.048c0.36564,-0.69828 1.13828,-1.85064 1.72964,-2.44772c-3.09364,-0.69564 -5.65664,-1.90872 -7.755,-3.531c1.87264,-2.05436 3.36028,-4.54036 4.45764,-7.58164h3.29736v-2.87936h-8.25v2.87936h2.10364c-0.87428,2.321 -2.035,4.25128 -3.498,5.85728c-0.40392,-0.43032 -0.78496,-0.8822 -1.14136,-1.353c-0.77616,0.49764 -1.6654,0.79068 -2.585,0.85272z" id="shadow" fill="#000000" opacity="0.3"/><path d="M14.61084,14.61084c0.99528,-0.99528 2.37028,-1.61084 3.88916,-1.61084h19.25c3.03776,0 5.5,2.46224 5.5,5.5v8.25h8.25c3.03776,0 5.5,2.46224 5.5,5.5v19.25c0,1.51888 -0.61556,2.89388 -1.61084,3.88916l-14.61084,14.61084h-37.27832c-1.933,0 -3.5,-1.567 -3.5,-3.5l0,-37.27832z" id="flatShadow" fill="#000000" opacity="0.324"/><path d="M25.49864,31.46372l-1.19636,3.53628h-3.05272l5.12072,-13.75h3.531l5.09872,13.75h-3.20936l-1.19636,-3.53628zM29.99236,29.43972l-1.86736,-5.56072h-0.13464l-1.86736,5.56028zM13,18.5c0,-3.03776 2.46224,-5.5 5.5,-5.5h19.25c3.03776,0 5.5,2.46224 5.5,5.5v8.25h8.25c3.03776,0 5.5,2.46224 5.5,5.5v19.25c0,3.03776 -2.46224,5.5 -5.5,5.5h-19.25c-3.03776,0 -5.5,-2.46224 -5.5,-5.5v-8.25h-8.25c-3.03776,0 -5.5,-2.46224 -5.5,-5.5zM18.5,15.75c-1.51888,0 -2.75,1.23112 -2.75,2.75v19.25c0,1.51888 1.23112,2.75 2.75,2.75h19.25c1.51888,0 2.75,-1.23112 2.75,-2.75v-19.25c0,-1.51888 -1.23112,-2.75 -2.75,-2.75zM38.12972,43.23636c0.53064,0.82764 1.10528,1.60336 1.73272,2.32672c-2.057,1.58136 -4.60064,2.75264 -7.612,3.553c0.48928,0.59664 1.24036,1.74636 1.52636,2.38436c3.09364,-0.98736 5.72,-2.321 7.93672,-4.10828c2.13664,1.82864 4.78236,3.20364 8.05772,4.048c0.36564,-0.69828 1.13828,-1.85064 1.72964,-2.44772c-3.09364,-0.69564 -5.65664,-1.90872 -7.755,-3.531c1.87264,-2.05436 3.36028,-4.54036 4.45764,-7.58164h3.29736v-2.87936h-8.25v2.87936h2.10364c-0.87428,2.321 -2.035,4.25128 -3.498,5.85728c-0.40392,-0.43032 -0.78496,-0.8822 -1.14136,-1.353c-0.77616,0.49764 -1.6654,0.79068 -2.585,0.85272z" id="icon" fill="#ffffff"/></g></svg>