<svg version="1.1" xmlns="http://www.w3.org/2000/svg" xmlns:xlink="http://www.w3.org/1999/xlink" width="70" height="70" viewBox="0,0,70,70" odoo-icon:version="1.0" xmlns:odoo-icon="https://ivantodorovich.github.io/odoo-icon" odoo-icon:size="70" odoo-icon:icon-size="0.6" odoo-icon:icon-color="#FFFFFF" odoo-icon:icon-flat-shadow-angle="135" odoo-icon:background-color="#334984" odoo-icon:background-gradient="0.2" odoo-icon:box-radius="3.5" odoo-icon:odoo-version="14.0"><defs><linearGradient x1="70" y1="0" x2="0" y2="70" gradientUnits="userSpaceOnUse" id="color-1"><stop offset="0" stop-color="#667cb7"/><stop offset="1" stop-color="#334984"/></linearGradient></defs><g fill="none" fill-rule="nonzero" stroke="none" stroke-width="1" stroke-linecap="butt" stroke-linejoin="miter" stroke-miterlimit="10" stroke-dasharray="" stroke-dashoffset="0" font-family="none" font-weight="none" font-size="none" text-anchor="none" style="mix-blend-mode: normal"><path d="M3.5,70c-1.933,0 -3.5,-1.567 -3.5,-3.5v-63c0,-1.933 1.567,-3.5 3.5,-3.5h63c1.933,0 3.5,1.567 3.5,3.5v63c0,1.933 -1.567,3.5 -3.5,3.5z" id="box" fill="url(#color-1)"/><path d="M65,1h-61c-1.95033,0 -3.2667,0.63396 -3.9491,1.90189c0.28378,-1.64806 1.72001,-2.90189 3.4491,-2.90189h63c1.72965,0 3.16627,1.25466 3.44938,2.90352c-0.69803,-1.26902 -2.34782,-1.90352 -4.94938,-1.90352z" id="topBoxShadow" fill="#ffffff" opacity="0.383"/><path d="M4,69h61c2.66667,0 4.33333,-1 5,-3v0.5c0,1.933 -1.567,3.5 -3.5,3.5h-63c-1.933,0 -3.5,-1.567 -3.5,-3.5c0,-0.1611 0,-0.32777 0,-0.5c0.66667,2 2,3 4,3z" id="bottomBoxShadow" fill="#000000" opacity="0.383"/><path d="M27.125,16c-4.3491,0 -7.875,3.5259 -7.875,7.875v9.45c0.83895,-0.42945 1.71833,-0.7749 2.625,-1.03163v-8.41837c0,-2.89958 2.35043,-5.25 5.25,-5.25h21c2.89957,0 5.25,2.35042 5.25,5.25v21c0,2.89957 -2.35043,5.25 -5.25,5.25h-8.41838c-0.25987,0.91612 -0.60375,1.79287 -1.03162,2.625h9.45c4.3491,0 7.875,-3.5259 7.875,-7.875v-21c0,-4.3491 -3.5259,-7.875 -7.875,-7.875zM25.8125,58c6.52365,0 11.8125,-5.28885 11.8125,-11.8125c0,-6.52365 -5.28885,-11.8125 -11.8125,-11.8125c-6.52365,0 -11.8125,5.28885 -11.8125,11.8125c0,6.52365 5.28885,11.8125 11.8125,11.8125zM25.8125,39.625c0.72502,0 1.3125,0.58747 1.3125,1.3125v3.9375h3.9375c0.72502,0 1.3125,0.58747 1.3125,1.3125c0,0.72503 -0.58747,1.3125 -1.3125,1.3125h-3.9375v3.9375c0,0.72503 -0.58748,1.3125 -1.3125,1.3125c-0.72502,0 -1.3125,-0.58747 -1.3125,-1.3125v-3.9375h-3.9375c-0.72502,0 -1.3125,-0.58747 -1.3125,-1.3125c0,-0.72503 0.58748,-1.3125 1.3125,-1.3125h3.9375v-3.9375c0,-0.72503 0.58748,-1.3125 1.3125,-1.3125zM40.25,25.1875c0,-0.72502 -0.58748,-1.3125 -1.3125,-1.3125c-0.72502,0 -1.3125,0.58747 -1.3125,1.3125v7.875c0,0.72503 0.58748,1.3125 1.3125,1.3125h5.25c0.72502,0 1.3125,-0.58747 1.3125,-1.3125c0,-0.72503 -0.58748,-1.3125 -1.3125,-1.3125h-3.9375z" id="shadow" fill="#000000" opacity="0.3"/><path d="M56,21.875v21c0,2.17455 -0.88148,4.1433 -2.30659,5.56841l0,0l-21.55659,21.55659h-28.63683c-1.933,0 -3.5,-1.567 -3.5,-3.5l0,-28.63682l21.55659,-21.55659c1.42511,-1.42511 3.39386,-2.30659 5.56841,-2.30659l21,0c4.3491,0 7.875,3.5259 7.875,7.875z" id="flatShadow" fill="#000000" opacity="0.324"/><path d="M27.125,14c-4.3491,0 -7.875,3.5259 -7.875,7.875v9.45c0.83895,-0.42945 1.71833,-0.7749 2.625,-1.03163v-8.41837c0,-2.89958 2.35043,-5.25 5.25,-5.25h21c2.89957,0 5.25,2.35042 5.25,5.25v21c0,2.89957 -2.35043,5.25 -5.25,5.25h-8.41838c-0.25987,0.91612 -0.60375,1.79287 -1.03162,2.625h9.45c4.3491,0 7.875,-3.5259 7.875,-7.875v-21c0,-4.3491 -3.5259,-7.875 -7.875,-7.875zM25.8125,56c6.52365,0 11.8125,-5.28885 11.8125,-11.8125c0,-6.52365 -5.28885,-11.8125 -11.8125,-11.8125c-6.52365,0 -11.8125,5.28885 -11.8125,11.8125c0,6.52365 5.28885,11.8125 11.8125,11.8125zM25.8125,37.625c0.72502,0 1.3125,0.58747 1.3125,1.3125v3.9375h3.9375c0.72502,0 1.3125,0.58747 1.3125,1.3125c0,0.72503 -0.58747,1.3125 -1.3125,1.3125h-3.9375v3.9375c0,0.72503 -0.58748,1.3125 -1.3125,1.3125c-0.72502,0 -1.3125,-0.58747 -1.3125,-1.3125v-3.9375h-3.9375c-0.72502,0 -1.3125,-0.58747 -1.3125,-1.3125c0,-0.72503 0.58748,-1.3125 1.3125,-1.3125h3.9375v-3.9375c0,-0.72503 0.58748,-1.3125 1.3125,-1.3125zM40.25,23.1875c0,-0.72502 -0.58748,-1.3125 -1.3125,-1.3125c-0.72502,0 -1.3125,0.58747 -1.3125,1.3125v7.875c0,0.72502 0.58748,1.3125 1.3125,1.3125h5.25c0.72502,0 1.3125,-0.58747 1.3125,-1.3125c0,-0.72503 -0.58748,-1.3125 -1.3125,-1.3125h-3.9375z" id="icon" fill="#ffffff"/></g></svg>