<svg version="1.1" xmlns="http://www.w3.org/2000/svg" xmlns:xlink="http://www.w3.org/1999/xlink" width="70" height="70" viewBox="0,0,70,70" odoo-icon:version="1.0" xmlns:odoo-icon="https://ivantodorovich.github.io/odoo-icon" odoo-icon:size="70" odoo-icon:icon-size="0.64" odoo-icon:icon-color="#FFFFFF" odoo-icon:icon-flat-shadow-angle="135" odoo-icon:background-color="#5a9442" odoo-icon:background-gradient="0.2" odoo-icon:box-radius="3.5" odoo-icon:odoo-version="14.0"><defs><linearGradient x1="70" y1="0" x2="0" y2="70" gradientUnits="userSpaceOnUse" id="color-1"><stop offset="0" stop-color="#8dc775"/><stop offset="1" stop-color="#5a9442"/></linearGradient></defs><g fill="none" fill-rule="nonzero" stroke="none" stroke-width="1" stroke-linecap="butt" stroke-linejoin="miter" stroke-miterlimit="10" stroke-dasharray="" stroke-dashoffset="0" font-family="none" font-weight="none" font-size="none" text-anchor="none" style="mix-blend-mode: normal"><path d="M3.5,70c-1.933,0 -3.5,-1.567 -3.5,-3.5v-63c0,-1.933 1.567,-3.5 3.5,-3.5h63c1.933,0 3.5,1.567 3.5,3.5v63c0,1.933 -1.567,3.5 -3.5,3.5z" id="box" fill="url(#color-1)"/><path d="M65,1h-61c-1.95033,0 -3.2667,0.63396 -3.9491,1.90189c0.28378,-1.64806 1.72001,-2.90189 3.4491,-2.90189h63c1.72965,0 3.16627,1.25466 3.44938,2.90352c-0.69803,-1.26902 -2.34782,-1.90352 -4.94938,-1.90352z" id="topBoxShadow" fill="#ffffff" opacity="0.383"/><path d="M4,69h61c2.66667,0 4.33333,-1 5,-3v0.5c0,1.933 -1.567,3.5 -3.5,3.5h-63c-1.933,0 -3.5,-1.567 -3.5,-3.5c0,-0.1611 0,-0.32777 0,-0.5c0.66667,2 2,3 4,3z" id="bottomBoxShadow" fill="#000000" opacity="0.383"/><path d="M38.69521,17.93804c-4.8826,-0.03564 -9.90084,0.72227 -14.27107,1.53809c-2.08858,0.39158 -4.74943,0.87523 -7.0593,1.84205c-2.30987,0.96682 -4.38756,2.51382 -4.81626,5.00834c-0.21386,1.24751 0.30346,2.35937 1.05889,3.18114c0.75494,0.82177 1.73859,1.45047 2.71877,2.06927c0.98018,0.6089 1.96086,1.2084 2.6955,1.8371c0.73365,0.6287 1.18612,1.24751 1.31186,1.93363c0.21287,1.14107 -0.17425,2.38808 -0.94256,3.74202c-0.77177,1.35344 -1.90492,2.7653 -2.98956,4.17667c-1.08365,1.40196 -2.12719,2.80392 -2.69006,4.2638c-0.56286,1.46978 -0.55197,3.14253 0.55593,4.51528c1.43315,1.76928 3.5049,2.18511 5.54199,1.8371c2.04205,-0.34801 4.16924,-1.34404 6.33505,-2.39798c2.16581,-1.05394 4.36082,-2.16581 6.38158,-2.80392c2.03066,-0.6287 3.81925,-0.77326 5.32764,-0.07723c0.38663,0.17425 0.69603,0.56088 0.96682,1.19899c0.28019,0.63811 0.48366,1.47918 0.70593,2.33016c0.22227,0.85098 0.45445,1.71136 0.899,2.46531c0.44455,0.75395 1.2376,1.42127 2.27224,1.45988c2.05937,0.07723 3.87717,-0.67672 5.39497,-1.88561c1.5178,-1.2183 2.7554,-2.90045 3.80935,-4.77616c2.10789,-3.76133 3.48064,-8.36373 4.48607,-11.9216c0.58959,-2.11729 1.12176,-4.63112 1.11186,-7.07761c-0.0099,-2.446 -0.56088,-4.8826 -2.24303,-6.67168c-3.6742,-3.89647 -8.95333,-5.40289 -14.47403,-5.7212c-0.69603,-0.0396 -1.39206,-0.06089 -2.08858,-0.06683zM38.6853,19.6796c0.66732,0 1.33414,0.02525 1.99155,0.06287c5.27913,0.2995 10.05578,1.72126 13.30425,5.18259c1.27622,1.35344 1.76928,3.29698 1.77918,5.48209c0.0099,2.18511 -0.47376,4.56379 -1.05394,6.60386c-0.98612,3.51925 -2.34947,8.02512 -4.32172,11.53497c-0.97672,1.74997 -2.11729,3.24896 -3.38411,4.2638c-1.25691,1.01533 -2.62966,1.56631 -4.24449,1.50839c-0.40593,-0.01931 -0.57029,-0.14505 -0.83167,-0.5995c-0.26089,-0.45445 -0.49306,-1.19899 -0.70593,-2.03066c-0.22227,-0.82177 -0.43514,-1.73067 -0.80246,-2.57174c-0.35792,-0.84108 -0.9089,-1.66285 -1.8272,-2.09799c-2.05937,-0.94751 -4.34152,-0.69603 -6.57465,0.0099c-2.24303,0.69603 -4.48656,1.84651 -6.63257,2.89104c-2.1465,1.04404 -4.18657,1.96284 -5.86328,2.25294c-1.67572,0.29009 -2.85788,0.05792 -3.89746,-1.2277c-0.72227,-0.88959 -0.71435,-1.66285 -0.28415,-2.78461c0.43019,-1.12176 1.37671,-2.446 2.44452,-3.83855c1.06731,-1.38265 2.25393,-2.84253 3.12421,-4.37023c0.87028,-1.5371 1.45988,-3.19054 1.15048,-4.9118c-0.23217,-1.2376 -1.00543,-2.18511 -1.90492,-2.94896c-0.89256,-0.76385 -1.93759,-1.38265 -2.89797,-1.99155c-0.96088,-0.5995 -1.83314,-1.18909 -2.3658,-1.76928c-0.53366,-0.58019 -0.73761,-1.03464 -0.62276,-1.71136c0.29009,-1.69205 1.71532,-2.82322 3.77271,-3.68361c2.05541,-0.86038 4.61775,-1.35344 6.71574,-1.74997c4.31231,-0.80246 9.23352,-1.53661 13.93295,-1.50344zM35.77545,25.00229c-2.12719,0.01931 -4.9118,1.56631 -6.86474,3.69351c-2.01135,2.19502 -3.01678,4.82468 -2.18511,6.68108c1.05394,2.36878 4.71824,3.84796 8.5667,3.89647c3.84796,0.05792 7.59988,-1.33414 8.78897,-3.64499c0.88959,-1.74057 0.11584,-4.35092 -1.63413,-6.59396c-1.75987,-2.24303 -4.41874,-3.95439 -6.46822,-4.03212zM35.42694,27.14879c0.58959,0 1.17968,0.12574 1.74997,0.42524c-3.95439,1.97225 -6.19792,4.49597 -7.66721,7.43553c-1.33414,-2.7554 2.30095,-7.83156 5.91723,-7.86077z" id="shadow" fill="#000000" opacity="0.3"/><path d="M14.12622,21.3714c0.87936,-0.87936 2.02705,-1.5461 3.23862,-2.05321c2.30987,-0.96682 4.97071,-1.45047 7.0593,-1.84205c4.36964,-0.81572 9.38712,-1.57353 14.2691,-1.53811l0.00098,-0.00098c0.69652,0.00594 1.39255,0.02723 2.08858,0.06683c5.52071,0.31831 10.79983,1.82472 14.47403,5.7212c1.68215,1.78908 2.23313,4.22568 2.24303,6.67168c0.0099,2.4465 -0.52227,4.96032 -1.11186,7.07761c-1.00543,3.55787 -2.37818,8.16027 -4.48607,11.9216c-0.8301,1.47734 -1.77414,2.83461 -2.87927,3.93975l-18.66428,18.66428h-26.85837c-1.933,0 -3.5,-1.567 -3.5,-3.5l0,-31.00238z" id="flatShadow" fill="#000000" opacity="0.324"/><path d="M38.69521,15.93804c-4.8826,-0.03564 -9.90084,0.72227 -14.27107,1.53809c-2.08858,0.39158 -4.74943,0.87523 -7.0593,1.84205c-2.30987,0.96682 -4.38756,2.51382 -4.81626,5.00834c-0.21386,1.24751 0.30346,2.35937 1.05889,3.18114c0.75494,0.82177 1.73859,1.45047 2.71877,2.06927c0.98018,0.6089 1.96086,1.2084 2.6955,1.8371c0.73365,0.6287 1.18612,1.24751 1.31186,1.93363c0.21287,1.14107 -0.17425,2.38808 -0.94256,3.74202c-0.77177,1.35344 -1.90492,2.7653 -2.98956,4.17667c-1.08365,1.40196 -2.12719,2.80392 -2.69006,4.2638c-0.56286,1.46978 -0.55197,3.14253 0.55593,4.51528c1.43315,1.76928 3.5049,2.18511 5.54199,1.8371c2.04205,-0.34801 4.16924,-1.34404 6.33505,-2.39798c2.16581,-1.05394 4.36082,-2.16581 6.38158,-2.80392c2.03066,-0.6287 3.81925,-0.77326 5.32764,-0.07723c0.38663,0.17425 0.69603,0.56088 0.96682,1.19899c0.28019,0.63811 0.48366,1.47918 0.70593,2.33016c0.22227,0.85098 0.45445,1.71136 0.899,2.46531c0.44455,0.75395 1.2376,1.42127 2.27224,1.45988c2.05937,0.07723 3.87717,-0.67672 5.39497,-1.88561c1.5178,-1.2183 2.7554,-2.90045 3.80935,-4.77616c2.10789,-3.76133 3.48064,-8.36373 4.48607,-11.9216c0.58959,-2.11729 1.12176,-4.63112 1.11186,-7.07761c-0.0099,-2.446 -0.56088,-4.8826 -2.24303,-6.67168c-3.6742,-3.89647 -8.95333,-5.40289 -14.47403,-5.7212c-0.69603,-0.0396 -1.39206,-0.06089 -2.08858,-0.06683zM38.6853,17.6796c0.66732,0 1.33414,0.02525 1.99155,0.06287c5.27913,0.2995 10.05578,1.72126 13.30425,5.18259c1.27622,1.35344 1.76928,3.29698 1.77918,5.48209c0.0099,2.18511 -0.47376,4.56379 -1.05394,6.60386c-0.98612,3.51925 -2.34947,8.02512 -4.32172,11.53497c-0.97672,1.74997 -2.11729,3.24896 -3.38411,4.2638c-1.25691,1.01533 -2.62966,1.56631 -4.24449,1.50839c-0.40593,-0.01931 -0.57029,-0.14505 -0.83167,-0.5995c-0.26089,-0.45445 -0.49306,-1.19899 -0.70593,-2.03066c-0.22227,-0.82177 -0.43514,-1.73067 -0.80246,-2.57174c-0.35792,-0.84108 -0.9089,-1.66285 -1.8272,-2.09799c-2.05937,-0.94751 -4.34152,-0.69603 -6.57465,0.0099c-2.24303,0.69603 -4.48656,1.84651 -6.63257,2.89104c-2.1465,1.04404 -4.18657,1.96284 -5.86328,2.25294c-1.67572,0.29009 -2.85788,0.05792 -3.89746,-1.2277c-0.72227,-0.88959 -0.71435,-1.66285 -0.28415,-2.78461c0.43019,-1.12176 1.37671,-2.446 2.44452,-3.83855c1.06731,-1.38265 2.25393,-2.84253 3.12421,-4.37023c0.87028,-1.5371 1.45988,-3.19054 1.15048,-4.9118c-0.23217,-1.2376 -1.00543,-2.18511 -1.90492,-2.94896c-0.89256,-0.76385 -1.93759,-1.38265 -2.89797,-1.99155c-0.96088,-0.5995 -1.83314,-1.18909 -2.3658,-1.76928c-0.53366,-0.58019 -0.73761,-1.03464 -0.62276,-1.71136c0.29009,-1.69205 1.71532,-2.82322 3.77271,-3.68361c2.05541,-0.86038 4.61775,-1.35344 6.71574,-1.74997c4.31231,-0.80246 9.23352,-1.53661 13.93295,-1.50344zM35.77545,23.00229c-2.12719,0.01931 -4.9118,1.56631 -6.86474,3.69351c-2.01135,2.19502 -3.01678,4.82468 -2.18511,6.68108c1.05394,2.36878 4.71824,3.84796 8.5667,3.89647c3.84796,0.05792 7.59988,-1.33414 8.78897,-3.64499c0.88959,-1.74057 0.11584,-4.35092 -1.63413,-6.59396c-1.75987,-2.24303 -4.41874,-3.95439 -6.46822,-4.03212zM35.42694,25.14879c0.58959,0 1.17968,0.12574 1.74997,0.42524c-3.95439,1.97225 -6.19792,4.49597 -7.66721,7.43553c-1.33414,-2.7554 2.30095,-7.83156 5.91723,-7.86077z" id="icon" fill="#ffffff"/></g></svg>