<svg version="1.1" xmlns="http://www.w3.org/2000/svg" xmlns:xlink="http://www.w3.org/1999/xlink" width="70" height="70" viewBox="0,0,70,70" odoo-icon:version="1.0" xmlns:odoo-icon="https://ivantodorovich.github.io/odoo-icon" odoo-icon:size="70" odoo-icon:icon-size="0.55" odoo-icon:icon-color="#FFFFFF" odoo-icon:icon-flat-shadow-angle="135" odoo-icon:background-color="#5e35b1" odoo-icon:background-gradient="0.2" odoo-icon:box-radius="3.5" odoo-icon:odoo-version="14.0"><defs><linearGradient x1="70" y1="0" x2="0" y2="70" gradientUnits="userSpaceOnUse" id="color-1"><stop offset="0" stop-color="#9168e4"/><stop offset="1" stop-color="#5e35b1"/></linearGradient></defs><g fill="none" fill-rule="nonzero" stroke="none" stroke-width="1" stroke-linecap="butt" stroke-linejoin="miter" stroke-miterlimit="10" stroke-dasharray="" stroke-dashoffset="0" font-family="none" font-weight="none" font-size="none" text-anchor="none" style="mix-blend-mode: normal"><path d="M3.5,70c-1.933,0 -3.5,-1.567 -3.5,-3.5v-63c0,-1.933 1.567,-3.5 3.5,-3.5h63c1.933,0 3.5,1.567 3.5,3.5v63c0,1.933 -1.567,3.5 -3.5,3.5z" id="box" fill="url(#color-1)"/><path d="M65,1h-61c-1.95033,0 -3.2667,0.63396 -3.9491,1.90189c0.28378,-1.64806 1.72001,-2.90189 3.4491,-2.90189h63c1.72965,0 3.16627,1.25466 3.44938,2.90352c-0.69803,-1.26902 -2.34782,-1.90352 -4.94938,-1.90352z" id="topBoxShadow" fill="#ffffff" opacity="0.383"/><path d="M4,69h61c2.66667,0 4.33333,-1 5,-3v0.5c0,1.933 -1.567,3.5 -3.5,3.5h-63c-1.933,0 -3.5,-1.567 -3.5,-3.5c0,-0.1611 0,-0.32777 0,-0.5c0.66667,2 2,3 4,3z" id="bottomBoxShadow" fill="#000000" opacity="0.383"/><path d="M24.16736,47.83316h21.66684v-4.33316h-21.66684zM27.20052,39.16684l7.8,-7.8l7.8,7.8l3.03316,-3.03316l-10.83316,-10.83316l-10.83316,10.83316zM19.83368,56.5c-1.19184,0 -2.21208,-0.42484 -3.06176,-1.274c-0.84916,-0.84916 -1.27348,-1.86888 -1.27192,-3.05916v-30.33315c0,-1.19184 0.42484,-2.21208 1.274,-3.06176c0.84916,-0.84916 1.86888,-1.27348 3.05916,-1.27192h30.33315c1.19184,0 2.21208,0.42484 3.06176,1.274c0.84916,0.84916 1.27348,1.86888 1.27192,3.05916v30.33315c0,1.19184 -0.42484,2.21208 -1.274,3.06176c-0.84916,0.84916 -1.86888,1.27348 -3.05916,1.27192z" id="shadow" fill="#000000" opacity="0.3"/><path d="M16.774,16.77192c0.84916,-0.84916 1.86888,-1.27348 3.05916,-1.27192h30.33315c1.19184,0 2.21208,0.42484 3.06176,1.274c0.84916,0.84916 1.27348,1.86888 1.27192,3.05916v30.33315c0,1.19184 -0.42484,2.21208 -1.274,3.06176l-16.77192,16.77192h-32.95407c-1.933,0 -3.5,-1.567 -3.5,-3.5l0,-32.95407z" id="flatShadow" fill="#000000" opacity="0.324"/><path d="M24.16736,45.83316h21.66684v-4.33316h-21.66684zM27.20052,37.16684l7.8,-7.8l7.8,7.8l3.03316,-3.03316l-10.83316,-10.83316l-10.83316,10.83316zM19.83368,54.5c-1.19184,0 -2.21208,-0.42484 -3.06176,-1.274c-0.84916,-0.84916 -1.27348,-1.86888 -1.27192,-3.05916v-30.33315c0,-1.19184 0.42484,-2.21208 1.274,-3.06176c0.84916,-0.84916 1.86888,-1.27348 3.05916,-1.27192h30.33315c1.19184,0 2.21208,0.42484 3.06176,1.274c0.84916,0.84916 1.27348,1.86888 1.27192,3.05916v30.33315c0,1.19184 -0.42484,2.21208 -1.274,3.06176c-0.84916,0.84916 -1.86888,1.27348 -3.05916,1.27192z" id="icon" fill="#ffffff"/></g></svg>