<svg version="1.1" xmlns="http://www.w3.org/2000/svg" xmlns:xlink="http://www.w3.org/1999/xlink" width="70" height="70" viewBox="0,0,70,70" odoo-icon:version="1.0" xmlns:odoo-icon="https://ivantodorovich.github.io/odoo-icon" odoo-icon:size="70" odoo-icon:icon-size="0.56" odoo-icon:icon-color="#FFFFFF" odoo-icon:icon-flat-shadow-angle="135" odoo-icon:background-color="#5e57a6" odoo-icon:background-gradient="0.2" odoo-icon:box-radius="3.5" odoo-icon:odoo-version="14.0"><defs><linearGradient x1="70" y1="0" x2="0" y2="70" gradientUnits="userSpaceOnUse" id="color-1"><stop offset="0" stop-color="#918ad9"/><stop offset="1" stop-color="#5e57a6"/></linearGradient></defs><g fill="none" fill-rule="nonzero" stroke="none" stroke-width="1" stroke-linecap="butt" stroke-linejoin="miter" stroke-miterlimit="10" stroke-dasharray="" stroke-dashoffset="0" font-family="none" font-weight="none" font-size="none" text-anchor="none" style="mix-blend-mode: normal"><path d="M3.5,70c-1.933,0 -3.5,-1.567 -3.5,-3.5v-63c0,-1.933 1.567,-3.5 3.5,-3.5h63c1.933,0 3.5,1.567 3.5,3.5v63c0,1.933 -1.567,3.5 -3.5,3.5z" id="box" fill="url(#color-1)"/><path d="M65,1h-61c-1.95033,0 -3.2667,0.63396 -3.9491,1.90189c0.28378,-1.64806 1.72001,-2.90189 3.4491,-2.90189h63c1.72965,0 3.16627,1.25466 3.44938,2.90352c-0.69803,-1.26902 -2.34782,-1.90352 -4.94938,-1.90352z" id="topBoxShadow" fill="#ffffff" opacity="0.383"/><path d="M4,69h61c2.66667,0 4.33333,-1 5,-3v0.5c0,1.933 -1.567,3.5 -3.5,3.5h-63c-1.933,0 -3.5,-1.567 -3.5,-3.5c0,-0.1611 0,-0.32777 0,-0.5c0.66667,2 2,3 4,3z" id="bottomBoxShadow" fill="#000000" opacity="0.383"/><path d="M21.25,17c-2.7615,0 -5,2.2385 -5,5v5c0,2.7615 2.2385,5 5,5h20c2.7615,0 5,-2.2385 5,-5v-5c0,-2.7615 -2.2385,-5 -5,-5zM52.5,29.5c0.6905,0 1.25,0.5595 1.25,1.25v5c0,3.452 -2.798,6.25 -6.25,6.25h-4.4825l2.8675,2.865c0.489,0.489 0.489,1.281 0,1.77c-0.489,0.489 -1.281,0.489 -1.77,0l-5,-5c-0.235,-0.2345 -0.367,-0.553 -0.367,-0.885c0,-0.332 0.132,-0.6505 0.367,-0.885l5,-5c0.489,-0.489 1.281,-0.489 1.77,0c0.489,0.489 0.489,1.281 0,1.77l-2.8675,2.865h4.4825c2.071,0 3.75,-1.679 3.75,-3.75v-5c0,-0.6905 0.5595,-1.25 1.25,-1.25zM38.4475,37h-17.1975c-2.7615,0 -5,2.2385 -5,5v10c0,2.7615 2.2385,5 5,5h20c2.7615,0 5,-2.2385 5,-5v-2.7125c-1.362,0.4805 -2.879,0.1365 -3.9,-0.885l-5,-5c-0.704,-0.7035 -1.099,-1.6575 -1.099,-2.6525c0,-0.995 0.3955,-1.949 1.099,-2.6525zM25,47c0,-0.6905 0.5595,-1.25 1.25,-1.25h10c0.6905,0 1.25,0.5595 1.25,1.25c0,0.6905 -0.5595,1.25 -1.25,1.25h-10c-0.6905,0 -1.25,-0.5595 -1.25,-1.25z" id="shadow" fill="#000000" opacity="0.3"/><path d="M46.25,20v5l-10,10h2.1975l-1.0975,1.0975c-0.7035,0.7035 -1.099,1.6575 -1.099,2.6525c0,0.5639 0.12687,1.11463 0.36495,1.61405l2.49811,-2.49811c0.00031,-0.00031 0.00063,-0.00063 0.00094,-0.00094l5,-5c0.489,-0.489 1.281,-0.489 1.77,0c0.13057,0.13057 0.22628,0.28275 0.28712,0.445l5.44394,-5.44394c0.22619,-0.22619 0.53869,-0.36606 0.88394,-0.36606c0.6905,0 1.25,0.5595 1.25,1.25v5c0,1.726 -0.6995,3.2885 -1.8305,4.4195c0,0 0,0 0,0l-5.67101,5.67101c-0.02088,0.28945 -0.14204,0.57304 -0.36349,0.79449l-2.49989,2.49989c0.88204,0.4213 1.91144,0.48898 2.86489,0.15261v2.7125l-20,20h-22.75c-1.933,0 -3.5,-1.567 -3.5,-3.5l0,-32.32112l17.71444,-17.71444c0.90481,-0.90481 2.15481,-1.46444 3.53556,-1.46444l20,0c2.7615,0 5,2.2385 5,5z" id="flatShadow" fill="#000000" opacity="0.324"/><path d="M21.25,15c-2.7615,0 -5,2.2385 -5,5v5c0,2.7615 2.2385,5 5,5h20c2.7615,0 5,-2.2385 5,-5v-5c0,-2.7615 -2.2385,-5 -5,-5zM52.5,27.5c0.6905,0 1.25,0.5595 1.25,1.25v5c0,3.452 -2.798,6.25 -6.25,6.25h-4.4825l2.8675,2.865c0.489,0.489 0.489,1.281 0,1.77c-0.489,0.489 -1.281,0.489 -1.77,0l-5,-5c-0.235,-0.2345 -0.367,-0.553 -0.367,-0.885c0,-0.332 0.132,-0.6505 0.367,-0.885l5,-5c0.489,-0.489 1.281,-0.489 1.77,0c0.489,0.489 0.489,1.281 0,1.77l-2.8675,2.865h4.4825c2.071,0 3.75,-1.679 3.75,-3.75v-5c0,-0.6905 0.5595,-1.25 1.25,-1.25zM38.4475,35h-17.1975c-2.7615,0 -5,2.2385 -5,5v10c0,2.7615 2.2385,5 5,5h20c2.7615,0 5,-2.2385 5,-5v-2.7125c-1.362,0.4805 -2.879,0.1365 -3.9,-0.885l-5,-5c-0.704,-0.7035 -1.099,-1.6575 -1.099,-2.6525c0,-0.995 0.3955,-1.949 1.099,-2.6525zM25,45c0,-0.6905 0.5595,-1.25 1.25,-1.25h10c0.6905,0 1.25,0.5595 1.25,1.25c0,0.6905 -0.5595,1.25 -1.25,1.25h-10c-0.6905,0 -1.25,-0.5595 -1.25,-1.25z" id="icon" fill="#ffffff"/></g></svg>