<svg version="1.1" xmlns="http://www.w3.org/2000/svg" xmlns:xlink="http://www.w3.org/1999/xlink" width="70" height="70" viewBox="0,0,70,70" odoo-icon:version="1.0" xmlns:odoo-icon="https://ivantodorovich.github.io/odoo-icon" odoo-icon:size="70" odoo-icon:icon-size="0.43" odoo-icon:icon-color="#FFFFFF" odoo-icon:icon-flat-shadow-angle="135" odoo-icon:background-color="#e53935" odoo-icon:background-gradient="0.2" odoo-icon:box-radius="3.5" odoo-icon:odoo-version="14.0"><defs><linearGradient x1="70" y1="0" x2="0" y2="70" gradientUnits="userSpaceOnUse" id="color-1"><stop offset="0" stop-color="#ff6c68"/><stop offset="1" stop-color="#e53935"/></linearGradient></defs><g fill="none" fill-rule="nonzero" stroke="none" stroke-width="1" stroke-linecap="butt" stroke-linejoin="miter" stroke-miterlimit="10" stroke-dasharray="" stroke-dashoffset="0" font-family="none" font-weight="none" font-size="none" text-anchor="none" style="mix-blend-mode: normal"><path d="M3.5,70c-1.933,0 -3.5,-1.567 -3.5,-3.5v-63c0,-1.933 1.567,-3.5 3.5,-3.5h63c1.933,0 3.5,1.567 3.5,3.5v63c0,1.933 -1.567,3.5 -3.5,3.5z" id="box" fill="url(#color-1)"/><path d="M65,1h-61c-1.95033,0 -3.2667,0.63396 -3.9491,1.90189c0.28378,-1.64806 1.72001,-2.90189 3.4491,-2.90189h63c1.72965,0 3.16627,1.25466 3.44938,2.90352c-0.69803,-1.26902 -2.34782,-1.90352 -4.94938,-1.90352z" id="topBoxShadow" fill="#ffffff" opacity="0.383"/><path d="M4,69h61c2.66667,0 4.33333,-1 5,-3v0.5c0,1.933 -1.567,3.5 -3.5,3.5h-63c-1.933,0 -3.5,-1.567 -3.5,-3.5c0,-0.1611 0,-0.32777 0,-0.5c0.66667,2 2,3 4,3z" id="bottomBoxShadow" fill="#000000" opacity="0.383"/><path d="M24.12284,22.26085l10.87716,10.87716l10.82095,-10.82095c0.48314,-0.51399 1.15438,-0.80903 1.85985,-0.81707c1.55636,0 2.8181,1.26174 2.8181,2.8181c0.0131,0.69829 -0.26207,1.37122 -0.76085,1.85985l-10.9617,10.82095l10.9617,10.9617c0.46454,0.4544 0.73675,1.06984 0.76085,1.71909c0,1.55636 -1.26174,2.8181 -2.8181,2.8181c-0.72619,0.03001 -1.43166,-0.24601 -1.94439,-0.76085l-10.73641,-10.87716l-10.84927,10.84927c-0.48102,0.49666 -1.14043,0.78071 -1.83153,0.78917c-1.55636,0 -2.8181,-1.26174 -2.8181,-2.8181c-0.0131,-0.69829 0.26207,-1.37122 0.76085,-1.85985l10.9617,-10.82095l-10.9617,-10.9617c-0.46454,-0.4544 -0.73675,-1.06984 -0.76085,-1.71909c0,-1.55636 1.26174,-2.8181 2.8181,-2.8181c0.67631,0.00845 1.3243,0.28194 1.80363,0.76085z" id="shadow" fill="#000000" opacity="0.3"/><path d="M34.99912,31.13713l10.87779,-10.87779c0.47831,-0.47831 1.12526,-0.75162 1.80388,-0.75934c1.55636,0 2.8181,1.26174 2.8181,2.8181c0.01294,0.68959 -0.25526,1.35445 -0.74232,1.84151l-10.90976,10.90976l10.89123,10.89123c0.46454,0.4544 0.73675,1.06984 0.76085,1.71909c0,0.77818 -0.31543,1.4827 -0.82541,1.99268l-20.32763,20.32763h-25.84585c-1.933,0 -3.5,-1.567 -3.5,-3.5l0,-25.84764l20.32652,-20.32652l0,0c0.50998,-0.50998 1.2145,-0.82541 1.99268,-0.82541c0.67621,0.00845 1.32411,0.28186 1.80342,0.76064l0.00021,-0.00021z" id="flatShadow" fill="#000000" opacity="0.324"/><path d="M24.12284,20.26085l10.87716,10.87716l10.82095,-10.82095c0.48314,-0.51399 1.15438,-0.80903 1.85985,-0.81707c1.55636,0 2.8181,1.26174 2.8181,2.8181c0.0131,0.69829 -0.26207,1.37122 -0.76085,1.85985l-10.9617,10.82095l10.9617,10.9617c0.46454,0.4544 0.73675,1.06984 0.76085,1.71909c0,1.55636 -1.26174,2.8181 -2.8181,2.8181c-0.72619,0.03001 -1.43166,-0.24601 -1.94439,-0.76085l-10.73641,-10.87716l-10.84927,10.84927c-0.48102,0.49666 -1.14043,0.78071 -1.83153,0.78917c-1.55636,0 -2.8181,-1.26174 -2.8181,-2.8181c-0.0131,-0.69829 0.26207,-1.37122 0.76085,-1.85985l10.9617,-10.82095l-10.9617,-10.9617c-0.46454,-0.4544 -0.73675,-1.06984 -0.76085,-1.71909c0,-1.55636 1.26174,-2.8181 2.8181,-2.8181c0.67631,0.00845 1.3243,0.28194 1.80363,0.76085z" id="icon" fill="#ffffff"/></g></svg>