<svg version="1.1" xmlns="http://www.w3.org/2000/svg" xmlns:xlink="http://www.w3.org/1999/xlink" width="70" height="70" viewBox="0,0,70,70" odoo-icon:version="1.0" xmlns:odoo-icon="https://ivantodorovich.github.io/odoo-icon" odoo-icon:size="70" odoo-icon:icon-size="0.65" odoo-icon:icon-color="#FFFFFF" odoo-icon:icon-flat-shadow-angle="135" odoo-icon:background-color="#00897b" odoo-icon:background-gradient="0.2" odoo-icon:box-radius="3.5" odoo-icon:odoo-version="14.0"><defs><linearGradient x1="70" y1="0" x2="0" y2="70" gradientUnits="userSpaceOnUse" id="color-1"><stop offset="0" stop-color="#33bcae"/><stop offset="1" stop-color="#00897b"/></linearGradient></defs><g fill="none" fill-rule="nonzero" stroke="none" stroke-width="1" stroke-linecap="butt" stroke-linejoin="miter" stroke-miterlimit="10" stroke-dasharray="" stroke-dashoffset="0" font-family="none" font-weight="none" font-size="none" text-anchor="none" style="mix-blend-mode: normal"><path d="M3.5,70c-1.933,0 -3.5,-1.567 -3.5,-3.5v-63c0,-1.933 1.567,-3.5 3.5,-3.5h63c1.933,0 3.5,1.567 3.5,3.5v63c0,1.933 -1.567,3.5 -3.5,3.5z" id="box" fill="url(#color-1)"/><path d="M65,1h-61c-1.95033,0 -3.2667,0.63396 -3.9491,1.90189c0.28378,-1.64806 1.72001,-2.90189 3.4491,-2.90189h63c1.72965,0 3.16627,1.25466 3.44938,2.90352c-0.69803,-1.26902 -2.34782,-1.90352 -4.94938,-1.90352z" id="topBoxShadow" fill="#ffffff" opacity="0.383"/><path d="M4,69h61c2.66667,0 4.33333,-1 5,-3v0.5c0,1.933 -1.567,3.5 -3.5,3.5h-63c-1.933,0 -3.5,-1.567 -3.5,-3.5c0,-0.1611 0,-0.32777 0,-0.5c0.66667,2 2,3 4,3z" id="bottomBoxShadow" fill="#000000" opacity="0.383"/><path d="M46.50014,25.50014v4.59983h11.49986v-4.59983h-11.49986M12,30.09997v13.80006h11.49986v-13.80006h-11.49986M35.00028,30.09997v4.59983h-6.90003v4.59983h6.90003v4.59983l6.90003,-6.90003l-6.90003,-6.90003M46.50014,34.69981v4.59983h11.49986v-4.59983h-11.49986M46.50014,43.90003v4.59983h11.49986v-4.59983z" id="shadow" fill="#000000" opacity="0.3"/><path d="M58,28.09997l-4.59983,4.59983h4.59983v4.59983l-4.60039,4.60039h4.60039v4.59983l-23.50014,23.50014h-30.99986c-1.933,0 -3.5,-1.567 -3.5,-3.5l0,-26.40003l12,-12h11.49986l0,9.20022l4.60039,-4.60039l2.29964,0l4.60039,-4.60039l3.45029,3.45029l8.04957,-8.04957h11.49986z" id="flatShadow" fill="#000000" opacity="0.324"/><path d="M46.50014,23.50014v4.59983h11.49986v-4.59983h-11.49986M12,28.09997v13.80006h11.49986v-13.80006h-11.49986M35.00028,28.09997v4.59983h-6.90003v4.59983h6.90003v4.59983l6.90003,-6.90003l-6.90003,-6.90003M46.50014,32.69981v4.59983h11.49986v-4.59983h-11.49986M46.50014,41.90003v4.59983h11.49986v-4.59983z" id="icon" fill="#ffffff"/></g></svg>