<svg version="1.1" xmlns="http://www.w3.org/2000/svg" xmlns:xlink="http://www.w3.org/1999/xlink" width="70" height="70" viewBox="0,0,70,70" odoo-icon:version="1.0" xmlns:odoo-icon="https://ivantodorovich.github.io/odoo-icon" odoo-icon:size="70" odoo-icon:icon-size="0.65" odoo-icon:icon-color="#FFFFFF" odoo-icon:icon-flat-shadow-angle="135" odoo-icon:background-color="#e53935" odoo-icon:background-gradient="0.2" odoo-icon:box-radius="3.5" odoo-icon:odoo-version="14.0"><defs><linearGradient x1="70" y1="0" x2="0" y2="70" gradientUnits="userSpaceOnUse" id="color-1"><stop offset="0" stop-color="#ff6c68"/><stop offset="1" stop-color="#e53935"/></linearGradient></defs><g fill="none" fill-rule="nonzero" stroke="none" stroke-width="1" stroke-linecap="butt" stroke-linejoin="miter" stroke-miterlimit="10" stroke-dasharray="" stroke-dashoffset="0" font-family="none" font-weight="none" font-size="none" text-anchor="none" style="mix-blend-mode: normal"><path d="M3.5,70c-1.933,0 -3.5,-1.567 -3.5,-3.5v-63c0,-1.933 1.567,-3.5 3.5,-3.5h63c1.933,0 3.5,1.567 3.5,3.5v63c0,1.933 -1.567,3.5 -3.5,3.5z" id="box" fill="url(#color-1)"/><path d="M65,1h-61c-1.95033,0 -3.2667,0.63396 -3.9491,1.90189c0.28378,-1.64806 1.72001,-2.90189 3.4491,-2.90189h63c1.72965,0 3.16627,1.25466 3.44938,2.90352c-0.69803,-1.26902 -2.34782,-1.90352 -4.94938,-1.90352z" id="topBoxShadow" fill="#ffffff" opacity="0.383"/><path d="M4,69h61c2.66667,0 4.33333,-1 5,-3v0.5c0,1.933 -1.567,3.5 -3.5,3.5h-63c-1.933,0 -3.5,-1.567 -3.5,-3.5c0,-0.1611 0,-0.32777 0,-0.5c0.66667,2 2,3 4,3z" id="bottomBoxShadow" fill="#000000" opacity="0.383"/><path d="M19.1875,14c0.79396,0 1.4375,0.64354 1.4375,1.4375v4.3125h28.75v-4.3125c0,-0.79396 0.64354,-1.4375 1.4375,-1.4375c0.79396,0 1.4375,0.64354 1.4375,1.4375v43.125c0,0.79396 -0.64354,1.4375 -1.4375,1.4375c-0.79396,0 -1.4375,-0.64354 -1.4375,-1.4375v-1.4375h-28.75v1.4375c0,0.79396 -0.64354,1.4375 -1.4375,1.4375c-0.79396,0 -1.4375,-0.64354 -1.4375,-1.4375v-43.125c0,-0.79396 0.64354,-1.4375 1.4375,-1.4375zM20.625,54.25h28.75v-8.625h-28.75zM20.625,42.75h28.75v-8.625h-28.75zM20.625,31.25h28.75v-8.625h-28.75z" id="shadow" fill="#000000" opacity="0.3"/><path d="M20.625,13.4375v4.3125l23.84203,0l5.32899,-5.32899c0.26013,-0.26013 0.61951,-0.42102 1.01649,-0.42102c0.79396,0 1.4375,0.64354 1.4375,1.4375v43.125c0,0.39698 -0.16089,0.75635 -0.42101,1.01649l-12.42101,12.42101h-35.90797c-1.933,0 -3.5,-1.567 -3.5,-3.5l0,-35.90797l18.17102,-18.17102c0.26013,-0.26013 0.61951,-0.42102 1.01648,-0.42102c0.79396,0 1.4375,0.64354 1.4375,1.4375z" id="flatShadow" fill="#000000" opacity="0.324"/><path d="M19.1875,12c0.79396,0 1.4375,0.64354 1.4375,1.4375v4.3125h28.75v-4.3125c0,-0.79396 0.64354,-1.4375 1.4375,-1.4375c0.79396,0 1.4375,0.64354 1.4375,1.4375v43.125c0,0.79396 -0.64354,1.4375 -1.4375,1.4375c-0.79396,0 -1.4375,-0.64354 -1.4375,-1.4375v-1.4375h-28.75v1.4375c0,0.79396 -0.64354,1.4375 -1.4375,1.4375c-0.79396,0 -1.4375,-0.64354 -1.4375,-1.4375v-43.125c0,-0.79396 0.64354,-1.4375 1.4375,-1.4375zM20.625,52.25h28.75v-8.625h-28.75zM20.625,40.75h28.75v-8.625h-28.75zM20.625,29.25h28.75v-8.625h-28.75z" id="icon" fill="#ffffff"/></g></svg>