<svg version="1.1" xmlns="http://www.w3.org/2000/svg" xmlns:xlink="http://www.w3.org/1999/xlink" width="70" height="70" viewBox="0,0,70,70" odoo-icon:version="1.0" xmlns:odoo-icon="https://ivantodorovich.github.io/odoo-icon" odoo-icon:size="70" odoo-icon:icon-size="0.58" odoo-icon:icon-color="#FFFFFF" odoo-icon:icon-flat-shadow-angle="135" odoo-icon:background-color="#e53935" odoo-icon:background-gradient="0.2" odoo-icon:box-radius="3.5" odoo-icon:odoo-version="14.0"><defs><linearGradient x1="70" y1="0" x2="0" y2="70" gradientUnits="userSpaceOnUse" id="color-1"><stop offset="0" stop-color="#ff6c68"/><stop offset="1" stop-color="#e53935"/></linearGradient></defs><g fill="none" fill-rule="nonzero" stroke="none" stroke-width="1" stroke-linecap="butt" stroke-linejoin="miter" stroke-miterlimit="10" stroke-dasharray="" stroke-dashoffset="0" font-family="none" font-weight="none" font-size="none" text-anchor="none" style="mix-blend-mode: normal"><path d="M3.5,70c-1.933,0 -3.5,-1.567 -3.5,-3.5v-63c0,-1.933 1.567,-3.5 3.5,-3.5h63c1.933,0 3.5,1.567 3.5,3.5v63c0,1.933 -1.567,3.5 -3.5,3.5z" id="box" fill="url(#color-1)"/><path d="M65,1h-61c-1.95033,0 -3.2667,0.63396 -3.9491,1.90189c0.28378,-1.64806 1.72001,-2.90189 3.4491,-2.90189h63c1.72965,0 3.16627,1.25466 3.44938,2.90352c-0.69803,-1.26902 -2.34782,-1.90352 -4.94938,-1.90352z" id="topBoxShadow" fill="#ffffff" opacity="0.383"/><path d="M4,69h61c2.66667,0 4.33333,-1 5,-3v0.5c0,1.933 -1.567,3.5 -3.5,3.5h-63c-1.933,0 -3.5,-1.567 -3.5,-3.5c0,-0.1611 0,-0.32777 0,-0.5c0.66667,2 2,3 4,3z" id="bottomBoxShadow" fill="#000000" opacity="0.383"/><path d="M15.70626,16.5h38.58807v5.2383c0,1.27919 -0.50878,2.5057 -1.41347,3.4104l-10.64562,10.64562v16.88239l-14.47045,4.82329v-20.5l-10.8048,-11.88487c-0.80687,-0.88791 -1.25372,-2.04439 -1.2543,-3.2437z" id="shadow" fill="#000000" opacity="0.3"/><path d="M54.29432,14.5v5.2383c0,1.27919 -0.50878,2.5057 -1.41347,3.4104l-10.64562,10.64562v16.88239l-19.32329,19.32329h-19.41193c-1.933,0 -3.5,-1.567 -3.5,-3.5l0,-36.29374l15.70626,-15.70626z" id="flatShadow" fill="#000000" opacity="0.324"/><path d="M15.70626,14.5h38.58807v5.2383c0,1.27919 -0.50878,2.5057 -1.41347,3.4104l-10.64562,10.64562v16.88239l-14.47045,4.82329v-20.5l-10.8048,-11.88487c-0.80687,-0.88791 -1.25372,-2.04439 -1.2543,-3.2437z" id="icon" fill="#ffffff"/></g></svg>