<svg version="1.1" xmlns="http://www.w3.org/2000/svg" xmlns:xlink="http://www.w3.org/1999/xlink" width="70" height="70" viewBox="0,0,70,70" odoo-icon:version="1.0" xmlns:odoo-icon="https://ivantodorovich.github.io/odoo-icon" odoo-icon:size="70" odoo-icon:icon-size="0.6" odoo-icon:icon-color="#FFFFFF" odoo-icon:icon-flat-shadow-angle="135" odoo-icon:background-color="#a4426b" odoo-icon:background-gradient="0.2" odoo-icon:box-radius="3.5" odoo-icon:odoo-version="14.0"><defs><linearGradient x1="70" y1="0" x2="0" y2="70" gradientUnits="userSpaceOnUse" id="color-1"><stop offset="0" stop-color="#d7759e"/><stop offset="1" stop-color="#a4426b"/></linearGradient></defs><g fill="none" fill-rule="nonzero" stroke="none" stroke-width="1" stroke-linecap="butt" stroke-linejoin="miter" stroke-miterlimit="10" stroke-dasharray="" stroke-dashoffset="0" font-family="none" font-weight="none" font-size="none" text-anchor="none" style="mix-blend-mode: normal"><path d="M3.5,70c-1.933,0 -3.5,-1.567 -3.5,-3.5v-63c0,-1.933 1.567,-3.5 3.5,-3.5h63c1.933,0 3.5,1.567 3.5,3.5v63c0,1.933 -1.567,3.5 -3.5,3.5z" id="box" fill="url(#color-1)"/><path d="M65,1h-61c-1.95033,0 -3.2667,0.63396 -3.9491,1.90189c0.28378,-1.64806 1.72001,-2.90189 3.4491,-2.90189h63c1.72965,0 3.16627,1.25466 3.44938,2.90352c-0.69803,-1.26902 -2.34782,-1.90352 -4.94938,-1.90352z" id="topBoxShadow" fill="#ffffff" opacity="0.383"/><path d="M4,69h61c2.66667,0 4.33333,-1 5,-3v0.5c0,1.933 -1.567,3.5 -3.5,3.5h-63c-1.933,0 -3.5,-1.567 -3.5,-3.5c0,-0.1611 0,-0.32777 0,-0.5c0.66667,2 2,3 4,3z" id="bottomBoxShadow" fill="#000000" opacity="0.383"/><path d="M27.00349,23.19951l-4.99949,2.79946l2.79946,-4.99949l-2.79946,-4.99949l4.99949,2.79946l4.99949,-2.79946l-2.79946,4.99949l2.79946,4.99949l-4.99949,-2.79946M51.00027,42.7972l4.99949,-2.79946l-2.79946,4.99949l2.79946,4.99949l-4.99949,-2.79946l-4.99949,2.79946l2.79946,-4.99949l-2.79946,-4.99949l4.99949,2.79946M55.99976,16.00048l-2.79946,4.99949l2.79946,4.99949l-4.99949,-2.79946l-4.99949,2.79946l2.79946,-4.99949l-2.79946,-4.99949l4.99949,2.79946l4.99949,-2.79946M38.68177,37.55775l4.8795,-4.8795l-4.23927,-4.23927l-4.8795,4.8795l4.23927,4.23927M40.74165,26.57922l4.67937,4.67937c0.7799,0.74006 0.7799,2.03973 0,2.81962l-23.33687,23.33687c-0.7799,0.7799 -2.07956,0.7799 -2.81962,0l-4.67937,-4.67937c-0.7799,-0.74006 -0.7799,-2.03973 0,-2.81962l23.33687,-23.33687c0.7799,-0.7799 2.07956,-0.7799 2.81962,0z" id="shadow" fill="#000000" opacity="0.3"/><path d="M22.00401,14l4.99949,2.79946l4.99949,-2.79946l-2.79946,4.99949l2.79946,4.99949l-32.00298,32.00298l0,-19.99795zM55.99976,37.99774l-2.79946,4.99949l2.79946,4.99949l-22.00329,22.00329h-19.99795l32.00226,-32.00226l4.99949,2.79946zM53.2003,18.99997l2.79946,4.99949l-46.00054,46.00054h-6.49922c-1.933,0 -3.5,-1.567 -3.5,-3.5l0,-6.49874l46.00078,-46.00078l4.99949,2.79946l4.99949,-2.79946z" id="flatShadow" fill="#000000" opacity="0.324"/><path d="M27.00349,21.19951l-4.99949,2.79946l2.79946,-4.99949l-2.79946,-4.99949l4.99949,2.79946l4.99949,-2.79946l-2.79946,4.99949l2.79946,4.99949l-4.99949,-2.79946M51.00027,40.7972l4.99949,-2.79946l-2.79946,4.99949l2.79946,4.99949l-4.99949,-2.79946l-4.99949,2.79946l2.79946,-4.99949l-2.79946,-4.99949l4.99949,2.79946M55.99976,14.00048l-2.79946,4.99949l2.79946,4.99949l-4.99949,-2.79946l-4.99949,2.79946l2.79946,-4.99949l-2.79946,-4.99949l4.99949,2.79946l4.99949,-2.79946M38.68177,35.55775l4.8795,-4.8795l-4.23927,-4.23927l-4.8795,4.8795l4.23927,4.23927M40.74165,24.57922l4.67937,4.67937c0.7799,0.74006 0.7799,2.03973 0,2.81962l-23.33687,23.33687c-0.7799,0.7799 -2.07956,0.7799 -2.81962,0l-4.67937,-4.67937c-0.7799,-0.74006 -0.7799,-2.03973 0,-2.81962l23.33687,-23.33687c0.7799,-0.7799 2.07956,-0.7799 2.81962,0z" id="icon" fill="#ffffff"/></g></svg>