<svg version="1.1" xmlns="http://www.w3.org/2000/svg" xmlns:xlink="http://www.w3.org/1999/xlink" width="70" height="70" viewBox="0,0,70,70" odoo-icon:version="1.0" xmlns:odoo-icon="https://ivantodorovich.github.io/odoo-icon" odoo-icon:size="70" odoo-icon:icon-size="0.62" odoo-icon:icon-color="#FFFFFF" odoo-icon:icon-flat-shadow-angle="135" odoo-icon:background-color="#eea544" odoo-icon:background-gradient="0.2" odoo-icon:box-radius="3.5" odoo-icon:odoo-version="14.0"><defs><linearGradient x1="70" y1="0" x2="0" y2="70" gradientUnits="userSpaceOnUse" id="color-1"><stop offset="0" stop-color="#ffd877"/><stop offset="1" stop-color="#eea544"/></linearGradient></defs><g fill="none" fill-rule="nonzero" stroke="none" stroke-width="1" stroke-linecap="butt" stroke-linejoin="miter" stroke-miterlimit="10" stroke-dasharray="" stroke-dashoffset="0" font-family="none" font-weight="none" font-size="none" text-anchor="none" style="mix-blend-mode: normal"><path d="M3.5,70c-1.933,0 -3.5,-1.567 -3.5,-3.5v-63c0,-1.933 1.567,-3.5 3.5,-3.5h63c1.933,0 3.5,1.567 3.5,3.5v63c0,1.933 -1.567,3.5 -3.5,3.5z" id="box" fill="url(#color-1)"/><path d="M65,1h-61c-1.95033,0 -3.2667,0.63396 -3.9491,1.90189c0.28378,-1.64806 1.72001,-2.90189 3.4491,-2.90189h63c1.72965,0 3.16627,1.25466 3.44938,2.90352c-0.69803,-1.26902 -2.34782,-1.90352 -4.94938,-1.90352z" id="topBoxShadow" fill="#ffffff" opacity="0.383"/><path d="M4,69h61c2.66667,0 4.33333,-1 5,-3v0.5c0,1.933 -1.567,3.5 -3.5,3.5h-63c-1.933,0 -3.5,-1.567 -3.5,-3.5c0,-0.1611 0,-0.32777 0,-0.5c0.66667,2 2,3 4,3z" id="bottomBoxShadow" fill="#000000" opacity="0.383"/><path d="M26.75,15c-4.5562,0 -8.25,3.6938 -8.25,8.25v9.9c0.8789,-0.4499 1.80015,-0.8118 2.75,-1.08075v-8.81925c0,-3.03765 2.46235,-5.5 5.5,-5.5h22c3.03765,0 5.5,2.46235 5.5,5.5v22c0,3.03765 -2.46235,5.5 -5.5,5.5h-8.81925c-0.27225,0.95975 -0.6325,1.87825 -1.08075,2.75h9.9c4.5562,0 8.25,-3.6938 8.25,-8.25v-22c0,-4.5562 -3.6938,-8.25 -8.25,-8.25zM25.375,59c6.8343,0 12.375,-5.5407 12.375,-12.375c0,-6.8343 -5.5407,-12.375 -12.375,-12.375c-6.8343,0 -12.375,5.5407 -12.375,12.375c0,6.8343 5.5407,12.375 12.375,12.375zM25.375,39.75c0.75955,0 1.375,0.61545 1.375,1.375v4.125h4.125c0.75955,0 1.375,0.61545 1.375,1.375c0,0.75955 -0.61545,1.375 -1.375,1.375h-4.125v4.125c0,0.75955 -0.61545,1.375 -1.375,1.375c-0.75955,0 -1.375,-0.61545 -1.375,-1.375v-4.125h-4.125c-0.75955,0 -1.375,-0.61545 -1.375,-1.375c0,-0.75955 0.61545,-1.375 1.375,-1.375h4.125v-4.125c0,-0.75955 0.61545,-1.375 1.375,-1.375zM40.5,24.625c0,-0.75955 -0.61545,-1.375 -1.375,-1.375c-0.75955,0 -1.375,0.61545 -1.375,1.375v8.25c0,0.75955 0.61545,1.375 1.375,1.375h5.5c0.75955,0 1.375,-0.61545 1.375,-1.375c0,-0.75955 -0.61545,-1.375 -1.375,-1.375h-4.125z" id="shadow" fill="#000000" opacity="0.3"/><path d="M57,21.25v22c0,2.2781 -0.92345,4.3406 -2.41643,5.83357l-20.91643,20.91643h-30.16715c-1.933,0 -3.5,-1.567 -3.5,-3.5l0,-30.16715l20.91642,-20.91642c1.49298,-1.49298 3.55548,-2.41643 5.83358,-2.41643l22,0c4.5562,0 8.25,3.6938 8.25,8.25z" id="flatShadow" fill="#000000" opacity="0.324"/><path d="M26.75,13c-4.5562,0 -8.25,3.6938 -8.25,8.25v9.9c0.8789,-0.4499 1.80015,-0.8118 2.75,-1.08075v-8.81925c0,-3.03765 2.46235,-5.5 5.5,-5.5h22c3.03765,0 5.5,2.46235 5.5,5.5v22c0,3.03765 -2.46235,5.5 -5.5,5.5h-8.81925c-0.27225,0.95975 -0.6325,1.87825 -1.08075,2.75h9.9c4.5562,0 8.25,-3.6938 8.25,-8.25v-22c0,-4.5562 -3.6938,-8.25 -8.25,-8.25zM25.375,57c6.8343,0 12.375,-5.5407 12.375,-12.375c0,-6.8343 -5.5407,-12.375 -12.375,-12.375c-6.8343,0 -12.375,5.5407 -12.375,12.375c0,6.8343 5.5407,12.375 12.375,12.375zM25.375,37.75c0.75955,0 1.375,0.61545 1.375,1.375v4.125h4.125c0.75955,0 1.375,0.61545 1.375,1.375c0,0.75955 -0.61545,1.375 -1.375,1.375h-4.125v4.125c0,0.75955 -0.61545,1.375 -1.375,1.375c-0.75955,0 -1.375,-0.61545 -1.375,-1.375v-4.125h-4.125c-0.75955,0 -1.375,-0.61545 -1.375,-1.375c0,-0.75955 0.61545,-1.375 1.375,-1.375h4.125v-4.125c0,-0.75955 0.61545,-1.375 1.375,-1.375zM40.5,22.625c0,-0.75955 -0.61545,-1.375 -1.375,-1.375c-0.75955,0 -1.375,0.61545 -1.375,1.375v8.25c0,0.75955 0.61545,1.375 1.375,1.375h5.5c0.75955,0 1.375,-0.61545 1.375,-1.375c0,-0.75955 -0.61545,-1.375 -1.375,-1.375h-4.125z" id="icon" fill="#ffffff"/></g></svg>