<svg version="1.1" xmlns="http://www.w3.org/2000/svg" xmlns:xlink="http://www.w3.org/1999/xlink" width="70" height="70" viewBox="0,0,70,70" odoo-icon:version="1.0" xmlns:odoo-icon="https://ivantodorovich.github.io/odoo-icon" odoo-icon:size="70" odoo-icon:icon-size="0.64" odoo-icon:icon-color="#FFFFFF" odoo-icon:icon-flat-shadow-angle="135" odoo-icon:background-color="#5a9442" odoo-icon:background-gradient="0.2" odoo-icon:box-radius="3.5" odoo-icon:odoo-version="14.0"><defs><linearGradient x1="70" y1="0" x2="0" y2="70" gradientUnits="userSpaceOnUse" id="color-1"><stop offset="0" stop-color="#8dc775"/><stop offset="1" stop-color="#5a9442"/></linearGradient></defs><g fill="none" fill-rule="nonzero" stroke="none" stroke-width="1" stroke-linecap="butt" stroke-linejoin="miter" stroke-miterlimit="10" stroke-dasharray="" stroke-dashoffset="0" font-family="none" font-weight="none" font-size="none" text-anchor="none" style="mix-blend-mode: normal"><path d="M3.5,70c-1.933,0 -3.5,-1.567 -3.5,-3.5v-63c0,-1.933 1.567,-3.5 3.5,-3.5h63c1.933,0 3.5,1.567 3.5,3.5v63c0,1.933 -1.567,3.5 -3.5,3.5z" id="box" fill="url(#color-1)"/><path d="M65,1h-61c-1.95033,0 -3.2667,0.63396 -3.9491,1.90189c0.28378,-1.64806 1.72001,-2.90189 3.4491,-2.90189h63c1.72965,0 3.16627,1.25466 3.44938,2.90352c-0.69803,-1.26902 -2.34782,-1.90352 -4.94938,-1.90352z" id="topBoxShadow" fill="#ffffff" opacity="0.383"/><path d="M4,69h61c2.66667,0 4.33333,-1 5,-3v0.5c0,1.933 -1.567,3.5 -3.5,3.5h-63c-1.933,0 -3.5,-1.567 -3.5,-3.5c0,-0.1611 0,-0.32777 0,-0.5c0.66667,2 2,3 4,3z" id="bottomBoxShadow" fill="#000000" opacity="0.383"/><path d="M26.5625,14.5c-4.65975,0 -8.4375,3.77775 -8.4375,8.4375v10.125c0.89887,-0.46012 1.84106,-0.83025 2.8125,-1.10531v-9.01969c0,-3.10669 2.51831,-5.625 5.625,-5.625h22.5c3.10669,0 5.625,2.51831 5.625,5.625v22.5c0,3.10669 -2.51831,5.625 -5.625,5.625h-9.01969c-0.27844,0.98156 -0.64688,1.92094 -1.10531,2.8125h10.125c4.65975,0 8.4375,-3.77775 8.4375,-8.4375v-22.5c0,-4.65975 -3.77775,-8.4375 -8.4375,-8.4375zM25.15625,59.5c6.98962,0 12.65625,-5.66662 12.65625,-12.65625c0,-6.98963 -5.66662,-12.65625 -12.65625,-12.65625c-6.98962,0 -12.65625,5.66663 -12.65625,12.65625c0,6.98963 5.66663,12.65625 12.65625,12.65625zM25.15625,39.8125c0.77681,0 1.40625,0.62944 1.40625,1.40625v4.21875h4.21875c0.77681,0 1.40625,0.62944 1.40625,1.40625c0,0.77681 -0.62944,1.40625 -1.40625,1.40625h-4.21875v4.21875c0,0.77681 -0.62944,1.40625 -1.40625,1.40625c-0.77681,0 -1.40625,-0.62944 -1.40625,-1.40625v-4.21875h-4.21875c-0.77681,0 -1.40625,-0.62944 -1.40625,-1.40625c0,-0.77681 0.62944,-1.40625 1.40625,-1.40625h4.21875v-4.21875c0,-0.77681 0.62944,-1.40625 1.40625,-1.40625zM40.625,24.34375c0,-0.77681 -0.62944,-1.40625 -1.40625,-1.40625c-0.77681,0 -1.40625,0.62944 -1.40625,1.40625v8.4375c0,0.77681 0.62944,1.40625 1.40625,1.40625h5.625c0.77681,0 1.40625,-0.62944 1.40625,-1.40625c0,-0.77681 -0.62944,-1.40625 -1.40625,-1.40625h-4.21875z" id="shadow" fill="#000000" opacity="0.3"/><path d="M26.5625,12.5l22.5,0c4.65975,0 8.4375,3.77775 8.4375,8.4375v22.5l-26.5625,26.5625h-27.4375c-1.933,0 -3.5,-1.567 -3.5,-3.5l0,-27.4375z" id="flatShadow" fill="#000000" opacity="0.324"/><path d="M26.5625,12.5c-4.65975,0 -8.4375,3.77775 -8.4375,8.4375v10.125c0.89887,-0.46013 1.84106,-0.83025 2.8125,-1.10531v-9.01969c0,-3.10669 2.51831,-5.625 5.625,-5.625h22.5c3.10669,0 5.625,2.51831 5.625,5.625v22.5c0,3.10669 -2.51831,5.625 -5.625,5.625h-9.01969c-0.27844,0.98156 -0.64688,1.92094 -1.10531,2.8125h10.125c4.65975,0 8.4375,-3.77775 8.4375,-8.4375v-22.5c0,-4.65975 -3.77775,-8.4375 -8.4375,-8.4375zM25.15625,57.5c6.98962,0 12.65625,-5.66662 12.65625,-12.65625c0,-6.98963 -5.66662,-12.65625 -12.65625,-12.65625c-6.98962,0 -12.65625,5.66663 -12.65625,12.65625c0,6.98963 5.66663,12.65625 12.65625,12.65625zM25.15625,37.8125c0.77681,0 1.40625,0.62944 1.40625,1.40625v4.21875h4.21875c0.77681,0 1.40625,0.62944 1.40625,1.40625c0,0.77681 -0.62944,1.40625 -1.40625,1.40625h-4.21875v4.21875c0,0.77681 -0.62944,1.40625 -1.40625,1.40625c-0.77681,0 -1.40625,-0.62944 -1.40625,-1.40625v-4.21875h-4.21875c-0.77681,0 -1.40625,-0.62944 -1.40625,-1.40625c0,-0.77681 0.62944,-1.40625 1.40625,-1.40625h4.21875v-4.21875c0,-0.77681 0.62944,-1.40625 1.40625,-1.40625zM40.625,22.34375c0,-0.77681 -0.62944,-1.40625 -1.40625,-1.40625c-0.77681,0 -1.40625,0.62944 -1.40625,1.40625v8.4375c0,0.77681 0.62944,1.40625 1.40625,1.40625h5.625c0.77681,0 1.40625,-0.62944 1.40625,-1.40625c0,-0.77681 -0.62944,-1.40625 -1.40625,-1.40625h-4.21875z" id="icon" fill="#ffffff"/></g></svg>