<svg version="1.1" xmlns="http://www.w3.org/2000/svg" xmlns:xlink="http://www.w3.org/1999/xlink" width="70" height="70" viewBox="0,0,70,70" odoo-icon:version="1.0" xmlns:odoo-icon="https://ivantodorovich.github.io/odoo-icon" odoo-icon:size="70" odoo-icon:icon-size="0.64" odoo-icon:icon-color="#FFFFFF" odoo-icon:icon-flat-shadow-angle="135" odoo-icon:background-color="#5a9442" odoo-icon:background-gradient="0.2" odoo-icon:box-radius="3.5" odoo-icon:odoo-version="14.0"><defs><linearGradient x1="70" y1="0" x2="0" y2="70" gradientUnits="userSpaceOnUse" id="color-1"><stop offset="0" stop-color="#8dc775"/><stop offset="1" stop-color="#5a9442"/></linearGradient></defs><g fill="none" fill-rule="nonzero" stroke="none" stroke-width="1" stroke-linecap="butt" stroke-linejoin="miter" stroke-miterlimit="10" stroke-dasharray="" stroke-dashoffset="0" font-family="none" font-weight="none" font-size="none" text-anchor="none" style="mix-blend-mode: normal"><path d="M3.5,70c-1.933,0 -3.5,-1.567 -3.5,-3.5v-63c0,-1.933 1.567,-3.5 3.5,-3.5h63c1.933,0 3.5,1.567 3.5,3.5v63c0,1.933 -1.567,3.5 -3.5,3.5z" id="box" fill="url(#color-1)"/><path d="M65,1h-61c-1.95033,0 -3.2667,0.63396 -3.9491,1.90189c0.28378,-1.64806 1.72001,-2.90189 3.4491,-2.90189h63c1.72965,0 3.16627,1.25466 3.44938,2.90352c-0.69803,-1.26902 -2.34782,-1.90352 -4.94938,-1.90352z" id="topBoxShadow" fill="#ffffff" opacity="0.383"/><path d="M4,69h61c2.66667,0 4.33333,-1 5,-3v0.5c0,1.933 -1.567,3.5 -3.5,3.5h-63c-1.933,0 -3.5,-1.567 -3.5,-3.5c0,-0.1611 0,-0.32777 0,-0.5c0.66667,2 2,3 4,3z" id="bottomBoxShadow" fill="#000000" opacity="0.383"/><path d="M34.30304,14.5v1.39367c-0.89081,0.11008 -1.59682,0.39609 -2.11557,0.86227c-0.67918,0.61038 -1.01935,1.37692 -1.01935,2.29938c0,1.01079 0.34703,1.75394 1.04107,2.2292c0.38857,0.26941 1.08938,0.51859 2.09384,0.7503v2.8124c-0.36628,-0.10099 -0.65331,-0.26775 -0.85558,-0.508c-0.19512,-0.23337 -0.32611,-0.48233 -0.3927,-1.03271h-2.05373c0,1.10078 0.38785,1.89067 1.16473,2.50325c0.56084,0.44196 1.27483,0.71077 2.13729,0.82718v1.07282h1.92673v-1.05444c0.91722,-0.10981 1.65832,-0.4032 2.21917,-0.88232c0.72734,-0.62194 1.08953,-1.40361 1.08953,-2.34449c0,-0.91778 -0.3054,-1.61757 -0.91908,-2.10219c-0.39573,-0.31207 -0.99101,-0.56232 -1.78302,-0.74864l-0.60659,-0.14371v-2.59516l0.08188,0.03342c0.51572,0.26116 0.79254,0.75638 0.83051,1.30677h2.06877c-0.0377,-1.10078 -0.4441,-1.91473 -1.21987,-2.48988c-0.51544,-0.38224 -1.10331,-0.62813 -1.7613,-0.75198v-1.43711zM34.30304,17.70008v2.26428c-0.29859,-0.08696 -0.514,-0.16686 -0.64169,-0.23896c-0.33436,-0.18162 -0.50132,-0.45729 -0.50132,-0.8255c0,-0.40069 0.16896,-0.71568 0.508,-0.93914c0.17888,-0.11806 0.39228,-0.204 0.63501,-0.26069zM36.22978,22.48098c0.33161,0.09825 0.5933,0.20581 0.78373,0.32084c0.30051,0.1863 0.45118,0.45055 0.45118,0.79041c-0.00022,0.58231 -0.30762,0.98378 -0.92075,1.19815c-0.10294,0.03418 -0.20785,0.06208 -0.31416,0.08356zM34.99987,29.97736c-0.12075,0 -0.24198,0.02004 -0.35761,0.06016l-14.20068,4.91626l-0.02507,0.00836c-0.19089,0.07079 -0.35812,0.19327 -0.48293,0.35426l-4.35813,5.44933c-0.22392,0.27899 -0.2984,0.64965 -0.19719,0.99261c0.10069,0.34244 0.36475,0.61364 0.70352,0.72691l14.74878,4.91794c0.45886,0.1526 0.96304,-0.01515 1.23993,-0.41108l2.92937,-4.18433l2.9277,4.18434c0.27741,0.39645 0.78274,0.56421 1.2416,0.41108l14.74878,-4.91794c0.3393,-0.11275 0.6023,-0.38395 0.70352,-0.72691c0.10121,-0.34296 0.02788,-0.71362 -0.19552,-0.99261l-4.3598,-5.44933c-0.13058,-0.16886 -0.30777,-0.2956 -0.50967,-0.36429l-14.199,-4.91459c-0.11563,-0.04012 -0.23686,-0.06016 -0.35761,-0.06016zM34.99987,32.22494l10.86189,3.75989l-10.86189,3.76155l-10.86357,-3.76155zM20.79753,46.36045v8.19822l13.10948,4.94133v-11.34484c-1.00687,1.21559 -2.65707,1.6885 -4.15426,1.1898zM49.20222,46.36045l-8.95689,2.98451c-1.49719,0.49871 -3.14739,0.02746 -4.15426,-1.18812v11.34316l13.11115,-4.94133z" id="shadow" fill="#000000" opacity="0.3"/><path d="M36.22979,13.93711c0.65799,0.12385 1.24586,0.36974 1.7613,0.75198c0.77577,0.57516 1.18218,1.38911 1.21987,2.48988l-1.61711,1.61711c0.42587,0.15016 0.76798,0.32709 1.02555,0.53021c0.61368,0.48462 0.91908,1.18442 0.91908,2.10219c0,0.84638 -0.29309,1.56393 -0.88142,2.15226l-4.6908,4.6908l0.676,-0.23403c0.11563,-0.04012 0.23686,-0.06016 0.35761,-0.06016l0.00001,0.00001c0.12075,0 0.24198,0.02004 0.35761,0.06016l14.199,4.91459c0.2019,0.06869 0.37909,0.19543 0.50967,0.36429l4.3598,5.44933c0.2234,0.27899 0.29672,0.64965 0.19552,0.99261c-0.05231,0.17726 -0.14785,0.33536 -0.2748,0.46231l-5.14445,5.14445v7.19356l-17.44133,17.44133h-28.2609c-1.933,0 -3.5,-1.567 -3.5,-3.5l0,-19.69696l34.30304,-34.30304l1.92675,0z" id="flatShadow" fill="#000000" opacity="0.324"/><path d="M34.30304,12.5v1.39367c-0.89081,0.11008 -1.59682,0.39609 -2.11557,0.86227c-0.67918,0.61038 -1.01935,1.37692 -1.01935,2.29938c0,1.01079 0.34703,1.75394 1.04107,2.2292c0.38857,0.26941 1.08938,0.51859 2.09384,0.7503v2.8124c-0.36628,-0.10099 -0.65331,-0.26775 -0.85558,-0.508c-0.19512,-0.23337 -0.32611,-0.48233 -0.3927,-1.03271h-2.05373c0,1.10078 0.38785,1.89067 1.16473,2.50325c0.56084,0.44196 1.27483,0.71077 2.13729,0.82718v1.07282h1.92673v-1.05444c0.91722,-0.10981 1.65832,-0.4032 2.21917,-0.88232c0.72734,-0.62194 1.08953,-1.40361 1.08953,-2.34449c0,-0.91778 -0.3054,-1.61757 -0.91908,-2.10219c-0.39573,-0.31207 -0.99101,-0.56232 -1.78302,-0.74864l-0.60659,-0.14371v-2.59516l0.08188,0.03342c0.51572,0.26116 0.79254,0.75638 0.83051,1.30677h2.06877c-0.0377,-1.10078 -0.4441,-1.91473 -1.21987,-2.48988c-0.51544,-0.38224 -1.10331,-0.62813 -1.7613,-0.75198v-1.43711zM34.30304,15.70008v2.26428c-0.29859,-0.08696 -0.514,-0.16686 -0.64169,-0.23896c-0.33436,-0.18162 -0.50132,-0.45729 -0.50132,-0.8255c0,-0.40069 0.16896,-0.71568 0.508,-0.93914c0.17888,-0.11806 0.39228,-0.204 0.63501,-0.26069zM36.22978,20.48098c0.33161,0.09825 0.5933,0.20581 0.78373,0.32084c0.30051,0.1863 0.45118,0.45055 0.45118,0.79041c-0.00022,0.58231 -0.30762,0.98378 -0.92075,1.19815c-0.10294,0.03418 -0.20785,0.06208 -0.31416,0.08356zM34.99987,27.97736c-0.12075,0 -0.24198,0.02004 -0.35761,0.06016l-14.20068,4.91626l-0.02507,0.00836c-0.19089,0.07079 -0.35812,0.19327 -0.48293,0.35426l-4.35813,5.44933c-0.22392,0.27899 -0.2984,0.64965 -0.19719,0.99261c0.10069,0.34244 0.36475,0.61364 0.70352,0.72691l14.74878,4.91794c0.45886,0.1526 0.96304,-0.01515 1.23993,-0.41108l2.92937,-4.18433l2.9277,4.18434c0.27741,0.39645 0.78274,0.56421 1.2416,0.41108l14.74878,-4.91794c0.3393,-0.11275 0.6023,-0.38395 0.70352,-0.72691c0.10121,-0.34296 0.02788,-0.71362 -0.19552,-0.99261l-4.3598,-5.44933c-0.13058,-0.16886 -0.30777,-0.2956 -0.50967,-0.36429l-14.199,-4.91459c-0.11563,-0.04012 -0.23686,-0.06016 -0.35761,-0.06016zM34.99987,30.22494l10.86189,3.75989l-10.86189,3.76155l-10.86357,-3.76155zM20.79753,44.36045v8.19822l13.10948,4.94133v-11.34484c-1.00687,1.21559 -2.65707,1.6885 -4.15426,1.1898zM49.20222,44.36045l-8.95689,2.98451c-1.49719,0.49871 -3.14739,0.02746 -4.15426,-1.18812v11.34316l13.11115,-4.94133z" id="icon" fill="#ffffff"/></g></svg>