<svg version="1.1" xmlns="http://www.w3.org/2000/svg" xmlns:xlink="http://www.w3.org/1999/xlink" width="70" height="70" viewBox="0,0,70,70" odoo-icon:version="1.0" xmlns:odoo-icon="https://ivantodorovich.github.io/odoo-icon" odoo-icon:size="70" odoo-icon:icon-size="0.6" odoo-icon:icon-color="#FFFFFF" odoo-icon:icon-flat-shadow-angle="135" odoo-icon:background-color="#a4426b" odoo-icon:background-gradient="0.2" odoo-icon:box-radius="3.5" odoo-icon:odoo-version="14.0"><defs><linearGradient x1="70" y1="0" x2="0" y2="70" gradientUnits="userSpaceOnUse" id="color-1"><stop offset="0" stop-color="#d7759e"/><stop offset="1" stop-color="#a4426b"/></linearGradient></defs><g fill="none" fill-rule="nonzero" stroke="none" stroke-width="1" stroke-linecap="butt" stroke-linejoin="miter" stroke-miterlimit="10" stroke-dasharray="" stroke-dashoffset="0" font-family="none" font-weight="none" font-size="none" text-anchor="none" style="mix-blend-mode: normal"><path d="M3.5,70c-1.933,0 -3.5,-1.567 -3.5,-3.5v-63c0,-1.933 1.567,-3.5 3.5,-3.5h63c1.933,0 3.5,1.567 3.5,3.5v63c0,1.933 -1.567,3.5 -3.5,3.5z" id="box" fill="url(#color-1)"/><path d="M65,1h-61c-1.95033,0 -3.2667,0.63396 -3.9491,1.90189c0.28378,-1.64806 1.72001,-2.90189 3.4491,-2.90189h63c1.72965,0 3.16627,1.25466 3.44938,2.90352c-0.69803,-1.26902 -2.34782,-1.90352 -4.94938,-1.90352z" id="topBoxShadow" fill="#ffffff" opacity="0.383"/><path d="M4,69h61c2.66667,0 4.33333,-1 5,-3v0.5c0,1.933 -1.567,3.5 -3.5,3.5h-63c-1.933,0 -3.5,-1.567 -3.5,-3.5c0,-0.1611 0,-0.32777 0,-0.5c0.66667,2 2,3 4,3z" id="bottomBoxShadow" fill="#000000" opacity="0.383"/><path d="M17.35406,25.4167c-1.85232,0 -3.35406,1.50175 -3.35406,3.35406c0,1.85232 1.50175,3.35406 3.35406,3.35353c1.85232,0 3.35406,-1.50175 3.35406,-3.35406c0,-1.85232 -1.50175,-3.35353 -3.35406,-3.35353zM17.35406,22.05619c-0.36939,0 -0.73609,0.03334 -1.09203,0.0871c1.26947,-3.20405 4.36706,-5.30746 7.81307,-5.30639h23.52361c4.63966,0 8.40129,3.76163 8.40129,8.40129v23.52361c0,4.63966 -3.76163,8.40129 -8.40129,8.40129h-23.52361c-4.63966,0 -8.40129,-3.76163 -8.40129,-8.40129v-13.48562c2.01201,0.51456 4.14822,0.07097 5.78923,-1.20118c1.64101,-1.27269 2.60238,-3.23147 2.60507,-5.308c-0.00161,-3.70678 -3.00726,-6.71082 -6.71458,-6.71082zM27.43561,31.95976c0,0.92804 0.75222,1.68026 1.68026,1.68026h13.44206c0.92804,0 1.68026,-0.75222 1.68026,-1.68026c0,-0.92804 -0.75222,-1.68026 -1.68026,-1.68026h-13.44206c-0.92804,0 -1.68026,0.75222 -1.68026,1.68026zM27.43561,42.04131c0,0.92804 0.75222,1.68026 1.68026,1.68026h8.78466c0.92804,0 1.68026,-0.75222 1.68026,-1.68026c0,-0.92804 -0.75222,-1.68026 -1.68026,-1.68026h-8.78466c-0.92804,0 -1.68026,0.75222 -1.68026,1.68026z" id="shadow" fill="#000000" opacity="0.3"/><path d="M18.13023,17.29881c1.54562,-1.54562 3.66928,-2.46262 5.94487,-2.46191h23.52361c4.63966,0 8.40129,3.76163 8.40129,8.40129v23.52361c0,2.31983 -0.94041,4.42015 -2.46077,5.94052l-17.29767,17.29767h-32.74155c-1.933,0 -3.5,-1.567 -3.5,-3.5l0,-31.07096z" id="flatShadow" fill="#000000" opacity="0.324"/><path d="M17.35406,23.4167c-1.85232,0 -3.35406,1.50175 -3.35406,3.35406c0,1.85232 1.50175,3.35406 3.35406,3.35353c1.85232,0 3.35406,-1.50175 3.35406,-3.35406c0,-1.85232 -1.50175,-3.35353 -3.35406,-3.35353zM17.35406,20.05619c-0.36939,0 -0.73609,0.03334 -1.09203,0.0871c1.26947,-3.20405 4.36706,-5.30746 7.81307,-5.30639h23.52361c4.63966,0 8.40129,3.76163 8.40129,8.40129v23.52361c0,4.63966 -3.76163,8.40129 -8.40129,8.40129h-23.52361c-4.63966,0 -8.40129,-3.76163 -8.40129,-8.40129v-13.48562c2.01201,0.51456 4.14822,0.07097 5.78923,-1.20118c1.64101,-1.27269 2.60238,-3.23147 2.60507,-5.308c-0.00161,-3.70678 -3.00726,-6.71082 -6.71458,-6.71082zM27.43561,29.95976c0,0.92804 0.75222,1.68026 1.68026,1.68026h13.44206c0.92804,0 1.68026,-0.75222 1.68026,-1.68026c0,-0.92804 -0.75222,-1.68026 -1.68026,-1.68026h-13.44206c-0.92804,0 -1.68026,0.75222 -1.68026,1.68026zM27.43561,40.04131c0,0.92804 0.75222,1.68026 1.68026,1.68026h8.78466c0.92804,0 1.68026,-0.75222 1.68026,-1.68026c0,-0.92804 -0.75222,-1.68026 -1.68026,-1.68026h-8.78466c-0.92804,0 -1.68026,0.75222 -1.68026,1.68026z" id="icon" fill="#ffffff"/></g></svg>