<svg version="1.1" xmlns="http://www.w3.org/2000/svg" xmlns:xlink="http://www.w3.org/1999/xlink" width="70" height="70" viewBox="0,0,70,70" odoo-icon:version="1.0" xmlns:odoo-icon="https://ivantodorovich.github.io/odoo-icon" odoo-icon:size="70" odoo-icon:icon-size="0.55" odoo-icon:icon-color="#FFFFFF" odoo-icon:icon-flat-shadow-angle="135" odoo-icon:background-color="#fdd835" odoo-icon:background-gradient="0.2" odoo-icon:box-radius="3.5" odoo-icon:odoo-version="14.0"><defs><linearGradient x1="70" y1="0" x2="0" y2="70" gradientUnits="userSpaceOnUse" id="color-1"><stop offset="0" stop-color="#ffff68"/><stop offset="1" stop-color="#fdd835"/></linearGradient></defs><g fill="none" fill-rule="nonzero" stroke="none" stroke-width="1" stroke-linecap="butt" stroke-linejoin="miter" stroke-miterlimit="10" stroke-dasharray="" stroke-dashoffset="0" font-family="none" font-weight="none" font-size="none" text-anchor="none" style="mix-blend-mode: normal"><path d="M3.5,70c-1.933,0 -3.5,-1.567 -3.5,-3.5v-63c0,-1.933 1.567,-3.5 3.5,-3.5h63c1.933,0 3.5,1.567 3.5,3.5v63c0,1.933 -1.567,3.5 -3.5,3.5z" id="box" fill="url(#color-1)"/><path d="M65,1h-61c-1.95033,0 -3.2667,0.63396 -3.9491,1.90189c0.28378,-1.64806 1.72001,-2.90189 3.4491,-2.90189h63c1.72965,0 3.16627,1.25466 3.44938,2.90352c-0.69803,-1.26902 -2.34782,-1.90352 -4.94938,-1.90352z" id="topBoxShadow" fill="#ffffff" opacity="0.383"/><path d="M4,69h61c2.66667,0 4.33333,-1 5,-3v0.5c0,1.933 -1.567,3.5 -3.5,3.5h-63c-1.933,0 -3.5,-1.567 -3.5,-3.5c0,-0.1611 0,-0.32777 0,-0.5c0.66667,2 2,3 4,3z" id="bottomBoxShadow" fill="#000000" opacity="0.383"/><path d="M52.54984,42.84979v-2.92501c0,-2.69241 -2.18276,-4.87518 -4.87518,-4.87518c-2.69241,0 -4.87518,2.18276 -4.87518,4.87518v2.92501c-1.04645,0.07067 -1.87903,0.90371 -1.95016,1.95016v7.80019c0.07067,1.04645 0.90371,1.87903 1.95016,1.95016h9.74988c1.04645,-0.07067 1.87903,-0.90371 1.95016,-1.95016v-7.80019c-0.07067,-1.04645 -0.90371,-1.87903 -1.95016,-1.95016zM50.59967,42.84979h-5.85002v-2.92501c0,-1.61554 1.30947,-2.92501 2.92501,-2.92501c1.61554,0 2.92501,1.30947 2.92501,2.92501zM54.5,23.34956h-39v-3.89986h39zM54.5,31.14974h-39v-3.89986h39zM36.94993,38.94993h-21.44993v-3.89986h21.44993zM36.94993,46.74965h-21.44993v-3.89986h21.44993zM36.94993,54.54984h-21.44993v-3.89986h21.44993z" id="shadow" fill="#000000" opacity="0.3"/><path d="M52.54984,37.92478v2.92501l-0.00003,0.00003c1.04625,0.07134 1.87907,0.90383 1.94973,1.95013v7.80019c-0.03557,0.52329 -0.26155,0.99321 -0.60946,1.34113l-18.05873,18.05873h-32.33133c-1.933,0 -3.5,-1.567 -3.5,-3.5l0,-33.5503l15.5,-15.5h39v3.89986l-3.90033,3.90033h3.90033v3.89986l-4.49297,4.49297c1.515,0.82697 2.5428,2.43453 2.5428,4.28207z" id="flatShadow" fill="#000000" opacity="0.324"/><path d="M52.54984,40.84979v-2.92501c0,-2.69241 -2.18276,-4.87518 -4.87518,-4.87518c-2.69241,0 -4.87518,2.18276 -4.87518,4.87518v2.92501c-1.04645,0.07067 -1.87903,0.90371 -1.95016,1.95016v7.80019c0.07067,1.04645 0.90371,1.87903 1.95016,1.95016h9.74988c1.04645,-0.07067 1.87903,-0.90371 1.95016,-1.95016v-7.80019c-0.07067,-1.04645 -0.90371,-1.87903 -1.95016,-1.95016zM50.59967,40.84979h-5.85002v-2.92501c0,-1.61554 1.30947,-2.92501 2.92501,-2.92501c1.61554,0 2.92501,1.30947 2.92501,2.92501zM54.5,21.34956h-39v-3.89986h39zM54.5,29.14974h-39v-3.89986h39zM36.94993,36.94993h-21.44993v-3.89986h21.44993zM36.94993,44.74965h-21.44993v-3.89986h21.44993zM36.94993,52.54984h-21.44993v-3.89986h21.44993z" id="icon" fill="#ffffff"/></g></svg>