<svg version="1.1" xmlns="http://www.w3.org/2000/svg" xmlns:xlink="http://www.w3.org/1999/xlink" width="70" height="70" viewBox="0,0,70,70"><!-- Generated with https://ivantodorovich.github.io/odoo-icon --><defs><linearGradient x1="70" y1="0" x2="0" y2="70" gradientUnits="userSpaceOnUse" id="color-1"><stop offset="0" stop-color="#33bcae"/><stop offset="1" stop-color="#00897b"/></linearGradient></defs><g fill="none" fill-rule="nonzero" stroke="none" stroke-width="1" stroke-linecap="butt" stroke-linejoin="miter" stroke-miterlimit="10" stroke-dasharray="" stroke-dashoffset="0" font-family="none" font-weight="none" font-size="none" text-anchor="none" style="mix-blend-mode: normal"><path d="M3.5,70c-1.933,0 -3.5,-1.567 -3.5,-3.5v-63c0,-1.933 1.567,-3.5 3.5,-3.5h63c1.933,0 3.5,1.567 3.5,3.5v63c0,1.933 -1.567,3.5 -3.5,3.5z" id="box" fill="url(#color-1)"/><path d="M65,1h-61c-1.95033,0 -3.2667,0.63396 -3.9491,1.90189c0.28378,-1.64806 1.72001,-2.90189 3.4491,-2.90189h63c1.72965,0 3.16627,1.25466 3.44938,2.90352c-0.69803,-1.26902 -2.34782,-1.90352 -4.94938,-1.90352z" id="topBoxShadow" fill="#ffffff" opacity="0.383"/><path d="M4,69h61c2.66667,0 4.33333,-1 5,-3v0.5c0,1.933 -1.567,3.5 -3.5,3.5h-63c-1.933,0 -3.5,-1.567 -3.5,-3.5c0,-0.1611 0,-0.32777 0,-0.5c0.66667,2 2,3 4,3z" id="bottomBoxShadow" fill="#000000" opacity="0.383"/><path d="M14,26.50013v4.19985h10.49987v-4.19985h-10.49987M35.00025,30.69997v4.19985h-6.30003v4.19985h6.30003v4.19985l6.30003,-6.30003l-6.30003,-6.30003M45.50013,30.69997v12.60005h10.49987v-12.60005h-10.49987M14,34.89982v4.19985h10.49987v-4.19985h-10.49987M14,43.30003v4.19985h10.49987v-4.19985z" id="shadow" fill="#000000" opacity="0.3"/><path d="M24.49987,28.69997l-4.19985,4.19985h4.19985v4.19985l-4.20035,4.20035l0.0005,0l8.4002,-8.4002l2.09967,0l4.20035,-4.20035l5.25019,5.25019l5.24968,-5.24968h10.49987v12.60005l-28.69997,28.69997h-23.80003c-1.933,0 -3.5,-1.567 -3.5,-3.5l0,-27.99987l14,-14h10.49987z" id="flatShadow" fill="#000000" opacity="0.324"/><path d="M14,24.50013v4.19985h10.49987v-4.19985h-10.49987M35.00025,28.69997v4.19985h-6.30003v4.19985h6.30003v4.19985l6.30003,-6.30003l-6.30003,-6.30003M45.50013,28.69997v12.60005h10.49987v-12.60005h-10.49987M14,32.89982v4.19985h10.49987v-4.19985h-10.49987M14,41.30003v4.19985h10.49987v-4.19985z" id="icon" fill="#ffffff"/></g></svg>