<svg version="1.1" xmlns="http://www.w3.org/2000/svg" xmlns:xlink="http://www.w3.org/1999/xlink" width="70" height="70" viewBox="0,0,70,70" odoo-icon:version="1.0" xmlns:odoo-icon="https://ivantodorovich.github.io/odoo-icon" odoo-icon:size="70" odoo-icon:icon-size="0.65" odoo-icon:icon-color="#FFFFFF" odoo-icon:icon-flat-shadow-angle="135" odoo-icon:background-color="#e53935" odoo-icon:background-gradient="0.2" odoo-icon:box-radius="3.5" odoo-icon:odoo-version="14.0"><defs><linearGradient x1="70" y1="0" x2="0" y2="70" gradientUnits="userSpaceOnUse" id="color-1"><stop offset="0" stop-color="#ff6c68"/><stop offset="1" stop-color="#e53935"/></linearGradient></defs><g fill="none" fill-rule="nonzero" stroke="none" stroke-width="1" stroke-linecap="butt" stroke-linejoin="miter" stroke-miterlimit="10" stroke-dasharray="" stroke-dashoffset="0" font-family="none" font-weight="none" font-size="none" text-anchor="none" style="mix-blend-mode: normal"><path d="M3.5,70c-1.933,0 -3.5,-1.567 -3.5,-3.5v-63c0,-1.933 1.567,-3.5 3.5,-3.5h63c1.933,0 3.5,1.567 3.5,3.5v63c0,1.933 -1.567,3.5 -3.5,3.5z" id="box" fill="url(#color-1)"/><path d="M65,1h-61c-1.95033,0 -3.2667,0.63396 -3.9491,1.90189c0.28378,-1.64806 1.72001,-2.90189 3.4491,-2.90189h63c1.72965,0 3.16627,1.25466 3.44938,2.90352c-0.69803,-1.26902 -2.34782,-1.90352 -4.94938,-1.90352z" id="topBoxShadow" fill="#ffffff" opacity="0.383"/><path d="M4,69h61c2.66667,0 4.33333,-1 5,-3v0.5c0,1.933 -1.567,3.5 -3.5,3.5h-63c-1.933,0 -3.5,-1.567 -3.5,-3.5c0,-0.1611 0,-0.32777 0,-0.5c0.66667,2 2,3 4,3z" id="bottomBoxShadow" fill="#000000" opacity="0.383"/><path d="M49.05545,14h-31.94424c-2.81091,0 -5.11091,2.3 -5.11091,5.11091v14.59243c0,9.78757 7.53909,18.34909 17.32667,18.63c10.12,0.30667 18.45091,-7.82 18.45091,-17.88909v-2.55576h1.27757c4.93243,0 8.94424,-4.01243 8.94424,-8.94424c0,-4.93243 -4.01243,-8.94424 -8.94424,-8.94424zM42.66697,19.11091v7.66667h-25.55576v-7.66667zM49.05545,26.77757h-1.27757v-7.66667h1.27757c2.12091,0 3.83333,1.71243 3.83333,3.83333c0,2.12091 -1.71243,3.83333 -3.83333,3.83333zM12.00031,54.88909h40.88909v5.11091h-40.88909z" id="shadow" fill="#000000" opacity="0.3"/><path d="M12.00031,17.11091c3.00343,-3.00343 4.93326,-4.93326 5.11091,-5.11091h31.94424c4.93181,0 8.94424,4.01181 8.94424,8.94424c0,2.46598 -1.00302,4.70211 -2.62261,6.3217l-7.78851,7.78851c-0.57024,3.89588 -2.39748,7.38426 -5.05479,10.04158l0,0l-7.79307,7.79307h18.14869v5.11091l-12,12h-37.3894c-1.933,0 -3.5,-1.567 -3.5,-3.5l0,-37.38879c4.79722,-4.79722 9.05385,-9.05385 12.00031,-12.00031z" id="flatShadow" fill="#000000" opacity="0.324"/><path d="M49.05545,12h-31.94424c-2.81091,0 -5.11091,2.3 -5.11091,5.11091v14.59243c0,9.78757 7.53909,18.34909 17.32667,18.63c10.12,0.30667 18.45091,-7.82 18.45091,-17.88909v-2.55576h1.27757c4.93243,0 8.94424,-4.01243 8.94424,-8.94424c0,-4.93243 -4.01243,-8.94424 -8.94424,-8.94424zM42.66697,17.11091v7.66667h-25.55576v-7.66667zM49.05545,24.77757h-1.27757v-7.66667h1.27757c2.12091,0 3.83333,1.71243 3.83333,3.83333c0,2.12091 -1.71243,3.83333 -3.83333,3.83333zM12.00031,52.88909h40.88909v5.11091h-40.88909z" id="icon" fill="#ffffff"/></g></svg>