<svg version="1.1" xmlns="http://www.w3.org/2000/svg" xmlns:xlink="http://www.w3.org/1999/xlink" width="70" height="70" viewBox="0,0,70,70" odoo-icon:version="1.0" xmlns:odoo-icon="https://ivantodorovich.github.io/odoo-icon" odoo-icon:size="70" odoo-icon:icon-size="0.58" odoo-icon:icon-color="#FFFFFF" odoo-icon:icon-flat-shadow-angle="135" odoo-icon:background-color="#ffbc30" odoo-icon:background-gradient="0.2" odoo-icon:box-radius="3.5" odoo-icon:odoo-version="14.0"><defs><linearGradient x1="70" y1="0" x2="0" y2="70" gradientUnits="userSpaceOnUse" id="color-1"><stop offset="0" stop-color="#ffef63"/><stop offset="1" stop-color="#ffbc30"/></linearGradient></defs><g fill="none" fill-rule="nonzero" stroke="none" stroke-width="1" stroke-linecap="butt" stroke-linejoin="miter" stroke-miterlimit="10" stroke-dasharray="" stroke-dashoffset="0" font-family="none" font-weight="none" font-size="none" text-anchor="none" style="mix-blend-mode: normal"><path d="M3.5,70c-1.933,0 -3.5,-1.567 -3.5,-3.5v-63c0,-1.933 1.567,-3.5 3.5,-3.5h63c1.933,0 3.5,1.567 3.5,3.5v63c0,1.933 -1.567,3.5 -3.5,3.5z" id="box" fill="url(#color-1)"/><path d="M65,1h-61c-1.95033,0 -3.2667,0.63396 -3.9491,1.90189c0.28378,-1.64806 1.72001,-2.90189 3.4491,-2.90189h63c1.72965,0 3.16627,1.25466 3.44938,2.90352c-0.69803,-1.26902 -2.34782,-1.90352 -4.94938,-1.90352z" id="topBoxShadow" fill="#ffffff" opacity="0.383"/><path d="M4,69h61c2.66667,0 4.33333,-1 5,-3v0.5c0,1.933 -1.567,3.5 -3.5,3.5h-63c-1.933,0 -3.5,-1.567 -3.5,-3.5c0,-0.1611 0,-0.32777 0,-0.5c0.66667,2 2,3 4,3z" id="bottomBoxShadow" fill="#000000" opacity="0.383"/><path d="M26.80054,47.24988h4.09985v-2.05017h2.05017c1.12767,0 2.05017,-0.9225 2.05017,-2.05017v-6.15002c0,-1.12767 -0.9225,-2.05017 -2.05017,-2.05017h-6.15002v-2.05017h8.2002v-4.09985h-4.09985v-2.05017h-4.09985v2.05017h-2.05017c-1.12767,0 -2.05017,0.9225 -2.05017,2.05017v6.15002c0,1.12767 0.9225,2.05017 2.05017,2.05017h6.15002v2.05017h-8.2002v4.09985h4.09985zM51.40064,20.6001h-32.8003c-2.27551,0 -4.07968,1.82434 -4.07968,4.09985l-0.02066,24.6001c0,2.27551 1.82434,4.09985 4.09985,4.09985h32.8003c2.27551,0 4.09985,-1.82434 4.09985,-4.09985v-24.6001c0,-2.27551 -1.82434,-4.09985 -4.09985,-4.09985zM51.40064,49.30005h-32.8003v-24.6001h32.8003zM39.10059,32.90015l4.09985,-4.09985l4.09985,4.09985M47.30079,41.61252l-4.09985,4.09985l-4.09985,-4.09985z" id="shadow" fill="#000000" opacity="0.3"/><path d="M15.71698,19.78688c0.73473,-0.73473 1.75065,-1.18678 2.88336,-1.18678h32.8003c2.27528,0.00026 4.09936,1.82451 4.09936,4.09985v24.6001l-22.69995,22.69995h-29.30005c-1.933,0 -3.5,-1.567 -3.5,-3.5l0,-30.99614z" id="flatShadow" fill="#000000" opacity="0.324"/><path d="M26.80054,45.24988h4.09985v-2.05017h2.05017c1.12767,0 2.05017,-0.9225 2.05017,-2.05017v-6.15002c0,-1.12767 -0.9225,-2.05017 -2.05017,-2.05017h-6.15002v-2.05017h8.2002v-4.09985h-4.09985v-2.05017h-4.09985v2.05017h-2.05017c-1.12767,0 -2.05017,0.9225 -2.05017,2.05017v6.15002c0,1.12767 0.9225,2.05017 2.05017,2.05017h6.15002v2.05017h-8.2002v4.09985h4.09985zM51.40064,18.6001h-32.8003c-2.27551,0 -4.07968,1.82434 -4.07968,4.09985l-0.02066,24.6001c0,2.27551 1.82434,4.09985 4.09985,4.09985h32.8003c2.27551,0 4.09985,-1.82434 4.09985,-4.09985v-24.6001c0,-2.27551 -1.82434,-4.09985 -4.09985,-4.09985zM51.40064,47.30005h-32.8003v-24.6001h32.8003zM39.10059,30.90015l4.09985,-4.09985l4.09985,4.09985M47.30079,39.61252l-4.09985,4.09985l-4.09985,-4.09985z" id="icon" fill="#ffffff"/></g></svg>