<svg version="1.1" xmlns="http://www.w3.org/2000/svg" xmlns:xlink="http://www.w3.org/1999/xlink" width="70" height="70" viewBox="0,0,70,70" odoo-icon:version="1.0" xmlns:odoo-icon="https://ivantodorovich.github.io/odoo-icon" odoo-icon:size="70" odoo-icon:icon-size="0.56" odoo-icon:icon-color="#FFFFFF" odoo-icon:icon-flat-shadow-angle="135" odoo-icon:background-color="#5e57a6" odoo-icon:background-gradient="0.2" odoo-icon:box-radius="3.5" odoo-icon:odoo-version="14.0"><defs><linearGradient x1="70" y1="0" x2="0" y2="70" gradientUnits="userSpaceOnUse" id="color-1"><stop offset="0" stop-color="#918ad9"/><stop offset="1" stop-color="#5e57a6"/></linearGradient></defs><g fill="none" fill-rule="nonzero" stroke="none" stroke-width="1" stroke-linecap="butt" stroke-linejoin="miter" stroke-miterlimit="10" stroke-dasharray="" stroke-dashoffset="0" font-family="none" font-weight="none" font-size="none" text-anchor="none" style="mix-blend-mode: normal"><path d="M3.5,70c-1.933,0 -3.5,-1.567 -3.5,-3.5v-63c0,-1.933 1.567,-3.5 3.5,-3.5h63c1.933,0 3.5,1.567 3.5,3.5v63c0,1.933 -1.567,3.5 -3.5,3.5z" id="box" fill="url(#color-1)"/><path d="M65,1h-61c-1.95033,0 -3.2667,0.63396 -3.9491,1.90189c0.28378,-1.64806 1.72001,-2.90189 3.4491,-2.90189h63c1.72965,0 3.16627,1.25466 3.44938,2.90352c-0.69803,-1.26902 -2.34782,-1.90352 -4.94938,-1.90352z" id="topBoxShadow" fill="#ffffff" opacity="0.383"/><path d="M4,69h61c2.66667,0 4.33333,-1 5,-3v0.5c0,1.933 -1.567,3.5 -3.5,3.5h-63c-1.933,0 -3.5,-1.567 -3.5,-3.5c0,-0.1611 0,-0.32777 0,-0.5c0.66667,2 2,3 4,3z" id="bottomBoxShadow" fill="#000000" opacity="0.383"/><path d="M21.14916,35.4342c0.29977,-0.12687 0.54621,-0.3109 0.73914,-0.55111c0.19275,-0.24101 0.28944,-0.56179 0.28944,-0.96261c0,-0.60141 -0.19908,-1.06215 -0.59803,-1.38347c-0.39842,-0.32078 -0.85693,-0.48113 -1.37474,-0.48113c-0.71786,0 -1.2598,0.23674 -1.62474,0.70967c-0.36601,0.47294 -0.54176,1.06981 -0.5284,1.78874h-2.70425c0.02689,-0.71893 0.15687,-1.37545 0.38943,-1.96778c0.23309,-0.59179 0.55974,-1.09981 0.97997,-1.52387c0.41943,-0.42397 0.92281,-0.75116 1.50891,-0.98353c0.5861,-0.23202 1.23941,-0.34803 1.95897,-0.34803c0.55948,0 1.11922,0.0836 1.67878,0.25009c0.56001,0.16676 1.06259,0.41685 1.50945,0.75009c0.44658,0.33325 0.80957,0.73941 1.08922,1.21983c0.27965,0.47988 0.42023,1.03286 0.42023,1.65893c0,0.68011 -0.16293,1.28001 -0.48781,1.79996c-0.32497,0.52003 -0.81197,0.87296 -1.46128,1.05939v0.04024c0.76977,0.17334 1.37332,0.54666 1.81189,1.12002c0.43804,0.57354 0.65679,1.26007 0.65679,2.05957c0,0.73353 -0.14325,1.38685 -0.43002,1.96039c-0.28704,0.57372 -0.67005,1.05307 -1.15011,1.44027c-0.4797,0.38622 -1.03339,0.67985 -1.66044,0.87937c-0.62678,0.19925 -1.28028,0.29968 -1.95968,0.29968c-0.78704,0 -1.5033,-0.11352 -2.15065,-0.33983c-0.64664,-0.22774 -1.19703,-0.55796 -1.65029,-0.99262c-0.45362,-0.43412 -0.80325,-0.96421 -1.04986,-1.59118c-0.24715,-0.6267 -0.36361,-1.34598 -0.34998,-2.15858h2.70416c0.013,0.37322 0.0731,0.72944 0.18047,1.06901c0.10684,0.33975 0.26077,0.63311 0.46118,0.87937c0.20041,0.24635 0.4505,0.44347 0.75143,0.59001c0.30057,0.14601 0.65803,0.21911 1.07194,0.21911c0.6413,0 1.18279,-0.19569 1.6235,-0.5877c0.44115,-0.39219 0.66151,-0.92709 0.66151,-1.60507c0,-0.53223 -0.1063,-0.93786 -0.31838,-1.21689c-0.2127,-0.27947 -0.47819,-0.48166 -0.79799,-0.60862c-0.31971,-0.12607 -0.66952,-0.19916 -1.04879,-0.21893c-0.37954,-0.02012 -0.74235,-0.03045 -1.08788,-0.03045v-2.0123c0.30591,0.02662 0.63204,0.02662 0.97837,0c0.34607,-0.02653 0.66934,-0.10319 0.96858,-0.23006zM33.63308,31.54545c-3.07133,0 -5.66572,2.50055 -5.66572,5.46023c0,2.95995 2.61228,5.4605 5.70427,5.4605c1.51844,0 3.07178,-0.64112 4.26071,-1.759l0.30458,-0.28624v2.39442l-0.07888,0.05404c-1.29924,0.88248 -2.87172,1.36878 -4.42898,1.36878c-4.26712,0 -7.73865,-3.2201 -7.73865,-7.17828c0,-4.01774 3.47153,-7.28645 7.73865,-7.28645c1.6673,0 3.11665,0.44819 4.43103,1.37065l0.07683,0.05395v2.4019l-0.30671,-0.29763c-1.14931,-1.11664 -2.71565,-1.75687 -4.29712,-1.75687zM40.70219,36.93997l-2.44054,2.90751v-5.58256zM50.02448,44.14262l-4.24246,-5.17079l-4.24174,5.17079h-3.01551l5.74255,-7.01829l-5.74122,-6.99977h3.04516l4.21076,5.14684l4.21103,-5.14684h3.04551l-5.74113,6.99977l5.7422,7.01829zM54.1834,43.25874c0.10657,0 0.29372,0.02012 0.29372,-0.11681c0,-0.0885 -0.11672,-0.10452 -0.20922,-0.10452h-0.22926v0.22133zM54.44097,43.77619l-0.25757,-0.39673h-0.14477v0.39673h-0.12073v-0.8596h0.3742c0.15483,0 0.30556,0.0422 0.30556,0.22739c0,0.16898 -0.11868,0.23166 -0.27146,0.23549l0.2069,0.31628l0.34626,-0.34441c0,-0.37037 -0.30778,-0.66436 -0.66792,-0.66436c-0.35996,0 -0.66774,0.29398 -0.66774,0.66436c0,0.37037 0.30778,0.66436 0.66774,0.66436l0.24078,-0.2395zM53.42307,43.35133c0,-0.4367 0.34803,-0.78508 0.78838,-0.78508c0.44071,0 0.78855,0.34838 0.78855,0.78508c0,0.4367 -0.34785,0.78508 -0.78855,0.78508c-0.44035,0 -0.78838,-0.34838 -0.78838,-0.78508z" id="shadow" fill="#000000" opacity="0.3"/><path d="M16.73283,29.04671c0.41624,-0.41624 0.91433,-0.73815 1.49306,-0.9676c0.5861,-0.23202 1.23941,-0.34803 1.95897,-0.34803c0.55948,0 1.11922,0.0836 1.67878,0.25009c0.56001,0.16676 1.06259,0.41685 1.50945,0.75009c0.44658,0.33325 0.80957,0.73941 1.08922,1.21983c0.27965,0.47988 0.42023,1.03286 0.42023,1.65893c0,0.68011 -0.16293,1.28001 -0.48781,1.79996c-0.09631,0.15412 -0.20685,0.29357 -0.33163,0.41835l-0.77813,0.77813c0.06829,0.0225 0.13508,0.04681 0.20037,0.07294l4.61063,-4.61063c1.41228,-1.41228 3.41522,-2.29532 5.63309,-2.29532c1.50248,0 2.82798,0.36396 4.0372,1.11096l0.75985,-0.75985h3.04516l3.78966,4.63213l4.63213,-4.63213h3.04551l-5.74113,6.99977l5.49045,6.7106l0.95042,-0.95042c0.1223,-0.1223 0.29104,-0.19753 0.47314,-0.19753c0.36013,0 0.66792,0.29398 0.66792,0.66436l-0.77773,0.77773c0.03584,0.00485 0.0725,0.00735 0.10982,0.00735c0.00116,0 0.00232,0 0.00348,-0.00001l0.78508,-0.78508c0,0.21798 -0.08667,0.41396 -0.2283,0.55559l-28.09307,28.09307h-23.17863c-1.933,0 -3.5,-1.567 -3.5,-3.5l0,-20.72046z" id="flatShadow" fill="#000000" opacity="0.324"/><path d="M21.14916,33.4342c0.29977,-0.12687 0.54621,-0.3109 0.73914,-0.55111c0.19275,-0.24101 0.28944,-0.56179 0.28944,-0.96261c0,-0.60141 -0.19908,-1.06215 -0.59803,-1.38347c-0.39842,-0.32078 -0.85693,-0.48113 -1.37474,-0.48113c-0.71786,0 -1.2598,0.23674 -1.62474,0.70967c-0.36601,0.47294 -0.54176,1.06981 -0.5284,1.78874h-2.70425c0.02689,-0.71893 0.15687,-1.37545 0.38943,-1.96778c0.23309,-0.59179 0.55974,-1.09981 0.97997,-1.52387c0.41943,-0.42397 0.92281,-0.75116 1.50891,-0.98353c0.5861,-0.23202 1.23941,-0.34803 1.95897,-0.34803c0.55948,0 1.11922,0.0836 1.67878,0.25009c0.56001,0.16676 1.06259,0.41685 1.50945,0.75009c0.44658,0.33325 0.80957,0.73941 1.08922,1.21983c0.27965,0.47988 0.42023,1.03286 0.42023,1.65893c0,0.68011 -0.16293,1.28001 -0.48781,1.79996c-0.32497,0.52003 -0.81197,0.87296 -1.46128,1.05939v0.04024c0.76977,0.17334 1.37332,0.54666 1.81189,1.12002c0.43804,0.57354 0.65679,1.26007 0.65679,2.05957c0,0.73353 -0.14325,1.38685 -0.43002,1.96039c-0.28704,0.57372 -0.67005,1.05307 -1.15011,1.44027c-0.4797,0.38622 -1.03339,0.67985 -1.66044,0.87937c-0.62678,0.19925 -1.28028,0.29968 -1.95968,0.29968c-0.78704,0 -1.5033,-0.11352 -2.15065,-0.33983c-0.64664,-0.22774 -1.19703,-0.55796 -1.65029,-0.99262c-0.45362,-0.43412 -0.80325,-0.96421 -1.04986,-1.59118c-0.24715,-0.6267 -0.36361,-1.34598 -0.34998,-2.15858h2.70416c0.013,0.37322 0.0731,0.72944 0.18047,1.06901c0.10684,0.33975 0.26077,0.63311 0.46118,0.87937c0.20041,0.24635 0.4505,0.44347 0.75143,0.59001c0.30057,0.14601 0.65803,0.21911 1.07194,0.21911c0.6413,0 1.18279,-0.19569 1.6235,-0.5877c0.44115,-0.39219 0.66151,-0.92709 0.66151,-1.60507c0,-0.53223 -0.1063,-0.93786 -0.31838,-1.21689c-0.2127,-0.27947 -0.47819,-0.48166 -0.79799,-0.60862c-0.31971,-0.12607 -0.66952,-0.19916 -1.04879,-0.21893c-0.37954,-0.02012 -0.74235,-0.03045 -1.08788,-0.03045v-2.0123c0.30591,0.02662 0.63204,0.02662 0.97837,0c0.34607,-0.02653 0.66934,-0.10319 0.96858,-0.23006zM33.63308,29.54545c-3.07133,0 -5.66572,2.50055 -5.66572,5.46023c0,2.95995 2.61228,5.4605 5.70427,5.4605c1.51844,0 3.07178,-0.64112 4.26071,-1.759l0.30458,-0.28624v2.39442l-0.07888,0.05404c-1.29924,0.88248 -2.87172,1.36878 -4.42898,1.36878c-4.26712,0 -7.73865,-3.2201 -7.73865,-7.17828c0,-4.01774 3.47153,-7.28645 7.73865,-7.28645c1.6673,0 3.11665,0.44819 4.43103,1.37065l0.07683,0.05395v2.4019l-0.30671,-0.29763c-1.14931,-1.11664 -2.71565,-1.75687 -4.29712,-1.75687zM40.70219,34.93997l-2.44054,2.90751v-5.58256zM50.02448,42.14262l-4.24246,-5.17079l-4.24174,5.17079h-3.01551l5.74255,-7.01829l-5.74122,-6.99977h3.04516l4.21076,5.14684l4.21103,-5.14684h3.04551l-5.74113,6.99977l5.7422,7.01829zM54.1834,41.25874c0.10657,0 0.29372,0.02012 0.29372,-0.11681c0,-0.0885 -0.11672,-0.10452 -0.20922,-0.10452h-0.22926v0.22133zM54.44097,41.77619l-0.25757,-0.39673h-0.14477v0.39673h-0.12073v-0.8596h0.3742c0.15483,0 0.30556,0.0422 0.30556,0.22739c0,0.16898 -0.11868,0.23166 -0.27146,0.23549l0.2069,0.31628l0.34626,-0.34441c0,-0.37037 -0.30778,-0.66436 -0.66792,-0.66436c-0.35996,0 -0.66774,0.29398 -0.66774,0.66436c0,0.37037 0.30778,0.66436 0.66774,0.66436l0.24078,-0.2395zM53.42307,41.35133c0,-0.4367 0.34803,-0.78508 0.78838,-0.78508c0.44071,0 0.78855,0.34838 0.78855,0.78508c0,0.4367 -0.34785,0.78508 -0.78855,0.78508c-0.44035,0 -0.78838,-0.34838 -0.78838,-0.78508z" id="icon" fill="#ffffff"/></g></svg>