<svg version="1.1" xmlns="http://www.w3.org/2000/svg" xmlns:xlink="http://www.w3.org/1999/xlink" width="70" height="70" viewBox="0,0,70,70" odoo-icon:version="1.0" xmlns:odoo-icon="https://ivantodorovich.github.io/odoo-icon" odoo-icon:size="70" odoo-icon:icon-size="0.56" odoo-icon:icon-color="#FFFFFF" odoo-icon:icon-flat-shadow-angle="135" odoo-icon:background-color="#5e57a6" odoo-icon:background-gradient="0.2" odoo-icon:box-radius="3.5" odoo-icon:odoo-version="14.0"><defs><linearGradient x1="70" y1="0" x2="0" y2="70" gradientUnits="userSpaceOnUse" id="color-1"><stop offset="0" stop-color="#918ad9"/><stop offset="1" stop-color="#5e57a6"/></linearGradient></defs><g fill="none" fill-rule="nonzero" stroke="none" stroke-width="1" stroke-linecap="butt" stroke-linejoin="miter" stroke-miterlimit="10" stroke-dasharray="" stroke-dashoffset="0" font-family="none" font-weight="none" font-size="none" text-anchor="none" style="mix-blend-mode: normal"><path d="M3.5,70c-1.933,0 -3.5,-1.567 -3.5,-3.5v-63c0,-1.933 1.567,-3.5 3.5,-3.5h63c1.933,0 3.5,1.567 3.5,3.5v63c0,1.933 -1.567,3.5 -3.5,3.5z" id="box" fill="url(#color-1)"/><path d="M65,1h-61c-1.95033,0 -3.2667,0.63396 -3.9491,1.90189c0.28378,-1.64806 1.72001,-2.90189 3.4491,-2.90189h63c1.72965,0 3.16627,1.25466 3.44938,2.90352c-0.69803,-1.26902 -2.34782,-1.90352 -4.94938,-1.90352z" id="topBoxShadow" fill="#ffffff" opacity="0.383"/><path d="M4,69h61c2.66667,0 4.33333,-1 5,-3v0.5c0,1.933 -1.567,3.5 -3.5,3.5h-63c-1.933,0 -3.5,-1.567 -3.5,-3.5c0,-0.1611 0,-0.32777 0,-0.5c0.66667,2 2,3 4,3z" id="bottomBoxShadow" fill="#000000" opacity="0.383"/><path d="M44.99989,19.72748l10.00011,17.27252l-10.00011,17.27252h-19.99978l-10.00011,-17.27252l10.00011,-17.27252zM42.90361,23.36369h-15.80722l-7.89466,13.63631l7.89466,13.63631h15.80722l7.89466,-13.63631zM33.18146,42.45453h3.6362v3.6362h-3.6362zM33.18146,27.90927h3.6362v10.90905h-3.6362z" id="shadow" fill="#000000" opacity="0.3"/><path d="M55,35l-10.00011,17.27252l-17.72748,17.72748h-23.77241c-1.933,0 -3.5,-1.567 -3.5,-3.5l0,-23.77241l25.00011,-25.00011h19.99978z" id="flatShadow" fill="#000000" opacity="0.324"/><path d="M44.99989,17.72748l10.00011,17.27252l-10.00011,17.27252h-19.99978l-10.00011,-17.27252l10.00011,-17.27252zM42.90361,21.36369h-15.80722l-7.89466,13.63631l7.89466,13.63631h15.80722l7.89466,-13.63631zM33.18146,40.45453h3.6362v3.6362h-3.6362zM33.18146,25.90927h3.6362v10.90905h-3.6362z" id="icon" fill="#ffffff"/></g></svg>