<svg version="1.1" xmlns="http://www.w3.org/2000/svg" xmlns:xlink="http://www.w3.org/1999/xlink" width="70" height="70" viewBox="0,0,70,70"><!-- Generated with https://ivantodorovich.github.io/odoo-icon --><defs><linearGradient x1="70" y1="0" x2="0" y2="70" gradientUnits="userSpaceOnUse" id="color-1"><stop offset="0" stop-color="#ffbb5a"/><stop offset="1" stop-color="#d88827"/></linearGradient></defs><g fill="none" fill-rule="nonzero" stroke="none" stroke-width="1" stroke-linecap="butt" stroke-linejoin="miter" stroke-miterlimit="10" stroke-dasharray="" stroke-dashoffset="0" font-family="none" font-weight="none" font-size="none" text-anchor="none" style="mix-blend-mode: normal"><path d="M3.5,70c-1.933,0 -3.5,-1.567 -3.5,-3.5v-63c0,-1.933 1.567,-3.5 3.5,-3.5h63c1.933,0 3.5,1.567 3.5,3.5v63c0,1.933 -1.567,3.5 -3.5,3.5z" id="box" fill="url(#color-1)"/><path d="M65,1h-61c-1.95033,0 -3.2667,0.63396 -3.9491,1.90189c0.28378,-1.64806 1.72001,-2.90189 3.4491,-2.90189h63c1.72965,0 3.16627,1.25466 3.44938,2.90352c-0.69803,-1.26902 -2.34782,-1.90352 -4.94938,-1.90352z" id="topBoxShadow" fill="#ffffff" opacity="0.383"/><path d="M4,69h61c2.66667,0 4.33333,-1 5,-3v0.5c0,1.933 -1.567,3.5 -3.5,3.5h-63c-1.933,0 -3.5,-1.567 -3.5,-3.5c0,-0.1611 0,-0.32777 0,-0.5c0.66667,2 2,3 4,3z" id="bottomBoxShadow" fill="#000000" opacity="0.383"/><path d="M35,37.43907c1.28936,0 2.39307,-0.4596 3.31227,-1.37824c0.91864,-0.91864 1.37768,-2.02179 1.37599,-3.30946c0,-1.28936 -0.4596,-2.39307 -1.37824,-3.31227c-0.91864,-0.91864 -2.02179,-1.37768 -3.30946,-1.37599c-1.28936,0 -2.39307,0.4596 -3.31227,1.37824c-0.91864,0.91864 -1.37768,2.02179 -1.37599,3.30946c0,1.28936 0.4596,2.39307 1.37824,3.31227c0.91864,0.91864 2.02179,1.37768 3.30946,1.37599zM35,59.99944c-0.31278,0 -0.62499,-0.0585 -0.93777,-0.17551c-0.31278,-0.11701 -0.58617,-0.2734 -0.82019,-0.4686c-5.70366,-5.03929 -9.96158,-9.71799 -12.77431,-14.03554c-2.81273,-4.31755 -4.2191,-8.35044 -4.2191,-12.09925c0,-5.86005 1.88509,-10.52806 5.65584,-14.00516c3.77075,-3.4771 8.13611,-5.21537 13.09552,-5.21537c4.9611,0 9.32759,1.73827 13.09777,5.21537c3.77075,3.4771 5.65528,8.14511 5.65359,14.00516c0,3.7505 -1.40637,7.78452 -4.2191,12.10207c-2.81273,4.31755 -7.07065,8.99512 -12.77431,14.03329c-0.23458,0.1952 -0.50798,0.35159 -0.82019,0.4686c-0.31278,0.11701 -0.62499,0.17551 -0.93777,0.17551z" id="shadow" fill="#000000" opacity="0.3"/><path d="M21.3775,17.72132c0.17136,-0.17136 0.34702,-0.34001 0.52697,-0.50595c3.77075,-3.4771 8.13611,-5.21537 13.09552,-5.21537c4.9611,0 9.32759,1.73827 13.09777,5.21537c3.77075,3.4771 5.65528,8.14511 5.65359,14.00516c0,3.7505 -1.40637,7.78452 -4.2191,12.10207c-1.95025,2.99363 -4.59528,6.16035 -7.93527,9.50034l-17.17706,17.17706h-20.91994c-1.933,0 -3.5,-1.567 -3.5,-3.5l0,-27.40117z" id="flatShadow" fill="#000000" opacity="0.324"/><path d="M35,35.43907c1.28936,0 2.39307,-0.4596 3.31227,-1.37824c0.91864,-0.91864 1.37768,-2.02179 1.37599,-3.30946c0,-1.28936 -0.4596,-2.39307 -1.37824,-3.31227c-0.91864,-0.91864 -2.02179,-1.37768 -3.30946,-1.37599c-1.28936,0 -2.39307,0.4596 -3.31227,1.37824c-0.91864,0.91864 -1.37768,2.02179 -1.37599,3.30946c0,1.28936 0.4596,2.39307 1.37824,3.31227c0.91864,0.91864 2.02179,1.37768 3.30946,1.37599zM35,57.99944c-0.31278,0 -0.62499,-0.0585 -0.93777,-0.17551c-0.31278,-0.11701 -0.58617,-0.2734 -0.82019,-0.4686c-5.70366,-5.03929 -9.96158,-9.71799 -12.77431,-14.03554c-2.81273,-4.31755 -4.2191,-8.35044 -4.2191,-12.09925c0,-5.86005 1.88509,-10.52806 5.65584,-14.00516c3.77075,-3.4771 8.13611,-5.21537 13.09552,-5.21537c4.9611,0 9.32759,1.73827 13.09777,5.21537c3.77075,3.4771 5.65528,8.14511 5.65359,14.00516c0,3.7505 -1.40637,7.78452 -4.2191,12.10207c-2.81273,4.31755 -7.07065,8.99512 -12.77431,14.03329c-0.23458,0.1952 -0.50798,0.35159 -0.82019,0.4686c-0.31278,0.11701 -0.62499,0.17551 -0.93777,0.17551z" id="icon" fill="#ffffff"/></g></svg>