<svg version="1.1" xmlns="http://www.w3.org/2000/svg" xmlns:xlink="http://www.w3.org/1999/xlink" width="70" height="70" viewBox="0,0,70,70" odoo-icon:version="1.0" xmlns:odoo-icon="https://ivantodorovich.github.io/odoo-icon" odoo-icon:size="70" odoo-icon:icon-size="0.58" odoo-icon:icon-color="#FFFFFF" odoo-icon:icon-flat-shadow-angle="135" odoo-icon:background-color="#1e88e5" odoo-icon:background-gradient="0.2" odoo-icon:box-radius="3.5" odoo-icon:odoo-version="14.0"><defs><linearGradient x1="70" y1="0" x2="0" y2="70" gradientUnits="userSpaceOnUse" id="color-1"><stop offset="0" stop-color="#51bbff"/><stop offset="1" stop-color="#1e88e5"/></linearGradient></defs><g fill="none" fill-rule="nonzero" stroke="none" stroke-width="1" stroke-linecap="butt" stroke-linejoin="miter" stroke-miterlimit="10" stroke-dasharray="" stroke-dashoffset="0" font-family="none" font-weight="none" font-size="none" text-anchor="none" style="mix-blend-mode: normal"><path d="M3.5,70c-1.933,0 -3.5,-1.567 -3.5,-3.5v-63c0,-1.933 1.567,-3.5 3.5,-3.5h63c1.933,0 3.5,1.567 3.5,3.5v63c0,1.933 -1.567,3.5 -3.5,3.5z" id="box" fill="url(#color-1)"/><path d="M65,1h-61c-1.95033,0 -3.2667,0.63396 -3.9491,1.90189c0.28378,-1.64806 1.72001,-2.90189 3.4491,-2.90189h63c1.72965,0 3.16627,1.25466 3.44938,2.90352c-0.69803,-1.26902 -2.34782,-1.90352 -4.94938,-1.90352z" id="topBoxShadow" fill="#ffffff" opacity="0.383"/><path d="M4,69h61c2.66667,0 4.33333,-1 5,-3v0.5c0,1.933 -1.567,3.5 -3.5,3.5h-63c-1.933,0 -3.5,-1.567 -3.5,-3.5c0,-0.1611 0,-0.32777 0,-0.5c0.66667,2 2,3 4,3z" id="bottomBoxShadow" fill="#000000" opacity="0.383"/><path d="M35,16.5c-11.31221,0 -20.5,9.18779 -20.5,20.5c0,11.31221 9.18779,20.5 20.5,20.5c11.31221,0 20.5,-9.18779 20.5,-20.5c0,-11.31221 -9.18779,-20.5 -20.5,-20.5zM35,18.08385c2.33884,0 4.57723,0.42434 6.64399,1.1987l-1.70728,4.5529c1.88071,0.70273 3.58935,1.79963 5.01103,3.21726l3.43168,-3.43168c1.67079,1.67034 3.01365,3.63845 3.95963,5.80296l-3.8362,3.58169l5.16374,0.91941c0.06937,0.42524 0.12433,0.85274 0.16442,1.28204l-4.5493,0.43335l-0.77886,-2.63435l-0.79823,-2.70012l-3.96504,3.70151c-1.2469,-3.62854 -4.69435,-6.24487 -8.74002,-6.24487c-1.25366,0 -2.44966,0.25181 -3.5407,0.70634l0.15226,-5.42501l-2.55236,1.18789l-2.55236,1.18789l4.24974,3.37808c-2.96409,1.54016 -4.99436,4.63939 -4.99436,8.20351c0,3.89747 2.42758,7.23996 5.84981,8.59452l-3.8754,3.78891l2.66093,0.92031l2.66093,0.92031l-0.70589,-5.37366c0.85905,0.25767 1.75143,0.38831 2.64831,0.38785c5.09257,0 9.23824,-4.14568 9.23824,-9.23824c0.00045,-0.75724 -0.0928,-1.51133 -0.27659,-2.24559l5.09347,0.9068l-0.05406,0.00541c0.0464,0.44281 0.07208,0.88788 0.07613,1.33339c-0.00721,5.61511 -3.3506,10.68921 -8.50803,12.91093l1.92576,4.46416c-2.29785,0.99103 -4.83129,1.54106 -7.49492,1.54106c-1.31672,0.00045 -2.6303,-0.13604 -3.91909,-0.40677l-0.68381,-5.20608l-3.75602,3.67223c-2.1064,-1.03878 -4.00153,-2.45957 -5.58853,-4.19072l3.58079,-3.28258c-2.38164,-2.59201 -3.70557,-5.98224 -3.71052,-9.50222c0.00315,-3.73215 1.4888,-7.31023 4.12946,-9.94773l-3.43168,-3.43168c1.00725,-1.0068 2.12487,-1.89738 3.33168,-2.65417l4.10694,3.26411l0.1473,-5.24392c1.82576,-0.58561 3.77179,-0.90319 5.7935,-0.90319zM35,29.34561c2.66859,0 5.01148,1.35592 6.38091,3.41862l-3.67764,3.43348l4.95022,0.88157c-0.04234,4.19973 -3.44294,7.57511 -7.65349,7.57511c-0.08919,0 -0.17794,-0.00225 -0.26578,-0.00541l-0.65543,-4.98851l-3.60106,3.52042c-1.90053,-1.39105 -3.13212,-3.63845 -3.13212,-6.18135c0,-2.26181 0.97437,-4.28938 2.52714,-5.68899l3.93801,3.13032l0.141,-5.02455c0.34731,-0.0473 0.69733,-0.07117 1.04824,-0.07117zM35,34.18456c-1.55502,0 -2.81544,1.26042 -2.81544,2.81544c0,1.55502 1.26042,2.81544 2.81544,2.81544c1.55502,0 2.81544,-1.26042 2.81544,-2.81544c0,-1.55502 -1.26042,-2.81544 -2.81544,-2.81544z" id="shadow" fill="#000000" opacity="0.3"/><path d="M49.49208,49.49208l-20.50792,20.50792h-25.48416c-1.933,0 -3.5,-1.567 -3.5,-3.5l0,-25.48416l20.50792,-20.50792c3.71097,-3.71097 8.83597,-6.00792 14.49208,-6.00792c11.31221,0 20.5,9.18779 20.5,20.5c0,5.6561 -2.29695,10.7811 -6.00792,14.49208z" id="flatShadow" fill="#000000" opacity="0.324"/><path d="M35,14.5c-11.31221,0 -20.5,9.18779 -20.5,20.5c0,11.31221 9.18779,20.5 20.5,20.5c11.31221,0 20.5,-9.18779 20.5,-20.5c0,-11.31221 -9.18779,-20.5 -20.5,-20.5zM35,16.08385c2.33884,0 4.57723,0.42434 6.64399,1.1987l-1.70728,4.5529c1.88071,0.70273 3.58935,1.79963 5.01103,3.21726l3.43168,-3.43168c1.67079,1.67034 3.01365,3.63845 3.95963,5.80296l-3.8362,3.58169l5.16374,0.91941c0.06937,0.42524 0.12433,0.85274 0.16442,1.28204l-4.5493,0.43335l-0.77886,-2.63435l-0.79823,-2.70012l-3.96504,3.70151c-1.2469,-3.62854 -4.69435,-6.24487 -8.74002,-6.24487c-1.25366,0 -2.44966,0.25181 -3.5407,0.70634l0.15226,-5.42501l-2.55236,1.18789l-2.55236,1.18789l4.24974,3.37808c-2.96409,1.54016 -4.99436,4.63939 -4.99436,8.20351c0,3.89747 2.42758,7.23996 5.84981,8.59452l-3.8754,3.78891l2.66093,0.92031l2.66093,0.92031l-0.70589,-5.37366c0.85905,0.25767 1.75143,0.38831 2.64831,0.38785c5.09257,0 9.23824,-4.14568 9.23824,-9.23824c0.00045,-0.75724 -0.0928,-1.51133 -0.27659,-2.24559l5.09347,0.9068l-0.05406,0.00541c0.0464,0.44281 0.07208,0.88788 0.07613,1.33339c-0.00721,5.61511 -3.3506,10.68921 -8.50803,12.91093l1.92576,4.46416c-2.29785,0.99103 -4.83129,1.54106 -7.49492,1.54106c-1.31672,0.00045 -2.6303,-0.13604 -3.91909,-0.40677l-0.68381,-5.20608l-3.75602,3.67223c-2.1064,-1.03878 -4.00153,-2.45957 -5.58853,-4.19072l3.58079,-3.28258c-2.38164,-2.59201 -3.70557,-5.98224 -3.71052,-9.50222c0.00315,-3.73215 1.4888,-7.31023 4.12946,-9.94773l-3.43168,-3.43168c1.00725,-1.0068 2.12487,-1.89738 3.33168,-2.65417l4.10694,3.26411l0.1473,-5.24392c1.82576,-0.58561 3.77179,-0.90319 5.7935,-0.90319zM35,27.34561c2.66859,0 5.01148,1.35592 6.38091,3.41862l-3.67764,3.43348l4.95022,0.88157c-0.04234,4.19973 -3.44294,7.57511 -7.65349,7.57511c-0.08919,0 -0.17794,-0.00225 -0.26578,-0.00541l-0.65543,-4.98851l-3.60106,3.52042c-1.90053,-1.39105 -3.13212,-3.63845 -3.13212,-6.18135c0,-2.26181 0.97437,-4.28938 2.52714,-5.68899l3.93801,3.13032l0.141,-5.02455c0.34731,-0.0473 0.69733,-0.07117 1.04824,-0.07117zM35,32.18456c-1.55502,0 -2.81544,1.26042 -2.81544,2.81544c0,1.55502 1.26042,2.81544 2.81544,2.81544c1.55502,0 2.81544,-1.26042 2.81544,-2.81544c0,-1.55502 -1.26042,-2.81544 -2.81544,-2.81544z" id="icon" fill="#ffffff"/></g></svg>