<svg version="1.1" xmlns="http://www.w3.org/2000/svg" xmlns:xlink="http://www.w3.org/1999/xlink" width="70" height="70" viewBox="0,0,70,70" odoo-icon:version="1.0" xmlns:odoo-icon="https://ivantodorovich.github.io/odoo-icon" odoo-icon:size="70" odoo-icon:icon-size="0.6" odoo-icon:icon-color="#FFFFFF" odoo-icon:icon-flat-shadow-angle="135" odoo-icon:background-color="#ffb300" odoo-icon:background-gradient="0.2" odoo-icon:box-radius="3.5" odoo-icon:odoo-version="14.0"><defs><linearGradient x1="70" y1="0" x2="0" y2="70" gradientUnits="userSpaceOnUse" id="color-1"><stop offset="0" stop-color="#ffe633"/><stop offset="1" stop-color="#ffb300"/></linearGradient></defs><g fill="none" fill-rule="nonzero" stroke="none" stroke-width="1" stroke-linecap="butt" stroke-linejoin="miter" stroke-miterlimit="10" stroke-dasharray="" stroke-dashoffset="0" font-family="none" font-weight="none" font-size="none" text-anchor="none" style="mix-blend-mode: normal"><path d="M3.5,70c-1.933,0 -3.5,-1.567 -3.5,-3.5v-63c0,-1.933 1.567,-3.5 3.5,-3.5h63c1.933,0 3.5,1.567 3.5,3.5v63c0,1.933 -1.567,3.5 -3.5,3.5z" id="box" fill="url(#color-1)"/><path d="M65,1h-61c-1.95033,0 -3.2667,0.63396 -3.9491,1.90189c0.28378,-1.64806 1.72001,-2.90189 3.4491,-2.90189h63c1.72965,0 3.16627,1.25466 3.44938,2.90352c-0.69803,-1.26902 -2.34782,-1.90352 -4.94938,-1.90352z" id="topBoxShadow" fill="#ffffff" opacity="0.383"/><path d="M4,69h61c2.66667,0 4.33333,-1 5,-3v0.5c0,1.933 -1.567,3.5 -3.5,3.5h-63c-1.933,0 -3.5,-1.567 -3.5,-3.5c0,-0.1611 0,-0.32777 0,-0.5c0.66667,2 2,3 4,3z" id="bottomBoxShadow" fill="#000000" opacity="0.383"/><path d="M38.09663,44.2996l-1.20553,-4.21959c0.35357,-0.30994 0.68483,-0.64169 0.99774,-0.99626l4.21512,1.20404c0.44333,-0.65161 0.83509,-1.33743 1.1718,-2.05004l-3.13804,-3.03737c0.15026,-0.44631 0.27869,-0.89906 0.37192,-1.36818l4.2305,-1.05824c0.03075,-0.39077 0.06199,-0.78253 0.06199,-1.18222c0,-0.39969 -0.03075,-0.79046 -0.06199,-1.18073l-4.2305,-1.05973c-0.09521,-0.46366 -0.21919,-0.92038 -0.37192,-1.36818l3.13952,-3.03737c-0.34415,-0.7126 -0.72847,-1.4024 -1.1718,-2.05004l-4.21512,1.20404c-0.31142,-0.35357 -0.64516,-0.68682 -0.99973,-0.99824l1.20553,-4.2181c-0.6531,-0.44184 -1.33892,-0.83311 -2.05202,-1.16982l-3.03737,3.13804c-0.4473,-0.15373 -0.90452,-0.2777 -1.36818,-0.37192l-1.05824,-4.2305c-0.39225,-0.03124 -0.78253,-0.06199 -1.18222,-0.06199c-0.39969,0 -0.79046,0.03124 -1.18073,0.06199l-1.05973,4.2305c-0.46515,0.09273 -0.92038,0.22167 -1.36669,0.37192l-3.03886,-3.13506c-0.7126,0.34564 -1.40091,0.72847 -2.04855,1.17329l1.20553,4.2181c-0.35308,0.30994 -0.68632,0.64169 -0.99626,0.99179l-4.21661,-1.20106c-0.44333,0.6521 -0.83509,1.33843 -1.17131,2.05153l3.13952,3.03737c-0.14877,0.44631 -0.27869,0.89906 -0.37192,1.36818l-4.2305,1.05973c-0.03124,0.39077 -0.06199,0.78253 -0.06199,1.18073c0,0.39821 0.03124,0.79046 0.06199,1.18222l4.2305,1.05824c0.09273,0.46813 0.22315,0.92187 0.37192,1.36818l-3.13952,3.03737c0.34118,0.7131 0.7255,1.4024 1.16982,2.05004l4.21512,-1.209c0.30994,0.35655 0.64467,0.68632 0.99824,0.99774l-1.20553,4.21959c0.64764,0.44333 1.33743,0.82616 2.05004,1.16982l3.03737,-3.13952c0.44482,0.15026 0.89906,0.27869 1.36669,0.37192l1.05973,4.2305c0.39077,0.03075 0.78253,0.06199 1.18222,0.06199c0.39969,0 0.79046,-0.03075 1.18073,-0.06199l1.05824,-4.2305c0.46813,-0.09273 0.92386,-0.22315 1.36818,-0.37192l3.03737,3.13952c0.7131,-0.34713 1.40091,-0.72847 2.04855,-1.17329zM29.40008,36.86115c-1.91863,0.05752 -3.71724,-0.93377 -4.69367,-2.5866c-0.97642,-1.65282 -0.97692,-3.70584 -0.00099,-5.35916c0.97593,-1.65332 2.77405,-2.64462 4.69267,-2.58759c2.84794,0.0843 5.1127,2.417 5.11319,5.26593c0.0005,2.84893 -2.26377,5.18212 -5.11171,5.26742zM53.40745,47.87006c0.02628,-0.86881 -0.09422,-1.73614 -0.35655,-2.56478l1.92755,-2.74777c-0.29109,-0.54251 -0.61987,-1.05676 -0.99179,-1.52488l-3.28978,0.68979c-0.66202,-0.56086 -1.4138,-1.00618 -2.2236,-1.3171l-0.94518,-3.22333c-0.60053,-0.10662 -1.20949,-0.16166 -1.81945,-0.16414l-1.50802,3.00018c-0.43391,0.08381 -0.86484,0.19836 -1.28933,0.36101c-0.39821,0.15174 -0.77013,0.34068 -1.12668,0.54697l-3.10878,-1.27098c-0.45771,0.40267 -0.87923,0.84451 -1.26007,1.32057l1.40388,3.04977c-0.40465,0.76765 -0.6774,1.59778 -0.80583,2.45618l-2.92877,1.64241c0.03075,0.60152 0.11802,1.20255 0.2539,1.80556l3.26052,0.80583c0.35655,0.8103 0.83658,1.53728 1.41975,2.15715l-0.54549,3.31309c0.4959,0.35655 1.02304,0.66351 1.57001,0.92981l2.6595,-2.04558c0.83063,0.2172 1.69994,0.302 2.57569,0.23258l2.24988,2.49039c0.30994,-0.08827 0.61987,-0.18299 0.92386,-0.29903c0.2658,-0.10364 0.52664,-0.21919 0.78253,-0.34564l0.05901,-3.35375c0.70517,-0.52664 1.30619,-1.15742 1.78523,-1.86904l3.34731,-0.20778c0.23704,-0.55788 0.43391,-1.13412 0.57326,-1.72771l-2.58809,-2.13831zM46.95633,50.97884c-1.86358,0.70963 -3.94982,-0.22613 -4.65895,-2.08971c-0.70963,-1.86358 0.22613,-3.94982 2.08971,-4.65895c1.86457,-0.70963 3.95131,0.22662 4.66044,2.0912c0.70963,1.86457 -0.22662,3.95131 -2.0912,4.66044z" id="shadow" fill="#000000" opacity="0.3"/><path d="M20.70354,16.88984c0.64764,-0.44482 1.33595,-0.82765 2.04855,-1.17329l1.96781,2.03011l3.49747,-3.49747c0.39027,-0.03075 0.78104,-0.06199 1.18073,-0.06199c0.39969,0 0.78996,0.03075 1.18222,0.06199l1.05824,4.2305c0.43773,0.08895 0.86971,0.20442 1.29303,0.34641l3.11252,-3.11252c0.7131,0.33671 1.39893,0.72798 2.05202,1.16982l-1.20553,4.2181c0.35457,0.31142 0.68831,0.64467 0.99973,0.99824l4.21512,-1.20404c0.44333,0.64764 0.82765,1.33743 1.1718,2.05004l-3.11377,3.11377c0.14098,0.42331 0.25637,0.85445 0.34617,1.29178l4.2305,1.05973c0.03124,0.39027 0.06199,0.78104 0.06199,1.18073c0,0.39969 -0.03124,0.79145 -0.06199,1.18222l-3.49669,3.49669l2.0323,1.96711c-0.33671,0.7126 -0.72847,1.39843 -1.1718,2.05004l-0.54569,0.54569l0.22633,0.09253c0.01246,-0.00721 0.02493,-0.01439 0.03742,-0.02156l3.88661,-3.88661c0.60995,0.00248 1.21891,0.05752 1.81945,0.16414l0.94518,3.22333c0.8098,0.31093 1.56158,0.75624 2.2236,1.3171l3.28978,-0.68979c0.37192,0.46813 0.7007,0.98237 0.99179,1.52488l-1.92755,2.74777c0.26233,0.82864 0.38283,1.69597 0.35655,2.56478l0.00446,0.00149l2.58809,2.13831c-0.13935,0.59359 -0.33622,1.16982 -0.57326,1.72771l-5.18727,5.18727l-0.00428,0.2433l-14.83187,14.83187h-31.90333c-1.933,0 -3.5,-1.567 -3.5,-3.5l0,-28.90662z" id="flatShadow" fill="#000000" opacity="0.324"/><path d="M38.09663,42.2996l-1.20553,-4.21959c0.35357,-0.30994 0.68483,-0.64169 0.99774,-0.99626l4.21512,1.20404c0.44333,-0.65161 0.83509,-1.33743 1.1718,-2.05004l-3.13804,-3.03737c0.15026,-0.44631 0.27869,-0.89906 0.37192,-1.36818l4.2305,-1.05824c0.03075,-0.39077 0.06199,-0.78253 0.06199,-1.18222c0,-0.39969 -0.03075,-0.79046 -0.06199,-1.18073l-4.2305,-1.05973c-0.09521,-0.46366 -0.21919,-0.92038 -0.37192,-1.36818l3.13952,-3.03737c-0.34415,-0.7126 -0.72847,-1.4024 -1.1718,-2.05004l-4.21512,1.20404c-0.31142,-0.35357 -0.64516,-0.68682 -0.99973,-0.99824l1.20553,-4.2181c-0.6531,-0.44184 -1.33892,-0.83311 -2.05202,-1.16982l-3.03737,3.13804c-0.4473,-0.15373 -0.90452,-0.2777 -1.36818,-0.37192l-1.05824,-4.2305c-0.39225,-0.03124 -0.78253,-0.06199 -1.18222,-0.06199c-0.39969,0 -0.79046,0.03124 -1.18073,0.06199l-1.05973,4.2305c-0.46515,0.09273 -0.92038,0.22167 -1.36669,0.37192l-3.03886,-3.13506c-0.7126,0.34564 -1.40091,0.72847 -2.04855,1.17329l1.20553,4.2181c-0.35308,0.30994 -0.68632,0.64169 -0.99626,0.99179l-4.21661,-1.20106c-0.44333,0.6521 -0.83509,1.33843 -1.17131,2.05153l3.13952,3.03737c-0.14877,0.44631 -0.27869,0.89906 -0.37192,1.36818l-4.2305,1.05973c-0.03124,0.39077 -0.06199,0.78253 -0.06199,1.18073c0,0.39821 0.03124,0.79046 0.06199,1.18222l4.2305,1.05824c0.09273,0.46813 0.22315,0.92187 0.37192,1.36818l-3.13952,3.03737c0.34118,0.7131 0.7255,1.4024 1.16982,2.05004l4.21512,-1.209c0.30994,0.35655 0.64467,0.68632 0.99824,0.99774l-1.20553,4.21959c0.64764,0.44333 1.33743,0.82616 2.05004,1.16982l3.03737,-3.13952c0.44482,0.15026 0.89906,0.27869 1.36669,0.37192l1.05973,4.2305c0.39077,0.03075 0.78253,0.06199 1.18222,0.06199c0.39969,0 0.79046,-0.03075 1.18073,-0.06199l1.05824,-4.2305c0.46813,-0.09273 0.92386,-0.22315 1.36818,-0.37192l3.03737,3.13952c0.7131,-0.34713 1.40091,-0.72847 2.04855,-1.17329zM29.40008,34.86115c-1.91863,0.05752 -3.71724,-0.93377 -4.69367,-2.5866c-0.97642,-1.65282 -0.97692,-3.70584 -0.00099,-5.35916c0.97593,-1.65332 2.77405,-2.64462 4.69267,-2.58759c2.84794,0.0843 5.1127,2.417 5.11319,5.26593c0.0005,2.84893 -2.26377,5.18212 -5.11171,5.26742zM53.40745,45.87006c0.02628,-0.86881 -0.09422,-1.73614 -0.35655,-2.56478l1.92755,-2.74777c-0.29109,-0.54251 -0.61987,-1.05676 -0.99179,-1.52488l-3.28978,0.68979c-0.66202,-0.56086 -1.4138,-1.00618 -2.2236,-1.3171l-0.94518,-3.22333c-0.60053,-0.10662 -1.20949,-0.16166 -1.81945,-0.16414l-1.50802,3.00018c-0.43391,0.08381 -0.86484,0.19836 -1.28933,0.36101c-0.39821,0.15174 -0.77013,0.34068 -1.12668,0.54697l-3.10878,-1.27098c-0.45771,0.40267 -0.87923,0.84451 -1.26007,1.32057l1.40388,3.04977c-0.40465,0.76765 -0.6774,1.59778 -0.80583,2.45618l-2.92877,1.64241c0.03075,0.60152 0.11802,1.20255 0.2539,1.80556l3.26052,0.80583c0.35655,0.8103 0.83658,1.53728 1.41975,2.15715l-0.54549,3.31309c0.4959,0.35655 1.02304,0.66351 1.57001,0.92981l2.6595,-2.04558c0.83063,0.2172 1.69994,0.302 2.57569,0.23258l2.24988,2.49039c0.30994,-0.08827 0.61987,-0.18299 0.92386,-0.29903c0.2658,-0.10364 0.52664,-0.21919 0.78253,-0.34564l0.05901,-3.35375c0.70517,-0.52664 1.30619,-1.15742 1.78523,-1.86904l3.34731,-0.20778c0.23704,-0.55788 0.43391,-1.13412 0.57326,-1.72771l-2.58809,-2.13831zM46.95633,48.97884c-1.86358,0.70963 -3.94982,-0.22613 -4.65895,-2.08971c-0.70963,-1.86358 0.22613,-3.94982 2.08971,-4.65895c1.86457,-0.70963 3.95131,0.22662 4.66044,2.0912c0.70963,1.86457 -0.22662,3.95131 -2.0912,4.66044z" id="icon" fill="#ffffff"/></g></svg>