<svg version="1.1" xmlns="http://www.w3.org/2000/svg" xmlns:xlink="http://www.w3.org/1999/xlink" width="70" height="70" viewBox="0,0,70,70" odoo-icon:version="1.0" xmlns:odoo-icon="https://ivantodorovich.github.io/odoo-icon" odoo-icon:size="70" odoo-icon:icon-size="0.62" odoo-icon:icon-color="#FFFFFF" odoo-icon:icon-flat-shadow-angle="135" odoo-icon:background-color="#00acc1" odoo-icon:background-gradient="0.2" odoo-icon:box-radius="3.5" odoo-icon:odoo-version="14.0"><defs><linearGradient x1="70" y1="0" x2="0" y2="70" gradientUnits="userSpaceOnUse" id="color-1"><stop offset="0" stop-color="#33dff4"/><stop offset="1" stop-color="#00acc1"/></linearGradient></defs><g fill="none" fill-rule="nonzero" stroke="none" stroke-width="1" stroke-linecap="butt" stroke-linejoin="miter" stroke-miterlimit="10" stroke-dasharray="" stroke-dashoffset="0" font-family="none" font-weight="none" font-size="none" text-anchor="none" style="mix-blend-mode: normal"><path d="M3.5,70c-1.933,0 -3.5,-1.567 -3.5,-3.5v-63c0,-1.933 1.567,-3.5 3.5,-3.5h63c1.933,0 3.5,1.567 3.5,3.5v63c0,1.933 -1.567,3.5 -3.5,3.5z" id="box" fill="url(#color-1)"/><path d="M65,1h-61c-1.95033,0 -3.2667,0.63396 -3.9491,1.90189c0.28378,-1.64806 1.72001,-2.90189 3.4491,-2.90189h63c1.72965,0 3.16627,1.25466 3.44938,2.90352c-0.69803,-1.26902 -2.34782,-1.90352 -4.94938,-1.90352z" id="topBoxShadow" fill="#ffffff" opacity="0.383"/><path d="M4,69h61c2.66667,0 4.33333,-1 5,-3v0.5c0,1.933 -1.567,3.5 -3.5,3.5h-63c-1.933,0 -3.5,-1.567 -3.5,-3.5c0,-0.1611 0,-0.32777 0,-0.5c0.66667,2 2,3 4,3z" id="bottomBoxShadow" fill="#000000" opacity="0.383"/><path d="M14.08911,17.83167c-0.60162,0 -1.08911,0.48749 -1.08911,1.08911v30.93069c0,0.60162 0.48749,1.08911 1.08911,1.08911h29.13584c-0.38075,-0.50099 -0.76063,-1.00242 -1.14313,-1.50297c-0.47572,-0.70182 -1.16665,-1.30257 -1.36923,-2.15556c-2.80119,1.1562 -6.01972,1.26337 -8.8941,0.30364c-0.06317,-0.02048 -0.12503,-0.04574 -0.18776,-0.06709c-0.32978,0.32238 -0.68527,0.88436 -0.74147,1.24376h-4.14166c0.31105,-1.05382 -0.34939,-2.69925 0.27533,-3.7718c0.04966,-0.01307 0.10978,-0.09715 0.13723,-0.18384c-0.07057,-0.06622 -0.14202,-0.13069 -0.21085,-0.19822c-0.61251,0.18646 -0.85735,0.6478 -1.19802,1.05251c0.18602,0.88174 -1.15663,0.67307 -1.02115,1.57267c0.93533,0.72535 -0.86345,0.17251 -1.39842,0.23046c-0.56764,0.0061 -2.22832,-0.58812 -1.65196,0.62733c-0.09018,0.3337 -0.00697,0.53846 0.15901,0.67089h-0.25442c-0.03964,-0.38162 -0.75846,-0.43826 -1.03552,-0.62558c-0.46657,-0.11327 -1.02376,-0.1699 -1.50689,-0.38511c-0.12416,0.34503 -1.24463,0.73972 -1.4899,1.01069h-2.37382v-15.9145c0.33414,0.22392 1.08345,0.13505 0.0623,-0.34851h-0.0623v-5.016c0.19822,-0.1002 0.3398,-0.132 0.33109,0.03572c0.49097,-0.16554 0.70487,-1.36051 1.55438,-0.87129c0.52974,0.07798 1.40626,0.89917 0.96582,1.00198c0.34329,0.83818 0.58681,0.29842 1.00808,1.29735c-0.2884,1.36618 0.81596,2.37861 1.42194,3.24947c0.72578,0.30147 1.01287,1.23984 2.19259,1.27644c0.16032,0.14028 0.36594,0.26749 0.58028,0.38947c0.05881,-0.45046 0.14202,-0.89743 0.24701,-1.33917c-0.02832,-0.00653 -0.05576,-0.01046 -0.08626,-0.02048c-1.13485,1.04685 -1.36749,-0.76543 -0.25921,-0.83644c0.07406,-0.00479 0.15378,-0.00087 0.2396,0.01089c0.12851,-0.01525 0.23525,0 0.32543,0.0318c0.36376,-1.19323 0.90309,-2.32547 1.60012,-3.36012c0.37422,-0.5585 0.79418,-1.08475 1.25596,-1.57354c-0.22915,-0.38337 -0.46352,-0.59727 -0.74016,-0.09671c-0.02091,-0.74277 -2.02923,-1.52127 -0.55152,-0.80855c0.77501,0.66784 1.02899,-0.11588 1.15141,-0.65085c0.66436,-0.69267 -0.68091,-0.92923 -0.43564,-1.38186c-0.40776,-0.61121 -1.01156,-1.23723 -1.63192,-1.6158c-1.20325,0.13941 -1.62495,-0.11457 -0.01612,-0.11545c0.14507,-0.75149 0.38598,-1.28384 0.55196,-1.9164c-0.17426,-0.0501 -0.35636,-0.04226 -0.53584,-0.04269c-0.76978,-0.10325 -1.22677,0.1943 -1.21109,0.78198c-0.5781,-0.04618 -0.05881,-1.0316 -0.95014,-0.73057c-1.35137,-0.02135 0.2823,0.43521 0.15683,0.50099c-0.15465,0.34677 -1.12832,0.13069 -1.01374,0.48226c-0.4461,-0.82511 -0.64911,0.39339 -0.99632,-0.44131c-0.20911,-0.2004 0.87564,0.19778 0.62863,-0.53279c-0.5463,-0.20911 -0.7419,0.15683 -1.16752,0.30626c-1.27034,0.70313 0.22174,1.36444 0.86693,1.59881c0.97236,-0.25921 0.97149,-0.58681 1.6476,-0.22653c0.75802,0.4204 -0.76543,0.12503 -0.71881,0.77196c-0.08713,-0.4021 -0.19604,-0.64475 -0.66653,-0.12939c-0.62733,0.11327 -0.90745,-0.74887 -1.37576,-0.68832c-1.06733,-0.14507 -0.66871,2.25533 0.21042,1.43806c0.53192,0.92051 -0.6796,0.24135 -1.03901,0.13853c-0.8116,0.90657 -1.68594,-0.02352 -2.65481,-0.06099c-0.31018,-0.2065 -0.61426,-0.20911 -0.88566,-0.10412v-3.24206h11.42388c-0.81465,0.02222 -1.54218,0.12982 -1.24594,0.71576c-0.04792,1.13006 1.4141,0.23263 1.62451,1.25465c0.60729,0.71402 -0.36115,2.23224 0.68919,1.96562c-0.38642,0.47006 -0.33806,1.21893 -0.03659,1.80923c1.11525,-0.9362 2.37992,-1.67766 3.74131,-2.1939c0.02396,-0.13418 0.00523,-0.2884 -0.07493,-0.4705c-0.13636,-0.68352 0.49794,-0.90178 0.27576,-1.6598c0.29885,-0.57069 0.06709,-1.1745 -0.44523,-1.42107h23.6916v3.08349c-0.06752,-0.02875 -0.13679,-0.05358 -0.2078,-0.07319c-0.61382,0.55632 -0.11762,0.60903 0.2078,0.484v0.48618c-0.72578,-0.4082 -1.52301,-0.45307 -2.29715,-0.28317c-0.35156,-0.61121 -1.5962,-0.59683 -2.0057,-1.14705c-0.72143,-0.86432 0.22,-0.60642 0.8495,-0.67307c-0.17861,-0.5402 -1.2503,-0.79636 -1.70293,-0.70705c-0.8177,0.44784 0.42954,0.8495 0.30364,1.45069c0,0.43695 -0.53279,0.44 -0.99762,0.41604c0.18776,-0.46265 -0.89002,-1.0316 -1.31739,-0.65521c-0.80899,-0.24483 -1.11743,-0.10107 -0.58376,-0.9436c-0.18646,-0.6478 -0.95711,-0.66 -1.30257,-1.10958c-0.44131,0.93576 -1.17711,0.65216 -1.96562,1.22198c-0.31584,0.46178 -0.97366,0.87651 -1.00634,1.18147c-0.48879,0.22958 -0.97802,-0.94186 -1.32087,0.09584c-0.31105,0.87826 0.01743,1.30388 -1.03204,0.58507c-1.08606,-1.1575 2.1817,-2.14903 0.96713,-2.64174c-1.00808,0.29406 -1.61406,1.00459 -1.81446,2.01398c-0.10848,0.22958 -0.05925,0.38947 0.05533,0.51885c3.82669,1.14139 6.99339,4.21877 8.28071,7.99406c0.02004,-0.22741 0.05794,-0.4461 0.13418,-0.60598c0.32194,-0.2457 0.06665,0.94317 0.73188,0.26705c-0.4901,1.05208 1.232,0.13941 1.46507,-0.29493c-0.34154,-0.85735 1.22851,-1.26119 1.19192,-1.42281c-0.5781,-0.60642 -0.24962,-0.00305 -0.88741,0.13592c-0.21129,-0.28143 0.40515,-1.82448 -0.41517,-1.68289c-1.22503,-0.31541 1.04206,-1.21762 1.65414,-0.88566c0.27881,-1.0316 0.6796,-0.20998 -0.00915,0.26444c-0.26226,0.91529 -0.13679,2.16384 0.63473,0.94055c0.34677,-0.33762 0.26051,-1.21762 0.71184,-1.37097c0.60642,-0.28578 1.68855,-0.50927 1.66024,-1.39275c0.0061,-0.00174 0.01176,-0.00131 0.01786,-0.00261v23.50515h-1.72471c0.37378,-0.51754 0.86824,-1.40277 0.34459,-1.72384c-0.78895,-0.13636 -1.37838,-1.0878 -2.332,-1.04816c-0.43042,-0.49576 -1.4215,-0.74669 -1.68812,-0.84341c-0.26661,-0.09671 -0.72927,0.46222 -1.20325,0.21521c-0.14246,-0.02309 -0.2884,-0.02048 -0.42998,0.00784c1.4263,1.85149 2.83909,3.71299 4.25711,5.57057h3.86547c0.60162,0 1.08911,-0.48749 1.08911,-1.08911v-30.93069c0,-0.60162 -0.48749,-1.08911 -1.08911,-1.08911zM35.30059,20.14929c-0.70139,0.34547 0.54238,1.72079 0.57679,0.40776c0.12851,0.19168 0.99065,0.38511 0.70879,-0.23307c-0.62646,-0.36899 -0.53149,0.05533 -1.28602,-0.17426zM45.35568,20.15016c-0.75671,0.36855 0.66218,0.37552 0,0zM21.31687,20.27519c-0.56634,0.42083 0.83121,0.83731 0.07406,0.02222zM25.9543,20.52481c0.14158,0.13592 -0.13984,0.08756 0,0zM20.48436,21.06327c0.06665,0.07711 -0.03485,0.00566 0,0zM22.42428,21.24275c0.68265,0.1185 -0.05228,0.27881 0,0zM23.38051,21.32117c0.64911,-0.04139 0.2383,0.16119 0,0zM21.47457,21.34992c0.42214,0.04356 -0.05402,0.1956 0,0zM22.82594,21.96331c0.42693,0.09846 -0.20998,0.13287 0,0zM23.12697,22.64248c-0.25703,0.81988 0.91354,1.9299 0.00523,0.99545c-0.24962,-0.37378 -0.37945,-0.73188 -0.00523,-0.99545zM21.60309,22.72525c0.37422,0.62515 0.94404,0.792 0.46701,1.00721c-0.31671,-0.15335 -0.3899,-0.63125 -0.46701,-1.00764zM27.47513,23.35563c0.05271,0.03529 -0.14202,0.00871 0,0zM18.64202,23.55297c-0.04879,0.19778 -0.06752,0.00305 0,0zM22.01564,23.87273c-0.0305,0.41212 -0.19909,-0.00741 0,0zM24.51972,23.87535c-0.16293,0.80594 0.48356,0.75453 0.44,0.83556c-0.5341,0.23525 -0.40646,1.20412 -0.81509,0.46483c-0.2579,-0.12024 0.13244,-1.18408 0.308,-1.27731zM21.8941,23.87622c0.05707,0.01307 -0.00392,0.18863 0,0zM53.40681,23.94854c0.01743,0.02962 -0.0758,0.07406 0,0zM21.92547,24.05396c0.29711,0.31105 -0.39818,0.28317 0,0zM35.76935,24.4822c-2.37556,0.01655 -4.68143,0.80463 -6.57038,2.24531c-4.83129,3.67901 -5.77141,10.61446 -2.0924,15.44574c3.44376,4.52242 9.73228,5.61327 14.48515,2.71754l0.90788,1.19236c-0.17861,0.4156 -0.16206,0.81291 0.04574,1.0865l6.58693,8.6497c0.39208,0.5145 1.33873,0.45307 2.11418,-0.13766c0.77545,-0.5903 1.08606,-1.48642 0.69442,-2.00135l-6.58693,-8.6497c-0.20824,-0.27358 -0.58681,-0.39556 -1.03509,-0.3337l-0.90788,-1.19192c4.05541,-3.81188 4.67707,-10.16356 1.23374,-14.68598c-1.83972,-2.41564 -4.49366,-3.85762 -7.29137,-4.23663c-0.52495,-0.07101 -1.05426,-0.10455 -1.584,-0.1002zM23.40186,25.57479c0.27228,0.6465 1.32392,0.26705 0.91224,1.14836c0.4583,0.43129 -0.07275,1.95168 -0.25093,0.65608c-1.14051,-0.00566 -1.68507,-1.14356 -0.72752,-1.74083zM24.39556,25.68196c0.34851,0.29624 -0.54891,0.16511 0,0zM51.76618,26.47832c0.0305,-0.02178 0.1063,0.13461 0,0zM36.20804,26.92311c2.55984,0.09758 4.94107,1.3383 6.48804,3.38059c1.3823,1.80705 1.98741,4.09026 1.68246,6.34471c-0.30539,2.25446 -1.496,4.29457 -3.30915,5.66859c-1.80705,1.3823 -4.09026,1.98784 -6.34471,1.68246c-2.25446,-0.30539 -4.29457,-1.496 -5.66903,-3.30915c-1.3823,-1.80705 -1.98741,-4.09026 -1.68202,-6.34471c0.30539,-2.25446 1.496,-4.29414 3.30915,-5.66859c1.58095,-1.21065 3.53525,-1.83101 5.52527,-1.7539zM53.01865,27.37182c-0.68396,0.5659 0.82119,0.46222 0,0zM53.83331,27.84319c-0.75715,0.36986 0.66174,0.3703 0,0zM54.32646,28.0157c-0.67525,0.56198 0.68832,0.26661 0,0zM54.29945,28.13768c0.03747,-0.00044 -0.02309,0.03964 0,0zM54.36392,28.20782c0.02048,0.03311 -0.05446,0.00697 0,0zM35.91921,28.66176c-0.95232,-0.01699 -1.89244,0.19604 -2.75937,0.57853c0.04531,0.05533 0.11022,0.10848 0.20519,0.1564c-0.87129,-0.28317 -1.12483,0.8177 -0.75802,1.31303l0.58943,0.04836l0.49271,-0.21695c0.31846,-0.33109 0.39774,-0.27402 0.50055,-0.77545l0.19212,0.02483l0.15248,-0.0636l0.34721,0.17164c0.41648,0.16293 0.43608,0.51406 0.29667,0.61687c-0.19735,0.12154 0.03529,0.13941 0.05446,0.21477c0.09846,-0.02832 0.15596,-0.11327 0.21782,-0.15857l0.11152,-0.04008c0.40689,-0.26705 0.12285,-0.35505 -0.15988,-0.71533l0.14986,0.03834c0.21913,0.24832 0.34808,0.52931 0.4779,0.82772c0.01481,0.01176 0.02832,0.02701 0.04531,0.03224c0.09846,0.03267 0.23743,0.02178 0.35636,-0.01089c0.11762,-0.03224 0.12547,-0.25659 0.10543,-0.47137c0.16772,0.76499 1.81271,0.53758 0.83382,1.00416c-0.56416,0.01263 -1.46071,-0.29667 -1.62582,0.0941c-0.36507,-0.16554 -0.55152,-0.27402 -0.62558,-0.35897c-0.22479,-0.08451 -0.87172,-0.32935 -0.89481,-0.32935c-0.02745,0 -0.85081,0.14986 -0.85081,0.14986l-0.6796,0.2579c-0.22087,0.71184 -0.56939,0.33109 -0.68788,0.88305c-0.09279,0.35287 -0.89133,1.11525 -0.47311,1.71556c0.37335,1.73648 2.53806,0.58028 3.04253,1.4141c-0.23699,0.51362 0.93533,1.49077 0.27925,2.332c0.30931,1.22198 1.14051,3.26471 2.47794,1.52562c0.35287,-1.04119 1.11263,-1.60404 1.08562,-2.63695c-0.40384,-1.01723 1.97347,-1.77133 1.02246,-2.59513c-0.22784,0.02701 -0.25398,0.07624 -0.43477,0.13636c-0.37988,-0.01438 -0.4779,-0.32063 -0.60729,-0.51319c-0.09889,-0.14028 -0.18602,-0.28883 -0.26139,-0.44305c0.24178,0.37465 0.49141,0.69267 0.84166,0.88828c0.60598,-0.13592 1.30083,-0.5842 1.58356,-0.91311c-0.00697,-1.2821 1.71644,0.04792 1.68158,1.01156c0.10673,0.25964 0.24222,0.44 0.37814,0.54543c-0.09671,-0.61644 -0.28055,-1.21545 -0.5463,-1.78004c-0.48313,-1.06036 -1.25683,-1.97085 -2.19695,-2.6522c-0.01743,0.02701 -0.06099,0.02875 -0.05228,-0.03659c-0.12721,-0.09018 -0.25703,-0.176 -0.3899,-0.25747c0.01438,0.06055 0.0318,0.12198 0.05184,0.18428c-0.05707,-0.08495 -0.11719,-0.17121 -0.16685,-0.25442c-1.02638,-0.60467 -2.20349,-0.95145 -3.40238,-0.94273zM50.09374,28.71927c0.31584,0.90004 -1.09869,2.9859 -1.30432,1.61667c0.14507,-0.67699 1.30606,-0.57461 1.30432,-1.61624zM23.57394,28.95669c0.0636,-0.00741 -0.01002,0.03267 0,0zM24.24527,29.27341c0.12677,0.10543 -0.15335,0.07929 0,0zM37.32677,29.30216c0.35156,0.29624 1.43022,0.68832 0.2884,0.37552c-0.59422,0.27141 -0.77806,0.09758 -0.2884,-0.37552zM34.60923,29.82929c-0.07667,0.02352 -0.01176,0.18253 -0.05968,0.23263c0.32673,0.15988 0.14376,-0.15117 0.19212,-0.20214c-0.06622,-0.03137 -0.10717,-0.03877 -0.13244,-0.0305zM39.58994,30.15384c0.10107,0.26269 0.16816,0.43042 -0.09149,0.10455c0.04356,-0.02091 0.07624,-0.05881 0.09149,-0.10455zM34.63972,30.18652c-0.12808,-0.01394 -0.19604,0.07188 -0.19648,0.19168c0.33762,0.18341 0.30277,-0.11937 0.34416,-0.14246c-0.04574,-0.02527 -0.09628,-0.04226 -0.14812,-0.04923zM39.85612,32.05238c0.19255,0.00784 -0.18428,0.27881 -0.1198,0.01525c0.05358,-0.01176 0.09236,-0.01655 0.1198,-0.01525zM53.12626,33.75662c-0.62733,0.66653 0.74756,0.78372 0,0zM53.08269,33.8603c0.06448,-0.00697 -0.01176,0.04444 0,0zM53.13671,33.9557c0.0061,0.04487 -0.06535,-0.01089 0,0zM53.59283,34.04283c-0.60772,0.52887 0.73362,0.33632 0,0zM53.65818,34.19313c0.04618,-0.00784 -0.00871,0.06404 0,0zM53.57236,34.21622c0.04008,0.05402 -0.03529,0.0305 0,0zM48.60733,34.90105c0.01089,0.27184 0.01307,0.54325 0.00697,0.81465c0.49968,0.07972 1.1257,0.05707 1.13747,0.6099c0.89568,0.03877 -0.09236,1.34701 -0.12503,0.13592c-0.36507,-0.05271 -0.73711,0.01046 -1.06428,0.18036c-0.09105,0.95057 -0.28535,1.88851 -0.58028,2.79683c0.73188,-0.2322 1.47857,-0.20954 1.91945,0.50186c1.16099,-0.00436 0.17339,0.78721 0.99632,0.94883c0.35069,-0.7162 -0.18471,-0.62602 0.47311,-1.20978c0.63822,-0.81596 0.22044,-1.86978 -0.41604,-2.31545c-0.13244,-0.50448 -0.66,-0.77719 -0.41168,-1.12135c0.48356,0.65564 1.16883,0.16467 0.59683,-0.18994c0.42214,-0.39426 1.93034,1.01592 1.08345,-0.06883c-0.41822,-0.07754 -0.99283,-0.9423 -1.12309,-0.38554c-0.03747,0.46178 -1.18974,-0.70095 -1.61493,-0.22523c-0.12285,-0.42867 -0.72404,-0.1699 -0.75802,0.02135c0.18471,-0.28752 0.0684,-0.43608 -0.12024,-0.49358zM50.82388,35.27353c-0.62428,0.35461 0.56372,0.34242 0,0zM34.51556,35.30402c0.0501,0.11327 -0.01438,0.01873 0,0zM29.04693,35.35717c-0.01307,0.60511 0.05446,1.20891 0.19996,1.79616c0.50099,-0.75889 0.48139,-1.4716 -0.19996,-1.79616zM50.79164,35.37808c0.03747,0.02701 -0.04618,0.01046 0,0zM51.21378,35.43036c0.20345,0.14376 -0.20388,0.14376 0,0zM51.21378,35.43471c-0.18558,0.13331 0.18515,0.13331 0,0zM50.83347,35.47262c0.00697,0.044 -0.06448,-0.00784 0,0zM48.61081,35.94572c-0.00436,0.10455 -0.0135,0.20911 -0.02048,0.31366c0.14071,-0.15857 0.2017,-0.32238 0.02048,-0.31366zM38.68119,36.39749c-0.5036,0.27663 0.53889,0.40297 0.10325,0.07842l-0.01873,-0.04661zM39.27018,36.47503c-0.4975,0.31105 -1.26947,1.79398 -0.19909,1.84059c0.2579,-0.30669 0.9118,-1.67418 0.19909,-1.84059zM52.76467,37.41951c-0.39861,0.78634 1.1575,0.4718 0,0zM40.06741,37.52406c-0.64737,0.43434 0.62776,0.37945 0,0zM53.80368,39.31717c0.36855,0.83426 -0.85386,1.33394 -0.7615,2.10851c0.62733,0.30234 0.95101,-0.83556 1.39275,-1.18364c0.52234,-0.45655 -0.41125,-0.5916 -0.63125,-0.92487zM24.8299,41.88311c0.07145,0.45917 0.28665,0.90352 0.67089,1.03901c-0.24004,-0.33545 -0.46396,-0.68222 -0.67089,-1.03901z" id="shadow" fill="#000000" opacity="0.3"/><path d="M57,16.92077v30.93069c0,0.30081 -0.12187,0.57309 -0.31895,0.77016l-21.37837,21.37837h-31.80268c-1.933,0 -3.5,-1.567 -3.5,-3.5l0,-36.57923l14.08911,-14.08911l41.82178,0c0.60162,0 1.08911,0.48749 1.08911,1.08911z" id="flatShadow" fill="#000000" opacity="0.324"/><path d="M14.08911,15.83167c-0.60162,0 -1.08911,0.48749 -1.08911,1.08911v30.93069c0,0.60162 0.48749,1.08911 1.08911,1.08911h29.13584c-0.38075,-0.50099 -0.76063,-1.00242 -1.14313,-1.50297c-0.47572,-0.70182 -1.16665,-1.30257 -1.36923,-2.15556c-2.80119,1.1562 -6.01972,1.26337 -8.8941,0.30364c-0.06317,-0.02048 -0.12503,-0.04574 -0.18776,-0.06709c-0.32978,0.32238 -0.68527,0.88436 -0.74147,1.24376h-4.14166c0.31105,-1.05382 -0.34939,-2.69925 0.27533,-3.7718c0.04966,-0.01307 0.10978,-0.09715 0.13723,-0.18384c-0.07057,-0.06622 -0.14202,-0.13069 -0.21085,-0.19822c-0.61251,0.18646 -0.85735,0.6478 -1.19802,1.05251c0.18602,0.88174 -1.15663,0.67307 -1.02115,1.57267c0.93533,0.72535 -0.86345,0.17251 -1.39842,0.23046c-0.56764,0.0061 -2.22832,-0.58812 -1.65196,0.62733c-0.09018,0.3337 -0.00697,0.53846 0.15901,0.67089h-0.25442c-0.03964,-0.38162 -0.75846,-0.43826 -1.03552,-0.62558c-0.46657,-0.11327 -1.02376,-0.1699 -1.50689,-0.38511c-0.12416,0.34503 -1.24463,0.73972 -1.4899,1.01069h-2.37382v-15.9145c0.33414,0.22392 1.08345,0.13505 0.0623,-0.34851h-0.0623v-5.016c0.19822,-0.1002 0.3398,-0.132 0.33109,0.03572c0.49097,-0.16554 0.70487,-1.36051 1.55438,-0.87129c0.52974,0.07798 1.40626,0.89917 0.96582,1.00198c0.34329,0.83818 0.58681,0.29842 1.00808,1.29735c-0.2884,1.36618 0.81596,2.37861 1.42194,3.24947c0.72578,0.30147 1.01287,1.23984 2.19259,1.27644c0.16032,0.14028 0.36594,0.26749 0.58028,0.38947c0.05881,-0.45046 0.14202,-0.89743 0.24701,-1.33917c-0.02832,-0.00653 -0.05576,-0.01046 -0.08626,-0.02048c-1.13485,1.04685 -1.36749,-0.76543 -0.25921,-0.83644c0.07406,-0.00479 0.15378,-0.00087 0.2396,0.01089c0.12851,-0.01525 0.23525,0 0.32543,0.0318c0.36376,-1.19323 0.90309,-2.32547 1.60012,-3.36012c0.37422,-0.5585 0.79418,-1.08475 1.25596,-1.57354c-0.22915,-0.38337 -0.46352,-0.59727 -0.74016,-0.09671c-0.02091,-0.74277 -2.02923,-1.52127 -0.55152,-0.80855c0.77501,0.66784 1.02899,-0.11588 1.15141,-0.65085c0.66436,-0.69267 -0.68091,-0.92923 -0.43564,-1.38186c-0.40776,-0.61121 -1.01156,-1.23723 -1.63192,-1.6158c-1.20325,0.13941 -1.62495,-0.11457 -0.01612,-0.11545c0.14507,-0.75149 0.38598,-1.28384 0.55196,-1.9164c-0.17426,-0.0501 -0.35636,-0.04226 -0.53584,-0.04269c-0.76978,-0.10325 -1.22677,0.1943 -1.21109,0.78198c-0.5781,-0.04618 -0.05881,-1.0316 -0.95014,-0.73057c-1.35137,-0.02135 0.2823,0.43521 0.15683,0.50099c-0.15465,0.34677 -1.12832,0.13069 -1.01374,0.48226c-0.4461,-0.82511 -0.64911,0.39339 -0.99632,-0.44131c-0.20911,-0.2004 0.87564,0.19778 0.62863,-0.53279c-0.5463,-0.20911 -0.7419,0.15683 -1.16752,0.30626c-1.27034,0.70313 0.22174,1.36444 0.86693,1.59881c0.97236,-0.25921 0.97149,-0.58681 1.6476,-0.22653c0.75802,0.4204 -0.76543,0.12503 -0.71881,0.77196c-0.08713,-0.4021 -0.19604,-0.64475 -0.66653,-0.12939c-0.62733,0.11327 -0.90745,-0.74887 -1.37576,-0.68832c-1.06733,-0.14507 -0.66871,2.25533 0.21042,1.43806c0.53192,0.92051 -0.6796,0.24135 -1.03901,0.13853c-0.8116,0.90657 -1.68594,-0.02352 -2.65481,-0.06099c-0.31018,-0.2065 -0.61426,-0.20911 -0.88566,-0.10412v-3.24206h11.42388c-0.81465,0.02222 -1.54218,0.12982 -1.24594,0.71576c-0.04792,1.13006 1.4141,0.23263 1.62451,1.25465c0.60729,0.71402 -0.36115,2.23224 0.68919,1.96562c-0.38642,0.47006 -0.33806,1.21893 -0.03659,1.80923c1.11525,-0.9362 2.37992,-1.67766 3.74131,-2.1939c0.02396,-0.13418 0.00523,-0.2884 -0.07493,-0.4705c-0.13636,-0.68352 0.49794,-0.90178 0.27576,-1.6598c0.29885,-0.57069 0.06709,-1.1745 -0.44523,-1.42107h23.6916v3.08349c-0.06752,-0.02875 -0.13679,-0.05358 -0.2078,-0.07319c-0.61382,0.55632 -0.11762,0.60903 0.2078,0.484v0.48618c-0.72578,-0.4082 -1.52301,-0.45307 -2.29715,-0.28317c-0.35156,-0.61121 -1.5962,-0.59683 -2.0057,-1.14705c-0.72143,-0.86432 0.22,-0.60642 0.8495,-0.67307c-0.17861,-0.5402 -1.2503,-0.79636 -1.70293,-0.70705c-0.8177,0.44784 0.42954,0.8495 0.30364,1.45069c0,0.43695 -0.53279,0.44 -0.99762,0.41604c0.18776,-0.46265 -0.89002,-1.0316 -1.31739,-0.65521c-0.80899,-0.24483 -1.11743,-0.10107 -0.58376,-0.9436c-0.18646,-0.6478 -0.95711,-0.66 -1.30257,-1.10958c-0.44131,0.93576 -1.17711,0.65216 -1.96562,1.22198c-0.31584,0.46178 -0.97366,0.87651 -1.00634,1.18147c-0.48879,0.22958 -0.97802,-0.94186 -1.32087,0.09584c-0.31105,0.87826 0.01743,1.30388 -1.03204,0.58507c-1.08606,-1.1575 2.1817,-2.14903 0.96713,-2.64174c-1.00808,0.29406 -1.61406,1.00459 -1.81446,2.01398c-0.10848,0.22958 -0.05925,0.38947 0.05533,0.51885c3.82669,1.14139 6.99339,4.21877 8.28071,7.99406c0.02004,-0.22741 0.05794,-0.4461 0.13418,-0.60598c0.32194,-0.2457 0.06665,0.94317 0.73188,0.26705c-0.4901,1.05208 1.232,0.13941 1.46507,-0.29493c-0.34154,-0.85735 1.22851,-1.26119 1.19192,-1.42281c-0.5781,-0.60642 -0.24962,-0.00305 -0.88741,0.13592c-0.21129,-0.28143 0.40515,-1.82448 -0.41517,-1.68289c-1.22503,-0.31541 1.04206,-1.21762 1.65414,-0.88566c0.27881,-1.0316 0.6796,-0.20998 -0.00915,0.26444c-0.26226,0.91529 -0.13679,2.16384 0.63473,0.94055c0.34677,-0.33762 0.26051,-1.21762 0.71184,-1.37097c0.60642,-0.28578 1.68855,-0.50927 1.66024,-1.39275c0.0061,-0.00174 0.01176,-0.00131 0.01786,-0.00261v23.50515h-1.72471c0.37378,-0.51754 0.86824,-1.40277 0.34459,-1.72384c-0.78895,-0.13636 -1.37838,-1.0878 -2.332,-1.04816c-0.43042,-0.49576 -1.4215,-0.74669 -1.68812,-0.84341c-0.26661,-0.09671 -0.72927,0.46222 -1.20325,0.21521c-0.14246,-0.02309 -0.2884,-0.02048 -0.42998,0.00784c1.4263,1.85149 2.83909,3.71299 4.25711,5.57057h3.86547c0.60162,0 1.08911,-0.48749 1.08911,-1.08911v-30.93069c0,-0.60162 -0.48749,-1.08911 -1.08911,-1.08911zM35.30059,18.14929c-0.70139,0.34547 0.54238,1.72079 0.57679,0.40776c0.12851,0.19168 0.99065,0.38511 0.70879,-0.23307c-0.62646,-0.36899 -0.53149,0.05533 -1.28602,-0.17426zM45.35568,18.15016c-0.75671,0.36855 0.66218,0.37552 0,0zM21.31687,18.27519c-0.56634,0.42083 0.83121,0.83731 0.07406,0.02222zM25.9543,18.52481c0.14158,0.13592 -0.13984,0.08756 0,0zM20.48436,19.06327c0.06665,0.07711 -0.03485,0.00566 0,0zM22.42428,19.24275c0.68265,0.1185 -0.05228,0.27881 0,0zM23.38051,19.32117c0.64911,-0.04139 0.2383,0.16119 0,0zM21.47457,19.34992c0.42214,0.04356 -0.05402,0.1956 0,0zM22.82594,19.96331c0.42693,0.09846 -0.20998,0.13287 0,0zM23.12697,20.64248c-0.25703,0.81988 0.91354,1.9299 0.00523,0.99545c-0.24962,-0.37378 -0.37945,-0.73188 -0.00523,-0.99545zM21.60309,20.72525c0.37422,0.62515 0.94404,0.792 0.46701,1.00721c-0.31671,-0.15335 -0.3899,-0.63125 -0.46701,-1.00764zM27.47513,21.35563c0.05271,0.03529 -0.14202,0.00871 0,0zM18.64202,21.55297c-0.04879,0.19778 -0.06752,0.00305 0,0zM22.01564,21.87273c-0.0305,0.41212 -0.19909,-0.00741 0,0zM24.51972,21.87535c-0.16293,0.80594 0.48356,0.75453 0.44,0.83556c-0.5341,0.23525 -0.40646,1.20412 -0.81509,0.46483c-0.2579,-0.12024 0.13244,-1.18408 0.308,-1.27731zM21.8941,21.87622c0.05707,0.01307 -0.00392,0.18863 0,0zM53.40681,21.94854c0.01743,0.02962 -0.0758,0.07406 0,0zM21.92547,22.05396c0.29711,0.31105 -0.39818,0.28317 0,0zM35.76935,22.4822c-2.37556,0.01655 -4.68143,0.80463 -6.57038,2.24531c-4.83129,3.67901 -5.77141,10.61446 -2.0924,15.44574c3.44376,4.52242 9.73228,5.61327 14.48515,2.71754l0.90788,1.19236c-0.17861,0.4156 -0.16206,0.81291 0.04574,1.0865l6.58693,8.6497c0.39208,0.5145 1.33873,0.45307 2.11418,-0.13766c0.77545,-0.5903 1.08606,-1.48642 0.69442,-2.00135l-6.58693,-8.6497c-0.20824,-0.27358 -0.58681,-0.39556 -1.03509,-0.3337l-0.90788,-1.19192c4.05541,-3.81188 4.67707,-10.16356 1.23374,-14.68598c-1.83972,-2.41564 -4.49366,-3.85762 -7.29137,-4.23663c-0.52495,-0.07101 -1.05426,-0.10455 -1.584,-0.1002zM23.40186,23.57479c0.27228,0.6465 1.32392,0.26705 0.91224,1.14836c0.4583,0.43129 -0.07275,1.95168 -0.25093,0.65608c-1.14051,-0.00566 -1.68507,-1.14356 -0.72752,-1.74083zM24.39556,23.68196c0.34851,0.29624 -0.54891,0.16511 0,0zM51.76618,24.47832c0.0305,-0.02178 0.1063,0.13461 0,0zM36.20804,24.92311c2.55984,0.09758 4.94107,1.3383 6.48804,3.38059c1.3823,1.80705 1.98741,4.09026 1.68246,6.34471c-0.30539,2.25446 -1.496,4.29457 -3.30915,5.66859c-1.80705,1.3823 -4.09026,1.98784 -6.34471,1.68246c-2.25446,-0.30539 -4.29457,-1.496 -5.66903,-3.30915c-1.3823,-1.80705 -1.98741,-4.09026 -1.68202,-6.34471c0.30539,-2.25446 1.496,-4.29414 3.30915,-5.66859c1.58095,-1.21065 3.53525,-1.83101 5.52527,-1.7539zM53.01865,25.37182c-0.68396,0.5659 0.82119,0.46222 0,0zM53.83331,25.84319c-0.75715,0.36986 0.66174,0.3703 0,0zM54.32646,26.0157c-0.67525,0.56198 0.68832,0.26661 0,0zM54.29945,26.13768c0.03747,-0.00044 -0.02309,0.03964 0,0zM54.36392,26.20782c0.02048,0.03311 -0.05446,0.00697 0,0zM35.91921,26.66176c-0.95232,-0.01699 -1.89244,0.19604 -2.75937,0.57853c0.04531,0.05533 0.11022,0.10848 0.20519,0.1564c-0.87129,-0.28317 -1.12483,0.8177 -0.75802,1.31303l0.58943,0.04836l0.49271,-0.21695c0.31846,-0.33109 0.39774,-0.27402 0.50055,-0.77545l0.19212,0.02483l0.15248,-0.0636l0.34721,0.17164c0.41648,0.16293 0.43608,0.51406 0.29667,0.61687c-0.19735,0.12154 0.03529,0.13941 0.05446,0.21477c0.09846,-0.02832 0.15596,-0.11327 0.21782,-0.15857l0.11152,-0.04008c0.40689,-0.26705 0.12285,-0.35505 -0.15988,-0.71533l0.14986,0.03834c0.21913,0.24832 0.34808,0.52931 0.4779,0.82772c0.01481,0.01176 0.02832,0.02701 0.04531,0.03224c0.09846,0.03267 0.23743,0.02178 0.35636,-0.01089c0.11762,-0.03224 0.12547,-0.25659 0.10543,-0.47137c0.16772,0.76499 1.81271,0.53758 0.83382,1.00416c-0.56416,0.01263 -1.46071,-0.29667 -1.62582,0.0941c-0.36507,-0.16554 -0.55152,-0.27402 -0.62558,-0.35897c-0.22479,-0.08451 -0.87172,-0.32935 -0.89481,-0.32935c-0.02745,0 -0.85081,0.14986 -0.85081,0.14986l-0.6796,0.2579c-0.22087,0.71184 -0.56939,0.33109 -0.68788,0.88305c-0.09279,0.35287 -0.89133,1.11525 -0.47311,1.71556c0.37335,1.73648 2.53806,0.58028 3.04253,1.4141c-0.23699,0.51362 0.93533,1.49077 0.27925,2.332c0.30931,1.22198 1.14051,3.26471 2.47794,1.52562c0.35287,-1.04119 1.11263,-1.60404 1.08562,-2.63695c-0.40384,-1.01723 1.97347,-1.77133 1.02246,-2.59513c-0.22784,0.02701 -0.25398,0.07624 -0.43477,0.13636c-0.37988,-0.01438 -0.4779,-0.32063 -0.60729,-0.51319c-0.09889,-0.14028 -0.18602,-0.28883 -0.26139,-0.44305c0.24178,0.37465 0.49141,0.69267 0.84166,0.88828c0.60598,-0.13592 1.30083,-0.5842 1.58356,-0.91311c-0.00697,-1.2821 1.71644,0.04792 1.68158,1.01156c0.10673,0.25964 0.24222,0.44 0.37814,0.54543c-0.09671,-0.61644 -0.28055,-1.21545 -0.5463,-1.78004c-0.48313,-1.06036 -1.25683,-1.97085 -2.19695,-2.6522c-0.01743,0.02701 -0.06099,0.02875 -0.05228,-0.03659c-0.12721,-0.09018 -0.25703,-0.176 -0.3899,-0.25747c0.01438,0.06055 0.0318,0.12198 0.05184,0.18428c-0.05707,-0.08495 -0.11719,-0.17121 -0.16685,-0.25442c-1.02638,-0.60467 -2.20349,-0.95145 -3.40238,-0.94273zM50.09374,26.71927c0.31584,0.90004 -1.09869,2.9859 -1.30432,1.61667c0.14507,-0.67699 1.30606,-0.57461 1.30432,-1.61624zM23.57394,26.95669c0.0636,-0.00741 -0.01002,0.03267 0,0zM24.24527,27.27341c0.12677,0.10543 -0.15335,0.07929 0,0zM37.32677,27.30216c0.35156,0.29624 1.43022,0.68832 0.2884,0.37552c-0.59422,0.27141 -0.77806,0.09758 -0.2884,-0.37552zM34.60923,27.82929c-0.07667,0.02352 -0.01176,0.18253 -0.05968,0.23263c0.32673,0.15988 0.14376,-0.15117 0.19212,-0.20214c-0.06622,-0.03137 -0.10717,-0.03877 -0.13244,-0.0305zM39.58994,28.15384c0.10107,0.26269 0.16816,0.43042 -0.09149,0.10455c0.04356,-0.02091 0.07624,-0.05881 0.09149,-0.10455zM34.63972,28.18652c-0.12808,-0.01394 -0.19604,0.07188 -0.19648,0.19168c0.33762,0.18341 0.30277,-0.11937 0.34416,-0.14246c-0.04574,-0.02527 -0.09628,-0.04226 -0.14812,-0.04923zM39.85612,30.05238c0.19255,0.00784 -0.18428,0.27881 -0.1198,0.01525c0.05358,-0.01176 0.09236,-0.01655 0.1198,-0.01525zM53.12626,31.75662c-0.62733,0.66653 0.74756,0.78372 0,0zM53.08269,31.8603c0.06448,-0.00697 -0.01176,0.04444 0,0zM53.13671,31.9557c0.0061,0.04487 -0.06535,-0.01089 0,0zM53.59283,32.04283c-0.60772,0.52887 0.73362,0.33632 0,0zM53.65818,32.19313c0.04618,-0.00784 -0.00871,0.06404 0,0zM53.57236,32.21622c0.04008,0.05402 -0.03529,0.0305 0,0zM48.60733,32.90105c0.01089,0.27184 0.01307,0.54325 0.00697,0.81465c0.49968,0.07972 1.1257,0.05707 1.13747,0.6099c0.89568,0.03877 -0.09236,1.34701 -0.12503,0.13592c-0.36507,-0.05271 -0.73711,0.01046 -1.06428,0.18036c-0.09105,0.95057 -0.28535,1.88851 -0.58028,2.79683c0.73188,-0.2322 1.47857,-0.20954 1.91945,0.50186c1.16099,-0.00436 0.17339,0.78721 0.99632,0.94883c0.35069,-0.7162 -0.18471,-0.62602 0.47311,-1.20978c0.63822,-0.81596 0.22044,-1.86978 -0.41604,-2.31545c-0.13244,-0.50448 -0.66,-0.77719 -0.41168,-1.12135c0.48356,0.65564 1.16883,0.16467 0.59683,-0.18994c0.42214,-0.39426 1.93034,1.01592 1.08345,-0.06883c-0.41822,-0.07754 -0.99283,-0.9423 -1.12309,-0.38554c-0.03747,0.46178 -1.18974,-0.70095 -1.61493,-0.22523c-0.12285,-0.42867 -0.72404,-0.1699 -0.75802,0.02135c0.18471,-0.28752 0.0684,-0.43608 -0.12024,-0.49358zM50.82388,33.27353c-0.62428,0.35461 0.56372,0.34242 0,0zM34.51556,33.30402c0.0501,0.11327 -0.01438,0.01873 0,0zM29.04693,33.35717c-0.01307,0.60511 0.05446,1.20891 0.19996,1.79616c0.50099,-0.75889 0.48139,-1.4716 -0.19996,-1.79616zM50.79164,33.37808c0.03747,0.02701 -0.04618,0.01046 0,0zM51.21378,33.43036c0.20345,0.14376 -0.20388,0.14376 0,0zM51.21378,33.43471c-0.18558,0.13331 0.18515,0.13331 0,0zM50.83347,33.47262c0.00697,0.044 -0.06448,-0.00784 0,0zM48.61081,33.94572c-0.00436,0.10455 -0.0135,0.20911 -0.02048,0.31366c0.14071,-0.15857 0.2017,-0.32238 0.02048,-0.31366zM38.68119,34.39749c-0.5036,0.27663 0.53889,0.40297 0.10325,0.07842l-0.01873,-0.04661zM39.27018,34.47503c-0.4975,0.31105 -1.26947,1.79398 -0.19909,1.84059c0.2579,-0.30669 0.9118,-1.67418 0.19909,-1.84059zM52.76467,35.41951c-0.39861,0.78634 1.1575,0.4718 0,0zM40.06741,35.52406c-0.64737,0.43434 0.62776,0.37945 0,0zM53.80368,37.31717c0.36855,0.83426 -0.85386,1.33394 -0.7615,2.10851c0.62733,0.30234 0.95101,-0.83556 1.39275,-1.18364c0.52234,-0.45655 -0.41125,-0.5916 -0.63125,-0.92487zM24.8299,39.88311c0.07145,0.45917 0.28665,0.90352 0.67089,1.03901c-0.24004,-0.33545 -0.46396,-0.68222 -0.67089,-1.03901z" id="icon" fill="#ffffff"/></g></svg>