<svg version="1.1" xmlns="http://www.w3.org/2000/svg" xmlns:xlink="http://www.w3.org/1999/xlink" width="70" height="70" viewBox="0,0,70,70" odoo-icon:version="1.0" xmlns:odoo-icon="https://ivantodorovich.github.io/odoo-icon" odoo-icon:size="70" odoo-icon:icon-size="0.64" odoo-icon:icon-color="#FFFFFF" odoo-icon:icon-flat-shadow-angle="135" odoo-icon:background-color="#5a9442" odoo-icon:background-gradient="0.2" odoo-icon:box-radius="3.5" odoo-icon:odoo-version="14.0"><defs><linearGradient x1="70" y1="0" x2="0" y2="70" gradientUnits="userSpaceOnUse" id="color-1"><stop offset="0" stop-color="#8dc775"/><stop offset="1" stop-color="#5a9442"/></linearGradient></defs><g fill="none" fill-rule="nonzero" stroke="none" stroke-width="1" stroke-linecap="butt" stroke-linejoin="miter" stroke-miterlimit="10" stroke-dasharray="" stroke-dashoffset="0" font-family="none" font-weight="none" font-size="none" text-anchor="none" style="mix-blend-mode: normal"><path d="M3.5,70c-1.933,0 -3.5,-1.567 -3.5,-3.5v-63c0,-1.933 1.567,-3.5 3.5,-3.5h63c1.933,0 3.5,1.567 3.5,3.5v63c0,1.933 -1.567,3.5 -3.5,3.5z" id="box" fill="url(#color-1)"/><path d="M65,1h-61c-1.95033,0 -3.2667,0.63396 -3.9491,1.90189c0.28378,-1.64806 1.72001,-2.90189 3.4491,-2.90189h63c1.72965,0 3.16627,1.25466 3.44938,2.90352c-0.69803,-1.26902 -2.34782,-1.90352 -4.94938,-1.90352z" id="topBoxShadow" fill="#ffffff" opacity="0.383"/><path d="M4,69h61c2.66667,0 4.33333,-1 5,-3v0.5c0,1.933 -1.567,3.5 -3.5,3.5h-63c-1.933,0 -3.5,-1.567 -3.5,-3.5c0,-0.1611 0,-0.32777 0,-0.5c0.66667,2 2,3 4,3z" id="bottomBoxShadow" fill="#000000" opacity="0.383"/><path d="M35.50536,36.51692l-1.18666,-6.24021h9.31644zM35,14.5c2.06552,0 4.05769,0.2637 5.97651,0.79111c1.91882,0.52741 3.70624,1.28926 5.36135,2.28512c1.65512,0.99631 3.17163,2.16812 4.5482,3.51589c1.37701,1.34776 2.55603,2.86383 3.53749,4.5482c0.98146,1.68437 1.73567,3.47898 2.26307,5.3834c0.52741,1.90442 0.79831,3.89659 0.81316,5.97651c0,2.06552 -0.2637,4.05769 -0.79111,5.97651c-0.52741,1.91882 -1.28926,3.70624 -2.28512,5.36135c-0.99631,1.65512 -2.16812,3.17163 -3.51544,4.5482c-1.34776,1.37701 -2.86383,2.55603 -4.5482,3.53749c-1.68437,0.98146 -3.47898,1.73567 -5.3834,2.26307c-1.90442,0.52741 -3.89659,0.79831 -5.97651,0.81316c-2.06552,0 -4.05769,-0.2637 -5.97651,-0.79111c-1.91882,-0.52741 -3.70624,-1.28926 -5.36135,-2.28512c-1.65512,-0.99631 -3.17163,-2.16812 -4.5482,-3.51544c-1.37701,-1.34776 -2.55603,-2.86383 -3.53749,-4.5482c-0.98146,-1.68437 -1.73567,-3.47898 -2.26307,-5.3834c-0.52741,-1.90442 -0.79831,-3.89659 -0.81316,-5.97651c0,-2.06552 0.2637,-4.05769 0.79111,-5.97651c0.52741,-1.91882 1.28926,-3.70624 2.28512,-5.36135c0.99631,-1.65512 2.16812,-3.17163 3.51589,-4.5482c1.34776,-1.37701 2.86383,-2.55603 4.5482,-3.53749c1.68437,-0.98146 3.47898,-1.73567 5.3834,-2.26307c1.90442,-0.52741 3.89659,-0.79831 5.97651,-0.81316zM18.10278,47.45923c1.50887,-1.18666 3.01008,-2.36567 4.50455,-3.53749c1.49401,-1.17181 3.00288,-2.36567 4.5266,-3.58159c0.73261,-0.57151 1.47196,-1.14256 2.21942,-1.71407c0.74701,-0.57151 1.47196,-1.17181 2.17532,-1.80182l0.1539,-0.1539v-0.1539c-0.0441,-0.35145 -0.1026,-0.71056 -0.17595,-1.07686c-0.07335,-0.3663 -0.13905,-0.72496 -0.19755,-1.07686l-3.40563,-16.15021c-1.94807,0.73261 -3.72064,1.72847 -5.31725,2.98848c-1.59662,1.25956 -2.95923,2.71713 -4.08694,4.37269c-1.12816,1.65512 -2.00702,3.44253 -2.63658,5.36135c-0.63001,1.91882 -0.94501,3.93304 -0.94501,6.04266c0,1.84592 0.24885,3.64729 0.74701,5.40545c0.49815,1.75772 1.23031,3.42768 2.19737,5.0099zM39.24084,55.14981c-0.33705,-1.58222 -0.66646,-3.14958 -0.98866,-4.7021c-0.3222,-1.55297 -0.65926,-3.13473 -1.01071,-4.7462c-0.2196,-1.05481 -0.43965,-2.09477 -0.65926,-3.12033c-0.2196,-1.02556 -0.4176,-2.07272 -0.59311,-3.14193c-0.01485,-0.07335 -0.02205,-0.1467 -0.02205,-0.2196c0,-0.07335 -0.0072,-0.1467 -0.02205,-0.2196c0,-0.39555 0.07335,-0.71056 0.2196,-0.94501c0.1467,-0.23445 0.3591,-0.4905 0.63721,-0.76906c0.19035,-0.2052 0.40275,-0.38835 0.63721,-0.54946c0.23445,-0.1611 0.46125,-0.3294 0.68131,-0.50536c0.51256,-0.40995 1.01791,-0.81316 1.51607,-1.20871c0.49815,-0.39555 1.00351,-0.79831 1.51607,-1.20871c1.56737,-1.23031 3.12753,-2.44622 4.68005,-3.64729c1.55297,-1.20106 3.10548,-2.43182 4.65845,-3.69139l-20.23715,-7.36072c0.3807,1.78697 0.75421,3.55954 1.12051,5.31725c0.3663,1.75772 0.73261,3.53749 1.09846,5.3393c0.2196,1.08406 0.43965,2.16047 0.65926,3.23013c0.2196,1.06921 0.432,2.14607 0.63721,3.23013c0.01485,0.07335 0.02205,0.1467 0.02205,0.2196c0,0.07335 0.0072,0.1467 0.02205,0.2196c0,0.3807 -0.0657,0.68851 -0.19755,0.92296c-0.13185,0.23445 -0.3294,0.4761 -0.59311,0.72496c-0.2052,0.2052 -0.4248,0.39555 -0.65926,0.57151c-0.23445,0.17595 -0.4689,0.3591 -0.70291,0.54946l-1.27441,1.05481c-0.4248,0.35145 -0.86446,0.69571 -1.31851,1.03276c-1.45036,1.14256 -2.88588,2.27072 -4.30654,3.38403c-1.42111,1.11331 -2.87103,2.24102 -4.35064,3.38403zM41.59167,55.98501c0.52741,-0.2052 1.03996,-0.40995 1.53812,-0.61516c0.49815,-0.2052 1.01071,-0.44685 1.53812,-0.72496c1.61147,-0.86446 3.06138,-1.92647 4.35064,-3.18603c1.28926,-1.25956 2.38772,-2.65143 3.29583,-4.17469c0.90811,-1.52327 1.60382,-3.16398 2.08757,-4.9217c0.4833,-1.75772 0.72496,-3.54514 0.72496,-5.36135c0,-1.66997 -0.2052,-3.31068 -0.61516,-4.9217c-0.40995,-1.61147 -1.01791,-3.15678 -1.82387,-4.6364c-1.61147,1.25956 -3.20808,2.51238 -4.7903,3.75754c-1.58222,1.24516 -3.17883,2.51238 -4.7903,3.80119c-0.80551,0.63001 -1.62587,1.25236 -2.46107,1.86752c-0.83476,0.61516 -1.63352,1.28161 -2.39492,1.99937l-0.13185,0.13185v0.17595c0.1026,0.87886 0.2637,1.80182 0.4833,2.76843c0.2196,0.96661 0.4248,1.88957 0.61516,2.76843c0.3807,1.88957 0.76906,3.76474 1.16461,5.62506c0.39555,1.86032 0.79831,3.74269 1.20871,5.64711zM35.3294,44.66875l1.95572,8.61354l-14.54595,-5.29565l4.8119,-3.31788z" id="shadow" fill="#000000" opacity="0.3"/><path d="M40.97651,13.29111c1.91882,0.52741 3.70624,1.28926 5.36135,2.28512c1.65512,0.99631 3.17163,2.16812 4.5482,3.51589c1.37701,1.34776 2.55603,2.86383 3.53749,4.5482c0.98146,1.68437 1.73567,3.47898 2.26307,5.3834c0.52741,1.90442 0.79831,3.89659 0.81316,5.97651c0,2.06552 -0.2637,4.05769 -0.79111,5.97651c-0.52741,1.91882 -1.28926,3.70624 -2.28512,5.36135c-0.99631,1.65512 -2.16812,3.17163 -3.51544,4.5482c-0.05381,0.05498 -0.10789,0.10965 -0.16224,0.16399l-18.94972,18.94972h-28.29614c-1.933,0 -3.5,-1.567 -3.5,-3.5l0,-28.29524l19.25458,-19.25458c1.30685,-1.30685 2.76884,-2.43122 4.38595,-3.37349c1.68437,-0.98146 3.47898,-1.73567 5.3834,-2.26307c1.90414,-0.52733 3.89601,-0.79823 5.9756,-0.81315l0.00046,-0.00046c2.06552,0 4.05769,0.2637 5.97651,0.79111z" id="flatShadow" fill="#000000" opacity="0.324"/><path d="M35.50536,34.51692l-1.18666,-6.24021h9.31644zM35,12.5c2.06552,0 4.05769,0.2637 5.97651,0.79111c1.91882,0.52741 3.70624,1.28926 5.36135,2.28512c1.65512,0.99631 3.17163,2.16812 4.5482,3.51589c1.37701,1.34776 2.55603,2.86383 3.53749,4.5482c0.98146,1.68437 1.73567,3.47898 2.26307,5.3834c0.52741,1.90442 0.79831,3.89659 0.81316,5.97651c0,2.06552 -0.2637,4.05769 -0.79111,5.97651c-0.52741,1.91882 -1.28926,3.70624 -2.28512,5.36135c-0.99631,1.65512 -2.16812,3.17163 -3.51544,4.5482c-1.34776,1.37701 -2.86383,2.55603 -4.5482,3.53749c-1.68437,0.98146 -3.47898,1.73567 -5.3834,2.26307c-1.90442,0.52741 -3.89659,0.79831 -5.97651,0.81316c-2.06552,0 -4.05769,-0.2637 -5.97651,-0.79111c-1.91882,-0.52741 -3.70624,-1.28926 -5.36135,-2.28512c-1.65512,-0.99631 -3.17163,-2.16812 -4.5482,-3.51544c-1.37701,-1.34776 -2.55603,-2.86383 -3.53749,-4.5482c-0.98146,-1.68437 -1.73567,-3.47898 -2.26307,-5.3834c-0.52741,-1.90442 -0.79831,-3.89659 -0.81316,-5.97651c0,-2.06552 0.2637,-4.05769 0.79111,-5.97651c0.52741,-1.91882 1.28926,-3.70624 2.28512,-5.36135c0.99631,-1.65512 2.16812,-3.17163 3.51589,-4.5482c1.34776,-1.37701 2.86383,-2.55603 4.5482,-3.53749c1.68437,-0.98146 3.47898,-1.73567 5.3834,-2.26307c1.90442,-0.52741 3.89659,-0.79831 5.97651,-0.81316zM18.10278,45.45923c1.50887,-1.18666 3.01008,-2.36567 4.50455,-3.53749c1.49401,-1.17181 3.00288,-2.36567 4.5266,-3.58159c0.73261,-0.57151 1.47196,-1.14256 2.21942,-1.71407c0.74701,-0.57151 1.47196,-1.17181 2.17532,-1.80182l0.1539,-0.1539v-0.1539c-0.0441,-0.35145 -0.1026,-0.71056 -0.17595,-1.07686c-0.07335,-0.3663 -0.13905,-0.72496 -0.19755,-1.07686l-3.40563,-16.15021c-1.94807,0.73261 -3.72064,1.72847 -5.31725,2.98848c-1.59662,1.25956 -2.95923,2.71713 -4.08694,4.37269c-1.12816,1.65512 -2.00702,3.44253 -2.63658,5.36135c-0.63001,1.91882 -0.94501,3.93304 -0.94501,6.04266c0,1.84592 0.24885,3.64729 0.74701,5.40545c0.49815,1.75772 1.23031,3.42768 2.19737,5.0099zM39.24084,53.14981c-0.33705,-1.58222 -0.66646,-3.14958 -0.98866,-4.7021c-0.3222,-1.55297 -0.65926,-3.13473 -1.01071,-4.7462c-0.2196,-1.05481 -0.43965,-2.09477 -0.65926,-3.12033c-0.2196,-1.02556 -0.4176,-2.07272 -0.59311,-3.14193c-0.01485,-0.07335 -0.02205,-0.1467 -0.02205,-0.2196c0,-0.07335 -0.0072,-0.1467 -0.02205,-0.2196c0,-0.39555 0.07335,-0.71056 0.2196,-0.94501c0.1467,-0.23445 0.3591,-0.4905 0.63721,-0.76906c0.19035,-0.2052 0.40275,-0.38835 0.63721,-0.54946c0.23445,-0.1611 0.46125,-0.3294 0.68131,-0.50536c0.51256,-0.40995 1.01791,-0.81316 1.51607,-1.20871c0.49815,-0.39555 1.00351,-0.79831 1.51607,-1.20871c1.56737,-1.23031 3.12753,-2.44622 4.68005,-3.64729c1.55297,-1.20106 3.10548,-2.43182 4.65845,-3.69139l-20.23715,-7.36072c0.3807,1.78697 0.75421,3.55954 1.12051,5.31725c0.3663,1.75772 0.73261,3.53749 1.09846,5.3393c0.2196,1.08406 0.43965,2.16047 0.65926,3.23013c0.2196,1.06921 0.432,2.14607 0.63721,3.23013c0.01485,0.07335 0.02205,0.1467 0.02205,0.2196c0,0.07335 0.0072,0.1467 0.02205,0.2196c0,0.3807 -0.0657,0.68851 -0.19755,0.92296c-0.13185,0.23445 -0.3294,0.4761 -0.59311,0.72496c-0.2052,0.2052 -0.4248,0.39555 -0.65926,0.57151c-0.23445,0.17595 -0.4689,0.3591 -0.70291,0.54946l-1.27441,1.05481c-0.4248,0.35145 -0.86446,0.69571 -1.31851,1.03276c-1.45036,1.14256 -2.88588,2.27072 -4.30654,3.38403c-1.42111,1.11331 -2.87103,2.24102 -4.35064,3.38403zM41.59167,53.98501c0.52741,-0.2052 1.03996,-0.40995 1.53812,-0.61516c0.49815,-0.2052 1.01071,-0.44685 1.53812,-0.72496c1.61147,-0.86446 3.06138,-1.92647 4.35064,-3.18603c1.28926,-1.25956 2.38772,-2.65143 3.29583,-4.17469c0.90811,-1.52327 1.60382,-3.16398 2.08757,-4.9217c0.4833,-1.75772 0.72496,-3.54514 0.72496,-5.36135c0,-1.66997 -0.2052,-3.31068 -0.61516,-4.9217c-0.40995,-1.61147 -1.01791,-3.15678 -1.82387,-4.6364c-1.61147,1.25956 -3.20808,2.51238 -4.7903,3.75754c-1.58222,1.24516 -3.17883,2.51238 -4.7903,3.80119c-0.80551,0.63001 -1.62587,1.25236 -2.46107,1.86752c-0.83476,0.61516 -1.63352,1.28161 -2.39492,1.99937l-0.13185,0.13185v0.17595c0.1026,0.87886 0.2637,1.80182 0.4833,2.76843c0.2196,0.96661 0.4248,1.88957 0.61516,2.76843c0.3807,1.88957 0.76906,3.76474 1.16461,5.62506c0.39555,1.86032 0.79831,3.74269 1.20871,5.64711zM35.3294,42.66875l1.95572,8.61354l-14.54595,-5.29565l4.8119,-3.31788z" id="icon" fill="#ffffff"/></g></svg>