<svg version="1.1" xmlns="http://www.w3.org/2000/svg" xmlns:xlink="http://www.w3.org/1999/xlink" width="70" height="70" viewBox="0,0,70,70" odoo-icon:version="1.0" xmlns:odoo-icon="https://ivantodorovich.github.io/odoo-icon" odoo-icon:size="70" odoo-icon:icon-size="0.58" odoo-icon:icon-color="#FFFFFF" odoo-icon:icon-flat-shadow-angle="135" odoo-icon:background-color="#1e88e5" odoo-icon:background-gradient="0.2" odoo-icon:box-radius="3.5" odoo-icon:odoo-version="14.0"><defs><linearGradient x1="70" y1="0" x2="0" y2="70" gradientUnits="userSpaceOnUse" id="color-1"><stop offset="0" stop-color="#51bbff"/><stop offset="1" stop-color="#1e88e5"/></linearGradient></defs><g fill="none" fill-rule="nonzero" stroke="none" stroke-width="1" stroke-linecap="butt" stroke-linejoin="miter" stroke-miterlimit="10" stroke-dasharray="" stroke-dashoffset="0" font-family="none" font-weight="none" font-size="none" text-anchor="none" style="mix-blend-mode: normal"><path d="M3.5,70c-1.933,0 -3.5,-1.567 -3.5,-3.5v-63c0,-1.933 1.567,-3.5 3.5,-3.5h63c1.933,0 3.5,1.567 3.5,3.5v63c0,1.933 -1.567,3.5 -3.5,3.5z" id="box" fill="url(#color-1)"/><path d="M65,1h-61c-1.95033,0 -3.2667,0.63396 -3.9491,1.90189c0.28378,-1.64806 1.72001,-2.90189 3.4491,-2.90189h63c1.72965,0 3.16627,1.25466 3.44938,2.90352c-0.69803,-1.26902 -2.34782,-1.90352 -4.94938,-1.90352z" id="topBoxShadow" fill="#ffffff" opacity="0.383"/><path d="M4,69h61c2.66667,0 4.33333,-1 5,-3v0.5c0,1.933 -1.567,3.5 -3.5,3.5h-63c-1.933,0 -3.5,-1.567 -3.5,-3.5c0,-0.1611 0,-0.32777 0,-0.5c0.66667,2 2,3 4,3z" id="bottomBoxShadow" fill="#000000" opacity="0.383"/><path d="M45.25,45.5444h-20.5v1.7056h20.5zM23.0444,18.2056h15.375v8.5444h8.5444v3.4194h1.7056v-5.125l-8.5444,-8.5444h-18.7944v13.6694h1.7056v-11.9638zM50.375,31.875h-30.75c-3.4194,0 -5.125,1.7056 -5.125,5.125v10.25h6.8306v10.25h27.3306v-10.25h6.8388v-10.25c0,-3.4194 -1.7056,-5.125 -5.125,-5.125zM21.3306,38.7056h-3.4112v-3.4194h3.4194v3.4194zM46.9556,55.7944h-23.9112v-11.9638h23.9194v11.9638zM45.25,48.9556h-20.5v1.7056h20.5zM45.25,52.375h-20.5v1.7056h20.5z" id="shadow" fill="#000000" opacity="0.3"/><path d="M48.6694,23.0444v5.125l-1.7056,1.7056h3.4112c3.4194,0 5.125,1.7056 5.125,5.125v10.25l-6.8388,6.8388v3.4112l-14.5,14.5h-30.6612c-1.933,0 -3.5,-1.567 -3.5,-3.5l0,-30.6694l21.3306,-21.3306h18.7944z" id="flatShadow" fill="#000000" opacity="0.324"/><path d="M45.25,43.5444h-20.5v1.7056h20.5zM23.0444,16.2056h15.375v8.5444h8.5444v3.4194h1.7056v-5.125l-8.5444,-8.5444h-18.7944v13.6694h1.7056v-11.9638zM50.375,29.875h-30.75c-3.4194,0 -5.125,1.7056 -5.125,5.125v10.25h6.8306v10.25h27.3306v-10.25h6.8388v-10.25c0,-3.4194 -1.7056,-5.125 -5.125,-5.125zM21.3306,36.7056h-3.4112v-3.4194h3.4194v3.4194zM46.9556,53.7944h-23.9112v-11.9638h23.9194v11.9638zM45.25,46.9556h-20.5v1.7056h20.5zM45.25,50.375h-20.5v1.7056h20.5z" id="icon" fill="#ffffff"/></g></svg>