<svg version="1.1" xmlns="http://www.w3.org/2000/svg" xmlns:xlink="http://www.w3.org/1999/xlink" width="70" height="70" viewBox="0,0,70,70" odoo-icon:version="1.0" xmlns:odoo-icon="https://ivantodorovich.github.io/odoo-icon" odoo-icon:size="70" odoo-icon:icon-size="0.62" odoo-icon:icon-color="#FFFFFF" odoo-icon:icon-flat-shadow-angle="135" odoo-icon:background-color="#000000" odoo-icon:background-gradient="0.2" odoo-icon:box-radius="3.5" odoo-icon:odoo-version="14.0"><defs><linearGradient x1="70" y1="0" x2="0" y2="70" gradientUnits="userSpaceOnUse" id="color-1"><stop offset="0" stop-color="#333333"/><stop offset="1" stop-color="#000000"/></linearGradient></defs><g fill="none" fill-rule="nonzero" stroke="none" stroke-width="1" stroke-linecap="butt" stroke-linejoin="miter" stroke-miterlimit="10" stroke-dasharray="" stroke-dashoffset="0" font-family="none" font-weight="none" font-size="none" text-anchor="none" style="mix-blend-mode: normal"><path d="M3.5,70c-1.933,0 -3.5,-1.567 -3.5,-3.5v-63c0,-1.933 1.567,-3.5 3.5,-3.5h63c1.933,0 3.5,1.567 3.5,3.5v63c0,1.933 -1.567,3.5 -3.5,3.5z" id="box" fill="url(#color-1)"/><path d="M65,1h-61c-1.95033,0 -3.2667,0.63396 -3.9491,1.90189c0.28378,-1.64806 1.72001,-2.90189 3.4491,-2.90189h63c1.72965,0 3.16627,1.25466 3.44938,2.90352c-0.69803,-1.26902 -2.34782,-1.90352 -4.94938,-1.90352z" id="topBoxShadow" fill="#ffffff" opacity="0.383"/><path d="M4,69h61c2.66667,0 4.33333,-1 5,-3v0.5c0,1.933 -1.567,3.5 -3.5,3.5h-63c-1.933,0 -3.5,-1.567 -3.5,-3.5c0,-0.1611 0,-0.32777 0,-0.5c0.66667,2 2,3 4,3z" id="bottomBoxShadow" fill="#000000" opacity="0.383"/><path d="M35,15c-12.13993,0 -22,9.86007 -22,22c0,12.13993 9.86007,22 22,22c12.13993,0 22,-9.86007 22,-22c0,-12.13993 -9.86007,-22 -22,-22zM35,16.69975c2.50998,0 4.91215,0.45539 7.13013,1.28641l-1.83221,4.88604c2.01833,0.75415 3.85198,1.93131 5.37769,3.45267l3.68278,-3.68278c1.79305,1.79256 3.23416,3.90468 4.24936,6.22756l-4.1169,3.84376l5.54158,0.98668c0.07445,0.45636 0.13343,0.91514 0.17645,1.37585l-4.88217,0.46506l-0.83585,-2.82711l-0.85664,-2.89769l-4.25516,3.97236c-1.33814,-3.89404 -5.03784,-6.70181 -9.37954,-6.70181c-1.34539,0 -2.6289,0.27024 -3.79977,0.75802l0.1634,-5.82197l-2.73912,1.27481l-2.73912,1.27481l4.56069,3.62525c-3.18098,1.65285 -5.3598,4.97886 -5.3598,8.80377c0,4.18265 2.60521,7.76971 6.27784,9.22339l-4.15896,4.06614l2.85563,0.98765l2.85563,0.98765l-0.75754,-5.76685c0.9219,0.27652 1.87958,0.41672 2.84209,0.41623c5.46519,0 9.91421,-4.44902 9.91421,-9.91421c0.00048,-0.81265 -0.09959,-1.62191 -0.29683,-2.40991l5.46616,0.97315l-0.05801,0.0058c0.04979,0.47521 0.07735,0.95284 0.0817,1.43096c-0.00773,6.02597 -3.59576,11.47135 -9.13057,13.85563l2.06667,4.79081c-2.46598,1.06355 -5.1848,1.65382 -8.04333,1.65382c-1.41307,0.00048 -2.82276,-0.146 -4.20585,-0.43654l-0.73385,-5.58702l-4.03085,3.94093c-2.26053,-1.11479 -4.29432,-2.63954 -5.99745,-4.49736l3.8428,-3.52277c-2.5559,-2.78166 -3.97671,-6.41997 -3.98203,-10.1975c0.00338,-4.00523 1.59774,-7.84513 4.43162,-10.67562l-3.68278,-3.68278c1.08095,-1.08047 2.28035,-2.03621 3.57546,-2.84838l4.40744,3.50294l0.15808,-5.62763c1.95935,-0.62846 4.04777,-0.96928 6.21741,-0.96928zM35,28.78553c2.86385,0 5.37818,1.45513 6.84781,3.66876l-3.94673,3.68471l5.31243,0.94608c-0.04544,4.50703 -3.69487,8.12938 -8.2135,8.12938c-0.09572,0 -0.19096,-0.00242 -0.28522,-0.0058l-0.70339,-5.35352l-3.86455,3.77802c-2.0396,-1.49284 -3.3613,-3.90468 -3.3613,-6.63365c0,-2.42731 1.04566,-4.60323 2.71205,-6.10526l4.22616,3.35937l0.15131,-5.39219c0.37273,-0.05076 0.74835,-0.07638 1.12495,-0.07638zM35,33.97855c-1.66881,0 -3.02145,1.35264 -3.02145,3.02145c0,1.66881 1.35264,3.02145 3.02145,3.02145c1.66881,0 3.02145,-1.35264 3.02145,-3.02145c0,-1.66881 -1.35264,-3.02145 -3.02145,-3.02145z" id="shadow" fill="#000000" opacity="0.3"/><path d="M50.55247,50.55247l-19.44753,19.44753h-27.60495c-1.933,0 -3.5,-1.567 -3.5,-3.5l0,-27.60495l19.44753,-19.44753c3.98251,-3.98251 9.48251,-6.44753 15.55247,-6.44753c12.13993,0 22,9.86007 22,22c0,6.06997 -2.46502,11.56997 -6.44753,15.55247z" id="flatShadow" fill="#000000" opacity="0.324"/><path d="M35,13c-12.13993,0 -22,9.86007 -22,22c0,12.13993 9.86007,22 22,22c12.13993,0 22,-9.86007 22,-22c0,-12.13993 -9.86007,-22 -22,-22zM35,14.69975c2.50998,0 4.91215,0.45539 7.13013,1.28641l-1.83221,4.88604c2.01833,0.75415 3.85198,1.93131 5.37769,3.45267l3.68278,-3.68278c1.79305,1.79256 3.23416,3.90468 4.24936,6.22756l-4.1169,3.84376l5.54158,0.98668c0.07445,0.45636 0.13343,0.91514 0.17645,1.37585l-4.88217,0.46506l-0.83585,-2.82711l-0.85664,-2.89769l-4.25516,3.97236c-1.33814,-3.89404 -5.03784,-6.70181 -9.37954,-6.70181c-1.34539,0 -2.6289,0.27024 -3.79977,0.75802l0.1634,-5.82197l-2.73912,1.27481l-2.73912,1.27481l4.56069,3.62525c-3.18098,1.65285 -5.3598,4.97886 -5.3598,8.80377c0,4.18265 2.60521,7.76971 6.27784,9.22339l-4.15896,4.06614l2.85563,0.98765l2.85563,0.98765l-0.75754,-5.76685c0.9219,0.27652 1.87958,0.41672 2.84209,0.41623c5.46519,0 9.91421,-4.44902 9.91421,-9.91421c0.00048,-0.81265 -0.09959,-1.62191 -0.29683,-2.40991l5.46616,0.97315l-0.05801,0.0058c0.04979,0.47521 0.07735,0.95284 0.0817,1.43096c-0.00773,6.02597 -3.59576,11.47135 -9.13057,13.85563l2.06667,4.79081c-2.46598,1.06355 -5.1848,1.65382 -8.04333,1.65382c-1.41307,0.00048 -2.82276,-0.146 -4.20585,-0.43654l-0.73385,-5.58702l-4.03085,3.94093c-2.26053,-1.11479 -4.29432,-2.63954 -5.99745,-4.49736l3.8428,-3.52277c-2.5559,-2.78166 -3.97671,-6.41997 -3.98203,-10.1975c0.00338,-4.00523 1.59774,-7.84513 4.43162,-10.67562l-3.68278,-3.68278c1.08095,-1.08047 2.28035,-2.03621 3.57546,-2.84838l4.40744,3.50294l0.15808,-5.62763c1.95935,-0.62846 4.04777,-0.96928 6.21741,-0.96928zM35,26.78553c2.86385,0 5.37818,1.45513 6.84781,3.66876l-3.94673,3.68471l5.31243,0.94608c-0.04544,4.50703 -3.69487,8.12938 -8.2135,8.12938c-0.09572,0 -0.19096,-0.00242 -0.28522,-0.0058l-0.70339,-5.35352l-3.86455,3.77802c-2.0396,-1.49284 -3.3613,-3.90468 -3.3613,-6.63365c0,-2.42731 1.04566,-4.60323 2.71205,-6.10526l4.22616,3.35937l0.15131,-5.39219c0.37273,-0.05076 0.74835,-0.07638 1.12495,-0.07638zM35,31.97855c-1.66881,0 -3.02145,1.35264 -3.02145,3.02145c0,1.66881 1.35264,3.02145 3.02145,3.02145c1.66881,0 3.02145,-1.35264 3.02145,-3.02145c0,-1.66881 -1.35264,-3.02145 -3.02145,-3.02145z" id="icon" fill="#ffffff"/></g></svg>