<svg version="1.1" xmlns="http://www.w3.org/2000/svg" xmlns:xlink="http://www.w3.org/1999/xlink" width="70" height="70" viewBox="0,0,70,70" odoo-icon:version="1.0" xmlns:odoo-icon="https://ivantodorovich.github.io/odoo-icon" odoo-icon:size="70" odoo-icon:icon-size="0.6" odoo-icon:icon-color="#FFFFFF" odoo-icon:icon-flat-shadow-angle="135" odoo-icon:background-color="#ffb300" odoo-icon:background-gradient="0.2" odoo-icon:box-radius="3.5" odoo-icon:odoo-version="14.0"><defs><linearGradient x1="70" y1="0" x2="0" y2="70" gradientUnits="userSpaceOnUse" id="color-1"><stop offset="0" stop-color="#ffe633"/><stop offset="1" stop-color="#ffb300"/></linearGradient></defs><g fill="none" fill-rule="nonzero" stroke="none" stroke-width="1" stroke-linecap="butt" stroke-linejoin="miter" stroke-miterlimit="10" stroke-dasharray="" stroke-dashoffset="0" font-family="none" font-weight="none" font-size="none" text-anchor="none" style="mix-blend-mode: normal"><path d="M3.5,70c-1.933,0 -3.5,-1.567 -3.5,-3.5v-63c0,-1.933 1.567,-3.5 3.5,-3.5h63c1.933,0 3.5,1.567 3.5,3.5v63c0,1.933 -1.567,3.5 -3.5,3.5z" id="box" fill="url(#color-1)"/><path d="M65,1h-61c-1.95033,0 -3.2667,0.63396 -3.9491,1.90189c0.28378,-1.64806 1.72001,-2.90189 3.4491,-2.90189h63c1.72965,0 3.16627,1.25466 3.44938,2.90352c-0.69803,-1.26902 -2.34782,-1.90352 -4.94938,-1.90352z" id="topBoxShadow" fill="#ffffff" opacity="0.383"/><path d="M4,69h61c2.66667,0 4.33333,-1 5,-3v0.5c0,1.933 -1.567,3.5 -3.5,3.5h-63c-1.933,0 -3.5,-1.567 -3.5,-3.5c0,-0.1611 0,-0.32777 0,-0.5c0.66667,2 2,3 4,3z" id="bottomBoxShadow" fill="#000000" opacity="0.383"/><path d="M39.99155,23.81376c2.12949,0 3.90688,-1.79708 3.90688,-3.90688c0,-2.15762 -1.74926,-3.90688 -3.90688,-3.90688c-2.1684,0 -3.90688,1.71925 -3.90688,3.90688c0,2.1098 1.73847,3.90688 3.90688,3.90688M32.9392,50.92842l1.95367,-8.55641l4.12208,3.90688v11.7211h3.90688v-14.65138l-4.12208,-3.90688l1.1918,-5.86055c2.70664,3.10516 6.62524,4.88629 10.7445,4.88395v-3.90688c-3.73106,0 -6.83715,-1.95367 -8.4195,-4.72736l-1.95367,-3.0864c-0.78156,-1.21102 -1.95367,-1.95367 -3.3016,-1.95367c-0.60575,0 -0.9766,0.15613 -1.58235,0.15613l-10.13876,4.29789v9.22076h3.90688v-6.68103l3.49664,-1.36762l-3.12578,15.86241l-9.57239,-1.95367l-0.78156,3.90688z" id="shadow" fill="#000000" opacity="0.3"/><path d="M37.22029,15.13774c0.70603,-0.70603 1.68466,-1.13774 2.77126,-1.13774c2.15762,0 3.90688,1.74926 3.90688,3.90688c0,1.05735 -0.44641,2.03616 -1.15984,2.74958l-3.15435,3.15435c0.28924,0.26681 0.55057,0.58031 0.77863,0.9337l1.95367,3.0864c1.58235,2.77368 4.68844,4.72736 8.4195,4.72736v3.90688l-7.81423,7.81423v11.72064l-14,14h-25.42183c-1.933,0 -3.5,-1.567 -3.5,-3.5l0,-14.14197z" id="flatShadow" fill="#000000" opacity="0.324"/><path d="M39.99155,21.81376c2.12949,0 3.90688,-1.79708 3.90688,-3.90688c0,-2.15762 -1.74926,-3.90688 -3.90688,-3.90688c-2.1684,0 -3.90688,1.71925 -3.90688,3.90688c0,2.1098 1.73847,3.90688 3.90688,3.90688M32.9392,48.92842l1.95367,-8.55641l4.12208,3.90688v11.7211h3.90688v-14.65138l-4.12208,-3.90688l1.1918,-5.86055c2.70664,3.10516 6.62524,4.88629 10.7445,4.88395v-3.90688c-3.73106,0 -6.83715,-1.95367 -8.4195,-4.72736l-1.95367,-3.0864c-0.78156,-1.21102 -1.95367,-1.95367 -3.3016,-1.95367c-0.60575,0 -0.9766,0.15613 -1.58235,0.15613l-10.13876,4.29789v9.22076h3.90688v-6.68103l3.49664,-1.36762l-3.12578,15.86241l-9.57239,-1.95367l-0.78156,3.90688z" id="icon" fill="#ffffff"/></g></svg>