<svg version="1.1" xmlns="http://www.w3.org/2000/svg" xmlns:xlink="http://www.w3.org/1999/xlink" width="70" height="70" viewBox="0,0,70,70" odoo-icon:version="1.0" xmlns:odoo-icon="https://ivantodorovich.github.io/odoo-icon" odoo-icon:size="70" odoo-icon:icon-size="0.63" odoo-icon:icon-color="#FFFFFF" odoo-icon:icon-flat-shadow-angle="135" odoo-icon:background-color="#5a9442" odoo-icon:background-gradient="0.2" odoo-icon:box-radius="3.5" odoo-icon:odoo-version="14.0"><defs><linearGradient x1="70" y1="0" x2="0" y2="70" gradientUnits="userSpaceOnUse" id="color-1"><stop offset="0" stop-color="#8dc775"/><stop offset="1" stop-color="#5a9442"/></linearGradient></defs><g fill="none" fill-rule="nonzero" stroke="none" stroke-width="1" stroke-linecap="butt" stroke-linejoin="miter" stroke-miterlimit="10" stroke-dasharray="" stroke-dashoffset="0" font-family="none" font-weight="none" font-size="none" text-anchor="none" style="mix-blend-mode: normal"><path d="M3.5,70c-1.933,0 -3.5,-1.567 -3.5,-3.5v-63c0,-1.933 1.567,-3.5 3.5,-3.5h63c1.933,0 3.5,1.567 3.5,3.5v63c0,1.933 -1.567,3.5 -3.5,3.5z" id="box" fill="url(#color-1)"/><path d="M65,1h-61c-1.95033,0 -3.2667,0.63396 -3.9491,1.90189c0.28378,-1.64806 1.72001,-2.90189 3.4491,-2.90189h63c1.72965,0 3.16627,1.25466 3.44938,2.90352c-0.69803,-1.26902 -2.34782,-1.90352 -4.94938,-1.90352z" id="topBoxShadow" fill="#ffffff" opacity="0.383"/><path d="M4,69h61c2.66667,0 4.33333,-1 5,-3v0.5c0,1.933 -1.567,3.5 -3.5,3.5h-63c-1.933,0 -3.5,-1.567 -3.5,-3.5c0,-0.1611 0,-0.32777 0,-0.5c0.66667,2 2,3 4,3z" id="bottomBoxShadow" fill="#000000" opacity="0.383"/><path d="M50.41843,38.95745l4.73963,-4.73963v20.54255c0,2.61752 -2.12211,4.73963 -4.73963,4.73963h-33.17852c-2.6141,0 -4.73963,-2.12325 -4.73963,-4.73963v-33.17852c0,-2.61638 2.12552,-4.73963 4.73963,-4.73963h20.96686l-4.73963,4.73963h-16.22666v33.17852h7.05967c0.08077,0.00228 0.15869,0.02389 0.23718,0.02389c0.06143,0 0.1257,-0.02389 0.18713,-0.02389h25.69454zM50.38999,14.5l7.10972,7.10972l-5.41988,5.42216l-7.10972,-7.10972zM24.34907,40.54093l17.26923,-17.26923l7.10972,7.10972l-17.26923,17.26923h-7.10972z" id="shadow" fill="#000000" opacity="0.3"/><path d="M55.15806,32.21782v20.54255c0,1.30876 -0.53053,2.49366 -1.38824,3.35138l-13.88824,13.88824h-36.38157c-1.933,0 -3.5,-1.567 -3.5,-3.5l0,-36.37929l13.88925,-13.88925c0.85819,-0.85819 2.04333,-1.38923 3.35066,-1.38923h20.96686l-20.96629,20.96629v9.84099l33.14951,-33.14951l7.10972,7.10972l-5.41988,5.42216l-27.73182,27.73182c0.06391,0.00669 0.12643,0.02056 0.18932,0.02056c0.06143,0 0.1257,-0.02389 0.18713,-0.02389h9.89105z" id="flatShadow" fill="#000000" opacity="0.324"/><path d="M50.41843,36.95745l4.73963,-4.73963v20.54255c0,2.61752 -2.12211,4.73963 -4.73963,4.73963h-33.17852c-2.6141,0 -4.73963,-2.12325 -4.73963,-4.73963v-33.17852c0,-2.61638 2.12552,-4.73963 4.73963,-4.73963h20.96686l-4.73963,4.73963h-16.22666v33.17852h7.05967c0.08077,0.00228 0.15869,0.02389 0.23718,0.02389c0.06143,0 0.1257,-0.02389 0.18713,-0.02389h25.69454zM50.38999,12.5l7.10972,7.10972l-5.41988,5.42216l-7.10972,-7.10972zM24.34907,38.54093l17.26923,-17.26923l7.10972,7.10972l-17.26923,17.26923h-7.10972z" id="icon" fill="#ffffff"/></g></svg>