<svg version="1.1" xmlns="http://www.w3.org/2000/svg" xmlns:xlink="http://www.w3.org/1999/xlink" width="70" height="70" viewBox="0,0,70,70"><!-- Generated with https://ivantodorovich.github.io/odoo-icon --><defs><linearGradient x1="70" y1="0" x2="0" y2="70" gradientUnits="userSpaceOnUse" id="color-1"><stop offset="0" stop-color="#a8a8a8"/><stop offset="1" stop-color="#757575"/></linearGradient></defs><g fill="none" fill-rule="nonzero" stroke="none" stroke-width="1" stroke-linecap="butt" stroke-linejoin="miter" stroke-miterlimit="10" stroke-dasharray="" stroke-dashoffset="0" font-family="none" font-weight="none" font-size="none" text-anchor="none" style="mix-blend-mode: normal"><path d="M3.5,70c-1.933,0 -3.5,-1.567 -3.5,-3.5v-63c0,-1.933 1.567,-3.5 3.5,-3.5h63c1.933,0 3.5,1.567 3.5,3.5v63c0,1.933 -1.567,3.5 -3.5,3.5z" id="box" fill="url(#color-1)"/><path d="M65,1h-61c-1.95033,0 -3.2667,0.63396 -3.9491,1.90189c0.28378,-1.64806 1.72001,-2.90189 3.4491,-2.90189h63c1.72965,0 3.16627,1.25466 3.44938,2.90352c-0.69803,-1.26902 -2.34782,-1.90352 -4.94938,-1.90352z" id="topBoxShadow" fill="#ffffff" opacity="0.383"/><path d="M4,69h61c2.66667,0 4.33333,-1 5,-3v0.5c0,1.933 -1.567,3.5 -3.5,3.5h-63c-1.933,0 -3.5,-1.567 -3.5,-3.5c0,-0.1611 0,-0.32777 0,-0.5c0.66667,2 2,3 4,3z" id="bottomBoxShadow" fill="#000000" opacity="0.383"/><path d="M39.5,27.36712c-0.33984,0.19908 -0.69732,0.35172 -1.07244,0.4572c-0.37512,0.10548 -0.76752,0.16416 -1.17756,0.17568v-2.25c0.31644,0 0.60948,-0.05868 0.87876,-0.17568c0.26964,-0.11736 0.504,-0.2754 0.70308,-0.47448c0.19908,-0.19908 0.36324,-0.43956 0.49212,-0.72072c0.12888,-0.28116 0.18756,-0.5742 0.17568,-0.87876h2.25v11.25h-2.25zM42.875,50.5h-6.75v-0.43956c0,-0.14076 -0.00576,-0.29304 -0.01764,-0.4572c0,-0.29304 0.01764,-0.57996 0.05256,-0.86148c0.03528,-0.28116 0.10548,-0.56232 0.21096,-0.84384c0.12888,-0.32796 0.3222,-0.6444 0.57996,-0.94932c0.25776,-0.30456 0.54504,-0.60948 0.86148,-0.91404c0.31644,-0.30456 0.63864,-0.5976 0.96696,-0.87876c0.32796,-0.28116 0.63288,-0.56844 0.91404,-0.86148c0.28116,-0.29304 0.504,-0.5742 0.6678,-0.84384c0.16416,-0.26964 0.252,-0.54504 0.26352,-0.8262c0,-0.31644 -0.11124,-0.57996 -0.33408,-0.79092c-0.22248,-0.21096 -0.48636,-0.3222 -0.79092,-0.33408c-0.26964,0 -0.504,0.08208 -0.70308,0.24624c-0.19908,0.16416 -0.33408,0.38088 -0.40428,0.65052l-2.19744,-0.4572c0.0702,-0.38664 0.2052,-0.74412 0.40428,-1.07244c0.19908,-0.32796 0.4572,-0.60948 0.77328,-0.84384c0.31644,-0.23436 0.65052,-0.42192 1.00188,-0.56232c0.35172,-0.14076 0.72648,-0.21096 1.125,-0.21096c0.46872,0 0.90828,0.08784 1.31832,0.26352c0.41004,0.17568 0.76752,0.41616 1.07244,0.72072c0.30456,0.30456 0.54504,0.66204 0.72072,1.07244c0.17568,0.41004 0.26352,0.8496 0.26352,1.31832c0,0.69156 -0.14652,1.28916 -0.43956,1.7928c-0.29304,0.504 -0.65052,0.96696 -1.07244,1.38852c-0.42192,0.42192 -0.873,0.82044 -1.3536,1.1952c-0.4806,0.37512 -0.90252,0.79092 -1.26576,1.24812h4.131zM26.2286,34.71472h-2.00376l4.131,-11.03904h2.05668l4.11336,11.03904h-2.0214l-0.98424,-2.81232h-4.34196zM29.32244,25.31044c-0.0234,0.12888 -0.04104,0.252 -0.05256,0.369c-0.01188,0.11736 -0.04104,0.2286 -0.08784,0.33408l-1.52928,4.39452h3.39264l-1.54692,-4.39452c-0.03528,-0.10548 -0.06444,-0.21672 -0.08784,-0.33408c-0.0234,-0.11736 -0.05256,-0.24012 -0.08784,-0.369zM26.2286,50.46472h-2.00376l4.131,-11.03904h2.05668l4.11336,11.03904h-2.0214l-0.98424,-2.81232h-4.34196zM29.32244,41.06044c-0.0234,0.12888 -0.04104,0.252 -0.05256,0.369c-0.01188,0.11736 -0.04104,0.2286 -0.08784,0.33408l-1.52928,4.39452h3.39264l-1.54692,-4.39452c-0.03528,-0.10548 -0.06444,-0.21672 -0.08784,-0.33408c-0.0234,-0.11736 -0.05256,-0.24012 -0.08784,-0.369zM44.03528,36.87688c0.24624,0 0.44532,-0.0702 0.5976,-0.21096c0.15228,-0.14076 0.26964,-0.31068 0.35172,-0.50976c0.08208,-0.19908 0.13464,-0.42192 0.15804,-0.6678c0.0234,-0.24624 0.04104,-0.4572 0.05256,-0.63288h-1.1952v-2.3202h2.25v2.3202c0,0.35172 -0.03528,0.70884 -0.10548,1.07244c-0.0702,0.36324 -0.19332,0.69156 -0.369,0.98424c-0.17568,0.29304 -0.40428,0.53892 -0.68544,0.73836c-0.28116,0.19908 -0.63288,0.29304 -1.0548,0.28116zM53,19v36h-36v-36zM50.75,21.25h-31.5v31.5h31.5z" id="shadow" fill="#000000" opacity="0.3"/><path d="M53,53l-17,17h-32.5c-1.933,0 -3.5,-1.567 -3.5,-3.5l0,-32.5l17,-17h36z" id="flatShadow" fill="#000000" opacity="0.324"/><path d="M39.5,25.36712c-0.33984,0.19908 -0.69732,0.35172 -1.07244,0.4572c-0.37512,0.10548 -0.76752,0.16416 -1.17756,0.17568v-2.25c0.31644,0 0.60948,-0.05868 0.87876,-0.17568c0.26964,-0.11736 0.504,-0.2754 0.70308,-0.47448c0.19908,-0.19908 0.36324,-0.43956 0.49212,-0.72072c0.12888,-0.28116 0.18756,-0.5742 0.17568,-0.87876h2.25v11.25h-2.25zM42.875,48.5h-6.75v-0.43956c0,-0.14076 -0.00576,-0.29304 -0.01764,-0.4572c0,-0.29304 0.01764,-0.57996 0.05256,-0.86148c0.03528,-0.28116 0.10548,-0.56232 0.21096,-0.84384c0.12888,-0.32796 0.3222,-0.6444 0.57996,-0.94932c0.25776,-0.30456 0.54504,-0.60948 0.86148,-0.91404c0.31644,-0.30456 0.63864,-0.5976 0.96696,-0.87876c0.32796,-0.28116 0.63288,-0.56844 0.91404,-0.86148c0.28116,-0.29304 0.504,-0.5742 0.6678,-0.84384c0.16416,-0.26964 0.252,-0.54504 0.26352,-0.8262c0,-0.31644 -0.11124,-0.57996 -0.33408,-0.79092c-0.22248,-0.21096 -0.48636,-0.3222 -0.79092,-0.33408c-0.26964,0 -0.504,0.08208 -0.70308,0.24624c-0.19908,0.16416 -0.33408,0.38088 -0.40428,0.65052l-2.19744,-0.4572c0.0702,-0.38664 0.2052,-0.74412 0.40428,-1.07244c0.19908,-0.32796 0.4572,-0.60948 0.77328,-0.84384c0.31644,-0.23436 0.65052,-0.42192 1.00188,-0.56232c0.35172,-0.14076 0.72648,-0.21096 1.125,-0.21096c0.46872,0 0.90828,0.08784 1.31832,0.26352c0.41004,0.17568 0.76752,0.41616 1.07244,0.72072c0.30456,0.30456 0.54504,0.66204 0.72072,1.07244c0.17568,0.41004 0.26352,0.8496 0.26352,1.31832c0,0.69156 -0.14652,1.28916 -0.43956,1.7928c-0.29304,0.504 -0.65052,0.96696 -1.07244,1.38852c-0.42192,0.42192 -0.873,0.82044 -1.3536,1.1952c-0.4806,0.37512 -0.90252,0.79092 -1.26576,1.24812h4.131zM26.2286,32.71472h-2.00376l4.131,-11.03904h2.05668l4.11336,11.03904h-2.0214l-0.98424,-2.81232h-4.34196zM29.32244,23.31044c-0.0234,0.12888 -0.04104,0.252 -0.05256,0.369c-0.01188,0.11736 -0.04104,0.2286 -0.08784,0.33408l-1.52928,4.39452h3.39264l-1.54692,-4.39452c-0.03528,-0.10548 -0.06444,-0.21672 -0.08784,-0.33408c-0.0234,-0.11736 -0.05256,-0.24012 -0.08784,-0.369zM26.2286,48.46472h-2.00376l4.131,-11.03904h2.05668l4.11336,11.03904h-2.0214l-0.98424,-2.81232h-4.34196zM29.32244,39.06044c-0.0234,0.12888 -0.04104,0.252 -0.05256,0.369c-0.01188,0.11736 -0.04104,0.2286 -0.08784,0.33408l-1.52928,4.39452h3.39264l-1.54692,-4.39452c-0.03528,-0.10548 -0.06444,-0.21672 -0.08784,-0.33408c-0.0234,-0.11736 -0.05256,-0.24012 -0.08784,-0.369zM44.03528,34.87688c0.24624,0 0.44532,-0.0702 0.5976,-0.21096c0.15228,-0.14076 0.26964,-0.31068 0.35172,-0.50976c0.08208,-0.19908 0.13464,-0.42192 0.15804,-0.6678c0.0234,-0.24624 0.04104,-0.4572 0.05256,-0.63288h-1.1952v-2.3202h2.25v2.3202c0,0.35172 -0.03528,0.70884 -0.10548,1.07244c-0.0702,0.36324 -0.19332,0.69156 -0.369,0.98424c-0.17568,0.29304 -0.40428,0.53892 -0.68544,0.73836c-0.28116,0.19908 -0.63288,0.29304 -1.0548,0.28116zM53,17v36h-36v-36zM50.75,19.25h-31.5v31.5h31.5z" id="icon" fill="#ffffff"/></g></svg>