<svg version="1.1" xmlns="http://www.w3.org/2000/svg" xmlns:xlink="http://www.w3.org/1999/xlink" width="70" height="70" viewBox="0,0,70,70" odoo-icon:version="1.0" xmlns:odoo-icon="https://ivantodorovich.github.io/odoo-icon" odoo-icon:size="70" odoo-icon:icon-size="0.57" odoo-icon:icon-color="#FFFFFF" odoo-icon:icon-flat-shadow-angle="135" odoo-icon:background-color="#e53935" odoo-icon:background-gradient="0.2" odoo-icon:box-radius="3.5" odoo-icon:odoo-version="14.0"><defs><linearGradient x1="70" y1="0" x2="0" y2="70" gradientUnits="userSpaceOnUse" id="color-1"><stop offset="0" stop-color="#ff6c68"/><stop offset="1" stop-color="#e53935"/></linearGradient></defs><g fill="none" fill-rule="nonzero" stroke="none" stroke-width="1" stroke-linecap="butt" stroke-linejoin="miter" stroke-miterlimit="10" stroke-dasharray="" stroke-dashoffset="0" font-family="none" font-weight="none" font-size="none" text-anchor="none" style="mix-blend-mode: normal"><path d="M3.5,70c-1.933,0 -3.5,-1.567 -3.5,-3.5v-63c0,-1.933 1.567,-3.5 3.5,-3.5h63c1.933,0 3.5,1.567 3.5,3.5v63c0,1.933 -1.567,3.5 -3.5,3.5z" id="box" fill="url(#color-1)"/><path d="M65,1h-61c-1.95033,0 -3.2667,0.63396 -3.9491,1.90189c0.28378,-1.64806 1.72001,-2.90189 3.4491,-2.90189h63c1.72965,0 3.16627,1.25466 3.44938,2.90352c-0.69803,-1.26902 -2.34782,-1.90352 -4.94938,-1.90352z" id="topBoxShadow" fill="#ffffff" opacity="0.383"/><path d="M4,69h61c2.66667,0 4.33333,-1 5,-3v0.5c0,1.933 -1.567,3.5 -3.5,3.5h-63c-1.933,0 -3.5,-1.567 -3.5,-3.5c0,-0.1611 0,-0.32777 0,-0.5c0.66667,2 2,3 4,3z" id="bottomBoxShadow" fill="#000000" opacity="0.383"/><path d="M40,26.2968c-0.3776,0.2212 -0.7748,0.3908 -1.1916,0.508c-0.4168,0.1172 -0.8528,0.1824 -1.3084,0.1952v-2.5c0.3516,0 0.6772,-0.0652 0.9764,-0.1952c0.2996,-0.1304 0.56,-0.306 0.7812,-0.5272c0.2212,-0.2212 0.4036,-0.4884 0.5468,-0.8008c0.1432,-0.3124 0.2084,-0.638 0.1952,-0.9764h2.5v12.5h-2.5zM43.75,52h-7.5v-0.4884c0,-0.1564 -0.0064,-0.3256 -0.0196,-0.508c0,-0.3256 0.0196,-0.6444 0.0584,-0.9572c0.0392,-0.3124 0.1172,-0.6248 0.2344,-0.9376c0.1432,-0.3644 0.358,-0.716 0.6444,-1.0548c0.2864,-0.3384 0.6056,-0.6772 0.9572,-1.0156c0.3516,-0.3384 0.7096,-0.664 1.0744,-0.9764c0.3644,-0.3124 0.7032,-0.6316 1.0156,-0.9572c0.3124,-0.3256 0.56,-0.638 0.742,-0.9376c0.1824,-0.2996 0.28,-0.6056 0.2928,-0.918c0,-0.3516 -0.1236,-0.6444 -0.3712,-0.8788c-0.2472,-0.2344 -0.5404,-0.358 -0.8788,-0.3712c-0.2996,0 -0.56,0.0912 -0.7812,0.2736c-0.2212,0.1824 -0.3712,0.4232 -0.4492,0.7228l-2.4416,-0.508c0.078,-0.4296 0.228,-0.8268 0.4492,-1.1916c0.2212,-0.3644 0.508,-0.6772 0.8592,-0.9376c0.3516,-0.2604 0.7228,-0.4688 1.1132,-0.6248c0.3908,-0.1564 0.8072,-0.2344 1.25,-0.2344c0.5208,0 1.0092,0.0976 1.4648,0.2928c0.4556,0.1952 0.8528,0.4624 1.1916,0.8008c0.3384,0.3384 0.6056,0.7356 0.8008,1.1916c0.1952,0.4556 0.2928,0.944 0.2928,1.4648c0,0.7684 -0.1628,1.4324 -0.4884,1.992c-0.3256,0.56 -0.7228,1.0744 -1.1916,1.5428c-0.4688,0.4688 -0.97,0.9116 -1.504,1.328c-0.534,0.4168 -1.0028,0.8788 -1.4064,1.3868h4.59zM25.254,34.4608h-2.2264l4.59,-12.2656h2.2852l4.5704,12.2656h-2.246l-1.0936,-3.1248h-4.8244zM28.6916,24.0116c-0.026,0.1432 -0.0456,0.28 -0.0584,0.41c-0.0132,0.1304 -0.0456,0.254 -0.0976,0.3712l-1.6992,4.8828h3.7696l-1.7188,-4.8828c-0.0392,-0.1172 -0.0716,-0.2408 -0.0976,-0.3712c-0.026,-0.1304 -0.0584,-0.2668 -0.0976,-0.41zM25.254,51.9608h-2.2264l4.59,-12.2656h2.2852l4.5704,12.2656h-2.246l-1.0936,-3.1248h-4.8244zM28.6916,41.5116c-0.026,0.1432 -0.0456,0.28 -0.0584,0.41c-0.0132,0.1304 -0.0456,0.254 -0.0976,0.3712l-1.6992,4.8828h3.7696l-1.7188,-4.8828c-0.0392,-0.1172 -0.0716,-0.2408 -0.0976,-0.3712c-0.026,-0.1304 -0.0584,-0.2668 -0.0976,-0.41zM45.0392,36.8632c0.2736,0 0.4948,-0.078 0.664,-0.2344c0.1692,-0.1564 0.2996,-0.3452 0.3908,-0.5664c0.0912,-0.2212 0.1496,-0.4688 0.1756,-0.742c0.026,-0.2736 0.0456,-0.508 0.0584,-0.7032h-1.328v-2.578h2.5v2.578c0,0.3908 -0.0392,0.7876 -0.1172,1.1916c-0.078,0.4036 -0.2148,0.7684 -0.41,1.0936c-0.1952,0.3256 -0.4492,0.5988 -0.7616,0.8204c-0.3124,0.2212 -0.7032,0.3256 -1.172,0.3124zM55,17v40h-40v-40zM52.5,19.5h-35v35h35z" id="shadow" fill="#000000" opacity="0.3"/><path d="M55,55l-15,15h-36.5c-1.933,0 -3.5,-1.567 -3.5,-3.5l0,-36.5l15,-15h40z" id="flatShadow" fill="#000000" opacity="0.324"/><path d="M40,24.2968c-0.3776,0.2212 -0.7748,0.3908 -1.1916,0.508c-0.4168,0.1172 -0.8528,0.1824 -1.3084,0.1952v-2.5c0.3516,0 0.6772,-0.0652 0.9764,-0.1952c0.2996,-0.1304 0.56,-0.306 0.7812,-0.5272c0.2212,-0.2212 0.4036,-0.4884 0.5468,-0.8008c0.1432,-0.3124 0.2084,-0.638 0.1952,-0.9764h2.5v12.5h-2.5zM43.75,50h-7.5v-0.4884c0,-0.1564 -0.0064,-0.3256 -0.0196,-0.508c0,-0.3256 0.0196,-0.6444 0.0584,-0.9572c0.0392,-0.3124 0.1172,-0.6248 0.2344,-0.9376c0.1432,-0.3644 0.358,-0.716 0.6444,-1.0548c0.2864,-0.3384 0.6056,-0.6772 0.9572,-1.0156c0.3516,-0.3384 0.7096,-0.664 1.0744,-0.9764c0.3644,-0.3124 0.7032,-0.6316 1.0156,-0.9572c0.3124,-0.3256 0.56,-0.638 0.742,-0.9376c0.1824,-0.2996 0.28,-0.6056 0.2928,-0.918c0,-0.3516 -0.1236,-0.6444 -0.3712,-0.8788c-0.2472,-0.2344 -0.5404,-0.358 -0.8788,-0.3712c-0.2996,0 -0.56,0.0912 -0.7812,0.2736c-0.2212,0.1824 -0.3712,0.4232 -0.4492,0.7228l-2.4416,-0.508c0.078,-0.4296 0.228,-0.8268 0.4492,-1.1916c0.2212,-0.3644 0.508,-0.6772 0.8592,-0.9376c0.3516,-0.2604 0.7228,-0.4688 1.1132,-0.6248c0.3908,-0.1564 0.8072,-0.2344 1.25,-0.2344c0.5208,0 1.0092,0.0976 1.4648,0.2928c0.4556,0.1952 0.8528,0.4624 1.1916,0.8008c0.3384,0.3384 0.6056,0.7356 0.8008,1.1916c0.1952,0.4556 0.2928,0.944 0.2928,1.4648c0,0.7684 -0.1628,1.4324 -0.4884,1.992c-0.3256,0.56 -0.7228,1.0744 -1.1916,1.5428c-0.4688,0.4688 -0.97,0.9116 -1.504,1.328c-0.534,0.4168 -1.0028,0.8788 -1.4064,1.3868h4.59zM25.254,32.4608h-2.2264l4.59,-12.2656h2.2852l4.5704,12.2656h-2.246l-1.0936,-3.1248h-4.8244zM28.6916,22.0116c-0.026,0.1432 -0.0456,0.28 -0.0584,0.41c-0.0132,0.1304 -0.0456,0.254 -0.0976,0.3712l-1.6992,4.8828h3.7696l-1.7188,-4.8828c-0.0392,-0.1172 -0.0716,-0.2408 -0.0976,-0.3712c-0.026,-0.1304 -0.0584,-0.2668 -0.0976,-0.41zM25.254,49.9608h-2.2264l4.59,-12.2656h2.2852l4.5704,12.2656h-2.246l-1.0936,-3.1248h-4.8244zM28.6916,39.5116c-0.026,0.1432 -0.0456,0.28 -0.0584,0.41c-0.0132,0.1304 -0.0456,0.254 -0.0976,0.3712l-1.6992,4.8828h3.7696l-1.7188,-4.8828c-0.0392,-0.1172 -0.0716,-0.2408 -0.0976,-0.3712c-0.026,-0.1304 -0.0584,-0.2668 -0.0976,-0.41zM45.0392,34.8632c0.2736,0 0.4948,-0.078 0.664,-0.2344c0.1692,-0.1564 0.2996,-0.3452 0.3908,-0.5664c0.0912,-0.2212 0.1496,-0.4688 0.1756,-0.742c0.026,-0.2736 0.0456,-0.508 0.0584,-0.7032h-1.328v-2.578h2.5v2.578c0,0.3908 -0.0392,0.7876 -0.1172,1.1916c-0.078,0.4036 -0.2148,0.7684 -0.41,1.0936c-0.1952,0.3256 -0.4492,0.5988 -0.7616,0.8204c-0.3124,0.2212 -0.7032,0.3256 -1.172,0.3124zM55,15v40h-40v-40zM52.5,17.5h-35v35h35z" id="icon" fill="#ffffff"/></g></svg>