<svg version="1.1" xmlns="http://www.w3.org/2000/svg" xmlns:xlink="http://www.w3.org/1999/xlink" width="70" height="70" viewBox="0,0,70,70" odoo-icon:version="1.0" xmlns:odoo-icon="https://ivantodorovich.github.io/odoo-icon" odoo-icon:size="70" odoo-icon:icon-size="0.55" odoo-icon:icon-color="#FFFFFF" odoo-icon:icon-flat-shadow-angle="135" odoo-icon:background-color="#5a9442" odoo-icon:background-gradient="0.2" odoo-icon:box-radius="3.5" odoo-icon:odoo-version="14.0"><defs><linearGradient x1="70" y1="0" x2="0" y2="70" gradientUnits="userSpaceOnUse" id="color-1"><stop offset="0" stop-color="#8dc775"/><stop offset="1" stop-color="#5a9442"/></linearGradient></defs><g fill="none" fill-rule="nonzero" stroke="none" stroke-width="1" stroke-linecap="butt" stroke-linejoin="miter" stroke-miterlimit="10" stroke-dasharray="" stroke-dashoffset="0" font-family="none" font-weight="none" font-size="none" text-anchor="none" style="mix-blend-mode: normal"><path d="M3.5,70c-1.933,0 -3.5,-1.567 -3.5,-3.5v-63c0,-1.933 1.567,-3.5 3.5,-3.5h63c1.933,0 3.5,1.567 3.5,3.5v63c0,1.933 -1.567,3.5 -3.5,3.5z" id="box" fill="url(#color-1)"/><path d="M65,1h-61c-1.95033,0 -3.2667,0.63396 -3.9491,1.90189c0.28378,-1.64806 1.72001,-2.90189 3.4491,-2.90189h63c1.72965,0 3.16627,1.25466 3.44938,2.90352c-0.69803,-1.26902 -2.34782,-1.90352 -4.94938,-1.90352z" id="topBoxShadow" fill="#ffffff" opacity="0.383"/><path d="M4,69h61c2.66667,0 4.33333,-1 5,-3v0.5c0,1.933 -1.567,3.5 -3.5,3.5h-63c-1.933,0 -3.5,-1.567 -3.5,-3.5c0,-0.1611 0,-0.32777 0,-0.5c0.66667,2 2,3 4,3z" id="bottomBoxShadow" fill="#000000" opacity="0.383"/><path d="M18.10654,56.49899v-6.32195h6.53285l-5.37366,-17.59626c-0.94829,-0.527 -1.73019,-1.29929 -2.34519,-2.31788c-0.6155,-1.01859 -0.92149,-2.10748 -0.91896,-3.26617c0,-1.75598 0.61449,-3.24898 1.84399,-4.47796c1.22949,-1.22949 2.72147,-1.84399 4.47594,-1.84399c1.36959,0 2.59048,0.3955 3.66268,1.1865c1.0717,0.791 1.81718,1.80049 2.23595,3.02847h6.74324v-2.10748c0,-0.5973 0.2023,-1.098 0.60691,-1.5026c0.4046,-0.4046 0.9053,-0.6064 1.5026,-0.60488c0.3161,0 0.6236,0.0703 0.923,0.2109c0.29941,0.1406 0.5533,0.35099 0.76268,0.63219l3.58227,-3.37187c0.3161,-0.3161 0.6939,-0.5184 1.1339,-0.60691c0.4395,-0.08851 0.86939,-0.02681 1.28968,0.18561l8.21853,3.79317c0.42129,0.2109 0.7116,0.5184 0.87041,0.923c0.15881,0.4046 0.1497,0.7996 -0.02731,1.18448c-0.2109,0.42129 -0.5184,0.6939 -0.923,0.81781c-0.4046,0.1234 -0.7996,0.09711 -1.18448,-0.07991l-7.58634,-3.47707l-4.95236,4.63626v2.95007l4.95236,4.53056l7.58634,-3.47707c0.3864,-0.1755 0.7905,-0.1932 1.21179,-0.0526c0.42129,0.1406 0.7202,0.4041 0.89569,0.7905c0.2109,0.42129 0.2281,0.82539 0.0526,1.21179c-0.1755,0.3864 -0.4744,0.68479 -0.89569,0.89569l-8.21853,3.89837c-0.42129,0.2109 -0.8522,0.27159 -1.2917,0.18308c-0.4395,-0.08851 -0.8168,-0.2903 -1.13188,-0.60488l-3.58227,-3.37187c-0.2109,0.2109 -0.46479,0.4041 -0.76268,0.5796c-0.29789,0.1755 -0.60539,0.2635 -0.923,0.2635c-0.5973,0 -1.09698,-0.2018 -1.50058,-0.60488c-0.40309,-0.40309 -0.60539,-0.90429 -0.60691,-1.5026v-2.10748h-6.74324c-0.1052,0.2812 -0.22,0.54419 -0.34341,0.7905c-0.1234,0.2458 -0.2903,0.5093 -0.49918,0.7905l10.53641,19.49284h7.58634v6.32195zM22.321,29.10371c0.5973,0 1.098,-0.2023 1.5026,-0.60691c0.4046,-0.4046 0.60539,-0.9048 0.60286,-1.50058c0,-0.5973 -0.2018,-1.098 -0.60488,-1.5026c-0.40309,-0.4046 -0.90328,-0.6064 -1.50058,-0.60488c-0.5973,0 -1.09698,0.2023 -1.50058,0.60691c-0.40309,0.4046 -0.6064,0.9048 -0.60893,1.50058c0,0.5973 0.2023,1.098 0.60691,1.5026c0.4046,0.4046 0.9048,0.6064 1.50058,0.60488z" id="shadow" fill="#000000" opacity="0.3"/><path d="M17.84451,20.51983c0.00035,-0.00035 0.00071,-0.00071 0.00106,-0.00106c1.22949,-1.22949 2.72147,-1.84399 4.47594,-1.84399c1.36959,0 2.59048,0.3955 3.66268,1.1865c1.0717,0.791 1.81718,1.80049 2.23595,3.02847l3.74006,0l3.61009,-3.61009c0.4046,-0.4046 0.9053,-0.6064 1.5026,-0.60488c0.3161,0 0.6236,0.0703 0.923,0.2109c0.29941,0.1406 0.5533,0.35099 0.76268,0.63219l3.58227,-3.37187c0.3161,-0.3161 0.6939,-0.5184 1.1339,-0.60691c0.4395,-0.08851 0.86939,-0.02681 1.28968,0.18561l8.21853,3.79317c0.42129,0.2109 0.7116,0.5184 0.87041,0.923c0.15881,0.4046 0.1497,0.7996 -0.02731,1.18448c-0.09041,0.1806 -0.19857,0.33387 -0.32452,0.45982l-8.53594,8.53594l6.75298,-3.09511c0.3864,-0.1755 0.7905,-0.1932 1.21179,-0.0526c0.42129,0.1406 0.7202,0.4041 0.89569,0.7905c0.2109,0.42129 0.2281,0.82539 0.0526,1.21179c-0.0877,0.19308 -0.20621,0.36419 -0.3554,0.51339l-16.5131,16.5131l0.90584,1.67585h7.58634v6.32195l-15.5,15.5h-26.50232c-1.933,0 -3.5,-1.567 -3.5,-3.5l0,-28.13566z" id="flatShadow" fill="#000000" opacity="0.324"/><path d="M18.10654,54.49899v-6.32195h6.53285l-5.37366,-17.59626c-0.94829,-0.527 -1.73019,-1.29929 -2.34519,-2.31788c-0.6155,-1.01859 -0.92149,-2.10748 -0.91896,-3.26617c0,-1.75598 0.61449,-3.24898 1.84399,-4.47796c1.22949,-1.22949 2.72147,-1.84399 4.47594,-1.84399c1.36959,0 2.59048,0.3955 3.66268,1.1865c1.0717,0.791 1.81718,1.80049 2.23595,3.02847h6.74324v-2.10748c0,-0.5973 0.2023,-1.098 0.60691,-1.5026c0.4046,-0.4046 0.9053,-0.6064 1.5026,-0.60488c0.3161,0 0.6236,0.0703 0.923,0.2109c0.29941,0.1406 0.5533,0.35099 0.76268,0.63219l3.58227,-3.37187c0.3161,-0.3161 0.6939,-0.5184 1.1339,-0.60691c0.4395,-0.08851 0.86939,-0.02681 1.28968,0.18561l8.21853,3.79317c0.42129,0.2109 0.7116,0.5184 0.87041,0.923c0.15881,0.4046 0.1497,0.7996 -0.02731,1.18448c-0.2109,0.42129 -0.5184,0.6939 -0.923,0.81781c-0.4046,0.1234 -0.7996,0.09711 -1.18448,-0.07991l-7.58634,-3.47707l-4.95236,4.63626v2.95007l4.95236,4.53056l7.58634,-3.47707c0.3864,-0.1755 0.7905,-0.1932 1.21179,-0.0526c0.42129,0.1406 0.7202,0.4041 0.89569,0.7905c0.2109,0.42129 0.2281,0.82539 0.0526,1.21179c-0.1755,0.3864 -0.4744,0.68479 -0.89569,0.89569l-8.21853,3.89837c-0.42129,0.2109 -0.8522,0.27159 -1.2917,0.18308c-0.4395,-0.08851 -0.8168,-0.2903 -1.13188,-0.60488l-3.58227,-3.37187c-0.2109,0.2109 -0.46479,0.4041 -0.76268,0.5796c-0.29789,0.1755 -0.60539,0.2635 -0.923,0.2635c-0.5973,0 -1.09698,-0.2018 -1.50058,-0.60488c-0.40309,-0.40309 -0.60539,-0.90429 -0.60691,-1.5026v-2.10748h-6.74324c-0.1052,0.2812 -0.22,0.54419 -0.34341,0.7905c-0.1234,0.2458 -0.2903,0.5093 -0.49918,0.7905l10.53641,19.49284h7.58634v6.32195zM22.321,27.10371c0.5973,0 1.098,-0.2023 1.5026,-0.60691c0.4046,-0.4046 0.60539,-0.9048 0.60286,-1.50058c0,-0.5973 -0.2018,-1.098 -0.60488,-1.5026c-0.40309,-0.4046 -0.90328,-0.6064 -1.50058,-0.60488c-0.5973,0 -1.09698,0.2023 -1.50058,0.60691c-0.40309,0.4046 -0.6064,0.9048 -0.60893,1.50058c0,0.5973 0.2023,1.098 0.60691,1.5026c0.4046,0.4046 0.9048,0.6064 1.50058,0.60488z" id="icon" fill="#ffffff"/></g></svg>