<svg version="1.1" xmlns="http://www.w3.org/2000/svg" xmlns:xlink="http://www.w3.org/1999/xlink" width="70" height="70" viewBox="0,0,70,70" odoo-icon:version="1.0" xmlns:odoo-icon="https://ivantodorovich.github.io/odoo-icon" odoo-icon:size="70" odoo-icon:icon-size="0.65" odoo-icon:icon-color="#FFFFFF" odoo-icon:icon-flat-shadow-angle="135" odoo-icon:background-color="#3949ab" odoo-icon:background-gradient="0.2" odoo-icon:box-radius="3.5" odoo-icon:odoo-version="14.0"><defs><linearGradient x1="70" y1="0" x2="0" y2="70" gradientUnits="userSpaceOnUse" id="color-1"><stop offset="0" stop-color="#6c7cde"/><stop offset="1" stop-color="#3949ab"/></linearGradient></defs><g fill="none" fill-rule="nonzero" stroke="none" stroke-width="1" stroke-linecap="butt" stroke-linejoin="miter" stroke-miterlimit="10" stroke-dasharray="" stroke-dashoffset="0" font-family="none" font-weight="none" font-size="none" text-anchor="none" style="mix-blend-mode: normal"><path d="M3.5,70c-1.933,0 -3.5,-1.567 -3.5,-3.5v-63c0,-1.933 1.567,-3.5 3.5,-3.5h63c1.933,0 3.5,1.567 3.5,3.5v63c0,1.933 -1.567,3.5 -3.5,3.5z" id="box" fill="url(#color-1)"/><path d="M65,1h-61c-1.95033,0 -3.2667,0.63396 -3.9491,1.90189c0.28378,-1.64806 1.72001,-2.90189 3.4491,-2.90189h63c1.72965,0 3.16627,1.25466 3.44938,2.90352c-0.69803,-1.26902 -2.34782,-1.90352 -4.94938,-1.90352z" id="topBoxShadow" fill="#ffffff" opacity="0.383"/><path d="M4,69h61c2.66667,0 4.33333,-1 5,-3v0.5c0,1.933 -1.567,3.5 -3.5,3.5h-63c-1.933,0 -3.5,-1.567 -3.5,-3.5c0,-0.1611 0,-0.32777 0,-0.5c0.66667,2 2,3 4,3z" id="bottomBoxShadow" fill="#000000" opacity="0.383"/><path d="M54.46154,17.53846h-38.92308c-1.95436,0 -3.53846,1.5841 -3.53846,3.53846v31.84615c0,1.95436 1.5841,3.53846 3.53846,3.53846h38.92308c1.95436,0 3.53846,-1.5841 3.53846,-3.53846v-31.84615c0,-1.95436 -1.5841,-3.53846 -3.53846,-3.53846zM54.46154,21.07692v22.72372l-5.76571,-5.76345c-0.66353,-0.66353 -1.56372,-1.03663 -2.5024,-1.03663c-0.93868,0 -1.83887,0.3731 -2.5024,1.03663l-4.42279,4.42336l-9.73049,-9.73049c-1.38142,-1.38085 -3.62055,-1.38085 -5.00254,0l-8.99675,8.99675v-20.64933zM15.53846,46.73105l11.50028,-11.49972l17.69231,17.69231h-29.19202zM54.46154,52.92308h-4.72625l-7.96126,-7.96126l4.42336,-4.42279l8.26471,8.26698zM38.53846,30.80798c0,-1.46577 1.18836,-2.65356 2.65413,-2.65356c1.46577,0 2.65413,1.18836 2.65413,2.65413c0,1.46577 -1.18836,2.65413 -2.65356,2.65413c-1.46577,0 -2.65356,-1.18836 -2.65356,-2.65356z" id="shadow" fill="#000000" opacity="0.3"/><path d="M13.03634,16.57481c0.64032,-0.64032 1.52494,-1.03634 2.50212,-1.03634h38.92308c1.95436,0 3.53846,1.5841 3.53846,3.53846v31.84615l-19.07692,19.07692h-35.42308c-1.933,0 -3.5,-1.567 -3.5,-3.5l0,-36.88885z" id="flatShadow" fill="#000000" opacity="0.324"/><path d="M54.46154,15.53846h-38.92308c-1.95436,0 -3.53846,1.5841 -3.53846,3.53846v31.84615c0,1.95436 1.5841,3.53846 3.53846,3.53846h38.92308c1.95436,0 3.53846,-1.5841 3.53846,-3.53846v-31.84615c0,-1.95436 -1.5841,-3.53846 -3.53846,-3.53846zM54.46154,19.07692v22.72372l-5.76571,-5.76345c-0.66353,-0.66353 -1.56372,-1.03663 -2.5024,-1.03663c-0.93868,0 -1.83887,0.3731 -2.5024,1.03663l-4.42279,4.42336l-9.73049,-9.73049c-1.38142,-1.38085 -3.62055,-1.38085 -5.00254,0l-8.99675,8.99675v-20.64933zM15.53846,44.73105l11.50028,-11.49972l17.69231,17.69231h-29.19202zM54.46154,50.92308h-4.72625l-7.96126,-7.96126l4.42336,-4.42279l8.26471,8.26698zM38.53846,28.80798c0,-1.46577 1.18836,-2.65356 2.65413,-2.65356c1.46577,0 2.65413,1.18836 2.65413,2.65413c0,1.46577 -1.18836,2.65413 -2.65356,2.65413c-1.46577,0 -2.65356,-1.18836 -2.65356,-2.65356z" id="icon" fill="#ffffff"/></g></svg>