<svg version="1.1" xmlns="http://www.w3.org/2000/svg" xmlns:xlink="http://www.w3.org/1999/xlink" width="70" height="70" viewBox="0,0,70,70"><!-- Generated with https://ivantodorovich.github.io/odoo-icon --><defs><linearGradient x1="70" y1="0" x2="0" y2="70" gradientUnits="userSpaceOnUse" id="color-1"><stop offset="0" stop-color="#76d37a"/><stop offset="1" stop-color="#43a047"/></linearGradient></defs><g fill="none" fill-rule="nonzero" stroke="none" stroke-width="1" stroke-linecap="butt" stroke-linejoin="miter" stroke-miterlimit="10" stroke-dasharray="" stroke-dashoffset="0" font-family="none" font-weight="none" font-size="none" text-anchor="none" style="mix-blend-mode: normal"><path d="M3.5,70c-1.933,0 -3.5,-1.567 -3.5,-3.5v-63c0,-1.933 1.567,-3.5 3.5,-3.5h63c1.933,0 3.5,1.567 3.5,3.5v63c0,1.933 -1.567,3.5 -3.5,3.5z" id="box" fill="url(#color-1)"/><path d="M65,1h-61c-1.95033,0 -3.2667,0.63396 -3.9491,1.90189c0.28378,-1.64806 1.72001,-2.90189 3.4491,-2.90189h63c1.72965,0 3.16627,1.25466 3.44938,2.90352c-0.69803,-1.26902 -2.34782,-1.90352 -4.94938,-1.90352z" id="topBoxShadow" fill="#ffffff" opacity="0.383"/><path d="M4,69h61c2.66667,0 4.33333,-1 5,-3v0.5c0,1.933 -1.567,3.5 -3.5,3.5h-63c-1.933,0 -3.5,-1.567 -3.5,-3.5c0,-0.1611 0,-0.32777 0,-0.5c0.66667,2 2,3 4,3z" id="bottomBoxShadow" fill="#000000" opacity="0.383"/><path d="M40.42851,29.76206h1.80965v-1.80965h-1.80965zM36.80921,29.76206h1.80965v-1.80965h-1.80965zM39.52347,56l-12.66667,-3.52853v-17.2809h3.52853l11.21877,4.16171c0.99537,0.36176 1.80183,0.99537 2.41938,1.89998c0.61755,0.90461 0.92719,1.89998 0.92849,2.98568h-3.61886c-1.2668,0 -2.26173,-0.04517 -2.98568,-0.1355c-0.72395,-0.09033 -1.35713,-0.22626 -1.89998,-0.40736l-3.61886,-1.17603l-0.54285,1.71888l2.84975,1.04054c0.84424,0.33179 1.61335,0.54285 2.30733,0.63318c0.69355,0.09033 1.50782,0.13593 2.44283,0.1355h8.68562c1.99031,0 3.39304,0.32397 4.20688,0.97192c0.81428,0.64795 1.22163,1.53041 1.22163,2.64738v1.80965zM16.00022,55.09539v-19.90439h7.23816v19.90439zM47.7114,40.61908c-0.42212,-0.99537 -1.02534,-1.87001 -1.80965,-2.62392c-0.78431,-0.75391 -1.74928,-1.34193 -2.89535,-1.76448l-12.53074,-4.6594h-3.61886v-4.5239l12.66667,-9.04737l12.66667,9.04737v13.57127zM40.42851,33.38136h1.80965v-1.80965h-1.80965zM36.80921,33.38136h1.80965v-1.80965h-1.80965z" id="shadow" fill="#000000" opacity="0.3"/><path d="M16.00022,33.191l2.71295,0l8.14363,-8.14363l12.66667,-9.04737l12.66667,9.04737v13.57127l-5.42851,5.42851h1.80965c1.99031,0 3.39304,0.32397 4.20688,0.97192c0.81428,0.64795 1.22163,1.53041 1.22163,2.64738v1.80965l-20.5239,20.5239h-29.97588c-1.933,0 -3.5,-1.567 -3.5,-3.5l0,-17.30878z" id="flatShadow" fill="#000000" opacity="0.324"/><path d="M40.42851,27.76206h1.80965v-1.80965h-1.80965zM36.80921,27.76206h1.80965v-1.80965h-1.80965zM39.52347,54l-12.66667,-3.52853v-17.2809h3.52853l11.21877,4.16171c0.99537,0.36176 1.80183,0.99537 2.41938,1.89998c0.61755,0.90461 0.92719,1.89998 0.92849,2.98568h-3.61886c-1.2668,0 -2.26173,-0.04517 -2.98568,-0.1355c-0.72395,-0.09033 -1.35713,-0.22626 -1.89998,-0.40736l-3.61886,-1.17603l-0.54285,1.71888l2.84975,1.04054c0.84424,0.33179 1.61335,0.54285 2.30733,0.63318c0.69355,0.09033 1.50782,0.13593 2.44283,0.1355h8.68562c1.99031,0 3.39304,0.32397 4.20688,0.97192c0.81428,0.64795 1.22163,1.53041 1.22163,2.64738v1.80965zM16.00022,53.09539v-19.90439h7.23816v19.90439zM47.7114,38.61908c-0.42212,-0.99537 -1.02534,-1.87001 -1.80965,-2.62392c-0.78431,-0.75391 -1.74928,-1.34193 -2.89535,-1.76448l-12.53074,-4.6594h-3.61886v-4.5239l12.66667,-9.04737l12.66667,9.04737v13.57127zM40.42851,31.38136h1.80965v-1.80965h-1.80965zM36.80921,31.38136h1.80965v-1.80965h-1.80965z" id="icon" fill="#ffffff"/></g></svg>