<svg version="1.1" xmlns="http://www.w3.org/2000/svg" xmlns:xlink="http://www.w3.org/1999/xlink" width="70" height="70" viewBox="0,0,70,70" odoo-icon:version="1.0" xmlns:odoo-icon="https://ivantodorovich.github.io/odoo-icon" odoo-icon:size="70" odoo-icon:icon-size="0.56" odoo-icon:icon-color="#FFFFFF" odoo-icon:icon-flat-shadow-angle="135" odoo-icon:background-color="#5e57a6" odoo-icon:background-gradient="0.2" odoo-icon:box-radius="3.5" odoo-icon:odoo-version="14.0"><defs><linearGradient x1="70" y1="0" x2="0" y2="70" gradientUnits="userSpaceOnUse" id="color-1"><stop offset="0" stop-color="#918ad9"/><stop offset="1" stop-color="#5e57a6"/></linearGradient></defs><g fill="none" fill-rule="nonzero" stroke="none" stroke-width="1" stroke-linecap="butt" stroke-linejoin="miter" stroke-miterlimit="10" stroke-dasharray="" stroke-dashoffset="0" font-family="none" font-weight="none" font-size="none" text-anchor="none" style="mix-blend-mode: normal"><path d="M3.5,70c-1.933,0 -3.5,-1.567 -3.5,-3.5v-63c0,-1.933 1.567,-3.5 3.5,-3.5h63c1.933,0 3.5,1.567 3.5,3.5v63c0,1.933 -1.567,3.5 -3.5,3.5z" id="box" fill="url(#color-1)"/><path d="M65,1h-61c-1.95033,0 -3.2667,0.63396 -3.9491,1.90189c0.28378,-1.64806 1.72001,-2.90189 3.4491,-2.90189h63c1.72965,0 3.16627,1.25466 3.44938,2.90352c-0.69803,-1.26902 -2.34782,-1.90352 -4.94938,-1.90352z" id="topBoxShadow" fill="#ffffff" opacity="0.383"/><path d="M4,69h61c2.66667,0 4.33333,-1 5,-3v0.5c0,1.933 -1.567,3.5 -3.5,3.5h-63c-1.933,0 -3.5,-1.567 -3.5,-3.5c0,-0.1611 0,-0.32777 0,-0.5c0.66667,2 2,3 4,3z" id="bottomBoxShadow" fill="#000000" opacity="0.383"/><path d="M49.73713,44.36882h-4.21039v-4.21039h4.21039M49.73713,52.79011h-4.21039v-4.21039h4.21039M37.10545,27.52674h-4.21039v-4.21039h4.21039M37.10545,35.94753h-4.21039v-4.21039h4.21039M37.10545,44.36882h-4.21039v-4.21039h4.21039M37.10545,52.79011h-4.21039v-4.21039h4.21039M24.47376,35.94753h-4.21039v-4.21039h4.21039M24.47376,44.36882h-4.21039v-4.21039h4.21039M24.47376,52.79011h-4.21039v-4.21039h4.21039M41.31584,35.94753v-12.63169l-6.31584,-6.31584l-6.31584,6.31584v4.21039h-12.63169v29.47376h37.89506v-21.05298z" id="shadow" fill="#000000" opacity="0.3"/><path d="M16.05247,25.52624l8.42129,0l10.52624,-10.52624l6.31584,6.31584v12.63169l12.63169,-0.00051v21.05298l-15,15h-35.44753c-1.933,0 -3.5,-1.567 -3.5,-3.5l0,-24.92129z" id="flatShadow" fill="#000000" opacity="0.324"/><path d="M49.73713,42.36882h-4.21039v-4.21039h4.21039M49.73713,50.79011h-4.21039v-4.21039h4.21039M37.10545,25.52674h-4.21039v-4.21039h4.21039M37.10545,33.94753h-4.21039v-4.21039h4.21039M37.10545,42.36882h-4.21039v-4.21039h4.21039M37.10545,50.79011h-4.21039v-4.21039h4.21039M24.47376,33.94753h-4.21039v-4.21039h4.21039M24.47376,42.36882h-4.21039v-4.21039h4.21039M24.47376,50.79011h-4.21039v-4.21039h4.21039M41.31584,33.94753v-12.63169l-6.31584,-6.31584l-6.31584,6.31584v4.21039h-12.63169v29.47376h37.89506v-21.05298z" id="icon" fill="#ffffff"/></g></svg>