<svg version="1.1" xmlns="http://www.w3.org/2000/svg" xmlns:xlink="http://www.w3.org/1999/xlink" width="70" height="70" viewBox="0,0,70,70" odoo-icon:version="1.0" xmlns:odoo-icon="https://ivantodorovich.github.io/odoo-icon" odoo-icon:size="70" odoo-icon:icon-size="0.6" odoo-icon:icon-color="#FFFFFF" odoo-icon:icon-flat-shadow-angle="135" odoo-icon:background-color="#334984" odoo-icon:background-gradient="0.2" odoo-icon:box-radius="3.5" odoo-icon:odoo-version="14.0"><defs><linearGradient x1="70" y1="0" x2="0" y2="70" gradientUnits="userSpaceOnUse" id="color-1"><stop offset="0" stop-color="#667cb7"/><stop offset="1" stop-color="#334984"/></linearGradient></defs><g fill="none" fill-rule="nonzero" stroke="none" stroke-width="1" stroke-linecap="butt" stroke-linejoin="miter" stroke-miterlimit="10" stroke-dasharray="" stroke-dashoffset="0" font-family="none" font-weight="none" font-size="none" text-anchor="none" style="mix-blend-mode: normal"><path d="M3.5,70c-1.933,0 -3.5,-1.567 -3.5,-3.5v-63c0,-1.933 1.567,-3.5 3.5,-3.5h63c1.933,0 3.5,1.567 3.5,3.5v63c0,1.933 -1.567,3.5 -3.5,3.5z" id="box" fill="url(#color-1)"/><path d="M65,1h-61c-1.95033,0 -3.2667,0.63396 -3.9491,1.90189c0.28378,-1.64806 1.72001,-2.90189 3.4491,-2.90189h63c1.72965,0 3.16627,1.25466 3.44938,2.90352c-0.69803,-1.26902 -2.34782,-1.90352 -4.94938,-1.90352z" id="topBoxShadow" fill="#ffffff" opacity="0.383"/><path d="M4,69h61c2.66667,0 4.33333,-1 5,-3v0.5c0,1.933 -1.567,3.5 -3.5,3.5h-63c-1.933,0 -3.5,-1.567 -3.5,-3.5c0,-0.1611 0,-0.32777 0,-0.5c0.66667,2 2,3 4,3z" id="bottomBoxShadow" fill="#000000" opacity="0.383"/><path d="M38.31347,19.41184c0.34582,-1.29231 1.6738,-2.05994 2.9661,-1.71412c6.37882,1.66191 11.36041,6.64297 13.0218,13.0218c0.2445,0.8431 0.01344,1.75237 -0.60273,2.37681c-0.61669,0.62444 -1.52285,0.86688 -2.36854,0.63375c-0.8462,-0.23313 -1.49959,-0.90617 -1.70895,-1.75857c-1.22511,-4.69883 -4.89474,-8.36794 -9.59357,-9.59357c-1.29231,-0.34582 -2.05994,-1.6738 -1.71412,-2.9661zM55.96947,47.41457c-0.79658,6.0635 -5.96942,10.59433 -12.08513,10.58502c-16.47897,0 -29.88433,-13.40587 -29.88433,-29.88433c-0.0093,-6.11571 4.521,-11.28855 10.58502,-12.08513c1.77356,-0.21556 3.47837,0.75677 4.19586,2.39283l4.26254,9.51654c0.00465,0.01241 0.00982,0.02481 0.01602,0.03618c0.53191,1.24372 0.4063,2.67094 -0.33497,3.80197c-0.05221,0.08116 -0.10907,0.1587 -0.17162,0.2321l-3.84849,4.58562c1.42567,2.59288 4.13952,5.28243 6.76238,6.70604l4.50498,-3.8366c0.07237,-0.06048 0.14784,-0.11734 0.22641,-0.16955c1.13568,-0.76194 2.58099,-0.89428 3.8366,-0.35151l0.03618,0.01602l9.50672,4.25841c1.63554,0.71801 2.60736,2.42282 2.39283,4.19586zM51.06078,47.40268l-8.48063,-3.79835l-4.52928,3.85056c-0.07134,0.06151 -0.14629,0.11889 -0.22434,0.17162c-1.18427,0.78521 -2.6942,0.89014 -3.97565,0.27655c-3.93326,-1.89814 -7.85257,-5.79108 -9.75485,-9.6923c-0.61514,-1.27576 -0.51692,-2.78053 0.25846,-3.96583c0.05273,-0.08116 0.11062,-0.1587 0.17369,-0.2321l3.86865,-4.58769l-3.80041,-8.48063c-3.36413,0.74127 -5.75748,3.72546 -5.75076,7.17023c0.01654,13.82148 11.21722,25.02164 25.0387,25.0387c3.44684,0.0093 6.43465,-2.38456 7.17644,-5.75076zM37.75209,30.02685c2.01083,0.63375 3.58641,2.20933 4.22016,4.22016c0.31739,1.00903 1.2525,1.69551 2.31013,1.69602c0.24709,-0.00052 0.49314,-0.03774 0.72886,-0.11114c1.27111,-0.40217 1.97826,-1.75547 1.58333,-3.02865c-1.1088,-3.52128 -3.8671,-6.27906 -7.38837,-7.38837c-0.83121,-0.27914 -1.74823,-0.08736 -2.39749,0.50141c-0.64977,0.58877 -0.93098,1.48202 -0.73506,2.33649c0.19591,0.85447 0.83793,1.53681 1.67896,1.7839z" id="shadow" fill="#000000" opacity="0.3"/><path d="M38.93886,16.32629c0.59175,-0.59175 1.47425,-0.86043 2.34071,-0.62856c6.37882,1.66191 11.36041,6.64297 13.0218,13.0218c0.2445,0.8431 0.01344,1.75237 -0.60273,2.37681c-0.00356,0.00361 -0.00714,0.00721 -0.01072,0.01079l-7.01719,7.01719l6.90696,3.09388c1.63554,0.71801 2.60736,2.42282 2.39283,4.19586l-0.00111,0.00111c-0.36101,2.74696 -1.62021,5.17933 -3.45833,7.01746l-17.56738,17.56738h-31.44368c-1.933,0 -3.5,-1.567 -3.5,-3.5l0,-31.44468l17.56688,-17.56688c1.8382,-1.8382 4.27077,-3.0974 7.01816,-3.45831c1.77356,-0.21556 3.47837,0.75677 4.19586,2.39283l3.11245,6.94884z" id="flatShadow" fill="#000000" opacity="0.324"/><path d="M38.31347,17.41184c0.34582,-1.29231 1.6738,-2.05994 2.9661,-1.71412c6.37882,1.66191 11.36041,6.64297 13.0218,13.0218c0.2445,0.8431 0.01344,1.75237 -0.60273,2.37681c-0.61669,0.62444 -1.52285,0.86688 -2.36854,0.63375c-0.8462,-0.23313 -1.49959,-0.90617 -1.70895,-1.75857c-1.22511,-4.69883 -4.89474,-8.36794 -9.59357,-9.59357c-1.29231,-0.34582 -2.05994,-1.6738 -1.71412,-2.9661zM55.96947,45.41457c-0.79658,6.0635 -5.96942,10.59433 -12.08513,10.58502c-16.47897,0 -29.88433,-13.40587 -29.88433,-29.88433c-0.0093,-6.11571 4.521,-11.28855 10.58502,-12.08513c1.77356,-0.21556 3.47837,0.75677 4.19586,2.39283l4.26254,9.51654c0.00465,0.01241 0.00982,0.02481 0.01602,0.03618c0.53191,1.24372 0.4063,2.67094 -0.33497,3.80197c-0.05221,0.08116 -0.10907,0.1587 -0.17162,0.2321l-3.84849,4.58562c1.42567,2.59288 4.13952,5.28243 6.76238,6.70604l4.50498,-3.8366c0.07237,-0.06048 0.14784,-0.11734 0.22641,-0.16955c1.13568,-0.76194 2.58099,-0.89428 3.8366,-0.35151l0.03618,0.01602l9.50672,4.25841c1.63554,0.71801 2.60736,2.42282 2.39283,4.19586zM51.06078,45.40268l-8.48063,-3.79835l-4.52928,3.85056c-0.07134,0.06151 -0.14629,0.11889 -0.22434,0.17162c-1.18427,0.78521 -2.6942,0.89014 -3.97565,0.27655c-3.93326,-1.89814 -7.85257,-5.79108 -9.75485,-9.6923c-0.61514,-1.27576 -0.51692,-2.78053 0.25846,-3.96583c0.05273,-0.08116 0.11062,-0.1587 0.17369,-0.2321l3.86865,-4.58769l-3.80041,-8.48063c-3.36413,0.74127 -5.75748,3.72546 -5.75076,7.17023c0.01654,13.82148 11.21722,25.02164 25.0387,25.0387c3.44684,0.0093 6.43465,-2.38456 7.17644,-5.75076zM37.75209,28.02685c2.01083,0.63375 3.58641,2.20933 4.22016,4.22016c0.31739,1.00903 1.2525,1.69551 2.31013,1.69602c0.24709,-0.00052 0.49314,-0.03774 0.72886,-0.11114c1.27111,-0.40217 1.97826,-1.75547 1.58333,-3.02865c-1.1088,-3.52128 -3.8671,-6.27906 -7.38837,-7.38837c-0.83121,-0.27914 -1.74823,-0.08736 -2.39749,0.50141c-0.64977,0.58877 -0.93098,1.48202 -0.73506,2.33649c0.19591,0.85447 0.83793,1.53681 1.67896,1.7839z" id="icon" fill="#ffffff"/></g></svg>