<svg version="1.1" xmlns="http://www.w3.org/2000/svg" xmlns:xlink="http://www.w3.org/1999/xlink" width="70" height="70" viewBox="0,0,70,70" odoo-icon:version="1.0" xmlns:odoo-icon="https://ivantodorovich.github.io/odoo-icon" odoo-icon:size="70" odoo-icon:icon-size="0.54" odoo-icon:icon-color="#FFFFFF" odoo-icon:icon-flat-shadow-angle="135" odoo-icon:background-color="#a4426b" odoo-icon:background-gradient="0.2" odoo-icon:box-radius="3.5" odoo-icon:odoo-version="14.0"><defs><linearGradient x1="70" y1="0" x2="0" y2="70" gradientUnits="userSpaceOnUse" id="color-1"><stop offset="0" stop-color="#d7759e"/><stop offset="1" stop-color="#a4426b"/></linearGradient></defs><g fill="none" fill-rule="nonzero" stroke="none" stroke-width="1" stroke-linecap="butt" stroke-linejoin="miter" stroke-miterlimit="10" stroke-dasharray="" stroke-dashoffset="0" font-family="none" font-weight="none" font-size="none" text-anchor="none" style="mix-blend-mode: normal"><path d="M3.5,70c-1.933,0 -3.5,-1.567 -3.5,-3.5v-63c0,-1.933 1.567,-3.5 3.5,-3.5h63c1.933,0 3.5,1.567 3.5,3.5v63c0,1.933 -1.567,3.5 -3.5,3.5z" id="box" fill="url(#color-1)"/><path d="M65,1h-61c-1.95033,0 -3.2667,0.63396 -3.9491,1.90189c0.28378,-1.64806 1.72001,-2.90189 3.4491,-2.90189h63c1.72965,0 3.16627,1.25466 3.44938,2.90352c-0.69803,-1.26902 -2.34782,-1.90352 -4.94938,-1.90352z" id="topBoxShadow" fill="#ffffff" opacity="0.383"/><path d="M4,69h61c2.66667,0 4.33333,-1 5,-3v0.5c0,1.933 -1.567,3.5 -3.5,3.5h-63c-1.933,0 -3.5,-1.567 -3.5,-3.5c0,-0.1611 0,-0.32777 0,-0.5c0.66667,2 2,3 4,3z" id="bottomBoxShadow" fill="#000000" opacity="0.383"/><path d="M41.2701,45.92953l2.65989,-2.65989l-7.03026,-7.03026v-8.74029h-3.79991v10.26016zM35,56c-2.62843,0 -5.09862,-0.49887 -7.41012,-1.49707c-2.3115,-0.9982 -4.32249,-2.35163 -6.03252,-4.06029c-1.71003,-1.71003 -3.06346,-3.72102 -4.06029,-6.03252c-0.99683,-2.3115 -1.49616,-4.78169 -1.49707,-7.41012c0,-2.62843 0.49887,-5.09862 1.49707,-7.41012c0.9982,-2.3115 2.35163,-4.32249 4.06029,-6.03252c1.71003,-1.71003 3.72102,-3.06346 6.03252,-4.06029c2.3115,-0.99683 4.78169,-1.49616 7.41012,-1.49707c2.62843,0 5.09862,0.49887 7.41012,1.49707c2.3115,0.9982 4.32249,2.35163 6.03252,4.06029c1.71003,1.71003 3.06391,3.72102 4.06211,6.03252c0.9982,2.3115 1.49662,4.78169 1.49525,7.41012c0,2.62843 -0.49887,5.09862 -1.49707,7.41012c-0.9982,2.3115 -2.35163,4.32249 -4.06029,6.03252c-1.71003,1.71003 -3.72102,3.06391 -6.03252,4.06211c-2.3115,0.9982 -4.78169,1.49662 -7.41012,1.49525zM35,36.99954zM35,52.19963c4.21168,0 7.79818,-1.4802 10.75995,-4.44014c2.96131,-2.9604 4.44151,-6.5469 4.44014,-10.75995c0,-4.21168 -1.4802,-7.79818 -4.44014,-10.75995c-2.9604,-2.96131 -6.5469,-4.44151 -10.75995,-4.44014c-4.21168,0 -7.79818,1.4802 -10.75995,4.44014c-2.96131,2.9604 -4.44151,6.5469 -4.44014,10.75995c0,4.21168 1.4802,7.79818 4.44014,10.75995c2.9604,2.96131 6.5469,4.44151 10.75995,4.44014z" id="shadow" fill="#000000" opacity="0.3"/><path d="M21.55736,21.55736c1.71003,-1.71003 3.72102,-3.06346 6.03252,-4.06029c2.3115,-0.99683 4.78169,-1.49616 7.41012,-1.49707c2.62843,0 5.09862,0.49887 7.41012,1.49707c2.3115,0.9982 4.32249,2.35163 6.03252,4.06029c1.71003,1.71003 3.06391,3.72102 4.06211,6.03252c0.9982,2.3115 1.49662,4.78169 1.49525,7.41012c0,2.62843 -0.49887,5.09862 -1.49707,7.41012c-0.9982,2.3115 -2.35163,4.32249 -4.06029,6.03252l-21.55736,21.55736h-23.38527c-1.933,0 -3.5,-1.567 -3.5,-3.5l0,-23.38528z" id="flatShadow" fill="#000000" opacity="0.324"/><path d="M41.2701,43.92953l2.65989,-2.65989l-7.03026,-7.03026v-8.74029h-3.79991v10.26016zM35,54c-2.62843,0 -5.09862,-0.49887 -7.41012,-1.49707c-2.3115,-0.9982 -4.32249,-2.35163 -6.03252,-4.06029c-1.71003,-1.71003 -3.06346,-3.72102 -4.06029,-6.03252c-0.99683,-2.3115 -1.49616,-4.78169 -1.49707,-7.41012c0,-2.62843 0.49887,-5.09862 1.49707,-7.41012c0.9982,-2.3115 2.35163,-4.32249 4.06029,-6.03252c1.71003,-1.71003 3.72102,-3.06346 6.03252,-4.06029c2.3115,-0.99683 4.78169,-1.49616 7.41012,-1.49707c2.62843,0 5.09862,0.49887 7.41012,1.49707c2.3115,0.9982 4.32249,2.35163 6.03252,4.06029c1.71003,1.71003 3.06391,3.72102 4.06211,6.03252c0.9982,2.3115 1.49662,4.78169 1.49525,7.41012c0,2.62843 -0.49887,5.09862 -1.49707,7.41012c-0.9982,2.3115 -2.35163,4.32249 -4.06029,6.03252c-1.71003,1.71003 -3.72102,3.06391 -6.03252,4.06211c-2.3115,0.9982 -4.78169,1.49662 -7.41012,1.49525zM35,34.99954zM35,50.19963c4.21168,0 7.79818,-1.4802 10.75995,-4.44014c2.96131,-2.9604 4.44151,-6.5469 4.44014,-10.75995c0,-4.21168 -1.4802,-7.79818 -4.44014,-10.75995c-2.9604,-2.96131 -6.5469,-4.44151 -10.75995,-4.44014c-4.21168,0 -7.79818,1.4802 -10.75995,4.44014c-2.96131,2.9604 -4.44151,6.5469 -4.44014,10.75995c0,4.21168 1.4802,7.79818 4.44014,10.75995c2.9604,2.96131 6.5469,4.44151 10.75995,4.44014z" id="icon" fill="#ffffff"/></g></svg>