<svg version="1.1" xmlns="http://www.w3.org/2000/svg" xmlns:xlink="http://www.w3.org/1999/xlink" width="70" height="70" viewBox="0,0,70,70" odoo-icon:version="1.0" xmlns:odoo-icon="https://ivantodorovich.github.io/odoo-icon" odoo-icon:size="70" odoo-icon:icon-size="0.58" odoo-icon:icon-color="#FFFFFF" odoo-icon:icon-flat-shadow-angle="135" odoo-icon:background-color="#334984" odoo-icon:background-gradient="0.2" odoo-icon:box-radius="3.5" odoo-icon:odoo-version="14.0"><defs><linearGradient x1="70" y1="0" x2="0" y2="70" gradientUnits="userSpaceOnUse" id="color-1"><stop offset="0" stop-color="#667cb7"/><stop offset="1" stop-color="#334984"/></linearGradient></defs><g fill="none" fill-rule="nonzero" stroke="none" stroke-width="1" stroke-linecap="butt" stroke-linejoin="miter" stroke-miterlimit="10" stroke-dasharray="" stroke-dashoffset="0" font-family="none" font-weight="none" font-size="none" text-anchor="none" style="mix-blend-mode: normal"><path d="M3.5,70c-1.933,0 -3.5,-1.567 -3.5,-3.5v-63c0,-1.933 1.567,-3.5 3.5,-3.5h63c1.933,0 3.5,1.567 3.5,3.5v63c0,1.933 -1.567,3.5 -3.5,3.5z" id="box" fill="url(#color-1)"/><path d="M65,1h-61c-1.95033,0 -3.2667,0.63396 -3.9491,1.90189c0.28378,-1.64806 1.72001,-2.90189 3.4491,-2.90189h63c1.72965,0 3.16627,1.25466 3.44938,2.90352c-0.69803,-1.26902 -2.34782,-1.90352 -4.94938,-1.90352z" id="topBoxShadow" fill="#ffffff" opacity="0.383"/><path d="M4,69h61c2.66667,0 4.33333,-1 5,-3v0.5c0,1.933 -1.567,3.5 -3.5,3.5h-63c-1.933,0 -3.5,-1.567 -3.5,-3.5c0,-0.1611 0,-0.32777 0,-0.5c0.66667,2 2,3 4,3z" id="bottomBoxShadow" fill="#000000" opacity="0.383"/><path d="M55.5,28.78972v16.3999c0,2.26124 -1.83861,4.09985 -4.09985,4.09985h-2.05017v-24.6001h2.05017c2.26124,0 4.09985,1.84107 4.09985,4.09985zM45.24963,53.39966h6.13969v4.09985h-16.3999v-4.09985h6.16036v-4.11018h-22.54993c-2.26124,0 -4.09985,-1.83861 -4.09985,-4.09985v-16.3999c0,-2.26124 1.8391,-4.09985 4.09985,-4.09985h22.54993v-4.08952h-6.16036v-4.09985h16.3999v4.09985h-6.13969zM41.14978,41.08977v-8.2002h-18.45007v8.2002z" id="shadow" fill="#000000" opacity="0.3"/><path d="M55.5,43.18962c0,1.13062 -0.45965,2.15558 -1.20196,2.89789l-5.31215,5.31215h2.40343v4.09985l-14.50049,14.50049h-33.38883c-1.933,0 -3.5,-1.567 -3.5,-3.5l0,-26.90603l15.70202,-15.70202c0.74238,-0.74238 1.76739,-1.20208 2.89783,-1.20208l8.2002,0l8.18937,-8.18937h16.3999v4.09985l-6.13969,6.13969l0,2.04968l4.10034,-4.10034h2.05017c2.26124,0 4.09985,1.84107 4.09985,4.09985z" id="flatShadow" fill="#000000" opacity="0.324"/><path d="M55.5,26.78972v16.3999c0,2.26124 -1.83861,4.09985 -4.09985,4.09985h-2.05017v-24.6001h2.05017c2.26124,0 4.09985,1.84107 4.09985,4.09985zM45.24963,51.39966h6.13969v4.09985h-16.3999v-4.09985h6.16036v-4.11018h-22.54993c-2.26124,0 -4.09985,-1.83861 -4.09985,-4.09985v-16.3999c0,-2.26124 1.8391,-4.09985 4.09985,-4.09985h22.54993v-4.08952h-6.16036v-4.09985h16.3999v4.09985h-6.13969zM41.14978,39.08977v-8.2002h-18.45007v8.2002z" id="icon" fill="#ffffff"/></g></svg>