<svg version="1.1" xmlns="http://www.w3.org/2000/svg" xmlns:xlink="http://www.w3.org/1999/xlink" width="70" height="70" viewBox="0,0,70,70" odoo-icon:version="1.0" xmlns:odoo-icon="https://ivantodorovich.github.io/odoo-icon" odoo-icon:size="70" odoo-icon:icon-size="0.49" odoo-icon:icon-color="#FFFFFF" odoo-icon:icon-flat-shadow-angle="135" odoo-icon:background-color="#eea544" odoo-icon:background-gradient="0.2" odoo-icon:box-radius="3.5" odoo-icon:odoo-version="14.0"><defs><linearGradient x1="70" y1="0" x2="0" y2="70" gradientUnits="userSpaceOnUse" id="color-1"><stop offset="0" stop-color="#ffd877"/><stop offset="1" stop-color="#eea544"/></linearGradient></defs><g fill="none" fill-rule="nonzero" stroke="none" stroke-width="1" stroke-linecap="butt" stroke-linejoin="miter" stroke-miterlimit="10" stroke-dasharray="" stroke-dashoffset="0" font-family="none" font-weight="none" font-size="none" text-anchor="none" style="mix-blend-mode: normal"><path d="M3.5,70c-1.933,0 -3.5,-1.567 -3.5,-3.5v-63c0,-1.933 1.567,-3.5 3.5,-3.5h63c1.933,0 3.5,1.567 3.5,3.5v63c0,1.933 -1.567,3.5 -3.5,3.5z" id="box" fill="url(#color-1)"/><path d="M65,1h-61c-1.95033,0 -3.2667,0.63396 -3.9491,1.90189c0.28378,-1.64806 1.72001,-2.90189 3.4491,-2.90189h63c1.72965,0 3.16627,1.25466 3.44938,2.90352c-0.69803,-1.26902 -2.34782,-1.90352 -4.94938,-1.90352z" id="topBoxShadow" fill="#ffffff" opacity="0.383"/><path d="M4,69h61c2.66667,0 4.33333,-1 5,-3v0.5c0,1.933 -1.567,3.5 -3.5,3.5h-63c-1.933,0 -3.5,-1.567 -3.5,-3.5c0,-0.1611 0,-0.32777 0,-0.5c0.66667,2 2,3 4,3z" id="bottomBoxShadow" fill="#000000" opacity="0.383"/><path d="M52.5,19.5v10.60589l-3.18182,-3.18182l-27.57593,27.57593l-4.24225,-4.24225l27.57593,-27.57593l-3.18182,-3.18182h10.60589M46.13636,53.43905c-3.51476,0 -6.36364,-2.84887 -6.36364,-6.36364v-4.24225c0,-3.51476 2.84887,-6.36364 6.36364,-6.36364c3.51476,0 6.36364,2.84887 6.36364,6.36364v4.24225c0,3.51476 -2.84887,6.36364 -6.36364,6.36364M46.13636,40.71178c-1.17142,0 -2.12138,0.94945 -2.12138,2.12138v4.24225c0,1.17142 0.94945,2.12138 2.12138,2.12138c1.17142,0 2.12138,-0.94945 2.12138,-2.12138v-4.24225c0,-1.17142 -0.94945,-2.12138 -2.12138,-2.12138M24.92458,36.46953c-3.51476,0 -6.36364,-2.84887 -6.36364,-6.36364v-4.24225c0,-3.51476 2.84887,-6.36364 6.36364,-6.36364c3.51476,0 6.36364,2.84887 6.36364,6.36364v4.24225c0,3.51476 -2.84887,6.36364 -6.36364,6.36364M24.92458,23.74225c-1.17142,0 -2.12138,0.94945 -2.12138,2.12138v4.24225c0,1.17142 0.94945,2.12138 2.12138,2.12138c1.17142,0 2.12138,-0.94945 2.12138,-2.12138v-4.24225c0,-1.17142 -0.94945,-2.12138 -2.12138,-2.12138z" id="shadow" fill="#000000" opacity="0.3"/><path d="M52.5,28.10589l-6.36364,6.36364c3.51476,0 6.36364,2.84887 6.36364,6.36364v4.24225c0,1.75738 -0.71222,3.34829 -1.86378,4.49985l-20.42473,20.42473h-26.71149c-1.933,0 -3.5,-1.567 -3.5,-3.5l0,-26.71149l20.42473,-20.42473c1.15156,-1.15156 2.74247,-1.86378 4.49985,-1.86378c3.51476,0 6.36364,2.84887 6.36364,6.36364l0,4.24225l10.60589,-10.60589h10.60589z" id="flatShadow" fill="#000000" opacity="0.324"/><path d="M52.5,17.5v10.60589l-3.18182,-3.18182l-27.57593,27.57593l-4.24225,-4.24225l27.57593,-27.57593l-3.18182,-3.18182h10.60589M46.13636,51.43905c-3.51476,0 -6.36364,-2.84887 -6.36364,-6.36364v-4.24225c0,-3.51476 2.84887,-6.36364 6.36364,-6.36364c3.51476,0 6.36364,2.84887 6.36364,6.36364v4.24225c0,3.51476 -2.84887,6.36364 -6.36364,6.36364M46.13636,38.71178c-1.17142,0 -2.12138,0.94945 -2.12138,2.12138v4.24225c0,1.17142 0.94945,2.12138 2.12138,2.12138c1.17142,0 2.12138,-0.94945 2.12138,-2.12138v-4.24225c0,-1.17142 -0.94945,-2.12138 -2.12138,-2.12138M24.92458,34.46953c-3.51476,0 -6.36364,-2.84887 -6.36364,-6.36364v-4.24225c0,-3.51476 2.84887,-6.36364 6.36364,-6.36364c3.51476,0 6.36364,2.84887 6.36364,6.36364v4.24225c0,3.51476 -2.84887,6.36364 -6.36364,6.36364M24.92458,21.74225c-1.17142,0 -2.12138,0.94945 -2.12138,2.12138v4.24225c0,1.17142 0.94945,2.12138 2.12138,2.12138c1.17142,0 2.12138,-0.94945 2.12138,-2.12138v-4.24225c0,-1.17142 -0.94945,-2.12138 -2.12138,-2.12138z" id="icon" fill="#ffffff"/></g></svg>