<svg version="1.1" xmlns="http://www.w3.org/2000/svg" xmlns:xlink="http://www.w3.org/1999/xlink" width="70" height="70" viewBox="0,0,70,70" odoo-icon:version="1.0" xmlns:odoo-icon="https://ivantodorovich.github.io/odoo-icon" odoo-icon:size="70" odoo-icon:icon-size="0.56" odoo-icon:icon-color="#FFFFFF" odoo-icon:icon-flat-shadow-angle="135" odoo-icon:background-color="#5e57a6" odoo-icon:background-gradient="0.2" odoo-icon:box-radius="3.5" odoo-icon:odoo-version="14.0"><defs><linearGradient x1="70" y1="0" x2="0" y2="70" gradientUnits="userSpaceOnUse" id="color-1"><stop offset="0" stop-color="#918ad9"/><stop offset="1" stop-color="#5e57a6"/></linearGradient></defs><g fill="none" fill-rule="nonzero" stroke="none" stroke-width="1" stroke-linecap="butt" stroke-linejoin="miter" stroke-miterlimit="10" stroke-dasharray="" stroke-dashoffset="0" font-family="none" font-weight="none" font-size="none" text-anchor="none" style="mix-blend-mode: normal"><path d="M3.5,70c-1.933,0 -3.5,-1.567 -3.5,-3.5v-63c0,-1.933 1.567,-3.5 3.5,-3.5h63c1.933,0 3.5,1.567 3.5,3.5v63c0,1.933 -1.567,3.5 -3.5,3.5z" id="box" fill="url(#color-1)"/><path d="M65,1h-61c-1.95033,0 -3.2667,0.63396 -3.9491,1.90189c0.28378,-1.64806 1.72001,-2.90189 3.4491,-2.90189h63c1.72965,0 3.16627,1.25466 3.44938,2.90352c-0.69803,-1.26902 -2.34782,-1.90352 -4.94938,-1.90352z" id="topBoxShadow" fill="#ffffff" opacity="0.383"/><path d="M4,69h61c2.66667,0 4.33333,-1 5,-3v0.5c0,1.933 -1.567,3.5 -3.5,3.5h-63c-1.933,0 -3.5,-1.567 -3.5,-3.5c0,-0.1611 0,-0.32777 0,-0.5c0.66667,2 2,3 4,3z" id="bottomBoxShadow" fill="#000000" opacity="0.383"/><path d="M36.43689,17.05281c-5.79028,-0.42151 -11.47781,1.69565 -15.583,5.80084c-4.10519,4.10519 -6.22235,9.79272 -5.80084,15.583c0.72012,10.58198 9.96171,18.56335 20.56338,18.56335h7.38127c1.10035,0 2.0005,-0.90015 2.0005,-2.0005c0,-1.10035 -0.90015,-2.0005 -2.0005,-2.0005h-7.34142c-7.46144,0 -14.30262,-4.84067 -16.16294,-12.06207c-2.98035,-11.60216 7.82151,-22.4237 19.42318,-19.42318c7.24109,1.84016 12.08224,8.68133 12.08224,16.14278v2.20022c0,1.58043 -1.42008,3.1407 -3.00052,3.1407c-1.58043,0 -3.00052,-1.56027 -3.00052,-3.1407v-2.50027c0,-5.0207 -3.56077,-9.54164 -8.52147,-10.2416c-3.20263,-0.47624 -6.43743,0.62459 -8.68469,2.95539c-2.24727,2.3308 -3.22952,5.60352 -2.63709,8.78647c0.71676,3.86082 3.62798,6.94439 7.44128,7.88152c3.68079,0.86031 7.18108,-0.32022 9.48163,-2.66062c1.78015,2.44026 5.34092,3.72064 8.60164,2.42058c2.6803,-1.06002 4.32074,-3.80081 4.32074,-6.68131v-2.18054c0,-10.62183 -7.98137,-19.86342 -18.56335,-20.58354zM34.99664,42.99743c-3.32073,0 -6.00103,-2.6803 -6.00103,-6.00103c0,-3.32073 2.6803,-6.00103 6.00103,-6.00103c3.32073,0 6.00103,2.6803 6.00103,6.00103c0,3.32073 -2.6803,6.00103 -6.00103,6.00103z" id="shadow" fill="#000000" opacity="0.3"/><path d="M54.99976,35.63635v2.18054c0,1.97338 -0.76992,3.88118 -2.11665,5.22792l-8.50759,8.50759c0.38308,0.365 0.62268,0.87941 0.62268,1.44711c0,0.55017 -0.22504,1.0503 -0.58762,1.41288l0,0l-15.58762,15.58762h-25.32296c-1.933,0 -3.5,-1.567 -3.5,-3.5l0,-24.79247l20.85389,-20.85389c4.10519,-4.10519 9.79272,-6.22235 15.583,-5.80084l-0.00003,0.00003c10.58176,0.72035 18.5629,9.96183 18.5629,20.58351z" id="flatShadow" fill="#000000" opacity="0.324"/><path d="M36.43689,15.05281c-5.79028,-0.42151 -11.47781,1.69565 -15.583,5.80084c-4.10519,4.10519 -6.22235,9.79272 -5.80084,15.583c0.72012,10.58198 9.96171,18.56335 20.56338,18.56335h7.38127c1.10035,0 2.0005,-0.90015 2.0005,-2.0005c0,-1.10035 -0.90015,-2.0005 -2.0005,-2.0005h-7.34142c-7.46144,0 -14.30262,-4.84067 -16.16294,-12.06207c-2.98035,-11.60216 7.82151,-22.4237 19.42318,-19.42318c7.24109,1.84016 12.08224,8.68133 12.08224,16.14278v2.20022c0,1.58043 -1.42008,3.1407 -3.00052,3.1407c-1.58043,0 -3.00052,-1.56027 -3.00052,-3.1407v-2.50027c0,-5.0207 -3.56077,-9.54164 -8.52147,-10.2416c-3.20263,-0.47624 -6.43743,0.62459 -8.68469,2.95539c-2.24727,2.3308 -3.22952,5.60352 -2.63709,8.78647c0.71676,3.86082 3.62798,6.94439 7.44128,7.88152c3.68079,0.86031 7.18108,-0.32022 9.48163,-2.66062c1.78015,2.44026 5.34092,3.72064 8.60164,2.42058c2.6803,-1.06002 4.32074,-3.80081 4.32074,-6.68131v-2.18054c0,-10.62183 -7.98137,-19.86342 -18.56335,-20.58354zM34.99664,40.99743c-3.32073,0 -6.00103,-2.6803 -6.00103,-6.00103c0,-3.32073 2.6803,-6.00103 6.00103,-6.00103c3.32073,0 6.00103,2.6803 6.00103,6.00103c0,3.32073 -2.6803,6.00103 -6.00103,6.00103z" id="icon" fill="#ffffff"/></g></svg>