<svg version="1.1" xmlns="http://www.w3.org/2000/svg" xmlns:xlink="http://www.w3.org/1999/xlink" width="70" height="70" viewBox="0,0,70,70" odoo-icon:version="1.0" xmlns:odoo-icon="https://ivantodorovich.github.io/odoo-icon" odoo-icon:size="70" odoo-icon:icon-size="0.58" odoo-icon:icon-color="#FFFFFF" odoo-icon:icon-flat-shadow-angle="135" odoo-icon:background-color="#1e88e5" odoo-icon:background-gradient="0.2" odoo-icon:box-radius="3.5" odoo-icon:odoo-version="14.0"><defs><linearGradient x1="70" y1="0" x2="0" y2="70" gradientUnits="userSpaceOnUse" id="color-1"><stop offset="0" stop-color="#51bbff"/><stop offset="1" stop-color="#1e88e5"/></linearGradient></defs><g fill="none" fill-rule="nonzero" stroke="none" stroke-width="1" stroke-linecap="butt" stroke-linejoin="miter" stroke-miterlimit="10" stroke-dasharray="" stroke-dashoffset="0" font-family="none" font-weight="none" font-size="none" text-anchor="none" style="mix-blend-mode: normal"><path d="M3.5,70c-1.933,0 -3.5,-1.567 -3.5,-3.5v-63c0,-1.933 1.567,-3.5 3.5,-3.5h63c1.933,0 3.5,1.567 3.5,3.5v63c0,1.933 -1.567,3.5 -3.5,3.5z" id="box" fill="url(#color-1)"/><path d="M65,1h-61c-1.95033,0 -3.2667,0.63396 -3.9491,1.90189c0.28378,-1.64806 1.72001,-2.90189 3.4491,-2.90189h63c1.72965,0 3.16627,1.25466 3.44938,2.90352c-0.69803,-1.26902 -2.34782,-1.90352 -4.94938,-1.90352z" id="topBoxShadow" fill="#ffffff" opacity="0.383"/><path d="M4,69h61c2.66667,0 4.33333,-1 5,-3v0.5c0,1.933 -1.567,3.5 -3.5,3.5h-63c-1.933,0 -3.5,-1.567 -3.5,-3.5c0,-0.1611 0,-0.32777 0,-0.5c0.66667,2 2,3 4,3z" id="bottomBoxShadow" fill="#000000" opacity="0.383"/><path d="M35,16.5c-11.3032,0 -20.5,9.1968 -20.5,20.5c0,11.3032 9.1968,20.5 20.5,20.5c11.3032,0 20.5,-9.1968 20.5,-20.5c0,-11.3032 -9.1968,-20.5 -20.5,-20.5zM22.18758,37c0,-2.13223 0.5738,-4.11009 1.49631,-5.8813l17.19742,17.1968c-1.80996,0.96802 -3.82841,1.48155 -5.88069,1.49631c-7.06458,0 -12.81242,-5.74785 -12.81242,-12.81242zM46.31611,42.88069l-17.1968,-17.1968c1.80996,-0.96802 3.82841,-1.48155 5.8813,-1.49631c7.06458,0 12.81242,5.74785 12.81242,12.81242c0,2.13223 -0.5738,4.11009 -1.49631,5.88069z" id="shadow" fill="#000000" opacity="0.3"/><path d="M49.4887,49.4887l-20.5113,20.5113h-25.4774c-1.933,0 -3.5,-1.567 -3.5,-3.5l0,-25.4774l20.5113,-20.5113c3.7121,-3.7121 8.8371,-6.0113 14.4887,-6.0113c11.3032,0 20.5,9.1968 20.5,20.5c0,5.6516 -2.2992,10.7766 -6.0113,14.4887z" id="flatShadow" fill="#000000" opacity="0.324"/><path d="M35,14.5c-11.3032,0 -20.5,9.1968 -20.5,20.5c0,11.3032 9.1968,20.5 20.5,20.5c11.3032,0 20.5,-9.1968 20.5,-20.5c0,-11.3032 -9.1968,-20.5 -20.5,-20.5zM22.18758,35c0,-2.13223 0.5738,-4.11009 1.49631,-5.8813l17.19742,17.1968c-1.80996,0.96802 -3.82841,1.48155 -5.88069,1.49631c-7.06458,0 -12.81242,-5.74785 -12.81242,-12.81242zM46.31611,40.88069l-17.1968,-17.1968c1.80996,-0.96802 3.82841,-1.48155 5.8813,-1.49631c7.06458,0 12.81242,5.74785 12.81242,12.81242c0,2.13223 -0.5738,4.11009 -1.49631,5.88069z" id="icon" fill="#ffffff"/></g></svg>