<svg version="1.1" xmlns="http://www.w3.org/2000/svg" xmlns:xlink="http://www.w3.org/1999/xlink" width="70" height="70" viewBox="0,0,70,70" odoo-icon:version="1.0" xmlns:odoo-icon="https://ivantodorovich.github.io/odoo-icon" odoo-icon:size="70" odoo-icon:icon-size="0.58" odoo-icon:icon-color="#FFFFFF" odoo-icon:icon-flat-shadow-angle="135" odoo-icon:background-color="#334984" odoo-icon:background-gradient="0.2" odoo-icon:box-radius="3.5" odoo-icon:odoo-version="14.0"><defs><linearGradient x1="70" y1="0" x2="0" y2="70" gradientUnits="userSpaceOnUse" id="color-1"><stop offset="0" stop-color="#667cb7"/><stop offset="1" stop-color="#334984"/></linearGradient></defs><g fill="none" fill-rule="nonzero" stroke="none" stroke-width="1" stroke-linecap="butt" stroke-linejoin="miter" stroke-miterlimit="10" stroke-dasharray="" stroke-dashoffset="0" font-family="none" font-weight="none" font-size="none" text-anchor="none" style="mix-blend-mode: normal"><path d="M3.5,70c-1.933,0 -3.5,-1.567 -3.5,-3.5v-63c0,-1.933 1.567,-3.5 3.5,-3.5h63c1.933,0 3.5,1.567 3.5,3.5v63c0,1.933 -1.567,3.5 -3.5,3.5z" id="box" fill="url(#color-1)"/><path d="M65,1h-61c-1.95033,0 -3.2667,0.63396 -3.9491,1.90189c0.28378,-1.64806 1.72001,-2.90189 3.4491,-2.90189h63c1.72965,0 3.16627,1.25466 3.44938,2.90352c-0.69803,-1.26902 -2.34782,-1.90352 -4.94938,-1.90352z" id="topBoxShadow" fill="#ffffff" opacity="0.383"/><path d="M4,69h61c2.66667,0 4.33333,-1 5,-3v0.5c0,1.933 -1.567,3.5 -3.5,3.5h-63c-1.933,0 -3.5,-1.567 -3.5,-3.5c0,-0.1611 0,-0.32777 0,-0.5c0.66667,2 2,3 4,3z" id="bottomBoxShadow" fill="#000000" opacity="0.383"/><path d="M42.03335,33.48273l-10.55032,10.55032c-0.62436,0.64645 -1.54897,0.9061 -2.41866,0.67809c-0.86969,-0.22742 -1.54837,-0.9067 -1.77639,-1.77639c-0.22742,-0.86969 0.03164,-1.7943 0.67809,-2.41866l10.55032,-10.55271c0.97176,-0.97176 2.5476,-0.97176 3.51936,0c0.97176,0.97176 0.97176,2.5476 0,3.51936zM49.06968,29.96635c1.94293,-1.94293 1.94293,-5.0928 0,-7.03573c-1.94293,-1.94293 -5.0928,-1.94293 -7.03633,0l-7.03335,7.03633l-3.51697,-3.51936l7.03335,-7.03335c3.88526,-3.88526 10.18441,-3.88526 14.06968,0c3.88526,3.88526 3.88526,10.18441 0,14.06968l-7.03335,7.03335l-3.51936,-3.51697zM35,44.03544l3.51697,3.51697l-7.03335,7.03335c-3.88526,3.88526 -10.18441,3.88526 -14.06968,0c-3.88526,-3.88526 -3.88526,-10.18441 0,-14.06968l7.03335,-7.03335l3.51936,3.51697l-7.03573,7.03573c-1.94233,1.94293 -1.94174,5.0928 0.00119,7.03454c1.94293,1.94233 5.0928,1.94174 7.03454,-0.00119l7.03335,-7.03633z" id="shadow" fill="#000000" opacity="0.3"/><path d="M38.51637,17.41425c3.88526,-3.88526 10.18441,-3.88526 14.06968,0c3.88526,3.88526 3.88526,10.18441 0,14.06968l-38.51608,38.51608h-10.56998c-1.933,0 -3.5,-1.567 -3.5,-3.5l0,-10.56998l24.44729,-24.44729l0.0003,0.0003z" id="flatShadow" fill="#000000" opacity="0.324"/><path d="M42.03335,31.48273l-10.55032,10.55032c-0.62436,0.64645 -1.54897,0.9061 -2.41866,0.67809c-0.86969,-0.22742 -1.54837,-0.9067 -1.77639,-1.77639c-0.22742,-0.86969 0.03164,-1.7943 0.67809,-2.41866l10.55032,-10.55271c0.97176,-0.97176 2.5476,-0.97176 3.51936,0c0.97176,0.97176 0.97176,2.5476 0,3.51936zM49.06968,27.96635c1.94293,-1.94293 1.94293,-5.0928 0,-7.03573c-1.94293,-1.94293 -5.0928,-1.94293 -7.03633,0l-7.03335,7.03633l-3.51697,-3.51936l7.03335,-7.03335c3.88526,-3.88526 10.18441,-3.88526 14.06968,0c3.88526,3.88526 3.88526,10.18441 0,14.06968l-7.03335,7.03335l-3.51936,-3.51697zM35,42.03544l3.51697,3.51697l-7.03335,7.03335c-3.88526,3.88526 -10.18441,3.88526 -14.06968,0c-3.88526,-3.88526 -3.88526,-10.18441 0,-14.06968l7.03335,-7.03335l3.51936,3.51697l-7.03573,7.03573c-1.94233,1.94293 -1.94174,5.0928 0.00119,7.03454c1.94293,1.94233 5.0928,1.94174 7.03454,-0.00119l7.03335,-7.03633z" id="icon" fill="#ffffff"/></g></svg>