<svg version="1.1" xmlns="http://www.w3.org/2000/svg" xmlns:xlink="http://www.w3.org/1999/xlink" width="70" height="70" viewBox="0,0,70,70" odoo-icon:version="1.0" xmlns:odoo-icon="https://ivantodorovich.github.io/odoo-icon" odoo-icon:size="70" odoo-icon:icon-size="0.55" odoo-icon:icon-color="#FFFFFF" odoo-icon:icon-flat-shadow-angle="135" odoo-icon:background-color="#fdd835" odoo-icon:background-gradient="0.2" odoo-icon:box-radius="3.5" odoo-icon:odoo-version="14.0"><defs><linearGradient x1="70" y1="0" x2="0" y2="70" gradientUnits="userSpaceOnUse" id="color-1"><stop offset="0" stop-color="#ffff68"/><stop offset="1" stop-color="#fdd835"/></linearGradient></defs><g fill="none" fill-rule="nonzero" stroke="none" stroke-width="1" stroke-linecap="butt" stroke-linejoin="miter" stroke-miterlimit="10" stroke-dasharray="" stroke-dashoffset="0" font-family="none" font-weight="none" font-size="none" text-anchor="none" style="mix-blend-mode: normal"><path d="M3.5,70c-1.933,0 -3.5,-1.567 -3.5,-3.5v-63c0,-1.933 1.567,-3.5 3.5,-3.5h63c1.933,0 3.5,1.567 3.5,3.5v63c0,1.933 -1.567,3.5 -3.5,3.5z" id="box" fill="url(#color-1)"/><path d="M65,1h-61c-1.95033,0 -3.2667,0.63396 -3.9491,1.90189c0.28378,-1.64806 1.72001,-2.90189 3.4491,-2.90189h63c1.72965,0 3.16627,1.25466 3.44938,2.90352c-0.69803,-1.26902 -2.34782,-1.90352 -4.94938,-1.90352z" id="topBoxShadow" fill="#ffffff" opacity="0.383"/><path d="M4,69h61c2.66667,0 4.33333,-1 5,-3v0.5c0,1.933 -1.567,3.5 -3.5,3.5h-63c-1.933,0 -3.5,-1.567 -3.5,-3.5c0,-0.1611 0,-0.32777 0,-0.5c0.66667,2 2,3 4,3z" id="bottomBoxShadow" fill="#000000" opacity="0.383"/><path d="M54.5,53.71429v2.78571h-36.21429c-1.53861,0 -2.78571,-1.24711 -2.78571,-2.78571v-36.21429h2.78571v28.67191l6.96429,-6.96429l1.96961,1.97095l-8.9339,8.93256v3.60315zM48.35182,25.85714l4.17857,-4.17857l1.96961,1.96515l-4.17857,4.17991zM35,43.26808l-6.96429,-6.90991l2.21475,-2.18667l4.74953,4.70808l10.32096,-10.23627l2.21475,2.19915z" id="shadow" fill="#000000" opacity="0.3"/><path d="M54.5,54.5l-15.5,15.5h-35.5c-1.933,0 -3.5,-1.567 -3.5,-3.5l0,-35.5l15.5,-15.5h2.78571l0,28.60817l9.75,-9.75l2.21475,-2.18667l4.74953,4.70808l10.32096,-10.23627l0.12278,0.12192l7.08665,-7.08665l1.96961,1.96515l-4.17857,4.17991l-2.90268,2.90268l0.11697,0.11614l-22.87183,22.87183h29.83611z" id="flatShadow" fill="#000000" opacity="0.324"/><path d="M54.5,51.71429v2.78571h-36.21429c-1.53861,0 -2.78571,-1.24711 -2.78571,-2.78571v-36.21429h2.78571v28.67191l6.96429,-6.96429l1.96961,1.97095l-8.9339,8.93256v3.60315zM48.35182,23.85714l4.17857,-4.17857l1.96961,1.96515l-4.17857,4.17991zM35,41.26808l-6.96429,-6.90991l2.21475,-2.18667l4.74953,4.70808l10.32096,-10.23627l2.21475,2.19915z" id="icon" fill="#ffffff"/></g></svg>