<svg version="1.1" xmlns="http://www.w3.org/2000/svg" xmlns:xlink="http://www.w3.org/1999/xlink" width="70" height="70" viewBox="0,0,70,70" odoo-icon:version="1.0" xmlns:odoo-icon="https://ivantodorovich.github.io/odoo-icon" odoo-icon:size="70" odoo-icon:icon-size="0.6" odoo-icon:icon-color="#FFFFFF" odoo-icon:icon-flat-shadow-angle="135" odoo-icon:background-color="#5a9442" odoo-icon:background-gradient="0.2" odoo-icon:box-radius="3.5" odoo-icon:odoo-version="14.0"><defs><linearGradient x1="70" y1="0" x2="0" y2="70" gradientUnits="userSpaceOnUse" id="color-1"><stop offset="0" stop-color="#8dc775"/><stop offset="1" stop-color="#5a9442"/></linearGradient></defs><g fill="none" fill-rule="nonzero" stroke="none" stroke-width="1" stroke-linecap="butt" stroke-linejoin="miter" stroke-miterlimit="10" stroke-dasharray="" stroke-dashoffset="0" font-family="none" font-weight="none" font-size="none" text-anchor="none" style="mix-blend-mode: normal"><path d="M3.5,70c-1.933,0 -3.5,-1.567 -3.5,-3.5v-63c0,-1.933 1.567,-3.5 3.5,-3.5h63c1.933,0 3.5,1.567 3.5,3.5v63c0,1.933 -1.567,3.5 -3.5,3.5z" id="box" fill="url(#color-1)"/><path d="M65,1h-61c-1.95033,0 -3.2667,0.63396 -3.9491,1.90189c0.28378,-1.64806 1.72001,-2.90189 3.4491,-2.90189h63c1.72965,0 3.16627,1.25466 3.44938,2.90352c-0.69803,-1.26902 -2.34782,-1.90352 -4.94938,-1.90352z" id="topBoxShadow" fill="#ffffff" opacity="0.383"/><path d="M4,69h61c2.66667,0 4.33333,-1 5,-3v0.5c0,1.933 -1.567,3.5 -3.5,3.5h-63c-1.933,0 -3.5,-1.567 -3.5,-3.5c0,-0.1611 0,-0.32777 0,-0.5c0.66667,2 2,3 4,3z" id="bottomBoxShadow" fill="#000000" opacity="0.383"/><path d="M43.39995,36.53833l8.9042,-15.39323l3.63285,2.10018l-10.98321,19.00491l-13.67105,-7.87503l-10.01704,17.32507h34.73431v4.19985h-42v-37.80015h4.19985v30.53395l11.55021,-20.03408z" id="shadow" fill="#000000" opacity="0.3"/><path d="M52.30415,19.1451l3.63285,2.10018l-10.98321,19.00491l-9.45004,9.45004h20.49625v4.19985l-16.09992,16.09992h-36.40008c-1.933,0 -3.5,-1.567 -3.5,-3.5l0,-36.40008l14,-14h4.19985v22.05009l11.55021,-11.55021l9.54702,5.55238z" id="flatShadow" fill="#000000" opacity="0.324"/><path d="M43.39995,34.53833l8.9042,-15.39323l3.63285,2.10018l-10.98321,19.00491l-13.67105,-7.87503l-10.01704,17.32507h34.73431v4.19985h-42v-37.80015h4.19985v30.53395l11.55021,-20.03408z" id="icon" fill="#ffffff"/></g></svg>