<svg version="1.1" xmlns="http://www.w3.org/2000/svg" xmlns:xlink="http://www.w3.org/1999/xlink" width="70" height="70" viewBox="0,0,70,70" odoo-icon:version="1.0" xmlns:odoo-icon="https://ivantodorovich.github.io/odoo-icon" odoo-icon:size="70" odoo-icon:icon-size="0.6" odoo-icon:icon-color="#FFFFFF" odoo-icon:icon-flat-shadow-angle="135" odoo-icon:background-color="#5a9442" odoo-icon:background-gradient="0.2" odoo-icon:box-radius="3.5" odoo-icon:odoo-version="14.0"><defs><linearGradient x1="70" y1="0" x2="0" y2="70" gradientUnits="userSpaceOnUse" id="color-1"><stop offset="0" stop-color="#8dc775"/><stop offset="1" stop-color="#5a9442"/></linearGradient></defs><g fill="none" fill-rule="nonzero" stroke="none" stroke-width="1" stroke-linecap="butt" stroke-linejoin="miter" stroke-miterlimit="10" stroke-dasharray="" stroke-dashoffset="0" font-family="none" font-weight="none" font-size="none" text-anchor="none" style="mix-blend-mode: normal"><path d="M3.5,70c-1.933,0 -3.5,-1.567 -3.5,-3.5v-63c0,-1.933 1.567,-3.5 3.5,-3.5h63c1.933,0 3.5,1.567 3.5,3.5v63c0,1.933 -1.567,3.5 -3.5,3.5z" id="box" fill="url(#color-1)"/><path d="M65,1h-61c-1.95033,0 -3.2667,0.63396 -3.9491,1.90189c0.28378,-1.64806 1.72001,-2.90189 3.4491,-2.90189h63c1.72965,0 3.16627,1.25466 3.44938,2.90352c-0.69803,-1.26902 -2.34782,-1.90352 -4.94938,-1.90352z" id="topBoxShadow" fill="#ffffff" opacity="0.383"/><path d="M4,69h61c2.66667,0 4.33333,-1 5,-3v0.5c0,1.933 -1.567,3.5 -3.5,3.5h-63c-1.933,0 -3.5,-1.567 -3.5,-3.5c0,-0.1611 0,-0.32777 0,-0.5c0.66667,2 2,3 4,3z" id="bottomBoxShadow" fill="#000000" opacity="0.383"/><path d="M32.89985,20.2003h-10.49975v-2.10015c0,-1.15969 -0.93995,-2.10015 -2.10015,-2.10015c-1.15969,0 -2.10015,0.93995 -2.10015,2.10015v37.7997c0,1.15969 0.93995,2.10015 2.10015,2.10015c1.15969,0 2.10015,-0.93995 2.10015,-2.10015v-2.10015h10.49975c1.15969,0 2.10015,-0.93995 2.10015,-2.10015v-29.3996c0,-1.15969 -0.93995,-2.10015 -2.10015,-2.10015zM30.8002,49.5999h-8.4001v-25.1998h8.4001zM49.70005,22.29995h-6.29995v-4.1998c0,-1.15969 -0.93995,-2.10015 -2.10015,-2.10015c-1.15969,0 -2.10015,0.93995 -2.10015,2.10015v37.7997c0,1.15969 0.93995,2.10015 2.10015,2.10015c1.15969,0 2.10015,-0.93995 2.10015,-2.10015v-4.1998h6.29995c1.15969,0 2.10015,-0.93995 2.10015,-2.10015v-25.1998c0,-1.15969 -0.93995,-2.10015 -2.10015,-2.10015zM47.5999,47.49975h-4.1998v-21h4.1998z" id="shadow" fill="#000000" opacity="0.3"/><path d="M18.81486,14.61512c0.38009,-0.38009 0.90517,-0.61512 1.48508,-0.61512c1.1602,0 2.10015,0.94046 2.10015,2.10015v2.10015l10.49924,0l0.0005,-0.0005c0.90077,0 1.66877,0.56689 1.9672,1.36314l4.94782,-4.94782c0.38009,-0.38009 0.90517,-0.61512 1.48508,-0.61512c1.1602,0 2.10015,0.94046 2.10015,2.10015v4.1998h6.29995c1.1602,0 2.10015,0.94046 2.10015,2.10015v25.1998c0,0.58004 -0.23506,1.10502 -0.61507,1.48503l-20.91507,20.91507h-26.77006c-1.933,0 -3.5,-1.567 -3.5,-3.5l0,-33.07001z" id="flatShadow" fill="#000000" opacity="0.324"/><path d="M32.89985,18.2003h-10.49975v-2.10015c0,-1.15969 -0.93995,-2.10015 -2.10015,-2.10015c-1.15969,0 -2.10015,0.93995 -2.10015,2.10015v37.7997c0,1.15969 0.93995,2.10015 2.10015,2.10015c1.15969,0 2.10015,-0.93995 2.10015,-2.10015v-2.10015h10.49975c1.15969,0 2.10015,-0.93995 2.10015,-2.10015v-29.3996c0,-1.15969 -0.93995,-2.10015 -2.10015,-2.10015zM30.8002,47.5999h-8.4001v-25.1998h8.4001zM49.70005,20.29995h-6.29995v-4.1998c0,-1.15969 -0.93995,-2.10015 -2.10015,-2.10015c-1.15969,0 -2.10015,0.93995 -2.10015,2.10015v37.7997c0,1.15969 0.93995,2.10015 2.10015,2.10015c1.15969,0 2.10015,-0.93995 2.10015,-2.10015v-4.1998h6.29995c1.15969,0 2.10015,-0.93995 2.10015,-2.10015v-25.1998c0,-1.15969 -0.93995,-2.10015 -2.10015,-2.10015zM47.5999,45.49975h-4.1998v-21h4.1998z" id="icon" fill="#ffffff"/></g></svg>