<svg version="1.1" xmlns="http://www.w3.org/2000/svg" xmlns:xlink="http://www.w3.org/1999/xlink" width="70" height="70" viewBox="0,0,70,70" odoo-icon:version="1.0" xmlns:odoo-icon="https://ivantodorovich.github.io/odoo-icon" odoo-icon:size="70" odoo-icon:icon-size="0.59" odoo-icon:icon-color="#FFFFFF" odoo-icon:icon-flat-shadow-angle="135" odoo-icon:background-color="#a4426b" odoo-icon:background-gradient="0.2" odoo-icon:box-radius="3.5" odoo-icon:odoo-version="14.0"><defs><linearGradient x1="70" y1="0" x2="0" y2="70" gradientUnits="userSpaceOnUse" id="color-1"><stop offset="0" stop-color="#d7759e"/><stop offset="1" stop-color="#a4426b"/></linearGradient></defs><g fill="none" fill-rule="nonzero" stroke="none" stroke-width="1" stroke-linecap="butt" stroke-linejoin="miter" stroke-miterlimit="10" stroke-dasharray="" stroke-dashoffset="0" font-family="none" font-weight="none" font-size="none" text-anchor="none" style="mix-blend-mode: normal"><path d="M3.5,70c-1.933,0 -3.5,-1.567 -3.5,-3.5v-63c0,-1.933 1.567,-3.5 3.5,-3.5h63c1.933,0 3.5,1.567 3.5,3.5v63c0,1.933 -1.567,3.5 -3.5,3.5z" id="box" fill="url(#color-1)"/><path d="M65,1h-61c-1.95033,0 -3.2667,0.63396 -3.9491,1.90189c0.28378,-1.64806 1.72001,-2.90189 3.4491,-2.90189h63c1.72965,0 3.16627,1.25466 3.44938,2.90352c-0.69803,-1.26902 -2.34782,-1.90352 -4.94938,-1.90352z" id="topBoxShadow" fill="#ffffff" opacity="0.383"/><path d="M4,69h61c2.66667,0 4.33333,-1 5,-3v0.5c0,1.933 -1.567,3.5 -3.5,3.5h-63c-1.933,0 -3.5,-1.567 -3.5,-3.5c0,-0.1611 0,-0.32777 0,-0.5c0.66667,2 2,3 4,3z" id="bottomBoxShadow" fill="#000000" opacity="0.383"/><path d="M26.7869,37.05524c4.25207,0 7.45915,-3.20759 7.45915,-7.45915c0,-4.25156 -3.20759,-7.45915 -7.45915,-7.45915c-4.25207,0 -7.45915,3.20759 -7.45915,7.45915c0,4.25207 3.20759,7.45915 7.45915,7.45915zM28.91831,39.07565h-4.2623c-5.87556,0 -10.65601,4.78045 -10.65601,10.65601v2.13141h25.57482v-2.13141c0,-5.87607 -4.78045,-10.65601 -10.65601,-10.65601zM52.98626,29.04367l-4.88684,4.88684l-4.88684,-4.88684l-3.01374,3.01374l4.88479,4.88479l-4.88684,4.88684l3.01374,3.01374l4.88684,-4.88684l4.88888,4.88888l3.01374,-3.01374l-4.88684,-4.88684l4.88684,-4.88684z" id="shadow" fill="#000000" opacity="0.3"/><path d="M21.46292,22.27206c1.33327,-1.33327 3.19801,-2.13512 5.32398,-2.13512c4.25156,0 7.45915,3.20759 7.45915,7.45915c0,2.12584 -0.80182,3.99068 -2.13517,5.32403l-4.15553,4.15553h0.96347c1.27268,0 2.49397,0.22426 3.62643,0.63535l10.66733,-10.66733l4.88684,4.88684l4.88684,-4.88684l3.01374,3.01374l-4.88684,4.88684l4.88684,4.88684l-30.16892,30.16892h-22.33108c-1.933,0 -3.5,-1.567 -3.5,-3.5l0,-22.76503z" id="flatShadow" fill="#000000" opacity="0.324"/><path d="M26.7869,35.05524c4.25207,0 7.45915,-3.20759 7.45915,-7.45915c0,-4.25156 -3.20759,-7.45915 -7.45915,-7.45915c-4.25207,0 -7.45915,3.20759 -7.45915,7.45915c0,4.25207 3.20759,7.45915 7.45915,7.45915zM28.91831,37.07565h-4.2623c-5.87556,0 -10.65601,4.78045 -10.65601,10.65601v2.13141h25.57482v-2.13141c0,-5.87607 -4.78045,-10.65601 -10.65601,-10.65601zM52.98626,27.04367l-4.88684,4.88684l-4.88684,-4.88684l-3.01374,3.01374l4.88479,4.88479l-4.88684,4.88684l3.01374,3.01374l4.88684,-4.88684l4.88888,4.88888l3.01374,-3.01374l-4.88684,-4.88684l4.88684,-4.88684z" id="icon" fill="#ffffff"/></g></svg>