<svg version="1.1" xmlns="http://www.w3.org/2000/svg" xmlns:xlink="http://www.w3.org/1999/xlink" width="70" height="70" viewBox="0,0,70,70" odoo-icon:version="1.0" xmlns:odoo-icon="https://ivantodorovich.github.io/odoo-icon" odoo-icon:size="70" odoo-icon:icon-size="0.65" odoo-icon:icon-color="#FFFFFF" odoo-icon:icon-flat-shadow-angle="135" odoo-icon:background-color="#3949ab" odoo-icon:background-gradient="0.2" odoo-icon:box-radius="3.5" odoo-icon:odoo-version="14.0"><defs><linearGradient x1="70" y1="0" x2="0" y2="70" gradientUnits="userSpaceOnUse" id="color-1"><stop offset="0" stop-color="#6c7cde"/><stop offset="1" stop-color="#3949ab"/></linearGradient></defs><g fill="none" fill-rule="nonzero" stroke="none" stroke-width="1" stroke-linecap="butt" stroke-linejoin="miter" stroke-miterlimit="10" stroke-dasharray="" stroke-dashoffset="0" font-family="none" font-weight="none" font-size="none" text-anchor="none" style="mix-blend-mode: normal"><path d="M3.5,70c-1.933,0 -3.5,-1.567 -3.5,-3.5v-63c0,-1.933 1.567,-3.5 3.5,-3.5h63c1.933,0 3.5,1.567 3.5,3.5v63c0,1.933 -1.567,3.5 -3.5,3.5z" id="box" fill="url(#color-1)"/><path d="M65,1h-61c-1.95033,0 -3.2667,0.63396 -3.9491,1.90189c0.28378,-1.64806 1.72001,-2.90189 3.4491,-2.90189h63c1.72965,0 3.16627,1.25466 3.44938,2.90352c-0.69803,-1.26902 -2.34782,-1.90352 -4.94938,-1.90352z" id="topBoxShadow" fill="#ffffff" opacity="0.383"/><path d="M4,69h61c2.66667,0 4.33333,-1 5,-3v0.5c0,1.933 -1.567,3.5 -3.5,3.5h-63c-1.933,0 -3.5,-1.567 -3.5,-3.5c0,-0.1611 0,-0.32777 0,-0.5c0.66667,2 2,3 4,3z" id="bottomBoxShadow" fill="#000000" opacity="0.383"/><path d="M52.58882,25.53102l-11.04841,-11.04841c-0.30807,-0.30807 -0.72391,-0.48261 -1.16025,-0.48261h-21.80873c-0.90896,0 -1.64286,0.7339 -1.64286,1.64286v42.71429c0,0.90896 0.7339,1.64286 1.64286,1.64286h32.85714c0.90896,0 1.64286,-0.7339 1.64286,-1.64286v-31.66114c0,-0.43634 -0.17454,-0.85744 -0.48261,-1.16551zM49.28261,27.45093h-9.6621v-9.6621zM49.37513,56.3037h-28.74974v-38.60688h15.50437v11.08942c0,1.19074 0.96521,2.15648 2.15648,2.15648h11.08942zM30.73909,35.41865c-0.09778,-0.22606 -0.31806,-0.36958 -0.56462,-0.36958h-1.79689c-0.33909,0 -0.61614,0.27705 -0.61614,0.61614v13.96455c0,0.33909 0.27705,0.61614 0.61614,0.61614h1.39104c0.33909,0 0.61614,-0.27705 0.61614,-0.61614v-9.03072l3.42923,7.71118c0.09936,0.22238 0.32121,0.36537 0.56462,0.36432h1.23753c0.2413,0 0.4621,-0.14352 0.56462,-0.36432l3.42923,-7.73168v9.05122c0,0.33909 0.27705,0.61614 0.61614,0.61614h1.3963c0.33909,0 0.61614,-0.27705 0.61614,-0.61614v-13.96402c0,-0.33909 -0.27705,-0.61614 -0.61614,-0.61614h-1.78165c-0.24656,0 -0.46736,0.14352 -0.56462,0.36958l-4.26617,9.80562z" id="shadow" fill="#000000" opacity="0.3"/><path d="M17.40914,12.48057c0.29709,-0.29709 0.70781,-0.48057 1.16229,-0.48057h21.80873c0.43634,0 0.85218,0.17454 1.16025,0.48261l11.04815,11.04815l0.00026,-0.00026c0.30807,0.30807 0.48261,0.72917 0.48261,1.16551v31.66114l-13.64286,13.64286h-35.92857c-1.933,0 -3.5,-1.567 -3.5,-3.5l0,-36.61029z" id="flatShadow" fill="#000000" opacity="0.324"/><path d="M52.58882,23.53102l-11.04841,-11.04841c-0.30807,-0.30807 -0.72391,-0.48261 -1.16025,-0.48261h-21.80873c-0.90896,0 -1.64286,0.7339 -1.64286,1.64286v42.71429c0,0.90896 0.7339,1.64286 1.64286,1.64286h32.85714c0.90896,0 1.64286,-0.7339 1.64286,-1.64286v-31.66114c0,-0.43634 -0.17454,-0.85744 -0.48261,-1.16551zM49.28261,25.45093h-9.6621v-9.6621zM49.37513,54.3037h-28.74974v-38.60688h15.50437v11.08942c0,1.19074 0.96521,2.15648 2.15648,2.15648h11.08942zM30.73909,33.41865c-0.09778,-0.22606 -0.31806,-0.36958 -0.56462,-0.36958h-1.79689c-0.33909,0 -0.61614,0.27705 -0.61614,0.61614v13.96455c0,0.33909 0.27705,0.61614 0.61614,0.61614h1.39104c0.33909,0 0.61614,-0.27705 0.61614,-0.61614v-9.03072l3.42923,7.71118c0.09936,0.22238 0.32121,0.36537 0.56462,0.36432h1.23753c0.2413,0 0.4621,-0.14352 0.56462,-0.36432l3.42923,-7.73168v9.05122c0,0.33909 0.27705,0.61614 0.61614,0.61614h1.3963c0.33909,0 0.61614,-0.27705 0.61614,-0.61614v-13.96402c0,-0.33909 -0.27705,-0.61614 -0.61614,-0.61614h-1.78165c-0.24656,0 -0.46736,0.14352 -0.56462,0.36958l-4.26617,9.80562z" id="icon" fill="#ffffff"/></g></svg>