<svg version="1.1" xmlns="http://www.w3.org/2000/svg" xmlns:xlink="http://www.w3.org/1999/xlink" width="70" height="70" viewBox="0,0,70,70" odoo-icon:version="1.0" xmlns:odoo-icon="https://ivantodorovich.github.io/odoo-icon" odoo-icon:size="70" odoo-icon:icon-size="0.6" odoo-icon:icon-color="#FFFFFF" odoo-icon:icon-flat-shadow-angle="135" odoo-icon:background-color="#a4426b" odoo-icon:background-gradient="0.2" odoo-icon:box-radius="3.5" odoo-icon:odoo-version="14.0"><defs><linearGradient x1="70" y1="0" x2="0" y2="70" gradientUnits="userSpaceOnUse" id="color-1"><stop offset="0" stop-color="#d7759e"/><stop offset="1" stop-color="#a4426b"/></linearGradient></defs><g fill="none" fill-rule="nonzero" stroke="none" stroke-width="1" stroke-linecap="butt" stroke-linejoin="miter" stroke-miterlimit="10" stroke-dasharray="" stroke-dashoffset="0" font-family="none" font-weight="none" font-size="none" text-anchor="none" style="mix-blend-mode: normal"><path d="M3.5,70c-1.933,0 -3.5,-1.567 -3.5,-3.5v-63c0,-1.933 1.567,-3.5 3.5,-3.5h63c1.933,0 3.5,1.567 3.5,3.5v63c0,1.933 -1.567,3.5 -3.5,3.5z" id="box" fill="url(#color-1)"/><path d="M65,1h-61c-1.95033,0 -3.2667,0.63396 -3.9491,1.90189c0.28378,-1.64806 1.72001,-2.90189 3.4491,-2.90189h63c1.72965,0 3.16627,1.25466 3.44938,2.90352c-0.69803,-1.26902 -2.34782,-1.90352 -4.94938,-1.90352z" id="topBoxShadow" fill="#ffffff" opacity="0.383"/><path d="M4,69h61c2.66667,0 4.33333,-1 5,-3v0.5c0,1.933 -1.567,3.5 -3.5,3.5h-63c-1.933,0 -3.5,-1.567 -3.5,-3.5c0,-0.1611 0,-0.32777 0,-0.5c0.66667,2 2,3 4,3z" id="bottomBoxShadow" fill="#000000" opacity="0.383"/><path d="M16.86358,52.71178c-1.57989,0 -2.86358,-1.27579 -2.86358,-2.856v-24.27568c0,-3.53147 4.03768,-5.54526 6.87253,-3.42695l2.67284,1.99926l11.45463,8.568l11.45463,-8.568l2.67284,-1.99926c2.83011,-2.118 6.87253,-0.10484 6.87253,3.42695v3.80811l-0.00095,0.00063l0.00095,-0.00063v20.46726c0,1.57547 -1.27895,2.856 -2.86358,2.856h-6.68179v-16.18389l-11.45463,8.568l-11.45463,-8.568v16.18389z" id="shadow" fill="#000000" opacity="0.3"/><path d="M15.23414,20.56671c1.41715,-1.41715 3.78488,-1.79859 5.63839,-0.41356l2.67284,1.99926l11.45463,8.568l11.45463,-8.568l2.67284,-1.99926c2.83011,-2.118 6.87253,-0.10484 6.87253,3.42695v24.27537c0,0.78699 -0.31913,1.50038 -0.83608,2.01733l-20.12721,20.12721h-31.53671c-1.933,0 -3.5,-1.567 -3.5,-3.5v-30.69915z" id="flatShadow" fill="#000000" opacity="0.324"/><path d="M16.86358,50.71178c-1.57989,0 -2.86358,-1.27579 -2.86358,-2.856v-24.27568c0,-3.53147 4.03768,-5.54526 6.87253,-3.42695l2.67284,1.99926l11.45463,8.568l11.45463,-8.568l2.67284,-1.99926c2.83011,-2.118 6.87253,-0.10484 6.87253,3.42695v3.80811l-0.00095,0.00063l0.00095,-0.00063v20.46726c0,1.57547 -1.27895,2.856 -2.86358,2.856h-6.68179v-16.18389l-11.45463,8.568l-11.45463,-8.568v16.18389z" id="icon" fill="#ffffff"/></g></svg>