<svg version="1.1" xmlns="http://www.w3.org/2000/svg" xmlns:xlink="http://www.w3.org/1999/xlink" width="70" height="70" viewBox="0,0,70,70" odoo-icon:version="1.0" xmlns:odoo-icon="https://ivantodorovich.github.io/odoo-icon" odoo-icon:size="70" odoo-icon:icon-size="0.58" odoo-icon:icon-color="#FFFFFF" odoo-icon:icon-flat-shadow-angle="135" odoo-icon:background-color="#334984" odoo-icon:background-gradient="0.2" odoo-icon:box-radius="3.5" odoo-icon:odoo-version="14.0"><defs><linearGradient x1="70" y1="0" x2="0" y2="70" gradientUnits="userSpaceOnUse" id="color-1"><stop offset="0" stop-color="#667cb7"/><stop offset="1" stop-color="#334984"/></linearGradient></defs><g fill="none" fill-rule="nonzero" stroke="none" stroke-width="1" stroke-linecap="butt" stroke-linejoin="miter" stroke-miterlimit="10" stroke-dasharray="" stroke-dashoffset="0" font-family="none" font-weight="none" font-size="none" text-anchor="none" style="mix-blend-mode: normal"><path d="M3.5,70c-1.933,0 -3.5,-1.567 -3.5,-3.5v-63c0,-1.933 1.567,-3.5 3.5,-3.5h63c1.933,0 3.5,1.567 3.5,3.5v63c0,1.933 -1.567,3.5 -3.5,3.5z" id="box" fill="url(#color-1)"/><path d="M65,1h-61c-1.95033,0 -3.2667,0.63396 -3.9491,1.90189c0.28378,-1.64806 1.72001,-2.90189 3.4491,-2.90189h63c1.72965,0 3.16627,1.25466 3.44938,2.90352c-0.69803,-1.26902 -2.34782,-1.90352 -4.94938,-1.90352z" id="topBoxShadow" fill="#ffffff" opacity="0.383"/><path d="M4,69h61c2.66667,0 4.33333,-1 5,-3v0.5c0,1.933 -1.567,3.5 -3.5,3.5h-63c-1.933,0 -3.5,-1.567 -3.5,-3.5c0,-0.1611 0,-0.32777 0,-0.5c0.66667,2 2,3 4,3z" id="bottomBoxShadow" fill="#000000" opacity="0.383"/><path d="M18.53246,45.08896c-0.63491,0.66444 -1.35349,1.26244 -2.10899,1.75216c-0.36913,0.2515 -0.84606,0.28349 -1.2457,0.08269c-0.39916,-0.20081 -0.65854,-0.60243 -0.67675,-1.04883c-0.01821,-0.44641 0.20721,-0.8682 0.58865,-1.101c1.80383,-1.16646 3.15979,-3.02198 3.46986,-4.40254c0.13683,-0.61276 0.71317,-1.02422 1.33725,-0.95483c0.62408,0.0694 1.09559,0.5975 1.09411,1.22552v14.19935c0,0.6797 -0.55075,1.23045 -1.23045,1.23045c-0.6797,0 -1.23045,-0.55075 -1.23045,-1.23045v-9.75252zM29.87226,41.87503c-1.55036,0 -2.69222,1.3338 -2.69222,2.64054c0,0.6797 -0.55075,1.23045 -1.23045,1.23045c-0.6797,0 -1.23045,-0.55075 -1.23045,-1.23045c0,-2.56425 2.14098,-5.10143 5.15311,-5.10143c1.7743,0 3.49447,0.80225 4.45914,2.23695c1.00897,1.50114 1.05326,3.47724 -0.14027,5.43857c-0.60538,0.99666 -1.4347,1.75216 -2.25418,2.37722c-0.41097,0.31499 -0.8367,0.60784 -1.24029,0.88346l-0.17226,0.11812c-0.34453,0.23625 -0.67428,0.46019 -0.99174,0.68905c-1.05818,0.77272 -1.81614,1.4913 -2.15328,2.45351h6.36633c0.6797,0 1.23045,0.55075 1.23045,1.23045c0,0.6797 -0.55075,1.23045 -1.23045,1.23045h-7.79611c-0.6797,0 -1.23045,-0.55075 -1.23045,-1.23045c0,-2.87186 1.73001,-4.48375 3.3665,-5.67236c0.34945,-0.25593 0.7112,-0.50202 1.05572,-0.73827l0.16734,-0.1132c0.40113,-0.27316 0.7801,-0.53647 1.13201,-0.80717c0.71366,-0.5414 1.27228,-1.08033 1.6488,-1.69802c0.76534,-1.26244 0.60046,-2.1902 0.19933,-2.78819c-0.44296,-0.66198 -1.34119,-1.14924 -2.4166,-1.14924zM40.88475,42.51486c-0.3273,0.27956 -0.56797,0.64672 -0.69397,1.05818c-0.11911,0.4277 -0.45969,0.75796 -0.89084,0.86427c-0.43115,0.10631 -0.88592,-0.02805 -1.19058,-0.35142c-0.30417,-0.32336 -0.41097,-0.78552 -0.27857,-1.20928c0.26135,-0.8682 0.76731,-1.64338 1.45685,-2.23203c0.85639,-0.73089 2.06715,-1.23045 3.67657,-1.23045c3.26068,0 5.1851,2.3034 5.1851,4.45668c0,0.84901 -0.17226,2.14836 -1.07787,3.24838c-0.15996,0.19687 -0.33714,0.37898 -0.53401,0.54878c0.30761,0.2264 0.598,0.50448 0.84655,0.84163c0.49218,0.66444 0.76288,1.4913 0.76288,2.46089c0,1.75462 -0.61276,3.10073 -1.68571,3.9768c-1.03358,0.84163 -2.33047,1.12463 -3.49447,1.12463c-1.1074,0 -2.18773,-0.17718 -3.11549,-0.74565c-0.95483,-0.58569 -1.6045,-1.4913 -2.00563,-2.67007c-0.21902,-0.64377 0.12551,-1.34266 0.76928,-1.56168c0.64377,-0.21902 1.34266,0.12551 1.56168,0.76928c0.25839,0.75796 0.598,1.14185 0.95975,1.36333c0.39128,0.23871 0.95975,0.3839 1.82844,0.3839c0.81209,0 1.48884,-0.20179 1.94164,-0.57093c0.40851,-0.33222 0.78256,-0.92283 0.78256,-2.06961c0.0187,-0.35634 -0.0817,-0.70874 -0.28546,-1.00158c-0.20425,-0.25692 -0.47151,-0.45674 -0.77518,-0.58077c-0.73827,-0.33468 -1.67833,-0.41589 -2.32308,-0.41589c-0.6797,0 -1.23045,-0.55075 -1.23045,-1.23045c0,-0.6797 0.55075,-1.23045 1.23045,-1.23045c1.75216,0 2.51011,-0.52171 2.86694,-0.95483c0.39374,-0.47741 0.51679,-1.11478 0.51679,-1.68571c0,-0.68905 -0.71366,-1.99578 -2.72421,-1.99578c-1.07049,0 -1.70048,0.31992 -2.07945,0.63983zM16.12571,32.07821c0,-1.0193 0.82637,-1.84567 1.84567,-1.84567h35.68295c1.0193,0 1.84567,0.82637 1.84567,1.84567c0,1.0193 -0.82637,1.84567 -1.84567,1.84567h-35.68295c-1.0193,0 -1.84567,-0.82637 -1.84567,-1.84567zM16.12571,19.77375c0,-1.0193 0.82637,-1.84567 1.84567,-1.84567h35.68295c1.0193,0 1.84567,0.82637 1.84567,1.84567c0,1.0193 -0.82637,1.84567 -1.84567,1.84567h-35.68295c-1.0193,0 -1.84567,-0.82637 -1.84567,-1.84567zM50.57821,44.38268c0,-1.0193 0.82637,-1.84567 1.84567,-1.84567h1.23045c1.0193,0 1.84567,0.82637 1.84567,1.84567c0,1.0193 -0.82637,1.84567 -1.84567,1.84567h-1.23045c-1.0193,0 -1.84567,-0.82637 -1.84567,-1.84567z" id="shadow" fill="#000000" opacity="0.3"/><path d="M16.6663,16.46867c0,0 0,0 0,0c0.334,-0.334 0.79542,-0.5406 1.30507,-0.5406h35.68295c1.0193,0 1.84567,0.82637 1.84567,1.84567c0,0.50965 -0.20659,0.97107 -0.5406,1.30507l-9.15372,9.15372h7.84865c1.0193,0 1.84567,0.82637 1.84567,1.84567c0,0.50965 -0.20659,0.97107 -0.5406,1.30507l-7.82659,7.82659c0.66218,0.78539 1.0165,1.73699 1.0165,2.66094c0,0.84901 -0.17226,2.14836 -1.07787,3.24838c-0.00877,0.01079 -0.01759,0.02154 -0.02647,0.03225c2.53501,-2.53501 4.07384,-4.07384 4.07384,-4.07384c0.334,-0.334 0.79542,-0.5406 1.30507,-0.5406h1.23045c1.0193,0 1.84567,0.82637 1.84567,1.84567c0,0.50965 -0.20659,0.97107 -0.5406,1.30507l-7.05521,7.05521c-0.22682,0.75951 -0.60743,1.39985 -1.11966,1.91208l-17.34496,17.34496h-25.93958c-1.933,0 -3.5,-1.567 -3.5,-3.5l0,-33.36502z" id="flatShadow" fill="#000000" opacity="0.324"/><path d="M18.53246,43.08896c-0.63491,0.66444 -1.35349,1.26244 -2.10899,1.75216c-0.36913,0.2515 -0.84606,0.28349 -1.2457,0.08269c-0.39916,-0.20081 -0.65854,-0.60243 -0.67675,-1.04883c-0.01821,-0.44641 0.20721,-0.8682 0.58865,-1.101c1.80383,-1.16646 3.15979,-3.02198 3.46986,-4.40254c0.13683,-0.61276 0.71317,-1.02422 1.33725,-0.95483c0.62408,0.0694 1.09559,0.5975 1.09411,1.22552v14.19935c0,0.6797 -0.55075,1.23045 -1.23045,1.23045c-0.6797,0 -1.23045,-0.55075 -1.23045,-1.23045v-9.75252zM29.87226,39.87503c-1.55036,0 -2.69222,1.3338 -2.69222,2.64054c0,0.6797 -0.55075,1.23045 -1.23045,1.23045c-0.6797,0 -1.23045,-0.55075 -1.23045,-1.23045c0,-2.56425 2.14098,-5.10143 5.15311,-5.10143c1.7743,0 3.49447,0.80225 4.45914,2.23695c1.00897,1.50114 1.05326,3.47724 -0.14027,5.43857c-0.60538,0.99666 -1.4347,1.75216 -2.25418,2.37722c-0.41097,0.31499 -0.8367,0.60784 -1.24029,0.88346l-0.17226,0.11812c-0.34453,0.23625 -0.67428,0.46019 -0.99174,0.68905c-1.05818,0.77272 -1.81614,1.4913 -2.15328,2.45351h6.36633c0.6797,0 1.23045,0.55075 1.23045,1.23045c0,0.6797 -0.55075,1.23045 -1.23045,1.23045h-7.79611c-0.6797,0 -1.23045,-0.55075 -1.23045,-1.23045c0,-2.87186 1.73001,-4.48375 3.3665,-5.67236c0.34945,-0.25593 0.7112,-0.50202 1.05572,-0.73827l0.16734,-0.1132c0.40113,-0.27316 0.7801,-0.53647 1.13201,-0.80717c0.71366,-0.5414 1.27228,-1.08033 1.6488,-1.69802c0.76534,-1.26244 0.60046,-2.1902 0.19933,-2.78819c-0.44296,-0.66198 -1.34119,-1.14924 -2.4166,-1.14924zM40.88475,40.51486c-0.3273,0.27956 -0.56797,0.64672 -0.69397,1.05818c-0.11911,0.4277 -0.45969,0.75796 -0.89084,0.86427c-0.43115,0.10631 -0.88592,-0.02805 -1.19058,-0.35142c-0.30417,-0.32336 -0.41097,-0.78552 -0.27857,-1.20928c0.26135,-0.8682 0.76731,-1.64338 1.45685,-2.23203c0.85639,-0.73089 2.06715,-1.23045 3.67657,-1.23045c3.26068,0 5.1851,2.3034 5.1851,4.45668c0,0.84901 -0.17226,2.14836 -1.07787,3.24838c-0.15996,0.19687 -0.33714,0.37898 -0.53401,0.54878c0.30761,0.2264 0.598,0.50448 0.84655,0.84163c0.49218,0.66444 0.76288,1.4913 0.76288,2.46089c0,1.75462 -0.61276,3.10073 -1.68571,3.9768c-1.03358,0.84163 -2.33047,1.12463 -3.49447,1.12463c-1.1074,0 -2.18773,-0.17718 -3.11549,-0.74565c-0.95483,-0.58569 -1.6045,-1.4913 -2.00563,-2.67007c-0.21902,-0.64377 0.12551,-1.34266 0.76928,-1.56168c0.64377,-0.21902 1.34266,0.12551 1.56168,0.76928c0.25839,0.75796 0.598,1.14185 0.95975,1.36333c0.39128,0.23871 0.95975,0.3839 1.82844,0.3839c0.81209,0 1.48884,-0.20179 1.94164,-0.57093c0.40851,-0.33222 0.78256,-0.92283 0.78256,-2.06961c0.0187,-0.35634 -0.0817,-0.70874 -0.28546,-1.00158c-0.20425,-0.25692 -0.47151,-0.45674 -0.77518,-0.58077c-0.73827,-0.33468 -1.67833,-0.41589 -2.32308,-0.41589c-0.6797,0 -1.23045,-0.55075 -1.23045,-1.23045c0,-0.6797 0.55075,-1.23045 1.23045,-1.23045c1.75216,0 2.51011,-0.52171 2.86694,-0.95483c0.39374,-0.47741 0.51679,-1.11478 0.51679,-1.68571c0,-0.68905 -0.71366,-1.99578 -2.72421,-1.99578c-1.07049,0 -1.70048,0.31992 -2.07945,0.63983zM16.12571,30.07821c0,-1.0193 0.82637,-1.84567 1.84567,-1.84567h35.68295c1.0193,0 1.84567,0.82637 1.84567,1.84567c0,1.0193 -0.82637,1.84567 -1.84567,1.84567h-35.68295c-1.0193,0 -1.84567,-0.82637 -1.84567,-1.84567zM16.12571,17.77375c0,-1.0193 0.82637,-1.84567 1.84567,-1.84567h35.68295c1.0193,0 1.84567,0.82637 1.84567,1.84567c0,1.0193 -0.82637,1.84567 -1.84567,1.84567h-35.68295c-1.0193,0 -1.84567,-0.82637 -1.84567,-1.84567zM50.57821,42.38268c0,-1.0193 0.82637,-1.84567 1.84567,-1.84567h1.23045c1.0193,0 1.84567,0.82637 1.84567,1.84567c0,1.0193 -0.82637,1.84567 -1.84567,1.84567h-1.23045c-1.0193,0 -1.84567,-0.82637 -1.84567,-1.84567z" id="icon" fill="#ffffff"/></g></svg>