<svg version="1.1" xmlns="http://www.w3.org/2000/svg" xmlns:xlink="http://www.w3.org/1999/xlink" width="70" height="70" viewBox="0,0,70,70" odoo-icon:version="1.0" xmlns:odoo-icon="https://ivantodorovich.github.io/odoo-icon" odoo-icon:size="70" odoo-icon:icon-size="0.56" odoo-icon:icon-color="#FFFFFF" odoo-icon:icon-flat-shadow-angle="135" odoo-icon:background-color="#5e57a6" odoo-icon:background-gradient="0.2" odoo-icon:box-radius="3.5" odoo-icon:odoo-version="14.0"><defs><linearGradient x1="70" y1="0" x2="0" y2="70" gradientUnits="userSpaceOnUse" id="color-1"><stop offset="0" stop-color="#918ad9"/><stop offset="1" stop-color="#5e57a6"/></linearGradient></defs><g fill="none" fill-rule="nonzero" stroke="none" stroke-width="1" stroke-linecap="butt" stroke-linejoin="miter" stroke-miterlimit="10" stroke-dasharray="" stroke-dashoffset="0" font-family="none" font-weight="none" font-size="none" text-anchor="none" style="mix-blend-mode: normal"><path d="M3.5,70c-1.933,0 -3.5,-1.567 -3.5,-3.5v-63c0,-1.933 1.567,-3.5 3.5,-3.5h63c1.933,0 3.5,1.567 3.5,3.5v63c0,1.933 -1.567,3.5 -3.5,3.5z" id="box" fill="url(#color-1)"/><path d="M65,1h-61c-1.95033,0 -3.2667,0.63396 -3.9491,1.90189c0.28378,-1.64806 1.72001,-2.90189 3.4491,-2.90189h63c1.72965,0 3.16627,1.25466 3.44938,2.90352c-0.69803,-1.26902 -2.34782,-1.90352 -4.94938,-1.90352z" id="topBoxShadow" fill="#ffffff" opacity="0.383"/><path d="M4,69h61c2.66667,0 4.33333,-1 5,-3v0.5c0,1.933 -1.567,3.5 -3.5,3.5h-63c-1.933,0 -3.5,-1.567 -3.5,-3.5c0,-0.1611 0,-0.32777 0,-0.5c0.66667,2 2,3 4,3z" id="bottomBoxShadow" fill="#000000" opacity="0.383"/><path d="M47.49913,33.67403v4.2745c0,2.27504 -7.34949,9.04937 -12.49913,9.04937c-5.14964,0 -12.49913,-6.77473 -12.49913,-9.04937v-4.2745l12.49913,8.32462zM53.66109,50.21288c0.84674,1.07312 1.31591,2.39543 1.33511,3.76214v3.02499h-2.49983v-4.99965l-0.82754,3.33977c-0.24718,0.97593 -1.12552,1.65988 -2.13225,1.65988h-2.03746v-3.05499c0.0188,-1.3599 0.48437,-2.67541 1.32471,-3.74454l0.94513,-1.25511c-0.63276,-0.50596 -0.98113,-1.28671 -0.93553,-2.09545c0.0456,-0.80874 0.47997,-1.54549 1.16552,-1.97666v-12.8743l2.49983,-1.67468l0.01,14.55378c0.69355,0.43157 1.13272,1.17512 1.17552,1.99146c0.0428,0.81594 -0.31598,1.60149 -0.96033,2.10345zM54.9986,26.9993l-19.9986,12.49913l-19.9986,-12.49913l19.9986,-9.9993z" id="shadow" fill="#000000" opacity="0.3"/><path d="M15.0014,24.9993l19.9986,-9.9993l19.9986,9.9993l-4.99965,4.99965l2.49983,-1.67468l0.01,14.55378c0.69355,0.43157 1.13272,1.17512 1.17552,1.99146c0.03736,0.71229 -0.23131,1.40142 -0.72883,1.89895l-0.21988,0.21988l0.92552,1.22454c0.84674,1.07312 1.31591,2.39543 1.33511,3.76214v3.02499l-15,15h-36.4962c-1.933,0 -3.5,-1.567 -3.5,-3.5l0,-26.4993z" id="flatShadow" fill="#000000" opacity="0.324"/><path d="M47.49913,31.67403v4.2745c0,2.27504 -7.34949,9.04937 -12.49913,9.04937c-5.14964,0 -12.49913,-6.77473 -12.49913,-9.04937v-4.2745l12.49913,8.32462zM53.66109,48.21288c0.84674,1.07312 1.31591,2.39543 1.33511,3.76214v3.02499h-2.49983v-4.99965l-0.82754,3.33977c-0.24718,0.97593 -1.12552,1.65988 -2.13225,1.65988h-2.03746v-3.05499c0.0188,-1.3599 0.48437,-2.67541 1.32471,-3.74454l0.94513,-1.25511c-0.63276,-0.50596 -0.98113,-1.28671 -0.93553,-2.09545c0.0456,-0.80874 0.47997,-1.54549 1.16552,-1.97666v-12.8743l2.49983,-1.67468l0.01,14.55378c0.69355,0.43157 1.13272,1.17512 1.17552,1.99146c0.0428,0.81594 -0.31598,1.60149 -0.96033,2.10345zM54.9986,24.9993l-19.9986,12.49913l-19.9986,-12.49913l19.9986,-9.9993z" id="icon" fill="#ffffff"/></g></svg>