<svg version="1.1" xmlns="http://www.w3.org/2000/svg" xmlns:xlink="http://www.w3.org/1999/xlink" width="70" height="70" viewBox="0,0,70,70" odoo-icon:version="1.0" xmlns:odoo-icon="https://ivantodorovich.github.io/odoo-icon" odoo-icon:size="70" odoo-icon:icon-size="0.65" odoo-icon:icon-color="#FFFFFF" odoo-icon:icon-flat-shadow-angle="135" odoo-icon:background-color="#e53935" odoo-icon:background-gradient="0.2" odoo-icon:box-radius="3.5" odoo-icon:odoo-version="14.0"><defs><linearGradient x1="70" y1="0" x2="0" y2="70" gradientUnits="userSpaceOnUse" id="color-1"><stop offset="0" stop-color="#ff6c68"/><stop offset="1" stop-color="#e53935"/></linearGradient></defs><g fill="none" fill-rule="nonzero" stroke="none" stroke-width="1" stroke-linecap="butt" stroke-linejoin="miter" stroke-miterlimit="10" stroke-dasharray="" stroke-dashoffset="0" font-family="none" font-weight="none" font-size="none" text-anchor="none" style="mix-blend-mode: normal"><path d="M3.5,70c-1.933,0 -3.5,-1.567 -3.5,-3.5v-63c0,-1.933 1.567,-3.5 3.5,-3.5h63c1.933,0 3.5,1.567 3.5,3.5v63c0,1.933 -1.567,3.5 -3.5,3.5z" id="box" fill="url(#color-1)"/><path d="M65,1h-61c-1.95033,0 -3.2667,0.63396 -3.9491,1.90189c0.28378,-1.64806 1.72001,-2.90189 3.4491,-2.90189h63c1.72965,0 3.16627,1.25466 3.44938,2.90352c-0.69803,-1.26902 -2.34782,-1.90352 -4.94938,-1.90352z" id="topBoxShadow" fill="#ffffff" opacity="0.383"/><path d="M4,69h61c2.66667,0 4.33333,-1 5,-3v0.5c0,1.933 -1.567,3.5 -3.5,3.5h-63c-1.933,0 -3.5,-1.567 -3.5,-3.5c0,-0.1611 0,-0.32777 0,-0.5c0.66667,2 2,3 4,3z" id="bottomBoxShadow" fill="#000000" opacity="0.383"/><path d="M39.73302,14.37488c0.49831,0.49892 0.49831,1.30676 0,1.80569l-2.92796,2.92796l2.92796,2.92796c0.48421,0.50076 0.47686,1.29757 -0.01532,1.78975c-0.49279,0.49279 -1.28899,0.49954 -1.78975,0.01532l-2.92796,-2.92796l-2.92796,2.92796c-0.49892,0.49831 -1.30737,0.49831 -1.8063,-0.00061c-0.49831,-0.49892 -0.49831,-1.30737 0.00061,-1.8063l2.92796,-2.92673l-2.92796,-2.92796c-0.49831,-0.49892 -0.49831,-1.30737 0.00061,-1.8063c0.49892,-0.49831 1.30737,-0.49831 1.8063,0.00061l2.92673,2.92796l2.92796,-2.92796c0.49892,-0.49831 1.30676,-0.49831 1.80569,0zM28.86765,48.13065c1.74991,0.58289 3.67818,0.03126 4.855,-1.38951v13.25824l-15.32319,-5.77562v-9.5819zM51.5993,54.22438l-15.32319,5.77562v-13.25824c1.17682,1.42077 3.10509,1.9724 4.855,1.38951l10.46819,-3.48878zM52.01425,31.30885c0.23598,0.08029 0.44253,0.22801 0.59515,0.42537l5.09527,6.36955c0.26111,0.32608 0.3463,0.75942 0.22801,1.16027c-0.1183,0.40085 -0.42537,0.71835 -0.82194,0.85013l-17.23859,5.7462c-0.53631,0.17897 -1.12656,-0.01655 -1.4508,-0.47992l-3.42198,-4.89055l-3.4232,4.89055c-0.32363,0.46276 -0.91326,0.65828 -1.44957,0.47992l-17.23859,-5.7462c-0.39595,-0.13239 -0.70303,-0.44989 -0.82071,-0.85013c-0.1183,-0.40085 -0.0331,-0.83358 0.22862,-1.15966l5.09527,-6.36955c0.14588,-0.18817 0.3414,-0.33221 0.56451,-0.41495l0.02942,-0.00919l16.59747,-5.7462c0.2703,-0.09378 0.56451,-0.09378 0.83481,0zM34.99938,36.91162l12.6968,-4.39531l-12.6968,-4.39531l-12.6968,4.39531z" id="shadow" fill="#000000" opacity="0.3"/><path d="M39.73302,14.18057l-2.92796,2.92796l2.92796,2.92796c0.48421,0.50076 0.47686,1.29757 -0.01532,1.78975c0,0 0,0 0,0l-2.39701,2.39701l14.69357,5.08561c0.23598,0.08029 0.44253,0.22801 0.59515,0.42537l5.09527,6.36955c0.26111,0.32608 0.3463,0.75942 0.22801,1.16027c-0.06123,0.2075 -0.17305,0.39266 -0.32168,0.54129l-6.0117,6.0117v8.40735l-17.77562,17.77562h-30.32368c-1.933,0 -3.5,-1.567 -3.5,-3.5l0,-23.85938l30.26696,-30.26696c0.49892,-0.49831 1.30737,-0.49831 1.8063,0.00061l2.92673,2.92796l2.92796,-2.92796c0.49892,-0.49831 1.30676,-0.49831 1.80569,0l-0.00061,0.00061c0.49831,0.49892 0.49831,1.30676 0,1.80569z" id="flatShadow" fill="#000000" opacity="0.324"/><path d="M39.73302,12.37488c0.49831,0.49892 0.49831,1.30676 0,1.80569l-2.92796,2.92796l2.92796,2.92796c0.48421,0.50076 0.47686,1.29757 -0.01532,1.78975c-0.49279,0.49279 -1.28899,0.49954 -1.78975,0.01532l-2.92796,-2.92796l-2.92796,2.92796c-0.49892,0.49831 -1.30737,0.49831 -1.8063,-0.00061c-0.49831,-0.49892 -0.49831,-1.30737 0.00061,-1.8063l2.92796,-2.92673l-2.92796,-2.92796c-0.49831,-0.49892 -0.49831,-1.30737 0.00061,-1.8063c0.49892,-0.49831 1.30737,-0.49831 1.8063,0.00061l2.92673,2.92796l2.92796,-2.92796c0.49892,-0.49831 1.30676,-0.49831 1.80569,0zM28.86765,46.13065c1.74991,0.58289 3.67818,0.03126 4.855,-1.38951v13.25824l-15.32319,-5.77562v-9.5819zM51.5993,52.22438l-15.32319,5.77562v-13.25824c1.17682,1.42077 3.10509,1.9724 4.855,1.38951l10.46819,-3.48878zM52.01425,29.30885c0.23598,0.08029 0.44253,0.22801 0.59515,0.42537l5.09527,6.36955c0.26111,0.32608 0.3463,0.75942 0.22801,1.16027c-0.1183,0.40085 -0.42537,0.71835 -0.82194,0.85013l-17.23859,5.7462c-0.53631,0.17897 -1.12656,-0.01655 -1.4508,-0.47992l-3.42198,-4.89055l-3.4232,4.89055c-0.32363,0.46276 -0.91326,0.65828 -1.44957,0.47992l-17.23859,-5.7462c-0.39595,-0.13239 -0.70303,-0.44989 -0.82071,-0.85013c-0.1183,-0.40085 -0.0331,-0.83358 0.22862,-1.15966l5.09527,-6.36955c0.14588,-0.18817 0.3414,-0.33221 0.56451,-0.41495l0.02942,-0.00919l16.59747,-5.7462c0.2703,-0.09378 0.56451,-0.09378 0.83481,0zM34.99938,34.91162l12.6968,-4.39531l-12.6968,-4.39531l-12.6968,4.39531z" id="icon" fill="#ffffff"/></g></svg>