<svg version="1.1" xmlns="http://www.w3.org/2000/svg" xmlns:xlink="http://www.w3.org/1999/xlink" width="70" height="70" viewBox="0,0,70,70"><!-- Generated with https://ivantodorovich.github.io/odoo-icon --><defs><linearGradient x1="70" y1="0" x2="0" y2="70" gradientUnits="userSpaceOnUse" id="color-1"><stop offset="0" stop-color="#ff6c68"/><stop offset="1" stop-color="#e53935"/></linearGradient></defs><g fill="none" fill-rule="nonzero" stroke="none" stroke-width="1" stroke-linecap="butt" stroke-linejoin="miter" stroke-miterlimit="10" stroke-dasharray="" stroke-dashoffset="0" font-family="none" font-weight="none" font-size="none" text-anchor="none" style="mix-blend-mode: normal"><path d="M3.5,70c-1.933,0 -3.5,-1.567 -3.5,-3.5v-63c0,-1.933 1.567,-3.5 3.5,-3.5h63c1.933,0 3.5,1.567 3.5,3.5v63c0,1.933 -1.567,3.5 -3.5,3.5z" id="box" fill="url(#color-1)"/><path d="M65,1h-61c-1.95033,0 -3.2667,0.63396 -3.9491,1.90189c0.28378,-1.64806 1.72001,-2.90189 3.4491,-2.90189h63c1.72965,0 3.16627,1.25466 3.44938,2.90352c-0.69803,-1.26902 -2.34782,-1.90352 -4.94938,-1.90352z" id="topBoxShadow" fill="#ffffff" opacity="0.383"/><path d="M4,69h61c2.66667,0 4.33333,-1 5,-3v0.5c0,1.933 -1.567,3.5 -3.5,3.5h-63c-1.933,0 -3.5,-1.567 -3.5,-3.5c0,-0.1611 0,-0.32777 0,-0.5c0.66667,2 2,3 4,3z" id="bottomBoxShadow" fill="#000000" opacity="0.383"/><path d="M54.88529,51.64668l-7.82426,-7.82426c0.76351,-1.90855 0.38153,-4.38915 -1.33603,-5.91618c-1.71756,-1.71756 -4.19862,-2.09908 -6.2977,-1.14504l3.6261,3.6261l-2.6716,2.6716l-3.81664,-3.81664c-0.95404,2.09908 -0.57252,4.58015 1.14504,6.48869c1.71756,1.71756 4.00763,2.09908 5.91618,1.33603l7.82426,7.82426c0.38153,0.38153 0.95404,0.38153 1.14504,0l1.90855,-1.90855c0.57252,-0.57252 0.57252,-1.14504 0.38153,-1.33603M35.99219,49.35661h-20.99219v-3.81664c0,-4.19862 6.87022,-7.63373 15.267,-7.63373c0.95404,0 1.90855,0 2.6716,0.19099c-0.57252,1.14504 -0.76351,2.29007 -0.76351,3.6261c0,3.05358 1.52656,5.91618 3.81664,7.63373M30.267,18.8226c-4.19862,0 -7.63373,3.43511 -7.63373,7.63373c0,4.19862 3.43511,7.63373 7.63373,7.63373c4.19862,0 7.63373,-3.43511 7.63373,-7.63373c0,-4.19862 -3.43511,-7.63373 -7.63373,-7.63373z" id="shadow" fill="#000000" opacity="0.3"/><path d="M24.87566,19.06498c1.38361,-1.38361 3.29204,-2.24238 5.39135,-2.24238c4.19862,0 7.63373,3.43511 7.63373,7.63373c0,2.09931 -0.85878,4.00774 -2.24238,5.39135l-6.06598,6.06598c0.2237,-0.00493 0.44861,-0.00741 0.67463,-0.00741c0.95404,0 1.90855,0 2.6716,0.19099c-0.57252,1.14504 -0.76351,2.29007 -0.76351,3.6261c0,0 0,0 0,0c0,0.59053 0.05709,1.17391 0.16576,1.74325l4.22431,-4.22431l0.19053,0.19053l2.6716,-2.6716c2.09908,-0.95404 4.58015,-0.57252 6.2977,1.14504c1.71756,1.52702 2.09954,4.00763 1.33603,5.91618l7.82426,7.82426l-3.33359,3.33359c0.00009,0.00007 0.00017,0.00013 0.00026,0.0002l3.33379,-3.33379c0.19099,0.19099 0.19099,0.76351 -0.38153,1.33603l-1.90855,1.90855c-0.02508,0.0501 -0.05674,0.09362 -0.09368,0.13057l-16.97818,16.97818h-32.02381c-1.933,0 -3.5,-1.567 -3.5,-3.5l0,-22.55936zM5.00675,100.48018c0,0 0,0 0,0z" id="flatShadow" fill="#000000" opacity="0.324"/><path d="M54.88529,49.64668l-7.82426,-7.82426c0.76351,-1.90855 0.38153,-4.38915 -1.33603,-5.91618c-1.71756,-1.71756 -4.19862,-2.09908 -6.2977,-1.14504l3.6261,3.6261l-2.6716,2.6716l-3.81664,-3.81664c-0.95404,2.09908 -0.57252,4.58015 1.14504,6.48869c1.71756,1.71756 4.00763,2.09908 5.91618,1.33603l7.82426,7.82426c0.38153,0.38153 0.95404,0.38153 1.14504,0l1.90855,-1.90855c0.57252,-0.57252 0.57252,-1.14504 0.38153,-1.33603M35.99219,47.35661h-20.99219v-3.81664c0,-4.19862 6.87022,-7.63373 15.267,-7.63373c0.95404,0 1.90855,0 2.6716,0.19099c-0.57252,1.14504 -0.76351,2.29007 -0.76351,3.6261c0,3.05358 1.52656,5.91618 3.81664,7.63373M30.267,16.8226c-4.19862,0 -7.63373,3.43511 -7.63373,7.63373c0,4.19862 3.43511,7.63373 7.63373,7.63373c4.19862,0 7.63373,-3.43511 7.63373,-7.63373c0,-4.19862 -3.43511,-7.63373 -7.63373,-7.63373z" id="icon" fill="#ffffff"/></g></svg>