<svg version="1.1" xmlns="http://www.w3.org/2000/svg" xmlns:xlink="http://www.w3.org/1999/xlink" width="70" height="70" viewBox="0,0,70,70" odoo-icon:version="1.0" xmlns:odoo-icon="https://ivantodorovich.github.io/odoo-icon" odoo-icon:size="70" odoo-icon:icon-size="0.65" odoo-icon:icon-color="#FFFFFF" odoo-icon:icon-flat-shadow-angle="135" odoo-icon:background-color="#00897b" odoo-icon:background-gradient="0.2" odoo-icon:box-radius="3.5" odoo-icon:odoo-version="14.0"><defs><linearGradient x1="70" y1="0" x2="0" y2="70" gradientUnits="userSpaceOnUse" id="color-1"><stop offset="0" stop-color="#33bcae"/><stop offset="1" stop-color="#00897b"/></linearGradient></defs><g fill="none" fill-rule="nonzero" stroke="none" stroke-width="1" stroke-linecap="butt" stroke-linejoin="miter" stroke-miterlimit="10" stroke-dasharray="" stroke-dashoffset="0" font-family="none" font-weight="none" font-size="none" text-anchor="none" style="mix-blend-mode: normal"><path d="M3.5,70c-1.933,0 -3.5,-1.567 -3.5,-3.5v-63c0,-1.933 1.567,-3.5 3.5,-3.5h63c1.933,0 3.5,1.567 3.5,3.5v63c0,1.933 -1.567,3.5 -3.5,3.5z" id="box" fill="url(#color-1)"/><path d="M65,1h-61c-1.95033,0 -3.2667,0.63396 -3.9491,1.90189c0.28378,-1.64806 1.72001,-2.90189 3.4491,-2.90189h63c1.72965,0 3.16627,1.25466 3.44938,2.90352c-0.69803,-1.26902 -2.34782,-1.90352 -4.94938,-1.90352z" id="topBoxShadow" fill="#ffffff" opacity="0.383"/><path d="M4,69h61c2.66667,0 4.33333,-1 5,-3v0.5c0,1.933 -1.567,3.5 -3.5,3.5h-63c-1.933,0 -3.5,-1.567 -3.5,-3.5c0,-0.1611 0,-0.32777 0,-0.5c0.66667,2 2,3 4,3z" id="bottomBoxShadow" fill="#000000" opacity="0.383"/><path d="M57.22596,51.18568c-0.88401,-0.87036 -11.59425,-5.01304 -13.5381,-5.79494c-1.93347,-0.76771 -2.70445,-2.89556 -2.70445,-2.89556c0,0 -0.87036,0.48105 -0.87036,-0.87036c0,-1.35305 0.87036,0.87036 1.74018,-4.34744c0,0 2.41451,-0.67761 1.93511,-6.27927h-0.57988c0,0 1.45024,-5.98933 0,-8.01616c-1.4557,-2.02684 -2.0252,-3.37879 -5.22107,-4.34744c-3.19096,-0.96755 -2.03066,-0.77481 -4.34744,-0.67543c-2.3206,0.09719 -4.25188,1.35305 -4.25188,2.02684c0,0 -1.45024,0.09719 -2.02738,0.67761c-0.57988,0.57988 -1.54579,3.28269 -1.54579,3.95867c0,0.67598 0.48268,5.22162 0.96591,6.18371l-0.57496,0.18783c-0.48268,5.60383 1.93128,6.28254 1.93128,6.28254c0.87036,5.2178 1.74018,2.99439 1.74018,4.34744c0,1.35141 -0.87036,0.87036 -0.87036,0.87036c0,0 -0.77317,2.12621 -2.70445,2.89556c-1.93128,0.77317 -12.65408,4.92622 -13.52608,5.79494c-0.87036,0.88729 -0.77317,4.94151 -0.77317,4.94151h20.53757l1.49829,-5.90415l-1.33066,-1.3312l2.29166,-2.29493l2.29166,2.2933l-1.3312,1.3312l1.49829,5.90415h20.53702c0,0 0.10757,-4.0575 -0.77317,-4.94315z" id="shadow" fill="#000000" opacity="0.3"/><path d="M27.36278,18.66143c0.41971,-0.41971 1.29634,-0.58597 1.74605,-0.64563l0.60502,-0.60502c0.64499,-0.64499 2.17467,-1.37835 3.9261,-1.4517c2.31678,-0.09938 1.15648,-0.29212 4.34744,0.67543c3.19587,0.96864 3.76538,2.3206 5.22107,4.34744c1.45024,2.02684 0,8.01616 0,8.01616h0.57988c0.30511,3.56509 -0.56196,5.1357 -1.23276,5.8065l-0.74972,0.74972c-0.38804,2.20949 -0.77304,2.97695 -1.0776,3.28151l-0.60853,0.60853c-0.0044,0.05183 -0.00666,0.11149 -0.00666,0.18043c0,1.35141 0.87036,0.87036 0.87036,0.87036c0,0 0.77098,2.12785 2.70445,2.89556c1.94105,0.78078 12.62332,4.91268 13.53422,5.79117l0.0006,-0.0006c0.88074,0.88565 0.77317,4.94315 0.77317,4.94315l-15.87555,15.87555h-38.62031c-1.933,0 -3.5,-1.567 -3.5,-3.5l0,-20.47579z" id="flatShadow" fill="#000000" opacity="0.324"/><path d="M57.22596,49.18568c-0.88401,-0.87036 -11.59425,-5.01304 -13.5381,-5.79494c-1.93347,-0.76771 -2.70445,-2.89556 -2.70445,-2.89556c0,0 -0.87036,0.48105 -0.87036,-0.87036c0,-1.35305 0.87036,0.87036 1.74018,-4.34744c0,0 2.41451,-0.67761 1.93511,-6.27927h-0.57988c0,0 1.45024,-5.98933 0,-8.01616c-1.4557,-2.02684 -2.0252,-3.37879 -5.22107,-4.34744c-3.19096,-0.96755 -2.03066,-0.77481 -4.34744,-0.67543c-2.3206,0.09719 -4.25188,1.35305 -4.25188,2.02684c0,0 -1.45024,0.09719 -2.02738,0.67761c-0.57988,0.57988 -1.54579,3.28269 -1.54579,3.95867c0,0.67598 0.48268,5.22162 0.96591,6.18371l-0.57496,0.18783c-0.48268,5.60383 1.93128,6.28254 1.93128,6.28254c0.87036,5.2178 1.74018,2.99439 1.74018,4.34744c0,1.35141 -0.87036,0.87036 -0.87036,0.87036c0,0 -0.77317,2.12621 -2.70445,2.89556c-1.93128,0.77317 -12.65408,4.92622 -13.52608,5.79494c-0.87036,0.88729 -0.77317,4.94151 -0.77317,4.94151h20.53757l1.49829,-5.90415l-1.33066,-1.3312l2.29166,-2.29493l2.29166,2.2933l-1.3312,1.3312l1.49829,5.90415h20.53702c0,0 0.10757,-4.0575 -0.77317,-4.94315z" id="icon" fill="#ffffff"/></g></svg>