<svg version="1.1" xmlns="http://www.w3.org/2000/svg" xmlns:xlink="http://www.w3.org/1999/xlink" width="70" height="70" viewBox="0,0,70,70" odoo-icon:version="1.0" xmlns:odoo-icon="https://ivantodorovich.github.io/odoo-icon" odoo-icon:size="70" odoo-icon:icon-size="0.65" odoo-icon:icon-color="#FFFFFF" odoo-icon:icon-flat-shadow-angle="135" odoo-icon:background-color="#43a047" odoo-icon:background-gradient="0.2" odoo-icon:box-radius="3.5" odoo-icon:odoo-version="14.0"><defs><linearGradient x1="70" y1="0" x2="0" y2="70" gradientUnits="userSpaceOnUse" id="color-1"><stop offset="0" stop-color="#76d37a"/><stop offset="1" stop-color="#43a047"/></linearGradient></defs><g fill="none" fill-rule="nonzero" stroke="none" stroke-width="1" stroke-linecap="butt" stroke-linejoin="miter" stroke-miterlimit="10" stroke-dasharray="" stroke-dashoffset="0" font-family="none" font-weight="none" font-size="none" text-anchor="none" style="mix-blend-mode: normal"><path d="M3.5,70c-1.933,0 -3.5,-1.567 -3.5,-3.5v-63c0,-1.933 1.567,-3.5 3.5,-3.5h63c1.933,0 3.5,1.567 3.5,3.5v63c0,1.933 -1.567,3.5 -3.5,3.5z" id="box" fill="url(#color-1)"/><path d="M65,1h-61c-1.95033,0 -3.2667,0.63396 -3.9491,1.90189c0.28378,-1.64806 1.72001,-2.90189 3.4491,-2.90189h63c1.72965,0 3.16627,1.25466 3.44938,2.90352c-0.69803,-1.26902 -2.34782,-1.90352 -4.94938,-1.90352z" id="topBoxShadow" fill="#ffffff" opacity="0.383"/><path d="M4,69h61c2.66667,0 4.33333,-1 5,-3v0.5c0,1.933 -1.567,3.5 -3.5,3.5h-63c-1.933,0 -3.5,-1.567 -3.5,-3.5c0,-0.1611 0,-0.32777 0,-0.5c0.66667,2 2,3 4,3z" id="bottomBoxShadow" fill="#000000" opacity="0.383"/><path d="M52.69571,49.08829c9.74419,-12.33633 1.74792,-23.55066 1.74792,-23.55066c4.61319,8.66874 -4.2066,17.22627 -4.2066,17.22627c10.6691,-17.32714 -6.14747,-27.43033 -6.14747,-27.43033c9.8461,7.345 -1.0263,19.26698 -1.0263,19.26698c8.7184,16.00391 -6.97048,23.24752 -6.97048,23.24752c0,0 -0.04087,-1.70757 -0.22347,-8.6584c0.43711,0.4547 3.50567,3.65724 3.50567,3.65724l-2.4592,-4.78907l6.3606,-0.91922l-6.3606,-0.91922l2.05261,-5.60742l-3.19064,4.6375c-0.22347,-8.86066 -0.79249,-30.8253 -0.80283,-31.00687v-0.24261v0.10087v-0.10087v0.24261c0,0.10087 -0.56902,22.12604 -0.80283,31.00687l-3.19064,-4.6375l2.05261,5.60742l-6.3606,0.91922l6.3606,0.91922l-2.4592,4.78907l3.50567,-3.65724c-0.18312,6.95134 -0.22347,8.6584 -0.22347,8.6584c0,0 -15.68888,-7.24413 -6.97048,-23.24752c0,0 -10.8724,-11.93181 -1.0263,-19.26698c0,0 -16.81658,10.09336 -6.14747,27.43033c0,0 -8.81979,-8.56787 -4.2066,-17.22627c0,0 -7.99678,11.21484 1.74792,23.55066c0,0 -2.66197,-1.62688 -5.01978,-7.85039c0,0 1.7174,18.51949 22.55746,18.7621h0.41642c20.83023,-0.24261 22.55746,-18.7621 22.55746,-18.7621c-2.39816,6.21369 -5.07048,7.85039 -5.07048,7.85039z" id="shadow" fill="#000000" opacity="0.3"/><path d="M22.06392,16.42248c2.02685,-2.02685 3.79635,-3.08891 3.79635,-3.08891l-2.47646,2.47646c-2.02431,2.83784 -1.9315,6.02191 -1.06713,8.8482l12.65824,-12.65824v0.24261c0.00456,0.08001 0.11759,4.3896 0.26174,9.94387l8.85291,-8.85291c0,0 6.81599,4.09496 9.01621,11.54192l1.33786,-1.33786c0,0 5.39187,7.5618 1.92507,17.09723l1.39697,-1.39697c-1.55438,4.02743 -3.22393,6.13205 -4.20635,7.11447l-23.64763,23.64763h-26.41168c-1.933,0 -3.5,-1.567 -3.5,-3.5l0,-28.0136z" id="flatShadow" fill="#000000" opacity="0.324"/><path d="M52.69571,47.08829c9.74419,-12.33633 1.74792,-23.55066 1.74792,-23.55066c4.61319,8.66874 -4.2066,17.22627 -4.2066,17.22627c10.6691,-17.32714 -6.14747,-27.43033 -6.14747,-27.43033c9.8461,7.345 -1.0263,19.26698 -1.0263,19.26698c8.7184,16.00391 -6.97048,23.24752 -6.97048,23.24752c0,0 -0.04087,-1.70757 -0.22347,-8.6584c0.43711,0.4547 3.50567,3.65724 3.50567,3.65724l-2.4592,-4.78907l6.3606,-0.91922l-6.3606,-0.91922l2.05261,-5.60742l-3.19064,4.6375c-0.22347,-8.86066 -0.79249,-30.8253 -0.80283,-31.00687v-0.24261v0.10087v-0.10087v0.24261c0,0.10087 -0.56902,22.12604 -0.80283,31.00687l-3.19064,-4.6375l2.05261,5.60742l-6.3606,0.91922l6.3606,0.91922l-2.4592,4.78907l3.50567,-3.65724c-0.18312,6.95134 -0.22347,8.6584 -0.22347,8.6584c0,0 -15.68888,-7.24413 -6.97048,-23.24752c0,0 -10.8724,-11.93181 -1.0263,-19.26698c0,0 -16.81658,10.09336 -6.14747,27.43033c0,0 -8.81979,-8.56787 -4.2066,-17.22627c0,0 -7.99678,11.21484 1.74792,23.55066c0,0 -2.66197,-1.62688 -5.01978,-7.85039c0,0 1.7174,18.51949 22.55746,18.7621h0.41642c20.83023,-0.24261 22.55746,-18.7621 22.55746,-18.7621c-2.39816,6.21369 -5.07048,7.85039 -5.07048,7.85039z" id="icon" fill="#ffffff"/></g></svg>