<svg version="1.1" xmlns="http://www.w3.org/2000/svg" xmlns:xlink="http://www.w3.org/1999/xlink" width="70" height="70" viewBox="0,0,70,70" odoo-icon:version="1.0" xmlns:odoo-icon="https://ivantodorovich.github.io/odoo-icon" odoo-icon:size="70" odoo-icon:icon-size="0.57" odoo-icon:icon-color="#FFFFFF" odoo-icon:icon-flat-shadow-angle="135" odoo-icon:background-color="#5a9442" odoo-icon:background-gradient="0.2" odoo-icon:box-radius="3.5" odoo-icon:odoo-version="14.0"><defs><linearGradient x1="70" y1="0" x2="0" y2="70" gradientUnits="userSpaceOnUse" id="color-1"><stop offset="0" stop-color="#8dc775"/><stop offset="1" stop-color="#5a9442"/></linearGradient></defs><g fill="none" fill-rule="nonzero" stroke="none" stroke-width="1" stroke-linecap="butt" stroke-linejoin="miter" stroke-miterlimit="10" stroke-dasharray="" stroke-dashoffset="0" font-family="none" font-weight="none" font-size="none" text-anchor="none" style="mix-blend-mode: normal"><path d="M3.5,70c-1.933,0 -3.5,-1.567 -3.5,-3.5v-63c0,-1.933 1.567,-3.5 3.5,-3.5h63c1.933,0 3.5,1.567 3.5,3.5v63c0,1.933 -1.567,3.5 -3.5,3.5z" id="box" fill="url(#color-1)"/><path d="M65,1h-61c-1.95033,0 -3.2667,0.63396 -3.9491,1.90189c0.28378,-1.64806 1.72001,-2.90189 3.4491,-2.90189h63c1.72965,0 3.16627,1.25466 3.44938,2.90352c-0.69803,-1.26902 -2.34782,-1.90352 -4.94938,-1.90352z" id="topBoxShadow" fill="#ffffff" opacity="0.383"/><path d="M4,69h61c2.66667,0 4.33333,-1 5,-3v0.5c0,1.933 -1.567,3.5 -3.5,3.5h-63c-1.933,0 -3.5,-1.567 -3.5,-3.5c0,-0.1611 0,-0.32777 0,-0.5c0.66667,2 2,3 4,3z" id="bottomBoxShadow" fill="#000000" opacity="0.383"/><path d="M51.66666,17h-33.33333c-1.84107,0 -3.33333,1.49227 -3.33333,3.33333v33.33333c0,1.84107 1.49227,3.33333 3.33333,3.33333h22.64373c0.88427,0.0016 1.73227,-0.3504 2.35627,-0.97707l10.6896,-10.6896c0.62667,-0.624 0.97867,-1.472 0.97707,-2.35627v-22.64373c0,-1.84107 -1.49227,-3.33333 -3.33333,-3.33333zM28.33333,28.66667h13.33333c0.92053,0 1.66667,0.74613 1.66667,1.66667c0,0.92053 -0.74613,1.66667 -1.66667,1.66667h-13.33333c-0.92053,0 -1.66667,-0.74613 -1.66667,-1.66667c0,-0.92053 0.74613,-1.66667 1.66667,-1.66667zM35,45.33333h-6.66667c-0.92053,0 -1.66667,-0.74613 -1.66667,-1.66667c0,-0.92053 0.74613,-1.66667 1.66667,-1.66667h6.66667c0.92053,0 1.66667,0.74613 1.66667,1.66667c0,0.92053 -0.74613,1.66667 -1.66667,1.66667zM28.33333,38.66666c-0.92053,0 -1.66667,-0.74613 -1.66667,-1.66667c0,-0.92053 0.74613,-1.66667 1.66667,-1.66667h13.33333c0.92053,0 1.66667,0.74613 1.66667,1.66667c0,0.92053 -0.74613,1.66667 -1.66667,1.66667zM41.66666,52.97706v-9.3104h9.31253z" id="shadow" fill="#000000" opacity="0.3"/><path d="M15.97627,15.97627c0.6032,-0.6032 1.43653,-0.97627 2.35707,-0.97627h33.33333c1.84107,0 3.33333,1.49227 3.33333,3.33333v22.64373c0.0016,0.8819 -0.34852,1.72773 -0.97204,2.35125l-26.67168,26.67168h-23.85627c-1.933,0 -3.5,-1.567 -3.5,-3.5l0,-34.54747z" id="flatShadow" fill="#000000" opacity="0.324"/><path d="M51.66666,15h-33.33333c-1.84107,0 -3.33333,1.49227 -3.33333,3.33333v33.33333c0,1.84107 1.49227,3.33333 3.33333,3.33333h22.64373c0.88427,0.0016 1.73227,-0.3504 2.35627,-0.97707l10.6896,-10.6896c0.62667,-0.624 0.97867,-1.472 0.97707,-2.35627v-22.64373c0,-1.84107 -1.49227,-3.33333 -3.33333,-3.33333zM28.33333,26.66667h13.33333c0.92053,0 1.66667,0.74613 1.66667,1.66667c0,0.92053 -0.74613,1.66667 -1.66667,1.66667h-13.33333c-0.92053,0 -1.66667,-0.74613 -1.66667,-1.66667c0,-0.92053 0.74613,-1.66667 1.66667,-1.66667zM35,43.33333h-6.66667c-0.92053,0 -1.66667,-0.74613 -1.66667,-1.66667c0,-0.92053 0.74613,-1.66667 1.66667,-1.66667h6.66667c0.92053,0 1.66667,0.74613 1.66667,1.66667c0,0.92053 -0.74613,1.66667 -1.66667,1.66667zM28.33333,36.66666c-0.92053,0 -1.66667,-0.74613 -1.66667,-1.66667c0,-0.92053 0.74613,-1.66667 1.66667,-1.66667h13.33333c0.92053,0 1.66667,0.74613 1.66667,1.66667c0,0.92053 -0.74613,1.66667 -1.66667,1.66667zM41.66666,50.97706v-9.3104h9.31253z" id="icon" fill="#ffffff"/></g></svg>