<svg version="1.1" xmlns="http://www.w3.org/2000/svg" xmlns:xlink="http://www.w3.org/1999/xlink" width="70" height="70" viewBox="0,0,70,70" odoo-icon:version="1.0" xmlns:odoo-icon="https://ivantodorovich.github.io/odoo-icon" odoo-icon:size="70" odoo-icon:icon-size="0.6" odoo-icon:icon-color="#FFFFFF" odoo-icon:icon-flat-shadow-angle="135" odoo-icon:background-color="#a4426b" odoo-icon:background-gradient="0.2" odoo-icon:box-radius="3.5" odoo-icon:odoo-version="14.0"><defs><linearGradient x1="70" y1="0" x2="0" y2="70" gradientUnits="userSpaceOnUse" id="color-1"><stop offset="0" stop-color="#d7759e"/><stop offset="1" stop-color="#a4426b"/></linearGradient></defs><g fill="none" fill-rule="nonzero" stroke="none" stroke-width="1" stroke-linecap="butt" stroke-linejoin="miter" stroke-miterlimit="10" stroke-dasharray="" stroke-dashoffset="0" font-family="none" font-weight="none" font-size="none" text-anchor="none" style="mix-blend-mode: normal"><path d="M3.5,70c-1.933,0 -3.5,-1.567 -3.5,-3.5v-63c0,-1.933 1.567,-3.5 3.5,-3.5h63c1.933,0 3.5,1.567 3.5,3.5v63c0,1.933 -1.567,3.5 -3.5,3.5z" id="box" fill="url(#color-1)"/><path d="M65,1h-61c-1.95033,0 -3.2667,0.63396 -3.9491,1.90189c0.28378,-1.64806 1.72001,-2.90189 3.4491,-2.90189h63c1.72965,0 3.16627,1.25466 3.44938,2.90352c-0.69803,-1.26902 -2.34782,-1.90352 -4.94938,-1.90352z" id="topBoxShadow" fill="#ffffff" opacity="0.383"/><path d="M4,69h61c2.66667,0 4.33333,-1 5,-3v0.5c0,1.933 -1.567,3.5 -3.5,3.5h-63c-1.933,0 -3.5,-1.567 -3.5,-3.5c0,-0.1611 0,-0.32777 0,-0.5c0.66667,2 2,3 4,3z" id="bottomBoxShadow" fill="#000000" opacity="0.383"/><path d="M47.59929,58c-1.74989,0 -3.23771,-0.61236 -4.46243,-1.83759c-1.22523,-1.22523 -1.83759,-2.71254 -1.83759,-4.46243c0,-0.21017 0.05242,-0.70006 0.15775,-1.47017l-14.75264,-8.60987c-0.55995,0.52517 -1.20759,0.93644 -1.94242,1.2348c-0.73483,0.29837 -1.52259,0.44655 -2.36226,0.44503c-1.74989,0 -3.23771,-0.61236 -4.46243,-1.83759c-1.22523,-1.22523 -1.83759,-2.71254 -1.83759,-4.46243c0,-1.74989 0.61236,-3.23771 1.83759,-4.46243c1.22523,-1.22523 2.71254,-1.83759 4.46243,-1.83759c0.84017,0 1.62742,0.14918 2.36276,0.44705c0.73483,0.29837 1.38248,0.70913 1.94242,1.23279l14.75264,-8.60987c-0.07006,-0.24494 -0.1134,-0.48082 -0.13003,-0.70762c-0.01663,-0.2268 -0.0257,-0.48082 -0.02722,-0.76205c0,-1.74989 0.61236,-3.23771 1.83759,-4.46243c1.22523,-1.22523 2.71254,-1.83759 4.46243,-1.83759c1.74989,0 3.23771,0.61236 4.46243,1.83759c1.22523,1.22523 1.83759,2.71254 1.83759,4.46243c0,1.74989 -0.61236,3.23771 -1.83759,4.46243c-1.22523,1.22523 -2.71254,1.83759 -4.46243,1.83759c-0.84017,0 -1.62742,-0.14918 -2.36226,-0.44755c-0.73483,-0.29837 -1.38248,-0.70913 -1.94242,-1.23279l-14.75264,8.60987c0.07006,0.24494 0.1139,0.48183 0.13205,0.70963c0.01814,0.22831 0.02671,0.48183 0.0252,0.76004c-0.00151,0.27871 -0.00958,0.53273 -0.0252,0.76205c-0.01562,0.22982 -0.05947,0.4657 -0.13205,0.70762l14.75264,8.60987c0.55995,-0.52517 1.20759,-0.93593 1.94242,-1.23279c0.73483,-0.29686 1.52259,-0.44604 2.36226,-0.44705c1.74989,0 3.23771,0.61236 4.46243,1.83759c1.22523,1.22523 1.83759,2.71254 1.83759,4.46243c0,1.74989 -0.61236,3.23771 -1.83759,4.46243c-1.22523,1.22523 -2.71254,1.83759 -4.46243,1.83759z" id="shadow" fill="#000000" opacity="0.3"/><path d="M17.93621,30.53837c0,0 0,0 0,0c0.00035,-0.00035 0.0007,-0.0007 0.00106,-0.00106c1.22523,-1.22523 2.71254,-1.83759 4.46243,-1.83759c0.84017,0 1.62742,0.14918 2.36276,0.44705c0.73483,0.29837 1.38248,0.70913 1.94242,1.23279l4.54151,-2.65049l11.89042,-11.89042c0.00035,-0.00035 0.0007,-0.0007 0.00106,-0.00106c1.22523,-1.22523 2.71254,-1.83759 4.46243,-1.83759c1.74989,0 3.23771,0.61236 4.46243,1.83759c1.22523,1.22523 1.83759,2.71254 1.83759,4.46243c0,1.74939 -0.61201,3.23685 -1.83653,4.46138l-16.06111,16.06111l7.29294,4.25627c0.55995,-0.52517 1.20759,-0.93593 1.94242,-1.23279c0.73483,-0.29686 1.52259,-0.44604 2.36226,-0.44705c1.74989,0 3.23771,0.61236 4.46243,1.83759c1.22523,1.22523 1.83759,2.71254 1.83759,4.46243c0,1.74939 -0.61201,3.23685 -1.83653,4.46138l-15.83966,15.83966h-32.72414c-1.933,0 -3.5,-1.567 -3.5,-3.5l0,-18.02542z" id="flatShadow" fill="#000000" opacity="0.324"/><path d="M47.59929,56c-1.74989,0 -3.23771,-0.61236 -4.46243,-1.83759c-1.22523,-1.22523 -1.83759,-2.71254 -1.83759,-4.46243c0,-0.21017 0.05242,-0.70006 0.15775,-1.47017l-14.75264,-8.60987c-0.55995,0.52517 -1.20759,0.93644 -1.94242,1.2348c-0.73483,0.29837 -1.52259,0.44655 -2.36226,0.44503c-1.74989,0 -3.23771,-0.61236 -4.46243,-1.83759c-1.22523,-1.22523 -1.83759,-2.71254 -1.83759,-4.46243c0,-1.74989 0.61236,-3.23771 1.83759,-4.46243c1.22523,-1.22523 2.71254,-1.83759 4.46243,-1.83759c0.84017,0 1.62742,0.14918 2.36276,0.44705c0.73483,0.29837 1.38248,0.70913 1.94242,1.23279l14.75264,-8.60987c-0.07006,-0.24494 -0.1134,-0.48082 -0.13003,-0.70762c-0.01663,-0.2268 -0.0257,-0.48082 -0.02722,-0.76205c0,-1.74989 0.61236,-3.23771 1.83759,-4.46243c1.22523,-1.22523 2.71254,-1.83759 4.46243,-1.83759c1.74989,0 3.23771,0.61236 4.46243,1.83759c1.22523,1.22523 1.83759,2.71254 1.83759,4.46243c0,1.74989 -0.61236,3.23771 -1.83759,4.46243c-1.22523,1.22523 -2.71254,1.83759 -4.46243,1.83759c-0.84017,0 -1.62742,-0.14918 -2.36226,-0.44755c-0.73483,-0.29837 -1.38248,-0.70913 -1.94242,-1.23279l-14.75264,8.60987c0.07006,0.24494 0.1139,0.48183 0.13205,0.70963c0.01814,0.22831 0.02671,0.48183 0.0252,0.76004c-0.00151,0.27871 -0.00958,0.53273 -0.0252,0.76205c-0.01562,0.22982 -0.05947,0.4657 -0.13205,0.70762l14.75264,8.60987c0.55995,-0.52517 1.20759,-0.93593 1.94242,-1.23279c0.73483,-0.29686 1.52259,-0.44604 2.36226,-0.44705c1.74989,0 3.23771,0.61236 4.46243,1.83759c1.22523,1.22523 1.83759,2.71254 1.83759,4.46243c0,1.74989 -0.61236,3.23771 -1.83759,4.46243c-1.22523,1.22523 -2.71254,1.83759 -4.46243,1.83759z" id="icon" fill="#ffffff"/></g></svg>