<svg version="1.1" xmlns="http://www.w3.org/2000/svg" xmlns:xlink="http://www.w3.org/1999/xlink" width="70" height="70" viewBox="0,0,70,70" odoo-icon:version="1.0" xmlns:odoo-icon="https://ivantodorovich.github.io/odoo-icon" odoo-icon:size="70" odoo-icon:icon-size="0.6" odoo-icon:icon-color="#FFFFFF" odoo-icon:icon-flat-shadow-angle="135" odoo-icon:background-color="#a4426b" odoo-icon:background-gradient="0.2" odoo-icon:box-radius="3.5" odoo-icon:odoo-version="14.0"><defs><linearGradient x1="70" y1="0" x2="0" y2="70" gradientUnits="userSpaceOnUse" id="color-1"><stop offset="0" stop-color="#d7759e"/><stop offset="1" stop-color="#a4426b"/></linearGradient></defs><g fill="none" fill-rule="nonzero" stroke="none" stroke-width="1" stroke-linecap="butt" stroke-linejoin="miter" stroke-miterlimit="10" stroke-dasharray="" stroke-dashoffset="0" font-family="none" font-weight="none" font-size="none" text-anchor="none" style="mix-blend-mode: normal"><path d="M3.5,70c-1.933,0 -3.5,-1.567 -3.5,-3.5v-63c0,-1.933 1.567,-3.5 3.5,-3.5h63c1.933,0 3.5,1.567 3.5,3.5v63c0,1.933 -1.567,3.5 -3.5,3.5z" id="box" fill="url(#color-1)"/><path d="M65,1h-61c-1.95033,0 -3.2667,0.63396 -3.9491,1.90189c0.28378,-1.64806 1.72001,-2.90189 3.4491,-2.90189h63c1.72965,0 3.16627,1.25466 3.44938,2.90352c-0.69803,-1.26902 -2.34782,-1.90352 -4.94938,-1.90352z" id="topBoxShadow" fill="#ffffff" opacity="0.383"/><path d="M4,69h61c2.66667,0 4.33333,-1 5,-3v0.5c0,1.933 -1.567,3.5 -3.5,3.5h-63c-1.933,0 -3.5,-1.567 -3.5,-3.5c0,-0.1611 0,-0.32777 0,-0.5c0.66667,2 2,3 4,3z" id="bottomBoxShadow" fill="#000000" opacity="0.383"/><path d="M34.98552,58c-0.60813,0 -1.1179,-0.20597 -1.52985,-0.61791c-0.41194,-0.41194 -0.6174,-0.9212 -0.61585,-1.52779v-8.58228c0,-2.00255 -0.30381,-3.48657 -0.91193,-4.45205c-0.60813,-0.96549 -1.41244,-1.91295 -2.41346,-2.84291l3.05763,-3.05763c0.42893,0.3934 0.84036,0.8141 1.23376,1.26157c0.3934,0.44747 0.78681,0.9212 1.18021,1.42017c0.50051,-0.67919 1.0108,-1.27856 1.52985,-1.79812c0.51905,-0.51905 1.04633,-1.02831 1.58134,-1.52779c1.35889,-1.25179 2.59265,-2.69976 3.70129,-4.34443c1.10864,-1.64467 1.69874,-4.52363 1.7698,-8.63583l-1.87742,1.87742c-0.3934,0.3934 -0.88516,0.59011 -1.47629,0.59011c-0.59062,0 -1.09988,-0.1967 -1.52779,-0.59011c-0.42893,-0.42893 -0.64366,-0.93923 -0.64366,-1.52985c0,-0.59062 0.21472,-1.09988 0.64366,-1.52779l5.52464,-5.52464c0.21472,-0.21472 0.44696,-0.36663 0.69721,-0.45725c0.25025,-0.09011 0.51853,-0.1344 0.80483,-0.13285c0.2863,0 0.55406,0.04428 0.80483,0.13285c0.25025,0.08857 0.483,0.24099 0.69721,0.45725l5.5782,5.5782c0.3934,0.3934 0.59937,0.88464 0.61791,1.47423c0.01854,0.58908 -0.18743,1.09937 -0.61791,1.52985c-0.3934,0.3934 -0.89391,0.59011 -1.50204,0.59011c-0.60813,0 -1.10864,-0.1967 -1.50204,-0.59011l-1.93097,-1.87742c-0.07157,5.11373 -0.85838,8.7522 -2.35991,10.91644c-1.50204,2.16424 -3.00356,3.92477 -4.5056,5.28211c-1.14417,1.03706 -2.07412,2.04735 -2.78936,3.03189c-0.71523,0.98402 -1.07259,2.56588 -1.07259,4.74608v8.58228c0,0.60813 -0.20597,1.1179 -0.61791,1.52985c-0.41194,0.41194 -0.9212,0.6174 -1.52779,0.61585zM22.5413,28.33819c-0.14315,-0.71523 -0.2415,-1.50204 -0.29608,-2.35991c-0.05458,-0.85838 -0.09887,-1.75229 -0.13285,-2.68174l-1.93097,1.93097c-0.3934,0.3934 -0.88516,0.59011 -1.47629,0.59011c-0.59062,0 -1.09988,-0.21472 -1.52779,-0.64366c-0.3934,-0.3934 -0.59011,-0.89391 -0.59011,-1.50204c0,-0.60813 0.1967,-1.10864 0.59011,-1.50204l5.5782,-5.5782c0.21472,-0.21472 0.44696,-0.36663 0.69721,-0.45725c0.25025,-0.09011 0.51853,-0.1344 0.80431,-0.13285c0.2863,0 0.55406,0.04531 0.80483,0.13543c0.25025,0.09011 0.483,0.2415 0.69721,0.45468l5.5782,5.5782c0.42893,0.42893 0.6349,0.92996 0.61791,1.50204c-0.01699,0.57208 -0.24099,1.07259 -0.67146,1.50204c-0.42893,0.3934 -0.92996,0.59011 -1.50204,0.59011c-0.57208,0 -1.07259,-0.1967 -1.50204,-0.59011l-1.87742,-1.82387c0,0.75076 0.03553,1.45776 0.1071,2.11995c0.07157,0.6622 0.14315,1.27856 0.21472,1.84962zM27.15452,37.77833c-0.71523,-0.75076 -1.40369,-1.62717 -2.0664,-2.62818c-0.6622,-1.00102 -1.24303,-2.23478 -1.742,-3.70078l4.13022,-1.01904c0.35736,0.96549 0.76878,1.78782 1.23376,2.46753c0.46498,0.67919 0.96549,1.28732 1.50204,1.82387z" id="shadow" fill="#000000" opacity="0.3"/><path d="M22.75551,14.59169c0.21472,-0.21472 0.44696,-0.36663 0.69721,-0.45725c0.25025,-0.09011 0.51853,-0.1344 0.80431,-0.13285c0.2863,0 0.55406,0.04531 0.80483,0.13543c0.25025,0.09011 0.483,0.2415 0.69721,0.45468l5.5782,5.5782c0.42893,0.42893 0.6349,0.92996 0.61791,1.50204c-0.01696,0.57102 -0.24016,1.07073 -0.66907,1.49965l-5.73336,5.73336l1.92361,-0.47461c0.27492,0.74277 0.58185,1.40082 0.92054,1.97437l10.28768,-10.28768c0.00075,-0.00075 0.00149,-0.00149 0.00224,-0.00224l5.52464,-5.52464c0.21472,-0.21472 0.44696,-0.36663 0.69721,-0.45725c0.25025,-0.09011 0.51853,-0.1344 0.80483,-0.13285c0.2863,0 0.55406,0.04428 0.80483,0.13285c0.25025,0.08857 0.483,0.24099 0.69721,0.45725l5.5782,5.5782c0.3934,0.3934 0.59937,0.88464 0.61791,1.47423c0.01854,0.58908 -0.18743,1.09937 -0.61791,1.52985l-5.87646,5.87646c-0.36647,1.27358 -0.83932,2.32774 -1.4185,3.16256c-1.23283,1.77634 -2.46531,3.28072 -3.69802,4.51343l-2.82638,2.82638c-0.27981,0.32751 -0.53667,0.65223 -0.77056,0.97419c-0.71523,0.98402 -1.07259,2.56588 -1.07259,4.74608v8.58228c0,0.60813 -0.20597,1.1179 -0.61791,1.52985l-14.61637,14.61637h-18.39694c-1.933,0 -3.5,-1.567 -3.5,-3.5l0,-29.1528z" id="flatShadow" fill="#000000" opacity="0.324"/><path d="M34.98552,56c-0.60813,0 -1.1179,-0.20597 -1.52985,-0.61791c-0.41194,-0.41194 -0.6174,-0.9212 -0.61585,-1.52779v-8.58228c0,-2.00255 -0.30381,-3.48657 -0.91193,-4.45205c-0.60813,-0.96549 -1.41244,-1.91295 -2.41346,-2.84291l3.05763,-3.05763c0.42893,0.3934 0.84036,0.8141 1.23376,1.26157c0.3934,0.44747 0.78681,0.9212 1.18021,1.42017c0.50051,-0.67919 1.0108,-1.27856 1.52985,-1.79812c0.51905,-0.51905 1.04633,-1.02831 1.58134,-1.52779c1.35889,-1.25179 2.59265,-2.69976 3.70129,-4.34443c1.10864,-1.64467 1.69874,-4.52363 1.7698,-8.63583l-1.87742,1.87742c-0.3934,0.3934 -0.88516,0.59011 -1.47629,0.59011c-0.59062,0 -1.09988,-0.1967 -1.52779,-0.59011c-0.42893,-0.42893 -0.64366,-0.93923 -0.64366,-1.52985c0,-0.59062 0.21472,-1.09988 0.64366,-1.52779l5.52464,-5.52464c0.21472,-0.21472 0.44696,-0.36663 0.69721,-0.45725c0.25025,-0.09011 0.51853,-0.1344 0.80483,-0.13285c0.2863,0 0.55406,0.04428 0.80483,0.13285c0.25025,0.08857 0.483,0.24099 0.69721,0.45725l5.5782,5.5782c0.3934,0.3934 0.59937,0.88464 0.61791,1.47423c0.01854,0.58908 -0.18743,1.09937 -0.61791,1.52985c-0.3934,0.3934 -0.89391,0.59011 -1.50204,0.59011c-0.60813,0 -1.10864,-0.1967 -1.50204,-0.59011l-1.93097,-1.87742c-0.07157,5.11373 -0.85838,8.7522 -2.35991,10.91644c-1.50204,2.16424 -3.00356,3.92477 -4.5056,5.28211c-1.14417,1.03706 -2.07412,2.04735 -2.78936,3.03189c-0.71523,0.98402 -1.07259,2.56588 -1.07259,4.74608v8.58228c0,0.60813 -0.20597,1.1179 -0.61791,1.52985c-0.41194,0.41194 -0.9212,0.6174 -1.52779,0.61585zM22.5413,26.33819c-0.14315,-0.71523 -0.2415,-1.50204 -0.29608,-2.35991c-0.05458,-0.85838 -0.09887,-1.75229 -0.13285,-2.68174l-1.93097,1.93097c-0.3934,0.3934 -0.88516,0.59011 -1.47629,0.59011c-0.59062,0 -1.09988,-0.21472 -1.52779,-0.64366c-0.3934,-0.3934 -0.59011,-0.89391 -0.59011,-1.50204c0,-0.60813 0.1967,-1.10864 0.59011,-1.50204l5.5782,-5.5782c0.21472,-0.21472 0.44696,-0.36663 0.69721,-0.45725c0.25025,-0.09011 0.51853,-0.1344 0.80431,-0.13285c0.2863,0 0.55406,0.04531 0.80483,0.13543c0.25025,0.09011 0.483,0.2415 0.69721,0.45468l5.5782,5.5782c0.42893,0.42893 0.6349,0.92996 0.61791,1.50204c-0.01699,0.57208 -0.24099,1.07259 -0.67146,1.50204c-0.42893,0.3934 -0.92996,0.59011 -1.50204,0.59011c-0.57208,0 -1.07259,-0.1967 -1.50204,-0.59011l-1.87742,-1.82387c0,0.75076 0.03553,1.45776 0.1071,2.11995c0.07157,0.6622 0.14315,1.27856 0.21472,1.84962zM27.15452,35.77833c-0.71523,-0.75076 -1.40369,-1.62717 -2.0664,-2.62818c-0.6622,-1.00102 -1.24303,-2.23478 -1.742,-3.70078l4.13022,-1.01904c0.35736,0.96549 0.76878,1.78782 1.23376,2.46753c0.46498,0.67919 0.96549,1.28732 1.50204,1.82387z" id="icon" fill="#ffffff"/></g></svg>