<svg version="1.1" xmlns="http://www.w3.org/2000/svg" xmlns:xlink="http://www.w3.org/1999/xlink" width="70" height="70" viewBox="0,0,70,70" odoo-icon:version="1.0" xmlns:odoo-icon="https://ivantodorovich.github.io/odoo-icon" odoo-icon:size="70" odoo-icon:icon-size="0.59" odoo-icon:icon-color="#FFFFFF" odoo-icon:icon-flat-shadow-angle="135" odoo-icon:background-color="#039be5" odoo-icon:background-gradient="0.2" odoo-icon:box-radius="3.5" odoo-icon:odoo-version="14.0"><defs><linearGradient x1="70" y1="0" x2="0" y2="70" gradientUnits="userSpaceOnUse" id="color-1"><stop offset="0" stop-color="#36ceff"/><stop offset="1" stop-color="#039be5"/></linearGradient></defs><g fill="none" fill-rule="nonzero" stroke="none" stroke-width="1" stroke-linecap="butt" stroke-linejoin="miter" stroke-miterlimit="10" stroke-dasharray="" stroke-dashoffset="0" font-family="none" font-weight="none" font-size="none" text-anchor="none" style="mix-blend-mode: normal"><path d="M3.5,70c-1.933,0 -3.5,-1.567 -3.5,-3.5v-63c0,-1.933 1.567,-3.5 3.5,-3.5h63c1.933,0 3.5,1.567 3.5,3.5v63c0,1.933 -1.567,3.5 -3.5,3.5z" id="box" fill="url(#color-1)"/><path d="M65,1h-61c-1.95033,0 -3.2667,0.63396 -3.9491,1.90189c0.28378,-1.64806 1.72001,-2.90189 3.4491,-2.90189h63c1.72965,0 3.16627,1.25466 3.44938,2.90352c-0.69803,-1.26902 -2.34782,-1.90352 -4.94938,-1.90352z" id="topBoxShadow" fill="#ffffff" opacity="0.383"/><path d="M4,69h61c2.66667,0 4.33333,-1 5,-3v0.5c0,1.933 -1.567,3.5 -3.5,3.5h-63c-1.933,0 -3.5,-1.567 -3.5,-3.5c0,-0.1611 0,-0.32777 0,-0.5c0.66667,2 2,3 4,3z" id="bottomBoxShadow" fill="#000000" opacity="0.383"/><path d="M29.27269,21.72754c-8.4384,0 -15.27269,6.83475 -15.27269,15.27269c0,8.4384 6.83475,15.27269 15.27269,15.27269c8.4384,0 15.27269,-6.83475 15.27269,-15.27269c0,-8.4384 -6.83475,-15.27269 -15.27269,-15.27269zM35,34.13657h-3.81806v9.54537h-3.81806v-9.54537h-3.81806v-2.86366h11.45463zM50.75011,21.25011l5.24989,2.38623l-5.24989,2.38623l-2.38623,5.24989l-2.38623,-5.24989l-5.24989,-2.38623l5.24989,-2.38623l2.38623,-5.24989zM50.75011,47.97743l5.24989,2.38623l-5.24989,2.38623l-2.38623,5.24989l-2.38623,-5.24989l-5.24989,-2.38623l5.24989,-2.38623l2.38623,-5.24989z" id="shadow" fill="#000000" opacity="0.3"/><path d="M40.07331,45.80091l-24.19909,24.19909h-12.37423c-1.933,0 -3.5,-1.567 -3.5,-3.5l0,-23.8284l18.47206,-18.47206c2.76336,-2.76336 6.58149,-4.472 10.80063,-4.472c3.7328,0 7.15185,1.33749 9.80423,3.55966l9.28697,-9.28697l2.38623,5.24989l5.24989,2.38623l-11.55993,11.55993c0.06954,0.59161 0.1053,1.19359 0.1053,1.80396c0,4.21903 -1.70862,8.03724 -4.47206,10.80068zM56,48.36366l-21.63634,21.63634h-15.27223l29.27246,-29.27246l2.38623,5.24989z" id="flatShadow" fill="#000000" opacity="0.324"/><path d="M29.27269,19.72754c-8.4384,0 -15.27269,6.83475 -15.27269,15.27269c0,8.4384 6.83475,15.27269 15.27269,15.27269c8.4384,0 15.27269,-6.83475 15.27269,-15.27269c0,-8.4384 -6.83475,-15.27269 -15.27269,-15.27269zM35,32.13657h-3.81806v9.54537h-3.81806v-9.54537h-3.81806v-2.86366h11.45463zM50.75011,19.25011l5.24989,2.38623l-5.24989,2.38623l-2.38623,5.24989l-2.38623,-5.24989l-5.24989,-2.38623l5.24989,-2.38623l2.38623,-5.24989zM50.75011,45.97743l5.24989,2.38623l-5.24989,2.38623l-2.38623,5.24989l-2.38623,-5.24989l-5.24989,-2.38623l5.24989,-2.38623l2.38623,-5.24989z" id="icon" fill="#ffffff"/></g></svg>