<svg version="1.1" xmlns="http://www.w3.org/2000/svg" xmlns:xlink="http://www.w3.org/1999/xlink" width="70" height="70" viewBox="0,0,70,70" odoo-icon:version="1.0" xmlns:odoo-icon="https://ivantodorovich.github.io/odoo-icon" odoo-icon:size="70" odoo-icon:icon-size="0.64" odoo-icon:icon-color="#FFFFFF" odoo-icon:icon-flat-shadow-angle="135" odoo-icon:background-color="#546e7a" odoo-icon:background-gradient="0.2" odoo-icon:box-radius="3.5" odoo-icon:odoo-version="14.0"><defs><linearGradient x1="70" y1="0" x2="0" y2="70" gradientUnits="userSpaceOnUse" id="color-1"><stop offset="0" stop-color="#87a1ad"/><stop offset="1" stop-color="#546e7a"/></linearGradient></defs><g fill="none" fill-rule="nonzero" stroke="none" stroke-width="1" stroke-linecap="butt" stroke-linejoin="miter" stroke-miterlimit="10" stroke-dasharray="" stroke-dashoffset="0" font-family="none" font-weight="none" font-size="none" text-anchor="none" style="mix-blend-mode: normal"><path d="M3.5,70c-1.933,0 -3.5,-1.567 -3.5,-3.5v-63c0,-1.933 1.567,-3.5 3.5,-3.5h63c1.933,0 3.5,1.567 3.5,3.5v63c0,1.933 -1.567,3.5 -3.5,3.5z" id="box" fill="url(#color-1)"/><path d="M65,1h-61c-1.95033,0 -3.2667,0.63396 -3.9491,1.90189c0.28378,-1.64806 1.72001,-2.90189 3.4491,-2.90189h63c1.72965,0 3.16627,1.25466 3.44938,2.90352c-0.69803,-1.26902 -2.34782,-1.90352 -4.94938,-1.90352z" id="topBoxShadow" fill="#ffffff" opacity="0.383"/><path d="M4,69h61c2.66667,0 4.33333,-1 5,-3v0.5c0,1.933 -1.567,3.5 -3.5,3.5h-63c-1.933,0 -3.5,-1.567 -3.5,-3.5c0,-0.1611 0,-0.32777 0,-0.5c0.66667,2 2,3 4,3z" id="bottomBoxShadow" fill="#000000" opacity="0.383"/><path d="M24.05386,14.5v2.00428h1.85623v-2.00428h2.02858v6.06729h-2.02858v-2.03038h-1.85623v2.03038h-2.02678v-6.06729zM30.60489,16.51193h-1.78513v-2.01193h5.60064v2.01193h-1.78693v4.05536h-2.02858zM35.3096,14.5h2.11498l1.30139,2.13208l1.29914,-2.13163h2.11498v6.06729h-2.01913v-3.00732l-1.39499,2.15818h-0.03555l-1.39679,-2.15638v3.00552h-1.98358zM43.14852,14.5h2.03038v4.06301h2.84982v2.00608h-4.88065zM21.96138,55.88474l-3.83621,-32.54007h33.74966l-3.83801,32.53647l-13.05527,3.61886zM29.7184,38.07211l-0.3636,-4.08731h15.27195l0.3564,-3.99011h-19.98745l1.07639,12.06933h13.83151l-0.46305,5.17495l-4.45136,1.20374h-0.0036l-4.44371,-1.20014l-0.28485,-3.18192h-4.00856l0.55889,6.26619l8.17507,2.26888l8.18812,-2.26888l0.99764,-11.18239l0.09765,-1.07054h-14.5461z" id="shadow" fill="#000000" opacity="0.3"/><path d="M24.05386,14.35623l1.85623,-1.85623h2.02858l0,0.88109l0.88109,-0.88109h5.60064l0,0.88919l0.88919,-0.88919h2.11498l0.98585,1.61513l1.61468,-1.61468h2.11498l0,1.00799l1.00844,-1.00844h2.03038v4.06301h2.84982v2.00608l-2.77557,2.77557h6.62168l-3.83801,32.53647l-16.11886,16.11886h-28.41796c-1.933,0 -3.5,-1.567 -3.5,-3.5l0,-31.97292l22.02708,-22.02708h2.02678z" id="flatShadow" fill="#000000" opacity="0.324"/><path d="M24.05386,12.5v2.00428h1.85623v-2.00428h2.02858v6.06729h-2.02858v-2.03038h-1.85623v2.03038h-2.02678v-6.06729zM30.60489,14.51193h-1.78513v-2.01193h5.60064v2.01193h-1.78693v4.05536h-2.02858zM35.3096,12.5h2.11498l1.30139,2.13208l1.29914,-2.13163h2.11498v6.06729h-2.01913v-3.00732l-1.39499,2.15818h-0.03555l-1.39679,-2.15638v3.00552h-1.98358zM43.14852,12.5h2.03038v4.06301h2.84982v2.00608h-4.88065zM21.96138,53.88474l-3.83621,-32.54007h33.74966l-3.83801,32.53647l-13.05527,3.61886zM29.7184,36.07211l-0.3636,-4.08731h15.27195l0.3564,-3.99011h-19.98745l1.07639,12.06933h13.83151l-0.46305,5.17495l-4.45136,1.20374h-0.0036l-4.44371,-1.20014l-0.28485,-3.18192h-4.00856l0.55889,6.26619l8.17507,2.26888l8.18812,-2.26888l0.99764,-11.18239l0.09765,-1.07054h-14.5461z" id="icon" fill="#ffffff"/></g></svg>