<svg version="1.1" xmlns="http://www.w3.org/2000/svg" xmlns:xlink="http://www.w3.org/1999/xlink" width="70" height="70" viewBox="0,0,70,70"><!-- Generated with https://ivantodorovich.github.io/odoo-icon --><defs><linearGradient x1="70" y1="0" x2="0" y2="70" gradientUnits="userSpaceOnUse" id="color-1"><stop offset="0" stop-color="#ffbb5a"/><stop offset="1" stop-color="#d88827"/></linearGradient></defs><g fill="none" fill-rule="nonzero" stroke="none" stroke-width="1" stroke-linecap="butt" stroke-linejoin="miter" stroke-miterlimit="10" stroke-dasharray="" stroke-dashoffset="0" font-family="none" font-weight="none" font-size="none" text-anchor="none" style="mix-blend-mode: normal"><path d="M3.5,70c-1.933,0 -3.5,-1.567 -3.5,-3.5v-63c0,-1.933 1.567,-3.5 3.5,-3.5h63c1.933,0 3.5,1.567 3.5,3.5v63c0,1.933 -1.567,3.5 -3.5,3.5z" id="box" fill="url(#color-1)"/><path d="M65,1h-61c-1.95033,0 -3.2667,0.63396 -3.9491,1.90189c0.28378,-1.64806 1.72001,-2.90189 3.4491,-2.90189h63c1.72965,0 3.16627,1.25466 3.44938,2.90352c-0.69803,-1.26902 -2.34782,-1.90352 -4.94938,-1.90352z" id="topBoxShadow" fill="#ffffff" opacity="0.383"/><path d="M4,69h61c2.66667,0 4.33333,-1 5,-3v0.5c0,1.933 -1.567,3.5 -3.5,3.5h-63c-1.933,0 -3.5,-1.567 -3.5,-3.5c0,-0.1611 0,-0.32777 0,-0.5c0.66667,2 2,3 4,3z" id="bottomBoxShadow" fill="#000000" opacity="0.383"/><path d="M16.77996,50.24995h6.7468v-6.7468c0,-0.82432 0.67068,-1.495 1.49684,-1.495h6.7468v-6.7468c0,-0.828 0.67068,-1.50052 1.49684,-1.50052h6.7468v-6.74496c0,-0.828 0.67068,-1.49868 1.49868,-1.49868h6.74496v-6.7445c0,-0.828 0.67068,-1.49868 1.49868,-1.49868h6.7468c0.82432,0 1.49684,0.67068 1.49684,1.49868v39.7209c0,0.828 -0.67068,1.49868 -1.49868,1.49868h-39.7209c-0.828,0 -1.49868,-0.67114 -1.49868,-1.49868v-6.7468c0,-0.82432 0.67068,-1.495 1.49868,-1.495zM12.32947,44.52894c-0.4393,-0.4393 -0.4393,-1.15138 0,-1.59068l28.61561,-28.61561c0.4416,-0.4255 1.14264,-0.41906 1.57596,0.01472c0.43378,0.43378 0.44022,1.13482 0.01472,1.57596l-28.61561,28.61561c-0.44068,0.44068 -1.15,0.44068 -1.59068,0z" id="shadow" fill="#000000" opacity="0.3"/><path d="M40.45288,23.95603c0.00738,-0.00738 0.01484,-0.01468 0.02237,-0.02191l8.22127,-8.22127c0,0 0,0 0,0c0.27117,-0.27117 0.64584,-0.43884 1.05984,-0.43884h6.7468c0.82432,0 1.49684,0.67068 1.49684,1.49868v39.7209c0,0.414 -0.16767,0.78867 -0.43884,1.05984l-12.44658,12.44658h-41.61458c-1.933,0 -3.5,-1.567 -3.5,-3.5l0,-2.09109zM40.94508,12.32266c0.4416,-0.4255 1.14264,-0.41906 1.57596,0.01472c0.43378,0.43378 0.44022,1.13482 0.01472,1.57596l-42.53576,42.53576l0,-3.18135z" id="flatShadow" fill="#000000" opacity="0.324"/><path d="M16.77996,48.24995h6.7468v-6.7468c0,-0.82432 0.67068,-1.495 1.49684,-1.495h6.7468v-6.7468c0,-0.828 0.67068,-1.50052 1.49684,-1.50052h6.7468v-6.74496c0,-0.828 0.67068,-1.49868 1.49868,-1.49868h6.74496v-6.7445c0,-0.828 0.67068,-1.49868 1.49868,-1.49868h6.7468c0.82432,0 1.49684,0.67068 1.49684,1.49868v39.7209c0,0.828 -0.67068,1.49868 -1.49868,1.49868h-39.7209c-0.828,0 -1.49868,-0.67114 -1.49868,-1.49868v-6.7468c0,-0.82432 0.67068,-1.495 1.49868,-1.495zM12.32947,42.52894c-0.4393,-0.4393 -0.4393,-1.15138 0,-1.59068l28.61561,-28.61561c0.4416,-0.4255 1.14264,-0.41906 1.57596,0.01472c0.43378,0.43378 0.44022,1.13482 0.01472,1.57596l-28.61561,28.61561c-0.44068,0.44068 -1.15,0.44068 -1.59068,0z" id="icon" fill="#ffffff"/></g></svg>