<svg version="1.1" xmlns="http://www.w3.org/2000/svg" xmlns:xlink="http://www.w3.org/1999/xlink" width="70" height="70" viewBox="0,0,70,70"><!-- Generated with https://ivantodorovich.github.io/odoo-icon --><defs><linearGradient x1="70" y1="0" x2="0" y2="70" gradientUnits="userSpaceOnUse" id="color-1"><stop offset="0" stop-color="#6c7cde"/><stop offset="1" stop-color="#3949ab"/></linearGradient></defs><g fill="none" fill-rule="nonzero" stroke="none" stroke-width="1" stroke-linecap="butt" stroke-linejoin="miter" stroke-miterlimit="10" stroke-dasharray="" stroke-dashoffset="0" font-family="none" font-weight="none" font-size="none" text-anchor="none" style="mix-blend-mode: normal"><path d="M3.5,70c-1.933,0 -3.5,-1.567 -3.5,-3.5v-63c0,-1.933 1.567,-3.5 3.5,-3.5h63c1.933,0 3.5,1.567 3.5,3.5v63c0,1.933 -1.567,3.5 -3.5,3.5z" id="box" fill="url(#color-1)"/><path d="M65,1h-61c-1.95033,0 -3.2667,0.63396 -3.9491,1.90189c0.28378,-1.64806 1.72001,-2.90189 3.4491,-2.90189h63c1.72965,0 3.16627,1.25466 3.44938,2.90352c-0.69803,-1.26902 -2.34782,-1.90352 -4.94938,-1.90352z" id="topBoxShadow" fill="#ffffff" opacity="0.383"/><path d="M4,69h61c2.66667,0 4.33333,-1 5,-3v0.5c0,1.933 -1.567,3.5 -3.5,3.5h-63c-1.933,0 -3.5,-1.567 -3.5,-3.5c0,-0.1611 0,-0.32777 0,-0.5c0.66667,2 2,3 4,3z" id="bottomBoxShadow" fill="#000000" opacity="0.383"/><path d="M39.97258,45.87202l-6.92277,-6.92277v-9.75h3.89991v8.14146l5.75275,5.75275zM33.04981,25.29934v-3.89991h3.89991v3.89991zM46.70018,38.94972v-3.89991h3.89991v3.89991zM33.04981,52.59962v-3.89991h3.89991v3.89991zM19.39991,38.94972v-3.89991h3.89991v3.89991zM35,56.5c-2.69759,0 -5.23279,-0.512 -7.60512,-1.53647c-2.37233,-1.02447 -4.43624,-2.41351 -6.19127,-4.16714c-1.75503,-1.75503 -3.14407,-3.81894 -4.16714,-6.19127c-1.02306,-2.37233 -1.53553,-4.90753 -1.53647,-7.60512c0,-2.69759 0.512,-5.23279 1.53647,-7.60512c1.02447,-2.37233 2.41351,-4.43624 4.16714,-6.19127c1.75503,-1.75503 3.81894,-3.14407 6.19127,-4.16714c2.37233,-1.02306 4.90753,-1.53553 7.60512,-1.53647c2.69759,0 5.23279,0.512 7.60512,1.53647c2.37233,1.02447 4.43624,2.41351 6.19127,4.16714c1.75503,1.75503 3.14454,3.81894 4.16901,6.19127c1.02447,2.37233 1.536,4.90753 1.5346,7.60512c0,2.69759 -0.512,5.23279 -1.53647,7.60512c-1.02447,2.37233 -2.41351,4.43624 -4.16714,6.19127c-1.75503,1.75503 -3.81894,3.14454 -6.19127,4.16901c-2.37233,1.02447 -4.90753,1.536 -7.60512,1.5346zM35,52.59962c4.35528,0 8.04411,-1.5112 11.0665,-4.53359c3.02239,-3.02239 4.53359,-6.71123 4.53359,-11.0665c0,-4.35528 -1.5112,-8.04364 -4.53359,-11.0665c-3.02239,-3.02239 -6.71123,-4.53406 -11.0665,-4.53406c-4.35528,0 -8.04364,1.5112 -11.0665,4.53406c-3.02239,3.02239 -4.53406,6.71123 -4.53406,11.0665c0,4.35528 1.5112,8.04411 4.53406,11.0665c3.02239,3.02239 6.71123,4.53359 11.0665,4.53359zM35,36.99953z" id="shadow" fill="#000000" opacity="0.3"/><path d="M21.20361,21.20361c1.75503,-1.75503 3.81894,-3.14407 6.19127,-4.16714c2.37233,-1.02306 4.90753,-1.53553 7.60512,-1.53647c2.69759,0 5.23279,0.512 7.60512,1.53647c2.37233,1.02447 4.43624,2.41351 6.19127,4.16714c1.75503,1.75503 3.14454,3.81894 4.16901,6.19127c1.02447,2.37233 1.536,4.90753 1.5346,7.60512c0,2.69759 -0.512,5.23279 -1.53647,7.60512c-1.02447,2.37233 -2.41351,4.43624 -4.16714,6.19127l-21.20361,21.20361h-24.09278c-1.933,0 -3.5,-1.567 -3.5,-3.5l0,-24.09279z" id="flatShadow" fill="#000000" opacity="0.324"/><path d="M39.97258,43.87202l-6.92277,-6.92277v-9.75h3.89991v8.14146l5.75275,5.75275zM33.04981,23.29934v-3.89991h3.89991v3.89991zM46.70018,36.94972v-3.89991h3.89991v3.89991zM33.04981,50.59962v-3.89991h3.89991v3.89991zM19.39991,36.94972v-3.89991h3.89991v3.89991zM35,54.5c-2.69759,0 -5.23279,-0.512 -7.60512,-1.53647c-2.37233,-1.02447 -4.43624,-2.41351 -6.19127,-4.16714c-1.75503,-1.75503 -3.14407,-3.81894 -4.16714,-6.19127c-1.02306,-2.37233 -1.53553,-4.90753 -1.53647,-7.60512c0,-2.69759 0.512,-5.23279 1.53647,-7.60512c1.02447,-2.37233 2.41351,-4.43624 4.16714,-6.19127c1.75503,-1.75503 3.81894,-3.14407 6.19127,-4.16714c2.37233,-1.02306 4.90753,-1.53553 7.60512,-1.53647c2.69759,0 5.23279,0.512 7.60512,1.53647c2.37233,1.02447 4.43624,2.41351 6.19127,4.16714c1.75503,1.75503 3.14454,3.81894 4.16901,6.19127c1.02447,2.37233 1.536,4.90753 1.5346,7.60512c0,2.69759 -0.512,5.23279 -1.53647,7.60512c-1.02447,2.37233 -2.41351,4.43624 -4.16714,6.19127c-1.75503,1.75503 -3.81894,3.14454 -6.19127,4.16901c-2.37233,1.02447 -4.90753,1.536 -7.60512,1.5346zM35,50.59962c4.35528,0 8.04411,-1.5112 11.0665,-4.53359c3.02239,-3.02239 4.53359,-6.71123 4.53359,-11.0665c0,-4.35528 -1.5112,-8.04364 -4.53359,-11.0665c-3.02239,-3.02239 -6.71123,-4.53406 -11.0665,-4.53406c-4.35528,0 -8.04364,1.5112 -11.0665,4.53406c-3.02239,3.02239 -4.53406,6.71123 -4.53406,11.0665c0,4.35528 1.5112,8.04411 4.53406,11.0665c3.02239,3.02239 6.71123,4.53359 11.0665,4.53359zM35,34.99953z" id="icon" fill="#ffffff"/></g></svg>