<svg version="1.1" xmlns="http://www.w3.org/2000/svg" xmlns:xlink="http://www.w3.org/1999/xlink" width="70" height="70" viewBox="0,0,70,70" odoo-icon:version="1.0" xmlns:odoo-icon="https://ivantodorovich.github.io/odoo-icon" odoo-icon:size="70" odoo-icon:icon-size="0.67" odoo-icon:icon-color="#FFFFFF" odoo-icon:icon-flat-shadow-angle="135" odoo-icon:background-color="#bfb422" odoo-icon:background-gradient="0.2" odoo-icon:box-radius="3.5" odoo-icon:odoo-version="14.0"><defs><linearGradient x1="70" y1="0" x2="0" y2="70" gradientUnits="userSpaceOnUse" id="color-1"><stop offset="0" stop-color="#f2e755"/><stop offset="1" stop-color="#bfb422"/></linearGradient></defs><g fill="none" fill-rule="nonzero" stroke="none" stroke-width="1" stroke-linecap="butt" stroke-linejoin="miter" stroke-miterlimit="10" stroke-dasharray="" stroke-dashoffset="0" font-family="none" font-weight="none" font-size="none" text-anchor="none" style="mix-blend-mode: normal"><path d="M3.5,70c-1.933,0 -3.5,-1.567 -3.5,-3.5v-63c0,-1.933 1.567,-3.5 3.5,-3.5h63c1.933,0 3.5,1.567 3.5,3.5v63c0,1.933 -1.567,3.5 -3.5,3.5z" id="box" fill="url(#color-1)"/><path d="M65,1h-61c-1.95033,0 -3.2667,0.63396 -3.9491,1.90189c0.28378,-1.64806 1.72001,-2.90189 3.4491,-2.90189h63c1.72965,0 3.16627,1.25466 3.44938,2.90352c-0.69803,-1.26902 -2.34782,-1.90352 -4.94938,-1.90352z" id="topBoxShadow" fill="#ffffff" opacity="0.383"/><path d="M4,69h61c2.66667,0 4.33333,-1 5,-3v0.5c0,1.933 -1.567,3.5 -3.5,3.5h-63c-1.933,0 -3.5,-1.567 -3.5,-3.5c0,-0.1611 0,-0.32777 0,-0.5c0.66667,2 2,3 4,3z" id="bottomBoxShadow" fill="#000000" opacity="0.383"/><path d="M35,60.5c-12.97923,0 -23.5,-10.52077 -23.5,-23.5c0,-12.97923 10.52077,-23.5 23.5,-23.5c12.97866,0 23.5,10.52077 23.5,23.5c0,12.97866 -10.52077,23.5 -23.5,23.5zM35,55.79966c10.38259,0 18.79966,-8.41707 18.79966,-18.79966c0,-10.38259 -8.41707,-18.79966 -18.79966,-18.79966c-10.38259,0 -18.79966,8.41707 -18.79966,18.79966c0,10.38259 8.41707,18.79966 18.79966,18.79966zM37.35017,37h9.40011v4.69977h-14.09989v-16.45006h4.69977z" id="shadow" fill="#000000" opacity="0.3"/><path d="M18.38279,18.38279c4.2526,-4.2526 10.1276,-6.88279 16.61721,-6.88279c12.97866,0 23.5,10.52077 23.5,23.5c0,6.4894 -2.63025,12.36446 -6.88293,16.61714l-18.38286,18.38286h-29.73421c-1.933,0 -3.5,-1.567 -3.5,-3.5l0,-29.73442z" id="flatShadow" fill="#000000" opacity="0.324"/><path d="M35,58.5c-12.97923,0 -23.5,-10.52077 -23.5,-23.5c0,-12.97923 10.52077,-23.5 23.5,-23.5c12.97866,0 23.5,10.52077 23.5,23.5c0,12.97866 -10.52077,23.5 -23.5,23.5zM35,53.79966c10.38259,0 18.79966,-8.41707 18.79966,-18.79966c0,-10.38259 -8.41707,-18.79966 -18.79966,-18.79966c-10.38259,0 -18.79966,8.41707 -18.79966,18.79966c0,10.38259 8.41707,18.79966 18.79966,18.79966zM37.35017,35h9.40011v4.69977h-14.09989v-16.45006h4.69977z" id="icon" fill="#ffffff"/></g></svg>