<svg version="1.1" xmlns="http://www.w3.org/2000/svg" xmlns:xlink="http://www.w3.org/1999/xlink" width="70" height="70" viewBox="0,0,70,70" odoo-icon:version="1.0" xmlns:odoo-icon="https://ivantodorovich.github.io/odoo-icon" odoo-icon:size="70" odoo-icon:icon-size="0.65" odoo-icon:icon-color="#FFFFFF" odoo-icon:icon-flat-shadow-angle="135" odoo-icon:background-color="#e53935" odoo-icon:background-gradient="0.2" odoo-icon:box-radius="3.5" odoo-icon:odoo-version="14.0"><defs><linearGradient x1="70" y1="0" x2="0" y2="70" gradientUnits="userSpaceOnUse" id="color-1"><stop offset="0" stop-color="#ff6c68"/><stop offset="1" stop-color="#e53935"/></linearGradient></defs><g fill="none" fill-rule="nonzero" stroke="none" stroke-width="1" stroke-linecap="butt" stroke-linejoin="miter" stroke-miterlimit="10" stroke-dasharray="" stroke-dashoffset="0" font-family="none" font-weight="none" font-size="none" text-anchor="none" style="mix-blend-mode: normal"><path d="M3.5,70c-1.933,0 -3.5,-1.567 -3.5,-3.5v-63c0,-1.933 1.567,-3.5 3.5,-3.5h63c1.933,0 3.5,1.567 3.5,3.5v63c0,1.933 -1.567,3.5 -3.5,3.5z" id="box" fill="url(#color-1)"/><path d="M65,1h-61c-1.95033,0 -3.2667,0.63396 -3.9491,1.90189c0.28378,-1.64806 1.72001,-2.90189 3.4491,-2.90189h63c1.72965,0 3.16627,1.25466 3.44938,2.90352c-0.69803,-1.26902 -2.34782,-1.90352 -4.94938,-1.90352z" id="topBoxShadow" fill="#ffffff" opacity="0.383"/><path d="M4,69h61c2.66667,0 4.33333,-1 5,-3v0.5c0,1.933 -1.567,3.5 -3.5,3.5h-63c-1.933,0 -3.5,-1.567 -3.5,-3.5c0,-0.1611 0,-0.32777 0,-0.5c0.66667,2 2,3 4,3z" id="bottomBoxShadow" fill="#000000" opacity="0.383"/><path d="M53.07143,25.5h-4.92857v-4.92857c0,-1.81477 -1.47095,-3.28571 -3.28571,-3.28571h-19.71429c-1.81477,0 -3.28571,1.47095 -3.28571,3.28571v4.92857h-4.92857c-2.72215,0 -4.92857,2.20642 -4.92857,4.92857v23c0,1.81477 1.47095,3.28571 3.28571,3.28571h39.42857c1.81477,0 3.28571,-1.47095 3.28571,-3.28571v-23c0,-2.72215 -2.20642,-4.92857 -4.92857,-4.92857zM25.14286,20.57143h19.71429v4.92857h-19.71429zM54.71429,53.42857h-39.42857v-14.78571h13.14286v8.21429h13.14286v-8.21429h13.14286zM31.71429,38.64286h6.57143v4.92857h-6.57143zM15.28571,35.35714v-4.92857c0,-0.90738 0.73547,-1.64286 1.64286,-1.64286h36.14286c0.90738,0 1.64286,0.73547 1.64286,1.64286v4.92857z" id="shadow" fill="#000000" opacity="0.3"/><path d="M13.44348,24.94348c0.51492,-0.51492 1.14327,-0.91642 1.84437,-1.16383l7.53161,-7.53161c0.59458,-0.59458 1.41601,-0.96232 2.32339,-0.96232h19.71429c1.81477,0 3.28571,1.47095 3.28571,3.28571v4.92857h4.92857c2.72215,0 4.92857,2.20642 4.92857,4.92857v23c0,0.90738 -0.36774,1.72881 -0.96232,2.32339l-16.24803,16.24803h-37.28965c-1.933,0 -3.5,-1.567 -3.5,-3.5l0,-28.11304z" id="flatShadow" fill="#000000" opacity="0.324"/><path d="M53.07143,23.5h-4.92857v-4.92857c0,-1.81477 -1.47095,-3.28571 -3.28571,-3.28571h-19.71429c-1.81477,0 -3.28571,1.47095 -3.28571,3.28571v4.92857h-4.92857c-2.72215,0 -4.92857,2.20642 -4.92857,4.92857v23c0,1.81477 1.47095,3.28571 3.28571,3.28571h39.42857c1.81477,0 3.28571,-1.47095 3.28571,-3.28571v-23c0,-2.72215 -2.20642,-4.92857 -4.92857,-4.92857zM25.14286,18.57143h19.71429v4.92857h-19.71429zM54.71429,51.42857h-39.42857v-14.78571h13.14286v8.21429h13.14286v-8.21429h13.14286zM31.71429,36.64286h6.57143v4.92857h-6.57143zM15.28571,33.35714v-4.92857c0,-0.90738 0.73547,-1.64286 1.64286,-1.64286h36.14286c0.90738,0 1.64286,0.73547 1.64286,1.64286v4.92857z" id="icon" fill="#ffffff"/></g></svg>