<svg version="1.1" xmlns="http://www.w3.org/2000/svg" xmlns:xlink="http://www.w3.org/1999/xlink" width="70" height="70" viewBox="0,0,70,70" odoo-icon:version="1.0" xmlns:odoo-icon="https://ivantodorovich.github.io/odoo-icon" odoo-icon:size="70" odoo-icon:icon-size="0.64" odoo-icon:icon-color="#FFFFFF" odoo-icon:icon-flat-shadow-angle="135" odoo-icon:background-color="#5a9442" odoo-icon:background-gradient="0.2" odoo-icon:box-radius="3.5" odoo-icon:odoo-version="14.0"><defs><linearGradient x1="70" y1="0" x2="0" y2="70" gradientUnits="userSpaceOnUse" id="color-1"><stop offset="0" stop-color="#8dc775"/><stop offset="1" stop-color="#5a9442"/></linearGradient></defs><g fill="none" fill-rule="nonzero" stroke="none" stroke-width="1" stroke-linecap="butt" stroke-linejoin="miter" stroke-miterlimit="10" stroke-dasharray="" stroke-dashoffset="0" font-family="none" font-weight="none" font-size="none" text-anchor="none" style="mix-blend-mode: normal"><path d="M3.5,70c-1.933,0 -3.5,-1.567 -3.5,-3.5v-63c0,-1.933 1.567,-3.5 3.5,-3.5h63c1.933,0 3.5,1.567 3.5,3.5v63c0,1.933 -1.567,3.5 -3.5,3.5z" id="box" fill="url(#color-1)"/><path d="M65,1h-61c-1.95033,0 -3.2667,0.63396 -3.9491,1.90189c0.28378,-1.64806 1.72001,-2.90189 3.4491,-2.90189h63c1.72965,0 3.16627,1.25466 3.44938,2.90352c-0.69803,-1.26902 -2.34782,-1.90352 -4.94938,-1.90352z" id="topBoxShadow" fill="#ffffff" opacity="0.383"/><path d="M4,69h61c2.66667,0 4.33333,-1 5,-3v0.5c0,1.933 -1.567,3.5 -3.5,3.5h-63c-1.933,0 -3.5,-1.567 -3.5,-3.5c0,-0.1611 0,-0.32777 0,-0.5c0.66667,2 2,3 4,3z" id="bottomBoxShadow" fill="#000000" opacity="0.383"/><path d="M15.50012,23.49991c-1.66183,0 -3.00012,1.33784 -3.00012,3.00012v20.99994c0,1.66183 1.33784,3.00012 3.00012,3.00012h38.99976c1.66183,0 3.00012,-1.33784 3.00012,-3.00012v-20.99994c0,-1.66183 -1.33784,-3.00012 -3.00012,-3.00012zM15.50012,26.50003h4.49996c0.82844,0 1.49984,0.67139 1.49984,1.49984c0,0.82844 -0.67139,1.49984 -1.49984,1.49984c-0.82844,0 -1.49984,-0.67139 -1.49984,-1.49984l-1.49984,1.49984c0.82844,0 1.49984,0.67139 1.49984,1.49984c0,0.82844 -0.67139,1.49984 -1.49984,1.49984c-0.82844,0 -1.49984,-0.67139 -1.49984,-1.49984zM34.99978,26.50003c4.13996,0 7.50007,4.7011 7.50007,10.49975c0,5.79909 -3.36012,10.49975 -7.50007,10.49975c-4.13996,0 -7.50007,-4.7011 -7.50007,-10.49975c0,-5.79909 3.36012,-10.49975 7.50007,-10.49975zM49.99948,26.50003h4.49996v4.49996c0,0.82844 -0.67139,1.49984 -1.49984,1.49984c-0.82844,0 -1.49984,-0.67139 -1.49984,-1.49984c0,-0.82844 0.67139,-1.49984 1.49984,-1.49984l-1.49984,-1.49984c0,0.82844 -0.67139,1.49984 -1.49984,1.49984c-0.82844,0 -1.49984,-0.67139 -1.49984,-1.49984c0,-0.82844 0.67139,-1.49984 1.49984,-1.49984zM34.99978,30.99999c-0.96884,0 -1.60198,0.32715 -2.04613,0.75014h4.09181c-0.44415,-0.423 -1.07684,-0.75014 -2.04613,-0.75014zM32.37495,32.49982c-0.135,0.27315 -0.18585,0.51299 -0.23985,0.75014h5.72979c-0.054,-0.23715 -0.10215,-0.477 -0.23985,-0.75014zM31.99966,33.99966v0.75014h5.99979v-0.75014zM31.99966,35.49994v0.75014h5.99979v-0.75014zM31.99966,36.99978v0.75014h5.99979v-0.75014zM31.99966,38.49961l-0.75014,0.75014h5.99979l0.75014,-0.75014zM30.49982,39.9999c0,0 0.10485,0.306 0.306,0.75014h6.81878l-1.12499,-0.75014zM16.99996,41.49973c0.82844,0 1.49984,0.67139 1.49984,1.49984c0,0.82844 -0.67139,1.49984 -1.49984,1.49984l1.49984,1.49984c0,-0.82844 0.67139,-1.49984 1.49984,-1.49984c0.82844,0 1.49984,0.67139 1.49984,1.49984c0,0.82844 -0.67139,1.49984 -1.49984,1.49984h-4.49996v-4.49996c0,-0.82844 0.67139,-1.49984 1.49984,-1.49984zM31.21396,41.49973c0.13815,0.25785 0.22815,0.477 0.41085,0.75014h6.80393c0.198,-0.414 0.32085,-0.75014 0.32085,-0.75014zM52.9996,41.49973c0.82844,0 1.49984,0.67139 1.49984,1.49984v4.49996h-4.49996c-0.82844,0 -1.49984,-0.67139 -1.49984,-1.49984c0,-0.82844 0.67139,-1.49984 1.49984,-1.49984c0.82844,0 1.49984,0.67139 1.49984,1.49984l1.49984,-1.49984c-0.82844,0 -1.49984,-0.67139 -1.49984,-1.49984c0,-0.82844 0.67139,-1.49984 1.49984,-1.49984zM32.19765,42.99957c0.23715,0.27315 0.495,0.52784 0.77984,0.75014h4.26011c0.30015,-0.23085 0.56384,-0.486 0.76184,-0.75014z" id="shadow" fill="#000000" opacity="0.3"/><path d="M57.5,24.50003v20.99994c0,0.83109 -0.33453,1.58107 -0.87676,2.12331l-22.37672,22.37672h-30.74651c-1.933,0 -3.5,-1.567 -3.5,-3.5l0,-30.74651l13.37676,-13.37676c0.54231,-0.54231 1.29238,-0.87681 2.12336,-0.87681h38.99976c1.66228,0 3.00012,1.33829 3.00012,3.00012z" id="flatShadow" fill="#000000" opacity="0.324"/><path d="M15.50012,21.49991c-1.66183,0 -3.00012,1.33784 -3.00012,3.00012v20.99994c0,1.66183 1.33784,3.00012 3.00012,3.00012h38.99976c1.66183,0 3.00012,-1.33784 3.00012,-3.00012v-20.99994c0,-1.66183 -1.33784,-3.00012 -3.00012,-3.00012zM15.50012,24.50003h4.49996c0.82844,0 1.49984,0.67139 1.49984,1.49984c0,0.82844 -0.67139,1.49984 -1.49984,1.49984c-0.82844,0 -1.49984,-0.67139 -1.49984,-1.49984l-1.49984,1.49984c0.82844,0 1.49984,0.67139 1.49984,1.49984c0,0.82844 -0.67139,1.49984 -1.49984,1.49984c-0.82844,0 -1.49984,-0.67139 -1.49984,-1.49984zM34.99978,24.50003c4.13996,0 7.50007,4.7011 7.50007,10.49975c0,5.79909 -3.36012,10.49975 -7.50007,10.49975c-4.13996,0 -7.50007,-4.7011 -7.50007,-10.49975c0,-5.79909 3.36012,-10.49975 7.50007,-10.49975zM49.99948,24.50003h4.49996v4.49996c0,0.82844 -0.67139,1.49984 -1.49984,1.49984c-0.82844,0 -1.49984,-0.67139 -1.49984,-1.49984c0,-0.82844 0.67139,-1.49984 1.49984,-1.49984l-1.49984,-1.49984c0,0.82844 -0.67139,1.49984 -1.49984,1.49984c-0.82844,0 -1.49984,-0.67139 -1.49984,-1.49984c0,-0.82844 0.67139,-1.49984 1.49984,-1.49984zM34.99978,28.99999c-0.96884,0 -1.60198,0.32715 -2.04613,0.75014h4.09181c-0.44415,-0.423 -1.07684,-0.75014 -2.04613,-0.75014zM32.37495,30.49982c-0.135,0.27315 -0.18585,0.51299 -0.23985,0.75014h5.72979c-0.054,-0.23715 -0.10215,-0.477 -0.23985,-0.75014zM31.99966,31.99966v0.75014h5.99979v-0.75014zM31.99966,33.49994v0.75014h5.99979v-0.75014zM31.99966,34.99978v0.75014h5.99979v-0.75014zM31.99966,36.49961l-0.75014,0.75014h5.99979l0.75014,-0.75014zM30.49982,37.9999c0,0 0.10485,0.306 0.306,0.75014h6.81878l-1.12499,-0.75014zM16.99996,39.49973c0.82844,0 1.49984,0.67139 1.49984,1.49984c0,0.82844 -0.67139,1.49984 -1.49984,1.49984l1.49984,1.49984c0,-0.82844 0.67139,-1.49984 1.49984,-1.49984c0.82844,0 1.49984,0.67139 1.49984,1.49984c0,0.82844 -0.67139,1.49984 -1.49984,1.49984h-4.49996v-4.49996c0,-0.82844 0.67139,-1.49984 1.49984,-1.49984zM31.21396,39.49973c0.13815,0.25785 0.22815,0.477 0.41085,0.75014h6.80393c0.198,-0.414 0.32085,-0.75014 0.32085,-0.75014zM52.9996,39.49973c0.82844,0 1.49984,0.67139 1.49984,1.49984v4.49996h-4.49996c-0.82844,0 -1.49984,-0.67139 -1.49984,-1.49984c0,-0.82844 0.67139,-1.49984 1.49984,-1.49984c0.82844,0 1.49984,0.67139 1.49984,1.49984l1.49984,-1.49984c-0.82844,0 -1.49984,-0.67139 -1.49984,-1.49984c0,-0.82844 0.67139,-1.49984 1.49984,-1.49984zM32.19765,40.99957c0.23715,0.27315 0.495,0.52784 0.77984,0.75014h4.26011c0.30015,-0.23085 0.56384,-0.486 0.76184,-0.75014z" id="icon" fill="#ffffff"/></g></svg>