<svg version="1.1" xmlns="http://www.w3.org/2000/svg" xmlns:xlink="http://www.w3.org/1999/xlink" width="70" height="70" viewBox="0,0,70,70" odoo-icon:version="1.0" xmlns:odoo-icon="https://ivantodorovich.github.io/odoo-icon" odoo-icon:size="70" odoo-icon:icon-size="0.58" odoo-icon:icon-color="#FFFFFF" odoo-icon:icon-flat-shadow-angle="135" odoo-icon:background-color="#1e88e5" odoo-icon:background-gradient="0.2" odoo-icon:box-radius="3.5" odoo-icon:odoo-version="14.0"><defs><linearGradient x1="70" y1="0" x2="0" y2="70" gradientUnits="userSpaceOnUse" id="color-1"><stop offset="0" stop-color="#51bbff"/><stop offset="1" stop-color="#1e88e5"/></linearGradient></defs><g fill="none" fill-rule="nonzero" stroke="none" stroke-width="1" stroke-linecap="butt" stroke-linejoin="miter" stroke-miterlimit="10" stroke-dasharray="" stroke-dashoffset="0" font-family="none" font-weight="none" font-size="none" text-anchor="none" style="mix-blend-mode: normal"><path d="M3.5,70c-1.933,0 -3.5,-1.567 -3.5,-3.5v-63c0,-1.933 1.567,-3.5 3.5,-3.5h63c1.933,0 3.5,1.567 3.5,3.5v63c0,1.933 -1.567,3.5 -3.5,3.5z" id="box" fill="url(#color-1)"/><path d="M65,1h-61c-1.95033,0 -3.2667,0.63396 -3.9491,1.90189c0.28378,-1.64806 1.72001,-2.90189 3.4491,-2.90189h63c1.72965,0 3.16627,1.25466 3.44938,2.90352c-0.69803,-1.26902 -2.34782,-1.90352 -4.94938,-1.90352z" id="topBoxShadow" fill="#ffffff" opacity="0.383"/><path d="M4,69h61c2.66667,0 4.33333,-1 5,-3v0.5c0,1.933 -1.567,3.5 -3.5,3.5h-63c-1.933,0 -3.5,-1.567 -3.5,-3.5c0,-0.1611 0,-0.32777 0,-0.5c0.66667,2 2,3 4,3z" id="bottomBoxShadow" fill="#000000" opacity="0.383"/><path d="M37.39509,16.65517c-0.27975,0 -2.72766,0.44491 -2.72766,0.44491c-0.11369,3.63763 -2.65784,6.86079 -7.89429,7.42028l-1.119,-2.01688l-2.19413,0.21664l0.98785,5.25301l-9.94787,-0.42835l1.06663,3.62778c10.71684,3.45322 10.22762,13.33171 7.8934,22.16147c4.10895,4.63354 12.39623,4.17878 16.26035,3.76788c0.2708,-5.43742 4.58072,-5.63884 11.8806,-2.81495c0.98785,-1.53884 1.64358,-3.14706 3.89903,-4.43212l-4.07404,-12.19526l-2.40405,0.54204c0.96144,-1.84455 2.81495,-4.36229 4.40616,-5.54261l1.36383,-7.59709c-7.74569,-0.55055 -12.79862,-4.053 -17.3968,-8.40724z" id="shadow" fill="#000000" opacity="0.3"/><path d="M53.42807,30.65902l-2.11427,2.11427c-0.91084,1.11414 -1.74544,2.37997 -2.29189,3.42834l2.40405,-0.54204l4.07404,12.19526l-3.06138,3.06138c-0.2834,0.45623 -0.54606,0.91651 -0.83765,1.37074l-17.71304,17.71304h-30.38794c-1.933,0 -3.5,-1.567 -3.5,-3.5l0,-26.45522l14.5,-14.5l3.96464,0.17072l4.99537,-4.99537l2.19413,-0.21664l1.119,2.01688c0.18429,-0.01969 0.36525,-0.04268 0.54288,-0.06887l7.35141,-7.35141c0,0 2.44518,-0.44441 2.72719,-0.44491l0.00048,-0.00048c4.59818,4.35424 9.65111,7.85669 17.3968,8.40724z" id="flatShadow" fill="#000000" opacity="0.324"/><path d="M37.39509,14.65517c-0.27975,0 -2.72766,0.44491 -2.72766,0.44491c-0.11369,3.63763 -2.65784,6.86079 -7.89429,7.42028l-1.119,-2.01688l-2.19413,0.21664l0.98785,5.25301l-9.94787,-0.42835l1.06663,3.62778c10.71684,3.45322 10.22762,13.33171 7.8934,22.16147c4.10895,4.63354 12.39623,4.17878 16.26035,3.76788c0.2708,-5.43742 4.58072,-5.63884 11.8806,-2.81495c0.98785,-1.53884 1.64358,-3.14706 3.89903,-4.43212l-4.07404,-12.19526l-2.40405,0.54204c0.96144,-1.84455 2.81495,-4.36229 4.40616,-5.54261l1.36383,-7.59709c-7.74569,-0.55055 -12.79862,-4.053 -17.3968,-8.40724z" id="icon" fill="#ffffff"/></g></svg>