<svg version="1.1" xmlns="http://www.w3.org/2000/svg" xmlns:xlink="http://www.w3.org/1999/xlink" width="70" height="70" viewBox="0,0,70,70" odoo-icon:version="1.0" xmlns:odoo-icon="https://ivantodorovich.github.io/odoo-icon" odoo-icon:size="70" odoo-icon:icon-size="0.6" odoo-icon:icon-color="#FFFFFF" odoo-icon:icon-flat-shadow-angle="135" odoo-icon:background-color="#a4426b" odoo-icon:background-gradient="0.2" odoo-icon:box-radius="3.5" odoo-icon:odoo-version="14.0"><defs><linearGradient x1="70" y1="0" x2="0" y2="70" gradientUnits="userSpaceOnUse" id="color-1"><stop offset="0" stop-color="#d7759e"/><stop offset="1" stop-color="#a4426b"/></linearGradient></defs><g fill="none" fill-rule="nonzero" stroke="none" stroke-width="1" stroke-linecap="butt" stroke-linejoin="miter" stroke-miterlimit="10" stroke-dasharray="" stroke-dashoffset="0" font-family="none" font-weight="none" font-size="none" text-anchor="none" style="mix-blend-mode: normal"><path d="M3.5,70c-1.933,0 -3.5,-1.567 -3.5,-3.5v-63c0,-1.933 1.567,-3.5 3.5,-3.5h63c1.933,0 3.5,1.567 3.5,3.5v63c0,1.933 -1.567,3.5 -3.5,3.5z" id="box" fill="url(#color-1)"/><path d="M65,1h-61c-1.95033,0 -3.2667,0.63396 -3.9491,1.90189c0.28378,-1.64806 1.72001,-2.90189 3.4491,-2.90189h63c1.72965,0 3.16627,1.25466 3.44938,2.90352c-0.69803,-1.26902 -2.34782,-1.90352 -4.94938,-1.90352z" id="topBoxShadow" fill="#ffffff" opacity="0.383"/><path d="M4,69h61c2.66667,0 4.33333,-1 5,-3v0.5c0,1.933 -1.567,3.5 -3.5,3.5h-63c-1.933,0 -3.5,-1.567 -3.5,-3.5c0,-0.1611 0,-0.32777 0,-0.5c0.66667,2 2,3 4,3z" id="bottomBoxShadow" fill="#000000" opacity="0.383"/><path d="M29.75,30.4375c0,2.17476 -1.76274,3.9375 -3.9375,3.9375c-2.17476,0 -3.9375,-1.76274 -3.9375,-3.9375c0,-2.17476 1.76274,-3.9375 3.9375,-3.9375c2.17476,0 3.9375,1.76274 3.9375,3.9375zM50.75,18.625c2.89968,0 5.25,2.35032 5.25,5.25v26.25c0,2.89968 -2.35032,5.25 -5.25,5.25h-31.5c-2.89968,0 -5.25,-2.35032 -5.25,-5.25v-26.25c0,-2.89968 2.35032,-5.25 5.25,-5.25zM19.24958,21.25c-1.44984,0 -2.625,1.17516 -2.625,2.625v23.625l6.94554,-6.17946c0.44226,-0.44058 1.134,-0.50862 1.65354,-0.16254l6.9825,4.6515l9.73896,-9.73854c0.39984,-0.39858 1.00968,-0.49686 1.51452,-0.24402l9.91452,5.11098v-17.0625c0,-1.44984 -1.17516,-2.625 -2.625,-2.625z" id="shadow" fill="#000000" opacity="0.3"/><path d="M56,21.875v26.25c0,1.44984 -0.58758,2.76234 -1.53762,3.71238l-18.16262,18.16262h-32.79976c-1.933,0 -3.5,-1.567 -3.5,-3.5l0,-32.79976l15.53762,-15.53762c0.95004,-0.95004 2.26254,-1.53762 3.71238,-1.53762h31.5c2.89968,0 5.25,2.35032 5.25,5.25z" id="flatShadow" fill="#000000" opacity="0.324"/><path d="M29.75,28.4375c0,2.17476 -1.76274,3.9375 -3.9375,3.9375c-2.17476,0 -3.9375,-1.76274 -3.9375,-3.9375c0,-2.17476 1.76274,-3.9375 3.9375,-3.9375c2.17476,0 3.9375,1.76274 3.9375,3.9375zM50.75,16.625c2.89968,0 5.25,2.35032 5.25,5.25v26.25c0,2.89968 -2.35032,5.25 -5.25,5.25h-31.5c-2.89968,0 -5.25,-2.35032 -5.25,-5.25v-26.25c0,-2.89968 2.35032,-5.25 5.25,-5.25zM19.24958,19.25c-1.44984,0 -2.625,1.17516 -2.625,2.625v23.625l6.94554,-6.17946c0.44226,-0.44058 1.134,-0.50862 1.65354,-0.16254l6.9825,4.6515l9.73896,-9.73854c0.39984,-0.39858 1.00968,-0.49686 1.51452,-0.24402l9.91452,5.11098v-17.0625c0,-1.44984 -1.17516,-2.625 -2.625,-2.625z" id="icon" fill="#ffffff"/></g></svg>