<svg version="1.1" xmlns="http://www.w3.org/2000/svg" xmlns:xlink="http://www.w3.org/1999/xlink" width="70" height="70" viewBox="0,0,70,70" odoo-icon:version="1.0" xmlns:odoo-icon="https://ivantodorovich.github.io/odoo-icon" odoo-icon:size="70" odoo-icon:icon-size="0.55" odoo-icon:icon-color="#FFFFFF" odoo-icon:icon-flat-shadow-angle="135" odoo-icon:background-color="#cb6482" odoo-icon:background-gradient="0.2" odoo-icon:box-radius="3.5" odoo-icon:odoo-version="14.0"><defs><linearGradient x1="70" y1="0" x2="0" y2="70" gradientUnits="userSpaceOnUse" id="color-1"><stop offset="0" stop-color="#fe97b5"/><stop offset="1" stop-color="#cb6482"/></linearGradient></defs><g fill="none" fill-rule="nonzero" stroke="none" stroke-width="1" stroke-linecap="butt" stroke-linejoin="miter" stroke-miterlimit="10" stroke-dasharray="" stroke-dashoffset="0" font-family="none" font-weight="none" font-size="none" text-anchor="none" style="mix-blend-mode: normal"><path d="M3.5,70c-1.933,0 -3.5,-1.567 -3.5,-3.5v-63c0,-1.933 1.567,-3.5 3.5,-3.5h63c1.933,0 3.5,1.567 3.5,3.5v63c0,1.933 -1.567,3.5 -3.5,3.5z" id="box" fill="url(#color-1)"/><path d="M65,1h-61c-1.95033,0 -3.2667,0.63396 -3.9491,1.90189c0.28378,-1.64806 1.72001,-2.90189 3.4491,-2.90189h63c1.72965,0 3.16627,1.25466 3.44938,2.90352c-0.69803,-1.26902 -2.34782,-1.90352 -4.94938,-1.90352z" id="topBoxShadow" fill="#ffffff" opacity="0.383"/><path d="M4,69h61c2.66667,0 4.33333,-1 5,-3v0.5c0,1.933 -1.567,3.5 -3.5,3.5h-63c-1.933,0 -3.5,-1.567 -3.5,-3.5c0,-0.1611 0,-0.32777 0,-0.5c0.66667,2 2,3 4,3z" id="bottomBoxShadow" fill="#000000" opacity="0.383"/><path d="M50,20.5h-4.5v-1.5c0,-0.82848 -0.67152,-1.5 -1.5,-1.5c-0.82848,0 -1.5,0.67152 -1.5,1.5v1.5h-15v-1.5c0,-0.82848 -0.67152,-1.5 -1.5,-1.5c-0.82848,0 -1.5,0.67152 -1.5,1.5v1.5h-4.5c-1.65696,0 -3,1.34304 -3,3v30c0,1.65696 1.34304,3 3,3h30c1.65696,0 3,-1.34304 3,-3v-30c0,-1.65696 -1.34304,-3 -3,-3zM24.5,23.5v1.5c0,0.82848 0.67152,1.5 1.5,1.5c0.82848,0 1.5,-0.67152 1.5,-1.5v-1.5h15v1.5c0,0.82848 0.67152,1.5 1.5,1.5c0.82848,0 1.5,-0.67152 1.5,-1.5v-1.5h4.5v6h-30v-6zM50,53.5h-30v-21h30zM32,37v12c0,0.82848 -0.67152,1.5 -1.5,1.5c-0.82848,0 -1.5,-0.67152 -1.5,-1.5v-9.5736l-0.82896,0.41616c-0.7416,0.37056 -1.64304,0.07008 -2.0136,-0.67104c-0.37056,-0.7416 -0.07008,-1.64304 0.67104,-2.0136l3,-1.5c0.46512,-0.2328 1.0176,-0.20784 1.46016,0.06576c0.44256,0.2736 0.71136,0.75696 0.71136,1.2768zM43.09232,42.7096l-3.59232,4.7904h3c0.82848,0 1.5,0.67152 1.5,1.5c0,0.82848 -0.67152,1.5 -1.5,1.5h-6c-0.56832,0 -1.08768,-0.32112 -1.3416,-0.82896c-0.25392,-0.50832 -0.1992,-1.11648 0.1416,-1.57104l5.39616,-7.19424c0.33456,-0.44544 0.39456,-1.0392 0.15648,-1.54224c-0.23808,-0.50352 -0.73536,-0.83328 -1.29216,-0.85728c-0.55632,-0.02352 -1.08,0.26256 -1.36032,0.744c-0.26016,0.47904 -0.75984,0.77952 -1.30512,0.78432c-0.54528,0.0048 -1.05024,-0.28704 -1.31856,-0.76176c-0.26832,-0.47472 -0.25824,-1.05744 0.02688,-1.52256c1.01856,-1.76304 3.09408,-2.62224 5.06112,-2.0952c1.96656,0.52704 3.33456,2.3088 3.33504,4.34496c0.00336,0.97824 -0.31584,1.93056 -0.90768,2.7096z" id="shadow" fill="#000000" opacity="0.3"/><path d="M17.87864,19.37864c0.54288,-0.54288 1.29288,-0.87864 2.12136,-0.87864l2.37864,0l2.56068,-2.56068c0.27144,-0.27144 0.64644,-0.43932 1.06068,-0.43932c0.82848,0 1.5,0.67152 1.5,1.5v1.5l12.87864,0l2.56068,-2.56068c0.27144,-0.27144 0.64644,-0.43932 1.06068,-0.43932c0.82848,0 1.5,0.67152 1.5,1.5v1.5h4.5c1.65696,0 3,1.34304 3,3v30l-18.5,18.5h-31c-1.933,0 -3.5,-1.567 -3.5,-3.5l0,-29.24272z" id="flatShadow" fill="#000000" opacity="0.324"/><path d="M50,18.5h-4.5v-1.5c0,-0.82848 -0.67152,-1.5 -1.5,-1.5c-0.82848,0 -1.5,0.67152 -1.5,1.5v1.5h-15v-1.5c0,-0.82848 -0.67152,-1.5 -1.5,-1.5c-0.82848,0 -1.5,0.67152 -1.5,1.5v1.5h-4.5c-1.65696,0 -3,1.34304 -3,3v30c0,1.65696 1.34304,3 3,3h30c1.65696,0 3,-1.34304 3,-3v-30c0,-1.65696 -1.34304,-3 -3,-3zM24.5,21.5v1.5c0,0.82848 0.67152,1.5 1.5,1.5c0.82848,0 1.5,-0.67152 1.5,-1.5v-1.5h15v1.5c0,0.82848 0.67152,1.5 1.5,1.5c0.82848,0 1.5,-0.67152 1.5,-1.5v-1.5h4.5v6h-30v-6zM50,51.5h-30v-21h30zM32,35v12c0,0.82848 -0.67152,1.5 -1.5,1.5c-0.82848,0 -1.5,-0.67152 -1.5,-1.5v-9.5736l-0.82896,0.41616c-0.7416,0.37056 -1.64304,0.07008 -2.0136,-0.67104c-0.37056,-0.7416 -0.07008,-1.64304 0.67104,-2.0136l3,-1.5c0.46512,-0.2328 1.0176,-0.20784 1.46016,0.06576c0.44256,0.2736 0.71136,0.75696 0.71136,1.2768zM43.09232,40.7096l-3.59232,4.7904h3c0.82848,0 1.5,0.67152 1.5,1.5c0,0.82848 -0.67152,1.5 -1.5,1.5h-6c-0.56832,0 -1.08768,-0.32112 -1.3416,-0.82896c-0.25392,-0.50832 -0.1992,-1.11648 0.1416,-1.57104l5.39616,-7.19424c0.33456,-0.44544 0.39456,-1.0392 0.15648,-1.54224c-0.23808,-0.50352 -0.73536,-0.83328 -1.29216,-0.85728c-0.55632,-0.02352 -1.08,0.26256 -1.36032,0.744c-0.26016,0.47904 -0.75984,0.77952 -1.30512,0.78432c-0.54528,0.0048 -1.05024,-0.28704 -1.31856,-0.76176c-0.26832,-0.47472 -0.25824,-1.05744 0.02688,-1.52256c1.01856,-1.76304 3.09408,-2.62224 5.06112,-2.0952c1.96656,0.52704 3.33456,2.3088 3.33504,4.34496c0.00336,0.97824 -0.31584,1.93056 -0.90768,2.7096z" id="icon" fill="#ffffff"/></g></svg>