<svg version="1.1" xmlns="http://www.w3.org/2000/svg" xmlns:xlink="http://www.w3.org/1999/xlink" width="70" height="70" viewBox="0,0,70,70" odoo-icon:version="1.0" xmlns:odoo-icon="https://ivantodorovich.github.io/odoo-icon" odoo-icon:size="70" odoo-icon:icon-size="0.61" odoo-icon:icon-color="#FFFFFF" odoo-icon:icon-flat-shadow-angle="135" odoo-icon:background-color="#1e88e5" odoo-icon:background-gradient="0.2" odoo-icon:box-radius="3.5" odoo-icon:odoo-version="14.0"><defs><linearGradient x1="70" y1="0" x2="0" y2="70" gradientUnits="userSpaceOnUse" id="color-1"><stop offset="0" stop-color="#51bbff"/><stop offset="1" stop-color="#1e88e5"/></linearGradient></defs><g fill="none" fill-rule="nonzero" stroke="none" stroke-width="1" stroke-linecap="butt" stroke-linejoin="miter" stroke-miterlimit="10" stroke-dasharray="" stroke-dashoffset="0" font-family="none" font-weight="none" font-size="none" text-anchor="none" style="mix-blend-mode: normal"><path d="M3.5,70c-1.933,0 -3.5,-1.567 -3.5,-3.5v-63c0,-1.933 1.567,-3.5 3.5,-3.5h63c1.933,0 3.5,1.567 3.5,3.5v63c0,1.933 -1.567,3.5 -3.5,3.5z" id="box" fill="url(#color-1)"/><path d="M65,1h-61c-1.95033,0 -3.2667,0.63396 -3.9491,1.90189c0.28378,-1.64806 1.72001,-2.90189 3.4491,-2.90189h63c1.72965,0 3.16627,1.25466 3.44938,2.90352c-0.69803,-1.26902 -2.34782,-1.90352 -4.94938,-1.90352z" id="topBoxShadow" fill="#ffffff" opacity="0.383"/><path d="M4,69h61c2.66667,0 4.33333,-1 5,-3v0.5c0,1.933 -1.567,3.5 -3.5,3.5h-63c-1.933,0 -3.5,-1.567 -3.5,-3.5c0,-0.1611 0,-0.32777 0,-0.5c0.66667,2 2,3 4,3z" id="bottomBoxShadow" fill="#000000" opacity="0.383"/><path d="M35,58.5c-2.97427,0 -5.76949,-0.56451 -8.38513,-1.69405c-2.61565,-1.12954 -4.89124,-2.66105 -6.82627,-4.59454c-1.93503,-1.93503 -3.46654,-4.21063 -4.59454,-6.82627c-1.12799,-2.61565 -1.69302,-5.41086 -1.69405,-8.38513c0,-2.97427 0.56451,-5.76949 1.69405,-8.38513c1.12954,-2.61565 2.66105,-4.89124 4.59454,-6.82627c1.93503,-1.93503 4.21063,-3.46654 6.82627,-4.59454c2.61565,-1.12799 5.41086,-1.69302 8.38513,-1.69405c2.97427,0 5.76949,0.56451 8.38513,1.69405c2.61565,1.12954 4.89124,2.66105 6.82627,4.59454c1.93503,1.93503 3.46706,4.21063 4.5966,6.82627c1.12954,2.61565 1.69354,5.41086 1.69199,8.38513c0,2.97427 -0.56451,5.76949 -1.69405,8.38513c-1.12954,2.61565 -2.66105,4.89124 -4.59454,6.82627c-1.93503,1.93503 -4.21063,3.46706 -6.82627,4.5966c-2.61565,1.12954 -5.41086,1.69354 -8.38513,1.69199zM32.84979,54.09225v-4.19257c-1.18269,0 -2.1951,-0.42158 -3.03826,-1.26422c-0.84264,-0.84264 -1.2637,-1.85453 -1.26216,-3.03568v-2.15021l-10.32016,-10.32016c-0.10733,0.64501 -0.2064,1.29002 -0.2967,1.93503c-0.0903,0.64501 -0.13468,1.29002 -0.13313,1.93503c0,4.33602 1.4247,8.13435 4.2741,11.39501c2.8494,3.26066 6.44133,5.16008 10.7758,5.69776zM47.68503,48.60967c0.71674,-0.78846 1.36175,-1.63987 1.93503,-2.55424c0.57329,-0.91437 1.04801,-1.86382 1.42315,-2.84888c0.3772,-0.98454 0.66359,-1.99644 0.86019,-3.03568c0.1966,-1.03924 0.29516,-2.09654 0.2967,-3.17139c0,-3.51195 -0.9768,-6.71894 -2.93041,-9.62149c-1.95361,-2.90255 -4.55996,-4.99857 -7.81959,-6.28911v0.86019c0,1.18269 -0.42158,2.1951 -1.26422,3.03826c-0.84264,0.84264 -1.85453,1.2637 -3.03568,1.26216h-4.2999v4.2999c0,0.60941 -0.2064,1.12025 -0.61921,1.53306c-0.41281,0.41281 -0.92314,0.61869 -1.531,0.61715h-4.2999v4.2999h12.90021c0.60941,0 1.12025,0.2064 1.53306,0.61921c0.41281,0.41281 0.61869,0.92314 0.61715,1.531v6.4501h2.15021c0.93191,0 1.77352,0.27813 2.52638,0.83439c0.75234,0.55626 1.27196,1.28125 1.55886,2.17601z" id="shadow" fill="#000000" opacity="0.3"/><path d="M19.78859,19.78859c1.93503,-1.93503 4.21063,-3.46654 6.82627,-4.59454c2.61565,-1.12799 5.41086,-1.69302 8.38513,-1.69405c2.97427,0 5.76949,0.56451 8.38513,1.69405c2.61565,1.12954 4.89124,2.66105 6.82627,4.59454c1.93503,1.93503 3.46706,4.21063 4.5966,6.82627c1.12954,2.61565 1.69354,5.41086 1.69199,8.38513c0,2.97427 -0.56451,5.76949 -1.69405,8.38513c-1.12954,2.61565 -2.66105,4.89124 -4.59454,6.82627l-19.7886,19.7886h-26.92281c-1.933,0 -3.5,-1.567 -3.5,-3.5l0,-26.92282z" id="flatShadow" fill="#000000" opacity="0.324"/><path d="M35,56.5c-2.97427,0 -5.76949,-0.56451 -8.38513,-1.69405c-2.61565,-1.12954 -4.89124,-2.66105 -6.82627,-4.59454c-1.93503,-1.93503 -3.46654,-4.21063 -4.59454,-6.82627c-1.12799,-2.61565 -1.69302,-5.41086 -1.69405,-8.38513c0,-2.97427 0.56451,-5.76949 1.69405,-8.38513c1.12954,-2.61565 2.66105,-4.89124 4.59454,-6.82627c1.93503,-1.93503 4.21063,-3.46654 6.82627,-4.59454c2.61565,-1.12799 5.41086,-1.69302 8.38513,-1.69405c2.97427,0 5.76949,0.56451 8.38513,1.69405c2.61565,1.12954 4.89124,2.66105 6.82627,4.59454c1.93503,1.93503 3.46706,4.21063 4.5966,6.82627c1.12954,2.61565 1.69354,5.41086 1.69199,8.38513c0,2.97427 -0.56451,5.76949 -1.69405,8.38513c-1.12954,2.61565 -2.66105,4.89124 -4.59454,6.82627c-1.93503,1.93503 -4.21063,3.46706 -6.82627,4.5966c-2.61565,1.12954 -5.41086,1.69354 -8.38513,1.69199zM32.84979,52.09225v-4.19257c-1.18269,0 -2.1951,-0.42158 -3.03826,-1.26422c-0.84264,-0.84264 -1.2637,-1.85453 -1.26216,-3.03568v-2.15021l-10.32016,-10.32016c-0.10733,0.64501 -0.2064,1.29002 -0.2967,1.93503c-0.0903,0.64501 -0.13468,1.29002 -0.13313,1.93503c0,4.33602 1.4247,8.13435 4.2741,11.39501c2.8494,3.26066 6.44133,5.16008 10.7758,5.69776zM47.68503,46.60967c0.71674,-0.78846 1.36175,-1.63987 1.93503,-2.55424c0.57329,-0.91437 1.04801,-1.86382 1.42315,-2.84888c0.3772,-0.98454 0.66359,-1.99644 0.86019,-3.03568c0.1966,-1.03924 0.29516,-2.09654 0.2967,-3.17139c0,-3.51195 -0.9768,-6.71894 -2.93041,-9.62149c-1.95361,-2.90255 -4.55996,-4.99857 -7.81959,-6.28911v0.86019c0,1.18269 -0.42158,2.1951 -1.26422,3.03826c-0.84264,0.84264 -1.85453,1.2637 -3.03568,1.26216h-4.2999v4.2999c0,0.60941 -0.2064,1.12025 -0.61921,1.53306c-0.41281,0.41281 -0.92314,0.61869 -1.531,0.61715h-4.2999v4.2999h12.90021c0.60941,0 1.12025,0.2064 1.53306,0.61921c0.41281,0.41281 0.61869,0.92314 0.61715,1.531v6.4501h2.15021c0.93191,0 1.77352,0.27813 2.52638,0.83439c0.75234,0.55626 1.27196,1.28125 1.55886,2.17601z" id="icon" fill="#ffffff"/></g></svg>