<svg version="1.1" xmlns="http://www.w3.org/2000/svg" xmlns:xlink="http://www.w3.org/1999/xlink" width="70" height="70" viewBox="0,0,70,70" odoo-icon:version="1.0" xmlns:odoo-icon="https://ivantodorovich.github.io/odoo-icon" odoo-icon:size="70" odoo-icon:icon-size="0.65" odoo-icon:icon-color="#FFFFFF" odoo-icon:icon-flat-shadow-angle="135" odoo-icon:background-color="#1e88e5" odoo-icon:background-gradient="0.2" odoo-icon:box-radius="3.5" odoo-icon:odoo-version="14.0"><defs><linearGradient x1="70" y1="0" x2="0" y2="70" gradientUnits="userSpaceOnUse" id="color-1"><stop offset="0" stop-color="#51bbff"/><stop offset="1" stop-color="#1e88e5"/></linearGradient></defs><g fill="none" fill-rule="nonzero" stroke="none" stroke-width="1" stroke-linecap="butt" stroke-linejoin="miter" stroke-miterlimit="10" stroke-dasharray="" stroke-dashoffset="0" font-family="none" font-weight="none" font-size="none" text-anchor="none" style="mix-blend-mode: normal"><path d="M3.5,70c-1.933,0 -3.5,-1.567 -3.5,-3.5v-63c0,-1.933 1.567,-3.5 3.5,-3.5h63c1.933,0 3.5,1.567 3.5,3.5v63c0,1.933 -1.567,3.5 -3.5,3.5z" id="box" fill="url(#color-1)"/><path d="M65,1h-61c-1.95033,0 -3.2667,0.63396 -3.9491,1.90189c0.28378,-1.64806 1.72001,-2.90189 3.4491,-2.90189h63c1.72965,0 3.16627,1.25466 3.44938,2.90352c-0.69803,-1.26902 -2.34782,-1.90352 -4.94938,-1.90352z" id="topBoxShadow" fill="#ffffff" opacity="0.383"/><path d="M4,69h61c2.66667,0 4.33333,-1 5,-3v0.5c0,1.933 -1.567,3.5 -3.5,3.5h-63c-1.933,0 -3.5,-1.567 -3.5,-3.5c0,-0.1611 0,-0.32777 0,-0.5c0.66667,2 2,3 4,3z" id="bottomBoxShadow" fill="#000000" opacity="0.383"/><path d="M15.94642,38.53032l15.18682,15.18682l-1.09831,1.09831c-0.6856,0.68224 -1.79363,0.68224 -2.47886,0l-15.04439,-15.04439c-0.68224,-0.6856 -0.68224,-1.79363 0,-2.47886l17.38083,-17.38083c0.68,-0.68 2.02803,-1.23812 2.99064,-1.23812h2.92073zM58,20.42501v14.01861c0,0.96261 -0.55588,2.3084 -1.2385,2.99064l-17.38083,17.38083c-0.6856,0.68224 -1.79363,0.68224 -2.47886,0l-15.04439,-15.04439c-0.68224,-0.6856 -0.68224,-1.79363 0,-2.47886l17.38083,-17.38083c0.68,-0.68 2.02803,-1.23812 2.99064,-1.23812h14.01861c0.96672,0.00262 1.7499,0.78579 1.75251,1.75214zM50.99294,29.18682c0.00075,-1.93606 -1.56859,-3.50652 -3.50465,-3.50689c-1.93606,-0.00075 -3.50652,1.56859 -3.50689,3.50465c-0.00075,1.93606 1.56859,3.50652 3.50465,3.50689c1.93606,0.00075 3.50652,-1.56859 3.50689,-3.50465z" id="shadow" fill="#000000" opacity="0.3"/><path d="M29.89251,17.91137c0.68,-0.68 2.02803,-1.23812 2.99064,-1.23812h2.92073l-19.85726,19.85726l2.33606,2.33606l20.95557,-20.95557c0.68,-0.68 2.02803,-1.23812 2.99064,-1.23812h14.01861c0.96672,0.00262 1.7499,0.78579 1.75251,1.75214v14.01861c0,0.96238 -0.55562,2.30776 -1.23801,2.99015l-34.56623,34.56623h-18.69575c-1.933,0 -3.5,-1.567 -3.5,-3.5l0,-18.69613z" id="flatShadow" fill="#000000" opacity="0.324"/><path d="M15.94642,36.53032l15.18682,15.18682l-1.09831,1.09831c-0.6856,0.68224 -1.79363,0.68224 -2.47886,0l-15.04439,-15.04439c-0.68224,-0.6856 -0.68224,-1.79363 0,-2.47886l17.38083,-17.38083c0.68,-0.68 2.02803,-1.23812 2.99064,-1.23812h2.92073zM58,18.42501v14.01861c0,0.96261 -0.55588,2.3084 -1.2385,2.99064l-17.38083,17.38083c-0.6856,0.68224 -1.79363,0.68224 -2.47886,0l-15.04439,-15.04439c-0.68224,-0.6856 -0.68224,-1.79363 0,-2.47886l17.38083,-17.38083c0.68,-0.68 2.02803,-1.23812 2.99064,-1.23812h14.01861c0.96672,0.00262 1.7499,0.78579 1.75251,1.75214zM50.99294,27.18682c0.00075,-1.93606 -1.56859,-3.50652 -3.50465,-3.50689c-1.93606,-0.00075 -3.50652,1.56859 -3.50689,3.50465c-0.00075,1.93606 1.56859,3.50652 3.50465,3.50689c1.93606,0.00075 3.50652,-1.56859 3.50689,-3.50465z" id="icon" fill="#ffffff"/></g></svg>