<svg version="1.1" xmlns="http://www.w3.org/2000/svg" xmlns:xlink="http://www.w3.org/1999/xlink" width="70" height="70" viewBox="0,0,70,70" odoo-icon:version="1.0" xmlns:odoo-icon="https://ivantodorovich.github.io/odoo-icon" odoo-icon:size="70" odoo-icon:icon-size="0.6" odoo-icon:icon-color="#FFFFFF" odoo-icon:icon-flat-shadow-angle="135" odoo-icon:background-color="#a4426b" odoo-icon:background-gradient="0.2" odoo-icon:box-radius="3.5" odoo-icon:odoo-version="14.0"><defs><linearGradient x1="70" y1="0" x2="0" y2="70" gradientUnits="userSpaceOnUse" id="color-1"><stop offset="0" stop-color="#d7759e"/><stop offset="1" stop-color="#a4426b"/></linearGradient></defs><g fill="none" fill-rule="nonzero" stroke="none" stroke-width="1" stroke-linecap="butt" stroke-linejoin="miter" stroke-miterlimit="10" stroke-dasharray="" stroke-dashoffset="0" font-family="none" font-weight="none" font-size="none" text-anchor="none" style="mix-blend-mode: normal"><path d="M3.5,70c-1.933,0 -3.5,-1.567 -3.5,-3.5v-63c0,-1.933 1.567,-3.5 3.5,-3.5h63c1.933,0 3.5,1.567 3.5,3.5v63c0,1.933 -1.567,3.5 -3.5,3.5z" id="box" fill="url(#color-1)"/><path d="M65,1h-61c-1.95033,0 -3.2667,0.63396 -3.9491,1.90189c0.28378,-1.64806 1.72001,-2.90189 3.4491,-2.90189h63c1.72965,0 3.16627,1.25466 3.44938,2.90352c-0.69803,-1.26902 -2.34782,-1.90352 -4.94938,-1.90352z" id="topBoxShadow" fill="#ffffff" opacity="0.383"/><path d="M4,69h61c2.66667,0 4.33333,-1 5,-3v0.5c0,1.933 -1.567,3.5 -3.5,3.5h-63c-1.933,0 -3.5,-1.567 -3.5,-3.5c0,-0.1611 0,-0.32777 0,-0.5c0.66667,2 2,3 4,3z" id="bottomBoxShadow" fill="#000000" opacity="0.383"/><path d="M23.33368,57.99944c-1.2835,0 -2.38221,-0.45751 -3.29668,-1.37198c-0.91447,-0.91447 -1.37142,-2.01261 -1.36974,-3.29444v-30.33311h-2.33349v-4.66642h11.66632v-2.33349h13.99981v2.33349h11.66632v4.66642h-2.33349v30.33311c0,1.2835 -0.45751,2.38221 -1.37198,3.29724c-0.91447,0.91447 -2.01261,1.37142 -3.29444,1.36974zM28.00009,48.66604h4.66642v-20.99972h-4.66642zM37.33349,48.66604h4.66642v-20.99972h-4.66642z" id="shadow" fill="#000000" opacity="0.3"/><path d="M16.33377,16.33349l9.33283,0l2.33349,-2.33349h13.99981v2.33349h11.66632v4.66642l-2.33349,2.33349v27.99962c0,1.2835 -0.45751,2.38221 -1.37198,3.29724c0,0 0,0 0,0l-15.36975,15.36975h-31.09101c-1.933,0 -3.5,-1.567 -3.5,-3.5l0,-33.83274z" id="flatShadow" fill="#000000" opacity="0.324"/><path d="M23.33368,55.99944c-1.2835,0 -2.38221,-0.45751 -3.29668,-1.37198c-0.91447,-0.91447 -1.37142,-2.01261 -1.36974,-3.29444v-30.33311h-2.33349v-4.66642h11.66632v-2.33349h13.99981v2.33349h11.66632v4.66642h-2.33349v30.33311c0,1.2835 -0.45751,2.38221 -1.37198,3.29724c-0.91447,0.91447 -2.01261,1.37142 -3.29444,1.36974zM28.00009,46.66604h4.66642v-20.99972h-4.66642zM37.33349,46.66604h4.66642v-20.99972h-4.66642z" id="icon" fill="#ffffff"/></g></svg>