<svg version="1.1" xmlns="http://www.w3.org/2000/svg" xmlns:xlink="http://www.w3.org/1999/xlink" width="70" height="70" viewBox="0,0,70,70" odoo-icon:version="1.0" xmlns:odoo-icon="https://ivantodorovich.github.io/odoo-icon" odoo-icon:size="70" odoo-icon:icon-size="0.65" odoo-icon:icon-color="#FFFFFF" odoo-icon:icon-flat-shadow-angle="135" odoo-icon:background-color="#1e88e5" odoo-icon:background-gradient="0.2" odoo-icon:box-radius="3.5" odoo-icon:odoo-version="14.0"><defs><linearGradient x1="70" y1="0" x2="0" y2="70" gradientUnits="userSpaceOnUse" id="color-1"><stop offset="0" stop-color="#51bbff"/><stop offset="1" stop-color="#1e88e5"/></linearGradient></defs><g fill="none" fill-rule="nonzero" stroke="none" stroke-width="1" stroke-linecap="butt" stroke-linejoin="miter" stroke-miterlimit="10" stroke-dasharray="" stroke-dashoffset="0" font-family="none" font-weight="none" font-size="none" text-anchor="none" style="mix-blend-mode: normal"><path d="M3.5,70c-1.933,0 -3.5,-1.567 -3.5,-3.5v-63c0,-1.933 1.567,-3.5 3.5,-3.5h63c1.933,0 3.5,1.567 3.5,3.5v63c0,1.933 -1.567,3.5 -3.5,3.5z" id="box" fill="url(#color-1)"/><path d="M65,1h-61c-1.95033,0 -3.2667,0.63396 -3.9491,1.90189c0.28378,-1.64806 1.72001,-2.90189 3.4491,-2.90189h63c1.72965,0 3.16627,1.25466 3.44938,2.90352c-0.69803,-1.26902 -2.34782,-1.90352 -4.94938,-1.90352z" id="topBoxShadow" fill="#ffffff" opacity="0.383"/><path d="M4,69h61c2.66667,0 4.33333,-1 5,-3v0.5c0,1.933 -1.567,3.5 -3.5,3.5h-63c-1.933,0 -3.5,-1.567 -3.5,-3.5c0,-0.1611 0,-0.32777 0,-0.5c0.66667,2 2,3 4,3z" id="bottomBoxShadow" fill="#000000" opacity="0.383"/><path d="M54.71375,23.85715c0,4.22779 -3.43922,7.66649 -7.66649,7.66649c-4.22779,0 -7.66649,-3.43922 -7.66649,-7.66649c0,-4.22779 3.43922,-7.66649 7.66649,-7.66649c4.22779,0 7.66649,3.43922 7.66649,7.66649M50.33298,35.44494c-1.09506,0.28494 -2.19065,0.46 -3.28571,0.46c-6.64871,-0.01209 -12.0357,-5.39908 -12.04779,-12.04779c0,-3.22 1.27065,-6.13351 3.28571,-8.30208c-0.80487,-0.98677 -2.01191,-1.55822 -3.28571,-1.55506c-2.40935,0 -4.38078,1.97143 -4.38078,4.38078v0.63506c-6.50571,1.92779 -10.9522,7.90779 -10.9522,14.69792v13.14285l-4.38078,4.38078v2.19065h39.42856v-2.19065l-4.38078,-4.38078v-11.4122M34.99947,60c2.43143,0 4.38078,-1.94935 4.38078,-4.38078h-8.76208c0,2.41934 1.96144,4.38078 4.38078,4.38078z" id="shadow" fill="#000000" opacity="0.3"/><path d="M52.46586,27.27569l-6.57267,6.57267c0.37982,0.03674 0.76478,0.05587 1.15408,0.05658c1.09506,0 2.19065,-0.17506 3.28571,-0.46l0.00053,-0.00053v11.4122l4.38078,4.38078v2.19065l-18.57195,18.57195h-32.64233c-1.933,0 -3.5,-1.567 -3.5,-3.5l0,-21.48413l24.15791,-24.15791c0.45965,-0.45965 0.94948,-0.8909 1.46703,-1.29043l6.28064,-6.28064c0.79403,-0.79403 1.88922,-1.28688 3.09389,-1.28688c1.27381,-0.00315 2.48085,0.5683 3.28571,1.55506c-2.01506,2.16857 -3.28571,5.08208 -3.28571,8.30208c0.00071,0.38929 0.01984,0.77426 0.05658,1.15408l6.57261,-6.57261c1.38822,-1.38822 3.3049,-2.24795 5.4186,-2.24795c4.22779,0 7.66649,3.43922 7.66649,7.66649c0,2.11383 -0.85975,4.0304 -2.24789,5.41854z" id="flatShadow" fill="#000000" opacity="0.324"/><path d="M54.71375,21.85715c0,4.22779 -3.43922,7.66649 -7.66649,7.66649c-4.22779,0 -7.66649,-3.43922 -7.66649,-7.66649c0,-4.22779 3.43922,-7.66649 7.66649,-7.66649c4.22779,0 7.66649,3.43922 7.66649,7.66649M50.33298,33.44494c-1.09506,0.28494 -2.19065,0.46 -3.28571,0.46c-6.64871,-0.01209 -12.0357,-5.39908 -12.04779,-12.04779c0,-3.22 1.27065,-6.13351 3.28571,-8.30208c-0.80487,-0.98677 -2.01191,-1.55822 -3.28571,-1.55506c-2.40935,0 -4.38078,1.97143 -4.38078,4.38078v0.63506c-6.50571,1.92779 -10.9522,7.90779 -10.9522,14.69792v13.14285l-4.38078,4.38078v2.19065h39.42856v-2.19065l-4.38078,-4.38078v-11.4122M34.99947,58c2.43143,0 4.38078,-1.94935 4.38078,-4.38078h-8.76208c0,2.41934 1.96144,4.38078 4.38078,4.38078z" id="icon" fill="#ffffff"/></g></svg>