<svg version="1.1" xmlns="http://www.w3.org/2000/svg" xmlns:xlink="http://www.w3.org/1999/xlink" width="70" height="70" viewBox="0,0,70,70" odoo-icon:version="1.0" xmlns:odoo-icon="https://ivantodorovich.github.io/odoo-icon" odoo-icon:size="70" odoo-icon:icon-size="0.58" odoo-icon:icon-color="#FFFFFF" odoo-icon:icon-flat-shadow-angle="135" odoo-icon:background-color="#5a9442" odoo-icon:background-gradient="0.2" odoo-icon:box-radius="3.5" odoo-icon:odoo-version="14.0"><defs><linearGradient x1="70" y1="0" x2="0" y2="70" gradientUnits="userSpaceOnUse" id="color-1"><stop offset="0" stop-color="#8dc775"/><stop offset="1" stop-color="#5a9442"/></linearGradient></defs><g fill="none" fill-rule="nonzero" stroke="none" stroke-width="1" stroke-linecap="butt" stroke-linejoin="miter" stroke-miterlimit="10" stroke-dasharray="" stroke-dashoffset="0" font-family="none" font-weight="none" font-size="none" text-anchor="none" style="mix-blend-mode: normal"><path d="M3.5,70c-1.933,0 -3.5,-1.567 -3.5,-3.5v-63c0,-1.933 1.567,-3.5 3.5,-3.5h63c1.933,0 3.5,1.567 3.5,3.5v63c0,1.933 -1.567,3.5 -3.5,3.5z" id="box" fill="url(#color-1)"/><path d="M65,1h-61c-1.95033,0 -3.2667,0.63396 -3.9491,1.90189c0.28378,-1.64806 1.72001,-2.90189 3.4491,-2.90189h63c1.72965,0 3.16627,1.25466 3.44938,2.90352c-0.69803,-1.26902 -2.34782,-1.90352 -4.94938,-1.90352z" id="topBoxShadow" fill="#ffffff" opacity="0.383"/><path d="M4,69h61c2.66667,0 4.33333,-1 5,-3v0.5c0,1.933 -1.567,3.5 -3.5,3.5h-63c-1.933,0 -3.5,-1.567 -3.5,-3.5c0,-0.1611 0,-0.32777 0,-0.5c0.66667,2 2,3 4,3z" id="bottomBoxShadow" fill="#000000" opacity="0.383"/><path d="M52.34843,48.09702l-16.60932,9.40298v-7.32952l10.34756,-5.68722l6.26175,3.61327M53.47779,47.07064v-19.66875l-6.07698,3.46988v12.68808l6.07698,3.51078M17.65157,48.09702l16.60932,9.38278v-7.30883l-10.34756,-5.68722l-6.26175,3.61327M16.52221,47.07064v-19.66875l6.07698,3.46988v12.68808l-6.07698,3.51078M17.24063,26.12915l17.02026,-9.62915v7.08315l-10.9019,5.99518l-0.10249,0.0409l-6.01538,-3.49009M52.75937,26.12915l-17.02026,-9.62915v7.08315l10.9019,6.01538l0.08229,0.0409l6.03608,-3.51078M34.26089,48.50797l-10.20368,-5.62562v-11.10737l10.20368,5.8922v10.8403M35.73911,48.50797l10.20368,-5.60493v-11.12757l-10.20368,5.8922v10.8403M24.73473,30.48153l10.26527,-5.64583l10.26527,5.64583l-10.26527,5.91289z" id="shadow" fill="#000000" opacity="0.3"/><path d="M17.24063,24.12915l17.02026,-9.62915l0,1.47822l1.47822,-1.47822l17.01983,9.6289l0.00043,-0.00025l-0.00031,0.00031l0.00031,0.00018l-3.92287,3.92287l4.64129,-2.65012v19.66875l-24.92936,24.92936h-25.04843c-1.933,0 -3.5,-1.567 -3.5,-3.5l0,-25.13023z" id="flatShadow" fill="#000000" opacity="0.324"/><path d="M52.34843,46.09702l-16.60932,9.40298v-7.32952l10.34756,-5.68722l6.26175,3.61327M53.47779,45.07064v-19.66875l-6.07698,3.46988v12.68808l6.07698,3.51078M17.65157,46.09702l16.60932,9.38278v-7.30883l-10.34756,-5.68722l-6.26175,3.61327M16.52221,45.07064v-19.66875l6.07698,3.46988v12.68808l-6.07698,3.51078M17.24063,24.12915l17.02026,-9.62915v7.08315l-10.9019,5.99518l-0.10249,0.0409l-6.01538,-3.49009M52.75937,24.12915l-17.02026,-9.62915v7.08315l10.9019,6.01538l0.08229,0.0409l6.03608,-3.51078M34.26089,46.50797l-10.20368,-5.62562v-11.10737l10.20368,5.8922v10.8403M35.73911,46.50797l10.20368,-5.60493v-11.12757l-10.20368,5.8922v10.8403M24.73473,28.48153l10.26527,-5.64583l10.26527,5.64583l-10.26527,5.91289z" id="icon" fill="#ffffff"/></g></svg>