<svg version="1.1" xmlns="http://www.w3.org/2000/svg" xmlns:xlink="http://www.w3.org/1999/xlink" width="70" height="70" viewBox="0,0,70,70" odoo-icon:version="1.0" xmlns:odoo-icon="https://ivantodorovich.github.io/odoo-icon" odoo-icon:size="70" odoo-icon:icon-size="0.58" odoo-icon:icon-color="#FFFFFF" odoo-icon:icon-flat-shadow-angle="135" odoo-icon:background-color="#1e88e5" odoo-icon:background-gradient="0.2" odoo-icon:box-radius="3.5" odoo-icon:odoo-version="14.0"><defs><linearGradient x1="70" y1="0" x2="0" y2="70" gradientUnits="userSpaceOnUse" id="color-1"><stop offset="0" stop-color="#51bbff"/><stop offset="1" stop-color="#1e88e5"/></linearGradient></defs><g fill="none" fill-rule="nonzero" stroke="none" stroke-width="1" stroke-linecap="butt" stroke-linejoin="miter" stroke-miterlimit="10" stroke-dasharray="" stroke-dashoffset="0" font-family="none" font-weight="none" font-size="none" text-anchor="none" style="mix-blend-mode: normal"><path d="M3.5,70c-1.933,0 -3.5,-1.567 -3.5,-3.5v-63c0,-1.933 1.567,-3.5 3.5,-3.5h63c1.933,0 3.5,1.567 3.5,3.5v63c0,1.933 -1.567,3.5 -3.5,3.5z" id="box" fill="url(#color-1)"/><path d="M65,1h-61c-1.95033,0 -3.2667,0.63396 -3.9491,1.90189c0.28378,-1.64806 1.72001,-2.90189 3.4491,-2.90189h63c1.72965,0 3.16627,1.25466 3.44938,2.90352c-0.69803,-1.26902 -2.34782,-1.90352 -4.94938,-1.90352z" id="topBoxShadow" fill="#ffffff" opacity="0.383"/><path d="M4,69h61c2.66667,0 4.33333,-1 5,-3v0.5c0,1.933 -1.567,3.5 -3.5,3.5h-63c-1.933,0 -3.5,-1.567 -3.5,-3.5c0,-0.1611 0,-0.32777 0,-0.5c0.66667,2 2,3 4,3z" id="bottomBoxShadow" fill="#000000" opacity="0.383"/><path d="M14.5,16.5v7.45467h1.86378v26.09067h-1.86378v7.45467h7.45467v-1.86378h26.09067v1.86378h7.45467v-7.45467h-1.86378v-26.09067h1.86378v-7.45467h-7.45467v1.86378h-26.09067v-1.86378M21.95422,22.09089h26.09067v1.86378h1.86378v26.09067h-1.86378v1.86378h-26.09067v-1.86378h-1.86378v-26.09067h1.86378M23.818,25.818v14.90889h5.59089v7.45467h16.77267v-16.77267h-7.45467v-5.59089M27.54511,29.54511h7.45467v7.45467h-7.45467M38.72689,35.136h3.72711v9.318h-9.318v-3.72711h5.59089z" id="shadow" fill="#000000" opacity="0.3"/><path d="M14.5,14.5l0,7.45467l7.45467,-7.45467v1.86378l24.22689,0l1.86378,-1.86378h7.45467v7.45467l-1.86378,1.86378l0,24.22689h1.86378v7.45467l-14.5,14.5h-37.5c-1.933,0 -3.5,-1.567 -3.5,-3.5l0,-37.5z" id="flatShadow" fill="#000000" opacity="0.324"/><path d="M14.5,14.5v7.45467h1.86378v26.09067h-1.86378v7.45467h7.45467v-1.86378h26.09067v1.86378h7.45467v-7.45467h-1.86378v-26.09067h1.86378v-7.45467h-7.45467v1.86378h-26.09067v-1.86378M21.95422,20.09089h26.09067v1.86378h1.86378v26.09067h-1.86378v1.86378h-26.09067v-1.86378h-1.86378v-26.09067h1.86378M23.818,23.818v14.90889h5.59089v7.45467h16.77267v-16.77267h-7.45467v-5.59089M27.54511,27.54511h7.45467v7.45467h-7.45467M38.72689,33.136h3.72711v9.318h-9.318v-3.72711h5.59089z" id="icon" fill="#ffffff"/></g></svg>