<svg version="1.1" xmlns="http://www.w3.org/2000/svg" xmlns:xlink="http://www.w3.org/1999/xlink" width="70" height="70" viewBox="0,0,70,70"><!-- Generated with https://ivantodorovich.github.io/odoo-icon --><defs><linearGradient x1="70" y1="0" x2="0" y2="70" gradientUnits="userSpaceOnUse" id="color-1"><stop offset="0" stop-color="#9168e4"/><stop offset="1" stop-color="#5e35b1"/></linearGradient></defs><g fill="none" fill-rule="nonzero" stroke="none" stroke-width="1" stroke-linecap="butt" stroke-linejoin="miter" stroke-miterlimit="10" stroke-dasharray="" stroke-dashoffset="0" font-family="none" font-weight="none" font-size="none" text-anchor="none" style="mix-blend-mode: normal"><path d="M3.5,70c-1.933,0 -3.5,-1.567 -3.5,-3.5v-63c0,-1.933 1.567,-3.5 3.5,-3.5h63c1.933,0 3.5,1.567 3.5,3.5v63c0,1.933 -1.567,3.5 -3.5,3.5z" id="box" fill="url(#color-1)"/><path d="M65,1h-61c-1.95033,0 -3.2667,0.63396 -3.9491,1.90189c0.28378,-1.64806 1.72001,-2.90189 3.4491,-2.90189h63c1.72965,0 3.16627,1.25466 3.44938,2.90352c-0.69803,-1.26902 -2.34782,-1.90352 -4.94938,-1.90352z" id="topBoxShadow" fill="#ffffff" opacity="0.383"/><path d="M4,69h61c2.66667,0 4.33333,-1 5,-3v0.5c0,1.933 -1.567,3.5 -3.5,3.5h-63c-1.933,0 -3.5,-1.567 -3.5,-3.5c0,-0.1611 0,-0.32777 0,-0.5c0.66667,2 2,3 4,3z" id="bottomBoxShadow" fill="#000000" opacity="0.383"/><path d="M31.0401,41.50011h2.88012l1.43984,-4.13982h6.5698l1.43984,4.13982h2.78983l-6.12009,-16.19987h-2.88012zM36.17006,35.02016l2.34013,-6.74995h0.18014l2.34013,6.74995zM27.80013,47.79991c-0.99014,0 -1.83771,-0.35294 -2.5436,-1.05839c-0.70545,-0.70545 -1.05796,-1.5526 -1.05666,-2.54144v-21.59983c0,-0.99014 0.35294,-1.83771 1.05839,-2.5436c0.70545,-0.70545 1.5526,-1.05796 2.54144,-1.05666h21.59983c0.99014,0 1.83771,0.35294 2.5436,1.05839c0.70545,0.70545 1.05796,1.5526 1.05666,2.54144v21.59983c0,0.99014 -0.35294,1.83771 -1.05839,2.5436c-0.70545,0.70545 -1.5526,1.05796 -2.54144,1.05666zM20.60048,55c-0.99014,0 -1.83771,-0.35294 -2.5436,-1.05839c-0.70545,-0.70545 -1.05796,-1.5526 -1.05666,-2.54144v-25.19965h3.59983v25.19965h25.19965v3.59983z" id="shadow" fill="#000000" opacity="0.3"/><path d="M25.25826,18.05667c0.70545,-0.70545 1.5526,-1.05796 2.54144,-1.05666h21.59983c0.99014,0 1.83771,0.35294 2.5436,1.05839c0.70545,0.70545 1.05796,1.5526 1.05666,2.54144v21.59983c0,0.99014 -0.35294,1.83771 -1.05839,2.5436l-6.14169,6.14169v2.11505l-17,17h-25.2997c-1.933,0 -3.5,-1.567 -3.5,-3.5l0,-25.29926l17.00022,-17.00022l2.11419,0z" id="flatShadow" fill="#000000" opacity="0.324"/><path d="M31.0401,39.50011h2.88012l1.43984,-4.13982h6.5698l1.43984,4.13982h2.78983l-6.12009,-16.19987h-2.88012zM36.17006,33.02016l2.34013,-6.74995h0.18014l2.34013,6.74995zM27.80013,45.79991c-0.99014,0 -1.83771,-0.35294 -2.5436,-1.05839c-0.70545,-0.70545 -1.05796,-1.5526 -1.05666,-2.54144v-21.59983c0,-0.99014 0.35294,-1.83771 1.05839,-2.5436c0.70545,-0.70545 1.5526,-1.05796 2.54144,-1.05666h21.59983c0.99014,0 1.83771,0.35294 2.5436,1.05839c0.70545,0.70545 1.05796,1.5526 1.05666,2.54144v21.59983c0,0.99014 -0.35294,1.83771 -1.05839,2.5436c-0.70545,0.70545 -1.5526,1.05796 -2.54144,1.05666zM20.60048,53c-0.99014,0 -1.83771,-0.35294 -2.5436,-1.05839c-0.70545,-0.70545 -1.05796,-1.5526 -1.05666,-2.54144v-25.19965h3.59983v25.19965h25.19965v3.59983z" id="icon" fill="#ffffff"/></g></svg>