<svg version="1.1" xmlns="http://www.w3.org/2000/svg" xmlns:xlink="http://www.w3.org/1999/xlink" width="70" height="70" viewBox="0,0,70,70" odoo-icon:version="1.0" xmlns:odoo-icon="https://ivantodorovich.github.io/odoo-icon" odoo-icon:size="70" odoo-icon:icon-size="0.58" odoo-icon:icon-color="#FFFFFF" odoo-icon:icon-flat-shadow-angle="135" odoo-icon:background-color="#1e88e5" odoo-icon:background-gradient="0.2" odoo-icon:box-radius="3.5" odoo-icon:odoo-version="14.0"><defs><linearGradient x1="70" y1="0" x2="0" y2="70" gradientUnits="userSpaceOnUse" id="color-1"><stop offset="0" stop-color="#51bbff"/><stop offset="1" stop-color="#1e88e5"/></linearGradient></defs><g fill="none" fill-rule="nonzero" stroke="none" stroke-width="1" stroke-linecap="butt" stroke-linejoin="miter" stroke-miterlimit="10" stroke-dasharray="" stroke-dashoffset="0" font-family="none" font-weight="none" font-size="none" text-anchor="none" style="mix-blend-mode: normal"><path d="M3.5,70c-1.933,0 -3.5,-1.567 -3.5,-3.5v-63c0,-1.933 1.567,-3.5 3.5,-3.5h63c1.933,0 3.5,1.567 3.5,3.5v63c0,1.933 -1.567,3.5 -3.5,3.5z" id="box" fill="url(#color-1)"/><path d="M65,1h-61c-1.95033,0 -3.2667,0.63396 -3.9491,1.90189c0.28378,-1.64806 1.72001,-2.90189 3.4491,-2.90189h63c1.72965,0 3.16627,1.25466 3.44938,2.90352c-0.69803,-1.26902 -2.34782,-1.90352 -4.94938,-1.90352z" id="topBoxShadow" fill="#ffffff" opacity="0.383"/><path d="M4,69h61c2.66667,0 4.33333,-1 5,-3v0.5c0,1.933 -1.567,3.5 -3.5,3.5h-63c-1.933,0 -3.5,-1.567 -3.5,-3.5c0,-0.1611 0,-0.32777 0,-0.5c0.66667,2 2,3 4,3z" id="bottomBoxShadow" fill="#000000" opacity="0.383"/><path d="M20.27197,20.812l-1.93807,1.91716l-3.8339,-3.87654l1.93807,-1.91716zM26.02344,26.62498l-1.93807,1.91798l-3.83431,-3.87572l1.93807,-1.91716zM31.77492,32.43877l-1.93807,1.91716l-3.8339,-3.87572l1.93766,-1.91716zM35.63096,23.26462l4.70843,15.48978l4.49236,1.22713c-0.00533,-0.09799 -0.00984,-0.19598 -0.0082,-0.29438c-0.20582,-1.42885 1.1849,-2.65557 2.37308,-3.23695c1.18859,-0.58138 2.4723,-0.52234 3.83472,-0.20705c1.36243,0.31447 2.5297,0.97006 3.35339,1.86837c0.82369,0.89872 1.32061,2.12872 1.0332,3.37348c-1.2382,5.37878 -10.03474,2.05451 -14.0843,1.35423c1.14144,3.27672 5.1992,12.0056 -0.3198,14.08553c-1.2218,0.3731 -2.48419,-0.03731 -3.43785,-0.79663c-0.95325,-0.75932 -1.68838,-1.87903 -2.09674,-3.21645c-0.40877,-1.33783 -0.42476,-2.67771 -0.05822,-3.84005c0.4305,-1.2956 1.80564,-2.72363 3.35872,-2.6035l-1.59121,-4.39437l-15.77883,-3.62563c-2.25336,-0.52111 -3.76789,-3.05532 -3.39603,-4.66497l18.17568,4.20085l-5.45012,-17.84072c0.19475,-0.05945 0.39729,-0.09143 0.60106,-0.09512c0.26978,-0.00369 0.53833,0.0369 0.79458,0.12054c1.13857,0.3649 3.01555,1.52356 3.49607,3.09591zM49.1593,38.44772c-0.41369,0.02296 -0.78679,0.10455 -1.0906,0.22386c-0.60721,0.23862 -0.8815,0.56293 -0.95776,0.89298c-0.07667,0.33046 0.02829,0.74169 0.46945,1.22262c0.44075,0.48134 1.20089,0.94382 2.13241,1.15907c0.93111,0.21566 1.81712,0.13448 2.42433,-0.10414c0.60762,-0.23903 0.88068,-0.56334 0.95694,-0.89339c0.07667,-0.33046 -0.02665,-0.74333 -0.4674,-1.22467c-0.44116,-0.48134 -1.20171,-0.94259 -2.13282,-1.15784c-0.43706,-0.10209 -0.88642,-0.14186 -1.33455,-0.11849zM38.78304,48.73132c-0.09266,0.00041 -0.17958,0.01435 -0.26076,0.03895c-0.32431,0.09922 -0.62853,0.39483 -0.82492,1.0168c-0.19598,0.6232 -0.21566,1.5129 0.06314,2.4272c0.27921,0.91389 0.79212,1.64 1.30257,2.04672c0.51045,0.40672 0.92947,0.48134 1.25378,0.38212c0.32431,-0.09881 0.62812,-0.3936 0.82451,-1.01557c0.19598,-0.6232 0.21566,-1.5129 -0.06314,-2.4272c-0.27921,-0.9143 -0.79335,-1.63918 -1.3038,-2.0459c-0.28741,-0.22878 -0.5453,-0.35301 -0.77367,-0.40016c-0.07626,-0.01558 -0.14801,-0.02337 -0.21771,-0.02296z" id="shadow" fill="#000000" opacity="0.3"/><path d="M14.5,16.85262l1.93807,-1.91716l3.8339,3.87654l-20.27197,20.27197l0,-7.73136zM20.25106,22.66723l1.93807,-1.91716l2.95603,2.98732l5.5941,-5.5941c0.19475,-0.05945 0.39729,-0.09143 0.60106,-0.09512c0.26978,-0.00369 0.53833,0.0369 0.79458,0.12054c1.13857,0.3649 3.01555,1.52356 3.49607,3.09591l4.70843,15.48978l3.2386,0.88465l2.15434,-2.15434c0.43596,-0.43596 0.96781,-0.79157 1.46431,-1.03451c1.18859,-0.58138 2.4723,-0.52234 3.83472,-0.20705c1.36243,0.31447 2.5297,0.97006 3.35339,1.86837c0.82369,0.89872 1.32061,2.12872 1.0332,3.37348c-0.17577,0.76355 -0.50385,1.35172 -0.94905,1.79692l-10.86791,10.86791c-0.19841,0.68542 -0.52954,1.29751 -1.03144,1.79941l-16.05077,16.05077h-23.01879c-1.933,0 -3.5,-1.567 -3.5,-3.5l0,-23.58171z" id="flatShadow" fill="#000000" opacity="0.324"/><path d="M20.27197,18.812l-1.93807,1.91716l-3.8339,-3.87654l1.93807,-1.91716zM26.02344,24.62498l-1.93807,1.91798l-3.83431,-3.87572l1.93807,-1.91716zM31.77492,30.43877l-1.93807,1.91716l-3.8339,-3.87572l1.93766,-1.91716zM35.63096,21.26462l4.70843,15.48978l4.49236,1.22713c-0.00533,-0.09799 -0.00984,-0.19598 -0.0082,-0.29438c-0.20582,-1.42885 1.1849,-2.65557 2.37308,-3.23695c1.18859,-0.58138 2.4723,-0.52234 3.83472,-0.20705c1.36243,0.31447 2.5297,0.97006 3.35339,1.86837c0.82369,0.89872 1.32061,2.12872 1.0332,3.37348c-1.2382,5.37878 -10.03474,2.05451 -14.0843,1.35423c1.14144,3.27672 5.1992,12.0056 -0.3198,14.08553c-1.2218,0.3731 -2.48419,-0.03731 -3.43785,-0.79663c-0.95325,-0.75932 -1.68838,-1.87903 -2.09674,-3.21645c-0.40877,-1.33783 -0.42476,-2.67771 -0.05822,-3.84005c0.4305,-1.2956 1.80564,-2.72363 3.35872,-2.6035l-1.59121,-4.39437l-15.77883,-3.62563c-2.25336,-0.52111 -3.76789,-3.05532 -3.39603,-4.66497l18.17568,4.20085l-5.45012,-17.84072c0.19475,-0.05945 0.39729,-0.09143 0.60106,-0.09512c0.26978,-0.00369 0.53833,0.0369 0.79458,0.12054c1.13857,0.3649 3.01555,1.52356 3.49607,3.09591zM49.1593,36.44772c-0.41369,0.02296 -0.78679,0.10455 -1.0906,0.22386c-0.60721,0.23862 -0.8815,0.56293 -0.95776,0.89298c-0.07667,0.33046 0.02829,0.74169 0.46945,1.22262c0.44075,0.48134 1.20089,0.94382 2.13241,1.15907c0.93111,0.21566 1.81712,0.13448 2.42433,-0.10414c0.60762,-0.23903 0.88068,-0.56334 0.95694,-0.89339c0.07667,-0.33046 -0.02665,-0.74333 -0.4674,-1.22467c-0.44116,-0.48134 -1.20171,-0.94259 -2.13282,-1.15784c-0.43706,-0.10209 -0.88642,-0.14186 -1.33455,-0.11849zM38.78304,46.73132c-0.09266,0.00041 -0.17958,0.01435 -0.26076,0.03895c-0.32431,0.09922 -0.62853,0.39483 -0.82492,1.0168c-0.19598,0.6232 -0.21566,1.5129 0.06314,2.4272c0.27921,0.91389 0.79212,1.64 1.30257,2.04672c0.51045,0.40672 0.92947,0.48134 1.25378,0.38212c0.32431,-0.09881 0.62812,-0.3936 0.82451,-1.01557c0.19598,-0.6232 0.21566,-1.5129 -0.06314,-2.4272c-0.27921,-0.9143 -0.79335,-1.63918 -1.3038,-2.0459c-0.28741,-0.22878 -0.5453,-0.35301 -0.77367,-0.40016c-0.07626,-0.01558 -0.14801,-0.02337 -0.21771,-0.02296z" id="icon" fill="#ffffff"/></g></svg>