<svg version="1.1" xmlns="http://www.w3.org/2000/svg" xmlns:xlink="http://www.w3.org/1999/xlink" width="70" height="70" viewBox="0,0,70,70" odoo-icon:version="1.0" xmlns:odoo-icon="https://ivantodorovich.github.io/odoo-icon" odoo-icon:size="70" odoo-icon:icon-size="0.6" odoo-icon:icon-color="#FFFFFF" odoo-icon:icon-flat-shadow-angle="135" odoo-icon:background-color="#00897b" odoo-icon:background-gradient="0.2" odoo-icon:box-radius="3.5" odoo-icon:odoo-version="14.0"><defs><linearGradient x1="70" y1="0" x2="0" y2="70" gradientUnits="userSpaceOnUse" id="color-1"><stop offset="0" stop-color="#33bcae"/><stop offset="1" stop-color="#00897b"/></linearGradient></defs><g fill="none" fill-rule="nonzero" stroke="none" stroke-width="1" stroke-linecap="butt" stroke-linejoin="miter" stroke-miterlimit="10" stroke-dasharray="" stroke-dashoffset="0" font-family="none" font-weight="none" font-size="none" text-anchor="none" style="mix-blend-mode: normal"><path d="M3.5,70c-1.933,0 -3.5,-1.567 -3.5,-3.5v-63c0,-1.933 1.567,-3.5 3.5,-3.5h63c1.933,0 3.5,1.567 3.5,3.5v63c0,1.933 -1.567,3.5 -3.5,3.5z" id="box" fill="url(#color-1)"/><path d="M65,1h-61c-1.95033,0 -3.2667,0.63396 -3.9491,1.90189c0.28378,-1.64806 1.72001,-2.90189 3.4491,-2.90189h63c1.72965,0 3.16627,1.25466 3.44938,2.90352c-0.69803,-1.26902 -2.34782,-1.90352 -4.94938,-1.90352z" id="topBoxShadow" fill="#ffffff" opacity="0.383"/><path d="M4,69h61c2.66667,0 4.33333,-1 5,-3v0.5c0,1.933 -1.567,3.5 -3.5,3.5h-63c-1.933,0 -3.5,-1.567 -3.5,-3.5c0,-0.1611 0,-0.32777 0,-0.5c0.66667,2 2,3 4,3z" id="bottomBoxShadow" fill="#000000" opacity="0.383"/><path d="M37.45352,16.15893c-0.28657,0 -2.79419,0.45576 -2.79419,0.45576c-0.11646,3.72635 -2.72266,7.02812 -8.08683,7.60127l-1.14629,-2.06607l-2.24764,0.22192l1.01194,5.38114l-10.1905,-0.4388l1.09264,3.71627c10.97823,3.53745 10.47707,13.65688 8.08592,22.70201c4.20917,4.74655 12.69858,4.2807 16.65694,3.85978c0.2774,-5.57004 4.69245,-5.77638 12.17037,-2.8836c1.01194,-1.57638 1.68367,-3.22382 3.99413,-4.54022l-4.17341,-12.49271l-2.46269,0.55526c0.98489,-1.88954 2.8836,-4.46869 4.51362,-5.67779l1.3971,-7.78238c-7.93461,-0.56397 -13.11079,-4.15186 -17.82111,-8.61229z" id="shadow" fill="#000000" opacity="0.3"/><path d="M53.87753,30.55314l-2.16585,2.16585c-0.93305,1.14132 -1.78801,2.43801 -2.34778,3.51195l2.46269,-0.55526l4.17341,12.49271l-3.13605,3.13605c-0.29031,0.46735 -0.55937,0.93886 -0.85808,1.40417l-17.2914,17.2914h-31.21447c-1.933,0 -3.5,-1.567 -3.5,-3.5l0,-27.18585l14,-14l4.06134,0.17488l5.11722,-5.11722l2.24764,-0.22192l1.14629,2.06607c0.18879,-0.02017 0.37415,-0.04372 0.55612,-0.07055l7.53071,-7.53071c0,0 2.50495,-0.45528 2.79373,-0.45576l0.00046,-0.00046c4.71033,4.46044 9.88651,8.04832 17.82111,8.61229z" id="flatShadow" fill="#000000" opacity="0.324"/><path d="M37.45352,14.15893c-0.28657,0 -2.79419,0.45576 -2.79419,0.45576c-0.11646,3.72635 -2.72266,7.02812 -8.08683,7.60127l-1.14629,-2.06607l-2.24764,0.22192l1.01194,5.38114l-10.1905,-0.4388l1.09264,3.71627c10.97823,3.53745 10.47707,13.65688 8.08592,22.70201c4.20917,4.74655 12.69858,4.2807 16.65694,3.85978c0.2774,-5.57004 4.69245,-5.77638 12.17037,-2.8836c1.01194,-1.57638 1.68367,-3.22382 3.99413,-4.54022l-4.17341,-12.49271l-2.46269,0.55526c0.98489,-1.88954 2.8836,-4.46869 4.51362,-5.67779l1.3971,-7.78238c-7.93461,-0.56397 -13.11079,-4.15186 -17.82111,-8.61229z" id="icon" fill="#ffffff"/></g></svg>