<svg version="1.1" xmlns="http://www.w3.org/2000/svg" xmlns:xlink="http://www.w3.org/1999/xlink" width="70" height="70" viewBox="0,0,70,70"><!-- Generated with https://ivantodorovich.github.io/odoo-icon --><defs><linearGradient x1="70" y1="0" x2="0" y2="70" gradientUnits="userSpaceOnUse" id="color-1"><stop offset="0" stop-color="#ffbb5a"/><stop offset="1" stop-color="#d88827"/></linearGradient></defs><g fill="none" fill-rule="nonzero" stroke="none" stroke-width="1" stroke-linecap="butt" stroke-linejoin="miter" stroke-miterlimit="10" stroke-dasharray="" stroke-dashoffset="0" font-family="none" font-weight="none" font-size="none" text-anchor="none" style="mix-blend-mode: normal"><path d="M3.5,70c-1.933,0 -3.5,-1.567 -3.5,-3.5v-63c0,-1.933 1.567,-3.5 3.5,-3.5h63c1.933,0 3.5,1.567 3.5,3.5v63c0,1.933 -1.567,3.5 -3.5,3.5z" id="box" fill="url(#color-1)"/><path d="M65,1h-61c-1.95033,0 -3.2667,0.63396 -3.9491,1.90189c0.28378,-1.64806 1.72001,-2.90189 3.4491,-2.90189h63c1.72965,0 3.16627,1.25466 3.44938,2.90352c-0.69803,-1.26902 -2.34782,-1.90352 -4.94938,-1.90352z" id="topBoxShadow" fill="#ffffff" opacity="0.383"/><path d="M4,69h61c2.66667,0 4.33333,-1 5,-3v0.5c0,1.933 -1.567,3.5 -3.5,3.5h-63c-1.933,0 -3.5,-1.567 -3.5,-3.5c0,-0.1611 0,-0.32777 0,-0.5c0.66667,2 2,3 4,3z" id="bottomBoxShadow" fill="#000000" opacity="0.383"/><path d="M34.99975,18.18189l-22.99975,12.54541l8.36377,4.558v12.54541l14.63648,7.98741l14.63648,-7.98741v-12.54541l4.18164,-2.27925v14.4483h4.18164v-16.72704l-22.99975,-12.54541M49.25986,30.7273l-14.26012,7.77815l-14.26012,-7.77815l14.26012,-7.77815l14.26012,7.77815M45.45409,45.36377l-10.45434,5.68708l-10.45434,-5.68708v-7.79923l10.45434,5.70816l10.45434,-5.70816z" id="shadow" fill="#000000" opacity="0.3"/><path d="M34.99975,16.18189l-10.48781,10.48781l0.0011,-0.0006l10.48721,-10.48721l22.99975,12.54541v16.72704l-24.54566,24.54566h-29.95434c-1.933,0 -3.5,-1.567 -3.5,-3.5l0,-25.7727l12,-12z" id="flatShadow" fill="#000000" opacity="0.324"/><path d="M34.99975,16.18189l-22.99975,12.54541l8.36377,4.558v12.54541l14.63648,7.98741l14.63648,-7.98741v-12.54541l4.18164,-2.27925v14.4483h4.18164v-16.72704l-22.99975,-12.54541M49.25986,28.7273l-14.26012,7.77815l-14.26012,-7.77815l14.26012,-7.77815l14.26012,7.77815M45.45409,43.36377l-10.45434,5.68708l-10.45434,-5.68708v-7.79923l10.45434,5.70816l10.45434,-5.70816z" id="icon" fill="#ffffff"/></g></svg>