<svg version="1.1" xmlns="http://www.w3.org/2000/svg" xmlns:xlink="http://www.w3.org/1999/xlink" width="70" height="70" viewBox="0,0,70,70" odoo-icon:version="1.0" xmlns:odoo-icon="https://ivantodorovich.github.io/odoo-icon" odoo-icon:size="70" odoo-icon:icon-size="0.55" odoo-icon:icon-color="#FFFFFF" odoo-icon:icon-flat-shadow-angle="135" odoo-icon:background-color="#fdd835" odoo-icon:background-gradient="0.2" odoo-icon:box-radius="3.5" odoo-icon:odoo-version="14.0"><defs><linearGradient x1="70" y1="0" x2="0" y2="70" gradientUnits="userSpaceOnUse" id="color-1"><stop offset="0" stop-color="#ffff68"/><stop offset="1" stop-color="#fdd835"/></linearGradient></defs><g fill="none" fill-rule="nonzero" stroke="none" stroke-width="1" stroke-linecap="butt" stroke-linejoin="miter" stroke-miterlimit="10" stroke-dasharray="" stroke-dashoffset="0" font-family="none" font-weight="none" font-size="none" text-anchor="none" style="mix-blend-mode: normal"><path d="M3.5,70c-1.933,0 -3.5,-1.567 -3.5,-3.5v-63c0,-1.933 1.567,-3.5 3.5,-3.5h63c1.933,0 3.5,1.567 3.5,3.5v63c0,1.933 -1.567,3.5 -3.5,3.5z" id="box" fill="url(#color-1)"/><path d="M65,1h-61c-1.95033,0 -3.2667,0.63396 -3.9491,1.90189c0.28378,-1.64806 1.72001,-2.90189 3.4491,-2.90189h63c1.72965,0 3.16627,1.25466 3.44938,2.90352c-0.69803,-1.26902 -2.34782,-1.90352 -4.94938,-1.90352z" id="topBoxShadow" fill="#ffffff" opacity="0.383"/><path d="M4,69h61c2.66667,0 4.33333,-1 5,-3v0.5c0,1.933 -1.567,3.5 -3.5,3.5h-63c-1.933,0 -3.5,-1.567 -3.5,-3.5c0,-0.1611 0,-0.32777 0,-0.5c0.66667,2 2,3 4,3z" id="bottomBoxShadow" fill="#000000" opacity="0.383"/><path d="M18.28729,50.92813h13.26c-0.36861,-0.01961 -0.71448,-0.18497 -0.96096,-0.45953l-11.93667,-13.26c-0.51747,-0.56606 -0.48048,-1.44411 0.08335,-1.96382l14.87571,-13.56621v-4.17857h2.78571v3.06429c0.08469,0.05259 0.16402,0.11321 0.23667,0.18096l11.95049,13.26c0.23355,0.26475 0.35835,0.60795 0.3481,0.96096v8.99808c0,0.7693 -0.62355,1.39286 -1.39286,1.39286c-0.7693,0 -1.39286,-0.62355 -1.39286,-1.39286v-5.85l-13.58047,12.45192c-0.25406,0.23088 -0.58389,0.35969 -0.92664,0.36237h20.07854v5.57143h-33.42857zM45.57347,34.85478l-9.17904,-10.20953v6.78333h-2.78571v-6.03096l-11.95049,10.9619l10.07047,11.14286z" id="shadow" fill="#000000" opacity="0.3"/><path d="M33.60872,15.5h2.78571v3.06429c0.08469,0.05259 0.16402,0.11321 0.23667,0.18096l11.95049,13.26c0.23355,0.26475 0.35835,0.60795 0.3481,0.96096v8.99808c0,0.38465 -0.15589,0.73287 -0.40794,0.98492l-5.97937,5.97937h9.17302v5.57143l-15.5,15.5h-32.71541c-1.933,0 -3.5,-1.567 -3.5,-3.5l0,-17.39128z" id="flatShadow" fill="#000000" opacity="0.324"/><path d="M18.28729,48.92813h13.26c-0.36861,-0.01961 -0.71448,-0.18497 -0.96096,-0.45953l-11.93667,-13.26c-0.51747,-0.56606 -0.48048,-1.44411 0.08335,-1.96382l14.87571,-13.56621v-4.17857h2.78571v3.06429c0.08469,0.05259 0.16402,0.11321 0.23667,0.18096l11.95049,13.26c0.23355,0.26475 0.35835,0.60795 0.3481,0.96096v8.99808c0,0.7693 -0.62355,1.39286 -1.39286,1.39286c-0.7693,0 -1.39286,-0.62355 -1.39286,-1.39286v-5.85l-13.58047,12.45192c-0.25406,0.23088 -0.58389,0.35969 -0.92664,0.36237h20.07854v5.57143h-33.42857zM45.57347,32.85478l-9.17904,-10.20953v6.78333h-2.78571v-6.03096l-11.95049,10.9619l10.07047,11.14286z" id="icon" fill="#ffffff"/></g></svg>