<svg version="1.1" xmlns="http://www.w3.org/2000/svg" xmlns:xlink="http://www.w3.org/1999/xlink" width="70" height="70" viewBox="0,0,70,70" odoo-icon:version="1.0" xmlns:odoo-icon="https://ivantodorovich.github.io/odoo-icon" odoo-icon:size="70" odoo-icon:icon-size="0.58" odoo-icon:icon-color="#FFFFFF" odoo-icon:icon-flat-shadow-angle="135" odoo-icon:background-color="#1e88e5" odoo-icon:background-gradient="0.2" odoo-icon:box-radius="3.5" odoo-icon:odoo-version="14.0"><defs><linearGradient x1="70" y1="0" x2="0" y2="70" gradientUnits="userSpaceOnUse" id="color-1"><stop offset="0" stop-color="#51bbff"/><stop offset="1" stop-color="#1e88e5"/></linearGradient></defs><g fill="none" fill-rule="nonzero" stroke="none" stroke-width="1" stroke-linecap="butt" stroke-linejoin="miter" stroke-miterlimit="10" stroke-dasharray="" stroke-dashoffset="0" font-family="none" font-weight="none" font-size="none" text-anchor="none" style="mix-blend-mode: normal"><path d="M3.5,70c-1.933,0 -3.5,-1.567 -3.5,-3.5v-63c0,-1.933 1.567,-3.5 3.5,-3.5h63c1.933,0 3.5,1.567 3.5,3.5v63c0,1.933 -1.567,3.5 -3.5,3.5z" id="box" fill="url(#color-1)"/><path d="M65,1h-61c-1.95033,0 -3.2667,0.63396 -3.9491,1.90189c0.28378,-1.64806 1.72001,-2.90189 3.4491,-2.90189h63c1.72965,0 3.16627,1.25466 3.44938,2.90352c-0.69803,-1.26902 -2.34782,-1.90352 -4.94938,-1.90352z" id="topBoxShadow" fill="#ffffff" opacity="0.383"/><path d="M4,69h61c2.66667,0 4.33333,-1 5,-3v0.5c0,1.933 -1.567,3.5 -3.5,3.5h-63c-1.933,0 -3.5,-1.567 -3.5,-3.5c0,-0.1611 0,-0.32777 0,-0.5c0.66667,2 2,3 4,3z" id="bottomBoxShadow" fill="#000000" opacity="0.383"/><path d="M30.75841,29.02986c-1.06068,-3.83755 -1.58971,-5.7579 -0.68858,-7.26888c0.89903,-1.51308 2.87764,-2.02689 6.8359,-3.05713l4.19863,-1.08902c3.95826,-1.02761 5.93739,-1.54405 7.49613,-0.67126c1.55927,0.87489 2.09039,2.79261 3.14897,6.63279l1.12628,4.07162c1.06068,3.83807 1.59181,5.7579 0.6912,7.27098c-0.90113,1.51098 -2.88026,2.02741 -6.838,3.05503l-4.19863,1.09112c-3.95826,1.02761 -5.93686,1.54142 -7.49613,0.66916c-1.55927,-0.87489 -2.08829,-2.79261 -3.14897,-6.63016zM23.12898,25.84783l1.58341,-0.43718l-1.58078,0.43718zM15.96034,23.43151c-0.57154,-0.15115 -1.01712,-0.59778 -1.16722,-1.16932c-0.1501,-0.57154 0.01942,-1.17982 0.44296,-1.59181c0.42354,-0.41199 1.03601,-0.56419 1.60335,-0.39887zM53.99101,44.326v0.00052l-18.41625,4.78696c0.20731,3.70949 -2.28353,7.13925 -6.05128,8.117c-4.30517,1.11946 -8.79613,-1.34409 -9.97752,-5.61777h-0.00052c-1.18769,-4.2973 1.4564,-8.64656 5.77942,-9.76812l0.82451,3.17102c-2.63307,0.68438 -4.11991,3.27126 -3.44183,5.72064c0.68228,2.47089 3.34159,4.01074 5.99197,3.32164c2.63307,-0.68438 4.11991,-3.27126 3.44183,-5.72064c-0.68228,-2.47089 -3.34159,-4.01074 -5.99197,-3.32164l-0.82451,-3.17312c0.16375,-0.04251 0.32802,-0.07977 0.49229,-0.11231l-4.26633,-15.44467l3.16209,-0.87489l4.5172,16.35997c2.32919,0.51696 4.37182,2.01902 5.48341,4.17921l18.44984,-4.79589v-0.00052c0.57311,-0.16637 1.19136,-0.0084 1.61437,0.41252c0.42301,0.42091 0.58361,1.03864 0.41986,1.61227c-0.16375,0.57311 -0.62507,1.01239 -1.20553,1.14728zM19.68872,24.46595l-3.72629,-1.03444l0.87909,-3.15999l3.72419,1.03234zM24.71186,25.41064c0,-0.00052 -0.00052,-0.00157 -0.00052,-0.0021h0.00052zM24.71133,25.40855l-3.16157,0.87436c-0.23617,-0.85495 -0.92947,-1.55927 -1.85894,-1.81748l0.87489,-3.16209c2.00695,0.5453 3.58091,2.10351 4.14562,4.10469z" id="shadow" fill="#000000" opacity="0.3"/><path d="M30.5543,19.13843c1.05756,-1.05756 2.99114,-1.55998 6.35143,-2.43458l4.19863,-1.08902c3.95826,-1.02761 5.93739,-1.54405 7.49613,-0.67126c1.55927,0.87489 2.09039,2.79261 3.14897,6.63279l1.12628,4.07162c1.06068,3.83807 1.59181,5.7579 0.6912,7.27098c-0.13556,0.2273 -0.29551,0.43209 -0.48292,0.6195l-7.61574,7.61574l7.69436,-2.00009l0.00071,-0.00071c0.57311,-0.16637 1.19136,-0.0084 1.61437,0.41252c0.42301,0.42091 0.58361,1.03864 0.41986,1.61227c-0.07803,0.2731 -0.22363,0.51581 -0.4175,0.70968l-28.11212,28.11212h-23.16798c-1.933,0 -3.5,-1.567 -3.5,-3.5l0,-32.59376l15.21987,-15.21987c0.00536,-0.00536 0.01076,-0.01069 0.0162,-0.01598c0.42354,-0.41199 1.03601,-0.56419 1.60335,-0.39887l-0.00081,0.00291l0.00291,-0.00291l3.72377,1.03222l0.00041,-0.00041c2.00695,0.5453 3.58091,2.10351 4.14562,4.10469v0.00052h0.00052v0.0021l-0.0002,0.0002l0.00073,-0.0002l-0.0002,0.0002l0.00073,-0.0002l0.33952,1.22966z" id="flatShadow" fill="#000000" opacity="0.324"/><path d="M30.75841,27.02986c-1.06068,-3.83755 -1.58971,-5.7579 -0.68858,-7.26888c0.89903,-1.51308 2.87764,-2.02689 6.8359,-3.05713l4.19863,-1.08902c3.95826,-1.02761 5.93739,-1.54405 7.49613,-0.67126c1.55927,0.87489 2.09039,2.79261 3.14897,6.63279l1.12628,4.07162c1.06068,3.83807 1.59181,5.7579 0.6912,7.27098c-0.90113,1.51098 -2.88026,2.02741 -6.838,3.05503l-4.19863,1.09112c-3.95826,1.02761 -5.93686,1.54142 -7.49613,0.66916c-1.55927,-0.87489 -2.08829,-2.79261 -3.14897,-6.63016zM23.12898,23.84783l1.58341,-0.43718l-1.58078,0.43718zM15.96034,21.43151c-0.57154,-0.15115 -1.01712,-0.59778 -1.16722,-1.16932c-0.1501,-0.57154 0.01942,-1.17982 0.44296,-1.59181c0.42354,-0.41199 1.03601,-0.56419 1.60335,-0.39887zM53.99101,42.326v0.00052l-18.41625,4.78696c0.20731,3.70949 -2.28353,7.13925 -6.05128,8.117c-4.30517,1.11946 -8.79613,-1.34409 -9.97752,-5.61777h-0.00052c-1.18769,-4.2973 1.4564,-8.64656 5.77942,-9.76812l0.82451,3.17102c-2.63307,0.68438 -4.11991,3.27126 -3.44183,5.72064c0.68228,2.47089 3.34159,4.01074 5.99197,3.32164c2.63307,-0.68438 4.11991,-3.27126 3.44183,-5.72064c-0.68228,-2.47089 -3.34159,-4.01074 -5.99197,-3.32164l-0.82451,-3.17312c0.16375,-0.04251 0.32802,-0.07977 0.49229,-0.11231l-4.26633,-15.44467l3.16209,-0.87489l4.5172,16.35997c2.32919,0.51696 4.37182,2.01902 5.48341,4.17921l18.44984,-4.79589v-0.00052c0.57311,-0.16637 1.19136,-0.0084 1.61437,0.41252c0.42301,0.42091 0.58361,1.03864 0.41986,1.61227c-0.16375,0.57311 -0.62507,1.01239 -1.20553,1.14728zM19.68872,22.46595l-3.72629,-1.03444l0.87909,-3.15999l3.72419,1.03234zM24.71186,23.41064c0,-0.00052 -0.00052,-0.00157 -0.00052,-0.0021h0.00052zM24.71133,23.40855l-3.16157,0.87436c-0.23617,-0.85495 -0.92947,-1.55927 -1.85894,-1.81748l0.87489,-3.16209c2.00695,0.5453 3.58091,2.10351 4.14562,4.10469z" id="icon" fill="#ffffff"/></g></svg>