<svg version="1.1" xmlns="http://www.w3.org/2000/svg" xmlns:xlink="http://www.w3.org/1999/xlink" width="70" height="70" viewBox="0,0,70,70" odoo-icon:version="1.0" xmlns:odoo-icon="https://ivantodorovich.github.io/odoo-icon" odoo-icon:size="70" odoo-icon:icon-size="0.55" odoo-icon:icon-color="#FFFFFF" odoo-icon:icon-flat-shadow-angle="135" odoo-icon:background-color="#cb6482" odoo-icon:background-gradient="0.2" odoo-icon:box-radius="3.5" odoo-icon:odoo-version="14.0"><defs><linearGradient x1="70" y1="0" x2="0" y2="70" gradientUnits="userSpaceOnUse" id="color-1"><stop offset="0" stop-color="#fe97b5"/><stop offset="1" stop-color="#cb6482"/></linearGradient></defs><g fill="none" fill-rule="nonzero" stroke="none" stroke-width="1" stroke-linecap="butt" stroke-linejoin="miter" stroke-miterlimit="10" stroke-dasharray="" stroke-dashoffset="0" font-family="none" font-weight="none" font-size="none" text-anchor="none" style="mix-blend-mode: normal"><path d="M3.5,70c-1.933,0 -3.5,-1.567 -3.5,-3.5v-63c0,-1.933 1.567,-3.5 3.5,-3.5h63c1.933,0 3.5,1.567 3.5,3.5v63c0,1.933 -1.567,3.5 -3.5,3.5z" id="box" fill="url(#color-1)"/><path d="M65,1h-61c-1.95033,0 -3.2667,0.63396 -3.9491,1.90189c0.28378,-1.64806 1.72001,-2.90189 3.4491,-2.90189h63c1.72965,0 3.16627,1.25466 3.44938,2.90352c-0.69803,-1.26902 -2.34782,-1.90352 -4.94938,-1.90352z" id="topBoxShadow" fill="#ffffff" opacity="0.383"/><path d="M4,69h61c2.66667,0 4.33333,-1 5,-3v0.5c0,1.933 -1.567,3.5 -3.5,3.5h-63c-1.933,0 -3.5,-1.567 -3.5,-3.5c0,-0.1611 0,-0.32777 0,-0.5c0.66667,2 2,3 4,3z" id="bottomBoxShadow" fill="#000000" opacity="0.383"/><path d="M15.5,22.00754v31.35678h9.79899v-31.35678zM23.3392,45.52513h-5.8794v-1.9598h5.8794zM23.3392,39.64573h-5.8794v-1.9598h5.8794zM27.25879,22.00754v31.35678h9.79899v-31.35678zM35.09799,45.52513h-5.8794v-1.9598h5.8794zM35.09799,39.64573h-5.8794v-1.9598h5.8794zM37.05779,22.98744l8.03518,30.1809l9.40704,-2.54774l-7.8392,-29.98492zM50.77638,43.76131l-5.68342,1.56784l-0.58794,-1.9598l5.68342,-1.56784zM49.20854,38.07789l-5.68342,1.56784l-0.39196,-1.9598l5.68342,-1.56784z" id="shadow" fill="#000000" opacity="0.3"/><path d="M15.5,20.00754l9.79899,0l0,1.9598l1.9598,-1.9598l9.79899,0v0.9799l9.60302,-2.35176l7.8392,29.98492l-21.3794,21.3794h-29.6206c-1.933,0 -3.5,-1.567 -3.5,-3.5l0,-30.99246z" id="flatShadow" fill="#000000" opacity="0.324"/><path d="M15.5,20.00754v31.35678h9.79899v-31.35678zM23.3392,43.52513h-5.8794v-1.9598h5.8794zM23.3392,37.64573h-5.8794v-1.9598h5.8794zM27.25879,20.00754v31.35678h9.79899v-31.35678zM35.09799,43.52513h-5.8794v-1.9598h5.8794zM35.09799,37.64573h-5.8794v-1.9598h5.8794zM37.05779,20.98744l8.03518,30.1809l9.40704,-2.54774l-7.8392,-29.98492zM50.77638,41.76131l-5.68342,1.56784l-0.58794,-1.9598l5.68342,-1.56784zM49.20854,36.07789l-5.68342,1.56784l-0.39196,-1.9598l5.68342,-1.56784z" id="icon" fill="#ffffff"/></g></svg>