<svg version="1.1" xmlns="http://www.w3.org/2000/svg" xmlns:xlink="http://www.w3.org/1999/xlink" width="70" height="70" viewBox="0,0,70,70" odoo-icon:version="1.0" xmlns:odoo-icon="https://ivantodorovich.github.io/odoo-icon" odoo-icon:size="70" odoo-icon:icon-size="0.64" odoo-icon:icon-color="#FFFFFF" odoo-icon:icon-flat-shadow-angle="135" odoo-icon:background-color="#5a9442" odoo-icon:background-gradient="0.2" odoo-icon:box-radius="3.5" odoo-icon:odoo-version="14.0"><defs><linearGradient x1="70" y1="0" x2="0" y2="70" gradientUnits="userSpaceOnUse" id="color-1"><stop offset="0" stop-color="#8dc775"/><stop offset="1" stop-color="#5a9442"/></linearGradient></defs><g fill="none" fill-rule="nonzero" stroke="none" stroke-width="1" stroke-linecap="butt" stroke-linejoin="miter" stroke-miterlimit="10" stroke-dasharray="" stroke-dashoffset="0" font-family="none" font-weight="none" font-size="none" text-anchor="none" style="mix-blend-mode: normal"><path d="M3.5,70c-1.933,0 -3.5,-1.567 -3.5,-3.5v-63c0,-1.933 1.567,-3.5 3.5,-3.5h63c1.933,0 3.5,1.567 3.5,3.5v63c0,1.933 -1.567,3.5 -3.5,3.5z" id="box" fill="url(#color-1)"/><path d="M65,1h-61c-1.95033,0 -3.2667,0.63396 -3.9491,1.90189c0.28378,-1.64806 1.72001,-2.90189 3.4491,-2.90189h63c1.72965,0 3.16627,1.25466 3.44938,2.90352c-0.69803,-1.26902 -2.34782,-1.90352 -4.94938,-1.90352z" id="topBoxShadow" fill="#ffffff" opacity="0.383"/><path d="M4,69h61c2.66667,0 4.33333,-1 5,-3v0.5c0,1.933 -1.567,3.5 -3.5,3.5h-63c-1.933,0 -3.5,-1.567 -3.5,-3.5c0,-0.1611 0,-0.32777 0,-0.5c0.66667,2 2,3 4,3z" id="bottomBoxShadow" fill="#000000" opacity="0.383"/><path d="M52.30769,17.96154h-5.19231v-1.73077c0,-0.95594 -0.77483,-1.73077 -1.73077,-1.73077c-0.95594,0 -1.73077,0.77483 -1.73077,1.73077v1.73077h-17.30769v-1.73077c0,-0.95594 -0.77483,-1.73077 -1.73077,-1.73077c-0.95594,0 -1.73077,0.77483 -1.73077,1.73077v1.73077h-5.19231c-1.91188,0 -3.46154,1.54966 -3.46154,3.46154v34.61538c0,1.91188 1.54966,3.46154 3.46154,3.46154h34.61538c1.91188,0 3.46154,-1.54966 3.46154,-3.46154v-34.61538c0,-1.91188 -1.54966,-3.46154 -3.46154,-3.46154zM31.53846,50.84615c0,0.95594 -0.77483,1.73077 -1.73077,1.73077c-0.95594,0 -1.73077,-0.77483 -1.73077,-1.73077v-11.04646l-0.95649,0.48018c-0.85569,0.42757 -1.89582,0.08086 -2.32338,-0.77428c-0.42757,-0.85569 -0.08086,-1.89582 0.77428,-2.32338l3.46154,-1.73077c0.53668,-0.26862 1.17415,-0.23982 1.6848,0.07588c0.51065,0.31569 0.8208,0.87342 0.8208,1.47323zM43.65385,49.11538c0.95594,0 1.73077,0.77483 1.73077,1.73077c0,0.95594 -0.77483,1.73077 -1.73077,1.73077h-6.92308c-0.65575,0 -1.25502,-0.37052 -1.548,-0.95649c-0.29298,-0.58652 -0.22985,-1.28825 0.16338,-1.81274l6.22634,-8.30105c0.38603,-0.51397 0.45526,-1.19908 0.18055,-1.77951c-0.27471,-0.58098 -0.84849,-0.96148 -1.49095,-0.98917c-0.64191,-0.02714 -1.24615,0.30295 -1.5696,0.85846c-0.30018,0.55274 -0.87674,0.89945 -1.50591,0.90498c-0.62917,0.00554 -1.21182,-0.3312 -1.52142,-0.87895c-0.3096,-0.54775 -0.29797,-1.22012 0.03102,-1.7568c1.17526,-2.03428 3.57009,-3.02566 5.83975,-2.41754c2.26911,0.60812 3.84757,2.664 3.84812,5.01342c0.00388,1.12874 -0.36443,2.22757 -1.04732,3.12646l-4.14498,5.52738zM17.69231,28.34615v-6.92308h5.19231v1.73077c0,0.95594 0.77483,1.73077 1.73077,1.73077c0.95594,0 1.73077,-0.77483 1.73077,-1.73077v-1.73077h17.30769v1.73077c0,0.95594 0.77483,1.73077 1.73077,1.73077c0.95594,0 1.73077,-0.77483 1.73077,-1.73077v-1.73077h5.19231v6.92308z" id="shadow" fill="#000000" opacity="0.3"/><path d="M14.23077,19.42308c2.08597,-2.08597 3.36359,-3.36359 3.46154,-3.46154l2.74458,0l2.95463,-2.95463c0.3132,-0.3132 0.74589,-0.50691 1.22386,-0.50691c0.95594,0 1.73077,0.77483 1.73077,1.73077v1.73077l14.85997,0l2.95463,-2.95463c0.3132,-0.3132 0.74589,-0.50691 1.22386,-0.50691c0.95594,0 1.73077,0.77483 1.73077,1.73077v1.73077h5.19231c1.91188,0 3.46154,1.54966 3.46154,3.46154v34.61538c0,0.95594 -0.38742,1.82132 -1.01382,2.44772l-13.51382,13.51382h-37.7416c-1.933,0 -3.5,-1.567 -3.5,-3.5v-32.84615c5.76946,-5.76946 10.98105,-10.98105 14.23077,-14.23077z" id="flatShadow" fill="#000000" opacity="0.324"/><path d="M52.30769,15.96154h-5.19231v-1.73077c0,-0.95594 -0.77483,-1.73077 -1.73077,-1.73077c-0.95594,0 -1.73077,0.77483 -1.73077,1.73077v1.73077h-17.30769v-1.73077c0,-0.95594 -0.77483,-1.73077 -1.73077,-1.73077c-0.95594,0 -1.73077,0.77483 -1.73077,1.73077v1.73077h-5.19231c-1.91188,0 -3.46154,1.54966 -3.46154,3.46154v34.61538c0,1.91188 1.54966,3.46154 3.46154,3.46154h34.61538c1.91188,0 3.46154,-1.54966 3.46154,-3.46154v-34.61538c0,-1.91188 -1.54966,-3.46154 -3.46154,-3.46154zM31.53846,48.84615c0,0.95594 -0.77483,1.73077 -1.73077,1.73077c-0.95594,0 -1.73077,-0.77483 -1.73077,-1.73077v-11.04646l-0.95649,0.48018c-0.85569,0.42757 -1.89582,0.08086 -2.32338,-0.77428c-0.42757,-0.85569 -0.08086,-1.89582 0.77428,-2.32338l3.46154,-1.73077c0.53668,-0.26862 1.17415,-0.23982 1.6848,0.07588c0.51065,0.31569 0.8208,0.87342 0.8208,1.47323zM43.65385,47.11538c0.95594,0 1.73077,0.77483 1.73077,1.73077c0,0.95594 -0.77483,1.73077 -1.73077,1.73077h-6.92308c-0.65575,0 -1.25502,-0.37052 -1.548,-0.95649c-0.29298,-0.58652 -0.22985,-1.28825 0.16338,-1.81274l6.22634,-8.30105c0.38603,-0.51397 0.45526,-1.19908 0.18055,-1.77951c-0.27471,-0.58098 -0.84849,-0.96148 -1.49095,-0.98917c-0.64191,-0.02714 -1.24615,0.30295 -1.5696,0.85846c-0.30018,0.55274 -0.87674,0.89945 -1.50591,0.90498c-0.62917,0.00554 -1.21182,-0.3312 -1.52142,-0.87895c-0.3096,-0.54775 -0.29797,-1.22012 0.03102,-1.7568c1.17526,-2.03428 3.57009,-3.02566 5.83975,-2.41754c2.26911,0.60812 3.84757,2.664 3.84812,5.01342c0.00388,1.12874 -0.36443,2.22757 -1.04732,3.12646l-4.14498,5.52738zM17.69231,26.34615v-6.92308h5.19231v1.73077c0,0.95594 0.77483,1.73077 1.73077,1.73077c0.95594,0 1.73077,-0.77483 1.73077,-1.73077v-1.73077h17.30769v1.73077c0,0.95594 0.77483,1.73077 1.73077,1.73077c0.95594,0 1.73077,-0.77483 1.73077,-1.73077v-1.73077h5.19231v6.92308z" id="icon" fill="#ffffff"/></g></svg>