<svg version="1.1" xmlns="http://www.w3.org/2000/svg" xmlns:xlink="http://www.w3.org/1999/xlink" width="70" height="70" viewBox="0,0,70,70" odoo-icon:version="1.0" xmlns:odoo-icon="https://ivantodorovich.github.io/odoo-icon" odoo-icon:size="70" odoo-icon:icon-size="0.6" odoo-icon:icon-color="#FFFFFF" odoo-icon:icon-flat-shadow-angle="135" odoo-icon:background-color="#00897b" odoo-icon:background-gradient="0.2" odoo-icon:box-radius="3.5" odoo-icon:odoo-version="14.0"><defs><linearGradient x1="70" y1="0" x2="0" y2="70" gradientUnits="userSpaceOnUse" id="color-1"><stop offset="0" stop-color="#33bcae"/><stop offset="1" stop-color="#00897b"/></linearGradient></defs><g fill="none" fill-rule="nonzero" stroke="none" stroke-width="1" stroke-linecap="butt" stroke-linejoin="miter" stroke-miterlimit="10" stroke-dasharray="" stroke-dashoffset="0" font-family="none" font-weight="none" font-size="none" text-anchor="none" style="mix-blend-mode: normal"><path d="M3.5,70c-1.933,0 -3.5,-1.567 -3.5,-3.5v-63c0,-1.933 1.567,-3.5 3.5,-3.5h63c1.933,0 3.5,1.567 3.5,3.5v63c0,1.933 -1.567,3.5 -3.5,3.5z" id="box" fill="url(#color-1)"/><path d="M65,1h-61c-1.95033,0 -3.2667,0.63396 -3.9491,1.90189c0.28378,-1.64806 1.72001,-2.90189 3.4491,-2.90189h63c1.72965,0 3.16627,1.25466 3.44938,2.90352c-0.69803,-1.26902 -2.34782,-1.90352 -4.94938,-1.90352z" id="topBoxShadow" fill="#ffffff" opacity="0.383"/><path d="M4,69h61c2.66667,0 4.33333,-1 5,-3v0.5c0,1.933 -1.567,3.5 -3.5,3.5h-63c-1.933,0 -3.5,-1.567 -3.5,-3.5c0,-0.1611 0,-0.32777 0,-0.5c0.66667,2 2,3 4,3z" id="bottomBoxShadow" fill="#000000" opacity="0.383"/><path d="M56,55.34558l-2.65442,2.65442l-5.64771,-5.64771h-29.93287v-29.93287l-3.76499,-3.76499l2.65442,-2.65442zM25.29542,44.82186h-3.76499v3.76499h3.76499zM25.29542,37.29187h-3.76499v3.76499h3.76499zM25.29542,33.52643v-3.76499h-3.76499v3.76499zM32.82586,44.82186h-3.76499v3.76499h3.76499zM32.82586,41.05686v-3.76499h-3.76499v3.76499zM43.93287,48.5873l-3.76499,-3.76499h-3.57703v3.76499zM29.06041,23.07816l-4.61215,-4.61215h12.14258v7.53043h18.82586v23.438l-23.438,-23.438h0.84716v-3.76499h-3.76499z" id="shadow" fill="#000000" opacity="0.3"/><path d="M16.65442,14l5.12993,5.12993l2.66391,-2.66391h12.14258v7.53043h18.82586v23.438l-2.66391,2.66391l3.24721,3.24721l-16.65442,16.65442h-35.84558c-1.933,0 -3.5,-1.567 -3.5,-3.5l0,-35.84558z" id="flatShadow" fill="#000000" opacity="0.324"/><path d="M56,53.34558l-2.65442,2.65442l-5.64771,-5.64771h-29.93287v-29.93287l-3.76499,-3.76499l2.65442,-2.65442zM25.29542,42.82186h-3.76499v3.76499h3.76499zM25.29542,35.29187h-3.76499v3.76499h3.76499zM25.29542,31.52643v-3.76499h-3.76499v3.76499zM32.82586,42.82186h-3.76499v3.76499h3.76499zM32.82586,39.05686v-3.76499h-3.76499v3.76499zM43.93287,46.5873l-3.76499,-3.76499h-3.57703v3.76499zM29.06041,21.07816l-4.61215,-4.61215h12.14258v7.53043h18.82586v23.438l-23.438,-23.438h0.84716v-3.76499h-3.76499z" id="icon" fill="#ffffff"/></g></svg>