<svg version="1.1" xmlns="http://www.w3.org/2000/svg" xmlns:xlink="http://www.w3.org/1999/xlink" width="70" height="70" viewBox="0,0,70,70" odoo-icon:version="1.0" xmlns:odoo-icon="https://ivantodorovich.github.io/odoo-icon" odoo-icon:size="70" odoo-icon:icon-size="0.58" odoo-icon:icon-color="#FFFFFF" odoo-icon:icon-flat-shadow-angle="135" odoo-icon:background-color="#334984" odoo-icon:background-gradient="0.2" odoo-icon:box-radius="3.5" odoo-icon:odoo-version="14.0"><defs><linearGradient x1="70" y1="0" x2="0" y2="70" gradientUnits="userSpaceOnUse" id="color-1"><stop offset="0" stop-color="#667cb7"/><stop offset="1" stop-color="#334984"/></linearGradient></defs><g fill="none" fill-rule="nonzero" stroke="none" stroke-width="1" stroke-linecap="butt" stroke-linejoin="miter" stroke-miterlimit="10" stroke-dasharray="" stroke-dashoffset="0" font-family="none" font-weight="none" font-size="none" text-anchor="none" style="mix-blend-mode: normal"><path d="M3.5,70c-1.933,0 -3.5,-1.567 -3.5,-3.5v-63c0,-1.933 1.567,-3.5 3.5,-3.5h63c1.933,0 3.5,1.567 3.5,3.5v63c0,1.933 -1.567,3.5 -3.5,3.5z" id="box" fill="url(#color-1)"/><path d="M65,1h-61c-1.95033,0 -3.2667,0.63396 -3.9491,1.90189c0.28378,-1.64806 1.72001,-2.90189 3.4491,-2.90189h63c1.72965,0 3.16627,1.25466 3.44938,2.90352c-0.69803,-1.26902 -2.34782,-1.90352 -4.94938,-1.90352z" id="topBoxShadow" fill="#ffffff" opacity="0.383"/><path d="M4,69h61c2.66667,0 4.33333,-1 5,-3v0.5c0,1.933 -1.567,3.5 -3.5,3.5h-63c-1.933,0 -3.5,-1.567 -3.5,-3.5c0,-0.1611 0,-0.32777 0,-0.5c0.66667,2 2,3 4,3z" id="bottomBoxShadow" fill="#000000" opacity="0.383"/><path d="M16.55015,18.5499h36.8997c1.13208,0 2.05015,0.91757 2.05015,2.05015v32.7999c0,1.13208 -0.91757,2.05015 -2.05015,2.05015h-36.8997c-1.13208,0 -2.05015,-0.91757 -2.05015,-2.05015v-32.7999c0,-1.13208 0.91757,-2.05015 2.05015,-2.05015zM24.75025,44.17453v-8.2001l4.0998,4.0998l4.0998,-4.0998v8.2001h4.0998v-14.35005h-4.0998l-4.0998,4.0998l-4.0998,-4.0998h-4.0998v14.35005zM47.2999,38.02458v-8.2001h-4.0998v8.2001h-4.0998l6.14995,6.14995l6.14995,-6.14995z" id="shadow" fill="#000000" opacity="0.3"/><path d="M53.44985,16.5499c1.13208,0 2.05015,0.91757 2.05015,2.05015v32.7999c0,0.5661 -0.22944,1.07869 -0.60048,1.44973l-17.15032,17.15032h-34.2492c-1.933,0 -3.5,-1.567 -3.5,-3.5l0,-34.2492l15.10048,-15.10048c0.37096,-0.37096 0.88344,-0.60042 1.44967,-0.60042z" id="flatShadow" fill="#000000" opacity="0.324"/><path d="M16.55015,16.5499h36.8997c1.13208,0 2.05015,0.91757 2.05015,2.05015v32.7999c0,1.13208 -0.91757,2.05015 -2.05015,2.05015h-36.8997c-1.13208,0 -2.05015,-0.91757 -2.05015,-2.05015v-32.7999c0,-1.13208 0.91757,-2.05015 2.05015,-2.05015zM24.75025,42.17453v-8.2001l4.0998,4.0998l4.0998,-4.0998v8.2001h4.0998v-14.35005h-4.0998l-4.0998,4.0998l-4.0998,-4.0998h-4.0998v14.35005zM47.2999,36.02458v-8.2001h-4.0998v8.2001h-4.0998l6.14995,6.14995l6.14995,-6.14995z" id="icon" fill="#ffffff"/></g></svg>