<svg version="1.1" xmlns="http://www.w3.org/2000/svg" xmlns:xlink="http://www.w3.org/1999/xlink" width="70" height="70" viewBox="0,0,70,70" odoo-icon:version="1.0" xmlns:odoo-icon="https://ivantodorovich.github.io/odoo-icon" odoo-icon:size="70" odoo-icon:icon-size="0.6" odoo-icon:icon-color="#FFFFFF" odoo-icon:icon-flat-shadow-angle="135" odoo-icon:background-color="#a4426b" odoo-icon:background-gradient="0.2" odoo-icon:box-radius="3.5" odoo-icon:odoo-version="14.0"><defs><linearGradient x1="70" y1="0" x2="0" y2="70" gradientUnits="userSpaceOnUse" id="color-1"><stop offset="0" stop-color="#d7759e"/><stop offset="1" stop-color="#a4426b"/></linearGradient></defs><g fill="none" fill-rule="nonzero" stroke="none" stroke-width="1" stroke-linecap="butt" stroke-linejoin="miter" stroke-miterlimit="10" stroke-dasharray="" stroke-dashoffset="0" font-family="none" font-weight="none" font-size="none" text-anchor="none" style="mix-blend-mode: normal"><path d="M3.5,70c-1.933,0 -3.5,-1.567 -3.5,-3.5v-63c0,-1.933 1.567,-3.5 3.5,-3.5h63c1.933,0 3.5,1.567 3.5,3.5v63c0,1.933 -1.567,3.5 -3.5,3.5z" id="box" fill="url(#color-1)"/><path d="M65,1h-61c-1.95033,0 -3.2667,0.63396 -3.9491,1.90189c0.28378,-1.64806 1.72001,-2.90189 3.4491,-2.90189h63c1.72965,0 3.16627,1.25466 3.44938,2.90352c-0.69803,-1.26902 -2.34782,-1.90352 -4.94938,-1.90352z" id="topBoxShadow" fill="#ffffff" opacity="0.383"/><path d="M4,69h61c2.66667,0 4.33333,-1 5,-3v0.5c0,1.933 -1.567,3.5 -3.5,3.5h-63c-1.933,0 -3.5,-1.567 -3.5,-3.5c0,-0.1611 0,-0.32777 0,-0.5c0.66667,2 2,3 4,3z" id="bottomBoxShadow" fill="#000000" opacity="0.383"/><path d="M17.81806,24.59074v-2.87694c0.00733,-1.04329 0.85039,-1.88726 1.89368,-1.89551h34.39458c1.04604,0 1.89368,0.84948 1.89368,1.89551v30.5724c-0.00733,1.04329 -0.85039,1.88726 -1.89368,1.89551h-34.39458c-1.04604,-0.00092 -1.89368,-0.84948 -1.89368,-1.89551v-1.92254h34.36389v-22.33653l-15.27269,13.74555zM14,33.18171h9.54537v3.81806h-9.54537zM14,42.72709h15.27269v3.81806h-15.27269z" id="shadow" fill="#000000" opacity="0.3"/><path d="M18.37709,18.37722c0.34204,-0.34204 0.81334,-0.55481 1.33464,-0.55893h34.39458c1.04604,0 1.89368,0.84948 1.89368,1.89551v30.5724c-0.00367,0.52199 -0.21655,0.99409 -0.55904,1.33658l-18.37722,18.37722h-33.56374c-1.933,0 -3.5,-1.567 -3.5,-3.5l0,-29.74569z" id="flatShadow" fill="#000000" opacity="0.324"/><path d="M17.81806,22.59074v-2.87694c0.00733,-1.04329 0.85039,-1.88726 1.89368,-1.89551h34.39458c1.04604,0 1.89368,0.84948 1.89368,1.89551v30.5724c-0.00733,1.04329 -0.85039,1.88726 -1.89368,1.89551h-34.39458c-1.04604,-0.00092 -1.89368,-0.84948 -1.89368,-1.89551v-1.92254h34.36389v-22.33653l-15.27269,13.74555zM14,31.18171h9.54537v3.81806h-9.54537zM14,40.72709h15.27269v3.81806h-15.27269z" id="icon" fill="#ffffff"/></g></svg>