<svg version="1.1" xmlns="http://www.w3.org/2000/svg" xmlns:xlink="http://www.w3.org/1999/xlink" width="70" height="70" viewBox="0,0,70,70" odoo-icon:version="1.0" xmlns:odoo-icon="https://ivantodorovich.github.io/odoo-icon" odoo-icon:size="70" odoo-icon:icon-size="0.58" odoo-icon:icon-color="#FFFFFF" odoo-icon:icon-flat-shadow-angle="135" odoo-icon:background-color="#fdd835" odoo-icon:background-gradient="0.2" odoo-icon:box-radius="3.5" odoo-icon:odoo-version="14.0"><defs><linearGradient x1="70" y1="0" x2="0" y2="70" gradientUnits="userSpaceOnUse" id="color-1"><stop offset="0" stop-color="#ffff68"/><stop offset="1" stop-color="#fdd835"/></linearGradient></defs><g fill="none" fill-rule="nonzero" stroke="none" stroke-width="1" stroke-linecap="butt" stroke-linejoin="miter" stroke-miterlimit="10" stroke-dasharray="" stroke-dashoffset="0" font-family="none" font-weight="none" font-size="none" text-anchor="none" style="mix-blend-mode: normal"><path d="M3.5,70c-1.933,0 -3.5,-1.567 -3.5,-3.5v-63c0,-1.933 1.567,-3.5 3.5,-3.5h63c1.933,0 3.5,1.567 3.5,3.5v63c0,1.933 -1.567,3.5 -3.5,3.5z" id="box" fill="url(#color-1)"/><path d="M65,1h-61c-1.95033,0 -3.2667,0.63396 -3.9491,1.90189c0.28378,-1.64806 1.72001,-2.90189 3.4491,-2.90189h63c1.72965,0 3.16627,1.25466 3.44938,2.90352c-0.69803,-1.26902 -2.34782,-1.90352 -4.94938,-1.90352z" id="topBoxShadow" fill="#ffffff" opacity="0.383"/><path d="M4,69h61c2.66667,0 4.33333,-1 5,-3v0.5c0,1.933 -1.567,3.5 -3.5,3.5h-63c-1.933,0 -3.5,-1.567 -3.5,-3.5c0,-0.1611 0,-0.32777 0,-0.5c0.66667,2 2,3 4,3z" id="bottomBoxShadow" fill="#000000" opacity="0.383"/><path d="M45.24959,44.68694h3.84367v2.56245h-6.40612v-7.68735h2.56245zM40.12469,26.7498h-20.49959v-2.56245h20.49959zM43.96837,34.43714c1.58831,0 3.08314,0.30011 4.48449,0.90075c1.40135,0.60064 2.62231,1.428 3.66369,2.4825c1.04097,1.0545 1.86177,2.27545 2.46241,3.66369c0.60064,1.38782 0.90772,2.88265 0.92084,4.48449c0,1.58831 -0.30011,3.08314 -0.90075,4.48449c-0.60064,1.40135 -1.428,2.62231 -2.4825,3.66369c-1.0545,1.04097 -2.27545,1.86177 -3.66369,2.46241c-1.38782,0.60064 -2.88265,0.90772 -4.48408,0.92084c-1.58831,0 -3.08314,-0.30011 -4.48408,-0.90075c-1.40135,-0.60064 -2.62231,-1.428 -3.66369,-2.4825c-1.04097,-1.0545 -1.86177,-2.27545 -2.46241,-3.66369c-0.60064,-1.38782 -0.90772,-2.88265 -0.92084,-4.48408c0,-1.58831 0.30011,-3.08314 0.90075,-4.48408c0.60064,-1.40135 1.428,-2.62231 2.4825,-3.66369c1.0545,-1.04097 2.27545,-1.86177 3.66369,-2.46241c1.38782,-0.60064 2.88265,-0.90772 4.48449,-0.92084zM43.96837,54.93673c1.24105,0 2.40214,-0.2337 3.48329,-0.70068c1.08115,-0.46698 2.02864,-1.1078 2.84288,-1.92163c0.81424,-0.81424 1.45465,-1.76173 1.92204,-2.84288c0.46698,-1.08115 0.70724,-2.24881 0.72077,-3.50338c0,-1.24105 -0.2337,-2.40214 -0.70068,-3.48329c-0.46698,-1.08115 -1.1078,-2.02864 -1.92163,-2.84288c-0.81424,-0.81424 -1.76173,-1.45465 -2.84288,-1.92163c-1.08115,-0.46698 -2.24881,-0.70724 -3.50338,-0.72077c-1.24105,0 -2.40214,0.2337 -3.48329,0.70068c-1.08115,0.46698 -2.02864,1.1078 -2.84288,1.92204c-0.81424,0.81424 -1.45465,1.76173 -1.92163,2.84288c-0.46698,1.08115 -0.70724,2.24881 -0.72077,3.50338c0,1.24105 0.2337,2.40214 0.70068,3.48329c0.46698,1.08115 1.1078,2.02864 1.92204,2.84288c0.81424,0.81424 1.76173,1.45465 2.84288,1.92204c1.08115,0.46698 2.24881,0.70724 3.50338,0.72077zM37.84268,31.87469c-1.45465,0.64082 -2.78917,1.49483 -4.00398,2.56245h-14.2136v-2.56245zM30.01511,39.56204c-0.18696,0.41368 -0.35382,0.83433 -0.5006,1.26113c-0.14678,0.42721 -0.28699,0.86098 -0.42024,1.30131h-9.46917v-2.56245zM19.6251,47.24939h9.02843c0.04018,0.42721 0.09348,0.85401 0.16031,1.28122c0.06683,0.42721 0.16031,0.85401 0.28043,1.28122h-9.46917zM31.5165,54.93673c0.66747,0.94749 1.44153,1.80191 2.32219,2.56245h-19.33849v-40.99918h30.74939v14.15333l-0.64041,-0.04018c-0.21361,-0.01353 -0.42721,-0.02009 -0.64041,-0.02009c-0.21361,0 -0.42721,0.00656 -0.64041,0.02009c-0.21361,0.01353 -0.42721,0.02665 -0.64041,0.04018v-11.59088h-25.62449v35.87428z" id="shadow" fill="#000000" opacity="0.3"/><path d="M48.45286,33.33789c1.40135,0.60064 2.62231,1.428 3.66369,2.4825c1.04097,1.0545 1.86177,2.27545 2.46241,3.66369c0.60064,1.38782 0.90772,2.88265 0.92084,4.48449c0,1.58831 -0.30011,3.08314 -0.90075,4.48449c-0.59095,1.37875 -1.40137,2.58288 -2.43165,3.61316l-17.93378,17.93378h-30.73362c-1.933,0 -3.5,-1.567 -3.5,-3.5l0,-37.4998l14.5002,-14.5002h30.74939v14.15333l-4.15193,4.15193c0.91507,-0.23652 1.87169,-0.35898 2.86988,-0.36729l0.00083,-0.00083c1.58831,0 3.08314,0.30011 4.48449,0.90075z" id="flatShadow" fill="#000000" opacity="0.324"/><path d="M45.24959,42.68694h3.84367v2.56245h-6.40612v-7.68735h2.56245zM40.12469,24.7498h-20.49959v-2.56245h20.49959zM43.96837,32.43714c1.58831,0 3.08314,0.30011 4.48449,0.90075c1.40135,0.60064 2.62231,1.428 3.66369,2.4825c1.04097,1.0545 1.86177,2.27545 2.46241,3.66369c0.60064,1.38782 0.90772,2.88265 0.92084,4.48449c0,1.58831 -0.30011,3.08314 -0.90075,4.48449c-0.60064,1.40135 -1.428,2.62231 -2.4825,3.66369c-1.0545,1.04097 -2.27545,1.86177 -3.66369,2.46241c-1.38782,0.60064 -2.88265,0.90772 -4.48408,0.92084c-1.58831,0 -3.08314,-0.30011 -4.48408,-0.90075c-1.40135,-0.60064 -2.62231,-1.428 -3.66369,-2.4825c-1.04097,-1.0545 -1.86177,-2.27545 -2.46241,-3.66369c-0.60064,-1.38782 -0.90772,-2.88265 -0.92084,-4.48408c0,-1.58831 0.30011,-3.08314 0.90075,-4.48408c0.60064,-1.40135 1.428,-2.62231 2.4825,-3.66369c1.0545,-1.04097 2.27545,-1.86177 3.66369,-2.46241c1.38782,-0.60064 2.88265,-0.90772 4.48449,-0.92084zM43.96837,52.93673c1.24105,0 2.40214,-0.2337 3.48329,-0.70068c1.08115,-0.46698 2.02864,-1.1078 2.84288,-1.92163c0.81424,-0.81424 1.45465,-1.76173 1.92204,-2.84288c0.46698,-1.08115 0.70724,-2.24881 0.72077,-3.50338c0,-1.24105 -0.2337,-2.40214 -0.70068,-3.48329c-0.46698,-1.08115 -1.1078,-2.02864 -1.92163,-2.84288c-0.81424,-0.81424 -1.76173,-1.45465 -2.84288,-1.92163c-1.08115,-0.46698 -2.24881,-0.70724 -3.50338,-0.72077c-1.24105,0 -2.40214,0.2337 -3.48329,0.70068c-1.08115,0.46698 -2.02864,1.1078 -2.84288,1.92204c-0.81424,0.81424 -1.45465,1.76173 -1.92163,2.84288c-0.46698,1.08115 -0.70724,2.24881 -0.72077,3.50338c0,1.24105 0.2337,2.40214 0.70068,3.48329c0.46698,1.08115 1.1078,2.02864 1.92204,2.84288c0.81424,0.81424 1.76173,1.45465 2.84288,1.92204c1.08115,0.46698 2.24881,0.70724 3.50338,0.72077zM37.84268,29.87469c-1.45465,0.64082 -2.78917,1.49483 -4.00398,2.56245h-14.2136v-2.56245zM30.01511,37.56204c-0.18696,0.41368 -0.35382,0.83433 -0.5006,1.26113c-0.14678,0.42721 -0.28699,0.86098 -0.42024,1.30131h-9.46917v-2.56245zM19.6251,45.24939h9.02843c0.04018,0.42721 0.09348,0.85401 0.16031,1.28122c0.06683,0.42721 0.16031,0.85401 0.28043,1.28122h-9.46917zM31.5165,52.93673c0.66747,0.94749 1.44153,1.80191 2.32219,2.56245h-19.33849v-40.99918h30.74939v14.15333l-0.64041,-0.04018c-0.21361,-0.01353 -0.42721,-0.02009 -0.64041,-0.02009c-0.21361,0 -0.42721,0.00656 -0.64041,0.02009c-0.21361,0.01353 -0.42721,0.02665 -0.64041,0.04018v-11.59088h-25.62449v35.87428z" id="icon" fill="#ffffff"/></g></svg>