<svg version="1.1" xmlns="http://www.w3.org/2000/svg" xmlns:xlink="http://www.w3.org/1999/xlink" width="70" height="70" viewBox="0,0,70,70" odoo-icon:version="1.0" xmlns:odoo-icon="https://ivantodorovich.github.io/odoo-icon" odoo-icon:size="70" odoo-icon:icon-size="0.58" odoo-icon:icon-color="#FFFFFF" odoo-icon:icon-flat-shadow-angle="135" odoo-icon:background-color="#249093" odoo-icon:background-gradient="0.2" odoo-icon:box-radius="3.5" odoo-icon:odoo-version="14.0"><defs><linearGradient x1="70" y1="0" x2="0" y2="70" gradientUnits="userSpaceOnUse" id="color-1"><stop offset="0" stop-color="#57c3c6"/><stop offset="1" stop-color="#249093"/></linearGradient></defs><g fill="none" fill-rule="nonzero" stroke="none" stroke-width="1" stroke-linecap="butt" stroke-linejoin="miter" stroke-miterlimit="10" stroke-dasharray="" stroke-dashoffset="0" font-family="none" font-weight="none" font-size="none" text-anchor="none" style="mix-blend-mode: normal"><path d="M3.5,70c-1.933,0 -3.5,-1.567 -3.5,-3.5v-63c0,-1.933 1.567,-3.5 3.5,-3.5h63c1.933,0 3.5,1.567 3.5,3.5v63c0,1.933 -1.567,3.5 -3.5,3.5z" id="box" fill="url(#color-1)"/><path d="M65,1h-61c-1.95033,0 -3.2667,0.63396 -3.9491,1.90189c0.28378,-1.64806 1.72001,-2.90189 3.4491,-2.90189h63c1.72965,0 3.16627,1.25466 3.44938,2.90352c-0.69803,-1.26902 -2.34782,-1.90352 -4.94938,-1.90352z" id="topBoxShadow" fill="#ffffff" opacity="0.383"/><path d="M4,69h61c2.66667,0 4.33333,-1 5,-3v0.5c0,1.933 -1.567,3.5 -3.5,3.5h-63c-1.933,0 -3.5,-1.567 -3.5,-3.5c0,-0.1611 0,-0.32777 0,-0.5c0.66667,2 2,3 4,3z" id="bottomBoxShadow" fill="#000000" opacity="0.383"/><path d="M34.99985,41.68085c0,0.84998 -0.24692,1.55707 -0.74075,2.12158c-0.49383,0.56451 -1.10118,0.84661 -1.82173,0.84661h-10.24992c-0.72055,0 -1.3279,-0.2821 -1.82173,-0.84661c-0.49383,-0.56451 -0.74075,-1.2716 -0.74075,-2.12158c0,-0.84998 0.05997,-1.6302 0.18022,-2.34065c0.12025,-0.71046 0.31698,-1.3943 0.59052,-2.05182c0.27354,-0.65722 0.67741,-1.17522 1.21102,-1.5537c0.53391,-0.37848 1.18104,-0.56757 1.94198,-0.56757c0.08016,0.05324 0.28027,0.17257 0.60061,0.35859c0.32035,0.18603 0.57063,0.32861 0.75085,0.42836c0.18022,0.09975 0.41703,0.21571 0.71076,0.3485c0.29373,0.13279 0.58042,0.22917 0.86069,0.28883c0.28027,0.05966 0.56053,0.08965 0.8408,0.08965c0.28027,0 0.56053,-0.02998 0.8408,-0.08965c0.28027,-0.05966 0.56726,-0.15604 0.86069,-0.28883c0.29373,-0.13279 0.53055,-0.24906 0.71076,-0.3485c0.18022,-0.09975 0.4305,-0.24233 0.75085,-0.42836c0.32035,-0.18603 0.52045,-0.30536 0.60061,-0.35859c0.76064,0 1.40806,0.18909 1.94198,0.56757c0.53391,0.37848 0.93749,0.89649 1.21102,1.5537c0.27354,0.65722 0.47058,1.34136 0.59052,2.05182c0.12025,0.71046 0.18022,1.49068 0.18022,2.34065zM31.85695,31.32261c0,1.24835 -0.44365,2.31403 -1.33127,3.19706c-0.88761,0.88302 -1.9585,1.32453 -3.21297,1.32453c-1.25447,0 -2.32566,-0.44151 -3.21297,-1.32453c-0.88761,-0.88302 -1.33127,-1.94871 -1.33127,-3.19706c0,-1.24835 0.44365,-2.31403 1.33127,-3.19706c0.88761,-0.88302 1.9585,-1.32453 3.21297,-1.32453c1.25447,0 2.32566,0.44151 3.21297,1.32453c0.88761,0.88302 1.33127,1.94871 1.33127,3.19706zM50.37473,40.18711v1.27497c0,0.18603 -0.05997,0.33871 -0.18022,0.45803c-0.12025,0.11963 -0.27354,0.1793 -0.46048,0.1793h-11.53101c-0.18695,0 -0.34024,-0.05966 -0.46048,-0.1793c-0.12025,-0.11963 -0.18022,-0.27231 -0.18022,-0.45803v-1.27497c0,-0.18603 0.05997,-0.33871 0.18022,-0.45803c0.12025,-0.11963 0.27354,-0.1793 0.46048,-0.1793h11.53101c0.18695,0 0.34024,0.05966 0.46048,0.1793c0.12025,0.11963 0.18022,0.27231 0.18022,0.45803zM50.37473,35.1671v1.11556c0,0.19919 -0.07007,0.36839 -0.2102,0.50791c-0.14013,0.13952 -0.31025,0.20928 -0.51035,0.20928h-11.37099c-0.2001,0 -0.37022,-0.06976 -0.51035,-0.20928c-0.14013,-0.13952 -0.2102,-0.30872 -0.2102,-0.50791v-1.11556c0,-0.19919 0.07007,-0.36839 0.2102,-0.50791c0.14013,-0.13952 0.31025,-0.20928 0.51035,-0.20928h11.37099c0.2001,0 0.37022,0.06976 0.51035,0.20928c0.14013,0.13952 0.2102,0.30872 0.2102,0.50791zM50.37473,29.98798v1.27497c0,0.18603 -0.05997,0.33871 -0.18022,0.45803c-0.12025,0.11963 -0.27354,0.1793 -0.46048,0.1793h-11.53101c-0.18695,0 -0.34024,-0.05966 -0.46048,-0.1793c-0.12025,-0.11963 -0.18022,-0.27231 -0.18022,-0.45803v-1.27497c0,-0.18603 0.05997,-0.33871 0.18022,-0.45803c0.12025,-0.11963 0.27354,-0.1793 0.46048,-0.1793h11.53101c0.18695,0 0.34024,0.05966 0.46048,0.1793c0.12025,0.11963 0.18022,0.27231 0.18022,0.45803zM52.93721,49.11097v-24.22256c0,-0.17257 -0.06334,-0.32218 -0.19031,-0.44824c-0.12667,-0.12606 -0.2769,-0.18909 -0.45038,-0.18909h-34.59334c-0.17348,0 -0.32371,0.06303 -0.45038,0.18909c-0.12667,0.12606 -0.19031,0.27568 -0.19031,0.44824v24.22256c0,0.17257 0.06334,0.32218 0.19031,0.44824c0.12667,0.12606 0.2769,0.18909 0.45038,0.18909h7.04675v-1.9123c0,-0.18603 0.05997,-0.33871 0.18022,-0.45803c0.12025,-0.11963 0.27354,-0.1793 0.46048,-0.1793h1.28139c0.18695,0 0.34024,0.05966 0.46048,0.1793c0.12025,0.11963 0.18022,0.27231 0.18022,0.45803v1.9123h15.37489v-1.9123c0,-0.18603 0.05997,-0.33871 0.18022,-0.45803c0.12025,-0.11963 0.27354,-0.1793 0.46048,-0.1793h1.28139c0.18695,0 0.34024,0.05966 0.46048,0.1793c0.12025,0.11963 0.18022,0.27231 0.18022,0.45803v1.9123h7.04675c0.17348,0 0.32371,-0.06303 0.45038,-0.18909c0.12667,-0.12606 0.19031,-0.27568 0.19031,-0.44824zM55.49969,24.88872v24.22256c0,0.8766 -0.31362,1.62683 -0.94085,2.25101c-0.62723,0.62417 -1.38144,0.93626 -2.26233,0.93626h-34.59334c-0.88088,0 -1.63479,-0.31209 -2.26233,-0.93626c-0.62723,-0.62417 -0.94085,-1.37441 -0.94085,-2.25101v-24.22256c0,-0.8766 0.31362,-1.62683 0.94085,-2.25101c0.62723,-0.62417 1.38144,-0.93626 2.26233,-0.93626h34.59364c0.88088,0 1.63479,0.31209 2.26233,0.93626c0.62723,0.62417 0.94085,1.37441 0.94085,2.25101z" id="shadow" fill="#000000" opacity="0.3"/><path d="M55.49969,47.11128c0,0.87355 -0.31144,1.62161 -0.93432,2.24449l-20.64424,20.64424h-30.42114c-1.933,0 -3.5,-1.567 -3.5,-3.5l0,-30.42145l15.43432,-15.43432c0.00217,-0.00217 0.00435,-0.00435 0.00654,-0.00652c0.62723,-0.62417 1.38144,-0.93626 2.26233,-0.93626h34.59364c0.88088,0 1.63479,0.31209 2.26233,0.93626c0.62723,0.62417 0.94085,1.37441 0.94085,2.25101l-0.00031,0.00031z" id="flatShadow" fill="#000000" opacity="0.324"/><path d="M34.99985,39.68085c0,0.84998 -0.24692,1.55707 -0.74075,2.12158c-0.49383,0.56451 -1.10118,0.84661 -1.82173,0.84661h-10.24992c-0.72055,0 -1.3279,-0.2821 -1.82173,-0.84661c-0.49383,-0.56451 -0.74075,-1.2716 -0.74075,-2.12158c0,-0.84998 0.05997,-1.6302 0.18022,-2.34065c0.12025,-0.71046 0.31698,-1.3943 0.59052,-2.05182c0.27354,-0.65722 0.67741,-1.17522 1.21102,-1.5537c0.53391,-0.37848 1.18104,-0.56757 1.94198,-0.56757c0.08016,0.05324 0.28027,0.17257 0.60061,0.35859c0.32035,0.18603 0.57063,0.32861 0.75085,0.42836c0.18022,0.09975 0.41703,0.21571 0.71076,0.3485c0.29373,0.13279 0.58042,0.22917 0.86069,0.28883c0.28027,0.05966 0.56053,0.08965 0.8408,0.08965c0.28027,0 0.56053,-0.02998 0.8408,-0.08965c0.28027,-0.05966 0.56726,-0.15604 0.86069,-0.28883c0.29373,-0.13279 0.53055,-0.24906 0.71076,-0.3485c0.18022,-0.09975 0.4305,-0.24233 0.75085,-0.42836c0.32035,-0.18603 0.52045,-0.30536 0.60061,-0.35859c0.76064,0 1.40806,0.18909 1.94198,0.56757c0.53391,0.37848 0.93749,0.89649 1.21102,1.5537c0.27354,0.65722 0.47058,1.34136 0.59052,2.05182c0.12025,0.71046 0.18022,1.49068 0.18022,2.34065zM31.85695,29.32261c0,1.24835 -0.44365,2.31403 -1.33127,3.19706c-0.88761,0.88302 -1.9585,1.32453 -3.21297,1.32453c-1.25447,0 -2.32566,-0.44151 -3.21297,-1.32453c-0.88761,-0.88302 -1.33127,-1.94871 -1.33127,-3.19706c0,-1.24835 0.44365,-2.31403 1.33127,-3.19706c0.88761,-0.88302 1.9585,-1.32453 3.21297,-1.32453c1.25447,0 2.32566,0.44151 3.21297,1.32453c0.88761,0.88302 1.33127,1.94871 1.33127,3.19706zM50.37473,38.18711v1.27497c0,0.18603 -0.05997,0.33871 -0.18022,0.45803c-0.12025,0.11963 -0.27354,0.1793 -0.46048,0.1793h-11.53101c-0.18695,0 -0.34024,-0.05966 -0.46048,-0.1793c-0.12025,-0.11963 -0.18022,-0.27231 -0.18022,-0.45803v-1.27497c0,-0.18603 0.05997,-0.33871 0.18022,-0.45803c0.12025,-0.11963 0.27354,-0.1793 0.46048,-0.1793h11.53101c0.18695,0 0.34024,0.05966 0.46048,0.1793c0.12025,0.11963 0.18022,0.27231 0.18022,0.45803zM50.37473,33.1671v1.11556c0,0.19919 -0.07007,0.36839 -0.2102,0.50791c-0.14013,0.13952 -0.31025,0.20928 -0.51035,0.20928h-11.37099c-0.2001,0 -0.37022,-0.06976 -0.51035,-0.20928c-0.14013,-0.13952 -0.2102,-0.30872 -0.2102,-0.50791v-1.11556c0,-0.19919 0.07007,-0.36839 0.2102,-0.50791c0.14013,-0.13952 0.31025,-0.20928 0.51035,-0.20928h11.37099c0.2001,0 0.37022,0.06976 0.51035,0.20928c0.14013,0.13952 0.2102,0.30872 0.2102,0.50791zM50.37473,27.98798v1.27497c0,0.18603 -0.05997,0.33871 -0.18022,0.45803c-0.12025,0.11963 -0.27354,0.1793 -0.46048,0.1793h-11.53101c-0.18695,0 -0.34024,-0.05966 -0.46048,-0.1793c-0.12025,-0.11963 -0.18022,-0.27231 -0.18022,-0.45803v-1.27497c0,-0.18603 0.05997,-0.33871 0.18022,-0.45803c0.12025,-0.11963 0.27354,-0.1793 0.46048,-0.1793h11.53101c0.18695,0 0.34024,0.05966 0.46048,0.1793c0.12025,0.11963 0.18022,0.27231 0.18022,0.45803zM52.93721,47.11097v-24.22256c0,-0.17257 -0.06334,-0.32218 -0.19031,-0.44824c-0.12667,-0.12606 -0.2769,-0.18909 -0.45038,-0.18909h-34.59334c-0.17348,0 -0.32371,0.06303 -0.45038,0.18909c-0.12667,0.12606 -0.19031,0.27568 -0.19031,0.44824v24.22256c0,0.17257 0.06334,0.32218 0.19031,0.44824c0.12667,0.12606 0.2769,0.18909 0.45038,0.18909h7.04675v-1.9123c0,-0.18603 0.05997,-0.33871 0.18022,-0.45803c0.12025,-0.11963 0.27354,-0.1793 0.46048,-0.1793h1.28139c0.18695,0 0.34024,0.05966 0.46048,0.1793c0.12025,0.11963 0.18022,0.27231 0.18022,0.45803v1.9123h15.37489v-1.9123c0,-0.18603 0.05997,-0.33871 0.18022,-0.45803c0.12025,-0.11963 0.27354,-0.1793 0.46048,-0.1793h1.28139c0.18695,0 0.34024,0.05966 0.46048,0.1793c0.12025,0.11963 0.18022,0.27231 0.18022,0.45803v1.9123h7.04675c0.17348,0 0.32371,-0.06303 0.45038,-0.18909c0.12667,-0.12606 0.19031,-0.27568 0.19031,-0.44824zM55.49969,22.88872v24.22256c0,0.8766 -0.31362,1.62683 -0.94085,2.25101c-0.62723,0.62417 -1.38144,0.93626 -2.26233,0.93626h-34.59334c-0.88088,0 -1.63479,-0.31209 -2.26233,-0.93626c-0.62723,-0.62417 -0.94085,-1.37441 -0.94085,-2.25101v-24.22256c0,-0.8766 0.31362,-1.62683 0.94085,-2.25101c0.62723,-0.62417 1.38144,-0.93626 2.26233,-0.93626h34.59364c0.88088,0 1.63479,0.31209 2.26233,0.93626c0.62723,0.62417 0.94085,1.37441 0.94085,2.25101z" id="icon" fill="#ffffff"/></g></svg>