<svg version="1.1" xmlns="http://www.w3.org/2000/svg" xmlns:xlink="http://www.w3.org/1999/xlink" width="70" height="70" viewBox="0,0,70,70" odoo-icon:version="1.0" xmlns:odoo-icon="https://ivantodorovich.github.io/odoo-icon" odoo-icon:size="70" odoo-icon:icon-size="0.58" odoo-icon:icon-color="#FFFFFF" odoo-icon:icon-flat-shadow-angle="135" odoo-icon:background-color="#334984" odoo-icon:background-gradient="0.2" odoo-icon:box-radius="3.5" odoo-icon:odoo-version="14.0"><defs><linearGradient x1="70" y1="0" x2="0" y2="70" gradientUnits="userSpaceOnUse" id="color-1"><stop offset="0" stop-color="#667cb7"/><stop offset="1" stop-color="#334984"/></linearGradient></defs><g fill="none" fill-rule="nonzero" stroke="none" stroke-width="1" stroke-linecap="butt" stroke-linejoin="miter" stroke-miterlimit="10" stroke-dasharray="" stroke-dashoffset="0" font-family="none" font-weight="none" font-size="none" text-anchor="none" style="mix-blend-mode: normal"><path d="M3.5,70c-1.933,0 -3.5,-1.567 -3.5,-3.5v-63c0,-1.933 1.567,-3.5 3.5,-3.5h63c1.933,0 3.5,1.567 3.5,3.5v63c0,1.933 -1.567,3.5 -3.5,3.5z" id="box" fill="url(#color-1)"/><path d="M65,1h-61c-1.95033,0 -3.2667,0.63396 -3.9491,1.90189c0.28378,-1.64806 1.72001,-2.90189 3.4491,-2.90189h63c1.72965,0 3.16627,1.25466 3.44938,2.90352c-0.69803,-1.26902 -2.34782,-1.90352 -4.94938,-1.90352z" id="topBoxShadow" fill="#ffffff" opacity="0.383"/><path d="M4,69h61c2.66667,0 4.33333,-1 5,-3v0.5c0,1.933 -1.567,3.5 -3.5,3.5h-63c-1.933,0 -3.5,-1.567 -3.5,-3.5c0,-0.1611 0,-0.32777 0,-0.5c0.66667,2 2,3 4,3z" id="bottomBoxShadow" fill="#000000" opacity="0.383"/><path d="M21.67527,20.60054c-1.69837,0 -3.07498,1.3766 -3.07498,3.07498v5.12512c0,1.13208 -0.91757,2.05015 -2.05015,2.05015c-1.13208,0 -2.05015,-0.91757 -2.05015,-2.05015v-5.12512c0,-3.96254 3.21224,-7.17478 7.17478,-7.17478h5.12512c1.13208,0 2.05015,0.91757 2.05015,2.05015c0,1.13208 -0.91757,2.05015 -2.05015,2.05015zM21.67527,53.39995c-1.69837,0 -3.07498,-1.3766 -3.07498,-3.07498v-5.12512c0,-1.13208 -0.91757,-2.05015 -2.05015,-2.05015c-1.13208,0 -2.05015,0.91757 -2.05015,2.05015v5.12512c0,3.96254 3.21224,7.17478 7.17478,7.17478h5.12512c1.13208,0 2.05015,-0.91757 2.05015,-2.05015c0,-1.13208 -0.91757,-2.05015 -2.05015,-2.05015zM51.3997,23.67552c0,-1.69837 -1.3766,-3.07498 -3.07498,-3.07498h-5.12512c-1.13208,0 -2.05015,-0.91757 -2.05015,-2.05015c0,-1.13208 0.91757,-2.05015 2.05015,-2.05015h5.12512c3.96254,0 7.17478,3.21224 7.17478,7.17478v5.12512c0,1.13208 -0.91757,2.05015 -2.05015,2.05015c-1.13208,0 -2.05015,-0.91757 -2.05015,-2.05015zM48.32473,53.39995c1.69837,0 3.07498,-1.3766 3.07498,-3.07498v-5.12512c0,-1.13208 0.91757,-2.05015 2.05015,-2.05015c1.13208,0 2.05015,0.91757 2.05015,2.05015v5.12512c0,3.96254 -3.21224,7.17478 -7.17478,7.17478h-5.12512c-1.13208,0 -2.05015,-0.91757 -2.05015,-2.05015c0,-1.13208 0.91757,-2.05015 2.05015,-2.05015zM26.28773,24.70034c-1.13208,0 -2.05015,0.91757 -2.05015,2.05015v3.07498c0,1.13208 0.91757,2.05015 2.05015,2.05015c1.13208,0 2.05015,-0.91757 2.05015,-2.05015v-1.02483h4.61246v16.3997h-2.56232c-1.13208,0 -2.05015,0.91757 -2.05015,2.05015c0,1.13208 0.91757,2.05015 2.05015,2.05015h9.22493c1.13208,0 2.05015,-0.91757 2.05015,-2.05015c0,-1.13208 -0.91757,-2.05015 -2.05015,-2.05015h-2.56232v-16.3997h4.61246v1.02483c0,1.13208 0.91757,2.05015 2.05015,2.05015c1.13208,0 2.05015,-0.91757 2.05015,-2.05015v-3.07498c0,-1.13208 -0.91757,-2.05015 -2.05015,-2.05015z" id="shadow" fill="#000000" opacity="0.3"/><path d="M16.60144,16.60218c1.29838,-1.29838 3.09207,-2.10144 5.07334,-2.10144h5.12512c1.13208,0 2.05015,0.91757 2.05015,2.05015c0,0.5661 -0.22944,1.07869 -0.60048,1.44973c0,0 0,0 0,0l-28.24957,28.24957l0,-13.04657zM24.83801,23.30082c0.37104,-0.37104 0.88362,-0.60048 1.44973,-0.60048l7.86253,0l7.59968,-7.59968c0.37096,-0.37096 0.88344,-0.60042 1.44967,-0.60042h5.12512c3.96254,0 7.17478,3.21224 7.17478,7.17478v5.12512c0,0.5661 -0.22944,1.07869 -0.60048,1.44973c0,0 0,0 0,0l-14.97406,14.97406c0.9844,0.15028 1.73813,1.00052 1.73813,2.02656c0,0.56623 -0.22947,1.07871 -0.60042,1.44967l-23.29984,23.29984h-14.26284c-1.933,0 -3.5,-1.567 -3.5,-3.5l0,-18.36117zM52.00018,41.75013c0.37096,-0.37096 0.88344,-0.60042 1.44967,-0.60042c1.13208,0 2.05015,0.91757 2.05015,2.05015v5.12512c0,1.98127 -0.80306,3.77496 -2.10144,5.07334l-16.60168,16.60168h-13.04657z" id="flatShadow" fill="#000000" opacity="0.324"/><path d="M21.67527,18.60054c-1.69837,0 -3.07498,1.3766 -3.07498,3.07498v5.12512c0,1.13208 -0.91757,2.05015 -2.05015,2.05015c-1.13208,0 -2.05015,-0.91757 -2.05015,-2.05015v-5.12512c0,-3.96254 3.21224,-7.17478 7.17478,-7.17478h5.12512c1.13208,0 2.05015,0.91757 2.05015,2.05015c0,1.13208 -0.91757,2.05015 -2.05015,2.05015zM21.67527,51.39995c-1.69837,0 -3.07498,-1.3766 -3.07498,-3.07498v-5.12512c0,-1.13208 -0.91757,-2.05015 -2.05015,-2.05015c-1.13208,0 -2.05015,0.91757 -2.05015,2.05015v5.12512c0,3.96254 3.21224,7.17478 7.17478,7.17478h5.12512c1.13208,0 2.05015,-0.91757 2.05015,-2.05015c0,-1.13208 -0.91757,-2.05015 -2.05015,-2.05015zM51.3997,21.67552c0,-1.69837 -1.3766,-3.07498 -3.07498,-3.07498h-5.12512c-1.13208,0 -2.05015,-0.91757 -2.05015,-2.05015c0,-1.13208 0.91757,-2.05015 2.05015,-2.05015h5.12512c3.96254,0 7.17478,3.21224 7.17478,7.17478v5.12512c0,1.13208 -0.91757,2.05015 -2.05015,2.05015c-1.13208,0 -2.05015,-0.91757 -2.05015,-2.05015zM48.32473,51.39995c1.69837,0 3.07498,-1.3766 3.07498,-3.07498v-5.12512c0,-1.13208 0.91757,-2.05015 2.05015,-2.05015c1.13208,0 2.05015,0.91757 2.05015,2.05015v5.12512c0,3.96254 -3.21224,7.17478 -7.17478,7.17478h-5.12512c-1.13208,0 -2.05015,-0.91757 -2.05015,-2.05015c0,-1.13208 0.91757,-2.05015 2.05015,-2.05015zM26.28773,22.70034c-1.13208,0 -2.05015,0.91757 -2.05015,2.05015v3.07498c0,1.13208 0.91757,2.05015 2.05015,2.05015c1.13208,0 2.05015,-0.91757 2.05015,-2.05015v-1.02483h4.61246v16.3997h-2.56232c-1.13208,0 -2.05015,0.91757 -2.05015,2.05015c0,1.13208 0.91757,2.05015 2.05015,2.05015h9.22493c1.13208,0 2.05015,-0.91757 2.05015,-2.05015c0,-1.13208 -0.91757,-2.05015 -2.05015,-2.05015h-2.56232v-16.3997h4.61246v1.02483c0,1.13208 0.91757,2.05015 2.05015,2.05015c1.13208,0 2.05015,-0.91757 2.05015,-2.05015v-3.07498c0,-1.13208 -0.91757,-2.05015 -2.05015,-2.05015z" id="icon" fill="#ffffff"/></g></svg>