<svg version="1.1" xmlns="http://www.w3.org/2000/svg" xmlns:xlink="http://www.w3.org/1999/xlink" width="70" height="70" viewBox="0,0,70,70" odoo-icon:version="1.0" xmlns:odoo-icon="https://ivantodorovich.github.io/odoo-icon" odoo-icon:size="70" odoo-icon:icon-size="0.54" odoo-icon:icon-color="#FFFFFF" odoo-icon:icon-flat-shadow-angle="135" odoo-icon:background-color="#e53935" odoo-icon:background-gradient="0.2" odoo-icon:box-radius="3.5" odoo-icon:odoo-version="14.0"><defs><linearGradient x1="70" y1="0" x2="0" y2="70" gradientUnits="userSpaceOnUse" id="color-1"><stop offset="0" stop-color="#ff6c68"/><stop offset="1" stop-color="#e53935"/></linearGradient></defs><g fill="none" fill-rule="nonzero" stroke="none" stroke-width="1" stroke-linecap="butt" stroke-linejoin="miter" stroke-miterlimit="10" stroke-dasharray="" stroke-dashoffset="0" font-family="none" font-weight="none" font-size="none" text-anchor="none" style="mix-blend-mode: normal"><path d="M3.5,70c-1.933,0 -3.5,-1.567 -3.5,-3.5v-63c0,-1.933 1.567,-3.5 3.5,-3.5h63c1.933,0 3.5,1.567 3.5,3.5v63c0,1.933 -1.567,3.5 -3.5,3.5z" id="box" fill="url(#color-1)"/><path d="M65,1h-61c-1.95033,0 -3.2667,0.63396 -3.9491,1.90189c0.28378,-1.64806 1.72001,-2.90189 3.4491,-2.90189h63c1.72965,0 3.16627,1.25466 3.44938,2.90352c-0.69803,-1.26902 -2.34782,-1.90352 -4.94938,-1.90352z" id="topBoxShadow" fill="#ffffff" opacity="0.383"/><path d="M4,69h61c2.66667,0 4.33333,-1 5,-3v0.5c0,1.933 -1.567,3.5 -3.5,3.5h-63c-1.933,0 -3.5,-1.567 -3.5,-3.5c0,-0.1611 0,-0.32777 0,-0.5c0.66667,2 2,3 4,3z" id="bottomBoxShadow" fill="#000000" opacity="0.383"/><path d="M34.99935,39.71453c-4.99695,0 -9.04758,-4.05063 -9.04758,-9.04758h3.61894c0,2.99834 2.43029,5.42863 5.42863,5.42863c2.99834,0 5.42863,-2.43029 5.42863,-5.42863h3.61894c0,4.99695 -4.05063,9.04758 -9.04758,9.04758M34.99935,21.61894c2.99834,0 5.42863,2.43029 5.42863,5.42863h-10.85727c0,-2.99834 2.43029,-5.42863 5.42863,-5.42863M47.6663,27.04758h-3.61894c0,-4.99695 -4.05063,-9.04758 -9.04758,-9.04758c-4.99695,0 -9.04758,4.05063 -9.04758,9.04758h-3.61894c-2.00859,0 -3.61894,1.61035 -3.61894,3.61894v21.71453c0,1.99861 1.62034,3.61894 3.61894,3.61894h25.33348c1.99861,0 3.61894,-1.62034 3.61894,-3.61894v-21.71453c0,-1.99861 -1.62034,-3.61894 -3.61894,-3.61894z" id="shadow" fill="#000000" opacity="0.3"/><path d="M19.77057,26.10383c0.6251,-0.6251 1.47982,-1.02059 2.43163,-1.05396l6.39994,-6.39994c1.63728,-1.63728 3.89917,-2.64993 6.39764,-2.64993c4.99695,0 9.04758,4.05063 9.04758,9.04758h3.61938c1.99861,0 3.61894,1.62034 3.61894,3.61894v21.71453c0,0.9993 -0.40508,1.90404 -1.05999,2.55895l-17.05999,17.05999h-29.66569c-1.933,0 -3.5,-1.567 -3.5,-3.5l0,-20.62561z" id="flatShadow" fill="#000000" opacity="0.324"/><path d="M34.99935,37.71453c-4.99695,0 -9.04758,-4.05063 -9.04758,-9.04758h3.61894c0,2.99834 2.43029,5.42863 5.42863,5.42863c2.99834,0 5.42863,-2.43029 5.42863,-5.42863h3.61894c0,4.99695 -4.05063,9.04758 -9.04758,9.04758M34.99935,19.61894c2.99834,0 5.42863,2.43029 5.42863,5.42863h-10.85727c0,-2.99834 2.43029,-5.42863 5.42863,-5.42863M47.6663,25.04758h-3.61894c0,-4.99695 -4.05063,-9.04758 -9.04758,-9.04758c-4.99695,0 -9.04758,4.05063 -9.04758,9.04758h-3.61894c-2.00859,0 -3.61894,1.61035 -3.61894,3.61894v21.71453c0,1.99861 1.62034,3.61894 3.61894,3.61894h25.33348c1.99861,0 3.61894,-1.62034 3.61894,-3.61894v-21.71453c0,-1.99861 -1.62034,-3.61894 -3.61894,-3.61894z" id="icon" fill="#ffffff"/></g></svg>