<svg version="1.1" xmlns="http://www.w3.org/2000/svg" xmlns:xlink="http://www.w3.org/1999/xlink" width="70" height="70" viewBox="0,0,70,70" odoo-icon:version="1.0" xmlns:odoo-icon="https://ivantodorovich.github.io/odoo-icon" odoo-icon:size="70" odoo-icon:icon-size="0.65" odoo-icon:icon-color="#FFFFFF" odoo-icon:icon-flat-shadow-angle="135" odoo-icon:background-color="#e53935" odoo-icon:background-gradient="0.2" odoo-icon:box-radius="3.5" odoo-icon:odoo-version="14.0"><defs><linearGradient x1="70" y1="0" x2="0" y2="70" gradientUnits="userSpaceOnUse" id="color-1"><stop offset="0" stop-color="#ff6c68"/><stop offset="1" stop-color="#e53935"/></linearGradient></defs><g fill="none" fill-rule="nonzero" stroke="none" stroke-width="1" stroke-linecap="butt" stroke-linejoin="miter" stroke-miterlimit="10" stroke-dasharray="" stroke-dashoffset="0" font-family="none" font-weight="none" font-size="none" text-anchor="none" style="mix-blend-mode: normal"><path d="M3.5,70c-1.933,0 -3.5,-1.567 -3.5,-3.5v-63c0,-1.933 1.567,-3.5 3.5,-3.5h63c1.933,0 3.5,1.567 3.5,3.5v63c0,1.933 -1.567,3.5 -3.5,3.5z" id="box" fill="url(#color-1)"/><path d="M65,1h-61c-1.95033,0 -3.2667,0.63396 -3.9491,1.90189c0.28378,-1.64806 1.72001,-2.90189 3.4491,-2.90189h63c1.72965,0 3.16627,1.25466 3.44938,2.90352c-0.69803,-1.26902 -2.34782,-1.90352 -4.94938,-1.90352z" id="topBoxShadow" fill="#ffffff" opacity="0.383"/><path d="M4,69h61c2.66667,0 4.33333,-1 5,-3v0.5c0,1.933 -1.567,3.5 -3.5,3.5h-63c-1.933,0 -3.5,-1.567 -3.5,-3.5c0,-0.1611 0,-0.32777 0,-0.5c0.66667,2 2,3 4,3z" id="bottomBoxShadow" fill="#000000" opacity="0.383"/><path d="M42.25526,36.99974c0.00053,1.47485 -0.45072,2.91443 -1.29372,4.12495v-0.05002c0,-0.3233 -0.16691,-0.61184 -0.42229,-0.73506l-2.87599,-1.37165l-1.21632,-0.58025c0.53128,-0.33488 0.96252,-0.85142 1.24475,-1.4738c0.23589,-0.51865 0.35752,-1.08152 0.35752,-1.65124c0,-0.33541 -0.05318,-0.65397 -0.12742,-0.96147c-0.36174,-1.49012 -1.5254,-2.58797 -2.92232,-2.58797c-1.3706,0 -2.51688,1.05888 -2.90073,2.50635c-0.08846,0.33172 -0.14954,0.67766 -0.14954,1.04309c-0.00105,0.60395 0.13585,1.2 0.4007,1.74286c0.29171,0.59815 0.724,1.09047 1.25002,1.40745l-1.16472,0.54234l-2.96971,1.38323c-0.25801,0.12058 -0.42755,0.41123 -0.42755,0.73611v0.05055c-0.81351,-1.17262 -1.29372,-2.59271 -1.29372,-4.12495c0,-4.00016 3.25457,-7.25631 7.25579,-7.25631c4.00121,0 7.25579,3.25563 7.25526,7.25579zM58,47.46376h-0.02369v0.00053c0,0.53971 -0.2143,1.0573 -0.59605,1.43905c-0.38174,0.38174 -0.89934,0.59605 -1.43905,0.59552h-41.90559c-0.53971,0 -1.05783,-0.2143 -1.43957,-0.59605c-0.38174,-0.38174 -0.59605,-0.89934 -0.59605,-1.43905v-20.92752c0.00053,-1.12417 0.91145,-2.0351 2.03562,-2.0351h41.90559c0.53971,0 1.0573,0.2143 1.43905,0.59605c0.38174,0.38174 0.59605,0.89934 0.59605,1.43905h0.02369zM50.2361,29.64654c0.07846,0.07846 0.18482,0.12216 0.29592,0.12163c0.01632,0 0.03054,-0.0079 0.04634,-0.00948v0.00948h2.16252v2.20833c0,0.11057 0.0437,0.21694 0.12216,0.29539c0.07846,0.07846 0.18482,0.12216 0.29539,0.12216h1.77446v-0.00316c0.00579,0 0.01053,0.00316 0.01632,0.00316c0.23063,-0.00053 0.41702,-0.18692 0.41755,-0.41755v-4.43193c0,-0.23063 -0.18692,-0.41755 -0.41755,-0.41755c-0.00579,0 -0.01053,0.00316 -0.01632,0.00316v-0.00316h-4.35505v0.00948c-0.0158,-0.00211 -0.03001,-0.00948 -0.04634,-0.00948c-0.23115,0 -0.41755,0.18692 -0.41755,0.41755v1.80657c0,0.11057 0.0437,0.21694 0.12216,0.29539zM19.46851,44.23025c-0.01632,0 -0.03054,0.0079 -0.04634,0.00948v-0.00948h-2.16252v-2.20833c0,-0.23063 -0.1864,-0.41755 -0.41755,-0.41755h-1.77498v0.00316c-0.00579,0 -0.01053,-0.00316 -0.01632,-0.00316c-0.2301,0 -0.41755,0.18692 -0.41755,0.41755v4.43245c0,0.23063 0.18692,0.41755 0.41755,0.41755c0.00579,0 0.01053,-0.00316 0.01632,-0.00316v0.00316h4.35505v-0.00895c0.0158,0.00211 0.03001,0.00948 0.04634,0.00948c0.11057,0 0.21694,-0.0437 0.29539,-0.12216c0.07846,-0.07846 0.12216,-0.18482 0.12216,-0.29539v-1.80657c0,-0.23063 -0.18692,-0.41755 -0.41755,-0.41808zM19.89133,27.5609c0,-0.00579 0.00316,-0.01053 0.00316,-0.01632c0,-0.23063 -0.18692,-0.41755 -0.41755,-0.41755h-4.43245c-0.23063,0 -0.41755,0.18692 -0.41755,0.41755c0,0.00579 0.00316,0.01053 0.00316,0.01632h-0.00316v4.35505h0.00895c-0.00211,0.0158 -0.00948,0.03001 -0.00948,0.04634c0,0.11057 0.0437,0.21694 0.12216,0.29539c0.07846,0.07846 0.18482,0.12216 0.29539,0.12216h1.80605c0.23063,0 0.41755,-0.18692 0.41755,-0.41755c0,-0.01632 -0.0079,-0.03054 -0.00948,-0.04634h0.00948v-2.16252h2.20833c0.23063,0 0.41755,-0.18692 0.41755,-0.41755v-1.77498zM44.87271,37.00026c0,-5.45237 -4.41982,-9.87324 -9.87271,-9.87324c-5.4529,0 -9.87271,4.4214 -9.87271,9.87324c0,5.45237 4.41982,9.87219 9.87271,9.87219c5.4529,0 9.87271,-4.41982 9.87271,-9.87219zM55.36412,42.08405c0.00211,-0.0158 0.00948,-0.03001 0.00948,-0.04634c0,-0.23115 -0.18692,-0.41755 -0.41755,-0.41755h-1.80657c-0.23063,0 -0.41755,0.18692 -0.41755,0.41755c0,0.01632 0.0079,0.03054 0.00948,0.04634h-0.00948v2.16252h-2.20833c-0.23063,0 -0.41755,0.18692 -0.41755,0.41755v1.77498h0.00316c0,0.00579 -0.00316,0.01053 -0.00316,0.01632c0.00053,0.23063 0.18692,0.41702 0.41755,0.41755h4.43245c0.23063,0 0.41755,-0.18692 0.41755,-0.41755c0,-0.00579 -0.00316,-0.01053 -0.00316,-0.01632h0.00316v-4.35505z" id="shadow" fill="#000000" opacity="0.3"/><path d="M57.38026,46.90333l-23.09667,23.09667h-30.78359c-1.933,0 -3.5,-1.567 -3.5,-3.5l0,-30.80643l12.59631,-12.59631c0.36833,-0.36833 0.87716,-0.59611 1.43931,-0.59611h41.90559c0.53971,0 1.0573,0.2143 1.43905,0.59605c0.38174,0.38174 0.59605,0.89934 0.59605,1.43905h0.02369v20.92752l-0.02383,0.02383c-0.00607,0.53129 -0.21967,1.0395 -0.59592,1.41575z" id="flatShadow" fill="#000000" opacity="0.324"/><path d="M42.25526,34.99974c0.00053,1.47485 -0.45072,2.91443 -1.29372,4.12495v-0.05002c0,-0.3233 -0.16691,-0.61184 -0.42229,-0.73506l-2.87599,-1.37165l-1.21632,-0.58025c0.53128,-0.33488 0.96252,-0.85142 1.24475,-1.4738c0.23589,-0.51865 0.35752,-1.08152 0.35752,-1.65124c0,-0.33541 -0.05318,-0.65397 -0.12742,-0.96147c-0.36174,-1.49012 -1.5254,-2.58797 -2.92232,-2.58797c-1.3706,0 -2.51688,1.05888 -2.90073,2.50635c-0.08846,0.33172 -0.14954,0.67766 -0.14954,1.04309c-0.00105,0.60395 0.13585,1.2 0.4007,1.74286c0.29171,0.59815 0.724,1.09047 1.25002,1.40745l-1.16472,0.54234l-2.96971,1.38323c-0.25801,0.12058 -0.42755,0.41123 -0.42755,0.73611v0.05055c-0.81351,-1.17262 -1.29372,-2.59271 -1.29372,-4.12495c0,-4.00016 3.25457,-7.25631 7.25579,-7.25631c4.00121,0 7.25579,3.25563 7.25526,7.25579zM58,45.46376h-0.02369v0.00053c0,0.53971 -0.2143,1.0573 -0.59605,1.43905c-0.38174,0.38174 -0.89934,0.59605 -1.43905,0.59552h-41.90559c-0.53971,0 -1.05783,-0.2143 -1.43957,-0.59605c-0.38174,-0.38174 -0.59605,-0.89934 -0.59605,-1.43905v-20.92752c0.00053,-1.12417 0.91145,-2.0351 2.03562,-2.0351h41.90559c0.53971,0 1.0573,0.2143 1.43905,0.59605c0.38174,0.38174 0.59605,0.89934 0.59605,1.43905h0.02369zM50.2361,27.64654c0.07846,0.07846 0.18482,0.12216 0.29592,0.12163c0.01632,0 0.03054,-0.0079 0.04634,-0.00948v0.00948h2.16252v2.20833c0,0.11057 0.0437,0.21694 0.12216,0.29539c0.07846,0.07846 0.18482,0.12216 0.29539,0.12216h1.77446v-0.00316c0.00579,0 0.01053,0.00316 0.01632,0.00316c0.23063,-0.00053 0.41702,-0.18692 0.41755,-0.41755v-4.43193c0,-0.23063 -0.18692,-0.41755 -0.41755,-0.41755c-0.00579,0 -0.01053,0.00316 -0.01632,0.00316v-0.00316h-4.35505v0.00948c-0.0158,-0.00211 -0.03001,-0.00948 -0.04634,-0.00948c-0.23115,0 -0.41755,0.18692 -0.41755,0.41755v1.80657c0,0.11057 0.0437,0.21694 0.12216,0.29539zM19.46851,42.23025c-0.01632,0 -0.03054,0.0079 -0.04634,0.00948v-0.00948h-2.16252v-2.20833c0,-0.23063 -0.1864,-0.41755 -0.41755,-0.41755h-1.77498v0.00316c-0.00579,0 -0.01053,-0.00316 -0.01632,-0.00316c-0.2301,0 -0.41755,0.18692 -0.41755,0.41755v4.43245c0,0.23063 0.18692,0.41755 0.41755,0.41755c0.00579,0 0.01053,-0.00316 0.01632,-0.00316v0.00316h4.35505v-0.00895c0.0158,0.00211 0.03001,0.00948 0.04634,0.00948c0.11057,0 0.21694,-0.0437 0.29539,-0.12216c0.07846,-0.07846 0.12216,-0.18482 0.12216,-0.29539v-1.80657c0,-0.23063 -0.18692,-0.41755 -0.41755,-0.41808zM19.89133,25.5609c0,-0.00579 0.00316,-0.01053 0.00316,-0.01632c0,-0.23063 -0.18692,-0.41755 -0.41755,-0.41755h-4.43245c-0.23063,0 -0.41755,0.18692 -0.41755,0.41755c0,0.00579 0.00316,0.01053 0.00316,0.01632h-0.00316v4.35505h0.00895c-0.00211,0.0158 -0.00948,0.03001 -0.00948,0.04634c0,0.11057 0.0437,0.21694 0.12216,0.29539c0.07846,0.07846 0.18482,0.12216 0.29539,0.12216h1.80605c0.23063,0 0.41755,-0.18692 0.41755,-0.41755c0,-0.01632 -0.0079,-0.03054 -0.00948,-0.04634h0.00948v-2.16252h2.20833c0.23063,0 0.41755,-0.18692 0.41755,-0.41755v-1.77498zM44.87271,35.00026c0,-5.45237 -4.41982,-9.87324 -9.87271,-9.87324c-5.4529,0 -9.87271,4.4214 -9.87271,9.87324c0,5.45237 4.41982,9.87219 9.87271,9.87219c5.4529,0 9.87271,-4.41982 9.87271,-9.87219zM55.36412,40.08405c0.00211,-0.0158 0.00948,-0.03001 0.00948,-0.04634c0,-0.23115 -0.18692,-0.41755 -0.41755,-0.41755h-1.80657c-0.23063,0 -0.41755,0.18692 -0.41755,0.41755c0,0.01632 0.0079,0.03054 0.00948,0.04634h-0.00948v2.16252h-2.20833c-0.23063,0 -0.41755,0.18692 -0.41755,0.41755v1.77498h0.00316c0,0.00579 -0.00316,0.01053 -0.00316,0.01632c0.00053,0.23063 0.18692,0.41702 0.41755,0.41755h4.43245c0.23063,0 0.41755,-0.18692 0.41755,-0.41755c0,-0.00579 -0.00316,-0.01053 -0.00316,-0.01632h0.00316v-4.35505z" id="icon" fill="#ffffff"/></g></svg>