<svg version="1.1" xmlns="http://www.w3.org/2000/svg" xmlns:xlink="http://www.w3.org/1999/xlink" width="70" height="70" viewBox="0,0,70,70" odoo-icon:version="1.0" xmlns:odoo-icon="https://ivantodorovich.github.io/odoo-icon" odoo-icon:size="70" odoo-icon:icon-size="0.64" odoo-icon:icon-color="#FFFFFF" odoo-icon:icon-flat-shadow-angle="135" odoo-icon:background-color="#5a9442" odoo-icon:background-gradient="0.2" odoo-icon:box-radius="3.5" odoo-icon:odoo-version="14.0"><defs><linearGradient x1="70" y1="0" x2="0" y2="70" gradientUnits="userSpaceOnUse" id="color-1"><stop offset="0" stop-color="#8dc775"/><stop offset="1" stop-color="#5a9442"/></linearGradient></defs><g fill="none" fill-rule="nonzero" stroke="none" stroke-width="1" stroke-linecap="butt" stroke-linejoin="miter" stroke-miterlimit="10" stroke-dasharray="" stroke-dashoffset="0" font-family="none" font-weight="none" font-size="none" text-anchor="none" style="mix-blend-mode: normal"><path d="M3.5,70c-1.933,0 -3.5,-1.567 -3.5,-3.5v-63c0,-1.933 1.567,-3.5 3.5,-3.5h63c1.933,0 3.5,1.567 3.5,3.5v63c0,1.933 -1.567,3.5 -3.5,3.5z" id="box" fill="url(#color-1)"/><path d="M65,1h-61c-1.95033,0 -3.2667,0.63396 -3.9491,1.90189c0.28378,-1.64806 1.72001,-2.90189 3.4491,-2.90189h63c1.72965,0 3.16627,1.25466 3.44938,2.90352c-0.69803,-1.26902 -2.34782,-1.90352 -4.94938,-1.90352z" id="topBoxShadow" fill="#ffffff" opacity="0.383"/><path d="M4,69h61c2.66667,0 4.33333,-1 5,-3v0.5c0,1.933 -1.567,3.5 -3.5,3.5h-63c-1.933,0 -3.5,-1.567 -3.5,-3.5c0,-0.1611 0,-0.32777 0,-0.5c0.66667,2 2,3 4,3z" id="bottomBoxShadow" fill="#000000" opacity="0.383"/><path d="M25.65705,23.03057c0.54505,0.20756 0.90505,0.73011 0.90561,1.31341v7.03112h16.87468v-7.03112c0,-0.58386 0.36056,-1.10754 0.90673,-1.3151c0.54618,-0.20756 1.16379,-0.05569 1.55135,0.38137l11.24979,12.65601c0.47305,0.53268 0.47305,1.33479 0,1.86746l-11.24979,12.65601c-0.38756,0.43705 -1.00517,0.58893 -1.55135,0.38137c-0.54618,-0.20756 -0.9073,-0.73067 -0.90673,-1.3151v-7.03112h-16.87468v7.03112c0,0.58386 -0.36056,1.10754 -0.90673,1.3151c-0.54618,0.20756 -1.16379,0.05569 -1.55135,-0.38137l-11.24979,-12.65601c-0.47305,-0.53268 -0.47305,-1.33479 0,-1.86746l11.24979,-12.65601c0.38812,-0.43705 1.00629,-0.5878 1.55247,-0.37968z" id="shadow" fill="#000000" opacity="0.3"/><path d="M26.56266,22.34399v7.03112l9.26055,0l8.02645,-8.02645c0,0 0,0 0,0c0.13755,-0.13755 0.3048,-0.24771 0.49442,-0.31977c0.54618,-0.20756 1.16379,-0.05569 1.55135,0.38137l11.24979,12.65601c0.47305,0.53268 0.47305,1.33479 0,1.86746l-11.24979,12.65601c-0.01882,0.02122 -0.03818,0.04177 -0.05805,0.06164l-21.34862,21.34862h-20.98876c-1.933,0 -3.5,-1.567 -3.5,-3.5l0,-20.98867l24.1619,-24.1619c0.38985,-0.38985 0.97514,-0.51701 1.49515,-0.31886c0.54505,0.20756 0.90505,0.73011 0.90561,1.31341z" id="flatShadow" fill="#000000" opacity="0.324"/><path d="M25.65705,21.03057c0.54505,0.20756 0.90505,0.73011 0.90561,1.31341v7.03112h16.87468v-7.03112c0,-0.58386 0.36056,-1.10754 0.90673,-1.3151c0.54618,-0.20756 1.16379,-0.05569 1.55135,0.38137l11.24979,12.65601c0.47305,0.53268 0.47305,1.33479 0,1.86746l-11.24979,12.65601c-0.38756,0.43705 -1.00517,0.58893 -1.55135,0.38137c-0.54618,-0.20756 -0.9073,-0.73067 -0.90673,-1.3151v-7.03112h-16.87468v7.03112c0,0.58386 -0.36056,1.10754 -0.90673,1.3151c-0.54618,0.20756 -1.16379,0.05569 -1.55135,-0.38137l-11.24979,-12.65601c-0.47305,-0.53268 -0.47305,-1.33479 0,-1.86746l11.24979,-12.65601c0.38812,-0.43705 1.00629,-0.5878 1.55247,-0.37968z" id="icon" fill="#ffffff"/></g></svg>