<svg version="1.1" xmlns="http://www.w3.org/2000/svg" xmlns:xlink="http://www.w3.org/1999/xlink" width="70" height="70" viewBox="0,0,70,70" odoo-icon:version="1.0" xmlns:odoo-icon="https://ivantodorovich.github.io/odoo-icon" odoo-icon:size="70" odoo-icon:icon-size="0.6" odoo-icon:icon-color="#FFFFFF" odoo-icon:icon-flat-shadow-angle="135" odoo-icon:background-color="#334984" odoo-icon:background-gradient="0.2" odoo-icon:box-radius="3.5" odoo-icon:odoo-version="14.0"><defs><linearGradient x1="70" y1="0" x2="0" y2="70" gradientUnits="userSpaceOnUse" id="color-1"><stop offset="0" stop-color="#667cb7"/><stop offset="1" stop-color="#334984"/></linearGradient></defs><g fill="none" fill-rule="nonzero" stroke="none" stroke-width="1" stroke-linecap="butt" stroke-linejoin="miter" stroke-miterlimit="10" stroke-dasharray="" stroke-dashoffset="0" font-family="none" font-weight="none" font-size="none" text-anchor="none" style="mix-blend-mode: normal"><path d="M3.5,70c-1.933,0 -3.5,-1.567 -3.5,-3.5v-63c0,-1.933 1.567,-3.5 3.5,-3.5h63c1.933,0 3.5,1.567 3.5,3.5v63c0,1.933 -1.567,3.5 -3.5,3.5z" id="box" fill="url(#color-1)"/><path d="M65,1h-61c-1.95033,0 -3.2667,0.63396 -3.9491,1.90189c0.28378,-1.64806 1.72001,-2.90189 3.4491,-2.90189h63c1.72965,0 3.16627,1.25466 3.44938,2.90352c-0.69803,-1.26902 -2.34782,-1.90352 -4.94938,-1.90352z" id="topBoxShadow" fill="#ffffff" opacity="0.383"/><path d="M4,69h61c2.66667,0 4.33333,-1 5,-3v0.5c0,1.933 -1.567,3.5 -3.5,3.5h-63c-1.933,0 -3.5,-1.567 -3.5,-3.5c0,-0.1611 0,-0.32777 0,-0.5c0.66667,2 2,3 4,3z" id="bottomBoxShadow" fill="#000000" opacity="0.383"/><path d="M54.6,21.6v36.4h-39.2v-36.4h5.6v2.8h-2.8v30.8h33.6v-30.8h-2.8v-2.8zM46.2,30h-22.4v-14h22.4zM43.4,18.8h-16.8v8.4h16.8zM35,41.2h2.8v2.8h-5.6v-5.6h2.8zM25.2,42.6c0,-1.3561 0.25536,-2.62483 0.76563,-3.80621c0.51027,-1.18138 1.2105,-2.22387 2.10022,-3.12794c0.88973,-0.90406 1.92506,-1.60429 3.10643,-2.09978c1.18138,-0.49594 2.45728,-0.75085 3.82816,-0.76563c1.3561,0 2.62483,0.25536 3.80621,0.76563c1.18138,0.51027 2.22387,1.2105 3.12794,2.10022c0.90406,0.88973 1.60429,1.92506 2.10022,3.10643c0.49594,1.18138 0.75085,2.45728 0.76563,3.82816c0,1.3561 -0.25536,2.62483 -0.76563,3.80621c-0.51027,1.18138 -1.2105,2.22387 -2.09978,3.12794c-0.88973,0.90406 -1.92506,1.60429 -3.10643,2.10022c-1.18138,0.49594 -2.45728,0.75085 -3.82816,0.76563c-1.3561,0 -2.62483,-0.25536 -3.80621,-0.76563c-1.18138,-0.51027 -2.22387,-1.2105 -3.12794,-2.09978c-0.90406,-0.88973 -1.60429,-1.92506 -2.09978,-3.10643c-0.49594,-1.18138 -0.75085,-2.45728 -0.76563,-3.82816zM42,42.6c0,-0.9623 -0.18234,-1.86682 -0.54701,-2.71264c-0.36467,-0.84582 -0.86778,-1.58234 -1.50931,-2.20954c-0.64154,-0.6272 -1.38522,-1.1303 -2.23104,-1.50931c-0.84582,-0.37901 -1.74989,-0.56896 -2.71264,-0.56896c-0.9623,0 -1.86682,0.18234 -2.71264,0.54701c-0.84582,0.36467 -1.5895,0.86778 -2.23104,1.50931c-0.64154,0.64154 -1.14464,1.38522 -1.50931,2.23104c-0.36467,0.84582 -0.54701,1.74989 -0.54701,2.71264c0,0.9623 0.18234,1.86682 0.54701,2.71264c0.36467,0.84582 0.86061,1.5895 1.48736,2.23104c0.6272,0.64154 1.37088,1.14464 2.23104,1.50931c0.86061,0.36467 1.77184,0.54701 2.73459,0.54701c0.9623,0 1.86682,-0.18234 2.71264,-0.54701c0.84582,-0.36467 1.58234,-0.86061 2.20954,-1.48736c0.6272,-0.6272 1.1303,-1.37088 1.50931,-2.23104c0.37901,-0.86061 0.56896,-1.77184 0.56896,-2.73459z" id="shadow" fill="#000000" opacity="0.3"/><path d="M54.6,56l-14,14h-37.1c-1.933,0 -3.5,-1.567 -3.5,-3.5l0,-31.5l15.4,-15.4l2.8,0l5.6,-5.6h22.4l-2.8,11.2l5.6,-5.6h5.6z" id="flatShadow" fill="#000000" opacity="0.324"/><path d="M54.6,19.6v36.4h-39.2v-36.4h5.6v2.8h-2.8v30.8h33.6v-30.8h-2.8v-2.8zM46.2,28h-22.4v-14h22.4zM43.4,16.8h-16.8v8.4h16.8zM35,39.2h2.8v2.8h-5.6v-5.6h2.8zM25.2,40.6c0,-1.3561 0.25536,-2.62483 0.76563,-3.80621c0.51027,-1.18138 1.2105,-2.22387 2.10022,-3.12794c0.88973,-0.90406 1.92506,-1.60429 3.10643,-2.09978c1.18138,-0.49594 2.45728,-0.75085 3.82816,-0.76563c1.3561,0 2.62483,0.25536 3.80621,0.76563c1.18138,0.51027 2.22387,1.2105 3.12794,2.10022c0.90406,0.88973 1.60429,1.92506 2.10022,3.10643c0.49594,1.18138 0.75085,2.45728 0.76563,3.82816c0,1.3561 -0.25536,2.62483 -0.76563,3.80621c-0.51027,1.18138 -1.2105,2.22387 -2.09978,3.12794c-0.88973,0.90406 -1.92506,1.60429 -3.10643,2.10022c-1.18138,0.49594 -2.45728,0.75085 -3.82816,0.76563c-1.3561,0 -2.62483,-0.25536 -3.80621,-0.76563c-1.18138,-0.51027 -2.22387,-1.2105 -3.12794,-2.09978c-0.90406,-0.88973 -1.60429,-1.92506 -2.09978,-3.10643c-0.49594,-1.18138 -0.75085,-2.45728 -0.76563,-3.82816zM42,40.6c0,-0.9623 -0.18234,-1.86682 -0.54701,-2.71264c-0.36467,-0.84582 -0.86778,-1.58234 -1.50931,-2.20954c-0.64154,-0.6272 -1.38522,-1.1303 -2.23104,-1.50931c-0.84582,-0.37901 -1.74989,-0.56896 -2.71264,-0.56896c-0.9623,0 -1.86682,0.18234 -2.71264,0.54701c-0.84582,0.36467 -1.5895,0.86778 -2.23104,1.50931c-0.64154,0.64154 -1.14464,1.38522 -1.50931,2.23104c-0.36467,0.84582 -0.54701,1.74989 -0.54701,2.71264c0,0.9623 0.18234,1.86682 0.54701,2.71264c0.36467,0.84582 0.86061,1.5895 1.48736,2.23104c0.6272,0.64154 1.37088,1.14464 2.23104,1.50931c0.86061,0.36467 1.77184,0.54701 2.73459,0.54701c0.9623,0 1.86682,-0.18234 2.71264,-0.54701c0.84582,-0.36467 1.58234,-0.86061 2.20954,-1.48736c0.6272,-0.6272 1.1303,-1.37088 1.50931,-2.23104c0.37901,-0.86061 0.56896,-1.77184 0.56896,-2.73459z" id="icon" fill="#ffffff"/></g></svg>