<svg version="1.1" xmlns="http://www.w3.org/2000/svg" xmlns:xlink="http://www.w3.org/1999/xlink" width="70" height="70" viewBox="0,0,70,70" odoo-icon:version="1.0" xmlns:odoo-icon="https://ivantodorovich.github.io/odoo-icon" odoo-icon:size="70" odoo-icon:icon-size="0.58" odoo-icon:icon-color="#FFFFFF" odoo-icon:icon-flat-shadow-angle="135" odoo-icon:background-color="#eea544" odoo-icon:background-gradient="0.2" odoo-icon:box-radius="3.5" odoo-icon:odoo-version="14.0"><defs><linearGradient x1="70" y1="0" x2="0" y2="70" gradientUnits="userSpaceOnUse" id="color-1"><stop offset="0" stop-color="#ffd877"/><stop offset="1" stop-color="#eea544"/></linearGradient></defs><g fill="none" fill-rule="nonzero" stroke="none" stroke-width="1" stroke-linecap="butt" stroke-linejoin="miter" stroke-miterlimit="10" stroke-dasharray="" stroke-dashoffset="0" font-family="none" font-weight="none" font-size="none" text-anchor="none" style="mix-blend-mode: normal"><path d="M3.5,70c-1.933,0 -3.5,-1.567 -3.5,-3.5v-63c0,-1.933 1.567,-3.5 3.5,-3.5h63c1.933,0 3.5,1.567 3.5,3.5v63c0,1.933 -1.567,3.5 -3.5,3.5z" id="box" fill="url(#color-1)"/><path d="M65,1h-61c-1.95033,0 -3.2667,0.63396 -3.9491,1.90189c0.28378,-1.64806 1.72001,-2.90189 3.4491,-2.90189h63c1.72965,0 3.16627,1.25466 3.44938,2.90352c-0.69803,-1.26902 -2.34782,-1.90352 -4.94938,-1.90352z" id="topBoxShadow" fill="#ffffff" opacity="0.383"/><path d="M4,69h61c2.66667,0 4.33333,-1 5,-3v0.5c0,1.933 -1.567,3.5 -3.5,3.5h-63c-1.933,0 -3.5,-1.567 -3.5,-3.5c0,-0.1611 0,-0.32777 0,-0.5c0.66667,2 2,3 4,3z" id="bottomBoxShadow" fill="#000000" opacity="0.383"/><path d="M17.42857,35.53407h17.57143v2.92857h-17.57143zM14.5,28.21265h14.64286v2.92857h-14.64286zM55.5,36.99836v10.25c0,0.80875 -0.65553,1.46429 -1.46429,1.46429h-3.13662c-0.65553,2.58558 -2.98199,4.39614 -5.6491,4.39614c-2.66711,0 -4.99403,-1.81056 -5.6491,-4.39614h-9.20134c-0.73753,2.85594 -3.48336,4.71805 -6.40912,4.346c-2.92576,-0.37158 -5.11914,-2.8611 -5.11914,-5.81029c0,-2.94966 2.19338,-5.43871 5.11914,-5.81029c2.92576,-0.37158 5.67159,1.49053 6.40912,4.346h9.20134c0.3936,-1.50786 1.37291,-2.79597 2.72053,-3.57895v-18.38534h-21.96429v-2.92857h23.42857c0.80875,0 1.46429,0.65553 1.46429,1.46429v2.92857h4.39286c0.58571,-0.00047 1.1152,0.34862 1.34574,0.88747l4.39286,10.25c0.07825,0.18227 0.11855,0.37861 0.11855,0.57681zM27.67857,47.24836c0,-1.61751 -1.31106,-2.92857 -2.92857,-2.92857c-1.61751,0 -2.92857,1.31106 -2.92857,2.92857c0,1.61751 1.31106,2.92857 2.92857,2.92857c1.61657,-0.00141 2.92717,-1.312 2.92857,-2.92857zM45.25,35.53407h6.56609l-3.13943,-7.32143h-3.42619zM48.17857,47.24836c0,-1.61751 -1.31106,-2.92857 -2.92857,-2.92857c-1.61751,0 -2.92857,1.31106 -2.92857,2.92857c0,1.61751 1.31106,2.92857 2.92857,2.92857c1.61657,-0.00141 2.92717,-1.312 2.92857,-2.92857zM52.57143,38.46265h-7.32143v2.92857c2.66336,0.0075 4.9856,1.81337 5.6491,4.39286h1.67233z" id="shadow" fill="#000000" opacity="0.3"/><path d="M20.35714,18.89122h23.42857c0.80875,0 1.46429,0.65553 1.46429,1.46429v2.92857h4.39286c0.58571,-0.00047 1.1152,0.34862 1.34574,0.88747l4.39286,10.25c0.07825,0.18227 0.11855,0.37861 0.11855,0.57681v10.25c0,0.40438 -0.16388,0.77045 -0.42886,1.03543l-23.71621,23.71621h-27.85493c-1.933,0 -3.5,-1.567 -3.5,-3.5l0,-27.25164z" id="flatShadow" fill="#000000" opacity="0.324"/><path d="M17.42857,33.53407h17.57143v2.92857h-17.57143zM14.5,26.21265h14.64286v2.92857h-14.64286zM55.5,34.99836v10.25c0,0.80875 -0.65553,1.46429 -1.46429,1.46429h-3.13662c-0.65553,2.58558 -2.98199,4.39614 -5.6491,4.39614c-2.66711,0 -4.99403,-1.81056 -5.6491,-4.39614h-9.20134c-0.73753,2.85594 -3.48336,4.71805 -6.40912,4.346c-2.92576,-0.37158 -5.11914,-2.8611 -5.11914,-5.81029c0,-2.94966 2.19338,-5.43871 5.11914,-5.81029c2.92576,-0.37158 5.67159,1.49053 6.40912,4.346h9.20134c0.3936,-1.50786 1.37291,-2.79597 2.72053,-3.57895v-18.38534h-21.96429v-2.92857h23.42857c0.80875,0 1.46429,0.65553 1.46429,1.46429v2.92857h4.39286c0.58571,-0.00047 1.1152,0.34862 1.34574,0.88747l4.39286,10.25c0.07825,0.18227 0.11855,0.37861 0.11855,0.57681zM27.67857,45.24836c0,-1.61751 -1.31106,-2.92857 -2.92857,-2.92857c-1.61751,0 -2.92857,1.31106 -2.92857,2.92857c0,1.61751 1.31106,2.92857 2.92857,2.92857c1.61657,-0.00141 2.92717,-1.312 2.92857,-2.92857zM45.25,33.53407h6.56609l-3.13943,-7.32143h-3.42619zM48.17857,45.24836c0,-1.61751 -1.31106,-2.92857 -2.92857,-2.92857c-1.61751,0 -2.92857,1.31106 -2.92857,2.92857c0,1.61751 1.31106,2.92857 2.92857,2.92857c1.61657,-0.00141 2.92717,-1.312 2.92857,-2.92857zM52.57143,36.46265h-7.32143v2.92857c2.66336,0.0075 4.9856,1.81337 5.6491,4.39286h1.67233z" id="icon" fill="#ffffff"/></g></svg>