<svg version="1.1" xmlns="http://www.w3.org/2000/svg" xmlns:xlink="http://www.w3.org/1999/xlink" width="70" height="70" viewBox="0,0,70,70" odoo-icon:version="1.0" xmlns:odoo-icon="https://ivantodorovich.github.io/odoo-icon" odoo-icon:size="70" odoo-icon:icon-size="0.64" odoo-icon:icon-color="#FFFFFF" odoo-icon:icon-flat-shadow-angle="135" odoo-icon:background-color="#5a9442" odoo-icon:background-gradient="0.2" odoo-icon:box-radius="3.5" odoo-icon:odoo-version="14.0"><defs><linearGradient x1="70" y1="0" x2="0" y2="70" gradientUnits="userSpaceOnUse" id="color-1"><stop offset="0" stop-color="#8dc775"/><stop offset="1" stop-color="#5a9442"/></linearGradient></defs><g fill="none" fill-rule="nonzero" stroke="none" stroke-width="1" stroke-linecap="butt" stroke-linejoin="miter" stroke-miterlimit="10" stroke-dasharray="" stroke-dashoffset="0" font-family="none" font-weight="none" font-size="none" text-anchor="none" style="mix-blend-mode: normal"><path d="M3.5,70c-1.933,0 -3.5,-1.567 -3.5,-3.5v-63c0,-1.933 1.567,-3.5 3.5,-3.5h63c1.933,0 3.5,1.567 3.5,3.5v63c0,1.933 -1.567,3.5 -3.5,3.5z" id="box" fill="url(#color-1)"/><path d="M65,1h-61c-1.95033,0 -3.2667,0.63396 -3.9491,1.90189c0.28378,-1.64806 1.72001,-2.90189 3.4491,-2.90189h63c1.72965,0 3.16627,1.25466 3.44938,2.90352c-0.69803,-1.26902 -2.34782,-1.90352 -4.94938,-1.90352z" id="topBoxShadow" fill="#ffffff" opacity="0.383"/><path d="M4,69h61c2.66667,0 4.33333,-1 5,-3v0.5c0,1.933 -1.567,3.5 -3.5,3.5h-63c-1.933,0 -3.5,-1.567 -3.5,-3.5c0,-0.1611 0,-0.32777 0,-0.5c0.66667,2 2,3 4,3z" id="bottomBoxShadow" fill="#000000" opacity="0.383"/><path d="M25.99954,32.49948h-10.79986c-1.49124,0 -2.69968,-1.20901 -2.69968,-2.69968v-10.79986c0,-1.49124 1.20901,-2.69968 2.70025,-2.69968c1.49124,0 2.70025,1.20901 2.70025,2.70025v3.11842c3.74626,-3.68981 9.5154,-7.61865 17.10007,-7.61865c10.00326,0 16.05579,5.93791 16.30981,6.18962c1.04197,1.05522 1.03851,2.75267 -0.00864,3.80328c-1.04658,1.05061 -2.7446,1.05983 -3.80328,0.02189c-0.09907,-0.09446 -4.84871,-4.61485 -12.49846,-4.61485c-6.52484,0 -11.4611,3.97781 -14.39982,7.19991h5.39993c1.49124,0 2.70025,1.20901 2.70025,2.70025c0,1.49124 -1.20901,2.70025 -2.69968,2.70025zM54.79917,41.49937h-10.79986c-1.49124,0 -2.69968,1.20901 -2.69968,2.70025c0,1.49124 1.20901,2.70025 2.70025,2.70025h5.39993c-2.92489,3.2221 -7.87497,7.19991 -14.39982,7.19991c-7.64976,0 -12.39939,-4.52039 -12.49846,-4.61716c-1.05867,-1.03851 -2.7567,-1.02872 -3.80328,0.02189c-1.04658,1.05061 -1.05061,2.74806 -0.00864,3.80328c0.25401,0.25401 6.30654,6.19192 16.30981,6.19192c7.58467,0 13.35381,-3.92827 17.10007,-7.61865v3.11842c0,1.49124 1.20901,2.70025 2.70025,2.70025c1.49124,0 2.70025,-1.20901 2.70025,-2.69968v-10.79986c0,-1.49124 -1.20901,-2.69968 -2.69968,-2.69968z" id="shadow" fill="#000000" opacity="0.3"/><path d="M13.29063,15.09117c0.48868,-0.48868 1.16386,-0.7909 1.90963,-0.7909c1.49124,0 2.70025,1.20901 2.70025,2.70025v3.11842c3.74626,-3.68981 9.5154,-7.61865 17.10007,-7.61865c10.00326,0 16.05579,5.93791 16.30981,6.18962c1.04197,1.05522 1.03851,2.75267 -0.00864,3.80328c-0.00125,0.00125 -0.00249,0.0025 -0.00374,0.00375l-26.61603,26.61603c1.41458,0.88827 3.47774,1.92325 6.07346,2.51214l11.33511,-11.33511c0.48849,-0.48849 1.16329,-0.79063 1.90877,-0.79063h10.79986l0.00115,0.00115c1.49067,0 2.69968,1.20843 2.69968,2.69968v10.79986c0,0.74526 -0.30219,1.42012 -0.79077,1.9087l-15.09124,15.09124h-38.11799c-1.933,0 -3.5,-1.567 -3.5,-3.5l0,-38.1182z" id="flatShadow" fill="#000000" opacity="0.324"/><path d="M25.99954,30.49948h-10.79986c-1.49124,0 -2.69968,-1.20901 -2.69968,-2.69968v-10.79986c0,-1.49124 1.20901,-2.69968 2.70025,-2.69968c1.49124,0 2.70025,1.20901 2.70025,2.70025v3.11842c3.74626,-3.68981 9.5154,-7.61865 17.10007,-7.61865c10.00326,0 16.05579,5.93791 16.30981,6.18962c1.04197,1.05522 1.03851,2.75267 -0.00864,3.80328c-1.04658,1.05061 -2.7446,1.05983 -3.80328,0.02189c-0.09907,-0.09446 -4.84871,-4.61485 -12.49846,-4.61485c-6.52484,0 -11.4611,3.97781 -14.39982,7.19991h5.39993c1.49124,0 2.70025,1.20901 2.70025,2.70025c0,1.49124 -1.20901,2.70025 -2.69968,2.70025zM54.79917,39.49937h-10.79986c-1.49124,0 -2.69968,1.20901 -2.69968,2.70025c0,1.49124 1.20901,2.70025 2.70025,2.70025h5.39993c-2.92489,3.2221 -7.87497,7.19991 -14.39982,7.19991c-7.64976,0 -12.39939,-4.52039 -12.49846,-4.61716c-1.05867,-1.03851 -2.7567,-1.02872 -3.80328,0.02189c-1.04658,1.05061 -1.05061,2.74806 -0.00864,3.80328c0.25401,0.25401 6.30654,6.19192 16.30981,6.19192c7.58467,0 13.35381,-3.92827 17.10007,-7.61865v3.11842c0,1.49124 1.20901,2.70025 2.70025,2.70025c1.49124,0 2.70025,-1.20901 2.70025,-2.69968v-10.79986c0,-1.49124 -1.20901,-2.69968 -2.69968,-2.69968z" id="icon" fill="#ffffff"/></g></svg>