<svg version="1.1" xmlns="http://www.w3.org/2000/svg" xmlns:xlink="http://www.w3.org/1999/xlink" width="70" height="70" viewBox="0,0,70,70" odoo-icon:version="1.0" xmlns:odoo-icon="https://ivantodorovich.github.io/odoo-icon" odoo-icon:size="70" odoo-icon:icon-size="0.6" odoo-icon:icon-color="#FFFFFF" odoo-icon:icon-flat-shadow-angle="135" odoo-icon:background-color="#00897b" odoo-icon:background-gradient="0.2" odoo-icon:box-radius="3.5" odoo-icon:odoo-version="14.0"><defs><linearGradient x1="70" y1="0" x2="0" y2="70" gradientUnits="userSpaceOnUse" id="color-1"><stop offset="0" stop-color="#33bcae"/><stop offset="1" stop-color="#00897b"/></linearGradient></defs><g fill="none" fill-rule="nonzero" stroke="none" stroke-width="1" stroke-linecap="butt" stroke-linejoin="miter" stroke-miterlimit="10" stroke-dasharray="" stroke-dashoffset="0" font-family="none" font-weight="none" font-size="none" text-anchor="none" style="mix-blend-mode: normal"><path d="M3.5,70c-1.933,0 -3.5,-1.567 -3.5,-3.5v-63c0,-1.933 1.567,-3.5 3.5,-3.5h63c1.933,0 3.5,1.567 3.5,3.5v63c0,1.933 -1.567,3.5 -3.5,3.5z" id="box" fill="url(#color-1)"/><path d="M65,1h-61c-1.95033,0 -3.2667,0.63396 -3.9491,1.90189c0.28378,-1.64806 1.72001,-2.90189 3.4491,-2.90189h63c1.72965,0 3.16627,1.25466 3.44938,2.90352c-0.69803,-1.26902 -2.34782,-1.90352 -4.94938,-1.90352z" id="topBoxShadow" fill="#ffffff" opacity="0.383"/><path d="M4,69h61c2.66667,0 4.33333,-1 5,-3v0.5c0,1.933 -1.567,3.5 -3.5,3.5h-63c-1.933,0 -3.5,-1.567 -3.5,-3.5c0,-0.1611 0,-0.32777 0,-0.5c0.66667,2 2,3 4,3z" id="bottomBoxShadow" fill="#000000" opacity="0.383"/><path d="M50.74984,21.25037v36.74963h-31.49969v-36.74963h10.4999c0,-0.72449 0.13692,-1.40153 0.41034,-2.03026c0.27342,-0.62873 0.64931,-1.18943 1.12811,-1.68166c0.47838,-0.49224 1.03235,-0.86813 1.66108,-1.12811c0.62873,-0.25956 1.31249,-0.39648 2.05084,-0.41034c0.72449,0 1.40153,0.13692 2.03026,0.41034c0.62873,0.27342 1.18943,0.64931 1.68166,1.12811c0.49224,0.47838 0.86813,1.03235 1.12811,1.66108c0.25956,0.62873 0.39648,1.31249 0.41034,2.05084zM27.12508,26.50031h15.74984v-2.62497h-5.24995v-2.62497c0,-0.36918 -0.06846,-0.71105 -0.20496,-1.02521c-0.13692,-0.31458 -0.3213,-0.58799 -0.55355,-0.82025c-0.23226,-0.23226 -0.51281,-0.42378 -0.84083,-0.57413c-0.32802,-0.15036 -0.66989,-0.21882 -1.02521,-0.20496c-0.36918,0 -0.71105,0.06846 -1.02521,0.20496c-0.31458,0.13692 -0.58799,0.3213 -0.82025,0.55355c-0.23226,0.23226 -0.42378,0.51281 -0.57413,0.84083c-0.15036,0.32802 -0.21882,0.66989 -0.20496,1.02521v2.62497h-5.24995zM47.36594,35.29797l-2.78919,-2.78919l-13.51462,13.51462l-5.6397,-5.6397l-2.78919,2.78919l8.42848,8.42848z" id="shadow" fill="#000000" opacity="0.3"/><path d="M50.74984,56l-14,14h-33.24984c-1.933,0 -3.5,-1.567 -3.5,-3.5l0,-27.99948l19.25016,-19.25016l8.32567,0l3.76479,-3.76479c0.46636,-0.46636 1.00294,-0.82465 1.60897,-1.07524c0.62873,-0.25956 1.31249,-0.39648 2.05084,-0.41034c0.72449,0 1.40153,0.13692 2.03026,0.41034c0.62873,0.27342 1.18943,0.64931 1.68166,1.12811c0.49224,0.47838 0.86813,1.03235 1.12811,1.66108c0.25956,0.62873 0.39648,1.31249 0.41034,2.05084h10.49906z" id="flatShadow" fill="#000000" opacity="0.324"/><path d="M50.74984,19.25037v36.74963h-31.49969v-36.74963h10.4999c0,-0.72449 0.13692,-1.40153 0.41034,-2.03026c0.27342,-0.62873 0.64931,-1.18943 1.12811,-1.68166c0.47838,-0.49224 1.03235,-0.86813 1.66108,-1.12811c0.62873,-0.25956 1.31249,-0.39648 2.05084,-0.41034c0.72449,0 1.40153,0.13692 2.03026,0.41034c0.62873,0.27342 1.18943,0.64931 1.68166,1.12811c0.49224,0.47838 0.86813,1.03235 1.12811,1.66108c0.25956,0.62873 0.39648,1.31249 0.41034,2.05084zM27.12508,24.50031h15.74984v-2.62497h-5.24995v-2.62497c0,-0.36918 -0.06846,-0.71105 -0.20496,-1.02521c-0.13692,-0.31458 -0.3213,-0.58799 -0.55355,-0.82025c-0.23226,-0.23226 -0.51281,-0.42378 -0.84083,-0.57413c-0.32802,-0.15036 -0.66989,-0.21882 -1.02521,-0.20496c-0.36918,0 -0.71105,0.06846 -1.02521,0.20496c-0.31458,0.13692 -0.58799,0.3213 -0.82025,0.55355c-0.23226,0.23226 -0.42378,0.51281 -0.57413,0.84083c-0.15036,0.32802 -0.21882,0.66989 -0.20496,1.02521v2.62497h-5.24995zM47.36594,33.29797l-2.78919,-2.78919l-13.51462,13.51462l-5.6397,-5.6397l-2.78919,2.78919l8.42848,8.42848z" id="icon" fill="#ffffff"/></g></svg>