<svg version="1.1" xmlns="http://www.w3.org/2000/svg" xmlns:xlink="http://www.w3.org/1999/xlink" width="70" height="70" viewBox="0,0,70,70" odoo-icon:version="1.0" xmlns:odoo-icon="https://ivantodorovich.github.io/odoo-icon" odoo-icon:size="70" odoo-icon:icon-size="0.58" odoo-icon:icon-color="#FFFFFF" odoo-icon:icon-flat-shadow-angle="135" odoo-icon:background-color="#1e88e5" odoo-icon:background-gradient="0.2" odoo-icon:box-radius="3.5" odoo-icon:odoo-version="14.0"><defs><linearGradient x1="70" y1="0" x2="0" y2="70" gradientUnits="userSpaceOnUse" id="color-1"><stop offset="0" stop-color="#51bbff"/><stop offset="1" stop-color="#1e88e5"/></linearGradient></defs><g fill="none" fill-rule="nonzero" stroke="none" stroke-width="1" stroke-linecap="butt" stroke-linejoin="miter" stroke-miterlimit="10" stroke-dasharray="" stroke-dashoffset="0" font-family="none" font-weight="none" font-size="none" text-anchor="none" style="mix-blend-mode: normal"><path d="M3.5,70c-1.933,0 -3.5,-1.567 -3.5,-3.5v-63c0,-1.933 1.567,-3.5 3.5,-3.5h63c1.933,0 3.5,1.567 3.5,3.5v63c0,1.933 -1.567,3.5 -3.5,3.5z" id="box" fill="url(#color-1)"/><path d="M65,1h-61c-1.95033,0 -3.2667,0.63396 -3.9491,1.90189c0.28378,-1.64806 1.72001,-2.90189 3.4491,-2.90189h63c1.72965,0 3.16627,1.25466 3.44938,2.90352c-0.69803,-1.26902 -2.34782,-1.90352 -4.94938,-1.90352z" id="topBoxShadow" fill="#ffffff" opacity="0.383"/><path d="M4,69h61c2.66667,0 4.33333,-1 5,-3v0.5c0,1.933 -1.567,3.5 -3.5,3.5h-63c-1.933,0 -3.5,-1.567 -3.5,-3.5c0,-0.1611 0,-0.32777 0,-0.5c0.66667,2 2,3 4,3z" id="bottomBoxShadow" fill="#000000" opacity="0.383"/><path d="M35.38073,30.71985l-17.10043,17.12051c-0.38667,0.38667 -0.68651,0.83356 -0.89992,1.33984c-0.21341,0.50669 -0.31991,1.04 -0.31991,1.59994c0,0.55994 0.1065,1.09325 0.31991,1.59994c0.21341,0.50669 0.51324,0.94661 0.89992,1.32018c0.38667,0.37316 0.82659,0.66685 1.32018,0.87984c0.49317,0.21341 1.02689,0.32687 1.59994,0.33998c0.54683,0 1.07318,-0.1065 1.57987,-0.31991c0.50669,-0.21341 0.96013,-0.51324 1.35991,-0.89992l10.84035,-10.82028v3.62014l-9.02004,9.02004c-0.63981,0.64022 -1.36687,1.12684 -2.17995,1.45985c-0.81349,0.33342 -1.67326,0.50013 -2.58014,0.50013c-0.91999,0 -1.78017,-0.17327 -2.58014,-0.52021c-0.79997,-0.34653 -1.51351,-0.83356 -2.14022,-1.45985c-0.6267,-0.6267 -1.10677,-1.33328 -1.44019,-2.12015c-0.33342,-0.78686 -0.51324,-1.65319 -0.53987,-2.60021c0,-0.91999 0.16671,-1.78017 0.50013,-2.58014c0.33342,-0.79997 0.82004,-1.52662 1.45985,-2.17995l16.12024,-16.12024c-0.05325,-0.3068 -0.09339,-0.61319 -0.12002,-0.91999c-0.02662,-0.3068 -0.04014,-0.62015 -0.04014,-0.94006c0,-1.05352 0.13353,-2.0669 0.40019,-3.04013c0.26666,-0.97324 0.65333,-1.89322 1.16002,-2.75996c0.50669,-0.86674 1.11332,-1.64664 1.8199,-2.34011c0.70658,-0.69347 1.48689,-1.29355 2.34011,-1.80024c0.85322,-0.50669 1.76665,-0.89336 2.73989,-1.16002c0.97324,-0.26666 1.99358,-0.40674 3.0602,-0.41985c0.7201,0 1.37998,0.05325 1.98006,0.16016c0.60008,0.1065 1.18664,0.26666 1.7601,0.48006c0.57346,0.21341 1.12684,0.46655 1.66015,0.75983c0.53331,0.29328 1.10677,0.61319 1.71996,0.96013l-7.88009,7.88009l2.03986,2.03986l7.88009,-7.88009c0.31991,0.55994 0.62015,1.11988 0.89992,1.68022c0.28017,0.55994 0.53331,1.13995 0.75983,1.74003c0.22651,0.60008 0.40674,1.20016 0.53987,1.80024c0.13353,0.60008 0.19989,1.23989 0.19989,1.92026c0,0.87984 -0.1065,1.75354 -0.31991,2.61987c-0.21341,0.86674 -0.52676,1.69333 -0.94006,2.48019c-0.4133,0.78686 -0.89336,1.52662 -1.44019,2.22009c-0.54683,0.69347 -1.18009,1.30666 -1.90018,1.83997c-0.61319,-0.24003 -1.23989,-0.42681 -1.88011,-0.55994c-0.63981,-0.13353 -1.29355,-0.21341 -1.95999,-0.24003c0.86674,-0.31991 1.66015,-0.75983 2.38025,-1.32018c0.7201,-0.55994 1.33328,-1.20016 1.83997,-1.91985c0.50669,-0.7201 0.90688,-1.51351 1.20016,-2.38025c0.29328,-0.86674 0.43337,-1.76665 0.41985,-2.70015c0,-0.99986 -0.16016,-1.95999 -0.48006,-2.87997l-7.20014,7.18007l-5.64034,-5.64034l7.18007,-7.20014c-0.90688,-0.31991 -1.84653,-0.48006 -2.82017,-0.48006c-1.23989,0 -2.39991,0.23348 -3.48005,0.70002c-1.08014,0.46655 -2.02675,1.10677 -2.84024,1.92026c-0.81349,0.81349 -1.4533,1.7601 -1.91985,2.84024c-0.46655,1.08014 -0.70658,2.24672 -0.7201,3.50012c0,0.45344 0.04014,0.89992 0.12002,1.33984c0.07987,0.43992 0.17327,0.88681 0.28017,1.33984zM46.50085,39.56007c1.23989,0 2.39991,0.23348 3.48005,0.70002c1.08014,0.46655 2.03331,1.10677 2.8599,1.92026c0.82659,0.81349 1.46682,1.7601 1.92026,2.84024c0.45344,1.08014 0.68651,2.24672 0.70002,3.50012c0,1.23989 -0.23348,2.39991 -0.70002,3.48005c-0.46655,1.08014 -1.10677,2.03331 -1.91985,2.8599c-0.81349,0.82659 -1.7601,1.46682 -2.84024,1.92026c-1.08014,0.45344 -2.24672,0.68651 -3.50012,0.70002c-1.23989,0 -2.39991,-0.23348 -3.48005,-0.70002c-1.08014,-0.46655 -2.03331,-1.10677 -2.8599,-1.91985c-0.82659,-0.81349 -1.46682,-1.7601 -1.91985,-2.84024c-0.45344,-1.08014 -0.68651,-2.24672 -0.70002,-3.50012c0,-1.23989 0.23348,-2.39991 0.70002,-3.48005c0.46655,-1.08014 1.10677,-2.03331 1.92026,-2.8599c0.81349,-0.82659 1.7601,-1.46682 2.84024,-1.91985c1.08014,-0.45344 2.24672,-0.68651 3.50012,-0.70002zM40.10068,48.52031c0,0.87984 0.16671,1.70685 0.50013,2.48019c0.33342,0.77335 0.78686,1.4533 1.35991,2.03986c0.57346,0.58656 1.25341,1.04656 2.03986,1.37998c0.78686,0.33342 1.62001,0.50013 2.50026,0.50013c0.6267,0 1.23989,-0.08684 1.83997,-0.2601c0.60008,-0.17327 1.16002,-0.43992 1.68022,-0.79997l-8.86029,-8.86029c-0.34653,0.52021 -0.60663,1.08014 -0.7799,1.68022c-0.17327,0.60008 -0.26666,1.21327 -0.28017,1.83997zM51.84095,52.0405c0.34653,-0.52021 0.60663,-1.08014 0.7799,-1.68022c0.17327,-0.60008 0.26666,-1.21327 0.28017,-1.83997c0,-0.87984 -0.16671,-1.70685 -0.50013,-2.48019c-0.33342,-0.77335 -0.79342,-1.44675 -1.37998,-2.0202c-0.58656,-0.57346 -1.26652,-1.03345 -2.03986,-1.37998c-0.77335,-0.34653 -1.59994,-0.52021 -2.48019,-0.52021c-0.6267,0 -1.23989,0.08684 -1.83997,0.2601c-0.60008,0.17327 -1.16002,0.43992 -1.68022,0.79997z" id="shadow" fill="#000000" opacity="0.3"/><path d="M35.72601,17.97263c0.0246,-0.0246 0.04932,-0.04909 0.07417,-0.07348c0.70658,-0.69347 1.48689,-1.29355 2.34011,-1.80024c0.85322,-0.50669 1.76665,-0.89336 2.73989,-1.16002c0.97324,-0.26666 1.99358,-0.40674 3.0602,-0.41985c0.7201,0 1.37998,0.05325 1.98006,0.16016c0.60008,0.1065 1.18664,0.26666 1.7601,0.48006c0.57346,0.21341 1.12684,0.46655 1.66015,0.75983c0.53331,0.29328 1.10677,0.61319 1.71996,0.96013l-7.88009,7.88009l2.03986,2.03986l7.88009,-7.88009c0.31991,0.55994 0.62015,1.11988 0.89992,1.68022c0.28017,0.55994 0.53331,1.13995 0.75983,1.74003c0.22651,0.60008 0.40674,1.20016 0.53987,1.80024c0.13353,0.60008 0.19989,1.23989 0.19989,1.92026c0,0.87984 -0.1065,1.75354 -0.31991,2.61987c-0.21341,0.86674 -0.52676,1.69333 -0.94006,2.48019c-0.4133,0.78686 -0.89336,1.52662 -1.44019,2.22009c-0.2405,0.30499 -0.49771,0.59445 -0.77168,0.86842l-3.52906,3.52906c0.50959,0.11515 1.00353,0.27604 1.4818,0.48262c1.08014,0.46655 2.03331,1.10677 2.8599,1.92026c0.82659,0.81349 1.46682,1.7601 1.92026,2.84024c0.45344,1.08014 0.68651,2.24672 0.70002,3.50012c0,1.23989 -0.23348,2.39991 -0.70002,3.48005c-0.46655,1.08014 -1.10677,2.03331 -1.91985,2.8599c-0.01669,0.01696 -0.03343,0.03383 -0.05023,0.05063l-17.0887,17.0887h-32.20229c-1.933,0 -3.5,-1.567 -3.5,-3.5l0,-12.80136z" id="flatShadow" fill="#000000" opacity="0.324"/><path d="M35.38073,28.71985l-17.10043,17.12051c-0.38667,0.38667 -0.68651,0.83356 -0.89992,1.33984c-0.21341,0.50669 -0.31991,1.04 -0.31991,1.59994c0,0.55994 0.1065,1.09325 0.31991,1.59994c0.21341,0.50669 0.51324,0.94661 0.89992,1.32018c0.38667,0.37316 0.82659,0.66685 1.32018,0.87984c0.49317,0.21341 1.02689,0.32687 1.59994,0.33998c0.54683,0 1.07318,-0.1065 1.57987,-0.31991c0.50669,-0.21341 0.96013,-0.51324 1.35991,-0.89992l10.84035,-10.82028v3.62014l-9.02004,9.02004c-0.63981,0.64022 -1.36687,1.12684 -2.17995,1.45985c-0.81349,0.33342 -1.67326,0.50013 -2.58014,0.50013c-0.91999,0 -1.78017,-0.17327 -2.58014,-0.52021c-0.79997,-0.34653 -1.51351,-0.83356 -2.14022,-1.45985c-0.6267,-0.6267 -1.10677,-1.33328 -1.44019,-2.12015c-0.33342,-0.78686 -0.51324,-1.65319 -0.53987,-2.60021c0,-0.91999 0.16671,-1.78017 0.50013,-2.58014c0.33342,-0.79997 0.82004,-1.52662 1.45985,-2.17995l16.12024,-16.12024c-0.05325,-0.3068 -0.09339,-0.61319 -0.12002,-0.91999c-0.02662,-0.3068 -0.04014,-0.62015 -0.04014,-0.94006c0,-1.05352 0.13353,-2.0669 0.40019,-3.04013c0.26666,-0.97324 0.65333,-1.89322 1.16002,-2.75996c0.50669,-0.86674 1.11332,-1.64664 1.8199,-2.34011c0.70658,-0.69347 1.48689,-1.29355 2.34011,-1.80024c0.85322,-0.50669 1.76665,-0.89336 2.73989,-1.16002c0.97324,-0.26666 1.99358,-0.40674 3.0602,-0.41985c0.7201,0 1.37998,0.05325 1.98006,0.16016c0.60008,0.1065 1.18664,0.26666 1.7601,0.48006c0.57346,0.21341 1.12684,0.46655 1.66015,0.75983c0.53331,0.29328 1.10677,0.61319 1.71996,0.96013l-7.88009,7.88009l2.03986,2.03986l7.88009,-7.88009c0.31991,0.55994 0.62015,1.11988 0.89992,1.68022c0.28017,0.55994 0.53331,1.13995 0.75983,1.74003c0.22651,0.60008 0.40674,1.20016 0.53987,1.80024c0.13353,0.60008 0.19989,1.23989 0.19989,1.92026c0,0.87984 -0.1065,1.75354 -0.31991,2.61987c-0.21341,0.86674 -0.52676,1.69333 -0.94006,2.48019c-0.4133,0.78686 -0.89336,1.52662 -1.44019,2.22009c-0.54683,0.69347 -1.18009,1.30666 -1.90018,1.83997c-0.61319,-0.24003 -1.23989,-0.42681 -1.88011,-0.55994c-0.63981,-0.13353 -1.29355,-0.21341 -1.95999,-0.24003c0.86674,-0.31991 1.66015,-0.75983 2.38025,-1.32018c0.7201,-0.55994 1.33328,-1.20016 1.83997,-1.91985c0.50669,-0.7201 0.90688,-1.51351 1.20016,-2.38025c0.29328,-0.86674 0.43337,-1.76665 0.41985,-2.70015c0,-0.99986 -0.16016,-1.95999 -0.48006,-2.87997l-7.20014,7.18007l-5.64034,-5.64034l7.18007,-7.20014c-0.90688,-0.31991 -1.84653,-0.48006 -2.82017,-0.48006c-1.23989,0 -2.39991,0.23348 -3.48005,0.70002c-1.08014,0.46655 -2.02675,1.10677 -2.84024,1.92026c-0.81349,0.81349 -1.4533,1.7601 -1.91985,2.84024c-0.46655,1.08014 -0.70658,2.24672 -0.7201,3.50012c0,0.45344 0.04014,0.89992 0.12002,1.33984c0.07987,0.43992 0.17327,0.88681 0.28017,1.33984zM46.50085,37.56007c1.23989,0 2.39991,0.23348 3.48005,0.70002c1.08014,0.46655 2.03331,1.10677 2.8599,1.92026c0.82659,0.81349 1.46682,1.7601 1.92026,2.84024c0.45344,1.08014 0.68651,2.24672 0.70002,3.50012c0,1.23989 -0.23348,2.39991 -0.70002,3.48005c-0.46655,1.08014 -1.10677,2.03331 -1.91985,2.8599c-0.81349,0.82659 -1.7601,1.46682 -2.84024,1.92026c-1.08014,0.45344 -2.24672,0.68651 -3.50012,0.70002c-1.23989,0 -2.39991,-0.23348 -3.48005,-0.70002c-1.08014,-0.46655 -2.03331,-1.10677 -2.8599,-1.91985c-0.82659,-0.81349 -1.46682,-1.7601 -1.91985,-2.84024c-0.45344,-1.08014 -0.68651,-2.24672 -0.70002,-3.50012c0,-1.23989 0.23348,-2.39991 0.70002,-3.48005c0.46655,-1.08014 1.10677,-2.03331 1.92026,-2.8599c0.81349,-0.82659 1.7601,-1.46682 2.84024,-1.91985c1.08014,-0.45344 2.24672,-0.68651 3.50012,-0.70002zM40.10068,46.52031c0,0.87984 0.16671,1.70685 0.50013,2.48019c0.33342,0.77335 0.78686,1.4533 1.35991,2.03986c0.57346,0.58656 1.25341,1.04656 2.03986,1.37998c0.78686,0.33342 1.62001,0.50013 2.50026,0.50013c0.6267,0 1.23989,-0.08684 1.83997,-0.2601c0.60008,-0.17327 1.16002,-0.43992 1.68022,-0.79997l-8.86029,-8.86029c-0.34653,0.52021 -0.60663,1.08014 -0.7799,1.68022c-0.17327,0.60008 -0.26666,1.21327 -0.28017,1.83997zM51.84095,50.0405c0.34653,-0.52021 0.60663,-1.08014 0.7799,-1.68022c0.17327,-0.60008 0.26666,-1.21327 0.28017,-1.83997c0,-0.87984 -0.16671,-1.70685 -0.50013,-2.48019c-0.33342,-0.77335 -0.79342,-1.44675 -1.37998,-2.0202c-0.58656,-0.57346 -1.26652,-1.03345 -2.03986,-1.37998c-0.77335,-0.34653 -1.59994,-0.52021 -2.48019,-0.52021c-0.6267,0 -1.23989,0.08684 -1.83997,0.2601c-0.60008,0.17327 -1.16002,0.43992 -1.68022,0.79997z" id="icon" fill="#ffffff"/></g></svg>