<svg version="1.1" xmlns="http://www.w3.org/2000/svg" xmlns:xlink="http://www.w3.org/1999/xlink" width="70" height="70" viewBox="0,0,70,70" odoo-icon:version="1.0" xmlns:odoo-icon="https://ivantodorovich.github.io/odoo-icon" odoo-icon:size="70" odoo-icon:icon-size="0.6" odoo-icon:icon-color="#FFFFFF" odoo-icon:icon-flat-shadow-angle="135" odoo-icon:background-color="#334984" odoo-icon:background-gradient="0.2" odoo-icon:box-radius="3.5" odoo-icon:odoo-version="14.0"><defs><linearGradient x1="70" y1="0" x2="0" y2="70" gradientUnits="userSpaceOnUse" id="color-1"><stop offset="0" stop-color="#667cb7"/><stop offset="1" stop-color="#334984"/></linearGradient></defs><g fill="none" fill-rule="nonzero" stroke="none" stroke-width="1" stroke-linecap="butt" stroke-linejoin="miter" stroke-miterlimit="10" stroke-dasharray="" stroke-dashoffset="0" font-family="none" font-weight="none" font-size="none" text-anchor="none" style="mix-blend-mode: normal"><path d="M3.5,70c-1.933,0 -3.5,-1.567 -3.5,-3.5v-63c0,-1.933 1.567,-3.5 3.5,-3.5h63c1.933,0 3.5,1.567 3.5,3.5v63c0,1.933 -1.567,3.5 -3.5,3.5z" id="box" fill="url(#color-1)"/><path d="M65,1h-61c-1.95033,0 -3.2667,0.63396 -3.9491,1.90189c0.28378,-1.64806 1.72001,-2.90189 3.4491,-2.90189h63c1.72965,0 3.16627,1.25466 3.44938,2.90352c-0.69803,-1.26902 -2.34782,-1.90352 -4.94938,-1.90352z" id="topBoxShadow" fill="#ffffff" opacity="0.383"/><path d="M4,69h61c2.66667,0 4.33333,-1 5,-3v0.5c0,1.933 -1.567,3.5 -3.5,3.5h-63c-1.933,0 -3.5,-1.567 -3.5,-3.5c0,-0.1611 0,-0.32777 0,-0.5c0.66667,2 2,3 4,3z" id="bottomBoxShadow" fill="#000000" opacity="0.383"/><path d="M17,35.49832h18v3h-18zM14,27.99832h15v3h-15zM56,36.99832v10.5c0,0.82848 -0.67152,1.5 -1.5,1.5h-3.21312c-0.67152,2.64864 -3.05472,4.50336 -5.78688,4.50336c-2.73216,0 -5.11584,-1.85472 -5.78688,-4.50336h-9.42576c-0.75552,2.9256 -3.56832,4.83312 -6.56544,4.452c-2.99712,-0.38064 -5.244,-2.93088 -5.244,-5.952c0,-3.0216 2.24688,-5.57136 5.244,-5.952c2.99712,-0.38064 5.80992,1.52688 6.56544,4.452h9.42576c0.4032,-1.54464 1.4064,-2.86416 2.78688,-3.66624v-18.83376h-22.5v-3h24c0.82848,0 1.5,0.67152 1.5,1.5v3h4.5c0.6,-0.00048 1.1424,0.35712 1.37856,0.90912l4.5,10.5c0.08016,0.18672 0.12144,0.38784 0.12144,0.59088zM27.5,47.49832c0,-1.65696 -1.34304,-3 -3,-3c-1.65696,0 -3,1.34304 -3,3c0,1.65696 1.34304,3 3,3c1.656,-0.00144 2.99856,-1.344 3,-3zM45.5,35.49832h6.72624l-3.216,-7.5h-3.50976zM48.5,47.49832c0,-1.65696 -1.34304,-3 -3,-3c-1.65696,0 -3,1.34304 -3,3c0,1.65696 1.34304,3 3,3c1.656,-0.00144 2.99856,-1.344 3,-3zM53,38.49832h-7.5v3c2.72832,0.00768 5.1072,1.8576 5.78688,4.5h1.71312z" id="shadow" fill="#000000" opacity="0.3"/><path d="M20,18.49832h24c0.82848,0 1.5,0.67152 1.5,1.5v3h4.5c0.6,-0.00048 1.1424,0.35712 1.37856,0.90912l4.5,10.5c0.08016,0.18672 0.12144,0.38784 0.12144,0.59088v10.5c0,0.41424 -0.16788,0.78924 -0.43932,1.06068l-23.441,23.441h-28.61968c-1.933,0 -3.5,-1.567 -3.5,-3.5l0,-28.00168z" id="flatShadow" fill="#000000" opacity="0.324"/><path d="M17,33.49832h18v3h-18zM14,25.99832h15v3h-15zM56,34.99832v10.5c0,0.82848 -0.67152,1.5 -1.5,1.5h-3.21312c-0.67152,2.64864 -3.05472,4.50336 -5.78688,4.50336c-2.73216,0 -5.11584,-1.85472 -5.78688,-4.50336h-9.42576c-0.75552,2.9256 -3.56832,4.83312 -6.56544,4.452c-2.99712,-0.38064 -5.244,-2.93088 -5.244,-5.952c0,-3.0216 2.24688,-5.57136 5.244,-5.952c2.99712,-0.38064 5.80992,1.52688 6.56544,4.452h9.42576c0.4032,-1.54464 1.4064,-2.86416 2.78688,-3.66624v-18.83376h-22.5v-3h24c0.82848,0 1.5,0.67152 1.5,1.5v3h4.5c0.6,-0.00048 1.1424,0.35712 1.37856,0.90912l4.5,10.5c0.08016,0.18672 0.12144,0.38784 0.12144,0.59088zM27.5,45.49832c0,-1.65696 -1.34304,-3 -3,-3c-1.65696,0 -3,1.34304 -3,3c0,1.65696 1.34304,3 3,3c1.656,-0.00144 2.99856,-1.344 3,-3zM45.5,33.49832h6.72624l-3.216,-7.5h-3.50976zM48.5,45.49832c0,-1.65696 -1.34304,-3 -3,-3c-1.65696,0 -3,1.34304 -3,3c0,1.65696 1.34304,3 3,3c1.656,-0.00144 2.99856,-1.344 3,-3zM53,36.49832h-7.5v3c2.72832,0.00768 5.1072,1.8576 5.78688,4.5h1.71312z" id="icon" fill="#ffffff"/></g></svg>