<svg version="1.1" xmlns="http://www.w3.org/2000/svg" xmlns:xlink="http://www.w3.org/1999/xlink" width="70" height="70" viewBox="0,0,70,70"><!-- Generated with https://ivantodorovich.github.io/odoo-icon --><defs><linearGradient x1="70" y1="0" x2="0" y2="70" gradientUnits="userSpaceOnUse" id="color-1"><stop offset="0" stop-color="#ffbb5a"/><stop offset="1" stop-color="#d88827"/></linearGradient></defs><g fill="none" fill-rule="nonzero" stroke="none" stroke-width="1" stroke-linecap="butt" stroke-linejoin="miter" stroke-miterlimit="10" stroke-dasharray="" stroke-dashoffset="0" font-family="none" font-weight="none" font-size="none" text-anchor="none" style="mix-blend-mode: normal"><path d="M3.5,70c-1.933,0 -3.5,-1.567 -3.5,-3.5v-63c0,-1.933 1.567,-3.5 3.5,-3.5h63c1.933,0 3.5,1.567 3.5,3.5v63c0,1.933 -1.567,3.5 -3.5,3.5z" id="box" fill="url(#color-1)"/><path d="M65,1h-61c-1.95033,0 -3.2667,0.63396 -3.9491,1.90189c0.28378,-1.64806 1.72001,-2.90189 3.4491,-2.90189h63c1.72965,0 3.16627,1.25466 3.44938,2.90352c-0.69803,-1.26902 -2.34782,-1.90352 -4.94938,-1.90352z" id="topBoxShadow" fill="#ffffff" opacity="0.383"/><path d="M4,69h61c2.66667,0 4.33333,-1 5,-3v0.5c0,1.933 -1.567,3.5 -3.5,3.5h-63c-1.933,0 -3.5,-1.567 -3.5,-3.5c0,-0.1611 0,-0.32777 0,-0.5c0.66667,2 2,3 4,3z" id="bottomBoxShadow" fill="#000000" opacity="0.383"/><path d="M37.68718,14.17407c-0.31386,0 -3.06031,0.49917 -3.06031,0.49917c-0.12755,4.08124 -2.98197,7.69747 -8.85701,8.3252l-1.25546,-2.26284l-2.4617,0.24306l1.10832,5.89362l-11.16103,-0.48059l1.1967,4.0702c12.02378,3.87434 11.47489,14.95753 8.856,24.8641c4.61004,5.1986 13.90797,4.68838 18.24332,4.22738c0.30382,-6.10052 5.13934,-6.32651 13.32945,-3.15823c1.10832,-1.72651 1.84402,-3.53085 4.37452,-4.97262l-4.57087,-13.68249l-2.69723,0.60814c1.07869,-2.0695 3.15823,-4.89428 4.94349,-6.21854l1.53015,-8.52356c-8.69028,-0.61769 -14.35943,-4.54727 -19.51836,-9.43251z" id="shadow" fill="#000000" opacity="0.3"/><path d="M55.67539,30.12963l-2.37212,2.37212c-1.02191,1.25001 -1.95829,2.6702 -2.57137,3.84642l2.69723,-0.60814l4.57087,13.68249l-3.43472,3.43472c-0.31796,0.51186 -0.61265,1.02827 -0.9398,1.5379l-15.60487,15.60487h-34.52062c-1.933,0 -3.5,-1.567 -3.5,-3.5l0,-30.10831l12,-12l4.44814,0.19154l5.60457,-5.60457l2.4617,-0.24306l1.25546,2.26284c0.20676,-0.02209 0.40979,-0.04789 0.60908,-0.07727l8.24793,-8.24793c0,0 2.74352,-0.49864 3.0598,-0.49917l0.0005,-0.0005c5.15893,4.88524 10.82808,8.81483 19.51836,9.43251z" id="flatShadow" fill="#000000" opacity="0.324"/><path d="M37.68718,12.17407c-0.31386,0 -3.06031,0.49917 -3.06031,0.49917c-0.12755,4.08124 -2.98197,7.69747 -8.85701,8.3252l-1.25546,-2.26284l-2.4617,0.24306l1.10832,5.89362l-11.16103,-0.48059l1.1967,4.0702c12.02378,3.87434 11.47489,14.95753 8.856,24.8641c4.61004,5.1986 13.90797,4.68838 18.24332,4.22738c0.30382,-6.10052 5.13934,-6.32651 13.32945,-3.15823c1.10832,-1.72651 1.84402,-3.53085 4.37452,-4.97262l-4.57087,-13.68249l-2.69723,0.60814c1.07869,-2.0695 3.15823,-4.89428 4.94349,-6.21854l1.53015,-8.52356c-8.69028,-0.61769 -14.35943,-4.54727 -19.51836,-9.43251z" id="icon" fill="#ffffff"/></g></svg>