<svg version="1.1" xmlns="http://www.w3.org/2000/svg" xmlns:xlink="http://www.w3.org/1999/xlink" width="70" height="70" viewBox="0,0,70,70" odoo-icon:version="1.0" xmlns:odoo-icon="https://ivantodorovich.github.io/odoo-icon" odoo-icon:size="70" odoo-icon:icon-size="0.58" odoo-icon:icon-color="#FFFFFF" odoo-icon:icon-flat-shadow-angle="135" odoo-icon:background-color="#1e88e5" odoo-icon:background-gradient="0.2" odoo-icon:box-radius="3.5" odoo-icon:odoo-version="14.0"><defs><linearGradient x1="70" y1="0" x2="0" y2="70" gradientUnits="userSpaceOnUse" id="color-1"><stop offset="0" stop-color="#51bbff"/><stop offset="1" stop-color="#1e88e5"/></linearGradient></defs><g fill="none" fill-rule="nonzero" stroke="none" stroke-width="1" stroke-linecap="butt" stroke-linejoin="miter" stroke-miterlimit="10" stroke-dasharray="" stroke-dashoffset="0" font-family="none" font-weight="none" font-size="none" text-anchor="none" style="mix-blend-mode: normal"><path d="M3.5,70c-1.933,0 -3.5,-1.567 -3.5,-3.5v-63c0,-1.933 1.567,-3.5 3.5,-3.5h63c1.933,0 3.5,1.567 3.5,3.5v63c0,1.933 -1.567,3.5 -3.5,3.5z" id="box" fill="url(#color-1)"/><path d="M65,1h-61c-1.95033,0 -3.2667,0.63396 -3.9491,1.90189c0.28378,-1.64806 1.72001,-2.90189 3.4491,-2.90189h63c1.72965,0 3.16627,1.25466 3.44938,2.90352c-0.69803,-1.26902 -2.34782,-1.90352 -4.94938,-1.90352z" id="topBoxShadow" fill="#ffffff" opacity="0.383"/><path d="M4,69h61c2.66667,0 4.33333,-1 5,-3v0.5c0,1.933 -1.567,3.5 -3.5,3.5h-63c-1.933,0 -3.5,-1.567 -3.5,-3.5c0,-0.1611 0,-0.32777 0,-0.5c0.66667,2 2,3 4,3z" id="bottomBoxShadow" fill="#000000" opacity="0.383"/><path d="M46.1819,49.11358c1.54668,0 2.79547,-1.24879 2.79547,-2.79547c0,-1.54668 -1.24879,-2.79547 -2.79547,-2.79547c-1.54668,0 -2.79547,1.24879 -2.79547,2.79547c0,1.54668 1.24879,2.79547 2.79547,2.79547M48.97737,32.34073h-4.65927v4.65927h8.31173l-3.6529,-4.65927M23.8181,49.11358c1.54668,0 2.79547,-1.24879 2.79547,-2.79547c0,-1.54668 -1.24879,-2.79547 -2.79547,-2.79547c-1.54668,0 -2.79547,1.24879 -2.79547,2.79547c0,1.54668 1.24879,2.79547 2.79547,2.79547M49.90905,29.54525l5.59095,7.45475v9.3181h-3.72715c0,3.09381 -2.49714,5.59095 -5.59095,5.59095c-3.09381,0 -5.59095,-2.49714 -5.59095,-5.59095h-11.1819c0,3.09381 -2.49714,5.59095 -5.59095,5.59095c-3.09381,0 -5.59095,-2.49714 -5.59095,-5.59095h-3.72715v-20.5c0,-2.06865 1.6585,-3.72715 3.72715,-3.72715h26.09095v7.45475h5.59095M18.22715,25.8181v16.77285h1.41652c1.02516,-1.13698 2.51593,-1.8638 4.17443,-1.8638c1.6585,0 3.14972,0.72682 4.17443,1.8638h12.59842v-16.77285h-22.3638M31.27285,27.6819l6.52263,6.52263l-6.52263,6.52263v-4.65927h-9.3181v-3.72715h9.3181z" id="shadow" fill="#000000" opacity="0.3"/><path d="M49.90905,27.54525l5.59095,7.45475v9.3181l-25.6819,25.6819h-26.3181c-1.933,0 -3.5,-1.567 -3.5,-3.5l0,-29.73339l15.58783,-15.58783c0.67321,-0.67321 1.60499,-1.08783 2.63932,-1.08783h26.09095v7.45475l5.5905,0z" id="flatShadow" fill="#000000" opacity="0.324"/><path d="M46.1819,47.11358c1.54668,0 2.79547,-1.24879 2.79547,-2.79547c0,-1.54668 -1.24879,-2.79547 -2.79547,-2.79547c-1.54668,0 -2.79547,1.24879 -2.79547,2.79547c0,1.54668 1.24879,2.79547 2.79547,2.79547M48.97737,30.34073h-4.65927v4.65927h8.31173l-3.6529,-4.65927M23.8181,47.11358c1.54668,0 2.79547,-1.24879 2.79547,-2.79547c0,-1.54668 -1.24879,-2.79547 -2.79547,-2.79547c-1.54668,0 -2.79547,1.24879 -2.79547,2.79547c0,1.54668 1.24879,2.79547 2.79547,2.79547M49.90905,27.54525l5.59095,7.45475v9.3181h-3.72715c0,3.09381 -2.49714,5.59095 -5.59095,5.59095c-3.09381,0 -5.59095,-2.49714 -5.59095,-5.59095h-11.1819c0,3.09381 -2.49714,5.59095 -5.59095,5.59095c-3.09381,0 -5.59095,-2.49714 -5.59095,-5.59095h-3.72715v-20.5c0,-2.06865 1.6585,-3.72715 3.72715,-3.72715h26.09095v7.45475h5.59095M18.22715,23.8181v16.77285h1.41652c1.02516,-1.13698 2.51593,-1.8638 4.17443,-1.8638c1.6585,0 3.14972,0.72682 4.17443,1.8638h12.59842v-16.77285h-22.3638M31.27285,25.6819l6.52263,6.52263l-6.52263,6.52263v-4.65927h-9.3181v-3.72715h9.3181z" id="icon" fill="#ffffff"/></g></svg>