<svg version="1.1" xmlns="http://www.w3.org/2000/svg" xmlns:xlink="http://www.w3.org/1999/xlink" width="70" height="70" viewBox="0,0,70,70" odoo-icon:version="1.0" xmlns:odoo-icon="https://ivantodorovich.github.io/odoo-icon" odoo-icon:size="70" odoo-icon:icon-size="0.62" odoo-icon:icon-color="#FFFFFF" odoo-icon:icon-flat-shadow-angle="135" odoo-icon:background-color="#d81b60" odoo-icon:background-gradient="0.2" odoo-icon:box-radius="3.5" odoo-icon:odoo-version="16.0"><defs><linearGradient x1="70" y1="0" x2="0" y2="70" gradientUnits="userSpaceOnUse" id="color-1"><stop offset="0" stop-color="#ff4e93"/><stop offset="1" stop-color="#d81b60"/></linearGradient></defs><g fill="none" fill-rule="nonzero" stroke="none" stroke-width="1" stroke-linecap="butt" stroke-linejoin="miter" stroke-miterlimit="10" stroke-dasharray="" stroke-dashoffset="0" font-family="none" font-weight="none" font-size="none" text-anchor="none" style="mix-blend-mode: normal"><path d="M3.5,70c-1.933,0 -3.5,-1.567 -3.5,-3.5v-63c0,-1.933 1.567,-3.5 3.5,-3.5h63c1.933,0 3.5,1.567 3.5,3.5v63c0,1.933 -1.567,3.5 -3.5,3.5z" id="box" fill="url(#color-1)"/><path d="M65,1h-61c-1.95033,0 -3.2667,0.63396 -3.9491,1.90189c0.28378,-1.64806 1.72001,-2.90189 3.4491,-2.90189h63c1.72965,0 3.16627,1.25466 3.44938,2.90352c-0.69803,-1.26902 -2.34782,-1.90352 -4.94938,-1.90352z" id="topBoxShadow" fill="#ffffff" opacity="0.383"/><path d="M4,69h61c2.66667,0 4.33333,-1 5,-3v0.5c0,1.933 -1.567,3.5 -3.5,3.5h-63c-1.933,0 -3.5,-1.567 -3.5,-3.5c0,-0.1611 0,-0.32777 0,-0.5c0.66667,2 2,3 4,3z" id="bottomBoxShadow" fill="#000000" opacity="0.383"/><path d="M57,35.33902c0,1.85722 -4.51347,3.36025 -10.08338,3.36025c-5.56946,0 -10.08338,-1.50346 -10.08338,-3.36025v-3.36025c0,1.85546 4.51347,3.36025 10.08338,3.36025c5.56946,0 10.08338,-1.50346 10.08338,-3.36025zM57,23.02442v6.67341c0,1.84974 -4.51919,3.36245 -10.08338,3.36245c-5.56418,0 -10.08338,-1.51226 -10.08338,-3.36245v-6.67341c0,1.84798 4.51919,3.36069 10.08338,3.36069c5.56418,0 10.08338,-1.51226 10.08338,-3.36025zM33.16676,43.19118zM33.16676,49.86415c0,1.84974 -4.51919,3.36245 -10.08338,3.36245c-5.56418,0 -10.08338,-1.51226 -10.08338,-3.36245v-6.67341c0,1.84798 4.51919,3.36069 10.08338,3.36069c5.56418,0 10.08338,-1.51226 10.08338,-3.36025zM57,20.73644c0,1.85722 -4.51347,3.36069 -10.08338,3.36069c-5.56946,0 -10.08338,-1.50522 -10.08338,-3.36025v-2.24222c0,-1.85722 4.51347,-3.36025 10.08338,-3.36025c5.56946,0 10.08338,1.50522 10.08338,3.36069zM33.16676,55.50533c0,1.85722 -4.51347,3.36025 -10.08338,3.36025c-5.56946,0 -10.08338,-1.50346 -10.08338,-3.36025v-3.36025c0,1.85546 4.51347,3.35849 10.08338,3.35849c5.56946,0 10.08338,-1.50346 10.08338,-3.36025zM33.16676,40.9032c0,1.85722 -4.51347,3.36025 -10.08338,3.36025c-5.56946,0 -10.08338,-1.50522 -10.08338,-3.36025v-2.24222c0,-1.85722 4.51347,-3.36069 10.08338,-3.36069c5.56946,0 10.08338,1.50522 10.08338,3.36069zM49.66659,53.63359h-3.66648v-4.74843l-4.74843,4.74843l-2.58497,-2.58497l4.74843,-4.74843h-4.74843v-3.66648h10.99989z" id="shadow" fill="#000000" opacity="0.3"/><path d="M56.48463,34.40307l-6.81804,6.81804v10.41249l-18.36641,18.36641h-27.80019c-1.933,0 -3.5,-1.567 -3.5,-3.5l0,-17.38774l13.51545,-13.51545c0.92528,-0.92528 3.02442,-1.67114 5.70878,-2.04181l18.12439,-18.12439c1.33494,-1.33494 5.11365,-2.2962 9.56801,-2.2962c5.56946,0 10.08338,1.50522 10.08338,3.36069v2.24134c0,0.372 -0.18108,0.7298 -0.51545,1.06418l-4.03042,4.03042c0.97696,-0.21502 1.83559,-0.48509 2.53592,-0.79667l2.00995,-2.00995v6.67341c0,0.36978 -0.1806,0.72609 -0.51405,1.05953c0,0 0,0 0,0l-4.02993,4.02993c0.97297,-0.21349 1.82834,-0.48162 2.52678,-0.79133l2.0172,-2.0172v3.36025c0,0.37197 -0.18105,0.72973 -0.51537,1.06405z" id="flatShadow" fill="#000000" opacity="0.324"/><path d="M57,33.33902c0,1.85722 -4.51347,3.36025 -10.08338,3.36025c-5.56946,0 -10.08338,-1.50346 -10.08338,-3.36025v-3.36025c0,1.85546 4.51347,3.36025 10.08338,3.36025c5.56946,0 10.08338,-1.50346 10.08338,-3.36025zM57,21.02442v6.67341c0,1.84974 -4.51919,3.36245 -10.08338,3.36245c-5.56418,0 -10.08338,-1.51226 -10.08338,-3.36245v-6.67341c0,1.84798 4.51919,3.36069 10.08338,3.36069c5.56418,0 10.08338,-1.51226 10.08338,-3.36025zM33.16676,41.19118zM33.16676,47.86415c0,1.84974 -4.51919,3.36245 -10.08338,3.36245c-5.56418,0 -10.08338,-1.51226 -10.08338,-3.36245v-6.67341c0,1.84798 4.51919,3.36069 10.08338,3.36069c5.56418,0 10.08338,-1.51226 10.08338,-3.36025zM57,18.73644c0,1.85722 -4.51347,3.36069 -10.08338,3.36069c-5.56946,0 -10.08338,-1.50522 -10.08338,-3.36025v-2.24222c0,-1.85722 4.51347,-3.36025 10.08338,-3.36025c5.56946,0 10.08338,1.50522 10.08338,3.36069zM33.16676,53.50533c0,1.85722 -4.51347,3.36025 -10.08338,3.36025c-5.56946,0 -10.08338,-1.50346 -10.08338,-3.36025v-3.36025c0,1.85546 4.51347,3.35849 10.08338,3.35849c5.56946,0 10.08338,-1.50346 10.08338,-3.36025zM33.16676,38.9032c0,1.85722 -4.51347,3.36025 -10.08338,3.36025c-5.56946,0 -10.08338,-1.50522 -10.08338,-3.36025v-2.24222c0,-1.85722 4.51347,-3.36069 10.08338,-3.36069c5.56946,0 10.08338,1.50522 10.08338,3.36069zM49.66659,51.63359h-3.66648v-4.74843l-4.74843,4.74843l-2.58497,-2.58497l4.74843,-4.74843h-4.74843v-3.66648h10.99989z" id="icon" fill="#ffffff"/></g></svg>