<svg version="1.1" xmlns="http://www.w3.org/2000/svg" xmlns:xlink="http://www.w3.org/1999/xlink" width="70" height="70" viewBox="0,0,70,70" odoo-icon:version="1.0" xmlns:odoo-icon="https://ivantodorovich.github.io/odoo-icon" odoo-icon:size="70" odoo-icon:icon-size="0.55" odoo-icon:icon-color="#FFFFFF" odoo-icon:icon-flat-shadow-angle="135" odoo-icon:background-color="#fdd835" odoo-icon:background-gradient="0.2" odoo-icon:box-radius="3.5" odoo-icon:odoo-version="14.0"><defs><linearGradient x1="70" y1="0" x2="0" y2="70" gradientUnits="userSpaceOnUse" id="color-1"><stop offset="0" stop-color="#ffff68"/><stop offset="1" stop-color="#fdd835"/></linearGradient></defs><g fill="none" fill-rule="nonzero" stroke="none" stroke-width="1" stroke-linecap="butt" stroke-linejoin="miter" stroke-miterlimit="10" stroke-dasharray="" stroke-dashoffset="0" font-family="none" font-weight="none" font-size="none" text-anchor="none" style="mix-blend-mode: normal"><path d="M3.5,70c-1.933,0 -3.5,-1.567 -3.5,-3.5v-63c0,-1.933 1.567,-3.5 3.5,-3.5h63c1.933,0 3.5,1.567 3.5,3.5v63c0,1.933 -1.567,3.5 -3.5,3.5z" id="box" fill="url(#color-1)"/><path d="M65,1h-61c-1.95033,0 -3.2667,0.63396 -3.9491,1.90189c0.28378,-1.64806 1.72001,-2.90189 3.4491,-2.90189h63c1.72965,0 3.16627,1.25466 3.44938,2.90352c-0.69803,-1.26902 -2.34782,-1.90352 -4.94938,-1.90352z" id="topBoxShadow" fill="#ffffff" opacity="0.383"/><path d="M4,69h61c2.66667,0 4.33333,-1 5,-3v0.5c0,1.933 -1.567,3.5 -3.5,3.5h-63c-1.933,0 -3.5,-1.567 -3.5,-3.5c0,-0.1611 0,-0.32777 0,-0.5c0.66667,2 2,3 4,3z" id="bottomBoxShadow" fill="#000000" opacity="0.383"/><path d="M49.62439,17.5c2.69075,0 4.87517,2.18398 4.87517,4.87517v29.24967c0,2.69253 -2.18264,4.87517 -4.87472,4.87517h-29.24967c-2.69253,0 -4.87472,-2.18264 -4.87472,-4.87472v-29.24967c0,-2.69075 2.18398,-4.87472 4.87517,-4.87472zM20.37472,21.67852c-0.38465,0 -0.6962,0.312 -0.6962,0.69664v29.24967c0,0.3842 0.312,0.69664 0.69664,0.69664h29.24967c0.38465,0 0.69664,-0.312 0.69664,-0.6962v-29.24967c0,-0.38465 -0.312,-0.6962 -0.6962,-0.6962zM44.13637,30.81556l-15.32125,15.32125c-0.52014,0.56026 -1.30504,0.79113 -2.04581,0.60171c-0.74077,-0.18943 -1.31841,-0.76885 -1.50605,-1.51006c-0.18943,-0.73988 0.04011,-1.52433 0.59903,-2.04447l15.32125,-15.32125c0.82367,-0.76662 2.10598,-0.74433 2.90246,0.04992c0.7947,0.79648 0.81654,2.07923 0.05037,2.9029z" id="shadow" fill="#000000" opacity="0.3"/><path d="M54.49955,20.37517v29.24967c0,1.34632 -0.5457,2.56516 -1.42794,3.44739c0,0 0,0 0,0l-16.92778,16.92778h-32.64384c-1.933,0 -3.5,-1.567 -3.5,-3.5l0,-32.64195l16.92872,-16.92872c0.8824,-0.8824 2.10124,-1.42844 3.44689,-1.42844l29.24877,-0.00089c2.69075,0 4.87517,2.18398 4.87517,4.87517z" id="flatShadow" fill="#000000" opacity="0.324"/><path d="M49.62439,15.5c2.69075,0 4.87517,2.18398 4.87517,4.87517v29.24967c0,2.69253 -2.18264,4.87517 -4.87472,4.87517h-29.24967c-2.69253,0 -4.87472,-2.18264 -4.87472,-4.87472v-29.24967c0,-2.69075 2.18398,-4.87472 4.87517,-4.87472zM20.37472,19.67852c-0.38465,0 -0.6962,0.312 -0.6962,0.69664v29.24967c0,0.3842 0.312,0.69664 0.69664,0.69664h29.24967c0.38465,0 0.69664,-0.312 0.69664,-0.6962v-29.24967c0,-0.38465 -0.312,-0.6962 -0.6962,-0.6962zM44.13637,28.81556l-15.32125,15.32125c-0.52014,0.56026 -1.30504,0.79113 -2.04581,0.60171c-0.74077,-0.18943 -1.31841,-0.76885 -1.50605,-1.51006c-0.18943,-0.73988 0.04011,-1.52433 0.59903,-2.04447l15.32125,-15.32125c0.82367,-0.76662 2.10598,-0.74433 2.90246,0.04992c0.7947,0.79648 0.81654,2.07923 0.05037,2.9029z" id="icon" fill="#ffffff"/></g></svg>