<svg version="1.1" xmlns="http://www.w3.org/2000/svg" xmlns:xlink="http://www.w3.org/1999/xlink" width="70" height="70" viewBox="0,0,70,70" odoo-icon:version="1.0" xmlns:odoo-icon="https://ivantodorovich.github.io/odoo-icon" odoo-icon:size="70" odoo-icon:icon-size="0.59" odoo-icon:icon-color="#FFFFFF" odoo-icon:icon-flat-shadow-angle="135" odoo-icon:background-color="#039be5" odoo-icon:background-gradient="0.2" odoo-icon:box-radius="3.5" odoo-icon:odoo-version="14.0"><defs><linearGradient x1="70" y1="0" x2="0" y2="70" gradientUnits="userSpaceOnUse" id="color-1"><stop offset="0" stop-color="#36ceff"/><stop offset="1" stop-color="#039be5"/></linearGradient></defs><g fill="none" fill-rule="nonzero" stroke="none" stroke-width="1" stroke-linecap="butt" stroke-linejoin="miter" stroke-miterlimit="10" stroke-dasharray="" stroke-dashoffset="0" font-family="none" font-weight="none" font-size="none" text-anchor="none" style="mix-blend-mode: normal"><path d="M3.5,70c-1.933,0 -3.5,-1.567 -3.5,-3.5v-63c0,-1.933 1.567,-3.5 3.5,-3.5h63c1.933,0 3.5,1.567 3.5,3.5v63c0,1.933 -1.567,3.5 -3.5,3.5z" id="box" fill="url(#color-1)"/><path d="M65,1h-61c-1.95033,0 -3.2667,0.63396 -3.9491,1.90189c0.28378,-1.64806 1.72001,-2.90189 3.4491,-2.90189h63c1.72965,0 3.16627,1.25466 3.44938,2.90352c-0.69803,-1.26902 -2.34782,-1.90352 -4.94938,-1.90352z" id="topBoxShadow" fill="#ffffff" opacity="0.383"/><path d="M4,69h61c2.66667,0 4.33333,-1 5,-3v0.5c0,1.933 -1.567,3.5 -3.5,3.5h-63c-1.933,0 -3.5,-1.567 -3.5,-3.5c0,-0.1611 0,-0.32777 0,-0.5c0.66667,2 2,3 4,3z" id="bottomBoxShadow" fill="#000000" opacity="0.383"/><path d="M38.7759,16.00092c-8.92127,0 -17.60289,9.40198 -19.39091,21c-0.63572,4.12254 -0.31372,7.96723 0.76498,11.21116c-0.37168,-0.58328 -0.7153,-1.18404 -1.0304,-1.79999c-1.48397,-2.90491 -2.21261,-5.87376 -2.24619,-8.64941c-1.05478,3.25727 -0.72634,7.40925 1.30134,11.37814c2.48861,4.87188 7.32783,8.26025 12.56633,8.75981c0.5175,0.06624 1.03822,0.09936 1.55987,0.09936c8.92127,0 17.60335,-9.40198 19.39091,-21c0.83352,-5.40824 0.0207,-10.33854 -1.98859,-14.06133c1.94305,1.96467 3.28487,4.1138 4.00846,6.2436c0.05612,-2.73195 -1.26362,-5.90872 -3.97212,-8.60755c-3.02957,-3.01853 -6.93821,-4.5738 -10.33164,-4.55724c-0.2093,-0.01058 -0.41952,-0.01748 -0.6325,-0.01748zM38.27266,19.26739c3.61377,0 6.61713,1.82759 8.59835,4.80978c1.42969,3.85343 1.12378,9.73134 0.08786,13.28439c-1.43935,4.93628 -3.64735,8.62825 -7.16683,11.32984c-3.75453,2.88237 -8.84491,2.19145 -10.41076,-0.52072c-0.1219,-0.21114 -0.22356,-0.43332 -0.3036,-0.66332c1.0534,1.26316 3.43115,1.34275 5.55406,0.11684c2.28943,-1.32159 3.41413,-3.65885 2.51253,-5.22056c-0.9016,-1.56171 -3.48819,-1.75629 -5.77762,-0.4347c-0.8832,0.51014 -1.59207,1.17116 -2.07921,1.88095c0.04554,-0.1173 0.0943,-0.23368 0.14628,-0.34868c-1.67901,2.20019 -2.20663,4.68328 -1.15414,6.50626c3.47715,4.12576 8.81087,2.29127 12.64499,-0.5773c3.40953,-2.55071 6.49752,-6.60793 8.02795,-11.85839c0.1127,-0.38732 0.21666,-0.77694 0.31142,-1.16886c-0.02576,0.19918 -0.0529,0.39928 -0.08372,0.59984c-1.51019,9.79482 -8.84169,17.73491 -16.37606,17.73491c-3.20253,0 -5.92574,-1.43521 -7.88305,-3.83733c-2.38005,-4.34794 -1.43659,-12.76551 0.41998,-16.63458c2.40305,-5.00804 5.94184,-11.03038 12.06815,-10.49402c4.13542,0.36202 5.66906,5.2684 3.51533,10.44158c-0.77372,1.85841 -1.90395,3.53235 -3.25313,4.8797c2.23791,-1.49133 4.19752,-3.78535 5.35212,-6.5587c2.15373,-5.17364 0.6233,-10.19042 -3.51579,-10.49402c-7.70319,-0.5658 -12.36577,5.26058 -15.95102,11.54374c-0.81006,1.74985 -1.44165,3.57743 -1.88463,5.45424c0.04508,-0.68126 0.12006,-1.36023 0.22402,-2.03505c1.50973,-9.79482 8.84169,-17.73491 16.3756,-17.73491z" id="shadow" fill="#000000" opacity="0.3"/><path d="M49.73958,18.57472c2.70849,2.69883 4.02824,5.8756 3.97212,8.60755l-1.76791,1.76791c0.14736,1.91572 0.07219,3.94663 -0.25195,6.04982c-0.9493,6.15919 -3.84298,11.69905 -7.68429,15.54037l-19.45963,19.45963h-21.0479c-1.933,0 -3.5,-1.567 -3.5,-3.5v-19.97001l27.06959,-27.06959c3.39159,-3.39159 7.52188,-5.45903 11.70493,-5.45948l0.00092,-0.00092c0.21298,0 0.4232,0.0069 0.6325,0.01748c3.39343,-0.01656 7.30207,1.53871 10.33164,4.55724z" id="flatShadow" fill="#000000" opacity="0.324"/><path d="M38.7759,14.00092c-8.92127,0 -17.60289,9.40198 -19.39091,21c-0.63572,4.12254 -0.31372,7.96723 0.76498,11.21116c-0.37168,-0.58328 -0.7153,-1.18404 -1.0304,-1.79999c-1.48397,-2.90491 -2.21261,-5.87376 -2.24619,-8.64941c-1.05478,3.25727 -0.72634,7.40925 1.30134,11.37814c2.48861,4.87188 7.32783,8.26025 12.56633,8.75981c0.5175,0.06624 1.03822,0.09936 1.55987,0.09936c8.92127,0 17.60335,-9.40198 19.39091,-21c0.83352,-5.40824 0.0207,-10.33854 -1.98859,-14.06133c1.94305,1.96467 3.28487,4.1138 4.00846,6.2436c0.05612,-2.73195 -1.26362,-5.90872 -3.97212,-8.60755c-3.02957,-3.01853 -6.93821,-4.5738 -10.33164,-4.55724c-0.2093,-0.01058 -0.41952,-0.01748 -0.6325,-0.01748zM38.27266,17.26739c3.61377,0 6.61713,1.82759 8.59835,4.80978c1.42969,3.85343 1.12378,9.73134 0.08786,13.28439c-1.43935,4.93628 -3.64735,8.62825 -7.16683,11.32984c-3.75453,2.88237 -8.84491,2.19145 -10.41076,-0.52072c-0.1219,-0.21114 -0.22356,-0.43332 -0.3036,-0.66332c1.0534,1.26316 3.43115,1.34275 5.55406,0.11684c2.28943,-1.32159 3.41413,-3.65885 2.51253,-5.22056c-0.9016,-1.56171 -3.48819,-1.75629 -5.77762,-0.4347c-0.8832,0.51014 -1.59207,1.17116 -2.07921,1.88095c0.04554,-0.1173 0.0943,-0.23368 0.14628,-0.34868c-1.67901,2.20019 -2.20663,4.68328 -1.15414,6.50626c3.47715,4.12576 8.81087,2.29127 12.64499,-0.5773c3.40953,-2.55071 6.49752,-6.60793 8.02795,-11.85839c0.1127,-0.38732 0.21666,-0.77694 0.31142,-1.16886c-0.02576,0.19918 -0.0529,0.39928 -0.08372,0.59984c-1.51019,9.79482 -8.84169,17.73491 -16.37606,17.73491c-3.20253,0 -5.92574,-1.43521 -7.88305,-3.83733c-2.38005,-4.34794 -1.43659,-12.76551 0.41998,-16.63458c2.40305,-5.00804 5.94184,-11.03038 12.06815,-10.49402c4.13542,0.36202 5.66906,5.2684 3.51533,10.44158c-0.77372,1.85841 -1.90395,3.53235 -3.25313,4.8797c2.23791,-1.49133 4.19752,-3.78535 5.35212,-6.5587c2.15373,-5.17364 0.6233,-10.19042 -3.51579,-10.49402c-7.70319,-0.5658 -12.36577,5.26058 -15.95102,11.54374c-0.81006,1.74985 -1.44165,3.57743 -1.88463,5.45424c0.04508,-0.68126 0.12006,-1.36023 0.22402,-2.03505c1.50973,-9.79482 8.84169,-17.73491 16.3756,-17.73491z" id="icon" fill="#ffffff"/></g></svg>