<svg version="1.1" xmlns="http://www.w3.org/2000/svg" xmlns:xlink="http://www.w3.org/1999/xlink" width="70" height="70" viewBox="0,0,70,70" odoo-icon:version="1.0" xmlns:odoo-icon="https://ivantodorovich.github.io/odoo-icon" odoo-icon:size="70" odoo-icon:icon-size="0.55" odoo-icon:icon-color="#FFFFFF" odoo-icon:icon-flat-shadow-angle="135" odoo-icon:background-color="#fdd835" odoo-icon:background-gradient="0.2" odoo-icon:box-radius="3.5" odoo-icon:odoo-version="14.0"><defs><linearGradient x1="70" y1="0" x2="0" y2="70" gradientUnits="userSpaceOnUse" id="color-1"><stop offset="0" stop-color="#ffff68"/><stop offset="1" stop-color="#fdd835"/></linearGradient></defs><g fill="none" fill-rule="nonzero" stroke="none" stroke-width="1" stroke-linecap="butt" stroke-linejoin="miter" stroke-miterlimit="10" stroke-dasharray="" stroke-dashoffset="0" font-family="none" font-weight="none" font-size="none" text-anchor="none" style="mix-blend-mode: normal"><path d="M3.5,70c-1.933,0 -3.5,-1.567 -3.5,-3.5v-63c0,-1.933 1.567,-3.5 3.5,-3.5h63c1.933,0 3.5,1.567 3.5,3.5v63c0,1.933 -1.567,3.5 -3.5,3.5z" id="box" fill="url(#color-1)"/><path d="M65,1h-61c-1.95033,0 -3.2667,0.63396 -3.9491,1.90189c0.28378,-1.64806 1.72001,-2.90189 3.4491,-2.90189h63c1.72965,0 3.16627,1.25466 3.44938,2.90352c-0.69803,-1.26902 -2.34782,-1.90352 -4.94938,-1.90352z" id="topBoxShadow" fill="#ffffff" opacity="0.383"/><path d="M4,69h61c2.66667,0 4.33333,-1 5,-3v0.5c0,1.933 -1.567,3.5 -3.5,3.5h-63c-1.933,0 -3.5,-1.567 -3.5,-3.5c0,-0.1611 0,-0.32777 0,-0.5c0.66667,2 2,3 4,3z" id="bottomBoxShadow" fill="#000000" opacity="0.383"/><path d="M43.39175,44.62407c-2.63418,-0.34856 -4.28055,-1.95494 -6.40624,-4.24244c-1.02451,-1.10259 -2.09935,-2.31808 -3.41597,-3.41032c2.05184,-1.71081 3.5425,-3.7015 5.11972,-5.14794c1.48455,-1.35237 2.7927,-2.23435 4.7039,-2.48131v3.78381l11.10543,-6.41329l-11.10731,-6.41329v3.89859c-4.90946,0.39089 -8.0112,3.49546 -10.19287,5.89916c-1.20561,1.31709 -2.25928,2.48742 -3.25133,3.22217c-1.0071,0.73522 -1.80347,1.07296 -2.95922,1.09083h-11.48785v5.14512h11.48644c1.15528,0.01458 1.95494,0.35279 2.96487,1.09083c1.49913,1.09224 3.07964,3.20429 5.22132,5.24484c1.9286,1.8491 4.64792,3.61636 8.22006,3.8953v3.91458l11.10731,-6.40906l-11.10731,-6.40906v3.74101z" id="shadow" fill="#000000" opacity="0.3"/><path d="M15.5,32.41003h11.48785c1.0952,-0.01694 1.86768,-0.3211 2.80258,-0.97854l4.69491,-4.69491c0.83007,-0.83007 1.77514,-1.66864 2.86596,-2.39733l6.03997,-6.03997l11.10731,6.41329l-15.60574,15.60574c0.56778,0.51969 1.13403,0.96769 1.73392,1.3302l2.76592,-2.76592l11.10731,6.40906l-24.70835,24.70835h-26.29165c-1.933,0 -3.5,-1.567 -3.5,-3.5l0,-18.58997z" id="flatShadow" fill="#000000" opacity="0.324"/><path d="M43.39175,42.62407c-2.63418,-0.34856 -4.28055,-1.95494 -6.40624,-4.24244c-1.02451,-1.10259 -2.09935,-2.31808 -3.41597,-3.41032c2.05184,-1.71081 3.5425,-3.7015 5.11972,-5.14794c1.48455,-1.35237 2.7927,-2.23435 4.7039,-2.48131v3.78381l11.10543,-6.41329l-11.10731,-6.41329v3.89859c-4.90946,0.39089 -8.0112,3.49546 -10.19287,5.89916c-1.20561,1.31709 -2.25928,2.48742 -3.25133,3.22217c-1.0071,0.73522 -1.80347,1.07296 -2.95922,1.09083h-11.48785v5.14512h11.48644c1.15528,0.01458 1.95494,0.35279 2.96487,1.09083c1.49913,1.09224 3.07964,3.20429 5.22132,5.24484c1.9286,1.8491 4.64792,3.61636 8.22006,3.8953v3.91458l11.10731,-6.40906l-11.10731,-6.40906v3.74101z" id="icon" fill="#ffffff"/></g></svg>