<svg version="1.1" xmlns="http://www.w3.org/2000/svg" xmlns:xlink="http://www.w3.org/1999/xlink" width="70" height="70" viewBox="0,0,70,70" odoo-icon:version="1.0" xmlns:odoo-icon="https://ivantodorovich.github.io/odoo-icon" odoo-icon:size="70" odoo-icon:icon-size="0.62" odoo-icon:icon-color="#FFFFFF" odoo-icon:icon-flat-shadow-angle="135" odoo-icon:background-color="#eea544" odoo-icon:background-gradient="0.2" odoo-icon:box-radius="3.5" odoo-icon:odoo-version="14.0"><defs><linearGradient x1="70" y1="0" x2="0" y2="70" gradientUnits="userSpaceOnUse" id="color-1"><stop offset="0" stop-color="#ffd877"/><stop offset="1" stop-color="#eea544"/></linearGradient></defs><g fill="none" fill-rule="nonzero" stroke="none" stroke-width="1" stroke-linecap="butt" stroke-linejoin="miter" stroke-miterlimit="10" stroke-dasharray="" stroke-dashoffset="0" font-family="none" font-weight="none" font-size="none" text-anchor="none" style="mix-blend-mode: normal"><path d="M3.5,70c-1.933,0 -3.5,-1.567 -3.5,-3.5v-63c0,-1.933 1.567,-3.5 3.5,-3.5h63c1.933,0 3.5,1.567 3.5,3.5v63c0,1.933 -1.567,3.5 -3.5,3.5z" id="box" fill="url(#color-1)"/><path d="M65,1h-61c-1.95033,0 -3.2667,0.63396 -3.9491,1.90189c0.28378,-1.64806 1.72001,-2.90189 3.4491,-2.90189h63c1.72965,0 3.16627,1.25466 3.44938,2.90352c-0.69803,-1.26902 -2.34782,-1.90352 -4.94938,-1.90352z" id="topBoxShadow" fill="#ffffff" opacity="0.383"/><path d="M4,69h61c2.66667,0 4.33333,-1 5,-3v0.5c0,1.933 -1.567,3.5 -3.5,3.5h-63c-1.933,0 -3.5,-1.567 -3.5,-3.5c0,-0.1611 0,-0.32777 0,-0.5c0.66667,2 2,3 4,3z" id="bottomBoxShadow" fill="#000000" opacity="0.383"/><path d="M57,37c0,12.13652 -9.86348,22 -22,22c-12.13652,0 -22,-9.86348 -22,-22c0,-12.13652 9.86348,-22 22,-22c12.13652,0 22,9.86348 22,22zM15.21848,37c-0.00484,5.24788 2.07768,10.28236 5.78864,13.99332c3.71096,3.71096 8.745,5.79348 13.99332,5.78864c5.24788,0.00484 10.28236,-2.07768 13.99332,-5.78864c3.71096,-3.71096 5.79348,-8.745 5.78864,-13.99332c0.00484,-5.24788 -2.07768,-10.28236 -5.78864,-13.99332c-3.71096,-3.71096 -8.745,-5.79348 -13.99332,-5.78864c-5.24788,-0.00484 -10.28236,2.07768 -13.99332,5.78864c-3.71096,3.71096 -5.79348,8.745 -5.78864,13.99332zM35.22924,25.84248l3.96352,2.288c0.14212,0.08184 0.22968,0.23364 0.22924,0.39776v2.02224l4.53376,2.618c0.14212,0.08184 0.22968,0.23364 0.22924,0.39776v4.31772l1.75076,1.01024c0.14212,0.08184 0.22968,0.23364 0.22924,0.39776v4.576c0.00044,0.16412 -0.08712,0.31592 -0.22924,0.39776l-3.96352,2.288c-0.14168,0.08184 -0.31636,0.08184 -0.45848,0l-1.75252,-1.012l-4.532,2.61624c-0.14168,0.08184 -0.31636,0.08184 -0.45848,0l-4.532,-2.61624l-1.75252,1.012c-0.14168,0.08184 -0.31636,0.08184 -0.45848,0l-3.96352,-2.288c-0.14212,-0.08184 -0.22968,-0.23364 -0.22924,-0.39776v-4.576c-0.00044,-0.16412 0.08712,-0.31592 0.22924,-0.39776l1.75076,-1.01024v-4.31728c-0.00044,-0.16412 0.08712,-0.31592 0.22924,-0.39776l4.53376,-2.618v-2.02048c-0.00044,-0.16412 0.08712,-0.31592 0.22924,-0.39776l3.96352,-2.288c0.14168,-0.08184 0.31636,-0.08184 0.45848,0zM37.55376,44.26572c-0.14212,-0.08184 -0.22968,-0.23364 -0.22924,-0.39776v-4.576c-0.00044,-0.16412 0.08712,-0.31592 0.22924,-0.39776l3.96,-2.288c0.14168,-0.08184 0.31636,-0.08184 0.45848,0l1.29624,0.748v-3.52352l-3.84648,-2.21848v1.49248c0.00044,0.16412 -0.08712,0.31592 -0.22924,0.39776l-3.96352,2.288c-0.14168,0.08184 -0.31636,0.08184 -0.45848,0l-3.96352,-2.288c-0.14212,-0.08184 -0.22968,-0.23364 -0.22924,-0.39776v-1.49424l-3.84648,2.22024v3.52352l1.29624,-0.748c0.14168,-0.08184 0.31636,-0.08184 0.45848,0l3.96,2.288c0.14212,0.08184 0.22968,0.23364 0.22924,0.39776v4.576c0.00044,0.16412 -0.08712,0.31592 -0.22924,0.39776l-1.29228,0.748l3.84648,2.22024l3.84648,-2.22024zM31.49452,32.83848l3.047,1.76v-3.52748l-3.047,-1.75076zM38.50548,32.83848v-3.51824l-3.047,1.75076v3.52748zM35,26.76648l-3.04348,1.76l3.04348,1.749l3.04348,-1.749zM24.75152,43.60352l3.04348,1.75648v-3.52176l-3.04348,-1.75252zM31.75852,43.60352v-3.52l-3.047,1.75472v3.52572zM28.257,37.53328l-3.047,1.76l3.04524,1.75076l3.04348,-1.75252zM38.24148,43.60176l3.04348,1.76v-3.52352l-3.04348,-1.75252zM45.24848,43.60176v-3.51648l-3.047,1.75252v3.52352zM41.743,37.53328l-3.04348,1.76l3.04348,1.75076l3.04348,-1.75252z" id="shadow" fill="#000000" opacity="0.3"/><path d="M50.5512,50.5512l-19.4488,19.4488h-27.60239c-1.933,0 -3.5,-1.567 -3.5,-3.5l0,-27.60239l19.4488,-19.4488l0,0c3.98293,-3.98294 9.48293,-6.4488 15.5512,-6.4488c12.13652,0 22,9.86348 22,22c0,6.06826 -2.46587,11.56826 -6.4488,15.5512z" id="flatShadow" fill="#000000" opacity="0.324"/><path d="M57,35c0,12.13652 -9.86348,22 -22,22c-12.13652,0 -22,-9.86348 -22,-22c0,-12.13652 9.86348,-22 22,-22c12.13652,0 22,9.86348 22,22zM15.21848,35c-0.00484,5.24788 2.07768,10.28236 5.78864,13.99332c3.71096,3.71096 8.745,5.79348 13.99332,5.78864c5.24788,0.00484 10.28236,-2.07768 13.99332,-5.78864c3.71096,-3.71096 5.79348,-8.745 5.78864,-13.99332c0.00484,-5.24788 -2.07768,-10.28236 -5.78864,-13.99332c-3.71096,-3.71096 -8.745,-5.79348 -13.99332,-5.78864c-5.24788,-0.00484 -10.28236,2.07768 -13.99332,5.78864c-3.71096,3.71096 -5.79348,8.745 -5.78864,13.99332zM35.22924,23.84248l3.96352,2.288c0.14212,0.08184 0.22968,0.23364 0.22924,0.39776v2.02224l4.53376,2.618c0.14212,0.08184 0.22968,0.23364 0.22924,0.39776v4.31772l1.75076,1.01024c0.14212,0.08184 0.22968,0.23364 0.22924,0.39776v4.576c0.00044,0.16412 -0.08712,0.31592 -0.22924,0.39776l-3.96352,2.288c-0.14168,0.08184 -0.31636,0.08184 -0.45848,0l-1.75252,-1.012l-4.532,2.61624c-0.14168,0.08184 -0.31636,0.08184 -0.45848,0l-4.532,-2.61624l-1.75252,1.012c-0.14168,0.08184 -0.31636,0.08184 -0.45848,0l-3.96352,-2.288c-0.14212,-0.08184 -0.22968,-0.23364 -0.22924,-0.39776v-4.576c-0.00044,-0.16412 0.08712,-0.31592 0.22924,-0.39776l1.75076,-1.01024v-4.31728c-0.00044,-0.16412 0.08712,-0.31592 0.22924,-0.39776l4.53376,-2.618v-2.02048c-0.00044,-0.16412 0.08712,-0.31592 0.22924,-0.39776l3.96352,-2.288c0.14168,-0.08184 0.31636,-0.08184 0.45848,0zM37.55376,42.26572c-0.14212,-0.08184 -0.22968,-0.23364 -0.22924,-0.39776v-4.576c-0.00044,-0.16412 0.08712,-0.31592 0.22924,-0.39776l3.96,-2.288c0.14168,-0.08184 0.31636,-0.08184 0.45848,0l1.29624,0.748v-3.52352l-3.84648,-2.21848v1.49248c0.00044,0.16412 -0.08712,0.31592 -0.22924,0.39776l-3.96352,2.288c-0.14168,0.08184 -0.31636,0.08184 -0.45848,0l-3.96352,-2.288c-0.14212,-0.08184 -0.22968,-0.23364 -0.22924,-0.39776v-1.49424l-3.84648,2.22024v3.52352l1.29624,-0.748c0.14168,-0.08184 0.31636,-0.08184 0.45848,0l3.96,2.288c0.14212,0.08184 0.22968,0.23364 0.22924,0.39776v4.576c0.00044,0.16412 -0.08712,0.31592 -0.22924,0.39776l-1.29228,0.748l3.84648,2.22024l3.84648,-2.22024zM31.49452,30.83848l3.047,1.76v-3.52748l-3.047,-1.75076zM38.50548,30.83848v-3.51824l-3.047,1.75076v3.52748zM35,24.76648l-3.04348,1.76l3.04348,1.749l3.04348,-1.749zM24.75152,41.60352l3.04348,1.75648v-3.52176l-3.04348,-1.75252zM31.75852,41.60352v-3.52l-3.047,1.75472v3.52572zM28.257,35.53328l-3.047,1.76l3.04524,1.75076l3.04348,-1.75252zM38.24148,41.60176l3.04348,1.76v-3.52352l-3.04348,-1.75252zM45.24848,41.60176v-3.51648l-3.047,1.75252v3.52352zM41.743,35.53328l-3.04348,1.76l3.04348,1.75076l3.04348,-1.75252z" id="icon" fill="#ffffff"/></g></svg>