<svg version="1.1" xmlns="http://www.w3.org/2000/svg" xmlns:xlink="http://www.w3.org/1999/xlink" width="70" height="70" viewBox="0,0,70,70"><!-- Generated with https://ivantodorovich.github.io/odoo-icon --><defs><linearGradient x1="70" y1="0" x2="0" y2="70" gradientUnits="userSpaceOnUse" id="color-1"><stop offset="0" stop-color="#ff6c68"/><stop offset="1" stop-color="#e53935"/></linearGradient></defs><g fill="none" fill-rule="nonzero" stroke="none" stroke-width="1" stroke-linecap="butt" stroke-linejoin="miter" stroke-miterlimit="10" stroke-dasharray="" stroke-dashoffset="0" font-family="none" font-weight="none" font-size="none" text-anchor="none" style="mix-blend-mode: normal"><path d="M3.5,70c-1.933,0 -3.5,-1.567 -3.5,-3.5v-63c0,-1.933 1.567,-3.5 3.5,-3.5h63c1.933,0 3.5,1.567 3.5,3.5v63c0,1.933 -1.567,3.5 -3.5,3.5z" id="box" fill="url(#color-1)"/><path d="M65,1h-61c-1.95033,0 -3.2667,0.63396 -3.9491,1.90189c0.28378,-1.64806 1.72001,-2.90189 3.4491,-2.90189h63c1.72965,0 3.16627,1.25466 3.44938,2.90352c-0.69803,-1.26902 -2.34782,-1.90352 -4.94938,-1.90352z" id="topBoxShadow" fill="#ffffff" opacity="0.383"/><path d="M4,69h61c2.66667,0 4.33333,-1 5,-3v0.5c0,1.933 -1.567,3.5 -3.5,3.5h-63c-1.933,0 -3.5,-1.567 -3.5,-3.5c0,-0.1611 0,-0.32777 0,-0.5c0.66667,2 2,3 4,3z" id="bottomBoxShadow" fill="#000000" opacity="0.383"/><path d="M51.5,17.5h-33c-1.65696,0 -3,1.34304 -3,3v33c0,1.65696 1.34304,3 3,3h33c1.65696,0 3,-1.34304 3,-3v-33c0,-1.65696 -1.34304,-3 -3,-3zM24.5,44.5h-6v-6h6zM27.5,47.5h6v6h-6zM36.5,47.5h6v6h-6zM36.5,35.5v-6h6v6zM42.5,26.5h-6v-6h6zM45.5,29.5h6v6h-6zM33.5,20.5v15h-15v-15zM45.5,53.5v-15h6v15z" id="shadow" fill="#000000" opacity="0.3"/><path d="" id="flatShadow" fill="#000000" opacity="0.324"/><path d="M51.5,15.5h-33c-1.65696,0 -3,1.34304 -3,3v33c0,1.65696 1.34304,3 3,3h33c1.65696,0 3,-1.34304 3,-3v-33c0,-1.65696 -1.34304,-3 -3,-3zM24.5,42.5h-6v-6h6zM27.5,45.5h6v6h-6zM36.5,45.5h6v6h-6zM36.5,33.5v-6h6v6zM42.5,24.5h-6v-6h6zM45.5,27.5h6v6h-6zM33.5,18.5v15h-15v-15zM45.5,51.5v-15h6v15z" id="icon" fill="#ffffff"/></g></svg>