<svg version="1.1" xmlns="http://www.w3.org/2000/svg" xmlns:xlink="http://www.w3.org/1999/xlink" width="70" height="70" viewBox="0,0,70,70" odoo-icon:version="1.0" xmlns:odoo-icon="https://ivantodorovich.github.io/odoo-icon" odoo-icon:size="70" odoo-icon:icon-size="0.6" odoo-icon:icon-color="#FFFFFF" odoo-icon:icon-flat-shadow-angle="135" odoo-icon:background-color="#5a9442" odoo-icon:background-gradient="0.2" odoo-icon:box-radius="3.5" odoo-icon:odoo-version="14.0"><defs><linearGradient x1="70" y1="0" x2="0" y2="70" gradientUnits="userSpaceOnUse" id="color-1"><stop offset="0" stop-color="#8dc775"/><stop offset="1" stop-color="#5a9442"/></linearGradient></defs><g fill="none" fill-rule="nonzero" stroke="none" stroke-width="1" stroke-linecap="butt" stroke-linejoin="miter" stroke-miterlimit="10" stroke-dasharray="" stroke-dashoffset="0" font-family="none" font-weight="none" font-size="none" text-anchor="none" style="mix-blend-mode: normal"><path d="M3.5,70c-1.933,0 -3.5,-1.567 -3.5,-3.5v-63c0,-1.933 1.567,-3.5 3.5,-3.5h63c1.933,0 3.5,1.567 3.5,3.5v63c0,1.933 -1.567,3.5 -3.5,3.5z" id="box" fill="url(#color-1)"/><path d="M65,1h-61c-1.95033,0 -3.2667,0.63396 -3.9491,1.90189c0.28378,-1.64806 1.72001,-2.90189 3.4491,-2.90189h63c1.72965,0 3.16627,1.25466 3.44938,2.90352c-0.69803,-1.26902 -2.34782,-1.90352 -4.94938,-1.90352z" id="topBoxShadow" fill="#ffffff" opacity="0.383"/><path d="M4,69h61c2.66667,0 4.33333,-1 5,-3v0.5c0,1.933 -1.567,3.5 -3.5,3.5h-63c-1.933,0 -3.5,-1.567 -3.5,-3.5c0,-0.1611 0,-0.32777 0,-0.5c0.66667,2 2,3 4,3z" id="bottomBoxShadow" fill="#000000" opacity="0.383"/><path d="M35,16c-11.59788,0 -21,9.40212 -21,21c0,11.59788 9.40212,21 21,21c11.59788,0 21,-9.40212 21,-21c0,-11.59788 -9.40212,-21 -21,-21zM18.2,37c0.0084,-3.72876 1.25664,-7.34874 3.549,-10.29l23.541,23.541c-5.06352,3.92364 -11.9175,4.6263 -17.67192,1.81146c-5.75442,-2.81484 -9.40716,-8.65662 -9.41808,-15.06246zM48.251,47.29l-23.541,-23.541c6.6885,-5.08368 16.10448,-4.44486 22.04496,1.49604c5.94048,5.94048 6.57972,15.35646 1.49604,22.04496z" id="shadow" fill="#000000" opacity="0.3"/><path d="M20.15079,20.15079c3.80026,-3.80026 9.05027,-6.15079 14.84921,-6.15079c11.59788,0 21,9.40212 21,21l-5.06432,5.06432c-0.56626,1.84246 -1.45918,3.61332 -2.68468,5.22568l-49.49747,49.49747l-1.2705,-1.2705l-6.99548,6.99548c-4.02419,1.24971 -8.45026,0.96337 -12.36694,-0.95252c-5.75442,-2.81484 -9.40716,-8.65662 -9.41808,-15.06246c0.0084,-3.72876 1.25664,-7.34874 3.549,-10.29l27.74847,-27.74847l0,-6.15741z" id="flatShadow" fill="#000000" opacity="0.324"/><path d="M35,14c-11.59788,0 -21,9.40212 -21,21c0,11.59788 9.40212,21 21,21c11.59788,0 21,-9.40212 21,-21c0,-11.59788 -9.40212,-21 -21,-21zM18.2,35c0.0084,-3.72876 1.25664,-7.34874 3.549,-10.29l23.541,23.541c-5.06352,3.92364 -11.9175,4.6263 -17.67192,1.81146c-5.75442,-2.81484 -9.40716,-8.65662 -9.41808,-15.06246zM48.251,45.29l-23.541,-23.541c6.6885,-5.08368 16.10448,-4.44486 22.04496,1.49604c5.94048,5.94048 6.57972,15.35646 1.49604,22.04496z" id="icon" fill="#ffffff"/></g></svg>