<svg version="1.1" xmlns="http://www.w3.org/2000/svg" xmlns:xlink="http://www.w3.org/1999/xlink" width="70" height="70" viewBox="0,0,70,70" odoo-icon:version="1.0" xmlns:odoo-icon="https://ivantodorovich.github.io/odoo-icon" odoo-icon:size="70" odoo-icon:icon-size="0.58" odoo-icon:icon-color="#FFFFFF" odoo-icon:icon-flat-shadow-angle="135" odoo-icon:background-color="#1e88e5" odoo-icon:background-gradient="0.2" odoo-icon:box-radius="3.5" odoo-icon:odoo-version="14.0"><defs><linearGradient x1="70" y1="0" x2="0" y2="70" gradientUnits="userSpaceOnUse" id="color-1"><stop offset="0" stop-color="#51bbff"/><stop offset="1" stop-color="#1e88e5"/></linearGradient></defs><g fill="none" fill-rule="nonzero" stroke="none" stroke-width="1" stroke-linecap="butt" stroke-linejoin="miter" stroke-miterlimit="10" stroke-dasharray="" stroke-dashoffset="0" font-family="none" font-weight="none" font-size="none" text-anchor="none" style="mix-blend-mode: normal"><path d="M3.5,70c-1.933,0 -3.5,-1.567 -3.5,-3.5v-63c0,-1.933 1.567,-3.5 3.5,-3.5h63c1.933,0 3.5,1.567 3.5,3.5v63c0,1.933 -1.567,3.5 -3.5,3.5z" id="box" fill="url(#color-1)"/><path d="M65,1h-61c-1.95033,0 -3.2667,0.63396 -3.9491,1.90189c0.28378,-1.64806 1.72001,-2.90189 3.4491,-2.90189h63c1.72965,0 3.16627,1.25466 3.44938,2.90352c-0.69803,-1.26902 -2.34782,-1.90352 -4.94938,-1.90352z" id="topBoxShadow" fill="#ffffff" opacity="0.383"/><path d="M4,69h61c2.66667,0 4.33333,-1 5,-3v0.5c0,1.933 -1.567,3.5 -3.5,3.5h-63c-1.933,0 -3.5,-1.567 -3.5,-3.5c0,-0.1611 0,-0.32777 0,-0.5c0.66667,2 2,3 4,3z" id="bottomBoxShadow" fill="#000000" opacity="0.383"/><path d="M23.42163,16.5l-7.19199,8.63039h4.3152v7.19199h5.7536v-7.19199h4.3152zM43.55921,16.5v7.19199h-4.3152l7.19199,8.63039l7.19199,-8.63039h-4.3152v-7.19199zM50.75995,34.92071c-0.47456,0.01059 -0.91827,0.21726 -1.52309,0.86258l-0.59009,0.62645l-0.61264,-0.6039c-0.6642,-0.65453 -1.188,-0.83496 -1.71917,-0.81195c-0.53117,0.02347 -1.15578,0.30241 -1.85404,0.8681l-0.55925,0.45246l-0.53117,-0.4833c-0.79998,-0.72403 -1.48213,-0.93807 -2.13527,-0.90447c-0.47548,0.02486 -0.96845,0.20391 -1.46095,0.5169l3.68322,6.62446c1.38915,0.84969 4.2282,1.16959 6.18074,0.1855l3.5594,-6.59362c-0.67524,-0.27525 -1.2819,-0.55741 -1.80663,-0.66558c-0.1901,-0.03912 -0.36639,-0.06812 -0.5367,-0.07319c-0.03176,-0.00092 -0.06352,-0.00092 -0.09528,0zM19.82586,35.19918c-3.59577,0 -3.59577,0 -3.59577,3.59623v14.38905c0,3.59116 0,3.59116 3.59623,3.59116h7.19199c3.59623,0 3.59623,0 3.59623,-3.59577v-14.38399c0,-3.59577 0,-3.59577 -3.59577,-3.59577zM42.67131,43.56813v0c-1.62113,1.14566 -2.92329,3.12121 -3.4273,6.01458c-0.48883,2.80453 0.28124,4.69862 1.64369,5.98926c1.36245,1.29111 3.40751,1.95438 5.48387,1.92722c2.07682,-0.02716 4.14765,-0.74705 5.54002,-2.06209c1.39237,-1.31504 2.18038,-3.18473 1.73344,-5.86038c-0.46167,-2.76495 -1.65427,-4.68803 -3.16356,-5.85164c-2.56058,1.35371 -5.76188,1.06603 -7.8097,-0.15742z" id="shadow" fill="#000000" opacity="0.3"/><path d="M26.29842,30.32239l-2.87726,2.87726l1.43821,0.00018l18.69983,-18.69983h5.7536v7.19199h4.3152l-7.19199,8.63039l-3.30458,3.30458c0.07855,0.06303 0.1582,0.13101 0.23906,0.20419l0.53117,0.4833l0.55925,-0.45246c0.69826,-0.56569 1.32287,-0.84463 1.85404,-0.8681c0.53117,-0.02301 1.05498,0.15742 1.71917,0.81195l0.59209,0.58364l0.7414,-0.7414c0.53942,-0.53942 0.95264,-0.71756 1.39233,-0.72737l-0.00045,0.00045c0.0316,-0.00091 0.0632,-0.0009 0.09481,0.00001c0.17031,0.00506 0.3466,0.03406 0.5367,0.07319c0.52473,0.10817 1.13139,0.39032 1.80663,0.66558l-3.5594,6.59362l-2.34893,2.34893c1.0905,-0.06939 2.19038,-0.34777 3.19218,-0.87739c1.50928,1.16361 2.70189,3.08669 3.16356,5.85164c0.43221,2.5875 -0.29049,4.42126 -1.59781,5.72859l-16.69468,16.69468h-31.85254c-1.933,0 -3.5,-1.567 -3.5,-3.5l0,-28.57837l23.42163,-23.42163l7.19199,8.63039l-4.3152,4.3152z" id="flatShadow" fill="#000000" opacity="0.324"/><path d="M23.42163,14.5l-7.19199,8.63039h4.3152v7.19199h5.7536v-7.19199h4.3152zM43.55921,14.5v7.19199h-4.3152l7.19199,8.63039l7.19199,-8.63039h-4.3152v-7.19199zM50.75995,32.92071c-0.47456,0.01059 -0.91827,0.21726 -1.52309,0.86258l-0.59009,0.62645l-0.61264,-0.6039c-0.6642,-0.65453 -1.188,-0.83496 -1.71917,-0.81195c-0.53117,0.02347 -1.15578,0.30241 -1.85404,0.8681l-0.55925,0.45246l-0.53117,-0.4833c-0.79998,-0.72403 -1.48213,-0.93807 -2.13527,-0.90447c-0.47548,0.02486 -0.96845,0.20391 -1.46095,0.5169l3.68322,6.62446c1.38915,0.84969 4.2282,1.16959 6.18074,0.1855l3.5594,-6.59362c-0.67524,-0.27525 -1.2819,-0.55741 -1.80663,-0.66558c-0.1901,-0.03912 -0.36639,-0.06812 -0.5367,-0.07319c-0.03176,-0.00092 -0.06352,-0.00092 -0.09528,0zM19.82586,33.19918c-3.59577,0 -3.59577,0 -3.59577,3.59623v14.38905c0,3.59116 0,3.59116 3.59623,3.59116h7.19199c3.59623,0 3.59623,0 3.59623,-3.59577v-14.38399c0,-3.59577 0,-3.59577 -3.59577,-3.59577zM42.67131,41.56813v0c-1.62113,1.14566 -2.92329,3.12121 -3.4273,6.01458c-0.48883,2.80453 0.28124,4.69862 1.64369,5.98926c1.36245,1.29111 3.40751,1.95438 5.48387,1.92722c2.07682,-0.02716 4.14765,-0.74705 5.54002,-2.06209c1.39237,-1.31504 2.18038,-3.18473 1.73344,-5.86038c-0.46167,-2.76495 -1.65427,-4.68803 -3.16356,-5.85164c-2.56058,1.35371 -5.76188,1.06603 -7.8097,-0.15742z" id="icon" fill="#ffffff"/></g></svg>