<svg version="1.1" xmlns="http://www.w3.org/2000/svg" xmlns:xlink="http://www.w3.org/1999/xlink" width="70" height="70" viewBox="0,0,70,70" odoo-icon:version="1.0" xmlns:odoo-icon="https://ivantodorovich.github.io/odoo-icon" odoo-icon:size="70" odoo-icon:icon-size="0.6" odoo-icon:icon-color="#FFFFFF" odoo-icon:icon-flat-shadow-angle="135" odoo-icon:background-color="#a4426b" odoo-icon:background-gradient="0.2" odoo-icon:box-radius="3.5" odoo-icon:odoo-version="14.0"><defs><linearGradient x1="70" y1="0" x2="0" y2="70" gradientUnits="userSpaceOnUse" id="color-1"><stop offset="0" stop-color="#d7759e"/><stop offset="1" stop-color="#a4426b"/></linearGradient></defs><g fill="none" fill-rule="nonzero" stroke="none" stroke-width="1" stroke-linecap="butt" stroke-linejoin="miter" stroke-miterlimit="10" stroke-dasharray="" stroke-dashoffset="0" font-family="none" font-weight="none" font-size="none" text-anchor="none" style="mix-blend-mode: normal"><path d="M3.5,70c-1.933,0 -3.5,-1.567 -3.5,-3.5v-63c0,-1.933 1.567,-3.5 3.5,-3.5h63c1.933,0 3.5,1.567 3.5,3.5v63c0,1.933 -1.567,3.5 -3.5,3.5z" id="box" fill="url(#color-1)"/><path d="M65,1h-61c-1.95033,0 -3.2667,0.63396 -3.9491,1.90189c0.28378,-1.64806 1.72001,-2.90189 3.4491,-2.90189h63c1.72965,0 3.16627,1.25466 3.44938,2.90352c-0.69803,-1.26902 -2.34782,-1.90352 -4.94938,-1.90352z" id="topBoxShadow" fill="#ffffff" opacity="0.383"/><path d="M4,69h61c2.66667,0 4.33333,-1 5,-3v0.5c0,1.933 -1.567,3.5 -3.5,3.5h-63c-1.933,0 -3.5,-1.567 -3.5,-3.5c0,-0.1611 0,-0.32777 0,-0.5c0.66667,2 2,3 4,3z" id="bottomBoxShadow" fill="#000000" opacity="0.383"/><path d="M26.68537,37.40557l-8.06472,-8.06472c-3.17485,3.46111 -4.37802,6.92873 -4.39907,6.99992l-0.22158,0.66024l0.21958,0.66024c0.04612,0.13987 4.83773,13.96173 20.78168,13.96173c1.94061,0 3.70775,-0.21306 5.33052,-0.5705l-5.73609,-5.73609c-4.27876,-0.20955 -7.70076,-3.63155 -7.91031,-7.91031zM35.00075,22.37853c-3.87469,0 -7.04955,0.84372 -9.69651,2.08448l-7.73886,-7.73936l-2.95377,2.95377l37.59892,37.59892l2.95377,-2.95377l-6.88912,-6.88912c5.5105,-4.07923 7.47567,-9.68598 7.50525,-9.77371l0.21958,-0.66024l-0.21958,-0.66024c-0.04612,-0.13987 -4.83572,-13.96173 -20.77967,-13.96173zM38.98223,38.141c0.39053,-1.41422 0.05865,-3.00591 -1.0277,-4.09427c-1.08636,-1.08836 -2.68005,-1.41823 -4.09427,-1.0277l-3.14979,-3.14979c1.2909,-0.79359 2.7753,-1.2172 4.29029,-1.22422c4.60812,0 8.35548,3.74736 8.35548,8.35548c-0.00602,1.51499 -0.43063,2.99889 -1.22623,4.28828z" id="shadow" fill="#000000" opacity="0.3"/><path d="M17.56538,14.72365l7.73886,7.73936c2.64674,-1.24066 5.82127,-2.08434 9.69551,-2.08448l0.001,-0.001c15.94395,0 20.73355,13.82186 20.77967,13.96173l0.21958,0.66024l-0.21958,0.66024c-0.02473,0.07334 -1.40215,4.00366 -5.0727,7.67422l-2.26602,2.26602l6.7226,6.7226l-17.67743,17.67743h-33.98688c-1.933,0 -3.5,-1.567 -3.5,-3.5v-34.21097z" id="flatShadow" fill="#000000" opacity="0.324"/><path d="M26.68537,35.40557l-8.06472,-8.06472c-3.17485,3.46111 -4.37802,6.92873 -4.39907,6.99992l-0.22158,0.66024l0.21958,0.66024c0.04612,0.13987 4.83773,13.96173 20.78168,13.96173c1.94061,0 3.70775,-0.21306 5.33052,-0.5705l-5.73609,-5.73609c-4.27876,-0.20955 -7.70076,-3.63155 -7.91031,-7.91031zM35.00075,20.37853c-3.87469,0 -7.04955,0.84372 -9.69651,2.08448l-7.73886,-7.73936l-2.95377,2.95377l37.59892,37.59892l2.95377,-2.95377l-6.88912,-6.88912c5.5105,-4.07923 7.47567,-9.68598 7.50525,-9.77371l0.21958,-0.66024l-0.21958,-0.66024c-0.04612,-0.13987 -4.83572,-13.96173 -20.77967,-13.96173zM38.98223,36.141c0.39053,-1.41422 0.05865,-3.00591 -1.0277,-4.09427c-1.08636,-1.08836 -2.68005,-1.41823 -4.09427,-1.0277l-3.14979,-3.14979c1.2909,-0.79359 2.7753,-1.2172 4.29029,-1.22422c4.60812,0 8.35548,3.74736 8.35548,8.35548c-0.00602,1.51499 -0.43063,2.99889 -1.22623,4.28828z" id="icon" fill="#ffffff"/></g></svg>