<svg version="1.1" xmlns="http://www.w3.org/2000/svg" xmlns:xlink="http://www.w3.org/1999/xlink" width="70" height="70" viewBox="0,0,70,70" odoo-icon:version="1.0" xmlns:odoo-icon="https://ivantodorovich.github.io/odoo-icon" odoo-icon:size="70" odoo-icon:icon-size="0.62" odoo-icon:icon-color="#FFFFFF" odoo-icon:icon-flat-shadow-angle="135" odoo-icon:background-color="#d81b60" odoo-icon:background-gradient="0.2" odoo-icon:box-radius="3.5" odoo-icon:odoo-version="14.0"><defs><linearGradient x1="70" y1="0" x2="0" y2="70" gradientUnits="userSpaceOnUse" id="color-1"><stop offset="0" stop-color="#ff4e93"/><stop offset="1" stop-color="#d81b60"/></linearGradient></defs><g fill="none" fill-rule="nonzero" stroke="none" stroke-width="1" stroke-linecap="butt" stroke-linejoin="miter" stroke-miterlimit="10" stroke-dasharray="" stroke-dashoffset="0" font-family="none" font-weight="none" font-size="none" text-anchor="none" style="mix-blend-mode: normal"><path d="M3.5,70c-1.933,0 -3.5,-1.567 -3.5,-3.5v-63c0,-1.933 1.567,-3.5 3.5,-3.5h63c1.933,0 3.5,1.567 3.5,3.5v63c0,1.933 -1.567,3.5 -3.5,3.5z" id="box" fill="url(#color-1)"/><path d="M65,1h-61c-1.95033,0 -3.2667,0.63396 -3.9491,1.90189c0.28378,-1.64806 1.72001,-2.90189 3.4491,-2.90189h63c1.72965,0 3.16627,1.25466 3.44938,2.90352c-0.69803,-1.26902 -2.34782,-1.90352 -4.94938,-1.90352z" id="topBoxShadow" fill="#ffffff" opacity="0.383"/><path d="M4,69h61c2.66667,0 4.33333,-1 5,-3v0.5c0,1.933 -1.567,3.5 -3.5,3.5h-63c-1.933,0 -3.5,-1.567 -3.5,-3.5c0,-0.1611 0,-0.32777 0,-0.5c0.66667,2 2,3 4,3z" id="bottomBoxShadow" fill="#000000" opacity="0.383"/><path d="M43.46009,33.66902c4.9131,0 8.8433,3.9302 8.8433,8.8433c0,1.72951 -0.49145,3.36045 -1.35597,4.71642l6.05259,6.09221l-2.73175,2.73175l-6.13135,-6.03325c-1.35597,0.84518 -2.96757,1.33616 -4.67728,1.33616c-4.9131,0 -8.8433,-3.9302 -8.8433,-8.8433c0,-4.9131 3.9302,-8.8433 8.8433,-8.8433M43.46009,37.59922c-2.71336,0 -4.9131,2.19974 -4.9131,4.9131c0,2.71336 2.19974,4.9131 4.9131,4.9131c2.71336,0 4.9131,-2.19974 4.9131,-4.9131c0,-2.71336 -2.19974,-4.9131 -4.9131,-4.9131M28.72126,17.94777l3.9302,3.9302h15.72126c2.1705,0 3.9302,1.7597 3.9302,3.9302v7.48732c-2.37613,-2.28558 -5.54604,-3.5609 -8.8433,-3.55713c-7.05483,0 -12.77349,5.71914 -12.77349,12.77349c0,2.53508 0.72727,4.9131 1.96533,6.87796h-15.72126c-2.1705,0 -3.9302,-1.7597 -3.9302,-3.9302v-23.58212c0,-2.18135 1.74885,-3.9302 3.9302,-3.9302z" id="shadow" fill="#000000" opacity="0.3"/><path d="M52.30338,40.51232c0,1.72951 -0.49145,3.36045 -1.35597,4.71642l6.05259,6.09221l-18.67905,18.67905h-34.82095c-1.933,0 -3.5,-1.567 -3.5,-3.5l0,-35.25852l14.14709,-14.14709c0.70988,-0.70988 1.69243,-1.14709 2.7831,-1.14709l11.79106,0.00047l3.9302,3.9302h15.72126c2.1705,0 3.9302,1.7597 3.9302,3.9302v7.48732l-2.76858,2.76858c1.70828,1.60862 2.76905,3.89579 2.76905,6.44826z" id="flatShadow" fill="#000000" opacity="0.324"/><path d="M43.46009,31.66902c4.9131,0 8.8433,3.9302 8.8433,8.8433c0,1.72951 -0.49145,3.36045 -1.35597,4.71642l6.05259,6.09221l-2.73175,2.73175l-6.13135,-6.03325c-1.35597,0.84518 -2.96757,1.33616 -4.67728,1.33616c-4.9131,0 -8.8433,-3.9302 -8.8433,-8.8433c0,-4.9131 3.9302,-8.8433 8.8433,-8.8433M43.46009,35.59922c-2.71336,0 -4.9131,2.19974 -4.9131,4.9131c0,2.71336 2.19974,4.9131 4.9131,4.9131c2.71336,0 4.9131,-2.19974 4.9131,-4.9131c0,-2.71336 -2.19974,-4.9131 -4.9131,-4.9131M28.72126,15.94777l3.9302,3.9302h15.72126c2.1705,0 3.9302,1.7597 3.9302,3.9302v7.48732c-2.37613,-2.28558 -5.54604,-3.5609 -8.8433,-3.55713c-7.05483,0 -12.77349,5.71914 -12.77349,12.77349c0,2.53508 0.72727,4.9131 1.96533,6.87796h-15.72126c-2.1705,0 -3.9302,-1.7597 -3.9302,-3.9302v-23.58212c0,-2.18135 1.74885,-3.9302 3.9302,-3.9302z" id="icon" fill="#ffffff"/></g></svg>