<svg version="1.1" xmlns="http://www.w3.org/2000/svg" xmlns:xlink="http://www.w3.org/1999/xlink" width="70" height="70" viewBox="0,0,70,70" odoo-icon:version="1.0" xmlns:odoo-icon="https://ivantodorovich.github.io/odoo-icon" odoo-icon:size="70" odoo-icon:icon-size="0.65" odoo-icon:icon-color="#FFFFFF" odoo-icon:icon-flat-shadow-angle="135" odoo-icon:background-color="#e53935" odoo-icon:background-gradient="0.2" odoo-icon:box-radius="3.5" odoo-icon:odoo-version="14.0"><defs><linearGradient x1="70" y1="0" x2="0" y2="70" gradientUnits="userSpaceOnUse" id="color-1"><stop offset="0" stop-color="#ff6c68"/><stop offset="1" stop-color="#e53935"/></linearGradient></defs><g fill="none" fill-rule="nonzero" stroke="none" stroke-width="1" stroke-linecap="butt" stroke-linejoin="miter" stroke-miterlimit="10" stroke-dasharray="" stroke-dashoffset="0" font-family="none" font-weight="none" font-size="none" text-anchor="none" style="mix-blend-mode: normal"><path d="M3.5,70c-1.933,0 -3.5,-1.567 -3.5,-3.5v-63c0,-1.933 1.567,-3.5 3.5,-3.5h63c1.933,0 3.5,1.567 3.5,3.5v63c0,1.933 -1.567,3.5 -3.5,3.5z" id="box" fill="url(#color-1)"/><path d="M65,1h-61c-1.95033,0 -3.2667,0.63396 -3.9491,1.90189c0.28378,-1.64806 1.72001,-2.90189 3.4491,-2.90189h63c1.72965,0 3.16627,1.25466 3.44938,2.90352c-0.69803,-1.26902 -2.34782,-1.90352 -4.94938,-1.90352z" id="topBoxShadow" fill="#ffffff" opacity="0.383"/><path d="M4,69h61c2.66667,0 4.33333,-1 5,-3v0.5c0,1.933 -1.567,3.5 -3.5,3.5h-63c-1.933,0 -3.5,-1.567 -3.5,-3.5c0,-0.1611 0,-0.32777 0,-0.5c0.66667,2 2,3 4,3z" id="bottomBoxShadow" fill="#000000" opacity="0.383"/><path d="M28.14692,14c-2.87868,0 -5.2371,2.3621 -5.2371,5.24078c0,1.35792 0.53866,2.5898 1.3961,3.52452l-4.30008,8.6779c-0.15548,-0.01426 -0.3059,-0.04692 -0.46506,-0.04692c-2.87868,0 -5.24078,2.35842 -5.24078,5.2371c0,2.87868 2.3621,5.24078 5.24078,5.24078c1.8216,0 3.4316,-0.94944 4.37138,-2.3736l21.4682,3.09856c0.55798,2.29218 2.62338,4.01764 5.07886,4.01764c2.87868,0 5.24078,-2.35796 5.24078,-5.2371c0,-2.78852 -2.2218,-5.07748 -4.9772,-5.2187l-2.82118,-8.80118c1.20704,-0.96278 2.00146,-2.42696 2.00146,-4.07882c0,-2.87868 -2.36164,-5.2417 -5.24032,-5.2417c-1.8239,0 -3.43528,0.9499 -4.37552,2.37728l-6.97176,-1.90394c-0.3611,-2.53552 -2.5392,-4.5126 -5.16856,-4.5126zM28.14692,16.65466c1.4444,0 2.5898,1.14172 2.5898,2.58612c0,1.4444 -1.1454,2.58658 -2.5898,2.58658c-1.4444,0 -2.58244,-1.14264 -2.58244,-2.58658c0,-1.4444 1.13804,-2.58612 2.58244,-2.58612zM44.66276,20.69438c1.4444,0 2.5829,1.14218 2.5829,2.58658c0,1.4444 -1.1385,2.5852 -2.5829,2.5852c-1.4444,0 -2.58934,-1.1408 -2.58934,-2.5852c0,-1.4444 1.1454,-2.58658 2.58934,-2.58658zM32.63008,21.90602l6.83882,1.8722c0.2553,2.6404 2.4748,4.73064 5.17592,4.73984l2.75908,8.6273c-0.713,0.51796 -1.27466,1.21348 -1.65876,2.0125l-21.01786,-3.03278c-0.12742,-1.2696 -0.69184,-2.41408 -1.5686,-3.2568l4.19106,-8.4663c0.2622,0.0414 0.52348,0.08004 0.79718,0.08004c1.90394,0 3.56454,-1.04236 4.48316,-2.576zM19.54078,34.0468c1.4444,0 2.5898,1.14218 2.5898,2.58658c0.0046,0.68816 -0.2668,1.34964 -0.75348,1.83632c-0.48668,0.48668 -1.14816,0.75808 -1.83632,0.75302c-1.4444,0 -2.58612,-1.1454 -2.58612,-2.58934c-0.00552,-0.6877 0.26496,-1.34872 0.75118,-1.83494c0.48622,-0.48622 1.14724,-0.75716 1.83494,-0.75164zM50.45922,38.79078c1.4444,0 2.58612,1.14494 2.58612,2.58888c0,1.4444 -1.14172,2.57968 -2.58612,2.57968c-1.4444,0 -2.5898,-1.13528 -2.5898,-2.57968c-0.0046,-0.68816 0.2668,-1.34964 0.75348,-1.83586c0.48668,-0.48668 1.14816,-0.75762 1.83632,-0.75302zM14.3,48.96v11.04h41.4v-11.04h-2.8842v8.23216h-3.53602v-5.85212h-2.8842v5.85212h-3.53326v-5.85212h-2.88328v5.85212h-3.5374v-8.23216h-2.88374v8.23216h-3.5374v-5.85212h-2.88282v5.85212h-3.53326v-5.85212h-2.8842v5.85212h-3.53602v-8.23216z" id="shadow" fill="#000000" opacity="0.3"/><path d="M40.16563,18.38333l0.80495,-0.80495c0.94897,-0.94897 2.25456,-1.53912 3.69218,-1.53912c2.87868,0 5.24032,2.36302 5.24032,5.2417c0,1.43223 -0.59721,2.72337 -1.54278,3.66893l-0.44684,0.44684l2.80934,8.76423c2.7554,0.14122 4.9772,2.43018 4.9772,5.2187c0,1.43859 -0.58972,2.74707 -1.53895,3.69629l-6.26409,6.26409h1.38282v1.15598l3.53602,-3.53602h2.8842v11.04l-12,12h-40.2c-1.933,0 -3.5,-1.567 -3.5,-3.5l0,-28.51025l24.45069,-24.45069c0.94929,-0.94929 2.25781,-1.53906 3.69623,-1.53906c2.62936,0 4.80746,1.97708 5.16856,4.5126z" id="flatShadow" fill="#000000" opacity="0.324"/><path d="M28.14692,12c-2.87868,0 -5.2371,2.3621 -5.2371,5.24078c0,1.35792 0.53866,2.5898 1.3961,3.52452l-4.30008,8.6779c-0.15548,-0.01426 -0.3059,-0.04692 -0.46506,-0.04692c-2.87868,0 -5.24078,2.35842 -5.24078,5.2371c0,2.87868 2.3621,5.24078 5.24078,5.24078c1.8216,0 3.4316,-0.94944 4.37138,-2.3736l21.4682,3.09856c0.55798,2.29218 2.62338,4.01764 5.07886,4.01764c2.87868,0 5.24078,-2.35796 5.24078,-5.2371c0,-2.78852 -2.2218,-5.07748 -4.9772,-5.2187l-2.82118,-8.80118c1.20704,-0.96278 2.00146,-2.42696 2.00146,-4.07882c0,-2.87868 -2.36164,-5.2417 -5.24032,-5.2417c-1.8239,0 -3.43528,0.9499 -4.37552,2.37728l-6.97176,-1.90394c-0.3611,-2.53552 -2.5392,-4.5126 -5.16856,-4.5126zM28.14692,14.65466c1.4444,0 2.5898,1.14172 2.5898,2.58612c0,1.4444 -1.1454,2.58658 -2.5898,2.58658c-1.4444,0 -2.58244,-1.14264 -2.58244,-2.58658c0,-1.4444 1.13804,-2.58612 2.58244,-2.58612zM44.66276,18.69438c1.4444,0 2.5829,1.14218 2.5829,2.58658c0,1.4444 -1.1385,2.5852 -2.5829,2.5852c-1.4444,0 -2.58934,-1.1408 -2.58934,-2.5852c0,-1.4444 1.1454,-2.58658 2.58934,-2.58658zM32.63008,19.90602l6.83882,1.8722c0.2553,2.6404 2.4748,4.73064 5.17592,4.73984l2.75908,8.6273c-0.713,0.51796 -1.27466,1.21348 -1.65876,2.0125l-21.01786,-3.03278c-0.12742,-1.2696 -0.69184,-2.41408 -1.5686,-3.2568l4.19106,-8.4663c0.2622,0.0414 0.52348,0.08004 0.79718,0.08004c1.90394,0 3.56454,-1.04236 4.48316,-2.576zM19.54078,32.0468c1.4444,0 2.5898,1.14218 2.5898,2.58658c0.0046,0.68816 -0.2668,1.34964 -0.75348,1.83632c-0.48668,0.48668 -1.14816,0.75808 -1.83632,0.75302c-1.4444,0 -2.58612,-1.1454 -2.58612,-2.58934c-0.00552,-0.6877 0.26496,-1.34872 0.75118,-1.83494c0.48622,-0.48622 1.14724,-0.75716 1.83494,-0.75164zM50.45922,36.79078c1.4444,0 2.58612,1.14494 2.58612,2.58888c0,1.4444 -1.14172,2.57968 -2.58612,2.57968c-1.4444,0 -2.5898,-1.13528 -2.5898,-2.57968c-0.0046,-0.68816 0.2668,-1.34964 0.75348,-1.83586c0.48668,-0.48668 1.14816,-0.75762 1.83632,-0.75302zM14.3,46.96v11.04h41.4v-11.04h-2.8842v8.23216h-3.53602v-5.85212h-2.8842v5.85212h-3.53326v-5.85212h-2.88328v5.85212h-3.5374v-8.23216h-2.88374v8.23216h-3.5374v-5.85212h-2.88282v5.85212h-3.53326v-5.85212h-2.8842v5.85212h-3.53602v-8.23216z" id="icon" fill="#ffffff"/></g></svg>