<svg version="1.1" xmlns="http://www.w3.org/2000/svg" xmlns:xlink="http://www.w3.org/1999/xlink" width="70" height="70" viewBox="0,0,70,70" odoo-icon:version="1.0" xmlns:odoo-icon="https://ivantodorovich.github.io/odoo-icon" odoo-icon:size="70" odoo-icon:icon-size="0.6" odoo-icon:icon-color="#FFFFFF" odoo-icon:icon-flat-shadow-angle="135" odoo-icon:background-color="#5a9442" odoo-icon:background-gradient="0.2" odoo-icon:box-radius="3.5" odoo-icon:odoo-version="14.0"><defs><linearGradient x1="70" y1="0" x2="0" y2="70" gradientUnits="userSpaceOnUse" id="color-1"><stop offset="0" stop-color="#8dc775"/><stop offset="1" stop-color="#5a9442"/></linearGradient></defs><g fill="none" fill-rule="nonzero" stroke="none" stroke-width="1" stroke-linecap="butt" stroke-linejoin="miter" stroke-miterlimit="10" stroke-dasharray="" stroke-dashoffset="0" font-family="none" font-weight="none" font-size="none" text-anchor="none" style="mix-blend-mode: normal"><path d="M3.5,70c-1.933,0 -3.5,-1.567 -3.5,-3.5v-63c0,-1.933 1.567,-3.5 3.5,-3.5h63c1.933,0 3.5,1.567 3.5,3.5v63c0,1.933 -1.567,3.5 -3.5,3.5z" id="box" fill="url(#color-1)"/><path d="M65,1h-61c-1.95033,0 -3.2667,0.63396 -3.9491,1.90189c0.28378,-1.64806 1.72001,-2.90189 3.4491,-2.90189h63c1.72965,0 3.16627,1.25466 3.44938,2.90352c-0.69803,-1.26902 -2.34782,-1.90352 -4.94938,-1.90352z" id="topBoxShadow" fill="#ffffff" opacity="0.383"/><path d="M4,69h61c2.66667,0 4.33333,-1 5,-3v0.5c0,1.933 -1.567,3.5 -3.5,3.5h-63c-1.933,0 -3.5,-1.567 -3.5,-3.5c0,-0.1611 0,-0.32777 0,-0.5c0.66667,2 2,3 4,3z" id="bottomBoxShadow" fill="#000000" opacity="0.383"/><path d="M34.9994,57.98891c-0.83132,0 -1.61396,-0.32271 -2.20272,-0.90937l-17.88867,-17.88825c-1.21026,-1.21613 -1.21026,-3.19434 -0.00252,-4.40838l6.55319,-6.55193c0.40454,-0.40454 1.02561,-0.50106 1.53423,-0.23542c0.50693,0.2648 0.78348,0.8288 0.68402,1.39197c-0.06672,0.37516 -0.09694,0.67605 -0.09694,0.94756c0,2.8687 2.33491,5.25145 5.20487,5.25145c2.87248,0 4.97029,-2.38275 4.97029,-5.25145c0,-2.87248 -2.09739,-5.20823 -4.97029,-5.20823c-0.26899,0 -0.5682,0.03063 -0.94336,0.09694c-0.56862,0.10491 -1.12717,-0.17709 -1.39197,-0.68402c-0.2648,-0.50819 -0.16912,-1.12969 0.23542,-1.53423l6.10962,-6.1113c1.1834,-1.17837 3.23001,-1.17585 4.40838,-0.00252l4.47301,4.47594c0.93371,-2.90227 3.65889,-5.00889 6.86583,-5.00889c3.97615,0 7.21162,3.23673 7.21162,7.21413c0,3.20693 -2.10536,5.93211 -5.00889,6.86457l4.34543,4.3425c1.2132,1.21613 1.2132,3.19434 0.00126,4.40964l-17.88615,17.88657c-0.59128,0.5896 -1.3735,0.91189 -2.20524,0.91189zM21.18465,32.21425l-4.42223,4.42055c-0.19094,0.1922 -0.19094,0.50945 0.00252,0.70417l17.88279,17.88363c0.25095,0.24843 0.4486,0.25137 0.70417,-0.00252l17.88237,-17.88363c0.1922,-0.19346 0.1922,-0.50819 -0.00126,-0.70291l-6.30728,-6.30308c-0.39489,-0.39489 -0.49686,-0.99666 -0.25389,-1.49814c0.24339,-0.50148 0.77257,-0.79943 1.33322,-0.73102l0.20017,0.0256c0.10995,0.01511 0.22031,0.03357 0.33572,0.03357c2.53046,0 4.58841,-2.0571 4.58841,-4.58589c0,-2.53172 -2.05836,-4.59135 -4.58841,-4.59135c-2.52921,0 -4.58715,2.05962 -4.58715,4.59135c0,0.10491 0.01637,0.20731 0.03063,0.31012l0.02812,0.23416c0.05917,0.55309 -0.2371,1.08353 -0.739,1.32314c-0.49854,0.23794 -1.09905,0.13555 -1.49184,-0.2564l-6.43191,-6.43485c-0.25095,-0.24843 -0.4486,-0.25137 -0.70417,0.00252l-3.97992,3.97992c3.41298,0.84517 5.7118,3.93292 5.7118,7.60356c0,4.31564 -3.27534,7.8734 -7.59349,7.8734c-3.66938,-0.00084 -6.75546,-2.58544 -7.59937,-5.99548z" id="shadow" fill="#000000" opacity="0.3"/><path d="M32.79458,14.89424c1.1834,-1.17837 3.23001,-1.17585 4.40838,-0.00252l3.91152,3.91408l2.33277,-2.33277c1.30557,-1.30557 3.10759,-2.11427 5.09455,-2.11427c3.97615,0 7.21162,3.23673 7.21162,7.21413c0,1.98672 -0.80802,3.78856 -2.11326,5.09379l-2.33301,2.33301l3.78281,3.78026c1.2132,1.21613 1.2132,3.19434 0.00126,4.40964l-17.88615,17.88657l-14.92382,14.92382h-18.78123c-1.933,0 -3.5,-1.567 -3.5,-3.5l0,-18.81118z" id="flatShadow" fill="#000000" opacity="0.324"/><path d="M34.9994,55.98891c-0.83132,0 -1.61396,-0.32271 -2.20272,-0.90937l-17.88867,-17.88825c-1.21026,-1.21613 -1.21026,-3.19434 -0.00252,-4.40838l6.55319,-6.55193c0.40454,-0.40454 1.02561,-0.50106 1.53423,-0.23542c0.50693,0.2648 0.78348,0.8288 0.68402,1.39197c-0.06672,0.37516 -0.09694,0.67605 -0.09694,0.94756c0,2.8687 2.33491,5.25145 5.20487,5.25145c2.87248,0 4.97029,-2.38275 4.97029,-5.25145c0,-2.87248 -2.09739,-5.20823 -4.97029,-5.20823c-0.26899,0 -0.5682,0.03063 -0.94336,0.09694c-0.56862,0.10491 -1.12717,-0.17709 -1.39197,-0.68402c-0.2648,-0.50819 -0.16912,-1.12969 0.23542,-1.53423l6.10962,-6.1113c1.1834,-1.17837 3.23001,-1.17585 4.40838,-0.00252l4.47301,4.47594c0.93371,-2.90227 3.65889,-5.00889 6.86583,-5.00889c3.97615,0 7.21162,3.23673 7.21162,7.21413c0,3.20693 -2.10536,5.93211 -5.00889,6.86457l4.34543,4.3425c1.2132,1.21613 1.2132,3.19434 0.00126,4.40964l-17.88615,17.88657c-0.59128,0.5896 -1.3735,0.91189 -2.20524,0.91189zM21.18465,30.21425l-4.42223,4.42055c-0.19094,0.1922 -0.19094,0.50945 0.00252,0.70417l17.88279,17.88363c0.25095,0.24843 0.4486,0.25137 0.70417,-0.00252l17.88237,-17.88363c0.1922,-0.19346 0.1922,-0.50819 -0.00126,-0.70291l-6.30728,-6.30308c-0.39489,-0.39489 -0.49686,-0.99666 -0.25389,-1.49814c0.24339,-0.50148 0.77257,-0.79943 1.33322,-0.73102l0.20017,0.0256c0.10995,0.01511 0.22031,0.03357 0.33572,0.03357c2.53046,0 4.58841,-2.0571 4.58841,-4.58589c0,-2.53172 -2.05836,-4.59135 -4.58841,-4.59135c-2.52921,0 -4.58715,2.05962 -4.58715,4.59135c0,0.10491 0.01637,0.20731 0.03063,0.31012l0.02812,0.23416c0.05917,0.55309 -0.2371,1.08353 -0.739,1.32314c-0.49854,0.23794 -1.09905,0.13555 -1.49184,-0.2564l-6.43191,-6.43485c-0.25095,-0.24843 -0.4486,-0.25137 -0.70417,0.00252l-3.97992,3.97992c3.41298,0.84517 5.7118,3.93292 5.7118,7.60356c0,4.31564 -3.27534,7.8734 -7.59349,7.8734c-3.66938,-0.00084 -6.75546,-2.58544 -7.59937,-5.99548z" id="icon" fill="#ffffff"/></g></svg>