<svg version="1.1" xmlns="http://www.w3.org/2000/svg" xmlns:xlink="http://www.w3.org/1999/xlink" width="70" height="70" viewBox="0,0,70,70" odoo-icon:version="1.0" xmlns:odoo-icon="https://ivantodorovich.github.io/odoo-icon" odoo-icon:size="70" odoo-icon:icon-size="0.69" odoo-icon:icon-color="#FFFFFF" odoo-icon:icon-flat-shadow-angle="135" odoo-icon:background-color="#eea544" odoo-icon:background-gradient="0.2" odoo-icon:box-radius="3.5" odoo-icon:odoo-version="14.0"><defs><linearGradient x1="70" y1="0" x2="0" y2="70" gradientUnits="userSpaceOnUse" id="color-1"><stop offset="0" stop-color="#ffd877"/><stop offset="1" stop-color="#eea544"/></linearGradient></defs><g fill="none" fill-rule="nonzero" stroke="none" stroke-width="1" stroke-linecap="butt" stroke-linejoin="miter" stroke-miterlimit="10" stroke-dasharray="" stroke-dashoffset="0" font-family="none" font-weight="none" font-size="none" text-anchor="none" style="mix-blend-mode: normal"><path d="M3.5,70c-1.933,0 -3.5,-1.567 -3.5,-3.5v-63c0,-1.933 1.567,-3.5 3.5,-3.5h63c1.933,0 3.5,1.567 3.5,3.5v63c0,1.933 -1.567,3.5 -3.5,3.5z" id="box" fill="url(#color-1)"/><path d="M65,1h-61c-1.95033,0 -3.2667,0.63396 -3.9491,1.90189c0.28378,-1.64806 1.72001,-2.90189 3.4491,-2.90189h63c1.72965,0 3.16627,1.25466 3.44938,2.90352c-0.69803,-1.26902 -2.34782,-1.90352 -4.94938,-1.90352z" id="topBoxShadow" fill="#ffffff" opacity="0.383"/><path d="M4,69h61c2.66667,0 4.33333,-1 5,-3v0.5c0,1.933 -1.567,3.5 -3.5,3.5h-63c-1.933,0 -3.5,-1.567 -3.5,-3.5c0,-0.1611 0,-0.32777 0,-0.5c0.66667,2 2,3 4,3z" id="bottomBoxShadow" fill="#000000" opacity="0.383"/><path d="M40.69768,53.9453c-3.44279,1.37789 -7.37631,0.54972 -9.97054,-2.09964c-2.59478,-2.64936 -3.34024,-6.59942 -1.89067,-10.01244l6.01662,6.01717l4.87031,-4.87306l-6.01441,-6.01662c3.47257,-1.481 7.49761,-0.68095 10.13981,2.01583c2.64164,2.69678 3.35898,6.73782 1.80686,10.17896l4.44078,4.44078c2.14044,-3.07227 3.28675,-6.72734 3.28289,-10.47174c-0.06672,-11.94667 -5.56173,-23.21514 -14.93292,-30.62454c0.98145,3.59994 1.55157,7.29912 1.69989,11.02752c0.16486,2.19172 -0.5828,4.35477 -2.06601,5.97692c-1.4832,1.62215 -3.57071,2.56059 -5.7685,2.59202c-2.25017,-0.00551 -4.40329,-0.91749 -5.97251,-2.53027c-1.56922,-1.61278 -2.42275,-3.78961 -2.36706,-6.03922l0.06892,-0.82706c-4.808,5.71777 -7.43641,12.95348 -7.42042,20.42408c0.0011,6.77366 3.72841,12.99759 9.69926,16.19723c5.97085,3.19908 13.21704,2.85447 18.85762,-0.89654z" id="shadow" fill="#000000" opacity="0.3"/><path d="M24.04115,20.69991l-0.06892,0.82706c-0.02532,1.02291 0.13734,2.03077 0.4698,2.9774l14.00438,-14.00438c9.37119,7.40939 14.86621,18.67787 14.93292,30.62454c0.00386,3.7444 -1.14245,7.39947 -3.28289,10.47174l-18.40372,18.40372h-28.19271c-1.933,0 -3.5,-1.567 -3.5,-3.5l0,-21.75894z" id="flatShadow" fill="#000000" opacity="0.324"/><path d="M40.69768,51.9453c-3.44279,1.37789 -7.37631,0.54972 -9.97054,-2.09964c-2.59478,-2.64936 -3.34024,-6.59942 -1.89067,-10.01244l6.01662,6.01717l4.87031,-4.87306l-6.01441,-6.01662c3.47257,-1.481 7.49761,-0.68095 10.13981,2.01583c2.64164,2.69678 3.35898,6.73782 1.80686,10.17896l4.44078,4.44078c2.14044,-3.07227 3.28675,-6.72734 3.28289,-10.47174c-0.06672,-11.94667 -5.56173,-23.21514 -14.93292,-30.62454c0.98145,3.59994 1.55157,7.29912 1.69989,11.02752c0.16486,2.19172 -0.5828,4.35477 -2.06601,5.97692c-1.4832,1.62215 -3.57071,2.56059 -5.7685,2.59202c-2.25017,-0.00551 -4.40329,-0.91749 -5.97251,-2.53027c-1.56922,-1.61278 -2.42275,-3.78961 -2.36706,-6.03922l0.06892,-0.82706c-4.808,5.71777 -7.43641,12.95348 -7.42042,20.42408c0.0011,6.77366 3.72841,12.99759 9.69926,16.19723c5.97085,3.19908 13.21704,2.85447 18.85762,-0.89654z" id="icon" fill="#ffffff"/></g></svg>