<svg version="1.1" xmlns="http://www.w3.org/2000/svg" xmlns:xlink="http://www.w3.org/1999/xlink" width="70" height="70" viewBox="0,0,70,70" odoo-icon:version="1.0" xmlns:odoo-icon="https://ivantodorovich.github.io/odoo-icon" odoo-icon:size="70" odoo-icon:icon-size="0.58" odoo-icon:icon-color="#FFFFFF" odoo-icon:icon-flat-shadow-angle="135" odoo-icon:background-color="#334984" odoo-icon:background-gradient="0.2" odoo-icon:box-radius="3.5" odoo-icon:odoo-version="14.0"><defs><linearGradient x1="70" y1="0" x2="0" y2="70" gradientUnits="userSpaceOnUse" id="color-1"><stop offset="0" stop-color="#667cb7"/><stop offset="1" stop-color="#334984"/></linearGradient></defs><g fill="none" fill-rule="nonzero" stroke="none" stroke-width="1" stroke-linecap="butt" stroke-linejoin="miter" stroke-miterlimit="10" stroke-dasharray="" stroke-dashoffset="0" font-family="none" font-weight="none" font-size="none" text-anchor="none" style="mix-blend-mode: normal"><path d="M3.5,70c-1.933,0 -3.5,-1.567 -3.5,-3.5v-63c0,-1.933 1.567,-3.5 3.5,-3.5h63c1.933,0 3.5,1.567 3.5,3.5v63c0,1.933 -1.567,3.5 -3.5,3.5z" id="box" fill="url(#color-1)"/><path d="M65,1h-61c-1.95033,0 -3.2667,0.63396 -3.9491,1.90189c0.28378,-1.64806 1.72001,-2.90189 3.4491,-2.90189h63c1.72965,0 3.16627,1.25466 3.44938,2.90352c-0.69803,-1.26902 -2.34782,-1.90352 -4.94938,-1.90352z" id="topBoxShadow" fill="#ffffff" opacity="0.383"/><path d="M4,69h61c2.66667,0 4.33333,-1 5,-3v0.5c0,1.933 -1.567,3.5 -3.5,3.5h-63c-1.933,0 -3.5,-1.567 -3.5,-3.5c0,-0.1611 0,-0.32777 0,-0.5c0.66667,2 2,3 4,3z" id="bottomBoxShadow" fill="#000000" opacity="0.383"/><path d="M29.87526,22.07533h25.62474v2.56247h-25.62474zM29.87526,37.45018v-2.56247h25.62474v2.56247zM29.87526,50.26255v-2.56247h25.62474v2.56247zM19.62536,32.32523c0.70724,0 1.36816,0.13366 1.98192,0.40057c0.61376,0.26691 1.16111,0.63385 1.64162,1.10125c0.48052,0.46699 0.84746,1.00777 1.10125,1.62153c0.25338,0.61376 0.38704,1.28124 0.40057,2.00201c0,0.70724 -0.13366,1.36816 -0.40057,1.98192c-0.26691,0.61376 -0.63385,1.16111 -1.10125,1.64162c-0.46699,0.48052 -1.00777,0.84746 -1.62153,1.10125c-0.61376,0.25338 -1.28124,0.38704 -2.00201,0.40057c-0.70724,0 -1.36816,-0.13366 -1.98192,-0.40057c-0.61376,-0.26691 -1.16111,-0.63385 -1.64162,-1.10125c-0.48052,-0.46699 -0.84746,-1.00777 -1.10125,-1.62153c-0.25338,-0.61376 -0.38704,-1.28124 -0.40057,-2.00201c0,-0.70724 0.13366,-1.36816 0.40057,-1.98192c0.26691,-0.61376 0.63385,-1.16111 1.10125,-1.64162c0.46699,-0.48052 1.00777,-0.84746 1.62153,-1.10125c0.61376,-0.25338 1.28124,-0.38704 2.00201,-0.40057zM19.62536,40.33286c0.40057,0 0.77407,-0.07339 1.12093,-0.22017c0.34686,-0.14678 0.64738,-0.35383 0.90076,-0.62073c0.25338,-0.26691 0.46043,-0.57399 0.62073,-0.92085c0.16031,-0.34686 0.24026,-0.72077 0.24026,-1.12093c0,-0.40057 -0.07339,-0.77407 -0.22017,-1.12093c-0.14678,-0.34686 -0.35383,-0.64738 -0.62073,-0.90076c-0.26691,-0.25338 -0.57399,-0.46043 -0.92085,-0.62073c-0.34686,-0.16031 -0.72077,-0.24026 -1.12093,-0.24026c-0.40057,0 -0.77407,0.07339 -1.12093,0.22017c-0.34686,0.14678 -0.64738,0.35383 -0.90076,0.62073c-0.25338,0.26691 -0.46043,0.57399 -0.62073,0.92085c-0.16031,0.34686 -0.24026,0.72077 -0.24026,1.12093c0,0.40057 0.07339,0.77407 0.22017,1.12093c0.14678,0.34686 0.35383,0.64738 0.62073,0.90076c0.26691,0.25338 0.57399,0.46043 0.92085,0.62073c0.34686,0.16031 0.72077,0.24026 1.12093,0.24026zM19.62536,45.1376c0.70724,0 1.36816,0.13366 1.98192,0.40057c0.61376,0.26691 1.16111,0.63385 1.64162,1.10125c0.48052,0.46699 0.84746,1.00777 1.10125,1.62153c0.25338,0.61376 0.38704,1.28124 0.40057,2.00201c0,0.70724 -0.13366,1.36816 -0.40057,1.98192c-0.26691,0.61376 -0.63385,1.16111 -1.10125,1.64162c-0.46699,0.48052 -1.00777,0.84746 -1.62153,1.10125c-0.61376,0.25338 -1.28124,0.38704 -2.00201,0.40057c-0.70724,0 -1.36816,-0.13366 -1.98192,-0.40057c-0.61376,-0.26691 -1.16111,-0.63385 -1.64162,-1.10125c-0.48052,-0.46699 -0.84746,-1.00777 -1.10125,-1.62153c-0.25338,-0.61376 -0.38704,-1.28124 -0.40057,-2.00201c0,-0.70724 0.13366,-1.36816 0.40057,-1.98192c0.26691,-0.61376 0.63385,-1.16111 1.10125,-1.64162c0.46699,-0.48052 1.00777,-0.84746 1.62153,-1.10125c0.61376,-0.25338 1.28124,-0.38704 2.00201,-0.40057zM19.62536,53.14523c0.40057,0 0.77407,-0.07339 1.12093,-0.22017c0.34686,-0.14678 0.64738,-0.35383 0.90076,-0.62073c0.25338,-0.26691 0.46043,-0.57399 0.62073,-0.92085c0.16031,-0.34686 0.24026,-0.72077 0.24026,-1.12093c0,-0.40057 -0.07339,-0.77407 -0.22017,-1.12093c-0.14678,-0.34686 -0.35383,-0.64738 -0.62073,-0.90076c-0.26691,-0.25338 -0.57399,-0.46043 -0.92085,-0.62073c-0.34686,-0.16031 -0.72077,-0.24026 -1.12093,-0.24026c-0.40057,0 -0.77407,0.07339 -1.12093,0.22017c-0.34686,0.14678 -0.64738,0.35383 -0.90076,0.62073c-0.25338,0.26691 -0.46043,0.57399 -0.62073,0.92085c-0.16031,0.34686 -0.24026,0.72077 -0.24026,1.12093c0,0.40057 0.07339,0.77407 0.22017,1.12093c0.14678,0.34686 0.35383,0.64738 0.62073,0.90076c0.26691,0.25338 0.57399,0.46043 0.92085,0.62073c0.34686,0.16031 0.72077,0.24026 1.12093,0.24026zM18.34412,24.11711l5.50542,-5.50542l1.80193,1.80193l-7.30695,7.30695l-3.46324,-3.46324l1.80193,-1.80193z" id="shadow" fill="#000000" opacity="0.3"/><path d="M55.5,20.07533v2.56247l-10.2499,10.2499h10.2499v2.56247l-10.2499,10.2499h10.2499v2.56247l-21.73745,21.73745h-30.26255c-1.933,0 -3.5,-1.567 -3.5,-3.5l0,-18.67188l16.05269,-16.05269c0.45526,-0.45526 0.97906,-0.80502 1.57066,-1.04964c0.61376,-0.25338 1.28124,-0.38704 2.00201,-0.40057l10.2499,-10.2499zM23.84955,16.61168l1.80193,1.80193l-25.65148,25.65148l0,-6.92647l16.68323,-16.68323l1.66089,1.66171z" id="flatShadow" fill="#000000" opacity="0.324"/><path d="M29.87526,20.07533h25.62474v2.56247h-25.62474zM29.87526,35.45018v-2.56247h25.62474v2.56247zM29.87526,48.26255v-2.56247h25.62474v2.56247zM19.62536,30.32523c0.70724,0 1.36816,0.13366 1.98192,0.40057c0.61376,0.26691 1.16111,0.63385 1.64162,1.10125c0.48052,0.46699 0.84746,1.00777 1.10125,1.62153c0.25338,0.61376 0.38704,1.28124 0.40057,2.00201c0,0.70724 -0.13366,1.36816 -0.40057,1.98192c-0.26691,0.61376 -0.63385,1.16111 -1.10125,1.64162c-0.46699,0.48052 -1.00777,0.84746 -1.62153,1.10125c-0.61376,0.25338 -1.28124,0.38704 -2.00201,0.40057c-0.70724,0 -1.36816,-0.13366 -1.98192,-0.40057c-0.61376,-0.26691 -1.16111,-0.63385 -1.64162,-1.10125c-0.48052,-0.46699 -0.84746,-1.00777 -1.10125,-1.62153c-0.25338,-0.61376 -0.38704,-1.28124 -0.40057,-2.00201c0,-0.70724 0.13366,-1.36816 0.40057,-1.98192c0.26691,-0.61376 0.63385,-1.16111 1.10125,-1.64162c0.46699,-0.48052 1.00777,-0.84746 1.62153,-1.10125c0.61376,-0.25338 1.28124,-0.38704 2.00201,-0.40057zM19.62536,38.33286c0.40057,0 0.77407,-0.07339 1.12093,-0.22017c0.34686,-0.14678 0.64738,-0.35383 0.90076,-0.62073c0.25338,-0.26691 0.46043,-0.57399 0.62073,-0.92085c0.16031,-0.34686 0.24026,-0.72077 0.24026,-1.12093c0,-0.40057 -0.07339,-0.77407 -0.22017,-1.12093c-0.14678,-0.34686 -0.35383,-0.64738 -0.62073,-0.90076c-0.26691,-0.25338 -0.57399,-0.46043 -0.92085,-0.62073c-0.34686,-0.16031 -0.72077,-0.24026 -1.12093,-0.24026c-0.40057,0 -0.77407,0.07339 -1.12093,0.22017c-0.34686,0.14678 -0.64738,0.35383 -0.90076,0.62073c-0.25338,0.26691 -0.46043,0.57399 -0.62073,0.92085c-0.16031,0.34686 -0.24026,0.72077 -0.24026,1.12093c0,0.40057 0.07339,0.77407 0.22017,1.12093c0.14678,0.34686 0.35383,0.64738 0.62073,0.90076c0.26691,0.25338 0.57399,0.46043 0.92085,0.62073c0.34686,0.16031 0.72077,0.24026 1.12093,0.24026zM19.62536,43.1376c0.70724,0 1.36816,0.13366 1.98192,0.40057c0.61376,0.26691 1.16111,0.63385 1.64162,1.10125c0.48052,0.46699 0.84746,1.00777 1.10125,1.62153c0.25338,0.61376 0.38704,1.28124 0.40057,2.00201c0,0.70724 -0.13366,1.36816 -0.40057,1.98192c-0.26691,0.61376 -0.63385,1.16111 -1.10125,1.64162c-0.46699,0.48052 -1.00777,0.84746 -1.62153,1.10125c-0.61376,0.25338 -1.28124,0.38704 -2.00201,0.40057c-0.70724,0 -1.36816,-0.13366 -1.98192,-0.40057c-0.61376,-0.26691 -1.16111,-0.63385 -1.64162,-1.10125c-0.48052,-0.46699 -0.84746,-1.00777 -1.10125,-1.62153c-0.25338,-0.61376 -0.38704,-1.28124 -0.40057,-2.00201c0,-0.70724 0.13366,-1.36816 0.40057,-1.98192c0.26691,-0.61376 0.63385,-1.16111 1.10125,-1.64162c0.46699,-0.48052 1.00777,-0.84746 1.62153,-1.10125c0.61376,-0.25338 1.28124,-0.38704 2.00201,-0.40057zM19.62536,51.14523c0.40057,0 0.77407,-0.07339 1.12093,-0.22017c0.34686,-0.14678 0.64738,-0.35383 0.90076,-0.62073c0.25338,-0.26691 0.46043,-0.57399 0.62073,-0.92085c0.16031,-0.34686 0.24026,-0.72077 0.24026,-1.12093c0,-0.40057 -0.07339,-0.77407 -0.22017,-1.12093c-0.14678,-0.34686 -0.35383,-0.64738 -0.62073,-0.90076c-0.26691,-0.25338 -0.57399,-0.46043 -0.92085,-0.62073c-0.34686,-0.16031 -0.72077,-0.24026 -1.12093,-0.24026c-0.40057,0 -0.77407,0.07339 -1.12093,0.22017c-0.34686,0.14678 -0.64738,0.35383 -0.90076,0.62073c-0.25338,0.26691 -0.46043,0.57399 -0.62073,0.92085c-0.16031,0.34686 -0.24026,0.72077 -0.24026,1.12093c0,0.40057 0.07339,0.77407 0.22017,1.12093c0.14678,0.34686 0.35383,0.64738 0.62073,0.90076c0.26691,0.25338 0.57399,0.46043 0.92085,0.62073c0.34686,0.16031 0.72077,0.24026 1.12093,0.24026zM18.34412,22.11711l5.50542,-5.50542l1.80193,1.80193l-7.30695,7.30695l-3.46324,-3.46324l1.80193,-1.80193z" id="icon" fill="#ffffff"/></g></svg>