<svg version="1.1" xmlns="http://www.w3.org/2000/svg" xmlns:xlink="http://www.w3.org/1999/xlink" width="70" height="70" viewBox="0,0,70,70" odoo-icon:version="1.0" xmlns:odoo-icon="https://ivantodorovich.github.io/odoo-icon" odoo-icon:size="70" odoo-icon:icon-size="0.65" odoo-icon:icon-color="#FFFFFF" odoo-icon:icon-flat-shadow-angle="135" odoo-icon:background-color="#3949ab" odoo-icon:background-gradient="0.2" odoo-icon:box-radius="3.5" odoo-icon:odoo-version="14.0"><defs><linearGradient x1="70" y1="0" x2="0" y2="70" gradientUnits="userSpaceOnUse" id="color-1"><stop offset="0" stop-color="#6c7cde"/><stop offset="1" stop-color="#3949ab"/></linearGradient></defs><g fill="none" fill-rule="nonzero" stroke="none" stroke-width="1" stroke-linecap="butt" stroke-linejoin="miter" stroke-miterlimit="10" stroke-dasharray="" stroke-dashoffset="0" font-family="none" font-weight="none" font-size="none" text-anchor="none" style="mix-blend-mode: normal"><path d="M3.5,70c-1.933,0 -3.5,-1.567 -3.5,-3.5v-63c0,-1.933 1.567,-3.5 3.5,-3.5h63c1.933,0 3.5,1.567 3.5,3.5v63c0,1.933 -1.567,3.5 -3.5,3.5z" id="box" fill="url(#color-1)"/><path d="M65,1h-61c-1.95033,0 -3.2667,0.63396 -3.9491,1.90189c0.28378,-1.64806 1.72001,-2.90189 3.4491,-2.90189h63c1.72965,0 3.16627,1.25466 3.44938,2.90352c-0.69803,-1.26902 -2.34782,-1.90352 -4.94938,-1.90352z" id="topBoxShadow" fill="#ffffff" opacity="0.383"/><path d="M4,69h61c2.66667,0 4.33333,-1 5,-3v0.5c0,1.933 -1.567,3.5 -3.5,3.5h-63c-1.933,0 -3.5,-1.567 -3.5,-3.5c0,-0.1611 0,-0.32777 0,-0.5c0.66667,2 2,3 4,3z" id="bottomBoxShadow" fill="#000000" opacity="0.383"/><path d="M34.25554,30.65568c-0.80454,0 -1.45682,0.65228 -1.45682,1.45682v21.94568c0,0.805 0.65182,1.45682 1.45682,1.45682c0.36432,0 0.67068,-0.115 0.92,-0.30682l3.66068,-2.97068l3.18182,6.93818c0.24932,0.5175 0.76682,0.82432 1.3225,0.82432c0.21068,0 0.42182,0 0.6325,-0.15318l5.29,-2.45318c0.72818,-0.345 1.07318,-1.22682 0.69,-1.93568l-3.20068,-6.9575l4.61932,-0.8625c0.3174,-0.08234 0.60352,-0.25576 0.82432,-0.49818c0.5175,-0.61318 0.44068,-1.51432 -0.23,-2.07l-16.75182,-14.0875l-0.01932,0.01932c-0.2622,-0.22264 -0.59524,-0.345 -0.93932,-0.345M42.38236,33.16682v-3.83318h9.58318v3.83318h-9.58318M40.13986,23.12318l5.42432,-5.42432l2.7025,2.7025l-5.42432,5.42432l-2.7025,-2.7025M32.79918,14h3.83318v9.58318h-3.83318v-9.58318M21.16486,42.09818l5.42432,-5.42432l2.7025,2.7025l-5.42432,5.42432l-2.7025,-2.7025M21.16486,20.40182l2.7025,-2.7025l5.42432,5.42432l-2.7025,2.7025l-5.42432,-5.42432M27.04918,33.16682h-9.58318v-3.83318h9.58318z" id="shadow" fill="#000000" opacity="0.3"/><path d="M-16.69875,83.36679v-3.75682c0,-0.40227 0.16307,-0.76647 0.42671,-1.03011l7.43682,-7.43682l-0.52239,-0.52239l54.92179,-54.92179l2.7025,2.7025l-11.70995,11.70995l1.65564,1.39232l4.16998,-4.16998h9.58318v3.83318l-6.46544,6.46544l6.4659,5.43752c0.67068,0.55568 0.7475,1.45682 0.23,2.07c-0.01783,0.01958 -0.03609,0.03871 -0.05476,0.05738l-4.10158,4.10158l1.91338,4.15922c0.29978,0.55458 0.15386,1.21503 -0.27256,1.64146l-14.90058,14.90058h-31.2799c-1.87794,0 -3.41044,-1.47901 -3.49621,-3.33574zM36.63236,12v9.58318l-9.58318,9.58318v0.00046l-27.04918,27.04918v-18.64932l23.86736,-23.86736l2.61625,2.61625l6.31557,-6.31557z" id="flatShadow" fill="#000000" opacity="0.324"/><path d="M34.25554,28.65568c-0.80454,0 -1.45682,0.65228 -1.45682,1.45682v21.94568c0,0.805 0.65182,1.45682 1.45682,1.45682c0.36432,0 0.67068,-0.115 0.92,-0.30682l3.66068,-2.97068l3.18182,6.93818c0.24932,0.5175 0.76682,0.82432 1.3225,0.82432c0.21068,0 0.42182,0 0.6325,-0.15318l5.29,-2.45318c0.72818,-0.345 1.07318,-1.22682 0.69,-1.93568l-3.20068,-6.9575l4.61932,-0.8625c0.3174,-0.08234 0.60352,-0.25576 0.82432,-0.49818c0.5175,-0.61318 0.44068,-1.51432 -0.23,-2.07l-16.75182,-14.0875l-0.01932,0.01932c-0.2622,-0.22264 -0.59524,-0.345 -0.93932,-0.345M42.38236,31.16682v-3.83318h9.58318v3.83318h-9.58318M40.13986,21.12318l5.42432,-5.42432l2.7025,2.7025l-5.42432,5.42432l-2.7025,-2.7025M32.79918,12h3.83318v9.58318h-3.83318v-9.58318M21.16486,40.09818l5.42432,-5.42432l2.7025,2.7025l-5.42432,5.42432l-2.7025,-2.7025M21.16486,18.40182l2.7025,-2.7025l5.42432,5.42432l-2.7025,2.7025l-5.42432,-5.42432M27.04918,31.16682h-9.58318v-3.83318h9.58318z" id="icon" fill="#ffffff"/></g></svg>