<svg version="1.1" xmlns="http://www.w3.org/2000/svg" xmlns:xlink="http://www.w3.org/1999/xlink" width="70" height="70" viewBox="0,0,70,70" odoo-icon:version="1.0" xmlns:odoo-icon="https://ivantodorovich.github.io/odoo-icon" odoo-icon:size="70" odoo-icon:icon-size="0.65" odoo-icon:icon-color="#FFFFFF" odoo-icon:icon-flat-shadow-angle="135" odoo-icon:background-color="#e53935" odoo-icon:background-gradient="0.2" odoo-icon:box-radius="3.5" odoo-icon:odoo-version="14.0"><defs><linearGradient x1="70" y1="0" x2="0" y2="70" gradientUnits="userSpaceOnUse" id="color-1"><stop offset="0" stop-color="#ff6c68"/><stop offset="1" stop-color="#e53935"/></linearGradient></defs><g fill="none" fill-rule="nonzero" stroke="none" stroke-width="1" stroke-linecap="butt" stroke-linejoin="miter" stroke-miterlimit="10" stroke-dasharray="" stroke-dashoffset="0" font-family="none" font-weight="none" font-size="none" text-anchor="none" style="mix-blend-mode: normal"><path d="M3.5,70c-1.933,0 -3.5,-1.567 -3.5,-3.5v-63c0,-1.933 1.567,-3.5 3.5,-3.5h63c1.933,0 3.5,1.567 3.5,3.5v63c0,1.933 -1.567,3.5 -3.5,3.5z" id="box" fill="url(#color-1)"/><path d="M65,1h-61c-1.95033,0 -3.2667,0.63396 -3.9491,1.90189c0.28378,-1.64806 1.72001,-2.90189 3.4491,-2.90189h63c1.72965,0 3.16627,1.25466 3.44938,2.90352c-0.69803,-1.26902 -2.34782,-1.90352 -4.94938,-1.90352z" id="topBoxShadow" fill="#ffffff" opacity="0.383"/><path d="M4,69h61c2.66667,0 4.33333,-1 5,-3v0.5c0,1.933 -1.567,3.5 -3.5,3.5h-63c-1.933,0 -3.5,-1.567 -3.5,-3.5c0,-0.1611 0,-0.32777 0,-0.5c0.66667,2 2,3 4,3z" id="bottomBoxShadow" fill="#000000" opacity="0.383"/><path d="M57.92264,31.64191c-0.29657,-0.8583 -1.07054,-1.46138 -1.97514,-1.5391l-13.06914,-1.90624l-5.85708,-11.87512c-0.38367,-0.79215 -1.18685,-1.29545 -2.0672,-1.29545c-0.88035,0 -1.68353,0.5033 -2.0672,1.29545l-5.85708,11.85197l-13.06914,1.92939c-0.86712,0.12348 -1.58872,0.72931 -1.86048,1.5617c-0.24806,0.8131 -0.02756,1.69676 0.57441,2.29708l9.48599,9.18776l-2.29708,13.04654c-0.18963,0.88421 0.15711,1.79709 0.88587,2.33236c0.72876,0.53527 1.70338,0.59315 2.49057,0.14829l11.71416,-6.13271l11.71416,6.13271c0.32248,0.18191 0.68631,0.27673 1.05675,0.27563c0.48676,0.00165 0.96084,-0.15104 1.35498,-0.43659c0.72766,-0.52149 1.08597,-1.41783 0.91894,-2.29708l-2.29708,-13.04654l9.48599,-9.18776c0.67694,-0.5733 0.96304,-1.48563 0.73482,-2.34283zM43.79675,40.82912c-0.53968,0.52424 -0.78829,1.27891 -0.66592,2.02145l1.65376,9.64695l-8.6365,-4.5936c-0.68025,-0.33682 -1.47846,-0.33682 -2.15926,0l-8.6365,4.5936l1.65376,-9.64695c0.12238,-0.74199 -0.12624,-1.49721 -0.66592,-2.02145l-6.89068,-6.89068l9.6701,-1.40129c0.75577,-0.10529 1.40956,-0.57827 1.74582,-1.26348l4.08865,-8.75116l4.31798,8.77432c0.33627,0.68466 0.99005,1.15819 1.74582,1.26348l9.6701,1.40129z" id="shadow" fill="#000000" opacity="0.3"/><path d="M12.65949,28.75316c0.34547,-0.34547 0.79891,-0.57883 1.30117,-0.65035l5.82493,-0.85993l13.54382,-13.54382c0.42379,-0.42379 1.00511,-0.67305 1.62466,-0.67305c0.88035,0 1.68353,0.5033 2.0672,1.29545l5.85708,11.87512l13.06914,1.90624c0.90446,0.07771 1.67832,0.68061 1.975,1.53869l0.00014,-0.00014v0.00055l-14.26744,14.26744l0.19159,1.11763l3.85504,-3.85504l9.48599,-9.18776l-9.44134,9.44134l2.25243,12.79296c0.14336,0.75466 -0.10029,1.52191 -0.6323,2.05393l-13.72759,13.72759h-32.13902c-1.933,0 -3.5,-1.567 -3.5,-3.5l0,-25.08735z" id="flatShadow" fill="#000000" opacity="0.324"/><path d="M57.92264,29.64191c-0.29657,-0.8583 -1.07054,-1.46138 -1.97514,-1.5391l-13.06914,-1.90624l-5.85708,-11.87512c-0.38367,-0.79215 -1.18685,-1.29545 -2.0672,-1.29545c-0.88035,0 -1.68353,0.5033 -2.0672,1.29545l-5.85708,11.85197l-13.06914,1.92939c-0.86712,0.12348 -1.58872,0.72931 -1.86048,1.5617c-0.24806,0.8131 -0.02756,1.69676 0.57441,2.29708l9.48599,9.18776l-2.29708,13.04654c-0.18963,0.88421 0.15711,1.79709 0.88587,2.33236c0.72876,0.53527 1.70338,0.59315 2.49057,0.14829l11.71416,-6.13271l11.71416,6.13271c0.32248,0.18191 0.68631,0.27673 1.05675,0.27563c0.48676,0.00165 0.96084,-0.15104 1.35498,-0.43659c0.72766,-0.52149 1.08597,-1.41783 0.91894,-2.29708l-2.29708,-13.04654l9.48599,-9.18776c0.67694,-0.5733 0.96304,-1.48563 0.73482,-2.34283zM43.79675,38.82912c-0.53968,0.52424 -0.78829,1.27891 -0.66592,2.02145l1.65376,9.64695l-8.6365,-4.5936c-0.68025,-0.33682 -1.47846,-0.33682 -2.15926,0l-8.6365,4.5936l1.65376,-9.64695c0.12238,-0.74199 -0.12624,-1.49721 -0.66592,-2.02145l-6.89068,-6.89068l9.6701,-1.40129c0.75577,-0.10529 1.40956,-0.57827 1.74582,-1.26348l4.08865,-8.75116l4.31798,8.77432c0.33627,0.68466 0.99005,1.15819 1.74582,1.26348l9.6701,1.40129z" id="icon" fill="#ffffff"/></g></svg>