<svg version="1.1" xmlns="http://www.w3.org/2000/svg" xmlns:xlink="http://www.w3.org/1999/xlink" width="70" height="70" viewBox="0,0,70,70" odoo-icon:version="1.0" xmlns:odoo-icon="https://ivantodorovich.github.io/odoo-icon" odoo-icon:size="70" odoo-icon:icon-size="0.58" odoo-icon:icon-color="#FFFFFF" odoo-icon:icon-flat-shadow-angle="135" odoo-icon:background-color="#249093" odoo-icon:background-gradient="0.2" odoo-icon:box-radius="3.5" odoo-icon:odoo-version="14.0"><defs><linearGradient x1="70" y1="0" x2="0" y2="70" gradientUnits="userSpaceOnUse" id="color-1"><stop offset="0" stop-color="#57c3c6"/><stop offset="1" stop-color="#249093"/></linearGradient></defs><g fill="none" fill-rule="nonzero" stroke="none" stroke-width="1" stroke-linecap="butt" stroke-linejoin="miter" stroke-miterlimit="10" stroke-dasharray="" stroke-dashoffset="0" font-family="none" font-weight="none" font-size="none" text-anchor="none" style="mix-blend-mode: normal"><path d="M3.5,70c-1.933,0 -3.5,-1.567 -3.5,-3.5v-63c0,-1.933 1.567,-3.5 3.5,-3.5h63c1.933,0 3.5,1.567 3.5,3.5v63c0,1.933 -1.567,3.5 -3.5,3.5z" id="box" fill="url(#color-1)"/><path d="M65,1h-61c-1.95033,0 -3.2667,0.63396 -3.9491,1.90189c0.28378,-1.64806 1.72001,-2.90189 3.4491,-2.90189h63c1.72965,0 3.16627,1.25466 3.44938,2.90352c-0.69803,-1.26902 -2.34782,-1.90352 -4.94938,-1.90352z" id="topBoxShadow" fill="#ffffff" opacity="0.383"/><path d="M4,69h61c2.66667,0 4.33333,-1 5,-3v0.5c0,1.933 -1.567,3.5 -3.5,3.5h-63c-1.933,0 -3.5,-1.567 -3.5,-3.5c0,-0.1611 0,-0.32777 0,-0.5c0.66667,2 2,3 4,3z" id="bottomBoxShadow" fill="#000000" opacity="0.383"/><path d="M31.21748,56.09319c3.84051,-1.51042 2.99908,-5.67403 1.05734,-8.30651c-1.91999,-2.69669 -4.57371,-4.55248 -7.24917,-6.34302c-1.9086,-1.20336 -3.61319,-2.70342 -5.04853,-4.44426c-0.60427,-0.71197 -1.83404,-2.02821 -0.58252,-2.28711c1.27275,-0.2589 3.47339,0.99262 4.59546,1.46692c1.96349,0.81967 3.90523,1.76932 5.71752,2.89087l2.17889,-3.66756c-3.36569,-2.22239 -7.68049,-4.18536 -11.69343,-4.76788c-2.28711,-0.34537 -4.70316,0.12945 -5.47985,2.61074c-0.69022,2.13592 0.4101,4.29358 1.6611,5.97642c2.95559,3.94821 7.55105,5.84697 10.98146,9.25564c0.73372,0.71197 1.61812,1.55339 2.04944,2.54601c0.45307,0.94912 0.34537,1.01385 -0.66899,1.01385c-2.67546,0 -6.0194,-2.09294 -8.19829,-3.47339l-2.17889,3.66756c3.30096,2.02821 8.82431,5.19973 12.85847,3.86174M55.14388,22.43634c0.47482,-0.47482 0.47482,-1.25152 0,-1.70459l-2.80491,-2.80491c-0.46964,-0.45256 -1.2132,-0.45256 -1.68284,0l-2.20064,2.20064l4.48775,4.48775M33.91417,34.66931v4.48775h4.48775l13.26857,-13.26857l-4.48775,-4.48775z" id="shadow" fill="#000000" opacity="0.3"/><path d="M15.6271,29.68931c1.11746,-1.11746 2.87687,-1.30974 4.56595,-1.05468c4.01293,0.58252 8.32774,2.54549 11.69343,4.76788l-1.89393,3.18791l20.66358,-20.66358c0.46964,-0.45256 1.2132,-0.45256 1.68284,0l2.80491,2.80491c0.47482,0.45307 0.47482,1.22977 0,1.70459l-23.97223,23.97223c0.3887,0.43517 0.75781,0.89304 1.10317,1.37812c1.60183,2.17166 2.45486,5.38531 0.54833,7.29184l-16.92148,16.92148h-12.40168c-1.933,0 -3.5,-1.567 -3.5,-3.5l0,-21.1836z" id="flatShadow" fill="#000000" opacity="0.324"/><path d="M31.21748,54.09319c3.84051,-1.51042 2.99908,-5.67403 1.05734,-8.30651c-1.91999,-2.69669 -4.57371,-4.55248 -7.24917,-6.34302c-1.9086,-1.20336 -3.61319,-2.70342 -5.04853,-4.44426c-0.60427,-0.71197 -1.83404,-2.02821 -0.58252,-2.28711c1.27275,-0.2589 3.47339,0.99262 4.59546,1.46692c1.96349,0.81967 3.90523,1.76932 5.71752,2.89087l2.17889,-3.66756c-3.36569,-2.22239 -7.68049,-4.18536 -11.69343,-4.76788c-2.28711,-0.34537 -4.70316,0.12945 -5.47985,2.61074c-0.69022,2.13592 0.4101,4.29358 1.6611,5.97642c2.95559,3.94821 7.55105,5.84697 10.98146,9.25564c0.73372,0.71197 1.61812,1.55339 2.04944,2.54601c0.45307,0.94912 0.34537,1.01385 -0.66899,1.01385c-2.67546,0 -6.0194,-2.09294 -8.19829,-3.47339l-2.17889,3.66756c3.30096,2.02821 8.82431,5.19973 12.85847,3.86174M55.14388,20.43634c0.47482,-0.47482 0.47482,-1.25152 0,-1.70459l-2.80491,-2.80491c-0.46964,-0.45256 -1.2132,-0.45256 -1.68284,0l-2.20064,2.20064l4.48775,4.48775M33.91417,32.66931v4.48775h4.48775l13.26857,-13.26857l-4.48775,-4.48775z" id="icon" fill="#ffffff"/></g></svg>