<svg version="1.1" xmlns="http://www.w3.org/2000/svg" xmlns:xlink="http://www.w3.org/1999/xlink" width="70" height="70" viewBox="0,0,70,70" odoo-icon:version="1.0" xmlns:odoo-icon="https://ivantodorovich.github.io/odoo-icon" odoo-icon:size="70" odoo-icon:icon-size="0.6" odoo-icon:icon-color="#FFFFFF" odoo-icon:icon-flat-shadow-angle="135" odoo-icon:background-color="#5a9442" odoo-icon:background-gradient="0.2" odoo-icon:box-radius="3.5" odoo-icon:odoo-version="14.0"><defs><linearGradient x1="70" y1="0" x2="0" y2="70" gradientUnits="userSpaceOnUse" id="color-1"><stop offset="0" stop-color="#8dc775"/><stop offset="1" stop-color="#5a9442"/></linearGradient></defs><g fill="none" fill-rule="nonzero" stroke="none" stroke-width="1" stroke-linecap="butt" stroke-linejoin="miter" stroke-miterlimit="10" stroke-dasharray="" stroke-dashoffset="0" font-family="none" font-weight="none" font-size="none" text-anchor="none" style="mix-blend-mode: normal"><path d="M3.5,70c-1.933,0 -3.5,-1.567 -3.5,-3.5v-63c0,-1.933 1.567,-3.5 3.5,-3.5h63c1.933,0 3.5,1.567 3.5,3.5v63c0,1.933 -1.567,3.5 -3.5,3.5z" id="box" fill="url(#color-1)"/><path d="M65,1h-61c-1.95033,0 -3.2667,0.63396 -3.9491,1.90189c0.28378,-1.64806 1.72001,-2.90189 3.4491,-2.90189h63c1.72965,0 3.16627,1.25466 3.44938,2.90352c-0.69803,-1.26902 -2.34782,-1.90352 -4.94938,-1.90352z" id="topBoxShadow" fill="#ffffff" opacity="0.383"/><path d="M4,69h61c2.66667,0 4.33333,-1 5,-3v0.5c0,1.933 -1.567,3.5 -3.5,3.5h-63c-1.933,0 -3.5,-1.567 -3.5,-3.5c0,-0.1611 0,-0.32777 0,-0.5c0.66667,2 2,3 4,3z" id="bottomBoxShadow" fill="#000000" opacity="0.383"/><path d="M53.32717,22.10906h-36.65433c-1.47595,0 -2.67283,1.1964 -2.67283,2.67283v24.43622c0,1.47595 1.1964,2.67283 2.67283,2.67283h36.65433c1.47595,0 2.67283,-1.1964 2.67283,-2.67283v-24.43622c0,-1.47595 -1.1964,-2.67283 -2.67283,-2.67283zM16.67283,24.4002h36.65433c0.21064,0 0.38169,0.17105 0.38169,0.38169v4.96349h-37.41772v-4.96349c0,-0.21064 0.17105,-0.38169 0.38169,-0.38169zM53.32717,49.5998h-36.65433c-0.21064,0 -0.38169,-0.17105 -0.38169,-0.38169v-17.1816h37.41821v17.1816c0,0.21064 -0.17105,0.38169 -0.38169,0.38169zM49.89094,44.63632c0,0.63241 -0.51267,1.14557 -1.14557,1.14557h-6.10906c-0.63241,0 -1.14557,-0.51267 -1.14557,-1.14557c0,-0.63241 0.51267,-1.14557 1.14557,-1.14557h6.10906c0.63241,0 1.14557,0.51267 1.14557,1.14557zM37.67283,44.63632c0,0.63241 -0.51267,1.14557 -1.14557,1.14557h-3.05453c-0.63241,0 -1.14557,-0.51267 -1.14557,-1.14557c0,-0.63241 0.51267,-1.14557 1.14557,-1.14557h3.05453c0.63241,0 1.14557,0.51267 1.14557,1.14557z" id="shadow" fill="#000000" opacity="0.3"/><path d="M14.78282,20.89193c0.48372,-0.48372 1.15198,-0.78287 1.89002,-0.78287h36.65433c1.47644,0 2.67283,1.19689 2.67283,2.67283v24.43622l-22.78189,22.78189h-29.71811c-1.933,0 -3.5,-1.567 -3.5,-3.5l0,-30.82525z" id="flatShadow" fill="#000000" opacity="0.324"/><path d="M53.32717,20.10906h-36.65433c-1.47595,0 -2.67283,1.1964 -2.67283,2.67283v24.43622c0,1.47595 1.1964,2.67283 2.67283,2.67283h36.65433c1.47595,0 2.67283,-1.1964 2.67283,-2.67283v-24.43622c0,-1.47595 -1.1964,-2.67283 -2.67283,-2.67283zM16.67283,22.4002h36.65433c0.21064,0 0.38169,0.17105 0.38169,0.38169v4.96349h-37.41772v-4.96349c0,-0.21064 0.17105,-0.38169 0.38169,-0.38169zM53.32717,47.5998h-36.65433c-0.21064,0 -0.38169,-0.17105 -0.38169,-0.38169v-17.1816h37.41821v17.1816c0,0.21064 -0.17105,0.38169 -0.38169,0.38169zM49.89094,42.63632c0,0.63241 -0.51267,1.14557 -1.14557,1.14557h-6.10906c-0.63241,0 -1.14557,-0.51267 -1.14557,-1.14557c0,-0.63241 0.51267,-1.14557 1.14557,-1.14557h6.10906c0.63241,0 1.14557,0.51267 1.14557,1.14557zM37.67283,42.63632c0,0.63241 -0.51267,1.14557 -1.14557,1.14557h-3.05453c-0.63241,0 -1.14557,-0.51267 -1.14557,-1.14557c0,-0.63241 0.51267,-1.14557 1.14557,-1.14557h3.05453c0.63241,0 1.14557,0.51267 1.14557,1.14557z" id="icon" fill="#ffffff"/></g></svg>