<svg version="1.1" xmlns="http://www.w3.org/2000/svg" xmlns:xlink="http://www.w3.org/1999/xlink" width="70" height="70" viewBox="0,0,70,70" odoo-icon:version="1.0" xmlns:odoo-icon="https://ivantodorovich.github.io/odoo-icon" odoo-icon:size="70" odoo-icon:icon-size="0.6" odoo-icon:icon-color="#FFFFFF" odoo-icon:icon-flat-shadow-angle="135" odoo-icon:background-color="#5a9442" odoo-icon:background-gradient="0.2" odoo-icon:box-radius="3.5" odoo-icon:odoo-version="14.0"><defs><linearGradient x1="70" y1="0" x2="0" y2="70" gradientUnits="userSpaceOnUse" id="color-1"><stop offset="0" stop-color="#8dc775"/><stop offset="1" stop-color="#5a9442"/></linearGradient></defs><g fill="none" fill-rule="nonzero" stroke="none" stroke-width="1" stroke-linecap="butt" stroke-linejoin="miter" stroke-miterlimit="10" stroke-dasharray="" stroke-dashoffset="0" font-family="none" font-weight="none" font-size="none" text-anchor="none" style="mix-blend-mode: normal"><path d="M3.5,70c-1.933,0 -3.5,-1.567 -3.5,-3.5v-63c0,-1.933 1.567,-3.5 3.5,-3.5h63c1.933,0 3.5,1.567 3.5,3.5v63c0,1.933 -1.567,3.5 -3.5,3.5z" id="box" fill="url(#color-1)"/><path d="M65,1h-61c-1.95033,0 -3.2667,0.63396 -3.9491,1.90189c0.28378,-1.64806 1.72001,-2.90189 3.4491,-2.90189h63c1.72965,0 3.16627,1.25466 3.44938,2.90352c-0.69803,-1.26902 -2.34782,-1.90352 -4.94938,-1.90352z" id="topBoxShadow" fill="#ffffff" opacity="0.383"/><path d="M4,69h61c2.66667,0 4.33333,-1 5,-3v0.5c0,1.933 -1.567,3.5 -3.5,3.5h-63c-1.933,0 -3.5,-1.567 -3.5,-3.5c0,-0.1611 0,-0.32777 0,-0.5c0.66667,2 2,3 4,3z" id="bottomBoxShadow" fill="#000000" opacity="0.383"/><path d="M35,16c-11.58812,0 -21,9.41188 -21,21c0,11.58812 9.41188,21 21,21c11.58812,0 21,-9.41188 21,-21c0,-11.58812 -9.41188,-21 -21,-21zM35,17.62248c2.39589,0 4.68887,0.43469 6.80603,1.22794l-1.74892,4.66395c1.92658,0.71987 3.67689,1.84352 5.13325,3.29573l3.51538,-3.51538c1.71155,1.71108 3.08715,3.72719 4.05621,5.94449l-3.92977,3.66905l5.28969,0.94183c0.07106,0.43562 0.12736,0.87354 0.16843,1.31331l-4.66026,0.44392l-0.79786,-2.6986l-0.8177,-2.76598l-4.06175,3.79179c-1.27731,-3.71704 -4.80885,-6.39718 -8.9532,-6.39718c-1.28424,0 -2.5094,0.25795 -3.62705,0.72357l0.15597,-5.55733l-2.61462,1.21686l-2.61462,1.21686l4.35339,3.46047c-3.03639,1.57772 -5.11618,4.75255 -5.11618,8.4036c0,3.99253 2.48679,7.41654 5.99248,8.80414l-3.96992,3.88132l2.72583,0.94276l2.72583,0.94276l-0.7231,-5.50472c0.88,0.26395 1.79415,0.39778 2.71291,0.39731c5.21678,0 9.46357,-4.24679 9.46357,-9.46357c0.00046,-0.77571 -0.09506,-1.54819 -0.28333,-2.30036l5.2177,0.92891l-0.05537,0.00554c0.04753,0.45361 0.07383,0.90953 0.07799,1.36591c-0.00738,5.75207 -3.43232,10.94992 -8.71554,13.22583l1.97273,4.57304c-2.35389,1.01521 -4.94913,1.57865 -7.67773,1.57865c-1.34884,0.00046 -2.69445,-0.13936 -4.01468,-0.4167l-0.70049,-5.33306l-3.84763,3.7618c-2.15777,-1.06412 -4.09913,-2.51956 -5.72484,-4.29294l3.66812,-3.36264c-2.43972,-2.65523 -3.79595,-6.12815 -3.80102,-9.73398c0.00323,-3.82317 1.52512,-7.48853 4.23018,-10.19036l-3.51538,-3.51538c1.03182,-1.03136 2.17669,-1.94366 3.41294,-2.71891l4.20711,3.34372l0.1509,-5.37182c1.87029,-0.59989 3.86378,-0.92522 5.9348,-0.92522zM35,29.15892c2.73367,0 5.13371,1.38899 6.53654,3.502l-3.76734,3.51723l5.07095,0.90307c-0.04338,4.30217 -3.52692,7.75987 -7.84016,7.75987c-0.09137,0 -0.18228,-0.00231 -0.27226,-0.00554l-0.67142,-5.11018l-3.68889,3.60629c-1.94689,-1.42498 -3.20851,-3.72719 -3.20851,-6.33212c0,-2.31698 0.99813,-4.394 2.58878,-5.82774l4.03406,3.20667l0.14444,-5.1471c0.35578,-0.04845 0.71434,-0.07291 1.07381,-0.07291zM35,34.11589c-1.59295,0 -2.88411,1.29116 -2.88411,2.88411c0,1.59295 1.29116,2.88411 2.88411,2.88411c1.59295,0 2.88411,-1.29116 2.88411,-2.88411c0,-1.59295 -1.29116,-2.88411 -2.88411,-2.88411z" id="shadow" fill="#000000" opacity="0.3"/><path d="M49.84554,49.84554l-20.15446,20.15446h-26.19109c-1.933,0 -3.5,-1.567 -3.5,-3.5l0,-26.19109l20.15446,-20.15446c3.80149,-3.80149 9.05149,-6.15446 14.84554,-6.15446c11.58812,0 21,9.41188 21,21c0,5.79406 -2.35297,11.04406 -6.15446,14.84554z" id="flatShadow" fill="#000000" opacity="0.324"/><path d="M35,14c-11.58812,0 -21,9.41188 -21,21c0,11.58812 9.41188,21 21,21c11.58812,0 21,-9.41188 21,-21c0,-11.58812 -9.41188,-21 -21,-21zM35,15.62248c2.39589,0 4.68887,0.43469 6.80603,1.22794l-1.74892,4.66395c1.92658,0.71987 3.67689,1.84352 5.13325,3.29573l3.51538,-3.51538c1.71155,1.71108 3.08715,3.72719 4.05621,5.94449l-3.92977,3.66905l5.28969,0.94183c0.07106,0.43562 0.12736,0.87354 0.16843,1.31331l-4.66026,0.44392l-0.79786,-2.6986l-0.8177,-2.76598l-4.06175,3.79179c-1.27731,-3.71704 -4.80885,-6.39718 -8.9532,-6.39718c-1.28424,0 -2.5094,0.25795 -3.62705,0.72357l0.15597,-5.55733l-2.61462,1.21686l-2.61462,1.21686l4.35339,3.46047c-3.03639,1.57772 -5.11618,4.75255 -5.11618,8.4036c0,3.99253 2.48679,7.41654 5.99248,8.80414l-3.96992,3.88132l2.72583,0.94276l2.72583,0.94276l-0.7231,-5.50472c0.88,0.26395 1.79415,0.39778 2.71291,0.39731c5.21678,0 9.46357,-4.24679 9.46357,-9.46357c0.00046,-0.77571 -0.09506,-1.54819 -0.28333,-2.30036l5.2177,0.92891l-0.05537,0.00554c0.04753,0.45361 0.07383,0.90953 0.07799,1.36591c-0.00738,5.75207 -3.43232,10.94992 -8.71554,13.22583l1.97273,4.57304c-2.35389,1.01521 -4.94913,1.57865 -7.67773,1.57865c-1.34884,0.00046 -2.69445,-0.13936 -4.01468,-0.4167l-0.70049,-5.33306l-3.84763,3.7618c-2.15777,-1.06412 -4.09913,-2.51956 -5.72484,-4.29294l3.66812,-3.36264c-2.43972,-2.65523 -3.79595,-6.12815 -3.80102,-9.73398c0.00323,-3.82317 1.52512,-7.48853 4.23018,-10.19036l-3.51538,-3.51538c1.03182,-1.03136 2.17669,-1.94366 3.41294,-2.71891l4.20711,3.34372l0.1509,-5.37182c1.87029,-0.59989 3.86378,-0.92522 5.9348,-0.92522zM35,27.15892c2.73367,0 5.13371,1.38899 6.53654,3.502l-3.76734,3.51723l5.07095,0.90307c-0.04338,4.30217 -3.52692,7.75987 -7.84016,7.75987c-0.09137,0 -0.18228,-0.00231 -0.27226,-0.00554l-0.67142,-5.11018l-3.68889,3.60629c-1.94689,-1.42498 -3.20851,-3.72719 -3.20851,-6.33212c0,-2.31698 0.99813,-4.394 2.58878,-5.82774l4.03406,3.20667l0.14444,-5.1471c0.35578,-0.04845 0.71434,-0.07291 1.07381,-0.07291zM35,32.11589c-1.59295,0 -2.88411,1.29116 -2.88411,2.88411c0,1.59295 1.29116,2.88411 2.88411,2.88411c1.59295,0 2.88411,-1.29116 2.88411,-2.88411c0,-1.59295 -1.29116,-2.88411 -2.88411,-2.88411z" id="icon" fill="#ffffff"/></g></svg>