<svg version="1.1" xmlns="http://www.w3.org/2000/svg" xmlns:xlink="http://www.w3.org/1999/xlink" width="70" height="70" viewBox="0,0,70,70" odoo-icon:version="1.0" xmlns:odoo-icon="https://ivantodorovich.github.io/odoo-icon" odoo-icon:size="70" odoo-icon:icon-size="0.6" odoo-icon:icon-color="#FFFFFF" odoo-icon:icon-flat-shadow-angle="135" odoo-icon:background-color="#334984" odoo-icon:background-gradient="0.2" odoo-icon:box-radius="3.5" odoo-icon:odoo-version="14.0"><defs><linearGradient x1="70" y1="0" x2="0" y2="70" gradientUnits="userSpaceOnUse" id="color-1"><stop offset="0" stop-color="#667cb7"/><stop offset="1" stop-color="#334984"/></linearGradient></defs><g fill="none" fill-rule="nonzero" stroke="none" stroke-width="1" stroke-linecap="butt" stroke-linejoin="miter" stroke-miterlimit="10" stroke-dasharray="" stroke-dashoffset="0" font-family="none" font-weight="none" font-size="none" text-anchor="none" style="mix-blend-mode: normal"><path d="M3.5,70c-1.933,0 -3.5,-1.567 -3.5,-3.5v-63c0,-1.933 1.567,-3.5 3.5,-3.5h63c1.933,0 3.5,1.567 3.5,3.5v63c0,1.933 -1.567,3.5 -3.5,3.5z" id="box" fill="url(#color-1)"/><path d="M65,1h-61c-1.95033,0 -3.2667,0.63396 -3.9491,1.90189c0.28378,-1.64806 1.72001,-2.90189 3.4491,-2.90189h63c1.72965,0 3.16627,1.25466 3.44938,2.90352c-0.69803,-1.26902 -2.34782,-1.90352 -4.94938,-1.90352z" id="topBoxShadow" fill="#ffffff" opacity="0.383"/><path d="M4,69h61c2.66667,0 4.33333,-1 5,-3v0.5c0,1.933 -1.567,3.5 -3.5,3.5h-63c-1.933,0 -3.5,-1.567 -3.5,-3.5c0,-0.1611 0,-0.32777 0,-0.5c0.66667,2 2,3 4,3z" id="bottomBoxShadow" fill="#000000" opacity="0.383"/><path d="M14.00222,16h36.16371v5.83307h-2.33334v-3.49973h-31.49759v26.83146h24.94945v2.33334h-27.28279zM48.99954,31.16532c1.93297,0 3.49973,-1.56676 3.49973,-3.49973c0,-1.93297 -1.56676,-3.49973 -3.49973,-3.49973c-1.93297,0 -3.49973,1.56676 -3.49973,3.49973c0,1.93297 1.56676,3.49973 3.49973,3.49973zM51.36872,33.51042c1.51524,0 2.71467,0.68147 3.49973,1.73363c0.73354,0.98552 1.04432,2.20455 1.11431,3.33062c0.06831,1.15463 -0.08847,2.31206 -0.46308,3.40622c-0.34997,1.0152 -0.94129,2.06456 -1.85346,2.78467v11.48136c0.00168,0.91161 -0.69659,1.67203 -1.6054,1.74707c-0.90881,0.07503 -1.72299,-0.5594 -1.87082,-1.45925l-1.50516,-9.03771h-0.34773l-1.70059,9.0713c-0.16743,0.88697 -0.98216,1.50124 -1.88146,1.41781c-0.89873,-0.08343 -1.58692,-0.83714 -1.58804,-1.73979v-16.6436c-0.2335,0.35557 -0.46364,0.71283 -0.69043,1.07232l-0.09071,0.14335l-0.02352,0.03752l-0.0056,0.01064c-0.31974,0.51348 -0.88137,0.82482 -1.48613,0.82482h-5.83307c-0.96649,0 -1.74987,-0.78338 -1.74987,-1.74987c0,-0.96649 0.78338,-1.74987 1.74987,-1.74987h4.87275c0.28334,-0.43845 0.65683,-1.00792 1.0488,-1.57964c0.40821,-0.59635 0.85841,-1.22743 1.2599,-1.72187c0.19487,-0.24134 0.41269,-0.49332 0.63219,-0.69995c0.10751,-0.10135 0.25646,-0.2335 0.43845,-0.34997c0.32142,-0.21054 0.69603,-0.32478 1.08016,-0.32869h6.99946z" id="shadow" fill="#000000" opacity="0.3"/><path d="M50.16593,14v5.83307l-2.67248,2.67248c0.45616,-0.21778 0.96687,-0.3397 1.50609,-0.3397c1.93297,0 3.49973,1.56676 3.49973,3.49973c0,0.96649 -0.39169,1.84142 -1.025,2.47473l-3.37122,3.37122l3.26455,0l0.00112,-0.00112c1.51524,0 2.71467,0.68147 3.49973,1.73363c0.73354,0.98552 1.04432,2.20455 1.11431,3.33062c0.06831,1.15463 -0.08847,2.31206 -0.46308,3.40622c-0.29537,0.85682 -0.76266,1.73797 -1.44966,2.42498l-0.40379,0.40379v11.43726c0.00089,0.48237 -0.1942,0.92242 -0.51277,1.24098c0,0 0,0 0,0l-14.51211,14.51211h-35.14135c-1.933,0 -3.5,-1.567 -3.5,-3.5l0,-38.49778l14.00222,-14.00222z" id="flatShadow" fill="#000000" opacity="0.324"/><path d="M14.00222,14h36.16371v5.83307h-2.33334v-3.49973h-31.49759v26.83146h24.94945v2.33334h-27.28279zM48.99954,29.16532c1.93297,0 3.49973,-1.56676 3.49973,-3.49973c0,-1.93297 -1.56676,-3.49973 -3.49973,-3.49973c-1.93297,0 -3.49973,1.56676 -3.49973,3.49973c0,1.93297 1.56676,3.49973 3.49973,3.49973zM51.36872,31.51042c1.51524,0 2.71467,0.68147 3.49973,1.73363c0.73354,0.98552 1.04432,2.20455 1.11431,3.33062c0.06831,1.15463 -0.08847,2.31206 -0.46308,3.40622c-0.34997,1.0152 -0.94129,2.06456 -1.85346,2.78467v11.48136c0.00168,0.91161 -0.69659,1.67203 -1.6054,1.74707c-0.90881,0.07503 -1.72299,-0.5594 -1.87082,-1.45925l-1.50516,-9.03771h-0.34773l-1.70059,9.0713c-0.16743,0.88697 -0.98216,1.50124 -1.88146,1.41781c-0.89873,-0.08343 -1.58692,-0.83714 -1.58804,-1.73979v-16.6436c-0.2335,0.35557 -0.46364,0.71283 -0.69043,1.07232l-0.09071,0.14335l-0.02352,0.03752l-0.0056,0.01064c-0.31974,0.51348 -0.88137,0.82482 -1.48613,0.82482h-5.83307c-0.96649,0 -1.74987,-0.78338 -1.74987,-1.74987c0,-0.96649 0.78338,-1.74987 1.74987,-1.74987h4.87275c0.28334,-0.43845 0.65683,-1.00792 1.0488,-1.57964c0.40821,-0.59635 0.85841,-1.22743 1.2599,-1.72187c0.19487,-0.24134 0.41269,-0.49332 0.63219,-0.69995c0.10751,-0.10135 0.25646,-0.2335 0.43845,-0.34997c0.32142,-0.21054 0.69603,-0.32478 1.08016,-0.32869h6.99946z" id="icon" fill="#ffffff"/></g></svg>