<svg version="1.1" xmlns="http://www.w3.org/2000/svg" xmlns:xlink="http://www.w3.org/1999/xlink" width="70" height="70" viewBox="0,0,70,70" odoo-icon:version="1.0" xmlns:odoo-icon="https://ivantodorovich.github.io/odoo-icon" odoo-icon:size="70" odoo-icon:icon-size="0.58" odoo-icon:icon-color="#FFFFFF" odoo-icon:icon-flat-shadow-angle="135" odoo-icon:background-color="#5e57a6" odoo-icon:background-gradient="0.2" odoo-icon:box-radius="3.5" odoo-icon:odoo-version="14.0"><defs><linearGradient x1="70" y1="0" x2="0" y2="70" gradientUnits="userSpaceOnUse" id="color-1"><stop offset="0" stop-color="#918ad9"/><stop offset="1" stop-color="#5e57a6"/></linearGradient></defs><g fill="none" fill-rule="nonzero" stroke="none" stroke-width="1" stroke-linecap="butt" stroke-linejoin="miter" stroke-miterlimit="10" stroke-dasharray="" stroke-dashoffset="0" font-family="none" font-weight="none" font-size="none" text-anchor="none" style="mix-blend-mode: normal"><path d="M3.5,70c-1.933,0 -3.5,-1.567 -3.5,-3.5v-63c0,-1.933 1.567,-3.5 3.5,-3.5h63c1.933,0 3.5,1.567 3.5,3.5v63c0,1.933 -1.567,3.5 -3.5,3.5z" id="box" fill="url(#color-1)"/><path d="M65,1h-61c-1.95033,0 -3.2667,0.63396 -3.9491,1.90189c0.28378,-1.64806 1.72001,-2.90189 3.4491,-2.90189h63c1.72965,0 3.16627,1.25466 3.44938,2.90352c-0.69803,-1.26902 -2.34782,-1.90352 -4.94938,-1.90352z" id="topBoxShadow" fill="#ffffff" opacity="0.383"/><path d="M4,69h61c2.66667,0 4.33333,-1 5,-3v0.5c0,1.933 -1.567,3.5 -3.5,3.5h-63c-1.933,0 -3.5,-1.567 -3.5,-3.5c0,-0.1611 0,-0.32777 0,-0.5c0.66667,2 2,3 4,3z" id="bottomBoxShadow" fill="#000000" opacity="0.383"/><path d="M26.80025,49.2995c-1.12764,0 -2.09293,-0.40196 -2.89684,-1.20538c-0.80342,-0.80342 -1.20488,-1.76821 -1.20341,-2.89438v-24.5995c0,-1.12764 0.40196,-2.09293 1.20538,-2.89684c0.80342,-0.80342 1.76821,-1.20488 2.89438,-1.20341h24.5995c1.12764,0 2.09293,0.40196 2.89684,1.20538c0.80342,0.80342 1.20488,1.76821 1.20341,2.89438v24.5995c0,1.12764 -0.40196,2.09293 -1.20538,2.89684c-0.80342,0.80342 -1.76821,1.20488 -2.89438,1.20341zM26.80025,45.19975h24.5995v-24.5995h-24.5995zM18.60074,57.4995c-1.12764,0 -2.09293,-0.40196 -2.89684,-1.20538c-0.80342,-0.80342 -1.20488,-1.76821 -1.20341,-2.89438v-26.64962c0,-0.58104 0.1968,-1.06811 0.59039,-1.4617c0.39359,-0.39359 0.88017,-0.5899 1.45973,-0.58842c0.58104,0 1.06811,0.1968 1.4617,0.59039c0.39359,0.39359 0.5899,0.88017 0.58842,1.45973v26.64962h26.64962c0.58104,0 1.06811,0.1968 1.4617,0.59039c0.39359,0.39359 0.5899,0.88017 0.58842,1.45973c0,0.58104 -0.1968,1.06811 -0.59039,1.4617c-0.39359,0.39359 -0.88017,0.5899 -1.45973,0.58842zM26.80025,20.60025v24.5995zM36.23022,38.63955l2.86978,-2.86978l2.86978,2.86978c0.37588,0.37588 0.85409,0.56382 1.43513,0.56382c0.58104,0 1.05925,-0.18794 1.43513,-0.56382c0.37588,-0.37588 0.56382,-0.85409 0.56382,-1.43513c0,-0.58104 -0.18794,-1.05925 -0.56382,-1.43513l-2.86978,-2.86978l2.86978,-2.86978c0.37588,-0.37588 0.56382,-0.85409 0.56382,-1.43513c0,-0.58104 -0.18794,-1.05925 -0.56382,-1.43513c-0.37588,-0.37588 -0.85409,-0.56382 -1.43513,-0.56382c-0.58104,0 -1.05925,0.18794 -1.43513,0.56382l-2.86978,2.86978l-2.86978,-2.86978c-0.37588,-0.37588 -0.85409,-0.56382 -1.43513,-0.56382c-0.58104,0 -1.05925,0.18794 -1.43513,0.56382c-0.37588,0.37588 -0.56382,0.85409 -0.56382,1.43513c0,0.58104 0.18794,1.05925 0.56382,1.43513l2.86978,2.86978l-2.86978,2.86978c-0.37588,0.37588 -0.56382,0.85409 -0.56382,1.43513c0,0.58104 0.18794,1.05925 0.56382,1.43513c0.37588,0.37588 0.85409,0.56382 1.43513,0.56382c0.58104,0 1.05925,-0.18794 1.43513,-0.56382z" id="shadow" fill="#000000" opacity="0.3"/><path d="M23.90538,15.70341c0.80342,-0.80342 1.76821,-1.20488 2.89438,-1.20341h24.5995c1.12764,0 2.09293,0.40196 2.89684,1.20538c0.80342,0.80342 1.20488,1.76821 1.20341,2.89438v24.5995c0,1.12764 -0.40196,2.09293 -1.20538,2.89684l-7.01657,7.01657c0.01558,0.10867 0.02323,0.22107 0.02293,0.3372c0,0.58104 -0.1968,1.06811 -0.59039,1.4617l-15.08843,15.08843h-28.12167c-1.933,0 -3.5,-1.567 -3.5,-3.5l0,-28.12069l15.09089,-15.09089c0.39359,-0.39359 0.88017,-0.5899 1.45973,-0.58842c0.11534,0 0.22697,0.00775 0.33491,0.02326z" id="flatShadow" fill="#000000" opacity="0.324"/><path d="M26.80025,47.2995c-1.12764,0 -2.09293,-0.40196 -2.89684,-1.20538c-0.80342,-0.80342 -1.20488,-1.76821 -1.20341,-2.89438v-24.5995c0,-1.12764 0.40196,-2.09293 1.20538,-2.89684c0.80342,-0.80342 1.76821,-1.20488 2.89438,-1.20341h24.5995c1.12764,0 2.09293,0.40196 2.89684,1.20538c0.80342,0.80342 1.20488,1.76821 1.20341,2.89438v24.5995c0,1.12764 -0.40196,2.09293 -1.20538,2.89684c-0.80342,0.80342 -1.76821,1.20488 -2.89438,1.20341zM26.80025,43.19975h24.5995v-24.5995h-24.5995zM18.60074,55.4995c-1.12764,0 -2.09293,-0.40196 -2.89684,-1.20538c-0.80342,-0.80342 -1.20488,-1.76821 -1.20341,-2.89438v-26.64962c0,-0.58104 0.1968,-1.06811 0.59039,-1.4617c0.39359,-0.39359 0.88017,-0.5899 1.45973,-0.58842c0.58104,0 1.06811,0.1968 1.4617,0.59039c0.39359,0.39359 0.5899,0.88017 0.58842,1.45973v26.64962h26.64962c0.58104,0 1.06811,0.1968 1.4617,0.59039c0.39359,0.39359 0.5899,0.88017 0.58842,1.45973c0,0.58104 -0.1968,1.06811 -0.59039,1.4617c-0.39359,0.39359 -0.88017,0.5899 -1.45973,0.58842zM26.80025,18.60025v24.5995zM36.23022,36.63955l2.86978,-2.86978l2.86978,2.86978c0.37588,0.37588 0.85409,0.56382 1.43513,0.56382c0.58104,0 1.05925,-0.18794 1.43513,-0.56382c0.37588,-0.37588 0.56382,-0.85409 0.56382,-1.43513c0,-0.58104 -0.18794,-1.05925 -0.56382,-1.43513l-2.86978,-2.86978l2.86978,-2.86978c0.37588,-0.37588 0.56382,-0.85409 0.56382,-1.43513c0,-0.58104 -0.18794,-1.05925 -0.56382,-1.43513c-0.37588,-0.37588 -0.85409,-0.56382 -1.43513,-0.56382c-0.58104,0 -1.05925,0.18794 -1.43513,0.56382l-2.86978,2.86978l-2.86978,-2.86978c-0.37588,-0.37588 -0.85409,-0.56382 -1.43513,-0.56382c-0.58104,0 -1.05925,0.18794 -1.43513,0.56382c-0.37588,0.37588 -0.56382,0.85409 -0.56382,1.43513c0,0.58104 0.18794,1.05925 0.56382,1.43513l2.86978,2.86978l-2.86978,2.86978c-0.37588,0.37588 -0.56382,0.85409 -0.56382,1.43513c0,0.58104 0.18794,1.05925 0.56382,1.43513c0.37588,0.37588 0.85409,0.56382 1.43513,0.56382c0.58104,0 1.05925,-0.18794 1.43513,-0.56382z" id="icon" fill="#ffffff"/></g></svg>