<svg version="1.1" xmlns="http://www.w3.org/2000/svg" xmlns:xlink="http://www.w3.org/1999/xlink" width="70" height="70" viewBox="0,0,70,70" odoo-icon:version="1.0" xmlns:odoo-icon="https://ivantodorovich.github.io/odoo-icon" odoo-icon:size="70" odoo-icon:icon-size="0.6" odoo-icon:icon-color="#FFFFFF" odoo-icon:icon-flat-shadow-angle="135" odoo-icon:background-color="#5a9442" odoo-icon:background-gradient="0.2" odoo-icon:box-radius="3.5" odoo-icon:odoo-version="14.0"><defs><linearGradient x1="70" y1="0" x2="0" y2="70" gradientUnits="userSpaceOnUse" id="color-1"><stop offset="0" stop-color="#8dc775"/><stop offset="1" stop-color="#5a9442"/></linearGradient></defs><g fill="none" fill-rule="nonzero" stroke="none" stroke-width="1" stroke-linecap="butt" stroke-linejoin="miter" stroke-miterlimit="10" stroke-dasharray="" stroke-dashoffset="0" font-family="none" font-weight="none" font-size="none" text-anchor="none" style="mix-blend-mode: normal"><path d="M3.5,70c-1.933,0 -3.5,-1.567 -3.5,-3.5v-63c0,-1.933 1.567,-3.5 3.5,-3.5h63c1.933,0 3.5,1.567 3.5,3.5v63c0,1.933 -1.567,3.5 -3.5,3.5z" id="box" fill="url(#color-1)"/><path d="M65,1h-61c-1.95033,0 -3.2667,0.63396 -3.9491,1.90189c0.28378,-1.64806 1.72001,-2.90189 3.4491,-2.90189h63c1.72965,0 3.16627,1.25466 3.44938,2.90352c-0.69803,-1.26902 -2.34782,-1.90352 -4.94938,-1.90352z" id="topBoxShadow" fill="#ffffff" opacity="0.383"/><path d="M4,69h61c2.66667,0 4.33333,-1 5,-3v0.5c0,1.933 -1.567,3.5 -3.5,3.5h-63c-1.933,0 -3.5,-1.567 -3.5,-3.5c0,-0.1611 0,-0.32777 0,-0.5c0.66667,2 2,3 4,3z" id="bottomBoxShadow" fill="#000000" opacity="0.383"/><path d="M51.00074,36.00039h-3.00003v-8.00025c0,-2.20899 -1.7909,-3.99989 -3.99989,-3.99989h-8.00025v-3.00003c0,-2.76147 -2.23875,-5.00022 -5.00022,-5.00022c-2.76147,0 -5.00022,2.23875 -5.00022,5.00022v3.00003h-8.00025c-2.20899,0 -3.99989,1.7909 -3.99989,3.99989v7.59993h3.00003c3.00003,0 5.40006,2.40003 5.40006,5.40006c0,3.00003 -2.40003,5.40006 -5.40006,5.40006h-3.00003v7.59993c0,2.20899 1.7909,3.99989 3.99989,3.99989h7.59993v-3.00003c0,-3.00003 2.40003,-5.40006 5.40006,-5.40006c3.00003,0 5.40006,2.40003 5.40006,5.40006v3.00003h7.59993c2.20899,0 3.99989,-1.7909 3.99989,-3.99989v-8.00025h3.00003c2.76147,0 5.00022,-2.23875 5.00022,-5.00022c0,-2.76147 -2.23875,-5.00022 -5.00022,-5.00022z" id="shadow" fill="#000000" opacity="0.3"/><path d="M15.17157,23.17182c0.72385,-0.72385 1.72382,-1.17157 2.82831,-1.17157l2.92911,0l6.53569,-6.53569c0.90487,-0.90487 2.15492,-1.46456 3.53566,-1.46456c2.76147,0 5.00022,2.23875 5.00022,5.00022v3.00003h8.00025c2.20899,0 3.99989,1.7909 3.99989,3.99989v8.00025l2.99811,0l0.00096,-0.00096c2.76147,0 5.00022,2.23875 5.00022,5.00022c0,1.38074 -0.55969,2.63079 -1.46456,3.53566l-6.53569,6.53569v2.92911c0,1.10449 -0.44773,2.10446 -1.17157,2.82831l0,0l-15.17157,15.17157h-28.1566c-1.933,0 -3.5,-1.567 -3.5,-3.5l0,-28.1566z" id="flatShadow" fill="#000000" opacity="0.324"/><path d="M51.00074,34.00039h-3.00003v-8.00025c0,-2.20899 -1.7909,-3.99989 -3.99989,-3.99989h-8.00025v-3.00003c0,-2.76147 -2.23875,-5.00022 -5.00022,-5.00022c-2.76147,0 -5.00022,2.23875 -5.00022,5.00022v3.00003h-8.00025c-2.20899,0 -3.99989,1.7909 -3.99989,3.99989v7.59993h3.00003c3.00003,0 5.40006,2.40003 5.40006,5.40006c0,3.00003 -2.40003,5.40006 -5.40006,5.40006h-3.00003v7.59993c0,2.20899 1.7909,3.99989 3.99989,3.99989h7.59993v-3.00003c0,-3.00003 2.40003,-5.40006 5.40006,-5.40006c3.00003,0 5.40006,2.40003 5.40006,5.40006v3.00003h7.59993c2.20899,0 3.99989,-1.7909 3.99989,-3.99989v-8.00025h3.00003c2.76147,0 5.00022,-2.23875 5.00022,-5.00022c0,-2.76147 -2.23875,-5.00022 -5.00022,-5.00022z" id="icon" fill="#ffffff"/></g></svg>