<svg version="1.1" xmlns="http://www.w3.org/2000/svg" xmlns:xlink="http://www.w3.org/1999/xlink" width="70" height="70" viewBox="0,0,70,70" odoo-icon:version="1.0" xmlns:odoo-icon="https://ivantodorovich.github.io/odoo-icon" odoo-icon:size="70" odoo-icon:icon-size="0.58" odoo-icon:icon-color="#FFFFFF" odoo-icon:icon-flat-shadow-angle="135" odoo-icon:background-color="#249093" odoo-icon:background-gradient="0.2" odoo-icon:box-radius="3.5" odoo-icon:odoo-version="14.0"><defs><linearGradient x1="70" y1="0" x2="0" y2="70" gradientUnits="userSpaceOnUse" id="color-1"><stop offset="0" stop-color="#57c3c6"/><stop offset="1" stop-color="#249093"/></linearGradient></defs><g fill="none" fill-rule="nonzero" stroke="none" stroke-width="1" stroke-linecap="butt" stroke-linejoin="miter" stroke-miterlimit="10" stroke-dasharray="" stroke-dashoffset="0" font-family="none" font-weight="none" font-size="none" text-anchor="none" style="mix-blend-mode: normal"><path d="M3.5,70c-1.933,0 -3.5,-1.567 -3.5,-3.5v-63c0,-1.933 1.567,-3.5 3.5,-3.5h63c1.933,0 3.5,1.567 3.5,3.5v63c0,1.933 -1.567,3.5 -3.5,3.5z" id="box" fill="url(#color-1)"/><path d="M65,1h-61c-1.95033,0 -3.2667,0.63396 -3.9491,1.90189c0.28378,-1.64806 1.72001,-2.90189 3.4491,-2.90189h63c1.72965,0 3.16627,1.25466 3.44938,2.90352c-0.69803,-1.26902 -2.34782,-1.90352 -4.94938,-1.90352z" id="topBoxShadow" fill="#ffffff" opacity="0.383"/><path d="M4,69h61c2.66667,0 4.33333,-1 5,-3v0.5c0,1.933 -1.567,3.5 -3.5,3.5h-63c-1.933,0 -3.5,-1.567 -3.5,-3.5c0,-0.1611 0,-0.32777 0,-0.5c0.66667,2 2,3 4,3z" id="bottomBoxShadow" fill="#000000" opacity="0.383"/><path d="M49.78665,17.50655l0.32021,6.62806c-3.76585,-4.44235 -9.29675,-7.00075 -15.12039,-6.99419c-9.69732,0 -17.77104,6.96057 -19.50206,16.16138c-0.05166,0.28085 0.02378,0.5699 0.20623,0.78925c0.18245,0.21935 0.45305,0.34645 0.73841,0.34645h3.9278c0.44567,-0.00041 0.83271,-0.3075 0.93439,-0.74169c1.30872,-5.43209 5.70474,-9.57719 11.20407,-10.56488c5.49933,-0.98769 11.06303,1.36817 14.18067,6.00527l-8.12456,-0.38909c-0.26281,-0.0123 -0.51906,0.08323 -0.7093,0.26486c-0.19024,0.18163 -0.29766,0.43337 -0.29725,0.69618v3.7966c0,0.53054 0.43009,0.96104 0.96104,0.96104h16.03305c0.53054,0 0.96104,-0.43009 0.96104,-0.96104v-16.04371c0,-0.53054 -0.43009,-0.96104 -0.96104,-0.96104h-3.79332c-0.26281,0 -0.51373,0.10783 -0.69495,0.29807c-0.18122,0.19024 -0.27675,0.44608 -0.26404,0.70848zM34.98688,51.09375c-4.69245,0.0041 -9.07781,-2.3329 -11.69156,-6.22995l8.15203,0.38991c0.26281,0.0123 0.51906,-0.08323 0.7093,-0.26486c0.19024,-0.18163 0.29766,-0.43337 0.29725,-0.69618v-3.79578c0,-0.53054 -0.43009,-0.96104 -0.96104,-0.96104h-16.03182c-0.53054,0 -0.96104,0.43009 -0.96104,0.96104v16.04207c0,0.53054 0.43009,0.96104 0.96104,0.96104h3.79168c0.26322,0.00041 0.51537,-0.10742 0.697,-0.29807c0.18163,-0.19065 0.27716,-0.44772 0.26404,-0.71094l-0.33251,-6.61207c3.76503,4.43292 9.28896,6.98599 15.10522,6.98025c9.69814,0 17.77186,-6.96057 19.50288,-16.16138c0.05166,-0.28085 -0.02378,-0.5699 -0.20623,-0.78925c-0.18245,-0.21935 -0.45305,-0.34645 -0.73841,-0.34645h-3.9278c-0.44567,0.00041 -0.83271,0.3075 -0.93439,0.74169c-1.52233,6.32999 -7.18525,10.7912 -13.69564,10.78956z" id="shadow" fill="#000000" opacity="0.3"/><path d="M55.5,15.46104v16.04371c0,0.26542 -0.10758,0.50564 -0.28147,0.67953l-5.37781,5.37781l3.70399,0c0.28536,0 0.55596,0.1271 0.73841,0.34645c0.18245,0.21935 0.25789,0.5084 0.20623,0.78925l-31.30221,31.30221h-19.68714c-1.933,0 -3.5,-1.567 -3.5,-3.5l0,-24.58944l20.95821,-20.95821c3.59104,-3.59104 8.55063,-5.81193 14.02826,-5.81193c4.05308,-0.00457 7.96437,1.23327 11.23753,3.48394l3.84304,-3.84304c0.1798,-0.1798 0.4236,-0.28131 0.6786,-0.28131h3.79332c0.53095,0 0.96104,0.4305 0.96104,0.96104z" id="flatShadow" fill="#000000" opacity="0.324"/><path d="M49.78665,15.50655l0.32021,6.62806c-3.76585,-4.44235 -9.29675,-7.00075 -15.12039,-6.99419c-9.69732,0 -17.77104,6.96057 -19.50206,16.16138c-0.05166,0.28085 0.02378,0.5699 0.20623,0.78925c0.18245,0.21935 0.45305,0.34645 0.73841,0.34645h3.9278c0.44567,-0.00041 0.83271,-0.3075 0.93439,-0.74169c1.30872,-5.43209 5.70474,-9.57719 11.20407,-10.56488c5.49933,-0.98769 11.06303,1.36817 14.18067,6.00527l-8.12456,-0.38909c-0.26281,-0.0123 -0.51906,0.08323 -0.7093,0.26486c-0.19024,0.18163 -0.29766,0.43337 -0.29725,0.69618v3.7966c0,0.53054 0.43009,0.96104 0.96104,0.96104h16.03305c0.53054,0 0.96104,-0.43009 0.96104,-0.96104v-16.04371c0,-0.53054 -0.43009,-0.96104 -0.96104,-0.96104h-3.79332c-0.26281,0 -0.51373,0.10783 -0.69495,0.29807c-0.18122,0.19024 -0.27675,0.44608 -0.26404,0.70848zM34.98688,49.09375c-4.69245,0.0041 -9.07781,-2.3329 -11.69156,-6.22995l8.15203,0.38991c0.26281,0.0123 0.51906,-0.08323 0.7093,-0.26486c0.19024,-0.18163 0.29766,-0.43337 0.29725,-0.69618v-3.79578c0,-0.53054 -0.43009,-0.96104 -0.96104,-0.96104h-16.03182c-0.53054,0 -0.96104,0.43009 -0.96104,0.96104v16.04207c0,0.53054 0.43009,0.96104 0.96104,0.96104h3.79168c0.26322,0.00041 0.51537,-0.10742 0.697,-0.29807c0.18163,-0.19065 0.27716,-0.44772 0.26404,-0.71094l-0.33251,-6.61207c3.76503,4.43292 9.28896,6.98599 15.10522,6.98025c9.69814,0 17.77186,-6.96057 19.50288,-16.16138c0.05166,-0.28085 -0.02378,-0.5699 -0.20623,-0.78925c-0.18245,-0.21935 -0.45305,-0.34645 -0.73841,-0.34645h-3.9278c-0.44567,0.00041 -0.83271,0.3075 -0.93439,0.74169c-1.52233,6.32999 -7.18525,10.7912 -13.69564,10.78956z" id="icon" fill="#ffffff"/></g></svg>