<svg version="1.1" xmlns="http://www.w3.org/2000/svg" xmlns:xlink="http://www.w3.org/1999/xlink" width="70" height="70" viewBox="0,0,70,70" odoo-icon:version="1.0" xmlns:odoo-icon="https://ivantodorovich.github.io/odoo-icon" odoo-icon:size="70" odoo-icon:icon-size="0.6" odoo-icon:icon-color="#FFFFFF" odoo-icon:icon-flat-shadow-angle="135" odoo-icon:background-color="#1e88e5" odoo-icon:background-gradient="0.2" odoo-icon:box-radius="3.5" odoo-icon:odoo-version="14.0"><defs><linearGradient x1="70" y1="0" x2="0" y2="70" gradientUnits="userSpaceOnUse" id="color-1"><stop offset="0" stop-color="#51bbff"/><stop offset="1" stop-color="#1e88e5"/></linearGradient></defs><g fill="none" fill-rule="nonzero" stroke="none" stroke-width="1" stroke-linecap="butt" stroke-linejoin="miter" stroke-miterlimit="10" stroke-dasharray="" stroke-dashoffset="0" font-family="none" font-weight="none" font-size="none" text-anchor="none" style="mix-blend-mode: normal"><path d="M3.5,70c-1.933,0 -3.5,-1.567 -3.5,-3.5v-63c0,-1.933 1.567,-3.5 3.5,-3.5h63c1.933,0 3.5,1.567 3.5,3.5v63c0,1.933 -1.567,3.5 -3.5,3.5z" id="box" fill="url(#color-1)"/><path d="M65,1h-61c-1.95033,0 -3.2667,0.63396 -3.9491,1.90189c0.28378,-1.64806 1.72001,-2.90189 3.4491,-2.90189h63c1.72965,0 3.16627,1.25466 3.44938,2.90352c-0.69803,-1.26902 -2.34782,-1.90352 -4.94938,-1.90352z" id="topBoxShadow" fill="#ffffff" opacity="0.383"/><path d="M4,69h61c2.66667,0 4.33333,-1 5,-3v0.5c0,1.933 -1.567,3.5 -3.5,3.5h-63c-1.933,0 -3.5,-1.567 -3.5,-3.5c0,-0.1611 0,-0.32777 0,-0.5c0.66667,2 2,3 4,3z" id="bottomBoxShadow" fill="#000000" opacity="0.383"/><path d="M30.7997,51.70005c-1.25999,0 -2.10015,-0.84016 -2.10015,-2.10015v-2.10015c0,-1.04982 0.84016,-2.10015 2.10015,-2.10015c1.04982,0 2.10015,0.84016 2.10015,2.10015v2.10015c0,1.25999 -0.84016,2.10015 -2.10015,2.10015M41.29945,49.5999v-2.10015c0,-1.04982 -0.84016,-2.10015 -2.10015,-2.10015c-1.04982,0 -2.10015,0.84016 -2.10015,2.10015v2.10015c0,1.04982 0.84016,2.10015 2.10015,2.10015c1.25999,0 2.10015,-0.84016 2.10015,-2.10015M55.9995,37c0,5.45979 -3.36014,10.29009 -8.4001,13.44006v3.36014c0,2.31939 -1.88041,4.1998 -4.1998,4.1998h-16.7997c-2.31939,0 -4.1998,-1.88041 -4.1998,-4.1998v-3.36014c-5.03996,-3.14997 -8.4001,-7.97977 -8.4001,-13.44006c0,-11.59796 9.40204,-21 21,-21c11.59796,0 21,9.40204 21,21M24.49975,32.8002c0,-2.30981 -1.25999,-4.40996 -3.14997,-5.45979c-2.10015,2.73015 -3.14997,6.08978 -3.14997,9.66009c0,0.62999 0,1.47016 0.21017,2.10015c3.36014,-0.21017 6.08978,-2.93981 6.08978,-6.29995M28.69955,30.70005c0,3.5698 2.73015,6.29995 6.29995,6.29995c3.5698,0 6.29995,-2.73015 6.29995,-6.29995c0,-3.5698 -2.73015,-6.29995 -6.29995,-6.29995c-3.5698,0 -6.29995,2.73015 -6.29995,6.29995M43.3996,53.7997v-9.44992c-2.51998,-0.62999 -5.45979,-1.04982 -8.4001,-1.04982c-2.93981,0 -5.88012,0.41983 -8.4001,1.04982v9.44992h16.7997M51.58953,39.10015c0.21017,-0.62999 0.21017,-1.47016 0.21017,-2.10015c0,-3.5698 -1.04982,-6.92994 -3.14997,-9.66009c-1.88998,1.04982 -3.14997,3.14997 -3.14997,5.45979c0,3.36014 2.73015,6.08978 6.08978,6.29995z" id="shadow" fill="#000000" opacity="0.3"/><path d="M51.33165,45.49162l-3.73226,3.73226v2.57632c0,1.15969 -0.4701,2.20964 -1.23013,2.96967l-15.23013,15.23013h-27.63914c-1.933,0 -3.5,-1.567 -3.5,-3.5l0,-26.19847l20.15077,-20.15077c3.80026,-3.80026 9.05026,-6.15077 14.84923,-6.15077c11.59796,0 21,9.40204 21,21l-0.0005,0.0005c-0.00015,3.96255 -1.77023,7.5935 -4.66784,10.49112z" id="flatShadow" fill="#000000" opacity="0.324"/><path d="M30.7997,49.70005c-1.25999,0 -2.10015,-0.84016 -2.10015,-2.10015v-2.10015c0,-1.04982 0.84016,-2.10015 2.10015,-2.10015c1.04982,0 2.10015,0.84016 2.10015,2.10015v2.10015c0,1.25999 -0.84016,2.10015 -2.10015,2.10015M41.29945,47.5999v-2.10015c0,-1.04982 -0.84016,-2.10015 -2.10015,-2.10015c-1.04982,0 -2.10015,0.84016 -2.10015,2.10015v2.10015c0,1.04982 0.84016,2.10015 2.10015,2.10015c1.25999,0 2.10015,-0.84016 2.10015,-2.10015M55.9995,35c0,5.45979 -3.36014,10.29009 -8.4001,13.44006v3.36014c0,2.31939 -1.88041,4.1998 -4.1998,4.1998h-16.7997c-2.31939,0 -4.1998,-1.88041 -4.1998,-4.1998v-3.36014c-5.03996,-3.14997 -8.4001,-7.97977 -8.4001,-13.44006c0,-11.59796 9.40204,-21 21,-21c11.59796,0 21,9.40204 21,21M24.49975,30.8002c0,-2.30981 -1.25999,-4.40996 -3.14997,-5.45979c-2.10015,2.73015 -3.14997,6.08978 -3.14997,9.66009c0,0.62999 0,1.47016 0.21017,2.10015c3.36014,-0.21017 6.08978,-2.93981 6.08978,-6.29995M28.69955,28.70005c0,3.5698 2.73015,6.29995 6.29995,6.29995c3.5698,0 6.29995,-2.73015 6.29995,-6.29995c0,-3.5698 -2.73015,-6.29995 -6.29995,-6.29995c-3.5698,0 -6.29995,2.73015 -6.29995,6.29995M43.3996,51.7997v-9.44992c-2.51998,-0.62999 -5.45979,-1.04982 -8.4001,-1.04982c-2.93981,0 -5.88012,0.41983 -8.4001,1.04982v9.44992h16.7997M51.58953,37.10015c0.21017,-0.62999 0.21017,-1.47016 0.21017,-2.10015c0,-3.5698 -1.04982,-6.92994 -3.14997,-9.66009c-1.88998,1.04982 -3.14997,3.14997 -3.14997,5.45979c0,3.36014 2.73015,6.08978 6.08978,6.29995z" id="icon" fill="#ffffff"/></g></svg>