<svg version="1.1" xmlns="http://www.w3.org/2000/svg" xmlns:xlink="http://www.w3.org/1999/xlink" width="70" height="70" viewBox="0,0,70,70" odoo-icon:version="1.0" xmlns:odoo-icon="https://ivantodorovich.github.io/odoo-icon" odoo-icon:size="70" odoo-icon:icon-size="0.63" odoo-icon:icon-color="#FFFFFF" odoo-icon:icon-flat-shadow-angle="135" odoo-icon:background-color="#e53935" odoo-icon:background-gradient="0.2" odoo-icon:box-radius="3.5" odoo-icon:odoo-version="14.0"><defs><linearGradient x1="70" y1="0" x2="0" y2="70" gradientUnits="userSpaceOnUse" id="color-1"><stop offset="0" stop-color="#ff6c68"/><stop offset="1" stop-color="#e53935"/></linearGradient></defs><g fill="none" fill-rule="nonzero" stroke="none" stroke-width="1" stroke-linecap="butt" stroke-linejoin="miter" stroke-miterlimit="10" stroke-dasharray="" stroke-dashoffset="0" font-family="none" font-weight="none" font-size="none" text-anchor="none" style="mix-blend-mode: normal"><path d="M3.5,70c-1.933,0 -3.5,-1.567 -3.5,-3.5v-63c0,-1.933 1.567,-3.5 3.5,-3.5h63c1.933,0 3.5,1.567 3.5,3.5v63c0,1.933 -1.567,3.5 -3.5,3.5z" id="box" fill="url(#color-1)"/><path d="M65,1h-61c-1.95033,0 -3.2667,0.63396 -3.9491,1.90189c0.28378,-1.64806 1.72001,-2.90189 3.4491,-2.90189h63c1.72965,0 3.16627,1.25466 3.44938,2.90352c-0.69803,-1.26902 -2.34782,-1.90352 -4.94938,-1.90352z" id="topBoxShadow" fill="#ffffff" opacity="0.383"/><path d="M4,69h61c2.66667,0 4.33333,-1 5,-3v0.5c0,1.933 -1.567,3.5 -3.5,3.5h-63c-1.933,0 -3.5,-1.567 -3.5,-3.5c0,-0.1611 0,-0.32777 0,-0.5c0.66667,2 2,3 4,3z" id="bottomBoxShadow" fill="#000000" opacity="0.383"/><path d="M21.93104,51.15616c3.75024,-4.3032 5.66256,-9.22512 5.66256,-14.15616c0,-4.93104 -1.91232,-9.85296 -5.66256,-14.15616h7.06896c3.1968,0 7.67808,3.18768 11.18448,6.6936c1.75296,1.74384 3.2904,3.55296 4.36896,4.9968c0.54384,0.71232 0.97488,1.35024 1.25616,1.81872c0.13104,0.23424 0.23424,0.44064 0.3,0.57168c0.0096,0.03744 0.01872,0.04704 0.01872,0.07488c0,0.02832 -0.0096,0.04704 -0.01872,0.08448c-0.05616,0.13104 -0.15936,0.32832 -0.3,0.56256c-0.28128,0.47808 -0.7032,1.1064 -1.23744,1.82832c-1.05936,1.44384 -2.57808,3.24384 -4.32192,4.98768c-3.48768,3.5064 -7.95936,6.6936 -11.24976,6.6936zM12.5,46.84384v-1.68768h11.45616c-0.28128,0.57168 -0.5904,1.13424 -0.92832,1.68768zM47.6096,37.84384c0.01872,-0.02832 0.03744,-0.06576 0.04704,-0.0936c0.1032,-0.22512 0.18768,-0.41232 0.18768,-0.74976c0,-0.33744 -0.0936,-0.52512 -0.18768,-0.74976c-0.0096,-0.02832 -0.02832,-0.06576 -0.04704,-0.0936h9.8904v1.68768zM12.5,28.84384v-1.68768h10.52832c0.33744,0.55296 0.64704,1.11552 0.92832,1.68768z" id="shadow" fill="#000000" opacity="0.3"/><path d="M21.93104,20.84384h7.06896c3.1968,0 7.67808,3.18768 11.18448,6.6936c1.75296,1.74384 3.2904,3.55296 4.36896,4.9968c0.54384,0.71232 0.97488,1.35024 1.25616,1.81872c0.13104,0.23424 0.23424,0.44064 0.3,0.57168c0.0096,0.03744 0.01872,0.04704 0.01872,0.07488c0,0.02832 -0.0096,0.04704 -0.01872,0.08448c-0.05616,0.13104 -0.15936,0.32832 -0.3,0.56256c-0.14615,0.2484 -0.33026,0.53736 -0.54837,0.85893l2.34837,-2.34837h9.8904v1.68768l-34.1552,34.1552h-19.8448c-1.933,0 -3.5,-1.567 -3.5,-3.5l0,-28.84384l12.5,-12.5l5.11872,0z" id="flatShadow" fill="#000000" opacity="0.324"/><path d="M21.93104,49.15616c3.75024,-4.3032 5.66256,-9.22512 5.66256,-14.15616c0,-4.93104 -1.91232,-9.85296 -5.66256,-14.15616h7.06896c3.1968,0 7.67808,3.18768 11.18448,6.6936c1.75296,1.74384 3.2904,3.55296 4.36896,4.9968c0.54384,0.71232 0.97488,1.35024 1.25616,1.81872c0.13104,0.23424 0.23424,0.44064 0.3,0.57168c0.0096,0.03744 0.01872,0.04704 0.01872,0.07488c0,0.02832 -0.0096,0.04704 -0.01872,0.08448c-0.05616,0.13104 -0.15936,0.32832 -0.3,0.56256c-0.28128,0.47808 -0.7032,1.1064 -1.23744,1.82832c-1.05936,1.44384 -2.57808,3.24384 -4.32192,4.98768c-3.48768,3.5064 -7.95936,6.6936 -11.24976,6.6936zM12.5,44.84384v-1.68768h11.45616c-0.28128,0.57168 -0.5904,1.13424 -0.92832,1.68768zM47.6096,35.84384c0.01872,-0.02832 0.03744,-0.06576 0.04704,-0.0936c0.1032,-0.22512 0.18768,-0.41232 0.18768,-0.74976c0,-0.33744 -0.0936,-0.52512 -0.18768,-0.74976c-0.0096,-0.02832 -0.02832,-0.06576 -0.04704,-0.0936h9.8904v1.68768zM12.5,26.84384v-1.68768h10.52832c0.33744,0.55296 0.64704,1.11552 0.92832,1.68768z" id="icon" fill="#ffffff"/></g></svg>